G04*
G04 #@! TF.GenerationSoftware,Altium Limited,Altium Designer,19.0.12 (326)*
G04*
G04 Layer_Physical_Order=1*
G04 Layer_Color=3707366*
%FSLAX25Y25*%
%MOIN*%
G70*
G01*
G75*
%ADD12R,0.07087X0.01181*%
%ADD13R,0.09843X0.06299*%
%ADD14R,0.06299X0.09843*%
%ADD15R,0.04724X0.04724*%
%ADD25C,0.00694*%
%ADD26C,0.00894*%
%ADD27C,0.00494*%
%ADD28C,0.03394*%
%ADD29C,0.01094*%
%ADD30C,0.02994*%
%ADD31C,0.03094*%
%ADD32C,0.03494*%
%ADD33C,0.03694*%
%ADD34C,0.01194*%
%ADD35C,0.01594*%
%ADD36C,0.05694*%
%ADD37C,0.00294*%
%ADD38C,0.02194*%
%ADD39R,0.05517X0.03368*%
%ADD40R,0.00020X0.03122*%
%ADD41R,0.05031X0.03967*%
%ADD42R,0.17141X0.04069*%
%ADD43R,0.19848X0.06085*%
G04:AMPARAMS|DCode=44|XSize=24.54mil|YSize=44.19mil|CornerRadius=0mil|HoleSize=0mil|Usage=FLASHONLY|Rotation=135.000|XOffset=0mil|YOffset=0mil|HoleType=Round|Shape=Rectangle|*
%AMROTATEDRECTD44*
4,1,4,0.02430,0.00695,-0.00695,-0.02430,-0.02430,-0.00695,0.00695,0.02430,0.02430,0.00695,0.0*
%
%ADD44ROTATEDRECTD44*%

G04:AMPARAMS|DCode=45|XSize=71.73mil|YSize=100.54mil|CornerRadius=0mil|HoleSize=0mil|Usage=FLASHONLY|Rotation=225.000|XOffset=0mil|YOffset=0mil|HoleType=Round|Shape=Rectangle|*
%AMROTATEDRECTD45*
4,1,4,-0.01019,0.06091,0.06091,-0.01019,0.01019,-0.06091,-0.06091,0.01019,-0.01019,0.06091,0.0*
%
%ADD45ROTATEDRECTD45*%

G04:AMPARAMS|DCode=46|XSize=38.29mil|YSize=51.46mil|CornerRadius=0mil|HoleSize=0mil|Usage=FLASHONLY|Rotation=225.000|XOffset=0mil|YOffset=0mil|HoleType=Round|Shape=Rectangle|*
%AMROTATEDRECTD46*
4,1,4,-0.00466,0.03173,0.03173,-0.00466,0.00466,-0.03173,-0.03173,0.00466,-0.00466,0.03173,0.0*
%
%ADD46ROTATEDRECTD46*%

G04:AMPARAMS|DCode=47|XSize=19.91mil|YSize=19.34mil|CornerRadius=0mil|HoleSize=0mil|Usage=FLASHONLY|Rotation=180.147|XOffset=0mil|YOffset=0mil|HoleType=Round|Shape=Rectangle|*
%AMROTATEDRECTD47*
4,1,4,0.00993,0.00970,0.00998,-0.00965,-0.00993,-0.00970,-0.00998,0.00965,0.00993,0.00970,0.0*
%
%ADD47ROTATEDRECTD47*%

G04:AMPARAMS|DCode=48|XSize=112.02mil|YSize=51.5mil|CornerRadius=0mil|HoleSize=0mil|Usage=FLASHONLY|Rotation=5.901|XOffset=0mil|YOffset=0mil|HoleType=Round|Shape=Rectangle|*
%AMROTATEDRECTD48*
4,1,4,-0.05306,-0.03137,-0.05836,0.01985,0.05306,0.03137,0.05836,-0.01985,-0.05306,-0.03137,0.0*
%
%ADD48ROTATEDRECTD48*%

G04:AMPARAMS|DCode=49|XSize=19.98mil|YSize=54mil|CornerRadius=0mil|HoleSize=0mil|Usage=FLASHONLY|Rotation=45.000|XOffset=0mil|YOffset=0mil|HoleType=Round|Shape=Rectangle|*
%AMROTATEDRECTD49*
4,1,4,0.01203,-0.02615,-0.02615,0.01203,-0.01203,0.02615,0.02615,-0.01203,0.01203,-0.02615,0.0*
%
%ADD49ROTATEDRECTD49*%

%ADD50R,0.01121X0.01878*%
G04:AMPARAMS|DCode=51|XSize=11.53mil|YSize=20.87mil|CornerRadius=0mil|HoleSize=0mil|Usage=FLASHONLY|Rotation=23.265|XOffset=0mil|YOffset=0mil|HoleType=Round|Shape=Rectangle|*
%AMROTATEDRECTD51*
4,1,4,-0.00118,-0.01187,-0.00942,0.00731,0.00118,0.01187,0.00942,-0.00731,-0.00118,-0.01187,0.0*
%
%ADD51ROTATEDRECTD51*%

G04:AMPARAMS|DCode=52|XSize=44.44mil|YSize=65.78mil|CornerRadius=0mil|HoleSize=0mil|Usage=FLASHONLY|Rotation=358.680|XOffset=0mil|YOffset=0mil|HoleType=Round|Shape=Rectangle|*
%AMROTATEDRECTD52*
4,1,4,-0.02297,-0.03237,-0.02145,0.03339,0.02297,0.03237,0.02145,-0.03339,-0.02297,-0.03237,0.0*
%
%ADD52ROTATEDRECTD52*%

%ADD53R,0.04008X0.02088*%
G04:AMPARAMS|DCode=54|XSize=23.28mil|YSize=31.8mil|CornerRadius=0mil|HoleSize=0mil|Usage=FLASHONLY|Rotation=353.562|XOffset=0mil|YOffset=0mil|HoleType=Round|Shape=Rectangle|*
%AMROTATEDRECTD54*
4,1,4,-0.01335,-0.01449,-0.00978,0.01710,0.01335,0.01449,0.00978,-0.01710,-0.01335,-0.01449,0.0*
%
%ADD54ROTATEDRECTD54*%

G04:AMPARAMS|DCode=55|XSize=42.42mil|YSize=27.78mil|CornerRadius=0mil|HoleSize=0mil|Usage=FLASHONLY|Rotation=44.804|XOffset=0mil|YOffset=0mil|HoleType=Round|Shape=Rectangle|*
%AMROTATEDRECTD55*
4,1,4,-0.00526,-0.02480,-0.02483,-0.00509,0.00526,0.02480,0.02483,0.00509,-0.00526,-0.02480,0.0*
%
%ADD55ROTATEDRECTD55*%

G04:AMPARAMS|DCode=56|XSize=44.84mil|YSize=28.81mil|CornerRadius=0mil|HoleSize=0mil|Usage=FLASHONLY|Rotation=134.491|XOffset=0mil|YOffset=0mil|HoleType=Round|Shape=Rectangle|*
%AMROTATEDRECTD56*
4,1,4,0.02599,-0.00590,0.00544,-0.02609,-0.02599,0.00590,-0.00544,0.02609,0.02599,-0.00590,0.0*
%
%ADD56ROTATEDRECTD56*%

G04:AMPARAMS|DCode=57|XSize=53.85mil|YSize=47.83mil|CornerRadius=0mil|HoleSize=0mil|Usage=FLASHONLY|Rotation=359.183|XOffset=0mil|YOffset=0mil|HoleType=Round|Shape=Rectangle|*
%AMROTATEDRECTD57*
4,1,4,-0.02726,-0.02353,-0.02658,0.02430,0.02726,0.02353,0.02658,-0.02430,-0.02726,-0.02353,0.0*
%
%ADD57ROTATEDRECTD57*%

G04:AMPARAMS|DCode=58|XSize=110.6mil|YSize=61.23mil|CornerRadius=0mil|HoleSize=0mil|Usage=FLASHONLY|Rotation=225.000|XOffset=0mil|YOffset=0mil|HoleType=Round|Shape=Rectangle|*
%AMROTATEDRECTD58*
4,1,4,0.01745,0.06075,0.06075,0.01745,-0.01745,-0.06075,-0.06075,-0.01745,0.01745,0.06075,0.0*
%
%ADD58ROTATEDRECTD58*%

G04:AMPARAMS|DCode=59|XSize=37.08mil|YSize=91.05mil|CornerRadius=0mil|HoleSize=0mil|Usage=FLASHONLY|Rotation=359.723|XOffset=0mil|YOffset=0mil|HoleType=Round|Shape=Rectangle|*
%AMROTATEDRECTD59*
4,1,4,-0.01876,-0.04544,-0.01832,0.04561,0.01876,0.04544,0.01832,-0.04561,-0.01876,-0.04544,0.0*
%
%ADD59ROTATEDRECTD59*%

G04:AMPARAMS|DCode=60|XSize=21.88mil|YSize=56.12mil|CornerRadius=0mil|HoleSize=0mil|Usage=FLASHONLY|Rotation=2.548|XOffset=0mil|YOffset=0mil|HoleType=Round|Shape=Rectangle|*
%AMROTATEDRECTD60*
4,1,4,-0.00968,-0.02852,-0.01218,0.02755,0.00968,0.02852,0.01218,-0.02755,-0.00968,-0.02852,0.0*
%
%ADD60ROTATEDRECTD60*%

G04:AMPARAMS|DCode=61|XSize=68.89mil|YSize=113.81mil|CornerRadius=0mil|HoleSize=0mil|Usage=FLASHONLY|Rotation=177.381|XOffset=0mil|YOffset=0mil|HoleType=Round|Shape=Rectangle|*
%AMROTATEDRECTD61*
4,1,4,0.03701,0.05527,0.03181,-0.05842,-0.03701,-0.05527,-0.03181,0.05842,0.03701,0.05527,0.0*
%
%ADD61ROTATEDRECTD61*%

G04:AMPARAMS|DCode=62|XSize=70.05mil|YSize=110.59mil|CornerRadius=0mil|HoleSize=0mil|Usage=FLASHONLY|Rotation=6.839|XOffset=0mil|YOffset=0mil|HoleType=Round|Shape=Rectangle|*
%AMROTATEDRECTD62*
4,1,4,-0.02819,-0.05907,-0.04136,0.05073,0.02819,0.05907,0.04136,-0.05073,-0.02819,-0.05907,0.0*
%
%ADD62ROTATEDRECTD62*%

G04:AMPARAMS|DCode=63|XSize=115.87mil|YSize=56.1mil|CornerRadius=0mil|HoleSize=0mil|Usage=FLASHONLY|Rotation=181.645|XOffset=0mil|YOffset=0mil|HoleType=Round|Shape=Rectangle|*
%AMROTATEDRECTD63*
4,1,4,0.05711,0.02970,0.05872,-0.02638,-0.05711,-0.02970,-0.05872,0.02638,0.05711,0.02970,0.0*
%
%ADD63ROTATEDRECTD63*%

G04:AMPARAMS|DCode=64|XSize=130.96mil|YSize=56.36mil|CornerRadius=0mil|HoleSize=0mil|Usage=FLASHONLY|Rotation=43.987|XOffset=0mil|YOffset=0mil|HoleType=Round|Shape=Rectangle|*
%AMROTATEDRECTD64*
4,1,4,-0.02754,-0.06575,-0.06668,-0.02520,0.02754,0.06575,0.06668,0.02520,-0.02754,-0.06575,0.0*
%
%ADD64ROTATEDRECTD64*%

G04:AMPARAMS|DCode=65|XSize=65.97mil|YSize=86.88mil|CornerRadius=0mil|HoleSize=0mil|Usage=FLASHONLY|Rotation=222.390|XOffset=0mil|YOffset=0mil|HoleType=Round|Shape=Rectangle|*
%AMROTATEDRECTD65*
4,1,4,-0.00492,0.05432,0.05365,-0.00985,0.00492,-0.05432,-0.05365,0.00985,-0.00492,0.05432,0.0*
%
%ADD65ROTATEDRECTD65*%

G04:AMPARAMS|DCode=66|XSize=91.9mil|YSize=256.41mil|CornerRadius=0mil|HoleSize=0mil|Usage=FLASHONLY|Rotation=2.394|XOffset=0mil|YOffset=0mil|HoleType=Round|Shape=Rectangle|*
%AMROTATEDRECTD66*
4,1,4,-0.04055,-0.13001,-0.05127,0.12618,0.04055,0.13001,0.05127,-0.12618,-0.04055,-0.13001,0.0*
%
%ADD66ROTATEDRECTD66*%

G04:AMPARAMS|DCode=67|XSize=279.02mil|YSize=61.75mil|CornerRadius=0mil|HoleSize=0mil|Usage=FLASHONLY|Rotation=269.532|XOffset=0mil|YOffset=0mil|HoleType=Round|Shape=Rectangle|*
%AMROTATEDRECTD67*
4,1,4,-0.02974,0.13976,0.03202,0.13926,0.02974,-0.13976,-0.03202,-0.13926,-0.02974,0.13976,0.0*
%
%ADD67ROTATEDRECTD67*%

G04:AMPARAMS|DCode=68|XSize=20.68mil|YSize=19.34mil|CornerRadius=0mil|HoleSize=0mil|Usage=FLASHONLY|Rotation=232.846|XOffset=0mil|YOffset=0mil|HoleType=Round|Shape=Rectangle|*
%AMROTATEDRECTD68*
4,1,4,-0.00146,0.01408,0.01395,0.00240,0.00146,-0.01408,-0.01395,-0.00240,-0.00146,0.01408,0.0*
%
%ADD68ROTATEDRECTD68*%

G04:AMPARAMS|DCode=69|XSize=85.67mil|YSize=40.21mil|CornerRadius=0mil|HoleSize=0mil|Usage=FLASHONLY|Rotation=225.557|XOffset=0mil|YOffset=0mil|HoleType=Round|Shape=Rectangle|*
%AMROTATEDRECTD69*
4,1,4,0.01564,0.04466,0.04435,0.01650,-0.01564,-0.04466,-0.04435,-0.01650,0.01564,0.04466,0.0*
%
%ADD69ROTATEDRECTD69*%

G04:AMPARAMS|DCode=70|XSize=17.81mil|YSize=16.07mil|CornerRadius=0mil|HoleSize=0mil|Usage=FLASHONLY|Rotation=225.000|XOffset=0mil|YOffset=0mil|HoleType=Round|Shape=Rectangle|*
%AMROTATEDRECTD70*
4,1,4,0.00061,0.01198,0.01198,0.00061,-0.00061,-0.01198,-0.01198,-0.00061,0.00061,0.01198,0.0*
%
%ADD70ROTATEDRECTD70*%

G04:AMPARAMS|DCode=71|XSize=21.28mil|YSize=23.13mil|CornerRadius=0mil|HoleSize=0mil|Usage=FLASHONLY|Rotation=315.000|XOffset=0mil|YOffset=0mil|HoleType=Round|Shape=Rectangle|*
%AMROTATEDRECTD71*
4,1,4,-0.01570,-0.00065,0.00065,0.01570,0.01570,0.00065,-0.00065,-0.01570,-0.01570,-0.00065,0.0*
%
%ADD71ROTATEDRECTD71*%

%ADD72R,0.02022X0.03450*%
%ADD73R,0.07329X0.05676*%
%ADD74R,0.00343X0.00435*%
G04:AMPARAMS|DCode=75|XSize=26.43mil|YSize=38.72mil|CornerRadius=0mil|HoleSize=0mil|Usage=FLASHONLY|Rotation=133.509|XOffset=0mil|YOffset=0mil|HoleType=Round|Shape=Rectangle|*
%AMROTATEDRECTD75*
4,1,4,0.02314,0.00375,-0.00494,-0.02291,-0.02314,-0.00375,0.00494,0.02291,0.02314,0.00375,0.0*
%
%ADD75ROTATEDRECTD75*%

G04:AMPARAMS|DCode=76|XSize=25.26mil|YSize=22.21mil|CornerRadius=0mil|HoleSize=0mil|Usage=FLASHONLY|Rotation=131.961|XOffset=0mil|YOffset=0mil|HoleType=Round|Shape=Rectangle|*
%AMROTATEDRECTD76*
4,1,4,0.01670,-0.00197,0.00019,-0.01682,-0.01670,0.00197,-0.00019,0.01682,0.01670,-0.00197,0.0*
%
%ADD76ROTATEDRECTD76*%

%ADD77R,0.01827X0.10170*%
%ADD78R,0.02651X0.09381*%
%ADD79R,0.03347X0.03941*%
%ADD80R,0.03895X0.05379*%
%ADD81R,0.10797X0.06395*%
%ADD82R,0.01290X0.03337*%
G04:AMPARAMS|DCode=83|XSize=31.06mil|YSize=27.02mil|CornerRadius=0mil|HoleSize=0mil|Usage=FLASHONLY|Rotation=228.006|XOffset=0mil|YOffset=0mil|HoleType=Round|Shape=Rectangle|*
%AMROTATEDRECTD83*
4,1,4,0.00035,0.02058,0.02043,0.00250,-0.00035,-0.02058,-0.02043,-0.00250,0.00035,0.02058,0.0*
%
%ADD83ROTATEDRECTD83*%

%ADD84R,0.03982X0.03496*%
%ADD85R,0.08297X0.05492*%
%ADD86R,0.07544X0.01689*%
G04:AMPARAMS|DCode=87|XSize=18.02mil|YSize=8.36mil|CornerRadius=0mil|HoleSize=0mil|Usage=FLASHONLY|Rotation=225.000|XOffset=0mil|YOffset=0mil|HoleType=Round|Shape=Rectangle|*
%AMROTATEDRECTD87*
4,1,4,0.00342,0.00933,0.00933,0.00342,-0.00342,-0.00933,-0.00933,-0.00342,0.00342,0.00933,0.0*
%
%ADD87ROTATEDRECTD87*%

%ADD88R,0.01067X0.00914*%
G04:AMPARAMS|DCode=89|XSize=33.73mil|YSize=24.43mil|CornerRadius=0mil|HoleSize=0mil|Usage=FLASHONLY|Rotation=314.385|XOffset=0mil|YOffset=0mil|HoleType=Round|Shape=Rectangle|*
%AMROTATEDRECTD89*
4,1,4,-0.02053,0.00351,-0.00307,0.02060,0.02053,-0.00351,0.00307,-0.02060,-0.02053,0.00351,0.0*
%
%ADD89ROTATEDRECTD89*%

%ADD90R,0.04719X0.01832*%
%ADD91R,0.01392X0.02467*%
%ADD92R,0.05021X0.17529*%
%ADD93R,0.20774X0.16184*%
%ADD94O,0.06299X0.05512*%
%ADD95R,0.06299X0.05512*%
%ADD96R,0.05118X0.05118*%
%ADD97C,0.05118*%
%ADD98C,0.02362*%
D12*
X5026860Y4901461D02*
D03*
Y4903902D02*
D03*
X5026896Y4906497D02*
D03*
Y4909051D02*
D03*
X5026931Y4911682D02*
D03*
X5026967Y4914277D02*
D03*
Y4916867D02*
D03*
Y4919272D02*
D03*
Y4921867D02*
D03*
X5027044Y4924385D02*
D03*
X5027003Y4927016D02*
D03*
X5026967Y4929534D02*
D03*
X5053244Y4929549D02*
D03*
Y4926980D02*
D03*
X5053223Y4924487D02*
D03*
Y4921944D02*
D03*
X5053295Y4919354D02*
D03*
Y4916882D02*
D03*
X5053269Y4914241D02*
D03*
X5053197Y4911749D02*
D03*
X5053244Y4909102D02*
D03*
X5053295Y4906512D02*
D03*
Y4903872D02*
D03*
X5053244Y4901451D02*
D03*
D13*
X5033038Y4879028D02*
D03*
Y4892561D02*
D03*
D14*
X5053909Y4952018D02*
D03*
X5040377D02*
D03*
D15*
X5020575Y4889735D02*
D03*
X5020672Y4880968D02*
D03*
X5028968Y4939115D02*
D03*
X5020201Y4939018D02*
D03*
X5028968Y4948005D02*
D03*
X5020201Y4947908D02*
D03*
X5028892Y4957003D02*
D03*
X5020124Y4956905D02*
D03*
D25*
X5010461Y4967398D02*
G03*
X5010461Y4975131I1246J3867D01*
G01*
X5010154Y4967408D02*
X5010461Y4967398D01*
X5009653Y4967423D02*
X5010154Y4967408D01*
X5008803Y4967945D02*
X5009653Y4967423D01*
X5008803Y4961553D02*
Y4967945D01*
Y4961553D02*
X5009141Y4961215D01*
X5009561D01*
X5012611Y4958165D01*
X5016194D01*
X5016224Y4958134D01*
Y4960140D01*
X5016731Y4960647D01*
X5023646D01*
X5024014Y4960278D01*
Y4958226D02*
Y4960278D01*
X5023983Y4958195D02*
X5024014Y4958226D01*
X5023983Y4958195D02*
X5025114D01*
X5025145Y4958165D01*
Y4960284D01*
X5025483Y4960621D01*
X5032454D01*
X5032766Y4960309D01*
Y4958277D02*
Y4960309D01*
Y4958277D02*
X5032792Y4958252D01*
X5037705D01*
X5037787Y4958334D01*
Y4975807D01*
X5036605Y4976989D02*
X5037787Y4975807D01*
X5012355Y4976989D02*
X5036605D01*
X5010497Y4975131D02*
X5012355Y4976989D01*
X5010461Y4975131D02*
X5010497D01*
D26*
X5020739Y4901584D02*
X5023057Y4903902D01*
X5026860D01*
X5011403Y4891317D02*
Y4891470D01*
X5016787Y4896855D01*
Y4902633D01*
X5020652Y4906497D01*
X5026896D01*
X5011147Y4901353D02*
X5018845Y4909051D01*
X5026896D01*
X5015764Y4918238D02*
X5016844Y4919318D01*
X5015764Y4913596D02*
Y4918238D01*
Y4913596D02*
X5017632Y4911728D01*
X5027336D01*
X5018707Y4914538D02*
X5019566Y4913678D01*
X5022796D01*
X5023395Y4914277D01*
X5026967D01*
X5021670Y4916401D02*
X5022136Y4916867D01*
X5026967D01*
X5011403Y4929104D02*
Y4931428D01*
Y4929104D02*
X5021235Y4919272D01*
X5026967D01*
X5011362Y4940236D02*
Y4941244D01*
Y4940236D02*
X5016695Y4934903D01*
Y4927312D02*
Y4934903D01*
Y4927312D02*
X5022141Y4921867D01*
X5026967D01*
X5019725Y4928116D02*
Y4929989D01*
Y4928116D02*
X5023456Y4924385D01*
X5027044D01*
D27*
X5022873Y4881654D02*
Y4883588D01*
X5022719Y4883742D02*
X5022873Y4883588D01*
X5018712Y4883742D02*
X5022719D01*
X5018655Y4883686D02*
X5018712Y4883742D01*
X5018655Y4881127D02*
Y4883686D01*
X5017243Y4879714D02*
X5018655Y4881127D01*
X5017243Y4866039D02*
Y4879714D01*
Y4866039D02*
X5018978Y4864304D01*
X5024454D01*
X5029527Y4869376D01*
X5034383D01*
X5037091Y4872083D01*
Y4881874D01*
X5036958Y4882007D02*
X5037091Y4881874D01*
X5027771Y4882007D02*
X5036958D01*
X5027316Y4881552D02*
X5027771Y4882007D01*
X5022975Y4881552D02*
X5027316D01*
D28*
X5045126Y4912946D02*
X5049395D01*
X5042363Y4910182D02*
X5045126Y4912946D01*
X5042363Y4908222D02*
Y4910182D01*
X5048207Y4912946D02*
X5055342D01*
X5046252Y4914901D02*
X5048207Y4912946D01*
X5046252Y4914901D02*
Y4916728D01*
X5045444Y4917537D02*
X5046252Y4916728D01*
X5043243Y4917537D02*
X5045444D01*
X5042363Y4916657D02*
X5043243Y4917537D01*
X5042363Y4870159D02*
Y4916657D01*
X5037198Y4864994D02*
X5042363Y4870159D01*
X5030284Y4864994D02*
X5037198D01*
X5023630Y4858341D02*
X5030284Y4864994D01*
D29*
X5048080Y4906512D02*
X5053295D01*
X5047737Y4908437D02*
X5048402Y4909102D01*
X5053244D01*
X5057937Y4930844D02*
X5063280D01*
X5056463Y4929370D02*
X5057937Y4930844D01*
X5056463Y4926985D02*
Y4929370D01*
Y4926985D02*
X5056468Y4926980D01*
X5053244D02*
X5056468D01*
D30*
X5047322Y4876331D02*
Y4907372D01*
D31*
Y4874233D02*
Y4876331D01*
D32*
X5053571Y4891921D02*
X5055322Y4893671D01*
Y4902756D01*
X5055409Y4902843D01*
X5052195D02*
X5055409D01*
X5052164Y4902812D02*
X5052195Y4902843D01*
X5052164Y4892817D02*
Y4902812D01*
Y4892817D02*
X5053279Y4891701D01*
Y4871019D02*
Y4891701D01*
X5040602Y4858341D02*
X5053279Y4871019D01*
X5033554Y4858341D02*
X5040602D01*
D33*
X5052148Y4918100D02*
X5060537D01*
X5061151Y4868419D02*
Y4927195D01*
X5051186Y4858453D02*
X5061151Y4868419D01*
X5062635Y4933470D02*
X5067088Y4929017D01*
Y4864186D02*
Y4929017D01*
X5060972Y4858070D02*
X5067088Y4864186D01*
D34*
X5063193Y4934611D02*
Y4938905D01*
X5061852Y4940246D02*
X5063193Y4938905D01*
X5059355Y4940246D02*
X5061852D01*
X5050956Y4931847D02*
X5059355Y4940246D01*
X5050956Y4927553D02*
Y4931847D01*
Y4927553D02*
X5051529Y4926980D01*
X5053244D01*
X5020201Y4937467D02*
X5022770Y4934898D01*
X5020201Y4937467D02*
Y4947908D01*
X5029137Y4947877D02*
X5033662D01*
X5028892Y4948123D02*
X5029137Y4947877D01*
X5028892Y4948123D02*
Y4957003D01*
X5016429Y4956281D02*
X5019418D01*
X5011541Y4951393D02*
X5016429Y4956281D01*
X5011510Y4951393D02*
X5011541D01*
X5068240Y4976390D02*
X5071479Y4979630D01*
X5068240Y4948199D02*
Y4976390D01*
X5063792Y4943752D02*
X5068240Y4948199D01*
X5058730Y4943752D02*
X5063792D01*
X5048351Y4933372D02*
X5058730Y4943752D01*
X5048351Y4921944D02*
Y4933372D01*
X5045838Y4924523D02*
X5053561D01*
X5041103Y4932605D02*
X5041943Y4933444D01*
X5041103Y4922625D02*
Y4932605D01*
Y4922625D02*
X5041784Y4921944D01*
X5053223D01*
D35*
X5028616Y4934012D02*
Y4939217D01*
D36*
X5043289Y4931699D02*
X5050173Y4938583D01*
Y4962346D01*
X5068992Y4981165D01*
X5073343D01*
X5020953Y4891783D02*
X5031538D01*
X5035479Y4895724D01*
Y4935287D01*
X5042311Y4942119D01*
Y4988029D01*
X5047435Y4993152D01*
X5070937D01*
X5073220Y4990869D01*
D37*
X5032162Y4916626D02*
X5033406D01*
X5032014Y4916774D02*
X5032162Y4916626D01*
X5032014Y4916774D02*
Y4925127D01*
X5031108Y4926033D02*
X5032014Y4925127D01*
X5024470Y4926033D02*
X5031108D01*
X5022965Y4927538D02*
X5024470Y4926033D01*
X5022965Y4927538D02*
Y4930941D01*
X5026031Y4934007D01*
Y4933127D02*
Y4934007D01*
Y4933127D02*
X5027459Y4931699D01*
X5029736D01*
X5030995Y4932958D01*
Y4935394D01*
X5030965Y4935425D02*
X5030995Y4935394D01*
X5030965Y4935425D02*
X5033196D01*
X5033554Y4935067D01*
D38*
Y4940487D01*
X5038765Y4945697D01*
Y4951414D01*
X5019009Y4889413D02*
Y4895258D01*
X5024214Y4900463D01*
X5034122D01*
X5035479Y4899107D01*
D39*
X5021737Y4865987D02*
D03*
D40*
X5018988Y4865865D02*
D03*
D41*
X5019758Y4868073D02*
D03*
D42*
X5025813Y4871410D02*
D03*
D43*
X5027167Y4875126D02*
D03*
D44*
X5019673Y4866734D02*
D03*
D45*
X5023436Y4870394D02*
D03*
D46*
X5033918Y4872549D02*
D03*
D47*
X5036093Y4873048D02*
D03*
D48*
X5023079Y4877729D02*
D03*
D49*
X5019858Y4878511D02*
D03*
D50*
X5028331Y4881068D02*
D03*
D51*
X5027654Y4880820D02*
D03*
D52*
X5025018Y4878315D02*
D03*
D53*
X5020716Y4882698D02*
D03*
D54*
X5044129Y4915110D02*
D03*
D55*
X5059034Y4919986D02*
D03*
D56*
X5059487Y4916420D02*
D03*
D57*
X5053614Y4929417D02*
D03*
D58*
X5057246Y4933807D02*
D03*
D59*
X5060908Y4935406D02*
D03*
D60*
X5042321Y4928847D02*
D03*
D61*
X5045170Y4927785D02*
D03*
D62*
X5055814Y4959909D02*
D03*
D63*
X5057603Y4946390D02*
D03*
D64*
X5055440Y4944283D02*
D03*
D65*
X5062875Y4949184D02*
D03*
D66*
X5061062Y4958281D02*
D03*
D67*
X5065266Y4962693D02*
D03*
D68*
X5034949Y4938700D02*
D03*
D69*
X5037682Y4941835D02*
D03*
D70*
X5030934Y4931760D02*
D03*
D71*
X5024535Y4927603D02*
D03*
D72*
X5023976Y4929216D02*
D03*
D73*
X5028134Y4928871D02*
D03*
D74*
X5025859Y4933447D02*
D03*
D75*
X5025145Y4931324D02*
D03*
D76*
X5031995Y4926809D02*
D03*
D77*
X5032927Y4921859D02*
D03*
D78*
X5032321Y4930703D02*
D03*
D79*
X5021020Y4894854D02*
D03*
D80*
X5022860Y4895742D02*
D03*
D81*
X5029062Y4896715D02*
D03*
D82*
X5024470Y4959864D02*
D03*
D83*
X5015519Y4967622D02*
D03*
D84*
X5014203Y4959912D02*
D03*
D85*
X5012951Y4963393D02*
D03*
D86*
X5012575Y4966645D02*
D03*
D87*
X5012014Y4976056D02*
D03*
D88*
X5012257Y4975900D02*
D03*
D89*
X5015513Y4974719D02*
D03*
D90*
X5014714Y4976073D02*
D03*
D91*
X5036620Y4975576D02*
D03*
D92*
X5035276Y4967042D02*
D03*
D93*
X5026069Y4968897D02*
D03*
D94*
X5073343Y4991222D02*
D03*
Y4981165D02*
D03*
Y4971001D02*
D03*
X5073179Y4961056D02*
D03*
X5073286Y4950999D02*
D03*
X5073235Y4940998D02*
D03*
X5073010Y4931110D02*
D03*
X5073179Y4921222D02*
D03*
X5073343Y4910945D02*
D03*
X5073122Y4901000D02*
D03*
X5073235Y4890943D02*
D03*
X5073148Y4881306D02*
D03*
X5073204Y4871136D02*
D03*
X5073260Y4861028D02*
D03*
Y4851083D02*
D03*
X5011326Y4851242D02*
D03*
X5011439Y4861243D02*
D03*
X5011403Y4871576D02*
D03*
X5011326Y4881429D02*
D03*
X5011403Y4891317D02*
D03*
X5011475Y4901353D02*
D03*
X5011439Y4911431D02*
D03*
X5011475Y4921503D02*
D03*
X5011403Y4931428D02*
D03*
X5011362Y4941244D02*
D03*
X5011510Y4951393D02*
D03*
Y4961538D02*
D03*
X5011439Y4971390D02*
D03*
Y4981355D02*
D03*
D95*
Y4991463D02*
D03*
D96*
X5061110Y4858453D02*
D03*
X5033554Y4858341D02*
D03*
X5051237Y4984538D02*
D03*
X5023630D02*
D03*
D97*
X5051186Y4858453D02*
D03*
X5023630Y4858341D02*
D03*
X5061161Y4984538D02*
D03*
X5033554D02*
D03*
D98*
X5020744Y4867942D02*
D03*
X5032597Y4872093D02*
D03*
X5020800Y4876014D02*
D03*
X5047470Y4874084D02*
D03*
X5047517Y4882089D02*
D03*
X5055178Y4897581D02*
D03*
X5055260Y4893774D02*
D03*
X5047470Y4889792D02*
D03*
X5047517Y4897622D02*
D03*
X5047430Y4905709D02*
D03*
X5042393Y4916462D02*
D03*
X5046416Y4916334D02*
D03*
X5061233Y4922261D02*
D03*
X5061187Y4926156D02*
D03*
X5061105Y4933987D02*
D03*
X5061187Y4939028D02*
D03*
X5042475Y4923320D02*
D03*
X5044425Y4927087D02*
D03*
X5042475Y4931023D02*
D03*
X5044384Y4934964D02*
D03*
X5020739Y4901584D02*
D03*
X5021670Y4916401D02*
D03*
X5018707Y4914538D02*
D03*
X5016844Y4919318D02*
D03*
X5019725Y4929989D02*
D03*
X5022770Y4934898D02*
D03*
X5028616Y4934012D02*
D03*
X5033662Y4947877D02*
D03*
X5032623Y4966543D02*
D03*
X5028503Y4962622D02*
D03*
X5024690Y4966348D02*
D03*
X5028641Y4970438D02*
D03*
X5032582Y4974348D02*
D03*
X5024664Y4974317D02*
D03*
M02*
