M48
;Layer_Color=9474304
;FILE_FORMAT=2:5
INCH,LZ
;TYPE=PLATED
T1F00S00C0.01575
T2F00S00C0.03543
T3F00S00C0.03643
%
T01
X5032582Y4974348
X5032623Y4966543
X5028641Y4970438
X5024664Y4974317
X502469Y4966348
X5028503Y4962622
X5033662Y4947877
X5028616Y4934012
X502277Y4934898
X5019725Y4929989
X5016844Y4919318
X5018707Y4914538
X502167Y4916401
X5020739Y4901584
X50208Y4876014
X5020744Y4867942
X5032597Y4872093
X504747Y4874084
X5047517Y4882089
X504747Y4889792
X5047517Y4897622
X5055178Y4897581
X505526Y4893774
X504743Y4905709
X5046416Y4916334
X5042393Y4916462
X5042475Y492332
X5044425Y4927087
X5042475Y4931023
X5044384Y4934964
X5061105Y4933987
X5061187Y4939028
Y4926156
X5061233Y4922261
T02
X5061161Y4984538
X5051237
X5033554
X502363
X5011439Y4981355
Y497139
Y4991463
X502363Y4858341
X5033554
X5051186Y4858453
X506111
T03
X5073343Y4991222
Y4981165
Y4971001
X5073179Y4961056
X5073286Y4950999
X5073235Y4940998
X507301Y493111
X5073179Y4921222
X5073343Y4910945
X5073122Y4901
X5073235Y4890943
X5073148Y4881306
X5073204Y4871136
X507326Y4861028
Y4851083
X5011326Y4851242
X5011439Y4861243
X5011403Y4871576
X5011326Y4881429
X5011403Y4891317
X5011475Y4901353
X5011439Y4911431
X5011475Y4921503
X5011403Y4931428
X5011362Y4941244
X501151Y4951393
Y4961538
M30
