G04*
G04 #@! TF.GenerationSoftware,Altium Limited,Altium Designer,19.0.12 (326)*
G04*
G04 Layer_Color=8388736*
%FSLAX25Y25*%
%MOIN*%
G70*
G01*
G75*
%ADD16R,0.07487X0.01581*%
%ADD17R,0.10243X0.06699*%
%ADD18R,0.06699X0.10243*%
%ADD19R,0.05124X0.05124*%
%ADD20O,0.06699X0.05912*%
%ADD21R,0.06699X0.05912*%
%ADD22R,0.05518X0.05518*%
%ADD23C,0.05518*%
%ADD24C,0.02762*%
D16*
X5026860Y4901461D02*
D03*
Y4903902D02*
D03*
X5026896Y4906497D02*
D03*
Y4909051D02*
D03*
X5026931Y4911682D02*
D03*
X5026967Y4914277D02*
D03*
Y4916867D02*
D03*
Y4919272D02*
D03*
Y4921867D02*
D03*
X5027044Y4924385D02*
D03*
X5027003Y4927016D02*
D03*
X5026967Y4929534D02*
D03*
X5053244Y4929549D02*
D03*
Y4926980D02*
D03*
X5053223Y4924487D02*
D03*
Y4921944D02*
D03*
X5053295Y4919354D02*
D03*
Y4916882D02*
D03*
X5053269Y4914241D02*
D03*
X5053197Y4911749D02*
D03*
X5053244Y4909102D02*
D03*
X5053295Y4906512D02*
D03*
Y4903872D02*
D03*
X5053244Y4901451D02*
D03*
D17*
X5033038Y4879028D02*
D03*
Y4892561D02*
D03*
D18*
X5053909Y4952018D02*
D03*
X5040377D02*
D03*
D19*
X5020575Y4889735D02*
D03*
X5020672Y4880968D02*
D03*
X5028968Y4939115D02*
D03*
X5020201Y4939018D02*
D03*
X5028968Y4948005D02*
D03*
X5020201Y4947908D02*
D03*
X5028892Y4957003D02*
D03*
X5020124Y4956905D02*
D03*
D20*
X5073343Y4991222D02*
D03*
Y4981165D02*
D03*
Y4971001D02*
D03*
X5073179Y4961056D02*
D03*
X5073286Y4950999D02*
D03*
X5073235Y4940998D02*
D03*
X5073010Y4931110D02*
D03*
X5073179Y4921222D02*
D03*
X5073343Y4910945D02*
D03*
X5073122Y4901000D02*
D03*
X5073235Y4890943D02*
D03*
X5073148Y4881306D02*
D03*
X5073204Y4871136D02*
D03*
X5073260Y4861028D02*
D03*
Y4851083D02*
D03*
X5011326Y4851242D02*
D03*
X5011439Y4861243D02*
D03*
X5011403Y4871576D02*
D03*
X5011326Y4881429D02*
D03*
X5011403Y4891317D02*
D03*
X5011475Y4901353D02*
D03*
X5011439Y4911431D02*
D03*
X5011475Y4921503D02*
D03*
X5011403Y4931428D02*
D03*
X5011362Y4941244D02*
D03*
X5011510Y4951393D02*
D03*
Y4961538D02*
D03*
X5011439Y4971390D02*
D03*
Y4981355D02*
D03*
D21*
Y4991463D02*
D03*
D22*
X5061110Y4858453D02*
D03*
X5033554Y4858341D02*
D03*
X5051237Y4984538D02*
D03*
X5023630D02*
D03*
D23*
X5051186Y4858453D02*
D03*
X5023630Y4858341D02*
D03*
X5061161Y4984538D02*
D03*
X5033554D02*
D03*
D24*
X5020744Y4867942D02*
D03*
X5032597Y4872093D02*
D03*
X5020800Y4876014D02*
D03*
X5047470Y4874084D02*
D03*
X5047517Y4882089D02*
D03*
X5055178Y4897581D02*
D03*
X5055260Y4893774D02*
D03*
X5047470Y4889792D02*
D03*
X5047517Y4897622D02*
D03*
X5047430Y4905709D02*
D03*
X5042393Y4916462D02*
D03*
X5046416Y4916334D02*
D03*
X5061233Y4922261D02*
D03*
X5061187Y4926156D02*
D03*
X5061105Y4933987D02*
D03*
X5061187Y4939028D02*
D03*
X5042475Y4923320D02*
D03*
X5044425Y4927087D02*
D03*
X5042475Y4931023D02*
D03*
X5044384Y4934964D02*
D03*
X5020739Y4901584D02*
D03*
X5021670Y4916401D02*
D03*
X5018707Y4914538D02*
D03*
X5016844Y4919318D02*
D03*
X5019725Y4929989D02*
D03*
X5022770Y4934898D02*
D03*
X5028616Y4934012D02*
D03*
X5033662Y4947877D02*
D03*
X5032623Y4966543D02*
D03*
X5028503Y4962622D02*
D03*
X5024690Y4966348D02*
D03*
X5028641Y4970438D02*
D03*
X5032582Y4974348D02*
D03*
X5024664Y4974317D02*
D03*
M02*
