G04*
G04 #@! TF.GenerationSoftware,Altium Limited,Altium Designer,19.0.12 (326)*
G04*
G04 Layer_Color=65535*
%FSLAX25Y25*%
%MOIN*%
G70*
G01*
G75*
%ADD10C,0.00394*%
%ADD11C,0.00401*%
G36*
X5009807Y4856779D02*
X5009830Y4856776D01*
X5009857Y4856773D01*
X5009886Y4856767D01*
X5009921Y4856762D01*
X5009990Y4856744D01*
X5010066Y4856715D01*
X5010107Y4856697D01*
X5010142Y4856677D01*
X5010180Y4856651D01*
X5010215Y4856625D01*
X5010218Y4856622D01*
X5010223Y4856616D01*
X5010232Y4856607D01*
X5010244Y4856596D01*
X5010258Y4856581D01*
X5010273Y4856561D01*
X5010290Y4856540D01*
X5010308Y4856514D01*
X5010325Y4856485D01*
X5010345Y4856456D01*
X5010378Y4856386D01*
X5010404Y4856305D01*
X5010415Y4856261D01*
X5010421Y4856215D01*
X5010049Y4856168D01*
Y4856171D01*
Y4856174D01*
X5010046Y4856191D01*
X5010040Y4856218D01*
X5010031Y4856249D01*
X5010017Y4856284D01*
X5010002Y4856322D01*
X5009979Y4856357D01*
X5009953Y4856389D01*
X5009950Y4856392D01*
X5009938Y4856401D01*
X5009921Y4856413D01*
X5009900Y4856424D01*
X5009871Y4856438D01*
X5009839Y4856450D01*
X5009804Y4856459D01*
X5009763Y4856462D01*
X5009758D01*
X5009743Y4856459D01*
X5009723Y4856456D01*
X5009694Y4856450D01*
X5009662Y4856438D01*
X5009630Y4856424D01*
X5009595Y4856401D01*
X5009563Y4856372D01*
X5009560Y4856369D01*
X5009548Y4856354D01*
X5009536Y4856334D01*
X5009519Y4856308D01*
X5009504Y4856273D01*
X5009490Y4856229D01*
X5009481Y4856179D01*
X5009478Y4856124D01*
Y4856121D01*
Y4856118D01*
Y4856101D01*
X5009481Y4856075D01*
X5009487Y4856040D01*
X5009499Y4856002D01*
X5009513Y4855964D01*
X5009534Y4855927D01*
X5009560Y4855891D01*
X5009563Y4855889D01*
X5009575Y4855877D01*
X5009592Y4855862D01*
X5009612Y4855848D01*
X5009641Y4855830D01*
X5009673Y4855819D01*
X5009708Y4855807D01*
X5009749Y4855804D01*
X5009778D01*
X5009798Y4855807D01*
X5009825Y4855810D01*
X5009857Y4855816D01*
X5009889Y4855825D01*
X5009927Y4855833D01*
X5009886Y4855522D01*
X5009859D01*
X5009830Y4855519D01*
X5009795Y4855516D01*
X5009758Y4855507D01*
X5009717Y4855496D01*
X5009679Y4855478D01*
X5009644Y4855455D01*
X5009641Y4855452D01*
X5009630Y4855441D01*
X5009618Y4855426D01*
X5009600Y4855403D01*
X5009586Y4855376D01*
X5009571Y4855344D01*
X5009563Y4855307D01*
X5009560Y4855263D01*
Y4855257D01*
Y4855246D01*
X5009563Y4855228D01*
X5009569Y4855205D01*
X5009575Y4855178D01*
X5009586Y4855152D01*
X5009600Y4855123D01*
X5009621Y4855100D01*
X5009624Y4855097D01*
X5009632Y4855091D01*
X5009644Y4855080D01*
X5009665Y4855068D01*
X5009688Y4855059D01*
X5009714Y4855048D01*
X5009749Y4855042D01*
X5009784Y4855039D01*
X5009801D01*
X5009819Y4855042D01*
X5009842Y4855048D01*
X5009868Y4855056D01*
X5009897Y4855068D01*
X5009927Y4855085D01*
X5009953Y4855109D01*
X5009956Y4855112D01*
X5009964Y4855120D01*
X5009976Y4855138D01*
X5009990Y4855161D01*
X5010005Y4855187D01*
X5010017Y4855222D01*
X5010028Y4855263D01*
X5010037Y4855310D01*
X5010392Y4855251D01*
Y4855248D01*
X5010389Y4855243D01*
Y4855234D01*
X5010386Y4855219D01*
X5010378Y4855187D01*
X5010366Y4855144D01*
X5010349Y4855097D01*
X5010331Y4855048D01*
X5010308Y4855001D01*
X5010281Y4854958D01*
X5010279Y4854951D01*
X5010267Y4854940D01*
X5010249Y4854919D01*
X5010226Y4854893D01*
X5010197Y4854867D01*
X5010162Y4854838D01*
X5010118Y4854809D01*
X5010072Y4854783D01*
X5010069D01*
X5010066Y4854780D01*
X5010049Y4854774D01*
X5010020Y4854762D01*
X5009985Y4854751D01*
X5009941Y4854739D01*
X5009889Y4854728D01*
X5009834Y4854722D01*
X5009772Y4854719D01*
X5009746D01*
X5009726Y4854722D01*
X5009700Y4854725D01*
X5009673Y4854728D01*
X5009641Y4854733D01*
X5009609Y4854742D01*
X5009536Y4854762D01*
X5009499Y4854777D01*
X5009458Y4854797D01*
X5009420Y4854818D01*
X5009385Y4854841D01*
X5009348Y4854870D01*
X5009315Y4854902D01*
X5009312Y4854905D01*
X5009310Y4854908D01*
X5009301Y4854917D01*
X5009292Y4854928D01*
X5009269Y4854958D01*
X5009243Y4854998D01*
X5009216Y4855048D01*
X5009196Y4855106D01*
X5009179Y4855170D01*
X5009176Y4855202D01*
X5009173Y4855237D01*
Y4855239D01*
Y4855248D01*
X5009176Y4855263D01*
X5009179Y4855280D01*
X5009182Y4855304D01*
X5009187Y4855330D01*
X5009196Y4855359D01*
X5009208Y4855391D01*
X5009225Y4855423D01*
X5009243Y4855458D01*
X5009266Y4855493D01*
X5009295Y4855528D01*
X5009330Y4855563D01*
X5009368Y4855598D01*
X5009411Y4855630D01*
X5009464Y4855662D01*
X5009461D01*
X5009455Y4855664D01*
X5009446D01*
X5009435Y4855670D01*
X5009403Y4855679D01*
X5009365Y4855696D01*
X5009321Y4855720D01*
X5009275Y4855749D01*
X5009228Y4855787D01*
X5009187Y4855830D01*
X5009182Y4855836D01*
X5009170Y4855854D01*
X5009155Y4855880D01*
X5009135Y4855918D01*
X5009114Y4855961D01*
X5009100Y4856017D01*
X5009089Y4856075D01*
X5009082Y4856142D01*
Y4856145D01*
Y4856153D01*
Y4856168D01*
X5009085Y4856186D01*
X5009089Y4856209D01*
X5009094Y4856235D01*
X5009100Y4856267D01*
X5009106Y4856299D01*
X5009129Y4856369D01*
X5009146Y4856406D01*
X5009164Y4856447D01*
X5009187Y4856485D01*
X5009214Y4856523D01*
X5009243Y4856561D01*
X5009278Y4856596D01*
X5009280Y4856599D01*
X5009286Y4856604D01*
X5009298Y4856613D01*
X5009312Y4856625D01*
X5009333Y4856639D01*
X5009353Y4856654D01*
X5009382Y4856671D01*
X5009411Y4856689D01*
X5009443Y4856706D01*
X5009481Y4856724D01*
X5009522Y4856738D01*
X5009563Y4856753D01*
X5009609Y4856765D01*
X5009656Y4856773D01*
X5009708Y4856779D01*
X5009761Y4856782D01*
X5009787D01*
X5009807Y4856779D01*
D02*
G37*
G36*
X5008867Y4855673D02*
X5008864Y4855670D01*
X5008858Y4855664D01*
X5008850Y4855656D01*
X5008835Y4855644D01*
X5008821Y4855630D01*
X5008800Y4855615D01*
X5008777Y4855598D01*
X5008751Y4855580D01*
X5008693Y4855545D01*
X5008623Y4855516D01*
X5008588Y4855504D01*
X5008547Y4855496D01*
X5008506Y4855490D01*
X5008463Y4855487D01*
X5008431D01*
X5008410Y4855490D01*
X5008384D01*
X5008358Y4855493D01*
X5008303Y4855504D01*
X5008300D01*
X5008288Y4855507D01*
X5008271Y4855513D01*
X5008242Y4855522D01*
X5008207Y4855534D01*
X5008160Y4855551D01*
X5008105Y4855571D01*
X5008041Y4855598D01*
X5008038D01*
X5008032Y4855600D01*
X5008023Y4855603D01*
X5008009Y4855609D01*
X5007977Y4855621D01*
X5007939Y4855632D01*
X5007895Y4855647D01*
X5007852Y4855659D01*
X5007814Y4855667D01*
X5007785Y4855670D01*
X5007770D01*
X5007756Y4855667D01*
X5007735Y4855664D01*
X5007709Y4855659D01*
X5007680Y4855653D01*
X5007645Y4855641D01*
X5007610Y4855627D01*
X5007604Y4855624D01*
X5007593Y4855618D01*
X5007572Y4855606D01*
X5007546Y4855592D01*
X5007517Y4855568D01*
X5007482Y4855545D01*
X5007447Y4855513D01*
X5007409Y4855478D01*
Y4855848D01*
X5007412Y4855851D01*
X5007421Y4855859D01*
X5007436Y4855871D01*
X5007456Y4855889D01*
X5007482Y4855909D01*
X5007511Y4855929D01*
X5007546Y4855950D01*
X5007587Y4855973D01*
X5007593Y4855976D01*
X5007607Y4855982D01*
X5007631Y4855990D01*
X5007660Y4855999D01*
X5007695Y4856011D01*
X5007735Y4856020D01*
X5007776Y4856025D01*
X5007822Y4856028D01*
X5007846D01*
X5007863Y4856025D01*
X5007884D01*
X5007907Y4856022D01*
X5007956Y4856014D01*
X5007959D01*
X5007968Y4856011D01*
X5007986Y4856005D01*
X5008006Y4855996D01*
X5008035Y4855988D01*
X5008070Y4855973D01*
X5008113Y4855959D01*
X5008163Y4855938D01*
X5008166D01*
X5008172Y4855935D01*
X5008183Y4855929D01*
X5008198Y4855923D01*
X5008215Y4855918D01*
X5008236Y4855909D01*
X5008282Y4855891D01*
X5008335Y4855874D01*
X5008390Y4855859D01*
X5008445Y4855848D01*
X5008495Y4855845D01*
X5008512D01*
X5008527Y4855848D01*
X5008544Y4855851D01*
X5008565Y4855854D01*
X5008614Y4855868D01*
X5008669Y4855891D01*
X5008701Y4855906D01*
X5008733Y4855923D01*
X5008765Y4855944D01*
X5008800Y4855970D01*
X5008832Y4855999D01*
X5008867Y4856031D01*
Y4855673D01*
D02*
G37*
G36*
X5013916Y4854730D02*
X5013113D01*
X5013090Y4854733D01*
X5013034Y4854736D01*
X5012973Y4854739D01*
X5012909Y4854748D01*
X5012848Y4854757D01*
X5012793Y4854771D01*
X5012790D01*
X5012784Y4854774D01*
X5012775Y4854777D01*
X5012764Y4854780D01*
X5012729Y4854794D01*
X5012688Y4854815D01*
X5012642Y4854841D01*
X5012589Y4854873D01*
X5012540Y4854911D01*
X5012490Y4854958D01*
X5012487D01*
X5012484Y4854963D01*
X5012470Y4854980D01*
X5012447Y4855010D01*
X5012420Y4855048D01*
X5012388Y4855094D01*
X5012356Y4855149D01*
X5012324Y4855214D01*
X5012298Y4855283D01*
Y4855286D01*
X5012295Y4855292D01*
X5012292Y4855304D01*
X5012286Y4855318D01*
X5012284Y4855336D01*
X5012278Y4855359D01*
X5012272Y4855385D01*
X5012263Y4855414D01*
X5012257Y4855446D01*
X5012252Y4855484D01*
X5012246Y4855522D01*
X5012243Y4855566D01*
X5012234Y4855656D01*
X5012231Y4855758D01*
Y4855761D01*
Y4855769D01*
Y4855781D01*
Y4855798D01*
X5012234Y4855822D01*
Y4855845D01*
X5012237Y4855874D01*
X5012240Y4855906D01*
X5012246Y4855973D01*
X5012257Y4856043D01*
X5012275Y4856115D01*
X5012295Y4856186D01*
Y4856188D01*
X5012298Y4856194D01*
X5012304Y4856206D01*
X5012310Y4856223D01*
X5012316Y4856241D01*
X5012327Y4856261D01*
X5012350Y4856313D01*
X5012379Y4856369D01*
X5012418Y4856430D01*
X5012461Y4856488D01*
X5012511Y4856543D01*
X5012516Y4856549D01*
X5012531Y4856561D01*
X5012554Y4856578D01*
X5012586Y4856601D01*
X5012627Y4856628D01*
X5012674Y4856654D01*
X5012732Y4856680D01*
X5012796Y4856704D01*
X5012799D01*
X5012802Y4856706D01*
X5012810D01*
X5012819Y4856709D01*
X5012851Y4856715D01*
X5012892Y4856724D01*
X5012941Y4856733D01*
X5013002Y4856738D01*
X5013075Y4856741D01*
X5013154Y4856744D01*
X5013916D01*
Y4854730D01*
D02*
G37*
G36*
X5011373Y4855286D02*
X5011376Y4855289D01*
X5011382Y4855295D01*
X5011393Y4855304D01*
X5011411Y4855318D01*
X5011431Y4855336D01*
X5011454Y4855353D01*
X5011483Y4855373D01*
X5011515Y4855397D01*
X5011550Y4855420D01*
X5011588Y4855443D01*
X5011629Y4855470D01*
X5011673Y4855493D01*
X5011766Y4855537D01*
X5011871Y4855577D01*
Y4855228D01*
X5011868D01*
X5011864Y4855225D01*
X5011856Y4855222D01*
X5011844Y4855219D01*
X5011815Y4855205D01*
X5011774Y4855187D01*
X5011725Y4855164D01*
X5011670Y4855132D01*
X5011609Y4855091D01*
X5011544Y4855045D01*
X5011541Y4855042D01*
X5011536Y4855039D01*
X5011527Y4855030D01*
X5011515Y4855019D01*
X5011483Y4854989D01*
X5011448Y4854951D01*
X5011408Y4854905D01*
X5011367Y4854847D01*
X5011329Y4854786D01*
X5011300Y4854719D01*
X5010986D01*
Y4856744D01*
X5011373D01*
Y4855286D01*
D02*
G37*
G36*
X5008908Y4865751D02*
X5008905Y4865748D01*
X5008900Y4865742D01*
X5008891Y4865733D01*
X5008876Y4865722D01*
X5008862Y4865707D01*
X5008841Y4865693D01*
X5008818Y4865675D01*
X5008792Y4865658D01*
X5008734Y4865623D01*
X5008664Y4865594D01*
X5008629Y4865582D01*
X5008588Y4865573D01*
X5008547Y4865567D01*
X5008504Y4865565D01*
X5008472D01*
X5008451Y4865567D01*
X5008425D01*
X5008399Y4865570D01*
X5008344Y4865582D01*
X5008341D01*
X5008329Y4865585D01*
X5008312Y4865591D01*
X5008282Y4865599D01*
X5008248Y4865611D01*
X5008201Y4865628D01*
X5008146Y4865649D01*
X5008082Y4865675D01*
X5008079D01*
X5008073Y4865678D01*
X5008064Y4865681D01*
X5008050Y4865687D01*
X5008018Y4865698D01*
X5007980Y4865710D01*
X5007936Y4865725D01*
X5007893Y4865736D01*
X5007855Y4865745D01*
X5007826Y4865748D01*
X5007811D01*
X5007796Y4865745D01*
X5007776Y4865742D01*
X5007750Y4865736D01*
X5007721Y4865730D01*
X5007686Y4865719D01*
X5007651Y4865704D01*
X5007645Y4865701D01*
X5007634Y4865696D01*
X5007613Y4865684D01*
X5007587Y4865669D01*
X5007558Y4865646D01*
X5007523Y4865623D01*
X5007488Y4865591D01*
X5007450Y4865556D01*
Y4865925D01*
X5007453Y4865928D01*
X5007462Y4865937D01*
X5007476Y4865949D01*
X5007497Y4865966D01*
X5007523Y4865987D01*
X5007552Y4866007D01*
X5007587Y4866027D01*
X5007628Y4866050D01*
X5007634Y4866053D01*
X5007648Y4866059D01*
X5007671Y4866068D01*
X5007701Y4866077D01*
X5007735Y4866088D01*
X5007776Y4866097D01*
X5007817Y4866103D01*
X5007864Y4866106D01*
X5007887D01*
X5007904Y4866103D01*
X5007925D01*
X5007948Y4866100D01*
X5007998Y4866091D01*
X5008000D01*
X5008009Y4866088D01*
X5008027Y4866083D01*
X5008047Y4866074D01*
X5008076Y4866065D01*
X5008111Y4866050D01*
X5008155Y4866036D01*
X5008204Y4866016D01*
X5008207D01*
X5008213Y4866013D01*
X5008224Y4866007D01*
X5008239Y4866001D01*
X5008257Y4865995D01*
X5008277Y4865987D01*
X5008323Y4865969D01*
X5008376Y4865952D01*
X5008431Y4865937D01*
X5008486Y4865925D01*
X5008536Y4865923D01*
X5008553D01*
X5008568Y4865925D01*
X5008585Y4865928D01*
X5008606Y4865931D01*
X5008655Y4865946D01*
X5008710Y4865969D01*
X5008743Y4865984D01*
X5008775Y4866001D01*
X5008806Y4866021D01*
X5008841Y4866048D01*
X5008873Y4866077D01*
X5008908Y4866109D01*
Y4865751D01*
D02*
G37*
G36*
X5013957Y4864808D02*
X5013154D01*
X5013131Y4864811D01*
X5013075Y4864814D01*
X5013014Y4864817D01*
X5012950Y4864825D01*
X5012889Y4864834D01*
X5012834Y4864849D01*
X5012831D01*
X5012825Y4864852D01*
X5012816Y4864854D01*
X5012805Y4864857D01*
X5012770Y4864872D01*
X5012729Y4864893D01*
X5012682Y4864919D01*
X5012630Y4864951D01*
X5012581Y4864988D01*
X5012531Y4865035D01*
X5012528D01*
X5012526Y4865041D01*
X5012511Y4865058D01*
X5012487Y4865087D01*
X5012461Y4865125D01*
X5012429Y4865172D01*
X5012397Y4865227D01*
X5012365Y4865291D01*
X5012339Y4865361D01*
Y4865364D01*
X5012336Y4865369D01*
X5012333Y4865381D01*
X5012328Y4865396D01*
X5012325Y4865413D01*
X5012319Y4865437D01*
X5012313Y4865463D01*
X5012304Y4865492D01*
X5012299Y4865524D01*
X5012292Y4865562D01*
X5012287Y4865599D01*
X5012284Y4865643D01*
X5012275Y4865733D01*
X5012272Y4865835D01*
Y4865838D01*
Y4865847D01*
Y4865858D01*
Y4865876D01*
X5012275Y4865899D01*
Y4865923D01*
X5012278Y4865952D01*
X5012281Y4865984D01*
X5012287Y4866050D01*
X5012299Y4866121D01*
X5012316Y4866193D01*
X5012336Y4866263D01*
Y4866266D01*
X5012339Y4866272D01*
X5012345Y4866283D01*
X5012351Y4866301D01*
X5012357Y4866318D01*
X5012368Y4866339D01*
X5012392Y4866391D01*
X5012421Y4866446D01*
X5012458Y4866507D01*
X5012502Y4866566D01*
X5012551Y4866621D01*
X5012557Y4866627D01*
X5012572Y4866639D01*
X5012595Y4866656D01*
X5012627Y4866679D01*
X5012668Y4866705D01*
X5012714Y4866732D01*
X5012773Y4866758D01*
X5012837Y4866781D01*
X5012840D01*
X5012843Y4866784D01*
X5012851D01*
X5012860Y4866787D01*
X5012892Y4866793D01*
X5012933Y4866801D01*
X5012982Y4866810D01*
X5013043Y4866816D01*
X5013116Y4866819D01*
X5013195Y4866822D01*
X5013957D01*
Y4864808D01*
D02*
G37*
G36*
X5011414Y4865364D02*
X5011417Y4865367D01*
X5011422Y4865372D01*
X5011434Y4865381D01*
X5011452Y4865396D01*
X5011472Y4865413D01*
X5011495Y4865431D01*
X5011524Y4865451D01*
X5011556Y4865474D01*
X5011591Y4865498D01*
X5011629Y4865521D01*
X5011670Y4865547D01*
X5011713Y4865570D01*
X5011806Y4865614D01*
X5011911Y4865655D01*
Y4865306D01*
X5011908D01*
X5011906Y4865303D01*
X5011897Y4865300D01*
X5011885Y4865297D01*
X5011856Y4865282D01*
X5011815Y4865265D01*
X5011766Y4865242D01*
X5011711Y4865210D01*
X5011649Y4865169D01*
X5011586Y4865122D01*
X5011583Y4865120D01*
X5011577Y4865117D01*
X5011568Y4865108D01*
X5011556Y4865096D01*
X5011524Y4865067D01*
X5011489Y4865029D01*
X5011449Y4864983D01*
X5011408Y4864924D01*
X5011370Y4864863D01*
X5011341Y4864796D01*
X5011027D01*
Y4866822D01*
X5011414D01*
Y4865364D01*
D02*
G37*
G36*
X5009848D02*
X5009851Y4865367D01*
X5009857Y4865372D01*
X5009869Y4865381D01*
X5009886Y4865396D01*
X5009906Y4865413D01*
X5009930Y4865431D01*
X5009959Y4865451D01*
X5009991Y4865474D01*
X5010026Y4865498D01*
X5010064Y4865521D01*
X5010104Y4865547D01*
X5010148Y4865570D01*
X5010241Y4865614D01*
X5010346Y4865655D01*
Y4865306D01*
X5010343D01*
X5010340Y4865303D01*
X5010331Y4865300D01*
X5010320Y4865297D01*
X5010291Y4865282D01*
X5010250Y4865265D01*
X5010200Y4865242D01*
X5010145Y4865210D01*
X5010084Y4865169D01*
X5010020Y4865122D01*
X5010017Y4865120D01*
X5010011Y4865117D01*
X5010003Y4865108D01*
X5009991Y4865096D01*
X5009959Y4865067D01*
X5009924Y4865029D01*
X5009883Y4864983D01*
X5009842Y4864924D01*
X5009805Y4864863D01*
X5009776Y4864796D01*
X5009461D01*
Y4866822D01*
X5009848D01*
Y4865364D01*
D02*
G37*
G36*
X5008908Y4875700D02*
X5008905Y4875697D01*
X5008900Y4875692D01*
X5008891Y4875683D01*
X5008876Y4875671D01*
X5008862Y4875657D01*
X5008841Y4875642D01*
X5008818Y4875625D01*
X5008792Y4875607D01*
X5008734Y4875573D01*
X5008664Y4875543D01*
X5008629Y4875532D01*
X5008588Y4875523D01*
X5008547Y4875517D01*
X5008504Y4875514D01*
X5008472D01*
X5008451Y4875517D01*
X5008425D01*
X5008399Y4875520D01*
X5008344Y4875532D01*
X5008341D01*
X5008329Y4875534D01*
X5008312Y4875541D01*
X5008282Y4875549D01*
X5008248Y4875561D01*
X5008201Y4875578D01*
X5008146Y4875599D01*
X5008082Y4875625D01*
X5008079D01*
X5008073Y4875628D01*
X5008064Y4875631D01*
X5008050Y4875636D01*
X5008018Y4875648D01*
X5007980Y4875660D01*
X5007936Y4875674D01*
X5007893Y4875686D01*
X5007855Y4875695D01*
X5007826Y4875697D01*
X5007811D01*
X5007796Y4875695D01*
X5007776Y4875692D01*
X5007750Y4875686D01*
X5007721Y4875680D01*
X5007686Y4875668D01*
X5007651Y4875654D01*
X5007645Y4875651D01*
X5007634Y4875645D01*
X5007613Y4875634D01*
X5007587Y4875619D01*
X5007558Y4875596D01*
X5007523Y4875573D01*
X5007488Y4875541D01*
X5007450Y4875505D01*
Y4875875D01*
X5007453Y4875878D01*
X5007462Y4875887D01*
X5007476Y4875898D01*
X5007497Y4875916D01*
X5007523Y4875936D01*
X5007552Y4875956D01*
X5007587Y4875977D01*
X5007628Y4876000D01*
X5007634Y4876003D01*
X5007648Y4876009D01*
X5007671Y4876018D01*
X5007701Y4876026D01*
X5007735Y4876038D01*
X5007776Y4876047D01*
X5007817Y4876052D01*
X5007864Y4876056D01*
X5007887D01*
X5007904Y4876052D01*
X5007925D01*
X5007948Y4876049D01*
X5007998Y4876041D01*
X5008000D01*
X5008009Y4876038D01*
X5008027Y4876032D01*
X5008047Y4876023D01*
X5008076Y4876015D01*
X5008111Y4876000D01*
X5008155Y4875986D01*
X5008204Y4875965D01*
X5008207D01*
X5008213Y4875962D01*
X5008224Y4875956D01*
X5008239Y4875951D01*
X5008257Y4875945D01*
X5008277Y4875936D01*
X5008323Y4875919D01*
X5008376Y4875901D01*
X5008431Y4875887D01*
X5008486Y4875875D01*
X5008536Y4875872D01*
X5008553D01*
X5008568Y4875875D01*
X5008585Y4875878D01*
X5008606Y4875881D01*
X5008655Y4875895D01*
X5008710Y4875919D01*
X5008743Y4875933D01*
X5008775Y4875951D01*
X5008806Y4875971D01*
X5008841Y4875997D01*
X5008873Y4876026D01*
X5008908Y4876059D01*
Y4875700D01*
D02*
G37*
G36*
X5013957Y4874758D02*
X5013154D01*
X5013131Y4874760D01*
X5013075Y4874763D01*
X5013014Y4874766D01*
X5012950Y4874775D01*
X5012889Y4874784D01*
X5012834Y4874798D01*
X5012831D01*
X5012825Y4874801D01*
X5012816Y4874804D01*
X5012805Y4874807D01*
X5012770Y4874821D01*
X5012729Y4874842D01*
X5012682Y4874868D01*
X5012630Y4874900D01*
X5012581Y4874938D01*
X5012531Y4874985D01*
X5012528D01*
X5012526Y4874990D01*
X5012511Y4875008D01*
X5012487Y4875037D01*
X5012461Y4875075D01*
X5012429Y4875121D01*
X5012397Y4875177D01*
X5012365Y4875241D01*
X5012339Y4875311D01*
Y4875314D01*
X5012336Y4875319D01*
X5012333Y4875331D01*
X5012328Y4875345D01*
X5012325Y4875363D01*
X5012319Y4875386D01*
X5012313Y4875412D01*
X5012304Y4875441D01*
X5012299Y4875473D01*
X5012292Y4875511D01*
X5012287Y4875549D01*
X5012284Y4875593D01*
X5012275Y4875683D01*
X5012272Y4875785D01*
Y4875788D01*
Y4875797D01*
Y4875808D01*
Y4875826D01*
X5012275Y4875849D01*
Y4875872D01*
X5012278Y4875901D01*
X5012281Y4875933D01*
X5012287Y4876000D01*
X5012299Y4876070D01*
X5012316Y4876143D01*
X5012336Y4876213D01*
Y4876215D01*
X5012339Y4876221D01*
X5012345Y4876233D01*
X5012351Y4876250D01*
X5012357Y4876268D01*
X5012368Y4876288D01*
X5012392Y4876340D01*
X5012421Y4876396D01*
X5012458Y4876457D01*
X5012502Y4876515D01*
X5012551Y4876571D01*
X5012557Y4876576D01*
X5012572Y4876588D01*
X5012595Y4876605D01*
X5012627Y4876629D01*
X5012668Y4876655D01*
X5012714Y4876681D01*
X5012773Y4876707D01*
X5012837Y4876731D01*
X5012840D01*
X5012843Y4876733D01*
X5012851D01*
X5012860Y4876736D01*
X5012892Y4876742D01*
X5012933Y4876751D01*
X5012982Y4876760D01*
X5013043Y4876765D01*
X5013116Y4876768D01*
X5013195Y4876771D01*
X5013957D01*
Y4874758D01*
D02*
G37*
G36*
X5011414Y4875314D02*
X5011417Y4875316D01*
X5011422Y4875322D01*
X5011434Y4875331D01*
X5011452Y4875345D01*
X5011472Y4875363D01*
X5011495Y4875380D01*
X5011524Y4875401D01*
X5011556Y4875424D01*
X5011591Y4875447D01*
X5011629Y4875470D01*
X5011670Y4875497D01*
X5011713Y4875520D01*
X5011806Y4875564D01*
X5011911Y4875604D01*
Y4875255D01*
X5011908D01*
X5011906Y4875252D01*
X5011897Y4875249D01*
X5011885Y4875246D01*
X5011856Y4875232D01*
X5011815Y4875214D01*
X5011766Y4875191D01*
X5011711Y4875159D01*
X5011649Y4875118D01*
X5011586Y4875072D01*
X5011583Y4875069D01*
X5011577Y4875066D01*
X5011568Y4875057D01*
X5011556Y4875046D01*
X5011524Y4875017D01*
X5011489Y4874979D01*
X5011449Y4874932D01*
X5011408Y4874874D01*
X5011370Y4874813D01*
X5011341Y4874746D01*
X5011027D01*
Y4876771D01*
X5011414D01*
Y4875314D01*
D02*
G37*
G36*
X5009825Y4876806D02*
X5009845D01*
X5009869Y4876803D01*
X5009898Y4876797D01*
X5009930Y4876792D01*
X5009965Y4876780D01*
X5010003Y4876768D01*
X5010040Y4876754D01*
X5010081Y4876736D01*
X5010119Y4876713D01*
X5010160Y4876690D01*
X5010197Y4876658D01*
X5010235Y4876626D01*
X5010270Y4876585D01*
X5010273Y4876582D01*
X5010279Y4876574D01*
X5010287Y4876559D01*
X5010296Y4876542D01*
X5010311Y4876515D01*
X5010325Y4876483D01*
X5010343Y4876442D01*
X5010357Y4876399D01*
X5010375Y4876347D01*
X5010392Y4876288D01*
X5010407Y4876221D01*
X5010418Y4876149D01*
X5010430Y4876067D01*
X5010439Y4875977D01*
X5010445Y4875881D01*
X5010448Y4875776D01*
Y4875773D01*
Y4875770D01*
Y4875761D01*
Y4875750D01*
Y4875721D01*
X5010445Y4875683D01*
X5010442Y4875636D01*
X5010436Y4875581D01*
X5010430Y4875523D01*
X5010424Y4875459D01*
X5010413Y4875392D01*
X5010401Y4875325D01*
X5010384Y4875255D01*
X5010366Y4875188D01*
X5010343Y4875124D01*
X5010317Y4875063D01*
X5010287Y4875005D01*
X5010253Y4874955D01*
X5010250Y4874953D01*
X5010244Y4874947D01*
X5010235Y4874935D01*
X5010221Y4874923D01*
X5010206Y4874906D01*
X5010186Y4874889D01*
X5010160Y4874871D01*
X5010133Y4874851D01*
X5010101Y4874830D01*
X5010069Y4874813D01*
X5010032Y4874796D01*
X5009991Y4874778D01*
X5009947Y4874766D01*
X5009898Y4874755D01*
X5009848Y4874749D01*
X5009796Y4874746D01*
X5009767D01*
X5009746Y4874749D01*
X5009723Y4874752D01*
X5009694Y4874758D01*
X5009665Y4874763D01*
X5009630Y4874772D01*
X5009592Y4874784D01*
X5009557Y4874798D01*
X5009520Y4874813D01*
X5009481Y4874833D01*
X5009444Y4874859D01*
X5009406Y4874886D01*
X5009371Y4874918D01*
X5009339Y4874955D01*
X5009336Y4874958D01*
X5009330Y4874967D01*
X5009322Y4874982D01*
X5009307Y4875002D01*
X5009292Y4875031D01*
X5009275Y4875066D01*
X5009258Y4875104D01*
X5009240Y4875153D01*
X5009222Y4875206D01*
X5009202Y4875267D01*
X5009188Y4875334D01*
X5009173Y4875409D01*
X5009158Y4875491D01*
X5009150Y4875578D01*
X5009144Y4875674D01*
X5009141Y4875779D01*
Y4875782D01*
Y4875785D01*
Y4875793D01*
Y4875805D01*
Y4875834D01*
X5009144Y4875872D01*
X5009147Y4875919D01*
X5009153Y4875974D01*
X5009158Y4876032D01*
X5009164Y4876096D01*
X5009176Y4876163D01*
X5009190Y4876233D01*
X5009205Y4876300D01*
X5009225Y4876367D01*
X5009246Y4876434D01*
X5009275Y4876495D01*
X5009304Y4876553D01*
X5009339Y4876603D01*
X5009342Y4876605D01*
X5009348Y4876611D01*
X5009356Y4876623D01*
X5009368Y4876635D01*
X5009386Y4876649D01*
X5009406Y4876667D01*
X5009432Y4876687D01*
X5009458Y4876704D01*
X5009490Y4876725D01*
X5009522Y4876745D01*
X5009560Y4876763D01*
X5009601Y4876777D01*
X5009644Y4876789D01*
X5009694Y4876801D01*
X5009743Y4876806D01*
X5009796Y4876809D01*
X5009808D01*
X5009825Y4876806D01*
D02*
G37*
G36*
X5011682Y4886797D02*
X5011702D01*
X5011725Y4886794D01*
X5011781Y4886785D01*
X5011842Y4886768D01*
X5011903Y4886747D01*
X5011967Y4886715D01*
X5011996Y4886698D01*
X5012025Y4886674D01*
X5012028Y4886671D01*
X5012031Y4886669D01*
X5012040Y4886660D01*
X5012048Y4886651D01*
X5012060Y4886637D01*
X5012075Y4886622D01*
X5012086Y4886602D01*
X5012104Y4886581D01*
X5012118Y4886555D01*
X5012136Y4886529D01*
X5012150Y4886497D01*
X5012165Y4886462D01*
X5012180Y4886427D01*
X5012191Y4886386D01*
X5012202Y4886346D01*
X5012211Y4886299D01*
X5011839Y4886256D01*
Y4886261D01*
X5011836Y4886276D01*
X5011833Y4886296D01*
X5011824Y4886319D01*
X5011816Y4886349D01*
X5011804Y4886378D01*
X5011789Y4886404D01*
X5011769Y4886427D01*
X5011766Y4886430D01*
X5011757Y4886436D01*
X5011746Y4886444D01*
X5011728Y4886453D01*
X5011705Y4886462D01*
X5011682Y4886471D01*
X5011650Y4886477D01*
X5011618Y4886480D01*
X5011612D01*
X5011597Y4886477D01*
X5011577Y4886474D01*
X5011548Y4886465D01*
X5011516Y4886453D01*
X5011484Y4886433D01*
X5011449Y4886407D01*
X5011417Y4886372D01*
X5011414Y4886366D01*
X5011408Y4886360D01*
X5011403Y4886349D01*
X5011397Y4886337D01*
X5011388Y4886319D01*
X5011382Y4886299D01*
X5011370Y4886273D01*
X5011362Y4886244D01*
X5011353Y4886212D01*
X5011344Y4886174D01*
X5011335Y4886133D01*
X5011327Y4886087D01*
X5011321Y4886034D01*
X5011315Y4885976D01*
X5011309Y4885915D01*
X5011312Y4885918D01*
X5011315Y4885921D01*
X5011324Y4885929D01*
X5011335Y4885941D01*
X5011350Y4885953D01*
X5011367Y4885967D01*
X5011408Y4885999D01*
X5011460Y4886031D01*
X5011525Y4886058D01*
X5011560Y4886069D01*
X5011594Y4886075D01*
X5011632Y4886081D01*
X5011673Y4886084D01*
X5011696D01*
X5011714Y4886081D01*
X5011734Y4886078D01*
X5011757Y4886075D01*
X5011813Y4886060D01*
X5011877Y4886040D01*
X5011909Y4886023D01*
X5011944Y4886005D01*
X5011979Y4885985D01*
X5012014Y4885962D01*
X5012048Y4885933D01*
X5012080Y4885900D01*
X5012083Y4885897D01*
X5012089Y4885892D01*
X5012095Y4885880D01*
X5012107Y4885868D01*
X5012121Y4885848D01*
X5012136Y4885828D01*
X5012150Y4885801D01*
X5012165Y4885772D01*
X5012182Y4885740D01*
X5012197Y4885703D01*
X5012211Y4885665D01*
X5012226Y4885621D01*
X5012238Y4885577D01*
X5012243Y4885528D01*
X5012249Y4885476D01*
X5012252Y4885423D01*
Y4885420D01*
Y4885409D01*
Y4885394D01*
X5012249Y4885371D01*
X5012246Y4885345D01*
X5012243Y4885315D01*
X5012238Y4885281D01*
X5012229Y4885246D01*
X5012209Y4885167D01*
X5012194Y4885123D01*
X5012177Y4885083D01*
X5012156Y4885042D01*
X5012130Y4885001D01*
X5012104Y4884963D01*
X5012072Y4884925D01*
X5012069Y4884923D01*
X5012063Y4884917D01*
X5012054Y4884908D01*
X5012040Y4884896D01*
X5012019Y4884882D01*
X5011999Y4884864D01*
X5011973Y4884850D01*
X5011944Y4884830D01*
X5011914Y4884812D01*
X5011877Y4884798D01*
X5011839Y4884780D01*
X5011798Y4884766D01*
X5011755Y4884754D01*
X5011708Y4884745D01*
X5011662Y4884739D01*
X5011609Y4884736D01*
X5011594D01*
X5011580Y4884739D01*
X5011557D01*
X5011530Y4884742D01*
X5011501Y4884748D01*
X5011466Y4884757D01*
X5011432Y4884766D01*
X5011391Y4884780D01*
X5011350Y4884795D01*
X5011309Y4884815D01*
X5011266Y4884838D01*
X5011225Y4884864D01*
X5011184Y4884896D01*
X5011143Y4884934D01*
X5011106Y4884975D01*
X5011103Y4884978D01*
X5011097Y4884987D01*
X5011088Y4885001D01*
X5011074Y4885022D01*
X5011059Y4885048D01*
X5011042Y4885080D01*
X5011024Y4885118D01*
X5011007Y4885161D01*
X5010989Y4885214D01*
X5010969Y4885272D01*
X5010954Y4885336D01*
X5010940Y4885406D01*
X5010925Y4885484D01*
X5010917Y4885569D01*
X5010910Y4885659D01*
X5010908Y4885758D01*
Y4885761D01*
Y4885764D01*
Y4885772D01*
Y4885781D01*
Y4885810D01*
X5010910Y4885848D01*
X5010913Y4885895D01*
X5010919Y4885947D01*
X5010925Y4886002D01*
X5010934Y4886063D01*
X5010946Y4886130D01*
X5010957Y4886194D01*
X5010975Y4886261D01*
X5010995Y4886328D01*
X5011018Y4886389D01*
X5011047Y4886451D01*
X5011076Y4886506D01*
X5011114Y4886555D01*
X5011117Y4886558D01*
X5011123Y4886567D01*
X5011135Y4886578D01*
X5011152Y4886593D01*
X5011172Y4886610D01*
X5011196Y4886634D01*
X5011225Y4886654D01*
X5011257Y4886678D01*
X5011292Y4886701D01*
X5011333Y4886721D01*
X5011376Y4886741D01*
X5011423Y4886762D01*
X5011475Y4886776D01*
X5011528Y4886788D01*
X5011583Y4886797D01*
X5011644Y4886800D01*
X5011667D01*
X5011682Y4886797D01*
D02*
G37*
G36*
X5010683Y4885691D02*
X5010681Y4885688D01*
X5010675Y4885682D01*
X5010666Y4885674D01*
X5010652Y4885662D01*
X5010637Y4885647D01*
X5010617Y4885633D01*
X5010593Y4885615D01*
X5010567Y4885598D01*
X5010509Y4885563D01*
X5010439Y4885534D01*
X5010404Y4885522D01*
X5010363Y4885513D01*
X5010323Y4885508D01*
X5010279Y4885505D01*
X5010247D01*
X5010227Y4885508D01*
X5010201D01*
X5010175Y4885511D01*
X5010119Y4885522D01*
X5010116D01*
X5010104Y4885525D01*
X5010087Y4885531D01*
X5010058Y4885540D01*
X5010023Y4885551D01*
X5009977Y4885569D01*
X5009921Y4885589D01*
X5009857Y4885615D01*
X5009854D01*
X5009848Y4885618D01*
X5009840Y4885621D01*
X5009825Y4885627D01*
X5009793Y4885638D01*
X5009755Y4885650D01*
X5009712Y4885665D01*
X5009668Y4885677D01*
X5009630Y4885685D01*
X5009601Y4885688D01*
X5009587D01*
X5009572Y4885685D01*
X5009552Y4885682D01*
X5009526Y4885677D01*
X5009496Y4885670D01*
X5009461Y4885659D01*
X5009426Y4885645D01*
X5009421Y4885641D01*
X5009409Y4885636D01*
X5009389Y4885624D01*
X5009362Y4885609D01*
X5009333Y4885586D01*
X5009298Y4885563D01*
X5009264Y4885531D01*
X5009226Y4885496D01*
Y4885865D01*
X5009229Y4885868D01*
X5009237Y4885877D01*
X5009252Y4885889D01*
X5009272Y4885906D01*
X5009298Y4885926D01*
X5009328Y4885947D01*
X5009362Y4885967D01*
X5009403Y4885991D01*
X5009409Y4885994D01*
X5009423Y4885999D01*
X5009447Y4886008D01*
X5009476Y4886017D01*
X5009511Y4886029D01*
X5009552Y4886037D01*
X5009592Y4886043D01*
X5009639Y4886046D01*
X5009662D01*
X5009680Y4886043D01*
X5009700D01*
X5009723Y4886040D01*
X5009773Y4886031D01*
X5009776D01*
X5009784Y4886029D01*
X5009802Y4886023D01*
X5009822Y4886014D01*
X5009851Y4886005D01*
X5009886Y4885991D01*
X5009930Y4885976D01*
X5009979Y4885956D01*
X5009982D01*
X5009988Y4885953D01*
X5010000Y4885947D01*
X5010014Y4885941D01*
X5010032Y4885935D01*
X5010052Y4885926D01*
X5010099Y4885909D01*
X5010151Y4885892D01*
X5010206Y4885877D01*
X5010262Y4885865D01*
X5010311Y4885863D01*
X5010329D01*
X5010343Y4885865D01*
X5010361Y4885868D01*
X5010381Y4885871D01*
X5010431Y4885886D01*
X5010486Y4885909D01*
X5010518Y4885924D01*
X5010550Y4885941D01*
X5010582Y4885962D01*
X5010617Y4885988D01*
X5010649Y4886017D01*
X5010683Y4886049D01*
Y4885691D01*
D02*
G37*
G36*
X5014167Y4884748D02*
X5013364D01*
X5013340Y4884751D01*
X5013285Y4884754D01*
X5013224Y4884757D01*
X5013160Y4884766D01*
X5013099Y4884774D01*
X5013044Y4884789D01*
X5013041D01*
X5013035Y4884792D01*
X5013026Y4884795D01*
X5013015Y4884798D01*
X5012980Y4884812D01*
X5012939Y4884832D01*
X5012892Y4884859D01*
X5012840Y4884891D01*
X5012791Y4884929D01*
X5012741Y4884975D01*
X5012738D01*
X5012735Y4884981D01*
X5012720Y4884998D01*
X5012697Y4885027D01*
X5012671Y4885065D01*
X5012639Y4885112D01*
X5012607Y4885167D01*
X5012575Y4885231D01*
X5012549Y4885301D01*
Y4885304D01*
X5012546Y4885310D01*
X5012543Y4885321D01*
X5012537Y4885336D01*
X5012534Y4885353D01*
X5012529Y4885377D01*
X5012523Y4885403D01*
X5012514Y4885432D01*
X5012508Y4885464D01*
X5012502Y4885502D01*
X5012497Y4885540D01*
X5012494Y4885583D01*
X5012485Y4885674D01*
X5012482Y4885775D01*
Y4885778D01*
Y4885787D01*
Y4885799D01*
Y4885816D01*
X5012485Y4885839D01*
Y4885863D01*
X5012488Y4885892D01*
X5012491Y4885924D01*
X5012497Y4885991D01*
X5012508Y4886060D01*
X5012526Y4886133D01*
X5012546Y4886203D01*
Y4886206D01*
X5012549Y4886212D01*
X5012555Y4886223D01*
X5012561Y4886241D01*
X5012566Y4886258D01*
X5012578Y4886279D01*
X5012601Y4886331D01*
X5012630Y4886386D01*
X5012668Y4886448D01*
X5012712Y4886506D01*
X5012761Y4886561D01*
X5012767Y4886567D01*
X5012782Y4886578D01*
X5012805Y4886596D01*
X5012837Y4886619D01*
X5012878Y4886646D01*
X5012924Y4886671D01*
X5012983Y4886698D01*
X5013047Y4886721D01*
X5013049D01*
X5013052Y4886724D01*
X5013061D01*
X5013070Y4886727D01*
X5013102Y4886733D01*
X5013143Y4886741D01*
X5013192Y4886750D01*
X5013253Y4886756D01*
X5013326Y4886759D01*
X5013404Y4886762D01*
X5014167D01*
Y4884748D01*
D02*
G37*
G36*
X5010617Y4915750D02*
X5010614Y4915747D01*
X5010608Y4915741D01*
X5010600Y4915732D01*
X5010585Y4915720D01*
X5010571Y4915706D01*
X5010550Y4915691D01*
X5010527Y4915674D01*
X5010501Y4915657D01*
X5010442Y4915622D01*
X5010373Y4915593D01*
X5010338Y4915581D01*
X5010297Y4915572D01*
X5010256Y4915566D01*
X5010213Y4915564D01*
X5010181D01*
X5010160Y4915566D01*
X5010134D01*
X5010108Y4915569D01*
X5010052Y4915581D01*
X5010050D01*
X5010038Y4915584D01*
X5010020Y4915590D01*
X5009991Y4915598D01*
X5009957Y4915610D01*
X5009910Y4915627D01*
X5009855Y4915648D01*
X5009791Y4915674D01*
X5009788D01*
X5009782Y4915677D01*
X5009773Y4915680D01*
X5009759Y4915686D01*
X5009727Y4915697D01*
X5009689Y4915709D01*
X5009645Y4915723D01*
X5009602Y4915735D01*
X5009564Y4915744D01*
X5009534Y4915747D01*
X5009520D01*
X5009505Y4915744D01*
X5009485Y4915741D01*
X5009459Y4915735D01*
X5009430Y4915729D01*
X5009395Y4915718D01*
X5009360Y4915703D01*
X5009354Y4915700D01*
X5009343Y4915694D01*
X5009322Y4915683D01*
X5009296Y4915668D01*
X5009267Y4915645D01*
X5009232Y4915622D01*
X5009197Y4915590D01*
X5009159Y4915554D01*
Y4915924D01*
X5009162Y4915927D01*
X5009171Y4915936D01*
X5009185Y4915947D01*
X5009206Y4915965D01*
X5009232Y4915985D01*
X5009261Y4916006D01*
X5009296Y4916026D01*
X5009337Y4916049D01*
X5009343Y4916052D01*
X5009357Y4916058D01*
X5009380Y4916067D01*
X5009409Y4916076D01*
X5009444Y4916087D01*
X5009485Y4916096D01*
X5009526Y4916102D01*
X5009572Y4916105D01*
X5009596D01*
X5009613Y4916102D01*
X5009634D01*
X5009657Y4916099D01*
X5009706Y4916090D01*
X5009709D01*
X5009718Y4916087D01*
X5009735Y4916081D01*
X5009756Y4916072D01*
X5009785Y4916064D01*
X5009820Y4916049D01*
X5009863Y4916035D01*
X5009913Y4916014D01*
X5009916D01*
X5009922Y4916011D01*
X5009933Y4916006D01*
X5009948Y4916000D01*
X5009965Y4915994D01*
X5009986Y4915985D01*
X5010032Y4915968D01*
X5010085Y4915950D01*
X5010140Y4915936D01*
X5010195Y4915924D01*
X5010245Y4915921D01*
X5010262D01*
X5010277Y4915924D01*
X5010294Y4915927D01*
X5010315Y4915930D01*
X5010364Y4915945D01*
X5010419Y4915968D01*
X5010451Y4915982D01*
X5010483Y4916000D01*
X5010515Y4916020D01*
X5010550Y4916047D01*
X5010582Y4916076D01*
X5010617Y4916108D01*
Y4915750D01*
D02*
G37*
G36*
X5011487Y4916855D02*
X5011507D01*
X5011534Y4916850D01*
X5011566Y4916847D01*
X5011598Y4916838D01*
X5011636Y4916829D01*
X5011673Y4916817D01*
X5011714Y4916800D01*
X5011758Y4916783D01*
X5011798Y4916759D01*
X5011842Y4916733D01*
X5011883Y4916701D01*
X5011924Y4916663D01*
X5011961Y4916623D01*
X5011964Y4916620D01*
X5011970Y4916611D01*
X5011979Y4916596D01*
X5011991Y4916576D01*
X5012008Y4916550D01*
X5012023Y4916518D01*
X5012040Y4916480D01*
X5012057Y4916436D01*
X5012078Y4916384D01*
X5012095Y4916329D01*
X5012110Y4916265D01*
X5012125Y4916192D01*
X5012139Y4916116D01*
X5012148Y4916032D01*
X5012154Y4915942D01*
X5012157Y4915843D01*
Y4915840D01*
Y4915837D01*
Y4915828D01*
Y4915820D01*
Y4915791D01*
X5012154Y4915752D01*
X5012151Y4915706D01*
X5012145Y4915654D01*
X5012139Y4915595D01*
X5012130Y4915534D01*
X5012122Y4915470D01*
X5012107Y4915403D01*
X5012090Y4915336D01*
X5012069Y4915269D01*
X5012046Y4915208D01*
X5012020Y4915147D01*
X5011988Y4915092D01*
X5011953Y4915042D01*
X5011950Y4915039D01*
X5011944Y4915031D01*
X5011932Y4915019D01*
X5011915Y4915005D01*
X5011895Y4914984D01*
X5011871Y4914964D01*
X5011842Y4914941D01*
X5011810Y4914917D01*
X5011773Y4914897D01*
X5011735Y4914874D01*
X5011688Y4914853D01*
X5011641Y4914833D01*
X5011592Y4914819D01*
X5011537Y4914807D01*
X5011481Y4914798D01*
X5011420Y4914795D01*
X5011397D01*
X5011383Y4914798D01*
X5011362D01*
X5011339Y4914801D01*
X5011287Y4914812D01*
X5011228Y4914827D01*
X5011164Y4914850D01*
X5011100Y4914882D01*
X5011071Y4914903D01*
X5011042Y4914926D01*
X5011039D01*
X5011036Y4914932D01*
X5011028Y4914941D01*
X5011019Y4914949D01*
X5011004Y4914964D01*
X5010992Y4914978D01*
X5010960Y4915019D01*
X5010928Y4915075D01*
X5010897Y4915139D01*
X5010867Y4915211D01*
X5010847Y4915298D01*
X5011219Y4915339D01*
Y4915334D01*
X5011222Y4915322D01*
X5011228Y4915302D01*
X5011234Y4915275D01*
X5011243Y4915249D01*
X5011257Y4915220D01*
X5011272Y4915194D01*
X5011292Y4915171D01*
X5011295Y4915168D01*
X5011304Y4915162D01*
X5011316Y4915153D01*
X5011333Y4915141D01*
X5011353Y4915133D01*
X5011380Y4915124D01*
X5011412Y4915118D01*
X5011444Y4915115D01*
X5011449D01*
X5011464Y4915118D01*
X5011487Y4915121D01*
X5011516Y4915130D01*
X5011548Y4915141D01*
X5011583Y4915162D01*
X5011618Y4915188D01*
X5011650Y4915226D01*
X5011653Y4915232D01*
X5011659Y4915237D01*
X5011665Y4915249D01*
X5011671Y4915261D01*
X5011679Y4915278D01*
X5011685Y4915298D01*
X5011694Y4915325D01*
X5011705Y4915354D01*
X5011714Y4915386D01*
X5011723Y4915424D01*
X5011732Y4915464D01*
X5011740Y4915511D01*
X5011746Y4915564D01*
X5011752Y4915622D01*
X5011758Y4915683D01*
X5011755Y4915680D01*
X5011752Y4915674D01*
X5011743Y4915668D01*
X5011732Y4915657D01*
X5011717Y4915642D01*
X5011700Y4915627D01*
X5011659Y4915595D01*
X5011607Y4915566D01*
X5011546Y4915537D01*
X5011510Y4915525D01*
X5011476Y4915520D01*
X5011438Y4915514D01*
X5011397Y4915511D01*
X5011374D01*
X5011356Y4915514D01*
X5011336Y4915517D01*
X5011312Y4915520D01*
X5011283Y4915525D01*
X5011255Y4915534D01*
X5011190Y4915557D01*
X5011155Y4915572D01*
X5011121Y4915590D01*
X5011086Y4915610D01*
X5011051Y4915636D01*
X5011016Y4915665D01*
X5010984Y4915697D01*
X5010981Y4915700D01*
X5010975Y4915706D01*
X5010966Y4915715D01*
X5010958Y4915729D01*
X5010943Y4915750D01*
X5010928Y4915770D01*
X5010914Y4915796D01*
X5010897Y4915825D01*
X5010879Y4915857D01*
X5010865Y4915895D01*
X5010850Y4915933D01*
X5010835Y4915977D01*
X5010826Y4916020D01*
X5010818Y4916070D01*
X5010812Y4916119D01*
X5010809Y4916174D01*
Y4916177D01*
Y4916189D01*
Y4916204D01*
X5010812Y4916227D01*
X5010815Y4916253D01*
X5010818Y4916282D01*
X5010824Y4916317D01*
X5010833Y4916352D01*
X5010853Y4916433D01*
X5010867Y4916474D01*
X5010888Y4916515D01*
X5010908Y4916556D01*
X5010931Y4916596D01*
X5010960Y4916637D01*
X5010992Y4916672D01*
X5010995Y4916675D01*
X5011001Y4916681D01*
X5011010Y4916690D01*
X5011024Y4916701D01*
X5011042Y4916716D01*
X5011065Y4916730D01*
X5011089Y4916748D01*
X5011118Y4916765D01*
X5011150Y4916783D01*
X5011185Y4916800D01*
X5011222Y4916815D01*
X5011266Y4916829D01*
X5011310Y4916841D01*
X5011356Y4916850D01*
X5011406Y4916855D01*
X5011458Y4916858D01*
X5011473D01*
X5011487Y4916855D01*
D02*
G37*
G36*
X5014100Y4914807D02*
X5013297D01*
X5013274Y4914810D01*
X5013219Y4914812D01*
X5013158Y4914816D01*
X5013094Y4914824D01*
X5013033Y4914833D01*
X5012977Y4914848D01*
X5012974D01*
X5012968Y4914850D01*
X5012960Y4914853D01*
X5012948Y4914856D01*
X5012913Y4914871D01*
X5012872Y4914891D01*
X5012826Y4914917D01*
X5012774Y4914949D01*
X5012724Y4914987D01*
X5012674Y4915034D01*
X5012672D01*
X5012669Y4915039D01*
X5012654Y4915057D01*
X5012631Y4915086D01*
X5012605Y4915124D01*
X5012572Y4915171D01*
X5012540Y4915226D01*
X5012509Y4915290D01*
X5012482Y4915360D01*
Y4915363D01*
X5012479Y4915368D01*
X5012477Y4915380D01*
X5012471Y4915395D01*
X5012468Y4915412D01*
X5012462Y4915435D01*
X5012456Y4915461D01*
X5012447Y4915491D01*
X5012442Y4915523D01*
X5012436Y4915561D01*
X5012430Y4915598D01*
X5012427Y4915642D01*
X5012418Y4915732D01*
X5012415Y4915834D01*
Y4915837D01*
Y4915846D01*
Y4915857D01*
Y4915875D01*
X5012418Y4915898D01*
Y4915921D01*
X5012421Y4915950D01*
X5012424Y4915982D01*
X5012430Y4916049D01*
X5012442Y4916119D01*
X5012459Y4916192D01*
X5012479Y4916262D01*
Y4916265D01*
X5012482Y4916270D01*
X5012488Y4916282D01*
X5012494Y4916299D01*
X5012500Y4916317D01*
X5012511Y4916338D01*
X5012535Y4916390D01*
X5012564Y4916445D01*
X5012602Y4916506D01*
X5012645Y4916565D01*
X5012695Y4916620D01*
X5012701Y4916626D01*
X5012715Y4916637D01*
X5012738Y4916655D01*
X5012770Y4916678D01*
X5012811Y4916704D01*
X5012858Y4916730D01*
X5012916Y4916756D01*
X5012980Y4916780D01*
X5012983D01*
X5012986Y4916783D01*
X5012995D01*
X5013003Y4916785D01*
X5013035Y4916792D01*
X5013076Y4916800D01*
X5013126Y4916809D01*
X5013187Y4916815D01*
X5013260Y4916817D01*
X5013338Y4916821D01*
X5014100D01*
Y4914807D01*
D02*
G37*
G36*
X5011534Y4926974D02*
X5011557Y4926971D01*
X5011586Y4926968D01*
X5011615Y4926965D01*
X5011650Y4926959D01*
X5011720Y4926942D01*
X5011798Y4926913D01*
X5011836Y4926898D01*
X5011874Y4926878D01*
X5011909Y4926855D01*
X5011944Y4926828D01*
X5011947Y4926825D01*
X5011953Y4926823D01*
X5011961Y4926814D01*
X5011973Y4926802D01*
X5011985Y4926785D01*
X5012002Y4926767D01*
X5012017Y4926747D01*
X5012034Y4926724D01*
X5012055Y4926694D01*
X5012072Y4926665D01*
X5012104Y4926596D01*
X5012133Y4926517D01*
X5012142Y4926473D01*
X5012151Y4926427D01*
X5011766Y4926386D01*
Y4926392D01*
X5011764Y4926406D01*
X5011758Y4926433D01*
X5011749Y4926462D01*
X5011737Y4926494D01*
X5011720Y4926529D01*
X5011697Y4926561D01*
X5011671Y4926593D01*
X5011668Y4926596D01*
X5011656Y4926604D01*
X5011639Y4926616D01*
X5011615Y4926630D01*
X5011589Y4926645D01*
X5011557Y4926657D01*
X5011519Y4926665D01*
X5011481Y4926669D01*
X5011476D01*
X5011461Y4926665D01*
X5011438Y4926662D01*
X5011409Y4926657D01*
X5011377Y4926645D01*
X5011342Y4926628D01*
X5011307Y4926601D01*
X5011275Y4926569D01*
X5011272Y4926564D01*
X5011260Y4926552D01*
X5011249Y4926529D01*
X5011231Y4926494D01*
X5011217Y4926453D01*
X5011202Y4926403D01*
X5011193Y4926342D01*
X5011190Y4926273D01*
Y4926270D01*
Y4926264D01*
Y4926255D01*
Y4926241D01*
X5011193Y4926208D01*
X5011202Y4926168D01*
X5011211Y4926121D01*
X5011225Y4926075D01*
X5011246Y4926031D01*
X5011275Y4925993D01*
X5011278Y4925990D01*
X5011289Y4925979D01*
X5011310Y4925964D01*
X5011333Y4925944D01*
X5011365Y4925926D01*
X5011403Y4925912D01*
X5011446Y4925900D01*
X5011493Y4925897D01*
X5011510D01*
X5011522Y4925900D01*
X5011551Y4925906D01*
X5011592Y4925915D01*
X5011639Y4925932D01*
X5011688Y4925958D01*
X5011714Y4925976D01*
X5011740Y4925996D01*
X5011766Y4926019D01*
X5011793Y4926046D01*
X5012104Y4926002D01*
X5011906Y4924952D01*
X5010885D01*
Y4925312D01*
X5011615D01*
X5011676Y4925656D01*
X5011673D01*
X5011671Y4925653D01*
X5011653Y4925644D01*
X5011627Y4925635D01*
X5011595Y4925621D01*
X5011554Y4925609D01*
X5011510Y4925600D01*
X5011461Y4925592D01*
X5011412Y4925589D01*
X5011385D01*
X5011368Y4925592D01*
X5011348Y4925595D01*
X5011321Y4925597D01*
X5011292Y4925603D01*
X5011260Y4925612D01*
X5011193Y4925635D01*
X5011155Y4925650D01*
X5011121Y4925667D01*
X5011083Y4925690D01*
X5011045Y4925717D01*
X5011010Y4925746D01*
X5010975Y4925778D01*
X5010972Y4925781D01*
X5010966Y4925787D01*
X5010958Y4925798D01*
X5010946Y4925813D01*
X5010934Y4925830D01*
X5010917Y4925854D01*
X5010902Y4925880D01*
X5010885Y4925909D01*
X5010867Y4925941D01*
X5010853Y4925979D01*
X5010835Y4926019D01*
X5010824Y4926060D01*
X5010812Y4926107D01*
X5010803Y4926156D01*
X5010798Y4926208D01*
X5010794Y4926264D01*
Y4926267D01*
Y4926276D01*
Y4926287D01*
X5010798Y4926305D01*
Y4926328D01*
X5010803Y4926354D01*
X5010806Y4926383D01*
X5010812Y4926412D01*
X5010830Y4926482D01*
X5010856Y4926558D01*
X5010873Y4926598D01*
X5010891Y4926637D01*
X5010914Y4926674D01*
X5010940Y4926712D01*
X5010943Y4926715D01*
X5010949Y4926724D01*
X5010960Y4926735D01*
X5010975Y4926753D01*
X5010995Y4926773D01*
X5011021Y4926796D01*
X5011051Y4926820D01*
X5011083Y4926843D01*
X5011121Y4926869D01*
X5011161Y4926892D01*
X5011205Y4926916D01*
X5011255Y4926936D01*
X5011307Y4926954D01*
X5011362Y4926965D01*
X5011423Y4926974D01*
X5011487Y4926977D01*
X5011514D01*
X5011534Y4926974D01*
D02*
G37*
G36*
X5010617Y4925868D02*
X5010614Y4925865D01*
X5010608Y4925859D01*
X5010600Y4925851D01*
X5010585Y4925839D01*
X5010571Y4925824D01*
X5010550Y4925810D01*
X5010527Y4925792D01*
X5010501Y4925775D01*
X5010442Y4925740D01*
X5010373Y4925711D01*
X5010338Y4925699D01*
X5010297Y4925690D01*
X5010256Y4925685D01*
X5010213Y4925682D01*
X5010181D01*
X5010160Y4925685D01*
X5010134D01*
X5010108Y4925688D01*
X5010052Y4925699D01*
X5010050D01*
X5010038Y4925702D01*
X5010020Y4925708D01*
X5009991Y4925717D01*
X5009957Y4925728D01*
X5009910Y4925746D01*
X5009855Y4925766D01*
X5009791Y4925792D01*
X5009788D01*
X5009782Y4925795D01*
X5009773Y4925798D01*
X5009759Y4925804D01*
X5009727Y4925816D01*
X5009689Y4925827D01*
X5009645Y4925842D01*
X5009602Y4925854D01*
X5009564Y4925862D01*
X5009534Y4925865D01*
X5009520D01*
X5009505Y4925862D01*
X5009485Y4925859D01*
X5009459Y4925854D01*
X5009430Y4925848D01*
X5009395Y4925836D01*
X5009360Y4925822D01*
X5009354Y4925819D01*
X5009343Y4925813D01*
X5009322Y4925801D01*
X5009296Y4925787D01*
X5009267Y4925763D01*
X5009232Y4925740D01*
X5009197Y4925708D01*
X5009159Y4925673D01*
Y4926043D01*
X5009162Y4926046D01*
X5009171Y4926054D01*
X5009185Y4926066D01*
X5009206Y4926083D01*
X5009232Y4926104D01*
X5009261Y4926124D01*
X5009296Y4926145D01*
X5009337Y4926168D01*
X5009343Y4926171D01*
X5009357Y4926176D01*
X5009380Y4926185D01*
X5009409Y4926194D01*
X5009444Y4926206D01*
X5009485Y4926214D01*
X5009526Y4926220D01*
X5009572Y4926223D01*
X5009596D01*
X5009613Y4926220D01*
X5009634D01*
X5009657Y4926217D01*
X5009706Y4926208D01*
X5009709D01*
X5009718Y4926206D01*
X5009735Y4926200D01*
X5009756Y4926191D01*
X5009785Y4926183D01*
X5009820Y4926168D01*
X5009863Y4926153D01*
X5009913Y4926133D01*
X5009916D01*
X5009922Y4926130D01*
X5009933Y4926124D01*
X5009948Y4926118D01*
X5009965Y4926113D01*
X5009986Y4926104D01*
X5010032Y4926086D01*
X5010085Y4926069D01*
X5010140Y4926054D01*
X5010195Y4926043D01*
X5010245Y4926040D01*
X5010262D01*
X5010277Y4926043D01*
X5010294Y4926046D01*
X5010315Y4926049D01*
X5010364Y4926063D01*
X5010419Y4926086D01*
X5010451Y4926101D01*
X5010483Y4926118D01*
X5010515Y4926139D01*
X5010550Y4926165D01*
X5010582Y4926194D01*
X5010617Y4926226D01*
Y4925868D01*
D02*
G37*
G36*
X5014100Y4924925D02*
X5013297D01*
X5013274Y4924928D01*
X5013219Y4924931D01*
X5013158Y4924934D01*
X5013094Y4924943D01*
X5013033Y4924952D01*
X5012977Y4924966D01*
X5012974D01*
X5012968Y4924969D01*
X5012960Y4924972D01*
X5012948Y4924975D01*
X5012913Y4924989D01*
X5012872Y4925010D01*
X5012826Y4925036D01*
X5012774Y4925068D01*
X5012724Y4925106D01*
X5012674Y4925152D01*
X5012672D01*
X5012669Y4925158D01*
X5012654Y4925175D01*
X5012631Y4925204D01*
X5012605Y4925243D01*
X5012572Y4925289D01*
X5012540Y4925344D01*
X5012509Y4925408D01*
X5012482Y4925478D01*
Y4925481D01*
X5012479Y4925487D01*
X5012477Y4925499D01*
X5012471Y4925513D01*
X5012468Y4925531D01*
X5012462Y4925554D01*
X5012456Y4925580D01*
X5012447Y4925609D01*
X5012442Y4925641D01*
X5012436Y4925679D01*
X5012430Y4925717D01*
X5012427Y4925761D01*
X5012418Y4925851D01*
X5012415Y4925953D01*
Y4925956D01*
Y4925964D01*
Y4925976D01*
Y4925993D01*
X5012418Y4926017D01*
Y4926040D01*
X5012421Y4926069D01*
X5012424Y4926101D01*
X5012430Y4926168D01*
X5012442Y4926238D01*
X5012459Y4926310D01*
X5012479Y4926380D01*
Y4926383D01*
X5012482Y4926389D01*
X5012488Y4926401D01*
X5012494Y4926418D01*
X5012500Y4926435D01*
X5012511Y4926456D01*
X5012535Y4926508D01*
X5012564Y4926564D01*
X5012602Y4926625D01*
X5012645Y4926683D01*
X5012695Y4926738D01*
X5012701Y4926744D01*
X5012715Y4926756D01*
X5012738Y4926773D01*
X5012770Y4926796D01*
X5012811Y4926823D01*
X5012858Y4926849D01*
X5012916Y4926875D01*
X5012980Y4926898D01*
X5012983D01*
X5012986Y4926901D01*
X5012995D01*
X5013003Y4926904D01*
X5013035Y4926910D01*
X5013076Y4926918D01*
X5013126Y4926928D01*
X5013187Y4926933D01*
X5013260Y4926936D01*
X5013338Y4926939D01*
X5014100D01*
Y4924925D01*
D02*
G37*
G36*
X5011475Y4946914D02*
X5011498Y4946911D01*
X5011525Y4946908D01*
X5011554Y4946902D01*
X5011589Y4946897D01*
X5011658Y4946879D01*
X5011734Y4946850D01*
X5011775Y4946833D01*
X5011810Y4946812D01*
X5011848Y4946786D01*
X5011883Y4946760D01*
X5011885Y4946757D01*
X5011891Y4946751D01*
X5011900Y4946742D01*
X5011912Y4946731D01*
X5011926Y4946716D01*
X5011941Y4946696D01*
X5011958Y4946675D01*
X5011976Y4946649D01*
X5011993Y4946620D01*
X5012014Y4946591D01*
X5012046Y4946521D01*
X5012072Y4946440D01*
X5012083Y4946396D01*
X5012089Y4946349D01*
X5011717Y4946303D01*
Y4946306D01*
Y4946309D01*
X5011714Y4946326D01*
X5011708Y4946352D01*
X5011699Y4946384D01*
X5011685Y4946419D01*
X5011670Y4946457D01*
X5011647Y4946492D01*
X5011621Y4946524D01*
X5011618Y4946527D01*
X5011606Y4946536D01*
X5011589Y4946547D01*
X5011568Y4946559D01*
X5011539Y4946574D01*
X5011507Y4946585D01*
X5011472Y4946594D01*
X5011432Y4946597D01*
X5011426D01*
X5011411Y4946594D01*
X5011391Y4946591D01*
X5011362Y4946585D01*
X5011330Y4946574D01*
X5011298Y4946559D01*
X5011263Y4946536D01*
X5011231Y4946507D01*
X5011228Y4946504D01*
X5011216Y4946489D01*
X5011205Y4946469D01*
X5011187Y4946442D01*
X5011172Y4946408D01*
X5011158Y4946364D01*
X5011149Y4946315D01*
X5011146Y4946259D01*
Y4946256D01*
Y4946254D01*
Y4946236D01*
X5011149Y4946210D01*
X5011155Y4946175D01*
X5011167Y4946137D01*
X5011181Y4946099D01*
X5011201Y4946061D01*
X5011228Y4946027D01*
X5011231Y4946024D01*
X5011242Y4946012D01*
X5011260Y4945997D01*
X5011280Y4945983D01*
X5011309Y4945966D01*
X5011341Y4945954D01*
X5011376Y4945942D01*
X5011417Y4945939D01*
X5011446D01*
X5011466Y4945942D01*
X5011493Y4945945D01*
X5011525Y4945951D01*
X5011557Y4945959D01*
X5011594Y4945968D01*
X5011554Y4945657D01*
X5011528D01*
X5011498Y4945654D01*
X5011464Y4945651D01*
X5011426Y4945642D01*
X5011385Y4945631D01*
X5011347Y4945613D01*
X5011312Y4945590D01*
X5011309Y4945587D01*
X5011298Y4945575D01*
X5011286Y4945561D01*
X5011269Y4945538D01*
X5011254Y4945511D01*
X5011240Y4945480D01*
X5011231Y4945441D01*
X5011228Y4945398D01*
Y4945392D01*
Y4945380D01*
X5011231Y4945363D01*
X5011237Y4945340D01*
X5011242Y4945314D01*
X5011254Y4945287D01*
X5011269Y4945258D01*
X5011289Y4945235D01*
X5011292Y4945232D01*
X5011301Y4945226D01*
X5011312Y4945214D01*
X5011333Y4945203D01*
X5011356Y4945194D01*
X5011382Y4945182D01*
X5011417Y4945177D01*
X5011452Y4945174D01*
X5011469D01*
X5011487Y4945177D01*
X5011510Y4945182D01*
X5011536Y4945191D01*
X5011565Y4945203D01*
X5011594Y4945221D01*
X5011621Y4945244D01*
X5011624Y4945247D01*
X5011632Y4945255D01*
X5011644Y4945273D01*
X5011658Y4945296D01*
X5011673Y4945322D01*
X5011685Y4945357D01*
X5011696Y4945398D01*
X5011705Y4945444D01*
X5012060Y4945386D01*
Y4945383D01*
X5012057Y4945377D01*
Y4945369D01*
X5012054Y4945354D01*
X5012046Y4945322D01*
X5012034Y4945279D01*
X5012016Y4945232D01*
X5011999Y4945182D01*
X5011976Y4945136D01*
X5011950Y4945092D01*
X5011946Y4945087D01*
X5011935Y4945075D01*
X5011917Y4945055D01*
X5011894Y4945028D01*
X5011865Y4945002D01*
X5011830Y4944973D01*
X5011787Y4944944D01*
X5011740Y4944918D01*
X5011737D01*
X5011734Y4944915D01*
X5011717Y4944909D01*
X5011687Y4944897D01*
X5011653Y4944886D01*
X5011609Y4944874D01*
X5011557Y4944862D01*
X5011501Y4944857D01*
X5011440Y4944854D01*
X5011414D01*
X5011394Y4944857D01*
X5011367Y4944860D01*
X5011341Y4944862D01*
X5011309Y4944868D01*
X5011277Y4944877D01*
X5011205Y4944897D01*
X5011167Y4944912D01*
X5011126Y4944932D01*
X5011088Y4944953D01*
X5011053Y4944976D01*
X5011015Y4945005D01*
X5010983Y4945037D01*
X5010981Y4945040D01*
X5010978Y4945043D01*
X5010969Y4945052D01*
X5010960Y4945063D01*
X5010937Y4945092D01*
X5010910Y4945133D01*
X5010884Y4945182D01*
X5010864Y4945241D01*
X5010847Y4945305D01*
X5010844Y4945337D01*
X5010841Y4945372D01*
Y4945375D01*
Y4945383D01*
X5010844Y4945398D01*
X5010847Y4945415D01*
X5010849Y4945439D01*
X5010855Y4945465D01*
X5010864Y4945494D01*
X5010876Y4945526D01*
X5010893Y4945558D01*
X5010910Y4945593D01*
X5010934Y4945628D01*
X5010963Y4945663D01*
X5010998Y4945698D01*
X5011036Y4945732D01*
X5011079Y4945765D01*
X5011132Y4945797D01*
X5011129D01*
X5011123Y4945800D01*
X5011114D01*
X5011103Y4945805D01*
X5011071Y4945814D01*
X5011033Y4945832D01*
X5010989Y4945855D01*
X5010942Y4945884D01*
X5010896Y4945922D01*
X5010855Y4945966D01*
X5010849Y4945971D01*
X5010838Y4945988D01*
X5010823Y4946015D01*
X5010803Y4946053D01*
X5010783Y4946096D01*
X5010768Y4946152D01*
X5010756Y4946210D01*
X5010751Y4946277D01*
Y4946280D01*
Y4946288D01*
Y4946303D01*
X5010754Y4946320D01*
X5010756Y4946344D01*
X5010762Y4946370D01*
X5010768Y4946402D01*
X5010774Y4946434D01*
X5010797Y4946504D01*
X5010815Y4946542D01*
X5010832Y4946582D01*
X5010855Y4946620D01*
X5010881Y4946658D01*
X5010910Y4946696D01*
X5010946Y4946731D01*
X5010949Y4946733D01*
X5010954Y4946740D01*
X5010966Y4946748D01*
X5010981Y4946760D01*
X5011001Y4946774D01*
X5011021Y4946789D01*
X5011050Y4946806D01*
X5011079Y4946824D01*
X5011111Y4946841D01*
X5011149Y4946859D01*
X5011190Y4946873D01*
X5011231Y4946888D01*
X5011277Y4946899D01*
X5011324Y4946908D01*
X5011376Y4946914D01*
X5011428Y4946917D01*
X5011455D01*
X5011475Y4946914D01*
D02*
G37*
G36*
X5010535Y4945808D02*
X5010532Y4945805D01*
X5010527Y4945800D01*
X5010518Y4945791D01*
X5010503Y4945779D01*
X5010489Y4945765D01*
X5010468Y4945750D01*
X5010445Y4945732D01*
X5010419Y4945715D01*
X5010361Y4945680D01*
X5010291Y4945651D01*
X5010256Y4945639D01*
X5010215Y4945631D01*
X5010175Y4945625D01*
X5010131Y4945622D01*
X5010099D01*
X5010078Y4945625D01*
X5010052D01*
X5010026Y4945628D01*
X5009971Y4945639D01*
X5009968D01*
X5009956Y4945642D01*
X5009939Y4945648D01*
X5009909Y4945657D01*
X5009875Y4945668D01*
X5009828Y4945686D01*
X5009773Y4945707D01*
X5009709Y4945732D01*
X5009706D01*
X5009700Y4945736D01*
X5009691Y4945738D01*
X5009677Y4945744D01*
X5009645Y4945756D01*
X5009607Y4945768D01*
X5009563Y4945782D01*
X5009520Y4945794D01*
X5009482Y4945802D01*
X5009453Y4945805D01*
X5009438D01*
X5009423Y4945802D01*
X5009403Y4945800D01*
X5009377Y4945794D01*
X5009348Y4945788D01*
X5009313Y4945776D01*
X5009278Y4945762D01*
X5009272Y4945759D01*
X5009261Y4945753D01*
X5009240Y4945741D01*
X5009214Y4945727D01*
X5009185Y4945704D01*
X5009150Y4945680D01*
X5009115Y4945648D01*
X5009077Y4945613D01*
Y4945983D01*
X5009080Y4945986D01*
X5009089Y4945995D01*
X5009103Y4946006D01*
X5009124Y4946024D01*
X5009150Y4946044D01*
X5009179Y4946064D01*
X5009214Y4946085D01*
X5009255Y4946108D01*
X5009261Y4946111D01*
X5009275Y4946117D01*
X5009298Y4946125D01*
X5009328Y4946134D01*
X5009362Y4946146D01*
X5009403Y4946154D01*
X5009444Y4946160D01*
X5009491Y4946163D01*
X5009514D01*
X5009531Y4946160D01*
X5009552D01*
X5009575Y4946157D01*
X5009624Y4946149D01*
X5009627D01*
X5009636Y4946146D01*
X5009653Y4946140D01*
X5009674Y4946131D01*
X5009703Y4946122D01*
X5009738Y4946108D01*
X5009782Y4946093D01*
X5009831Y4946073D01*
X5009834D01*
X5009840Y4946070D01*
X5009851Y4946064D01*
X5009866Y4946059D01*
X5009883Y4946053D01*
X5009904Y4946044D01*
X5009950Y4946027D01*
X5010003Y4946009D01*
X5010058Y4945995D01*
X5010113Y4945983D01*
X5010163Y4945980D01*
X5010180D01*
X5010195Y4945983D01*
X5010212Y4945986D01*
X5010233Y4945988D01*
X5010282Y4946003D01*
X5010337Y4946027D01*
X5010369Y4946041D01*
X5010402Y4946059D01*
X5010434Y4946079D01*
X5010468Y4946105D01*
X5010500Y4946134D01*
X5010535Y4946166D01*
Y4945808D01*
D02*
G37*
G36*
X5014019Y4944865D02*
X5013215D01*
X5013192Y4944868D01*
X5013137Y4944871D01*
X5013076Y4944874D01*
X5013012Y4944883D01*
X5012951Y4944892D01*
X5012895Y4944906D01*
X5012892D01*
X5012886Y4944909D01*
X5012878Y4944912D01*
X5012866Y4944915D01*
X5012831Y4944930D01*
X5012791Y4944950D01*
X5012744Y4944976D01*
X5012691Y4945008D01*
X5012642Y4945046D01*
X5012593Y4945092D01*
X5012590D01*
X5012587Y4945098D01*
X5012572Y4945116D01*
X5012549Y4945145D01*
X5012523Y4945182D01*
X5012491Y4945229D01*
X5012459Y4945284D01*
X5012427Y4945348D01*
X5012400Y4945418D01*
Y4945421D01*
X5012398Y4945427D01*
X5012395Y4945439D01*
X5012389Y4945453D01*
X5012386Y4945471D01*
X5012380Y4945494D01*
X5012374Y4945520D01*
X5012366Y4945549D01*
X5012360Y4945581D01*
X5012354Y4945619D01*
X5012348Y4945657D01*
X5012345Y4945700D01*
X5012336Y4945791D01*
X5012334Y4945893D01*
Y4945895D01*
Y4945904D01*
Y4945916D01*
Y4945934D01*
X5012336Y4945956D01*
Y4945980D01*
X5012339Y4946009D01*
X5012342Y4946041D01*
X5012348Y4946108D01*
X5012360Y4946178D01*
X5012377Y4946251D01*
X5012398Y4946320D01*
Y4946323D01*
X5012400Y4946329D01*
X5012407Y4946341D01*
X5012412Y4946358D01*
X5012418Y4946376D01*
X5012429Y4946396D01*
X5012453Y4946449D01*
X5012482Y4946504D01*
X5012520Y4946565D01*
X5012563Y4946623D01*
X5012613Y4946678D01*
X5012619Y4946684D01*
X5012633Y4946696D01*
X5012657Y4946713D01*
X5012688Y4946737D01*
X5012729Y4946763D01*
X5012776Y4946789D01*
X5012834Y4946815D01*
X5012898Y4946838D01*
X5012901D01*
X5012904Y4946841D01*
X5012913D01*
X5012922Y4946844D01*
X5012954Y4946850D01*
X5012994Y4946859D01*
X5013044Y4946867D01*
X5013105Y4946873D01*
X5013177Y4946876D01*
X5013256Y4946879D01*
X5014019D01*
Y4944865D01*
D02*
G37*
G36*
X5063726Y4951613D02*
X5063733Y4951620D01*
X5063769Y4951628D01*
X5063820Y4951649D01*
X5063886Y4951679D01*
X5063966Y4951708D01*
X5064061Y4951752D01*
X5064170Y4951802D01*
X5064287Y4951861D01*
X5064411Y4951926D01*
X5064535Y4951999D01*
X5064673Y4952080D01*
X5064804Y4952167D01*
X5064943Y4952269D01*
X5065074Y4952371D01*
X5065205Y4952481D01*
X5065329Y4952597D01*
X5065337Y4952605D01*
X5065358Y4952626D01*
X5065388Y4952663D01*
X5065431Y4952714D01*
X5065482Y4952779D01*
X5065541Y4952852D01*
X5065606Y4952940D01*
X5065679Y4953035D01*
X5065745Y4953144D01*
X5065818Y4953268D01*
X5065891Y4953392D01*
X5065956Y4953530D01*
X5066022Y4953676D01*
X5066087Y4953836D01*
X5066138Y4953997D01*
X5066182Y4954165D01*
X5066306D01*
Y4954143D01*
X5066314Y4954113D01*
Y4954077D01*
X5066321Y4954033D01*
X5066335Y4953982D01*
X5066365Y4953866D01*
X5066415Y4953749D01*
X5066488Y4953632D01*
X5066583Y4953530D01*
X5066642Y4953494D01*
X5066707Y4953457D01*
X5066700Y4953450D01*
X5066678Y4953421D01*
X5066642Y4953370D01*
X5066590Y4953312D01*
X5066532Y4953239D01*
X5066459Y4953151D01*
X5066379Y4953056D01*
X5066284Y4952954D01*
X5066182Y4952845D01*
X5066073Y4952728D01*
X5065949Y4952612D01*
X5065825Y4952495D01*
X5065555Y4952276D01*
X5065409Y4952167D01*
X5065264Y4952072D01*
X5065257Y4952065D01*
X5065227Y4952050D01*
X5065184Y4952029D01*
X5065125Y4951992D01*
X5065060Y4951956D01*
X5064972Y4951912D01*
X5064877Y4951861D01*
X5064775Y4951810D01*
X5064659Y4951759D01*
X5064542Y4951708D01*
X5064280Y4951606D01*
X5064003Y4951525D01*
X5063864Y4951489D01*
X5063726Y4951460D01*
Y4951241D01*
X5063740D01*
X5063784Y4951234D01*
X5063850Y4951220D01*
X5063937Y4951205D01*
X5064046Y4951176D01*
X5064170Y4951146D01*
X5064301Y4951103D01*
X5064455Y4951059D01*
X5064608Y4951001D01*
X5064768Y4950935D01*
X5064928Y4950862D01*
X5065089Y4950775D01*
X5065242Y4950680D01*
X5065395Y4950571D01*
X5065533Y4950454D01*
X5065665Y4950323D01*
X5065672Y4950315D01*
X5065694Y4950286D01*
X5065730Y4950250D01*
X5065774Y4950184D01*
X5065825Y4950111D01*
X5065891Y4950017D01*
X5065963Y4949915D01*
X5066044Y4949791D01*
X5066124Y4949652D01*
X5066219Y4949499D01*
X5066306Y4949324D01*
X5066401Y4949142D01*
X5066496Y4948945D01*
X5066583Y4948726D01*
X5066678Y4948500D01*
X5066765Y4948260D01*
X5066642Y4948165D01*
X5066634Y4948180D01*
X5066619Y4948216D01*
X5066590Y4948281D01*
X5066554Y4948362D01*
X5066510Y4948464D01*
X5066452Y4948581D01*
X5066386Y4948712D01*
X5066314Y4948850D01*
X5066233Y4948996D01*
X5066146Y4949142D01*
X5065949Y4949448D01*
X5065840Y4949601D01*
X5065723Y4949747D01*
X5065606Y4949885D01*
X5065482Y4950009D01*
X5065475Y4950017D01*
X5065453Y4950039D01*
X5065409Y4950068D01*
X5065358Y4950111D01*
X5065293Y4950163D01*
X5065213Y4950221D01*
X5065118Y4950286D01*
X5065009Y4950352D01*
X5064885Y4950425D01*
X5064753Y4950491D01*
X5064608Y4950556D01*
X5064455Y4950621D01*
X5064287Y4950680D01*
X5064112Y4950731D01*
X5063923Y4950775D01*
X5063726Y4950811D01*
Y4949951D01*
X5063733Y4949871D01*
X5063740Y4949776D01*
X5063747Y4949659D01*
X5063762Y4949535D01*
X5063791Y4949404D01*
X5063820Y4949273D01*
X5063543Y4948996D01*
Y4950840D01*
X5063536D01*
X5063499D01*
X5063456Y4950848D01*
X5063383D01*
X5063303Y4950855D01*
X5063201Y4950862D01*
X5063084Y4950869D01*
X5062953Y4950877D01*
X5062814D01*
X5062654Y4950884D01*
X5062494Y4950891D01*
X5062311Y4950899D01*
X5062129D01*
X5061932Y4950906D01*
X5061728D01*
X5061517D01*
Y4950505D01*
X5061524Y4950425D01*
Y4950330D01*
X5061538Y4950213D01*
X5061553Y4950090D01*
X5061575Y4949958D01*
X5061604Y4949827D01*
X5061327Y4949550D01*
Y4950906D01*
X5061312D01*
X5061276D01*
X5061218D01*
X5061138D01*
X5061036D01*
X5060926D01*
X5060802D01*
X5060664D01*
X5060379Y4950899D01*
X5060088Y4950891D01*
X5059942D01*
X5059803Y4950884D01*
X5059672D01*
X5059549Y4950877D01*
X5059855Y4951671D01*
X5060095Y4951336D01*
X5061327D01*
Y4952597D01*
X5060992Y4952845D01*
X5061393Y4953363D01*
X5061633Y4953086D01*
X5063543D01*
Y4953210D01*
X5063142Y4953611D01*
X5063726Y4954194D01*
Y4951613D01*
D02*
G37*
G36*
X5064469Y4950009D02*
X5064476Y4950002D01*
X5064484Y4949980D01*
X5064491Y4949951D01*
X5064520Y4949871D01*
X5064557Y4949769D01*
X5064593Y4949645D01*
X5064644Y4949499D01*
X5064702Y4949346D01*
X5064761Y4949178D01*
X5064885Y4948828D01*
X5064950Y4948653D01*
X5065009Y4948486D01*
X5065074Y4948325D01*
X5065133Y4948172D01*
X5065184Y4948041D01*
X5065235Y4947924D01*
Y4947917D01*
X5065242Y4947902D01*
X5065257Y4947873D01*
X5065278Y4947837D01*
X5065322Y4947749D01*
X5065380Y4947640D01*
X5065439Y4947531D01*
X5065512Y4947429D01*
X5065541Y4947385D01*
X5065577Y4947348D01*
X5065606Y4947319D01*
X5065636Y4947305D01*
X5064987Y4946969D01*
Y4946991D01*
X5064980Y4947013D01*
X5064972Y4947049D01*
X5064965Y4947093D01*
X5064957Y4947152D01*
X5064950Y4947210D01*
X5064936Y4947283D01*
X5064921Y4947370D01*
X5064906Y4947458D01*
X5064892Y4947560D01*
X5064870Y4947669D01*
X5064848Y4947793D01*
X5064826Y4947917D01*
X5064804Y4948056D01*
X5064775Y4948201D01*
X5062129D01*
Y4947888D01*
X5062136Y4947808D01*
X5062144Y4947713D01*
X5062151Y4947596D01*
X5062165Y4947472D01*
X5062194Y4947348D01*
X5062224Y4947217D01*
X5061947Y4946940D01*
Y4948201D01*
X5061940D01*
X5061925D01*
X5061903D01*
X5061867D01*
X5061830D01*
X5061779D01*
X5061662D01*
X5061524D01*
X5061364D01*
X5061189D01*
X5060999Y4948194D01*
X5060613D01*
X5060416Y4948187D01*
X5060234D01*
X5060051Y4948180D01*
X5059891D01*
X5059753Y4948172D01*
X5059636Y4948165D01*
X5059978Y4948938D01*
X5060219Y4948632D01*
X5061947D01*
Y4949062D01*
X5061575Y4949426D01*
X5062129Y4949980D01*
Y4948632D01*
X5064651D01*
X5064345Y4949980D01*
X5064469Y4950017D01*
Y4950009D01*
D02*
G37*
G36*
X5060773Y4944666D02*
X5060780D01*
X5060788D01*
X5060831D01*
X5060897D01*
X5060977Y4944673D01*
X5061065D01*
X5061167Y4944680D01*
X5061261Y4944688D01*
X5061356Y4944695D01*
X5061517Y4944265D01*
X5060773D01*
Y4943215D01*
X5061356D01*
X5061575Y4942785D01*
X5061568D01*
X5061560D01*
X5061538D01*
X5061509Y4942792D01*
X5061436D01*
X5061334Y4942799D01*
X5061218Y4942807D01*
X5061079D01*
X5060933Y4942814D01*
X5060773D01*
Y4942049D01*
X5060839Y4941772D01*
X5060591Y4941524D01*
Y4942814D01*
X5060583D01*
X5060569D01*
X5060547D01*
X5060511D01*
X5060474D01*
X5060423D01*
X5060365D01*
X5060299D01*
X5060146Y4942807D01*
X5059971Y4942799D01*
X5059767Y4942792D01*
X5059549Y4942785D01*
X5059855Y4943463D01*
X5060037Y4943215D01*
X5060591D01*
Y4944265D01*
X5060583D01*
X5060569D01*
X5060540D01*
X5060503D01*
X5060452D01*
X5060394D01*
X5060328D01*
X5060255Y4944257D01*
X5060095D01*
X5059913Y4944250D01*
X5059716Y4944243D01*
X5059512Y4944228D01*
X5059855Y4944935D01*
X5060066Y4944666D01*
X5060591D01*
Y4945278D01*
X5060219Y4945650D01*
X5060773Y4946197D01*
Y4944666D01*
D02*
G37*
G36*
X5064804Y4944017D02*
X5064812Y4944024D01*
X5064826Y4944032D01*
X5064856Y4944053D01*
X5064892Y4944075D01*
X5064936Y4944112D01*
X5064987Y4944148D01*
X5065111Y4944250D01*
X5065257Y4944381D01*
X5065409Y4944527D01*
X5065562Y4944702D01*
X5065709Y4944892D01*
X5065716Y4944899D01*
X5065723Y4944913D01*
X5065745Y4944950D01*
X5065767Y4944986D01*
X5065796Y4945045D01*
X5065832Y4945103D01*
X5065869Y4945183D01*
X5065905Y4945264D01*
X5065942Y4945358D01*
X5065985Y4945460D01*
X5066022Y4945577D01*
X5066058Y4945701D01*
X5066087Y4945825D01*
X5066117Y4945963D01*
X5066138Y4946109D01*
X5066153Y4946262D01*
X5066270D01*
Y4946247D01*
X5066277Y4946226D01*
X5066284Y4946197D01*
X5066306Y4946124D01*
X5066343Y4946036D01*
X5066394Y4945942D01*
X5066467Y4945847D01*
X5066554Y4945759D01*
X5066671Y4945679D01*
X5066663Y4945664D01*
X5066649Y4945628D01*
X5066619Y4945562D01*
X5066576Y4945482D01*
X5066518Y4945380D01*
X5066452Y4945264D01*
X5066365Y4945139D01*
X5066262Y4945001D01*
X5066146Y4944855D01*
X5066014Y4944709D01*
X5065862Y4944556D01*
X5065686Y4944403D01*
X5065497Y4944257D01*
X5065285Y4944119D01*
X5065060Y4943988D01*
X5064804Y4943864D01*
Y4943740D01*
X5064812D01*
X5064826Y4943732D01*
X5064848Y4943725D01*
X5064877Y4943718D01*
X5064921Y4943696D01*
X5064965Y4943681D01*
X5065074Y4943631D01*
X5065213Y4943558D01*
X5065358Y4943470D01*
X5065526Y4943354D01*
X5065694Y4943222D01*
X5065869Y4943055D01*
X5066044Y4942872D01*
X5066124Y4942763D01*
X5066211Y4942654D01*
X5066291Y4942530D01*
X5066365Y4942406D01*
X5066438Y4942267D01*
X5066510Y4942122D01*
X5066569Y4941969D01*
X5066627Y4941808D01*
X5066678Y4941633D01*
X5066729Y4941451D01*
X5066765Y4941261D01*
X5066795Y4941064D01*
X5066707Y4941035D01*
Y4941050D01*
X5066692Y4941079D01*
X5066678Y4941130D01*
X5066663Y4941203D01*
X5066634Y4941283D01*
X5066605Y4941385D01*
X5066561Y4941494D01*
X5066518Y4941604D01*
X5066415Y4941852D01*
X5066284Y4942107D01*
X5066131Y4942355D01*
X5066044Y4942464D01*
X5065956Y4942566D01*
X5065949Y4942574D01*
X5065934Y4942588D01*
X5065905Y4942617D01*
X5065869Y4942654D01*
X5065818Y4942698D01*
X5065759Y4942741D01*
X5065694Y4942799D01*
X5065621Y4942858D01*
X5065541Y4942916D01*
X5065453Y4942982D01*
X5065257Y4943098D01*
X5065038Y4943215D01*
X5064804Y4943310D01*
Y4942194D01*
X5064812Y4942114D01*
X5064819Y4942019D01*
X5064826Y4941910D01*
X5064841Y4941786D01*
X5064870Y4941655D01*
X5064899Y4941524D01*
X5064622Y4941247D01*
Y4943339D01*
X5064615D01*
X5064608D01*
X5064564Y4943354D01*
X5064491Y4943361D01*
X5064389Y4943375D01*
X5064265Y4943390D01*
X5064112Y4943404D01*
X5063930Y4943419D01*
X5063726Y4943434D01*
Y4942661D01*
X5063973D01*
X5064156Y4942231D01*
X5064148D01*
X5064119D01*
X5064075D01*
X5064017Y4942238D01*
X5063944D01*
X5063864D01*
X5063769Y4942245D01*
X5063675D01*
X5063456Y4942253D01*
X5063223D01*
X5062997Y4942260D01*
X5062778D01*
X5062770D01*
X5062756D01*
X5062719D01*
X5062676D01*
X5062625D01*
X5062566D01*
X5062494D01*
X5062406D01*
X5062318Y4942253D01*
X5062217D01*
X5062107D01*
X5061998Y4942245D01*
X5061750Y4942238D01*
X5061480Y4942231D01*
X5061728Y4942661D01*
Y4944906D01*
X5061451Y4945154D01*
X5061823Y4945584D01*
X5062005Y4945337D01*
X5062012D01*
X5062020D01*
X5062041D01*
X5062071D01*
X5062151D01*
X5062253D01*
X5062377D01*
X5062515D01*
X5062669D01*
X5062829Y4945344D01*
X5063157D01*
X5063317Y4945351D01*
X5063470D01*
X5063609Y4945358D01*
X5063733D01*
X5063835Y4945366D01*
X5063915Y4945373D01*
X5064097Y4944935D01*
X5063726D01*
Y4943864D01*
X5063733D01*
X5063740D01*
X5063762D01*
X5063799Y4943856D01*
X5063835D01*
X5063879Y4943849D01*
X5063988Y4943842D01*
X5064119Y4943827D01*
X5064272Y4943813D01*
X5064440Y4943791D01*
X5064622Y4943769D01*
Y4945307D01*
X5064221Y4945708D01*
X5064804Y4946291D01*
Y4944017D01*
D02*
G37*
G36*
X5061546Y4940758D02*
X5062311D01*
X5062318Y4940765D01*
X5062326Y4940788D01*
X5062348Y4940824D01*
X5062370Y4940875D01*
X5062399Y4940926D01*
X5062435Y4940992D01*
X5062515Y4941137D01*
X5062610Y4941290D01*
X5062712Y4941444D01*
X5062763Y4941516D01*
X5062814Y4941575D01*
X5062865Y4941633D01*
X5062916Y4941677D01*
X5062931Y4941684D01*
X5062960Y4941706D01*
X5063018Y4941735D01*
X5063091Y4941764D01*
X5063179Y4941786D01*
X5063281D01*
X5063339Y4941779D01*
X5063398Y4941772D01*
X5063463Y4941750D01*
X5063529Y4941721D01*
X5063543Y4941713D01*
X5063572Y4941692D01*
X5063616Y4941655D01*
X5063638Y4941611D01*
X5063645Y4941589D01*
Y4941560D01*
X5063631Y4941531D01*
X5063609Y4941494D01*
X5063580Y4941465D01*
X5063529Y4941429D01*
X5063463Y4941393D01*
X5063375Y4941356D01*
X5063368D01*
X5063354Y4941349D01*
X5063325Y4941334D01*
X5063288Y4941320D01*
X5063244Y4941298D01*
X5063193Y4941276D01*
X5063077Y4941210D01*
X5062938Y4941123D01*
X5062793Y4941021D01*
X5062639Y4940897D01*
X5062501Y4940758D01*
X5062508D01*
X5062537D01*
X5062581D01*
X5062639D01*
X5062712D01*
X5062800D01*
X5062902D01*
X5063011D01*
X5063135D01*
X5063266D01*
X5063412D01*
X5063558D01*
X5063871D01*
X5064207Y4940765D01*
X5064557D01*
X5064899D01*
X5065242D01*
X5065570Y4940773D01*
X5065723D01*
X5065876D01*
X5066022D01*
X5066153Y4940780D01*
X5066277D01*
X5066394D01*
X5066496Y4940788D01*
X5066583D01*
X5066765Y4940328D01*
X5066751D01*
X5066714D01*
X5066649D01*
X5066561Y4940335D01*
X5066503D01*
X5066438D01*
X5066365D01*
X5066284D01*
X5066197D01*
X5066102Y4940343D01*
X5066000D01*
X5065883D01*
X5065767D01*
X5065636D01*
X5065497Y4940350D01*
X5065351D01*
X5065198D01*
X5065030D01*
X5064856D01*
X5064673D01*
X5064476Y4940357D01*
X5064272D01*
X5064061D01*
X5063835D01*
X5063602D01*
X5063354D01*
X5063099D01*
X5062836D01*
X5062851Y4940350D01*
X5062887Y4940335D01*
X5062946Y4940314D01*
X5063026Y4940277D01*
X5063120Y4940233D01*
X5063237Y4940175D01*
X5063361Y4940109D01*
X5063507Y4940036D01*
X5063660Y4939956D01*
X5063820Y4939862D01*
X5063988Y4939759D01*
X5064156Y4939643D01*
X5064338Y4939519D01*
X5064513Y4939388D01*
X5064688Y4939249D01*
X5064863Y4939096D01*
X5064804Y4939030D01*
X5064797D01*
X5064790Y4939045D01*
X5064768Y4939053D01*
X5064739Y4939074D01*
X5064695Y4939096D01*
X5064651Y4939118D01*
X5064600Y4939154D01*
X5064542Y4939183D01*
X5064404Y4939264D01*
X5064236Y4939351D01*
X5064046Y4939446D01*
X5063828Y4939548D01*
X5063594Y4939650D01*
X5063346Y4939759D01*
X5063077Y4939862D01*
X5062793Y4939964D01*
X5062494Y4940059D01*
X5062187Y4940153D01*
X5061874Y4940226D01*
X5061546Y4940292D01*
Y4939585D01*
X5061604Y4939307D01*
X5061356Y4939067D01*
Y4940357D01*
X5061349D01*
X5061342D01*
X5061298D01*
X5061225D01*
X5061138D01*
X5061021D01*
X5060897D01*
X5060759D01*
X5060613D01*
X5060307Y4940350D01*
X5060161D01*
X5060015Y4940343D01*
X5059876D01*
X5059753Y4940335D01*
X5059636D01*
X5059549Y4940328D01*
X5059855Y4941064D01*
X5060066Y4940758D01*
X5061356D01*
Y4941093D01*
X5060992Y4941465D01*
X5061546Y4942019D01*
Y4940758D01*
D02*
G37*
G36*
X5061910Y4937959D02*
X5061917D01*
X5061947D01*
X5061990D01*
X5062049D01*
X5062129D01*
X5062217D01*
X5062318Y4937952D01*
X5062428D01*
X5062552D01*
X5062690Y4937944D01*
X5062829D01*
X5062975D01*
X5063295Y4937930D01*
X5063623Y4937922D01*
X5063966Y4937908D01*
X5064301Y4937893D01*
X5064629Y4937879D01*
X5064943Y4937864D01*
X5065089Y4937849D01*
X5065227Y4937842D01*
X5065358Y4937828D01*
X5065475Y4937813D01*
X5065585Y4937798D01*
X5065679Y4937784D01*
X5065767Y4937769D01*
X5065832Y4937755D01*
X5065840D01*
X5065862Y4937748D01*
X5065891Y4937733D01*
X5065934Y4937718D01*
X5065993Y4937696D01*
X5066051Y4937660D01*
X5066117Y4937624D01*
X5066190Y4937580D01*
X5066262Y4937521D01*
X5066335Y4937463D01*
X5066408Y4937390D01*
X5066481Y4937303D01*
X5066547Y4937208D01*
X5066605Y4937099D01*
X5066663Y4936982D01*
X5066707Y4936851D01*
X5066700D01*
X5066692D01*
X5066649Y4936829D01*
X5066612Y4936814D01*
X5066576Y4936792D01*
X5066532Y4936763D01*
X5066488Y4936720D01*
X5066430Y4936669D01*
X5066379Y4936603D01*
X5066314Y4936530D01*
X5066255Y4936435D01*
X5066182Y4936326D01*
X5066117Y4936202D01*
X5066044Y4936056D01*
X5065971Y4935896D01*
X5065818Y4935925D01*
Y4935940D01*
X5065825Y4935969D01*
X5065840Y4936020D01*
X5065854Y4936093D01*
X5065869Y4936173D01*
X5065891Y4936267D01*
X5065905Y4936370D01*
X5065920Y4936472D01*
X5065956Y4936691D01*
X5065963Y4936792D01*
X5065971Y4936887D01*
Y4937055D01*
X5065956Y4937113D01*
X5065942Y4937157D01*
X5065934Y4937164D01*
X5065913Y4937186D01*
X5065862Y4937223D01*
X5065832Y4937237D01*
X5065789Y4937259D01*
X5065738Y4937281D01*
X5065679Y4937303D01*
X5065614Y4937325D01*
X5065533Y4937347D01*
X5065439Y4937368D01*
X5065337Y4937383D01*
X5065227Y4937405D01*
X5065096Y4937420D01*
X5065089D01*
X5065060Y4937427D01*
X5065009D01*
X5064943Y4937434D01*
X5064848Y4937441D01*
X5064732Y4937449D01*
X5064586Y4937456D01*
X5064506Y4937463D01*
X5064411Y4937471D01*
X5064316D01*
X5064207Y4937478D01*
X5064097Y4937485D01*
X5063973Y4937492D01*
X5063842D01*
X5063704Y4937500D01*
X5063558Y4937507D01*
X5063398Y4937514D01*
X5063230D01*
X5063055Y4937521D01*
X5062873Y4937529D01*
X5062676Y4937536D01*
X5062472Y4937543D01*
X5062253D01*
X5062027Y4937551D01*
X5061794Y4937558D01*
Y4936267D01*
X5061808D01*
X5061845D01*
X5061910Y4936260D01*
X5061990D01*
X5062093Y4936253D01*
X5062209Y4936246D01*
X5062348Y4936238D01*
X5062494Y4936224D01*
X5062646Y4936209D01*
X5062814Y4936187D01*
X5063171Y4936144D01*
X5063529Y4936086D01*
X5063886Y4936005D01*
X5063893D01*
X5063930Y4935991D01*
X5063973Y4935983D01*
X5064039Y4935962D01*
X5064119Y4935932D01*
X5064214Y4935903D01*
X5064316Y4935859D01*
X5064433Y4935815D01*
X5064557Y4935757D01*
X5064688Y4935699D01*
X5064819Y4935633D01*
X5064957Y4935553D01*
X5065096Y4935473D01*
X5065242Y4935378D01*
X5065373Y4935284D01*
X5065512Y4935174D01*
X5065519Y4935167D01*
X5065541Y4935145D01*
X5065577Y4935116D01*
X5065628Y4935065D01*
X5065694Y4935006D01*
X5065759Y4934933D01*
X5065840Y4934846D01*
X5065927Y4934751D01*
X5066022Y4934642D01*
X5066124Y4934525D01*
X5066226Y4934394D01*
X5066335Y4934256D01*
X5066445Y4934103D01*
X5066554Y4933942D01*
X5066663Y4933775D01*
X5066765Y4933592D01*
X5066671Y4933497D01*
X5066663Y4933512D01*
X5066642Y4933541D01*
X5066605Y4933592D01*
X5066554Y4933658D01*
X5066496Y4933738D01*
X5066423Y4933833D01*
X5066343Y4933935D01*
X5066248Y4934052D01*
X5066153Y4934168D01*
X5066044Y4934285D01*
X5065818Y4934525D01*
X5065694Y4934642D01*
X5065570Y4934759D01*
X5065446Y4934861D01*
X5065315Y4934955D01*
X5065308Y4934963D01*
X5065285Y4934977D01*
X5065242Y4934999D01*
X5065191Y4935036D01*
X5065125Y4935072D01*
X5065052Y4935116D01*
X5064957Y4935167D01*
X5064863Y4935218D01*
X5064753Y4935276D01*
X5064629Y4935334D01*
X5064506Y4935386D01*
X5064367Y4935444D01*
X5064075Y4935546D01*
X5063762Y4935633D01*
X5063755D01*
X5063726Y4935641D01*
X5063675Y4935655D01*
X5063609Y4935662D01*
X5063529Y4935685D01*
X5063427Y4935699D01*
X5063317Y4935721D01*
X5063193Y4935743D01*
X5063048Y4935757D01*
X5062902Y4935779D01*
X5062741Y4935801D01*
X5062566Y4935815D01*
X5062384Y4935838D01*
X5062194Y4935852D01*
X5061998Y4935859D01*
X5061794Y4935867D01*
Y4935313D01*
X5061852Y4934941D01*
X5061604Y4934700D01*
Y4935867D01*
X5061597D01*
X5061589D01*
X5061546D01*
X5061480D01*
X5061393D01*
X5061283D01*
X5061160D01*
X5061021D01*
X5060875D01*
X5060715Y4935859D01*
X5060555D01*
X5060226Y4935852D01*
X5060066D01*
X5059913Y4935845D01*
X5059767D01*
X5059636Y4935838D01*
X5059942Y4936479D01*
X5060161Y4936267D01*
X5061604D01*
Y4937500D01*
X5061327Y4937740D01*
X5061699Y4938207D01*
X5061910Y4937959D01*
D02*
G37*
G36*
X5060868Y4932302D02*
X5060875Y4932236D01*
X5060883Y4932156D01*
X5060890Y4932061D01*
X5060904Y4931959D01*
X5060933Y4931857D01*
X5060963Y4931748D01*
X5060686Y4931471D01*
Y4933680D01*
X5060314Y4934052D01*
X5060868Y4934605D01*
Y4932302D01*
D02*
G37*
G36*
X5062435Y4932972D02*
X5062807Y4933468D01*
X5062814Y4933454D01*
X5062836Y4933410D01*
X5062858Y4933381D01*
X5062887Y4933344D01*
X5062923Y4933301D01*
X5062967Y4933250D01*
X5063018Y4933199D01*
X5063077Y4933133D01*
X5063150Y4933067D01*
X5063237Y4932994D01*
X5063332Y4932914D01*
X5063441Y4932834D01*
X5063565Y4932747D01*
X5063704Y4932652D01*
X5063711Y4932645D01*
X5063740Y4932630D01*
X5063777Y4932601D01*
X5063828Y4932564D01*
X5063893Y4932521D01*
X5063973Y4932470D01*
X5064054Y4932411D01*
X5064141Y4932346D01*
X5064338Y4932200D01*
X5064542Y4932039D01*
X5064746Y4931879D01*
X5064928Y4931712D01*
X5064651Y4934146D01*
X5064644D01*
X5064622Y4934132D01*
X5064593Y4934117D01*
X5064549Y4934095D01*
X5064491Y4934066D01*
X5064425Y4934030D01*
X5064352Y4933993D01*
X5064280Y4933949D01*
X5064104Y4933855D01*
X5063908Y4933745D01*
X5063711Y4933621D01*
X5063514Y4933497D01*
X5063448Y4933592D01*
X5063456Y4933607D01*
X5063492Y4933636D01*
X5063543Y4933694D01*
X5063609Y4933760D01*
X5063689Y4933840D01*
X5063777Y4933935D01*
X5063879Y4934030D01*
X5063988Y4934139D01*
X5064207Y4934336D01*
X5064323Y4934438D01*
X5064433Y4934518D01*
X5064535Y4934598D01*
X5064629Y4934657D01*
X5064717Y4934700D01*
X5064790Y4934722D01*
X5064797D01*
X5064804D01*
X5064848Y4934729D01*
X5064914Y4934737D01*
X5064987Y4934729D01*
X5065074Y4934722D01*
X5065162Y4934700D01*
X5065249Y4934664D01*
X5065329Y4934605D01*
X5065337Y4934598D01*
X5065351Y4934576D01*
X5065373Y4934547D01*
X5065395Y4934504D01*
Y4934467D01*
X5065388Y4934423D01*
X5065373Y4934409D01*
X5065351Y4934387D01*
X5065322Y4934372D01*
X5065285Y4934357D01*
X5065278D01*
X5065242Y4934350D01*
X5065198Y4934336D01*
X5065140Y4934314D01*
X5065067Y4934292D01*
X5064987Y4934270D01*
X5064804Y4934204D01*
Y4934197D01*
X5064812Y4934183D01*
Y4934146D01*
X5064819Y4934110D01*
X5064833Y4934059D01*
X5064841Y4933993D01*
X5064856Y4933928D01*
X5064870Y4933847D01*
X5064906Y4933672D01*
X5064950Y4933475D01*
X5065001Y4933264D01*
X5065052Y4933038D01*
X5065103Y4932812D01*
X5065169Y4932586D01*
X5065227Y4932375D01*
X5065293Y4932170D01*
X5065366Y4931989D01*
X5065395Y4931908D01*
X5065431Y4931828D01*
X5065468Y4931762D01*
X5065504Y4931712D01*
X5065533Y4931660D01*
X5065570Y4931624D01*
X5064957Y4931281D01*
Y4931289D01*
X5064950Y4931296D01*
X5064943Y4931318D01*
X5064928Y4931340D01*
X5064906Y4931376D01*
X5064877Y4931420D01*
X5064841Y4931464D01*
X5064790Y4931514D01*
X5064732Y4931580D01*
X5064666Y4931638D01*
X5064579Y4931712D01*
X5064484Y4931792D01*
X5064374Y4931872D01*
X5064243Y4931959D01*
X5064097Y4932047D01*
X5063930Y4932141D01*
X5063923Y4932149D01*
X5063886Y4932163D01*
X5063842Y4932193D01*
X5063777Y4932229D01*
X5063696Y4932265D01*
X5063602Y4932317D01*
X5063499Y4932367D01*
X5063390Y4932418D01*
X5063150Y4932528D01*
X5062902Y4932637D01*
X5062661Y4932725D01*
X5062545Y4932761D01*
X5062435Y4932790D01*
Y4931806D01*
X5062501Y4931471D01*
X5062253Y4931223D01*
Y4934110D01*
X5061881Y4934481D01*
X5062435Y4935036D01*
Y4932972D01*
D02*
G37*
G36*
X5061794Y4929933D02*
X5061801Y4929925D01*
X5061823Y4929918D01*
X5061859Y4929896D01*
X5061910Y4929874D01*
X5061976Y4929845D01*
X5062049Y4929809D01*
X5062129Y4929765D01*
X5062224Y4929714D01*
X5062326Y4929663D01*
X5062442Y4929612D01*
X5062559Y4929554D01*
X5062683Y4929488D01*
X5062953Y4929364D01*
X5063237Y4929226D01*
X5063244Y4929233D01*
X5063259Y4929247D01*
X5063281Y4929269D01*
X5063317Y4929298D01*
X5063361Y4929335D01*
X5063412Y4929371D01*
X5063522Y4929466D01*
X5063652Y4929568D01*
X5063784Y4929670D01*
X5063923Y4929772D01*
X5064054Y4929852D01*
X5064068Y4929860D01*
X5064104Y4929882D01*
X5064163Y4929918D01*
X5064236Y4929955D01*
X5064323Y4929991D01*
X5064411Y4930027D01*
X5064498Y4930049D01*
X5064579Y4930056D01*
X5064586D01*
X5064615D01*
X5064651Y4930049D01*
X5064702Y4930042D01*
X5064768Y4930027D01*
X5064841Y4930006D01*
X5064921Y4929976D01*
X5065009Y4929933D01*
X5065016Y4929925D01*
X5065038Y4929911D01*
X5065052Y4929882D01*
X5065045Y4929845D01*
X5065038Y4929816D01*
X5065023Y4929794D01*
X5064994Y4929765D01*
X5064950Y4929728D01*
X5064899Y4929692D01*
X5064833Y4929655D01*
X5064753Y4929619D01*
X5064651Y4929575D01*
X5064644D01*
X5064622Y4929568D01*
X5064593Y4929554D01*
X5064549Y4929539D01*
X5064498Y4929517D01*
X5064440Y4929488D01*
X5064374Y4929459D01*
X5064294Y4929422D01*
X5064134Y4929342D01*
X5063951Y4929255D01*
X5063762Y4929153D01*
X5063572Y4929036D01*
X5063587Y4929029D01*
X5063616Y4929007D01*
X5063667Y4928978D01*
X5063740Y4928926D01*
X5063828Y4928868D01*
X5063923Y4928802D01*
X5064039Y4928722D01*
X5064163Y4928628D01*
X5064301Y4928533D01*
X5064440Y4928424D01*
X5064586Y4928307D01*
X5064739Y4928183D01*
X5065052Y4927913D01*
X5065358Y4927622D01*
X5065264Y4927534D01*
X5065249Y4927541D01*
X5065220Y4927571D01*
X5065162Y4927614D01*
X5065089Y4927673D01*
X5064994Y4927745D01*
X5064885Y4927826D01*
X5064761Y4927921D01*
X5064629Y4928015D01*
X5064484Y4928117D01*
X5064323Y4928219D01*
X5064163Y4928329D01*
X5063995Y4928431D01*
X5063645Y4928628D01*
X5063470Y4928715D01*
X5063295Y4928795D01*
X5063288Y4928788D01*
X5063266Y4928773D01*
X5063230Y4928752D01*
X5063171Y4928722D01*
X5063113Y4928679D01*
X5063033Y4928635D01*
X5062946Y4928577D01*
X5062843Y4928504D01*
X5062727Y4928431D01*
X5062610Y4928351D01*
X5062479Y4928256D01*
X5062333Y4928161D01*
X5062187Y4928052D01*
X5062034Y4927935D01*
X5061867Y4927819D01*
X5061699Y4927687D01*
X5061633Y4927745D01*
X5061641Y4927753D01*
X5061655Y4927768D01*
X5061684Y4927797D01*
X5061721Y4927840D01*
X5061765Y4927892D01*
X5061823Y4927950D01*
X5061896Y4928015D01*
X5061976Y4928096D01*
X5062063Y4928183D01*
X5062165Y4928278D01*
X5062268Y4928380D01*
X5062391Y4928489D01*
X5062515Y4928598D01*
X5062654Y4928722D01*
X5062800Y4928846D01*
X5062960Y4928978D01*
X5062946Y4928985D01*
X5062916Y4928999D01*
X5062865Y4929021D01*
X5062800Y4929050D01*
X5062712Y4929087D01*
X5062617Y4929123D01*
X5062501Y4929174D01*
X5062384Y4929218D01*
X5062253Y4929269D01*
X5062114Y4929327D01*
X5061816Y4929430D01*
X5061509Y4929539D01*
X5061203Y4929626D01*
X5061633Y4930173D01*
X5061794Y4929933D01*
D02*
G37*
G36*
X5066270Y4927468D02*
X5066547Y4927221D01*
X5066153Y4926827D01*
X5066000Y4927009D01*
X5065985D01*
X5065956D01*
X5065898D01*
X5065825D01*
X5065730D01*
X5065621D01*
X5065490D01*
X5065344D01*
X5065184D01*
X5065016D01*
X5064826D01*
X5064637D01*
X5064425D01*
X5064214D01*
X5063988D01*
X5063762D01*
X5063288Y4927002D01*
X5062793D01*
X5062304D01*
X5061808Y4926995D01*
X5061334D01*
X5061101D01*
X5060875Y4926987D01*
X5060664D01*
X5060452D01*
X5060255Y4926980D01*
X5060066D01*
X5060343Y4927410D01*
Y4929626D01*
X5059978Y4929991D01*
X5060532Y4930487D01*
Y4927410D01*
X5066087D01*
Y4929655D01*
X5065694Y4930056D01*
X5066270Y4930574D01*
Y4927468D01*
D02*
G37*
G36*
X5063638Y4926550D02*
X5063652D01*
X5063696Y4926543D01*
X5063762Y4926535D01*
X5063850Y4926528D01*
X5063951Y4926514D01*
X5064068Y4926499D01*
X5064199Y4926477D01*
X5064345Y4926463D01*
X5064637Y4926426D01*
X5064928Y4926382D01*
X5065067Y4926360D01*
X5065198Y4926339D01*
X5065308Y4926324D01*
X5065409Y4926302D01*
X5065417D01*
X5065431Y4926295D01*
X5065453D01*
X5065490Y4926287D01*
X5065533Y4926273D01*
X5065577Y4926258D01*
X5065694Y4926229D01*
X5065825Y4926186D01*
X5065971Y4926134D01*
X5066117Y4926076D01*
X5066262Y4926003D01*
X5066270D01*
X5066277Y4925996D01*
X5066321Y4925967D01*
X5066386Y4925909D01*
X5066467Y4925835D01*
X5066503Y4925785D01*
X5066547Y4925726D01*
X5066583Y4925661D01*
X5066619Y4925595D01*
X5066656Y4925515D01*
X5066685Y4925427D01*
X5066714Y4925325D01*
X5066736Y4925223D01*
X5066729D01*
X5066722D01*
X5066700D01*
X5066671Y4925216D01*
X5066590Y4925194D01*
X5066547Y4925172D01*
X5066496Y4925143D01*
X5066438Y4925106D01*
X5066379Y4925063D01*
X5066321Y4925005D01*
X5066255Y4924939D01*
X5066190Y4924852D01*
X5066131Y4924757D01*
X5066066Y4924648D01*
X5066000Y4924516D01*
X5065883Y4924545D01*
Y4924553D01*
X5065891Y4924567D01*
X5065898Y4924596D01*
X5065905Y4924640D01*
X5065920Y4924684D01*
X5065934Y4924735D01*
X5065963Y4924859D01*
X5065993Y4924997D01*
X5066022Y4925136D01*
X5066051Y4925274D01*
X5066073Y4925391D01*
Y4925442D01*
X5066058Y4925493D01*
X5066022Y4925558D01*
X5066000Y4925595D01*
X5065963Y4925631D01*
X5065927Y4925668D01*
X5065876Y4925705D01*
X5065810Y4925748D01*
X5065738Y4925777D01*
X5065650Y4925814D01*
X5065555Y4925843D01*
X5065548D01*
X5065526Y4925850D01*
X5065490Y4925858D01*
X5065446Y4925872D01*
X5065380Y4925887D01*
X5065300Y4925901D01*
X5065205Y4925916D01*
X5065089Y4925938D01*
X5064957Y4925960D01*
X5064812Y4925989D01*
X5064651Y4926011D01*
X5064469Y4926040D01*
X5064265Y4926062D01*
X5064046Y4926091D01*
X5063806Y4926120D01*
X5063543Y4926149D01*
Y4924392D01*
X5063791Y4924152D01*
X5063419Y4923780D01*
X5063266Y4923999D01*
X5063252D01*
X5063237Y4924006D01*
X5063208D01*
X5063179Y4924013D01*
X5063135Y4924020D01*
X5063091Y4924028D01*
X5063033Y4924035D01*
X5062967Y4924042D01*
X5062887Y4924050D01*
X5062807Y4924064D01*
X5062712Y4924072D01*
X5062603Y4924086D01*
X5062486Y4924093D01*
X5062362Y4924108D01*
X5062224Y4924115D01*
X5062217D01*
X5062187D01*
X5062151Y4924123D01*
X5062093D01*
X5062027Y4924130D01*
X5061947Y4924137D01*
X5061859Y4924144D01*
X5061757Y4924152D01*
X5061546Y4924159D01*
X5061312Y4924173D01*
X5061072Y4924181D01*
X5060839D01*
X5061145Y4924822D01*
X5061356Y4924611D01*
X5063361Y4924363D01*
Y4925413D01*
X5060409Y4925690D01*
Y4924480D01*
X5060416Y4924400D01*
Y4924305D01*
X5060431Y4924195D01*
X5060445Y4924072D01*
X5060467Y4923940D01*
X5060496Y4923809D01*
X5060219Y4923532D01*
Y4925653D01*
X5059942Y4925872D01*
X5060314Y4926360D01*
X5060496Y4926083D01*
X5063361Y4925806D01*
Y4926083D01*
X5063048Y4926302D01*
X5063419Y4926791D01*
X5063638Y4926550D01*
D02*
G37*
G36*
X5064528Y4925799D02*
X5064535Y4925785D01*
X5064549Y4925755D01*
X5064564Y4925719D01*
X5064579Y4925668D01*
X5064600Y4925610D01*
X5064629Y4925544D01*
X5064659Y4925471D01*
X5064688Y4925384D01*
X5064732Y4925289D01*
X5064768Y4925187D01*
X5064812Y4925077D01*
X5064863Y4924953D01*
X5064914Y4924829D01*
X5065023Y4924560D01*
Y4924553D01*
X5065038Y4924531D01*
X5065052Y4924487D01*
X5065074Y4924443D01*
X5065096Y4924385D01*
X5065133Y4924319D01*
X5065198Y4924181D01*
X5065278Y4924035D01*
X5065315Y4923962D01*
X5065358Y4923904D01*
X5065402Y4923845D01*
X5065439Y4923802D01*
X5065475Y4923772D01*
X5065512Y4923751D01*
X5064957Y4923408D01*
Y4923415D01*
X5064950Y4923444D01*
Y4923481D01*
X5064943Y4923547D01*
X5064928Y4923619D01*
X5064914Y4923721D01*
X5064892Y4923831D01*
X5064870Y4923969D01*
X5064841Y4924115D01*
X5064804Y4924290D01*
X5064761Y4924480D01*
X5064710Y4924691D01*
X5064651Y4924924D01*
X5064586Y4925180D01*
X5064513Y4925457D01*
X5064433Y4925748D01*
X5064528Y4925806D01*
Y4925799D01*
D02*
G37*
G36*
X5065927Y4922694D02*
X5065971Y4922672D01*
X5066029Y4922635D01*
X5066095Y4922584D01*
X5066168Y4922526D01*
X5066233Y4922460D01*
X5066284Y4922387D01*
X5066299Y4922351D01*
X5066314Y4922314D01*
Y4922307D01*
X5066321Y4922278D01*
X5066328Y4922242D01*
X5066335Y4922190D01*
X5066350Y4922132D01*
X5066357Y4922074D01*
X5066365Y4921936D01*
Y4921236D01*
X5066357Y4921207D01*
X5066335Y4921126D01*
X5066306Y4921032D01*
X5066248Y4920929D01*
X5066211Y4920886D01*
X5066161Y4920849D01*
X5066109Y4920820D01*
X5066044Y4920791D01*
X5065971Y4920776D01*
X5065883Y4920769D01*
X5060562D01*
Y4919318D01*
X5063237D01*
X5063244D01*
X5063266D01*
X5063295D01*
X5063339D01*
X5063390Y4919311D01*
X5063456Y4919304D01*
X5063529D01*
X5063609Y4919289D01*
X5063704Y4919282D01*
X5063799Y4919267D01*
X5064017Y4919231D01*
X5064265Y4919173D01*
X5064520Y4919107D01*
X5064797Y4919012D01*
X5065081Y4918895D01*
X5065373Y4918757D01*
X5065519Y4918677D01*
X5065657Y4918589D01*
X5065803Y4918494D01*
X5065942Y4918393D01*
X5066080Y4918283D01*
X5066211Y4918166D01*
X5066343Y4918035D01*
X5066474Y4917904D01*
X5066590Y4917751D01*
X5066707Y4917598D01*
X5066612Y4917503D01*
X5066605Y4917510D01*
X5066598Y4917518D01*
X5066554Y4917561D01*
X5066481Y4917635D01*
X5066386Y4917722D01*
X5066255Y4917824D01*
X5066102Y4917941D01*
X5065927Y4918064D01*
X5065723Y4918196D01*
X5065490Y4918327D01*
X5065235Y4918451D01*
X5064957Y4918568D01*
X5064659Y4918670D01*
X5064338Y4918757D01*
X5063988Y4918830D01*
X5063623Y4918874D01*
X5063434Y4918881D01*
X5063237Y4918888D01*
X5061757D01*
X5061750D01*
X5061721D01*
X5061677D01*
X5061612D01*
X5061538D01*
X5061451D01*
X5061349D01*
X5061232D01*
X5061108Y4918881D01*
X5060977D01*
X5060839D01*
X5060693Y4918874D01*
X5060387Y4918866D01*
X5060066Y4918859D01*
X5060372Y4919318D01*
Y4920732D01*
X5060066Y4921009D01*
X5060496Y4921505D01*
X5060686Y4921199D01*
X5065694D01*
X5065709D01*
X5065745Y4921207D01*
X5065789Y4921214D01*
X5065847Y4921236D01*
X5065905Y4921272D01*
X5065949Y4921330D01*
X5065985Y4921403D01*
X5066000Y4921505D01*
Y4921877D01*
X5065993Y4921899D01*
X5065985Y4921921D01*
X5065971Y4921957D01*
X5065942Y4921994D01*
X5065898Y4922030D01*
X5065840Y4922059D01*
X5065759Y4922089D01*
X5065745D01*
X5065730Y4922096D01*
X5065709D01*
X5065672Y4922103D01*
X5065636Y4922110D01*
X5065585Y4922118D01*
X5065526Y4922125D01*
X5065461Y4922132D01*
X5065380Y4922140D01*
X5065293Y4922147D01*
X5065184Y4922154D01*
X5065074Y4922161D01*
X5064943Y4922169D01*
X5064804Y4922176D01*
X5064651Y4922183D01*
Y4922337D01*
X5064659D01*
X5064680D01*
X5064717D01*
X5064761D01*
X5064819D01*
X5064877D01*
X5065016Y4922344D01*
X5065169Y4922351D01*
X5065322Y4922358D01*
X5065453Y4922373D01*
X5065512Y4922387D01*
X5065562Y4922395D01*
X5065570D01*
X5065599Y4922409D01*
X5065643Y4922431D01*
X5065694Y4922460D01*
X5065745Y4922497D01*
X5065803Y4922555D01*
X5065862Y4922621D01*
X5065913Y4922701D01*
X5065920D01*
X5065927Y4922694D01*
D02*
G37*
G36*
X5061699Y4917263D02*
X5062530D01*
Y4917270D01*
X5062545Y4917292D01*
X5062559Y4917336D01*
X5062574Y4917379D01*
X5062603Y4917445D01*
X5062625Y4917510D01*
X5062690Y4917664D01*
X5062763Y4917831D01*
X5062843Y4917999D01*
X5062916Y4918152D01*
X5062953Y4918217D01*
X5062989Y4918276D01*
X5062997Y4918290D01*
X5063026Y4918320D01*
X5063070Y4918356D01*
X5063128Y4918400D01*
X5063208Y4918436D01*
X5063310Y4918465D01*
X5063434D01*
X5063499Y4918458D01*
X5063572Y4918444D01*
X5063580D01*
X5063587Y4918436D01*
X5063631Y4918422D01*
X5063675Y4918393D01*
X5063718Y4918356D01*
X5063733Y4918327D01*
X5063740Y4918305D01*
X5063733Y4918269D01*
X5063726Y4918232D01*
X5063696Y4918196D01*
X5063660Y4918152D01*
X5063602Y4918108D01*
X5063529Y4918057D01*
X5063522D01*
X5063507Y4918043D01*
X5063485Y4918028D01*
X5063456Y4918006D01*
X5063412Y4917977D01*
X5063368Y4917941D01*
X5063259Y4917853D01*
X5063128Y4917744D01*
X5062982Y4917605D01*
X5062836Y4917445D01*
X5062683Y4917263D01*
X5062690D01*
X5062719D01*
X5062763D01*
X5062822D01*
X5062902D01*
X5062989D01*
X5063091D01*
X5063201D01*
X5063325D01*
X5063456D01*
X5063602D01*
X5063747D01*
X5064061D01*
X5064396Y4917270D01*
X5064739D01*
X5065074D01*
X5065402D01*
X5065716Y4917277D01*
X5065862D01*
X5066000D01*
X5066131D01*
X5066248Y4917284D01*
X5066357D01*
X5066459D01*
X5066539Y4917292D01*
X5066612D01*
X5066824Y4916796D01*
X5066816D01*
X5066809D01*
X5066787D01*
X5066758D01*
X5066729D01*
X5066685D01*
X5066634Y4916803D01*
X5066576D01*
X5066510D01*
X5066438D01*
X5066357D01*
X5066270Y4916811D01*
X5066080D01*
X5065854Y4916818D01*
X5065599D01*
X5065322D01*
X5065016Y4916825D01*
X5064680D01*
X5064316Y4916832D01*
X5063930D01*
X5063522D01*
X5063084D01*
X5063099Y4916825D01*
X5063142Y4916811D01*
X5063208Y4916781D01*
X5063303Y4916745D01*
X5063412Y4916694D01*
X5063543Y4916636D01*
X5063689Y4916570D01*
X5063850Y4916490D01*
X5064024Y4916395D01*
X5064207Y4916293D01*
X5064396Y4916184D01*
X5064586Y4916067D01*
X5064783Y4915929D01*
X5064980Y4915790D01*
X5065169Y4915637D01*
X5065358Y4915477D01*
X5065264Y4915411D01*
X5065257D01*
X5065249Y4915418D01*
X5065227Y4915433D01*
X5065198Y4915455D01*
X5065162Y4915477D01*
X5065118Y4915498D01*
X5065067Y4915528D01*
X5065001Y4915564D01*
X5064936Y4915601D01*
X5064863Y4915637D01*
X5064695Y4915732D01*
X5064498Y4915826D01*
X5064280Y4915929D01*
X5064032Y4916045D01*
X5063762Y4916154D01*
X5063463Y4916271D01*
X5063150Y4916388D01*
X5062814Y4916497D01*
X5062464Y4916607D01*
X5062085Y4916708D01*
X5061699Y4916796D01*
Y4916060D01*
X5061757Y4915783D01*
X5061517Y4915535D01*
Y4916832D01*
X5061502D01*
X5061465D01*
X5061407D01*
X5061334D01*
X5061240D01*
X5061123D01*
X5060999D01*
X5060860Y4916825D01*
X5060715D01*
X5060555D01*
X5060219Y4916818D01*
X5059862Y4916811D01*
X5059512Y4916796D01*
X5059789Y4917474D01*
X5060007Y4917263D01*
X5061517D01*
Y4917693D01*
X5061174Y4918028D01*
X5061699Y4918553D01*
Y4917263D01*
D02*
G37*
G36*
X5066095Y4914667D02*
X5066124Y4914653D01*
X5066168Y4914624D01*
X5066226Y4914587D01*
X5066284Y4914544D01*
X5066343Y4914492D01*
X5066394Y4914434D01*
X5066438Y4914368D01*
X5066445Y4914361D01*
X5066452Y4914332D01*
X5066474Y4914296D01*
X5066488Y4914237D01*
X5066510Y4914157D01*
X5066532Y4914070D01*
X5066539Y4913968D01*
X5066547Y4913844D01*
Y4911416D01*
X5066539Y4911387D01*
Y4911343D01*
X5066525Y4911300D01*
X5066518Y4911241D01*
X5066474Y4911124D01*
X5066438Y4911066D01*
X5066401Y4911008D01*
X5066350Y4910949D01*
X5066291Y4910906D01*
X5066219Y4910862D01*
X5066138Y4910833D01*
X5066051Y4910811D01*
X5065942Y4910804D01*
X5064469D01*
Y4908959D01*
X5064899D01*
X5065111Y4908493D01*
X5065096D01*
X5065067D01*
X5065009D01*
X5064928Y4908500D01*
X5064833D01*
X5064724D01*
X5064593Y4908507D01*
X5064447D01*
X5064294D01*
X5064127Y4908515D01*
X5063951D01*
X5063762D01*
X5063368Y4908522D01*
X5062960D01*
X5062946D01*
X5062909D01*
X5062851D01*
X5062770D01*
X5062676D01*
X5062559D01*
X5062435D01*
X5062289D01*
X5062136Y4908515D01*
X5061976D01*
X5061633Y4908507D01*
X5061276Y4908500D01*
X5060926Y4908493D01*
X5061203Y4908989D01*
Y4910804D01*
X5061196D01*
X5061167D01*
X5061116D01*
X5061050D01*
X5060977D01*
X5060883D01*
X5060780D01*
X5060664Y4910796D01*
X5060547D01*
X5060416D01*
X5060139Y4910789D01*
X5059862Y4910782D01*
X5059578Y4910767D01*
X5059913Y4911474D01*
X5060131Y4911234D01*
X5061203D01*
Y4913107D01*
X5060897Y4913414D01*
X5061327Y4913844D01*
X5061546Y4913567D01*
X5061553D01*
X5061575D01*
X5061604D01*
X5061655D01*
X5061706D01*
X5061779D01*
X5061852D01*
X5061940D01*
X5062034D01*
X5062136D01*
X5062355D01*
X5062596D01*
X5062851Y4913574D01*
X5063375D01*
X5063631Y4913581D01*
X5063879D01*
X5064104Y4913588D01*
X5064214D01*
X5064309D01*
X5064404Y4913596D01*
X5064484D01*
X5064557Y4913603D01*
X5064622D01*
X5064833Y4913136D01*
X5064469D01*
Y4911234D01*
X5065847D01*
X5065862D01*
X5065898Y4911241D01*
X5065956Y4911256D01*
X5066014Y4911277D01*
X5066073Y4911321D01*
X5066131Y4911387D01*
X5066153Y4911431D01*
X5066168Y4911481D01*
X5066175Y4911533D01*
X5066182Y4911598D01*
Y4913734D01*
X5066175Y4913763D01*
X5066161Y4913807D01*
X5066131Y4913865D01*
X5066087Y4913916D01*
X5066037Y4913968D01*
X5065956Y4914004D01*
X5065862Y4914026D01*
X5065854D01*
X5065847D01*
X5065825Y4914033D01*
X5065803D01*
X5065767D01*
X5065723Y4914040D01*
X5065665D01*
X5065606Y4914048D01*
X5065533Y4914055D01*
X5065446D01*
X5065351Y4914062D01*
X5065242Y4914070D01*
X5065118Y4914077D01*
X5064987D01*
X5064841Y4914084D01*
X5064680Y4914091D01*
Y4914244D01*
X5064688D01*
X5064717D01*
X5064753D01*
X5064804D01*
X5064870D01*
X5064936Y4914252D01*
X5065096Y4914259D01*
X5065271Y4914274D01*
X5065439Y4914288D01*
X5065512Y4914303D01*
X5065585Y4914317D01*
X5065650Y4914332D01*
X5065701Y4914354D01*
X5065709Y4914361D01*
X5065738Y4914376D01*
X5065781Y4914397D01*
X5065840Y4914434D01*
X5065898Y4914478D01*
X5065963Y4914536D01*
X5066029Y4914602D01*
X5066087Y4914675D01*
X5066095Y4914667D01*
D02*
G37*
%LPC*%
G36*
X5013509Y4856404D02*
X5013151D01*
X5013113Y4856401D01*
X5013072D01*
X5013031Y4856395D01*
X5012994Y4856392D01*
X5012962Y4856386D01*
X5012956D01*
X5012944Y4856380D01*
X5012927Y4856374D01*
X5012903Y4856366D01*
X5012877Y4856354D01*
X5012851Y4856340D01*
X5012825Y4856322D01*
X5012799Y4856302D01*
X5012796Y4856299D01*
X5012787Y4856290D01*
X5012775Y4856276D01*
X5012761Y4856255D01*
X5012746Y4856229D01*
X5012726Y4856197D01*
X5012711Y4856156D01*
X5012694Y4856110D01*
Y4856107D01*
X5012691Y4856104D01*
Y4856095D01*
X5012688Y4856084D01*
X5012682Y4856072D01*
X5012679Y4856054D01*
X5012671Y4856011D01*
X5012665Y4855959D01*
X5012656Y4855897D01*
X5012653Y4855822D01*
X5012650Y4855740D01*
Y4855737D01*
Y4855729D01*
Y4855717D01*
Y4855702D01*
Y4855682D01*
X5012653Y4855659D01*
X5012656Y4855609D01*
X5012662Y4855551D01*
X5012668Y4855490D01*
X5012679Y4855434D01*
X5012694Y4855382D01*
Y4855379D01*
X5012697Y4855376D01*
X5012703Y4855362D01*
X5012711Y4855339D01*
X5012723Y4855310D01*
X5012740Y4855280D01*
X5012761Y4855248D01*
X5012784Y4855216D01*
X5012810Y4855187D01*
X5012813Y4855184D01*
X5012822Y4855176D01*
X5012840Y4855164D01*
X5012860Y4855149D01*
X5012889Y4855132D01*
X5012921Y4855117D01*
X5012956Y4855103D01*
X5012997Y4855091D01*
X5012999D01*
X5013014Y4855088D01*
X5013037Y4855085D01*
X5013069Y4855080D01*
X5013090D01*
X5013116Y4855077D01*
X5013142D01*
X5013171Y4855074D01*
X5013206D01*
X5013244Y4855071D01*
X5013509D01*
Y4856404D01*
D02*
G37*
G36*
X5013550Y4866481D02*
X5013192D01*
X5013154Y4866478D01*
X5013113D01*
X5013073Y4866473D01*
X5013034Y4866470D01*
X5013003Y4866464D01*
X5012997D01*
X5012985Y4866458D01*
X5012968Y4866452D01*
X5012944Y4866443D01*
X5012918Y4866432D01*
X5012892Y4866417D01*
X5012866Y4866400D01*
X5012840Y4866380D01*
X5012837Y4866376D01*
X5012828Y4866368D01*
X5012816Y4866353D01*
X5012802Y4866333D01*
X5012787Y4866307D01*
X5012767Y4866275D01*
X5012753Y4866234D01*
X5012735Y4866187D01*
Y4866184D01*
X5012732Y4866182D01*
Y4866173D01*
X5012729Y4866161D01*
X5012723Y4866150D01*
X5012720Y4866132D01*
X5012712Y4866088D01*
X5012706Y4866036D01*
X5012697Y4865975D01*
X5012694Y4865899D01*
X5012691Y4865818D01*
Y4865815D01*
Y4865806D01*
Y4865794D01*
Y4865780D01*
Y4865760D01*
X5012694Y4865736D01*
X5012697Y4865687D01*
X5012703Y4865628D01*
X5012709Y4865567D01*
X5012720Y4865512D01*
X5012735Y4865460D01*
Y4865457D01*
X5012738Y4865454D01*
X5012744Y4865440D01*
X5012753Y4865416D01*
X5012764Y4865387D01*
X5012782Y4865358D01*
X5012802Y4865326D01*
X5012825Y4865294D01*
X5012851Y4865265D01*
X5012854Y4865262D01*
X5012863Y4865253D01*
X5012880Y4865242D01*
X5012901Y4865227D01*
X5012930Y4865210D01*
X5012962Y4865195D01*
X5012997Y4865181D01*
X5013037Y4865169D01*
X5013041D01*
X5013055Y4865166D01*
X5013078Y4865163D01*
X5013110Y4865157D01*
X5013131D01*
X5013157Y4865154D01*
X5013183D01*
X5013212Y4865151D01*
X5013247D01*
X5013285Y4865149D01*
X5013550D01*
Y4866481D01*
D02*
G37*
G36*
Y4876431D02*
X5013192D01*
X5013154Y4876428D01*
X5013113D01*
X5013073Y4876422D01*
X5013034Y4876419D01*
X5013003Y4876413D01*
X5012997D01*
X5012985Y4876408D01*
X5012968Y4876402D01*
X5012944Y4876393D01*
X5012918Y4876381D01*
X5012892Y4876367D01*
X5012866Y4876349D01*
X5012840Y4876329D01*
X5012837Y4876326D01*
X5012828Y4876317D01*
X5012816Y4876303D01*
X5012802Y4876283D01*
X5012787Y4876256D01*
X5012767Y4876224D01*
X5012753Y4876183D01*
X5012735Y4876137D01*
Y4876134D01*
X5012732Y4876131D01*
Y4876122D01*
X5012729Y4876111D01*
X5012723Y4876099D01*
X5012720Y4876081D01*
X5012712Y4876038D01*
X5012706Y4875986D01*
X5012697Y4875925D01*
X5012694Y4875849D01*
X5012691Y4875767D01*
Y4875764D01*
Y4875756D01*
Y4875744D01*
Y4875729D01*
Y4875709D01*
X5012694Y4875686D01*
X5012697Y4875636D01*
X5012703Y4875578D01*
X5012709Y4875517D01*
X5012720Y4875462D01*
X5012735Y4875409D01*
Y4875407D01*
X5012738Y4875404D01*
X5012744Y4875389D01*
X5012753Y4875366D01*
X5012764Y4875337D01*
X5012782Y4875307D01*
X5012802Y4875275D01*
X5012825Y4875243D01*
X5012851Y4875214D01*
X5012854Y4875211D01*
X5012863Y4875203D01*
X5012880Y4875191D01*
X5012901Y4875177D01*
X5012930Y4875159D01*
X5012962Y4875145D01*
X5012997Y4875130D01*
X5013037Y4875118D01*
X5013041D01*
X5013055Y4875116D01*
X5013078Y4875113D01*
X5013110Y4875107D01*
X5013131D01*
X5013157Y4875104D01*
X5013183D01*
X5013212Y4875101D01*
X5013247D01*
X5013285Y4875098D01*
X5013550D01*
Y4876431D01*
D02*
G37*
G36*
X5009796Y4876489D02*
X5009784D01*
X5009769Y4876486D01*
X5009755Y4876483D01*
X5009735Y4876477D01*
X5009714Y4876472D01*
X5009694Y4876460D01*
X5009674Y4876445D01*
X5009671Y4876442D01*
X5009665Y4876437D01*
X5009653Y4876425D01*
X5009642Y4876408D01*
X5009630Y4876387D01*
X5009615Y4876358D01*
X5009601Y4876326D01*
X5009589Y4876285D01*
Y4876283D01*
X5009586Y4876279D01*
Y4876268D01*
X5009583Y4876256D01*
X5009581Y4876239D01*
X5009578Y4876218D01*
X5009572Y4876195D01*
X5009569Y4876166D01*
X5009566Y4876134D01*
X5009560Y4876096D01*
X5009557Y4876056D01*
X5009554Y4876009D01*
X5009551Y4875959D01*
Y4875904D01*
X5009549Y4875843D01*
Y4875779D01*
Y4875776D01*
Y4875764D01*
Y4875744D01*
Y4875721D01*
Y4875692D01*
X5009551Y4875660D01*
Y4875622D01*
X5009554Y4875584D01*
X5009557Y4875502D01*
X5009563Y4875424D01*
X5009569Y4875386D01*
X5009575Y4875348D01*
X5009581Y4875316D01*
X5009586Y4875290D01*
Y4875287D01*
X5009589Y4875284D01*
X5009592Y4875270D01*
X5009601Y4875246D01*
X5009610Y4875217D01*
X5009624Y4875188D01*
X5009639Y4875159D01*
X5009656Y4875133D01*
X5009674Y4875113D01*
X5009676Y4875110D01*
X5009682Y4875104D01*
X5009694Y4875098D01*
X5009708Y4875089D01*
X5009726Y4875080D01*
X5009746Y4875072D01*
X5009769Y4875069D01*
X5009796Y4875066D01*
X5009808D01*
X5009822Y4875069D01*
X5009837Y4875072D01*
X5009857Y4875078D01*
X5009877Y4875086D01*
X5009901Y4875098D01*
X5009921Y4875113D01*
X5009924Y4875116D01*
X5009930Y4875121D01*
X5009938Y4875133D01*
X5009950Y4875148D01*
X5009965Y4875171D01*
X5009976Y4875197D01*
X5009991Y4875232D01*
X5010003Y4875273D01*
Y4875275D01*
X5010005Y4875278D01*
Y4875290D01*
X5010008Y4875302D01*
X5010011Y4875319D01*
X5010014Y4875340D01*
X5010017Y4875363D01*
X5010020Y4875392D01*
X5010026Y4875427D01*
X5010028Y4875462D01*
X5010032Y4875505D01*
X5010035Y4875549D01*
X5010037Y4875602D01*
Y4875654D01*
X5010040Y4875715D01*
Y4875779D01*
Y4875782D01*
Y4875793D01*
Y4875814D01*
Y4875837D01*
Y4875866D01*
X5010037Y4875898D01*
Y4875936D01*
X5010035Y4875974D01*
X5010032Y4876056D01*
X5010026Y4876137D01*
X5010023Y4876175D01*
X5010017Y4876210D01*
X5010011Y4876242D01*
X5010005Y4876271D01*
X5010003Y4876277D01*
X5009999Y4876291D01*
X5009991Y4876315D01*
X5009982Y4876340D01*
X5009967Y4876370D01*
X5009953Y4876399D01*
X5009935Y4876425D01*
X5009918Y4876445D01*
X5009915Y4876448D01*
X5009909Y4876451D01*
X5009898Y4876460D01*
X5009883Y4876466D01*
X5009866Y4876474D01*
X5009845Y4876483D01*
X5009822Y4876486D01*
X5009796Y4876489D01*
D02*
G37*
G36*
X5011606Y4885801D02*
X5011600D01*
X5011589Y4885799D01*
X5011568Y4885796D01*
X5011542Y4885790D01*
X5011513Y4885781D01*
X5011481Y4885764D01*
X5011449Y4885743D01*
X5011420Y4885714D01*
X5011417Y4885711D01*
X5011408Y4885697D01*
X5011394Y4885677D01*
X5011379Y4885650D01*
X5011367Y4885612D01*
X5011353Y4885569D01*
X5011344Y4885516D01*
X5011341Y4885455D01*
Y4885452D01*
Y4885447D01*
Y4885438D01*
Y4885423D01*
X5011347Y4885391D01*
X5011353Y4885347D01*
X5011362Y4885301D01*
X5011379Y4885252D01*
X5011399Y4885205D01*
X5011428Y4885161D01*
X5011432Y4885155D01*
X5011443Y4885144D01*
X5011460Y4885129D01*
X5011484Y4885109D01*
X5011513Y4885088D01*
X5011548Y4885074D01*
X5011586Y4885062D01*
X5011626Y4885057D01*
X5011644D01*
X5011664Y4885062D01*
X5011687Y4885068D01*
X5011717Y4885077D01*
X5011746Y4885094D01*
X5011775Y4885115D01*
X5011804Y4885144D01*
X5011807Y4885147D01*
X5011816Y4885161D01*
X5011827Y4885182D01*
X5011839Y4885211D01*
X5011850Y4885249D01*
X5011862Y4885298D01*
X5011871Y4885356D01*
X5011874Y4885423D01*
Y4885426D01*
Y4885432D01*
Y4885441D01*
Y4885455D01*
X5011871Y4885490D01*
X5011865Y4885531D01*
X5011856Y4885580D01*
X5011842Y4885627D01*
X5011824Y4885674D01*
X5011798Y4885711D01*
X5011795Y4885714D01*
X5011784Y4885726D01*
X5011769Y4885740D01*
X5011746Y4885755D01*
X5011717Y4885772D01*
X5011685Y4885787D01*
X5011647Y4885799D01*
X5011606Y4885801D01*
D02*
G37*
G36*
X5013760Y4886421D02*
X5013401D01*
X5013364Y4886419D01*
X5013323D01*
X5013282Y4886412D01*
X5013244Y4886410D01*
X5013213Y4886404D01*
X5013206D01*
X5013195Y4886398D01*
X5013177Y4886392D01*
X5013154Y4886383D01*
X5013128Y4886372D01*
X5013102Y4886357D01*
X5013076Y4886340D01*
X5013049Y4886319D01*
X5013047Y4886317D01*
X5013038Y4886308D01*
X5013026Y4886293D01*
X5013012Y4886273D01*
X5012997Y4886247D01*
X5012977Y4886215D01*
X5012962Y4886174D01*
X5012945Y4886127D01*
Y4886124D01*
X5012942Y4886122D01*
Y4886113D01*
X5012939Y4886101D01*
X5012933Y4886090D01*
X5012930Y4886072D01*
X5012922Y4886029D01*
X5012915Y4885976D01*
X5012907Y4885915D01*
X5012904Y4885839D01*
X5012901Y4885758D01*
Y4885755D01*
Y4885746D01*
Y4885735D01*
Y4885720D01*
Y4885700D01*
X5012904Y4885677D01*
X5012907Y4885627D01*
X5012913Y4885569D01*
X5012918Y4885508D01*
X5012930Y4885452D01*
X5012945Y4885400D01*
Y4885397D01*
X5012947Y4885394D01*
X5012954Y4885379D01*
X5012962Y4885356D01*
X5012974Y4885327D01*
X5012991Y4885298D01*
X5013012Y4885266D01*
X5013035Y4885234D01*
X5013061Y4885205D01*
X5013064Y4885202D01*
X5013073Y4885193D01*
X5013090Y4885182D01*
X5013111Y4885167D01*
X5013140Y4885150D01*
X5013172Y4885135D01*
X5013206Y4885121D01*
X5013247Y4885109D01*
X5013250D01*
X5013265Y4885106D01*
X5013288Y4885103D01*
X5013320Y4885097D01*
X5013340D01*
X5013367Y4885094D01*
X5013393D01*
X5013422Y4885091D01*
X5013457D01*
X5013495Y4885088D01*
X5013760D01*
Y4886421D01*
D02*
G37*
G36*
X5011441Y4916538D02*
X5011423D01*
X5011403Y4916533D01*
X5011377Y4916526D01*
X5011351Y4916518D01*
X5011319Y4916503D01*
X5011289Y4916483D01*
X5011260Y4916457D01*
X5011257Y4916454D01*
X5011249Y4916439D01*
X5011237Y4916419D01*
X5011222Y4916390D01*
X5011211Y4916352D01*
X5011199Y4916306D01*
X5011190Y4916247D01*
X5011187Y4916180D01*
Y4916177D01*
Y4916172D01*
Y4916160D01*
Y4916148D01*
X5011190Y4916113D01*
X5011196Y4916070D01*
X5011208Y4916023D01*
X5011219Y4915974D01*
X5011240Y4915927D01*
X5011266Y4915889D01*
X5011269Y4915886D01*
X5011280Y4915875D01*
X5011295Y4915860D01*
X5011319Y4915843D01*
X5011348Y4915825D01*
X5011380Y4915811D01*
X5011417Y4915799D01*
X5011458Y4915796D01*
X5011476D01*
X5011499Y4915802D01*
X5011525Y4915808D01*
X5011554Y4915820D01*
X5011586Y4915834D01*
X5011618Y4915857D01*
X5011647Y4915886D01*
X5011650Y4915889D01*
X5011659Y4915904D01*
X5011671Y4915924D01*
X5011685Y4915950D01*
X5011700Y4915988D01*
X5011711Y4916032D01*
X5011720Y4916084D01*
X5011723Y4916145D01*
Y4916148D01*
Y4916154D01*
Y4916163D01*
Y4916177D01*
X5011717Y4916209D01*
X5011711Y4916253D01*
X5011703Y4916299D01*
X5011688Y4916349D01*
X5011668Y4916396D01*
X5011639Y4916436D01*
X5011636Y4916439D01*
X5011624Y4916451D01*
X5011604Y4916468D01*
X5011580Y4916486D01*
X5011551Y4916506D01*
X5011519Y4916521D01*
X5011481Y4916533D01*
X5011441Y4916538D01*
D02*
G37*
G36*
X5013693Y4916480D02*
X5013335D01*
X5013297Y4916477D01*
X5013256D01*
X5013216Y4916471D01*
X5013178Y4916468D01*
X5013146Y4916463D01*
X5013140D01*
X5013129Y4916457D01*
X5013111Y4916451D01*
X5013088Y4916442D01*
X5013062Y4916431D01*
X5013035Y4916416D01*
X5013009Y4916399D01*
X5012983Y4916378D01*
X5012980Y4916375D01*
X5012971Y4916367D01*
X5012960Y4916352D01*
X5012945Y4916331D01*
X5012931Y4916306D01*
X5012910Y4916273D01*
X5012896Y4916233D01*
X5012878Y4916186D01*
Y4916183D01*
X5012875Y4916180D01*
Y4916172D01*
X5012872Y4916160D01*
X5012867Y4916148D01*
X5012864Y4916131D01*
X5012855Y4916087D01*
X5012849Y4916035D01*
X5012840Y4915974D01*
X5012838Y4915898D01*
X5012835Y4915816D01*
Y4915813D01*
Y4915805D01*
Y4915793D01*
Y4915779D01*
Y4915759D01*
X5012838Y4915735D01*
X5012840Y4915686D01*
X5012846Y4915627D01*
X5012852Y4915566D01*
X5012864Y4915511D01*
X5012878Y4915459D01*
Y4915456D01*
X5012881Y4915453D01*
X5012887Y4915438D01*
X5012896Y4915415D01*
X5012907Y4915386D01*
X5012925Y4915357D01*
X5012945Y4915325D01*
X5012968Y4915293D01*
X5012995Y4915264D01*
X5012997Y4915261D01*
X5013006Y4915252D01*
X5013024Y4915240D01*
X5013044Y4915226D01*
X5013073Y4915208D01*
X5013105Y4915194D01*
X5013140Y4915179D01*
X5013181Y4915168D01*
X5013184D01*
X5013198Y4915165D01*
X5013222Y4915162D01*
X5013254Y4915156D01*
X5013274D01*
X5013300Y4915153D01*
X5013326D01*
X5013355Y4915150D01*
X5013390D01*
X5013428Y4915147D01*
X5013693D01*
Y4916480D01*
D02*
G37*
G36*
Y4926598D02*
X5013335D01*
X5013297Y4926596D01*
X5013256D01*
X5013216Y4926590D01*
X5013178Y4926587D01*
X5013146Y4926581D01*
X5013140D01*
X5013129Y4926575D01*
X5013111Y4926569D01*
X5013088Y4926561D01*
X5013062Y4926549D01*
X5013035Y4926535D01*
X5013009Y4926517D01*
X5012983Y4926497D01*
X5012980Y4926494D01*
X5012971Y4926485D01*
X5012960Y4926471D01*
X5012945Y4926450D01*
X5012931Y4926424D01*
X5012910Y4926392D01*
X5012896Y4926351D01*
X5012878Y4926305D01*
Y4926302D01*
X5012875Y4926299D01*
Y4926290D01*
X5012872Y4926278D01*
X5012867Y4926267D01*
X5012864Y4926249D01*
X5012855Y4926206D01*
X5012849Y4926153D01*
X5012840Y4926092D01*
X5012838Y4926017D01*
X5012835Y4925935D01*
Y4925932D01*
Y4925924D01*
Y4925912D01*
Y4925897D01*
Y4925877D01*
X5012838Y4925854D01*
X5012840Y4925804D01*
X5012846Y4925746D01*
X5012852Y4925685D01*
X5012864Y4925629D01*
X5012878Y4925577D01*
Y4925574D01*
X5012881Y4925571D01*
X5012887Y4925557D01*
X5012896Y4925534D01*
X5012907Y4925504D01*
X5012925Y4925475D01*
X5012945Y4925443D01*
X5012968Y4925411D01*
X5012995Y4925382D01*
X5012997Y4925379D01*
X5013006Y4925370D01*
X5013024Y4925359D01*
X5013044Y4925344D01*
X5013073Y4925327D01*
X5013105Y4925312D01*
X5013140Y4925298D01*
X5013181Y4925286D01*
X5013184D01*
X5013198Y4925283D01*
X5013222Y4925280D01*
X5013254Y4925275D01*
X5013274D01*
X5013300Y4925272D01*
X5013326D01*
X5013355Y4925269D01*
X5013390D01*
X5013428Y4925266D01*
X5013693D01*
Y4926598D01*
D02*
G37*
G36*
X5013611Y4946539D02*
X5013253D01*
X5013215Y4946536D01*
X5013174D01*
X5013134Y4946530D01*
X5013096Y4946527D01*
X5013064Y4946521D01*
X5013058D01*
X5013047Y4946515D01*
X5013029Y4946510D01*
X5013006Y4946501D01*
X5012980Y4946489D01*
X5012954Y4946474D01*
X5012927Y4946457D01*
X5012901Y4946437D01*
X5012898Y4946434D01*
X5012889Y4946425D01*
X5012878Y4946411D01*
X5012863Y4946390D01*
X5012849Y4946364D01*
X5012828Y4946332D01*
X5012814Y4946291D01*
X5012796Y4946245D01*
Y4946242D01*
X5012793Y4946239D01*
Y4946230D01*
X5012791Y4946218D01*
X5012785Y4946207D01*
X5012782Y4946189D01*
X5012773Y4946146D01*
X5012767Y4946093D01*
X5012759Y4946032D01*
X5012756Y4945956D01*
X5012753Y4945875D01*
Y4945872D01*
Y4945863D01*
Y4945852D01*
Y4945837D01*
Y4945817D01*
X5012756Y4945794D01*
X5012759Y4945744D01*
X5012764Y4945686D01*
X5012770Y4945625D01*
X5012782Y4945570D01*
X5012796Y4945517D01*
Y4945514D01*
X5012799Y4945511D01*
X5012805Y4945497D01*
X5012814Y4945473D01*
X5012825Y4945444D01*
X5012843Y4945415D01*
X5012863Y4945383D01*
X5012886Y4945351D01*
X5012913Y4945322D01*
X5012915Y4945319D01*
X5012924Y4945311D01*
X5012942Y4945299D01*
X5012962Y4945284D01*
X5012991Y4945267D01*
X5013023Y4945252D01*
X5013058Y4945238D01*
X5013099Y4945226D01*
X5013102D01*
X5013116Y4945223D01*
X5013140Y4945221D01*
X5013172Y4945214D01*
X5013192D01*
X5013218Y4945212D01*
X5013244D01*
X5013274Y4945209D01*
X5013308D01*
X5013346Y4945206D01*
X5013611D01*
Y4946539D01*
D02*
G37*
G36*
X5063543Y4952655D02*
X5061517D01*
Y4951336D01*
X5061531D01*
X5061560D01*
X5061619D01*
X5061692D01*
X5061786D01*
X5061896D01*
X5062020Y4951329D01*
X5062158D01*
X5062311D01*
X5062472Y4951321D01*
X5062639Y4951314D01*
X5062814D01*
X5063171Y4951300D01*
X5063543Y4951278D01*
Y4952655D01*
D02*
G37*
G36*
Y4944935D02*
X5062807D01*
Y4942661D01*
X5063543D01*
Y4944935D01*
D02*
G37*
G36*
X5062617D02*
X5061910D01*
Y4942661D01*
X5062617D01*
Y4944935D01*
D02*
G37*
G36*
X5064280Y4913136D02*
X5062894D01*
Y4911234D01*
X5064280D01*
Y4913136D01*
D02*
G37*
G36*
X5062712D02*
X5061393D01*
Y4911234D01*
X5062712D01*
Y4913136D01*
D02*
G37*
G36*
X5064280Y4910804D02*
X5062894D01*
Y4908959D01*
X5064280D01*
Y4910804D01*
D02*
G37*
G36*
X5062712D02*
X5061393D01*
Y4908959D01*
X5062712D01*
Y4910804D01*
D02*
G37*
%LPD*%
D10*
X5041615Y4899710D02*
G03*
X5039762Y4899695I-928J213D01*
G01*
X5041615Y4899710D02*
X5046872D01*
Y4930511D01*
X5034169D02*
X5046872D01*
X5034169Y4899695D02*
Y4930511D01*
Y4899695D02*
X5039762D01*
X5026543Y4874647D02*
Y4881337D01*
Y4874647D02*
X5038913D01*
Y4881434D01*
X5026522Y4889710D02*
Y4896471D01*
X5038939D01*
Y4889659D02*
Y4896471D01*
X5051601Y4945523D02*
X5058290D01*
Y4957893D01*
X5051503D02*
X5058290D01*
X5036467Y4945502D02*
X5043228D01*
X5036467D02*
Y4957919D01*
X5043279D01*
X5024464Y4887688D02*
Y4893538D01*
X5017315D02*
X5024464D01*
X5017315Y4887499D02*
Y4893538D01*
X5024429Y4877795D02*
Y4883834D01*
X5017315Y4877795D02*
X5024429D01*
X5017315D02*
Y4883906D01*
X5026921Y4935225D02*
X5032771D01*
Y4942375D01*
X5026732D02*
X5032771D01*
X5017028Y4935261D02*
X5023067D01*
X5017028D02*
Y4942375D01*
X5023139D01*
X5026921Y4944115D02*
X5032771D01*
Y4951265D01*
X5026732D02*
X5032771D01*
X5017028Y4944151D02*
X5023067D01*
X5017028D02*
Y4951265D01*
X5023139D01*
X5026844Y4953113D02*
X5032695D01*
Y4960263D01*
X5026655D02*
X5032695D01*
X5016951Y4953149D02*
X5022990D01*
X5016951D02*
Y4960263D01*
X5023062D01*
X5050797Y4848576D02*
Y4850582D01*
X5060834D01*
Y4848576D02*
Y4850582D01*
X5067871Y4848576D02*
Y4872651D01*
X5043832D02*
X5067871D01*
X5043832Y4848576D02*
Y4872651D01*
Y4848576D02*
X5067871D01*
X5023241Y4848463D02*
Y4850469D01*
X5033278D01*
Y4848463D02*
Y4850469D01*
X5040315Y4848463D02*
Y4872539D01*
X5016276D02*
X5040315D01*
X5016276Y4848463D02*
Y4872539D01*
Y4848463D02*
X5040315D01*
X5061551Y4992410D02*
Y4994416D01*
X5051514Y4992410D02*
X5061551D01*
X5051514D02*
Y4994416D01*
X5044476Y4970341D02*
Y4994416D01*
Y4970341D02*
X5068516D01*
Y4994416D01*
X5044476D02*
X5068516D01*
X5033943Y4992410D02*
Y4994416D01*
X5023907Y4992410D02*
X5033943D01*
X5023907D02*
Y4994416D01*
X5016869Y4970341D02*
Y4994416D01*
Y4970341D02*
X5040909D01*
Y4994416D01*
X5016869D02*
X5040909D01*
D11*
X5038803Y4963284D02*
X5040198Y4967469D01*
X5038803Y4963284D02*
X5037408Y4967469D01*
X5038803Y4963882D02*
X5037607Y4967469D01*
X5039799Y4966273D02*
X5038006D01*
X5040597Y4967469D02*
X5039401D01*
X5038205D02*
X5037009D01*
X5035076Y4963284D02*
X5035674Y4963483D01*
X5036073Y4963882D01*
X5036272Y4964280D01*
X5036471Y4965078D01*
Y4965675D01*
X5036272Y4966473D01*
X5036073Y4966871D01*
X5035674Y4967270D01*
X5035076Y4967469D01*
X5034677D01*
X5034079Y4967270D01*
X5033680Y4966871D01*
X5033481Y4966473D01*
X5033282Y4965675D01*
Y4965078D01*
X5033481Y4964280D01*
X5033680Y4963882D01*
X5034079Y4963483D01*
X5034677Y4963284D01*
X5035076D01*
X5035474Y4963483D01*
X5035873Y4963882D01*
X5036073Y4964280D01*
X5036272Y4965078D01*
Y4965675D01*
X5036073Y4966473D01*
X5035873Y4966871D01*
X5035474Y4967270D01*
X5035076Y4967469D01*
X5034677D02*
X5034278Y4967270D01*
X5033880Y4966871D01*
X5033680Y4966473D01*
X5033481Y4965675D01*
Y4965078D01*
X5033680Y4964280D01*
X5033880Y4963882D01*
X5034278Y4963483D01*
X5034677Y4963284D01*
X5032505Y4964081D02*
X5032305Y4964280D01*
X5032505Y4964479D01*
X5032704Y4964280D01*
Y4964081D01*
X5032505Y4963682D01*
X5032305Y4963483D01*
X5031707Y4963284D01*
X5030910D01*
X5030312Y4963483D01*
X5030113Y4963682D01*
X5029913Y4964081D01*
Y4964479D01*
X5030113Y4964878D01*
X5030711Y4965277D01*
X5031707Y4965675D01*
X5032106Y4965875D01*
X5032505Y4966273D01*
X5032704Y4966871D01*
Y4967469D01*
X5030910Y4963284D02*
X5030511Y4963483D01*
X5030312Y4963682D01*
X5030113Y4964081D01*
Y4964479D01*
X5030312Y4964878D01*
X5030910Y4965277D01*
X5031707Y4965675D01*
X5032704Y4967071D02*
X5032505Y4966871D01*
X5032106D01*
X5031109Y4967270D01*
X5030511D01*
X5030113Y4967071D01*
X5029913Y4966871D01*
Y4966473D01*
X5032106Y4966871D02*
X5031109Y4967469D01*
X5030312D01*
X5030113Y4967270D01*
X5029913Y4966871D01*
X5039938Y4878811D02*
X5044123Y4877415D01*
X5039938Y4878811D02*
X5044123Y4880206D01*
X5040535Y4878811D02*
X5044123Y4880007D01*
X5042927Y4877814D02*
Y4879608D01*
X5044123Y4877017D02*
Y4878213D01*
Y4879409D02*
Y4880605D01*
X5039938Y4882538D02*
X5040137Y4881940D01*
X5040535Y4881541D01*
X5040934Y4881342D01*
X5041731Y4881143D01*
X5042329D01*
X5043127Y4881342D01*
X5043525Y4881541D01*
X5043924Y4881940D01*
X5044123Y4882538D01*
Y4882937D01*
X5043924Y4883535D01*
X5043525Y4883933D01*
X5043127Y4884133D01*
X5042329Y4884332D01*
X5041731D01*
X5040934Y4884133D01*
X5040535Y4883933D01*
X5040137Y4883535D01*
X5039938Y4882937D01*
Y4882538D01*
X5040137Y4882140D01*
X5040535Y4881741D01*
X5040934Y4881541D01*
X5041731Y4881342D01*
X5042329D01*
X5043127Y4881541D01*
X5043525Y4881741D01*
X5043924Y4882140D01*
X5044123Y4882538D01*
Y4882937D02*
X5043924Y4883335D01*
X5043525Y4883734D01*
X5043127Y4883933D01*
X5042329Y4884133D01*
X5041731D01*
X5040934Y4883933D01*
X5040535Y4883734D01*
X5040137Y4883335D01*
X5039938Y4882937D01*
X5040735Y4885109D02*
X5040934Y4885308D01*
X5041133Y4885109D01*
X5040934Y4884910D01*
X5040735D01*
X5040336Y4885109D01*
X5040137Y4885308D01*
X5039938Y4885907D01*
Y4886704D01*
X5040137Y4887302D01*
X5040336Y4887501D01*
X5040735Y4887700D01*
X5041133D01*
X5041532Y4887501D01*
X5041931Y4886903D01*
X5042329Y4885907D01*
X5042529Y4885508D01*
X5042927Y4885109D01*
X5043525Y4884910D01*
X5044123D01*
X5039938Y4886704D02*
X5040137Y4887103D01*
X5040336Y4887302D01*
X5040735Y4887501D01*
X5041133D01*
X5041532Y4887302D01*
X5041931Y4886704D01*
X5042329Y4885907D01*
X5043724Y4884910D02*
X5043525Y4885109D01*
Y4885508D01*
X5043924Y4886504D01*
Y4887103D01*
X5043724Y4887501D01*
X5043525Y4887700D01*
X5043127D01*
X5043525Y4885508D02*
X5044123Y4886504D01*
Y4887302D01*
X5043924Y4887501D01*
X5043525Y4887700D01*
X5045081Y4879000D02*
X5049267Y4877605D01*
X5045081Y4879000D02*
X5049267Y4880396D01*
X5045679Y4879000D02*
X5049267Y4880196D01*
X5048071Y4878004D02*
Y4879797D01*
X5049267Y4877206D02*
Y4878402D01*
Y4879598D02*
Y4880794D01*
X5045081Y4882727D02*
X5045280Y4882130D01*
X5045679Y4881731D01*
X5046078Y4881532D01*
X5046875Y4881332D01*
X5047473D01*
X5048270Y4881532D01*
X5048669Y4881731D01*
X5049068Y4882130D01*
X5049267Y4882727D01*
Y4883126D01*
X5049068Y4883724D01*
X5048669Y4884123D01*
X5048270Y4884322D01*
X5047473Y4884521D01*
X5046875D01*
X5046078Y4884322D01*
X5045679Y4884123D01*
X5045280Y4883724D01*
X5045081Y4883126D01*
Y4882727D01*
X5045280Y4882329D01*
X5045679Y4881930D01*
X5046078Y4881731D01*
X5046875Y4881532D01*
X5047473D01*
X5048270Y4881731D01*
X5048669Y4881930D01*
X5049068Y4882329D01*
X5049267Y4882727D01*
Y4883126D02*
X5049068Y4883525D01*
X5048669Y4883923D01*
X5048270Y4884123D01*
X5047473Y4884322D01*
X5046875D01*
X5046078Y4884123D01*
X5045679Y4883923D01*
X5045280Y4883525D01*
X5045081Y4883126D01*
X5045879Y4885099D02*
X5045679Y4885498D01*
X5045081Y4886096D01*
X5049267D01*
X5045280Y4885897D02*
X5049267D01*
Y4885099D02*
Y4886893D01*
X5024728Y4962966D02*
X5026123Y4967152D01*
X5024728Y4962966D02*
X5023333Y4967152D01*
X5024728Y4963564D02*
X5023532Y4967152D01*
X5025725Y4965956D02*
X5023931D01*
X5026522Y4967152D02*
X5025326D01*
X5024130D02*
X5022934D01*
X5021001Y4962966D02*
X5021599Y4963166D01*
X5021997Y4963564D01*
X5022197Y4963963D01*
X5022396Y4964760D01*
Y4965358D01*
X5022197Y4966155D01*
X5021997Y4966554D01*
X5021599Y4966953D01*
X5021001Y4967152D01*
X5020602D01*
X5020004Y4966953D01*
X5019606Y4966554D01*
X5019406Y4966155D01*
X5019207Y4965358D01*
Y4964760D01*
X5019406Y4963963D01*
X5019606Y4963564D01*
X5020004Y4963166D01*
X5020602Y4962966D01*
X5021001D01*
X5021400Y4963166D01*
X5021798Y4963564D01*
X5021997Y4963963D01*
X5022197Y4964760D01*
Y4965358D01*
X5021997Y4966155D01*
X5021798Y4966554D01*
X5021400Y4966953D01*
X5021001Y4967152D01*
X5020602D02*
X5020204Y4966953D01*
X5019805Y4966554D01*
X5019606Y4966155D01*
X5019406Y4965358D01*
Y4964760D01*
X5019606Y4963963D01*
X5019805Y4963564D01*
X5020204Y4963166D01*
X5020602Y4962966D01*
X5018629Y4963763D02*
X5018230Y4963564D01*
X5017632Y4962966D01*
Y4967152D01*
X5017832Y4963166D02*
Y4967152D01*
X5018629D02*
X5016835D01*
X5053135Y4963258D02*
Y4967244D01*
X5052945Y4963258D02*
Y4967244D01*
X5053704Y4963258D02*
X5051427D01*
X5050857Y4963448D01*
X5050668Y4963638D01*
X5050478Y4964017D01*
Y4964397D01*
X5050668Y4964777D01*
X5050857Y4964967D01*
X5051427Y4965156D01*
Y4963258D02*
X5051047Y4963448D01*
X5050857Y4963638D01*
X5050668Y4964017D01*
Y4964397D01*
X5050857Y4964777D01*
X5051047Y4964967D01*
X5051427Y4965156D01*
X5052945D02*
X5051427D01*
X5050857Y4965346D01*
X5050668Y4965536D01*
X5050478Y4965916D01*
Y4966485D01*
X5050668Y4966864D01*
X5050857Y4967054D01*
X5051427Y4967244D01*
X5053704D01*
X5051427Y4965156D02*
X5051047Y4965346D01*
X5050857Y4965536D01*
X5050668Y4965916D01*
Y4966485D01*
X5050857Y4966864D01*
X5051047Y4967054D01*
X5051427Y4967244D01*
X5048618Y4963258D02*
X5049187Y4963448D01*
X5049567Y4963828D01*
X5049757Y4964207D01*
X5049946Y4964967D01*
Y4965536D01*
X5049757Y4966295D01*
X5049567Y4966675D01*
X5049187Y4967054D01*
X5048618Y4967244D01*
X5048238D01*
X5047669Y4967054D01*
X5047289Y4966675D01*
X5047099Y4966295D01*
X5046910Y4965536D01*
Y4964967D01*
X5047099Y4964207D01*
X5047289Y4963828D01*
X5047669Y4963448D01*
X5048238Y4963258D01*
X5048618D01*
X5048997Y4963448D01*
X5049377Y4963828D01*
X5049567Y4964207D01*
X5049757Y4964967D01*
Y4965536D01*
X5049567Y4966295D01*
X5049377Y4966675D01*
X5048997Y4967054D01*
X5048618Y4967244D01*
X5048238D02*
X5047858Y4967054D01*
X5047479Y4966675D01*
X5047289Y4966295D01*
X5047099Y4965536D01*
Y4964967D01*
X5047289Y4964207D01*
X5047479Y4963828D01*
X5047858Y4963448D01*
X5048238Y4963258D01*
X5046359Y4964017D02*
X5045980Y4963828D01*
X5045410Y4963258D01*
Y4967244D01*
X5045600Y4963448D02*
Y4967244D01*
X5046359D02*
X5044651D01*
X5061204Y4878728D02*
X5065189D01*
X5061204Y4878917D02*
X5065189D01*
X5061204Y4878158D02*
Y4880436D01*
X5061393Y4881005D01*
X5061583Y4881195D01*
X5061963Y4881385D01*
X5062342D01*
X5062722Y4881195D01*
X5062912Y4881005D01*
X5063102Y4880436D01*
X5061204D02*
X5061393Y4880816D01*
X5061583Y4881005D01*
X5061963Y4881195D01*
X5062342D01*
X5062722Y4881005D01*
X5062912Y4880816D01*
X5063102Y4880436D01*
Y4878917D02*
Y4880436D01*
X5063292Y4881005D01*
X5063481Y4881195D01*
X5063861Y4881385D01*
X5064430D01*
X5064810Y4881195D01*
X5065000Y4881005D01*
X5065189Y4880436D01*
Y4878158D01*
X5063102Y4880436D02*
X5063292Y4880816D01*
X5063481Y4881005D01*
X5063861Y4881195D01*
X5064430D01*
X5064810Y4881005D01*
X5065000Y4880816D01*
X5065189Y4880436D01*
X5061204Y4883245D02*
X5061393Y4882676D01*
X5061773Y4882296D01*
X5062152Y4882106D01*
X5062912Y4881916D01*
X5063481D01*
X5064240Y4882106D01*
X5064620Y4882296D01*
X5065000Y4882676D01*
X5065189Y4883245D01*
Y4883625D01*
X5065000Y4884194D01*
X5064620Y4884573D01*
X5064240Y4884763D01*
X5063481Y4884953D01*
X5062912D01*
X5062152Y4884763D01*
X5061773Y4884573D01*
X5061393Y4884194D01*
X5061204Y4883625D01*
Y4883245D01*
X5061393Y4882865D01*
X5061773Y4882486D01*
X5062152Y4882296D01*
X5062912Y4882106D01*
X5063481D01*
X5064240Y4882296D01*
X5064620Y4882486D01*
X5065000Y4882865D01*
X5065189Y4883245D01*
Y4883625D02*
X5065000Y4884004D01*
X5064620Y4884384D01*
X5064240Y4884573D01*
X5063481Y4884763D01*
X5062912D01*
X5062152Y4884573D01*
X5061773Y4884384D01*
X5061393Y4884004D01*
X5061204Y4883625D01*
X5061963Y4885503D02*
X5061773Y4885883D01*
X5061204Y4886452D01*
X5065189D01*
X5061393Y4886263D02*
X5065189D01*
Y4885503D02*
Y4887212D01*
X5056060Y4878349D02*
X5060046D01*
X5056060Y4878539D02*
X5060046D01*
X5056060Y4877779D02*
Y4880057D01*
X5056250Y4880627D01*
X5056440Y4880816D01*
X5056819Y4881006D01*
X5057199D01*
X5057578Y4880816D01*
X5057768Y4880627D01*
X5057958Y4880057D01*
X5056060D02*
X5056250Y4880437D01*
X5056440Y4880627D01*
X5056819Y4880816D01*
X5057199D01*
X5057578Y4880627D01*
X5057768Y4880437D01*
X5057958Y4880057D01*
Y4878539D02*
Y4880057D01*
X5058148Y4880627D01*
X5058337Y4880816D01*
X5058717Y4881006D01*
X5059286D01*
X5059666Y4880816D01*
X5059856Y4880627D01*
X5060046Y4880057D01*
Y4877779D01*
X5057958Y4880057D02*
X5058148Y4880437D01*
X5058337Y4880627D01*
X5058717Y4880816D01*
X5059286D01*
X5059666Y4880627D01*
X5059856Y4880437D01*
X5060046Y4880057D01*
X5056060Y4882866D02*
X5056250Y4882297D01*
X5056629Y4881917D01*
X5057009Y4881727D01*
X5057768Y4881538D01*
X5058337D01*
X5059097Y4881727D01*
X5059476Y4881917D01*
X5059856Y4882297D01*
X5060046Y4882866D01*
Y4883246D01*
X5059856Y4883815D01*
X5059476Y4884195D01*
X5059097Y4884385D01*
X5058337Y4884574D01*
X5057768D01*
X5057009Y4884385D01*
X5056629Y4884195D01*
X5056250Y4883815D01*
X5056060Y4883246D01*
Y4882866D01*
X5056250Y4882486D01*
X5056629Y4882107D01*
X5057009Y4881917D01*
X5057768Y4881727D01*
X5058337D01*
X5059097Y4881917D01*
X5059476Y4882107D01*
X5059856Y4882486D01*
X5060046Y4882866D01*
Y4883246D02*
X5059856Y4883625D01*
X5059476Y4884005D01*
X5059097Y4884195D01*
X5058337Y4884385D01*
X5057768D01*
X5057009Y4884195D01*
X5056629Y4884005D01*
X5056250Y4883625D01*
X5056060Y4883246D01*
X5056819Y4885315D02*
X5057009Y4885504D01*
X5057199Y4885315D01*
X5057009Y4885125D01*
X5056819D01*
X5056440Y4885315D01*
X5056250Y4885504D01*
X5056060Y4886074D01*
Y4886833D01*
X5056250Y4887402D01*
X5056440Y4887592D01*
X5056819Y4887782D01*
X5057199D01*
X5057578Y4887592D01*
X5057958Y4887023D01*
X5058337Y4886074D01*
X5058527Y4885694D01*
X5058907Y4885315D01*
X5059476Y4885125D01*
X5060046D01*
X5056060Y4886833D02*
X5056250Y4887212D01*
X5056440Y4887402D01*
X5056819Y4887592D01*
X5057199D01*
X5057578Y4887402D01*
X5057958Y4886833D01*
X5058337Y4886074D01*
X5059666Y4885125D02*
X5059476Y4885315D01*
Y4885694D01*
X5059856Y4886643D01*
Y4887212D01*
X5059666Y4887592D01*
X5059476Y4887782D01*
X5059097D01*
X5059476Y4885694D02*
X5060046Y4886643D01*
Y4887402D01*
X5059856Y4887592D01*
X5059476Y4887782D01*
X5067875Y4963417D02*
Y4967403D01*
X5067685Y4963417D02*
Y4967403D01*
X5068444Y4963417D02*
X5066167D01*
X5065598Y4963607D01*
X5065408Y4963797D01*
X5065218Y4964176D01*
Y4964556D01*
X5065408Y4964935D01*
X5065598Y4965125D01*
X5066167Y4965315D01*
Y4963417D02*
X5065787Y4963607D01*
X5065598Y4963797D01*
X5065408Y4964176D01*
Y4964556D01*
X5065598Y4964935D01*
X5065787Y4965125D01*
X5066167Y4965315D01*
X5067685D02*
X5066167D01*
X5065598Y4965505D01*
X5065408Y4965694D01*
X5065218Y4966074D01*
Y4966644D01*
X5065408Y4967023D01*
X5065598Y4967213D01*
X5066167Y4967403D01*
X5068444D01*
X5066167Y4965315D02*
X5065787Y4965505D01*
X5065598Y4965694D01*
X5065408Y4966074D01*
Y4966644D01*
X5065598Y4967023D01*
X5065787Y4967213D01*
X5066167Y4967403D01*
X5063358Y4963417D02*
X5063927Y4963607D01*
X5064307Y4963987D01*
X5064497Y4964366D01*
X5064687Y4965125D01*
Y4965694D01*
X5064497Y4966454D01*
X5064307Y4966833D01*
X5063927Y4967213D01*
X5063358Y4967403D01*
X5062978D01*
X5062409Y4967213D01*
X5062029Y4966833D01*
X5061840Y4966454D01*
X5061650Y4965694D01*
Y4965125D01*
X5061840Y4964366D01*
X5062029Y4963987D01*
X5062409Y4963607D01*
X5062978Y4963417D01*
X5063358D01*
X5063737Y4963607D01*
X5064117Y4963987D01*
X5064307Y4964366D01*
X5064497Y4965125D01*
Y4965694D01*
X5064307Y4966454D01*
X5064117Y4966833D01*
X5063737Y4967213D01*
X5063358Y4967403D01*
X5062978D02*
X5062599Y4967213D01*
X5062219Y4966833D01*
X5062029Y4966454D01*
X5061840Y4965694D01*
Y4965125D01*
X5062029Y4964366D01*
X5062219Y4963987D01*
X5062599Y4963607D01*
X5062978Y4963417D01*
X5060910Y4964176D02*
X5060720Y4964366D01*
X5060910Y4964556D01*
X5061099Y4964366D01*
Y4964176D01*
X5060910Y4963797D01*
X5060720Y4963607D01*
X5060150Y4963417D01*
X5059391D01*
X5058822Y4963607D01*
X5058632Y4963797D01*
X5058442Y4964176D01*
Y4964556D01*
X5058632Y4964935D01*
X5059201Y4965315D01*
X5060150Y4965694D01*
X5060530Y4965884D01*
X5060910Y4966264D01*
X5061099Y4966833D01*
Y4967403D01*
X5059391Y4963417D02*
X5059011Y4963607D01*
X5058822Y4963797D01*
X5058632Y4964176D01*
Y4964556D01*
X5058822Y4964935D01*
X5059391Y4965315D01*
X5060150Y4965694D01*
X5061099Y4967023D02*
X5060910Y4966833D01*
X5060530D01*
X5059581Y4967213D01*
X5059011D01*
X5058632Y4967023D01*
X5058442Y4966833D01*
Y4966454D01*
X5060530Y4966833D02*
X5059581Y4967403D01*
X5058822D01*
X5058632Y4967213D01*
X5058442Y4966833D01*
X5064390Y4971854D02*
Y4974440D01*
X5064267Y4971854D02*
Y4974440D01*
X5064759Y4971854D02*
X5063282D01*
X5062912Y4971977D01*
X5062789Y4972100D01*
X5062666Y4972347D01*
Y4972593D01*
X5062789Y4972839D01*
X5062912Y4972963D01*
X5063282Y4973086D01*
Y4971854D02*
X5063036Y4971977D01*
X5062912Y4972100D01*
X5062789Y4972347D01*
Y4972593D01*
X5062912Y4972839D01*
X5063036Y4972963D01*
X5063282Y4973086D01*
X5064267D02*
X5063282D01*
X5062912Y4973209D01*
X5062789Y4973332D01*
X5062666Y4973578D01*
Y4973948D01*
X5062789Y4974194D01*
X5062912Y4974317D01*
X5063282Y4974440D01*
X5064759D01*
X5063282Y4973086D02*
X5063036Y4973209D01*
X5062912Y4973332D01*
X5062789Y4973578D01*
Y4973948D01*
X5062912Y4974194D01*
X5063036Y4974317D01*
X5063282Y4974440D01*
X5061459Y4971854D02*
X5061829Y4971977D01*
X5062075Y4972224D01*
X5062198Y4972470D01*
X5062321Y4972963D01*
Y4973332D01*
X5062198Y4973824D01*
X5062075Y4974071D01*
X5061829Y4974317D01*
X5061459Y4974440D01*
X5061213D01*
X5060843Y4974317D01*
X5060597Y4974071D01*
X5060474Y4973824D01*
X5060351Y4973332D01*
Y4972963D01*
X5060474Y4972470D01*
X5060597Y4972224D01*
X5060843Y4971977D01*
X5061213Y4971854D01*
X5061459D01*
X5061705Y4971977D01*
X5061952Y4972224D01*
X5062075Y4972470D01*
X5062198Y4972963D01*
Y4973332D01*
X5062075Y4973824D01*
X5061952Y4974071D01*
X5061705Y4974317D01*
X5061459Y4974440D01*
X5061213D02*
X5060966Y4974317D01*
X5060720Y4974071D01*
X5060597Y4973824D01*
X5060474Y4973332D01*
Y4972963D01*
X5060597Y4972470D01*
X5060720Y4972224D01*
X5060966Y4971977D01*
X5061213Y4971854D01*
X5059871Y4972347D02*
X5059747Y4972470D01*
X5059871Y4972593D01*
X5059994Y4972470D01*
Y4972347D01*
X5059871Y4972100D01*
X5059747Y4971977D01*
X5059378Y4971854D01*
X5058886D01*
X5058516Y4971977D01*
X5058393Y4972100D01*
X5058270Y4972347D01*
Y4972593D01*
X5058393Y4972839D01*
X5058762Y4973086D01*
X5059378Y4973332D01*
X5059624Y4973455D01*
X5059871Y4973701D01*
X5059994Y4974071D01*
Y4974440D01*
X5058886Y4971854D02*
X5058639Y4971977D01*
X5058516Y4972100D01*
X5058393Y4972347D01*
Y4972593D01*
X5058516Y4972839D01*
X5058886Y4973086D01*
X5059378Y4973332D01*
X5059994Y4974194D02*
X5059871Y4974071D01*
X5059624D01*
X5059008Y4974317D01*
X5058639D01*
X5058393Y4974194D01*
X5058270Y4974071D01*
Y4973824D01*
X5059624Y4974071D02*
X5059008Y4974440D01*
X5058516D01*
X5058393Y4974317D01*
X5058270Y4974071D01*
X5054343Y4867419D02*
Y4870005D01*
X5054220Y4867419D02*
Y4870005D01*
X5054713Y4867419D02*
X5053235D01*
X5052865Y4867542D01*
X5052742Y4867665D01*
X5052619Y4867912D01*
Y4868158D01*
X5052742Y4868404D01*
X5052865Y4868527D01*
X5053235Y4868650D01*
Y4867419D02*
X5052988Y4867542D01*
X5052865Y4867665D01*
X5052742Y4867912D01*
Y4868158D01*
X5052865Y4868404D01*
X5052988Y4868527D01*
X5053235Y4868650D01*
X5054220D02*
X5053235D01*
X5052865Y4868774D01*
X5052742Y4868897D01*
X5052619Y4869143D01*
Y4869513D01*
X5052742Y4869759D01*
X5052865Y4869882D01*
X5053235Y4870005D01*
X5054713D01*
X5053235Y4868650D02*
X5052988Y4868774D01*
X5052865Y4868897D01*
X5052742Y4869143D01*
Y4869513D01*
X5052865Y4869759D01*
X5052988Y4869882D01*
X5053235Y4870005D01*
X5051412Y4867419D02*
X5051782Y4867542D01*
X5052028Y4867788D01*
X5052151Y4868035D01*
X5052274Y4868527D01*
Y4868897D01*
X5052151Y4869389D01*
X5052028Y4869636D01*
X5051782Y4869882D01*
X5051412Y4870005D01*
X5051166D01*
X5050797Y4869882D01*
X5050550Y4869636D01*
X5050427Y4869389D01*
X5050304Y4868897D01*
Y4868527D01*
X5050427Y4868035D01*
X5050550Y4867788D01*
X5050797Y4867542D01*
X5051166Y4867419D01*
X5051412D01*
X5051659Y4867542D01*
X5051905Y4867788D01*
X5052028Y4868035D01*
X5052151Y4868527D01*
Y4868897D01*
X5052028Y4869389D01*
X5051905Y4869636D01*
X5051659Y4869882D01*
X5051412Y4870005D01*
X5051166D02*
X5050920Y4869882D01*
X5050673Y4869636D01*
X5050550Y4869389D01*
X5050427Y4868897D01*
Y4868527D01*
X5050550Y4868035D01*
X5050673Y4867788D01*
X5050920Y4867542D01*
X5051166Y4867419D01*
X5049824Y4867912D02*
X5049701Y4868035D01*
X5049824Y4868158D01*
X5049947Y4868035D01*
Y4867912D01*
X5049824Y4867665D01*
X5049701Y4867542D01*
X5049331Y4867419D01*
X5048838D01*
X5048469Y4867542D01*
X5048346Y4867665D01*
X5048223Y4867912D01*
Y4868158D01*
X5048346Y4868404D01*
X5048715Y4868650D01*
X5049331Y4868897D01*
X5049577Y4869020D01*
X5049824Y4869266D01*
X5049947Y4869636D01*
Y4870005D01*
X5048838Y4867419D02*
X5048592Y4867542D01*
X5048469Y4867665D01*
X5048346Y4867912D01*
Y4868158D01*
X5048469Y4868404D01*
X5048838Y4868650D01*
X5049331Y4868897D01*
X5049947Y4869759D02*
X5049824Y4869636D01*
X5049577D01*
X5048962Y4869882D01*
X5048592D01*
X5048346Y4869759D01*
X5048223Y4869636D01*
Y4869389D01*
X5049577Y4869636D02*
X5048962Y4870005D01*
X5048469D01*
X5048346Y4869882D01*
X5048223Y4869636D01*
X5064190Y4867363D02*
Y4869949D01*
X5064067Y4867363D02*
Y4869949D01*
X5064560Y4867363D02*
X5063082D01*
X5062712Y4867486D01*
X5062590Y4867609D01*
X5062466Y4867855D01*
Y4868102D01*
X5062590Y4868348D01*
X5062712Y4868471D01*
X5063082Y4868594D01*
Y4867363D02*
X5062836Y4867486D01*
X5062712Y4867609D01*
X5062590Y4867855D01*
Y4868102D01*
X5062712Y4868348D01*
X5062836Y4868471D01*
X5063082Y4868594D01*
X5064067D02*
X5063082D01*
X5062712Y4868717D01*
X5062590Y4868840D01*
X5062466Y4869087D01*
Y4869456D01*
X5062590Y4869703D01*
X5062712Y4869826D01*
X5063082Y4869949D01*
X5064560D01*
X5063082Y4868594D02*
X5062836Y4868717D01*
X5062712Y4868840D01*
X5062590Y4869087D01*
Y4869456D01*
X5062712Y4869703D01*
X5062836Y4869826D01*
X5063082Y4869949D01*
X5061259Y4867363D02*
X5061629Y4867486D01*
X5061875Y4867732D01*
X5061998Y4867979D01*
X5062122Y4868471D01*
Y4868840D01*
X5061998Y4869333D01*
X5061875Y4869579D01*
X5061629Y4869826D01*
X5061259Y4869949D01*
X5061013D01*
X5060644Y4869826D01*
X5060397Y4869579D01*
X5060274Y4869333D01*
X5060151Y4868840D01*
Y4868471D01*
X5060274Y4867979D01*
X5060397Y4867732D01*
X5060644Y4867486D01*
X5061013Y4867363D01*
X5061259D01*
X5061506Y4867486D01*
X5061752Y4867732D01*
X5061875Y4867979D01*
X5061998Y4868471D01*
Y4868840D01*
X5061875Y4869333D01*
X5061752Y4869579D01*
X5061506Y4869826D01*
X5061259Y4869949D01*
X5061013D02*
X5060767Y4869826D01*
X5060521Y4869579D01*
X5060397Y4869333D01*
X5060274Y4868840D01*
Y4868471D01*
X5060397Y4867979D01*
X5060521Y4867732D01*
X5060767Y4867486D01*
X5061013Y4867363D01*
X5059794Y4867855D02*
X5059548Y4867732D01*
X5059179Y4867363D01*
Y4869949D01*
X5059301Y4867486D02*
Y4869949D01*
X5059794D02*
X5058686D01*
X5054497Y4971885D02*
Y4974471D01*
X5054374Y4971885D02*
Y4974471D01*
X5054866Y4971885D02*
X5053388D01*
X5053019Y4972008D01*
X5052896Y4972131D01*
X5052773Y4972377D01*
Y4972624D01*
X5052896Y4972870D01*
X5053019Y4972993D01*
X5053388Y4973116D01*
Y4971885D02*
X5053142Y4972008D01*
X5053019Y4972131D01*
X5052896Y4972377D01*
Y4972624D01*
X5053019Y4972870D01*
X5053142Y4972993D01*
X5053388Y4973116D01*
X5054374D02*
X5053388D01*
X5053019Y4973240D01*
X5052896Y4973363D01*
X5052773Y4973609D01*
Y4973978D01*
X5052896Y4974224D01*
X5053019Y4974348D01*
X5053388Y4974471D01*
X5054866D01*
X5053388Y4973116D02*
X5053142Y4973240D01*
X5053019Y4973363D01*
X5052896Y4973609D01*
Y4973978D01*
X5053019Y4974224D01*
X5053142Y4974348D01*
X5053388Y4974471D01*
X5051566Y4971885D02*
X5051935Y4972008D01*
X5052182Y4972254D01*
X5052305Y4972501D01*
X5052428Y4972993D01*
Y4973363D01*
X5052305Y4973855D01*
X5052182Y4974102D01*
X5051935Y4974348D01*
X5051566Y4974471D01*
X5051320D01*
X5050950Y4974348D01*
X5050704Y4974102D01*
X5050581Y4973855D01*
X5050457Y4973363D01*
Y4972993D01*
X5050581Y4972501D01*
X5050704Y4972254D01*
X5050950Y4972008D01*
X5051320Y4971885D01*
X5051566D01*
X5051812Y4972008D01*
X5052058Y4972254D01*
X5052182Y4972501D01*
X5052305Y4972993D01*
Y4973363D01*
X5052182Y4973855D01*
X5052058Y4974102D01*
X5051812Y4974348D01*
X5051566Y4974471D01*
X5051320D02*
X5051073Y4974348D01*
X5050827Y4974102D01*
X5050704Y4973855D01*
X5050581Y4973363D01*
Y4972993D01*
X5050704Y4972501D01*
X5050827Y4972254D01*
X5051073Y4972008D01*
X5051320Y4971885D01*
X5050100Y4972377D02*
X5049854Y4972254D01*
X5049485Y4971885D01*
Y4974471D01*
X5049608Y4972008D02*
Y4974471D01*
X5050100D02*
X5048992D01*
X5035850Y4971926D02*
X5036712Y4974512D01*
X5035850Y4971926D02*
X5034988Y4974512D01*
X5035850Y4972295D02*
X5035111Y4974512D01*
X5036465Y4973773D02*
X5035357D01*
X5036958Y4974512D02*
X5036219D01*
X5035480D02*
X5034741D01*
X5033547Y4971926D02*
X5033916Y4972049D01*
X5034163Y4972295D01*
X5034286Y4972541D01*
X5034409Y4973034D01*
Y4973404D01*
X5034286Y4973896D01*
X5034163Y4974142D01*
X5033916Y4974389D01*
X5033547Y4974512D01*
X5033300D01*
X5032931Y4974389D01*
X5032685Y4974142D01*
X5032561Y4973896D01*
X5032439Y4973404D01*
Y4973034D01*
X5032561Y4972541D01*
X5032685Y4972295D01*
X5032931Y4972049D01*
X5033300Y4971926D01*
X5033547D01*
X5033793Y4972049D01*
X5034039Y4972295D01*
X5034163Y4972541D01*
X5034286Y4973034D01*
Y4973404D01*
X5034163Y4973896D01*
X5034039Y4974142D01*
X5033793Y4974389D01*
X5033547Y4974512D01*
X5033300D02*
X5033054Y4974389D01*
X5032808Y4974142D01*
X5032685Y4973896D01*
X5032561Y4973404D01*
Y4973034D01*
X5032685Y4972541D01*
X5032808Y4972295D01*
X5033054Y4972049D01*
X5033300Y4971926D01*
X5031958Y4972418D02*
X5031835Y4972541D01*
X5031958Y4972665D01*
X5032081Y4972541D01*
Y4972418D01*
X5031958Y4972172D01*
X5031835Y4972049D01*
X5031466Y4971926D01*
X5030973D01*
X5030604Y4972049D01*
X5030481Y4972172D01*
X5030357Y4972418D01*
Y4972665D01*
X5030481Y4972911D01*
X5030850Y4973157D01*
X5031466Y4973404D01*
X5031712Y4973527D01*
X5031958Y4973773D01*
X5032081Y4974142D01*
Y4974512D01*
X5030973Y4971926D02*
X5030727Y4972049D01*
X5030604Y4972172D01*
X5030481Y4972418D01*
Y4972665D01*
X5030604Y4972911D01*
X5030973Y4973157D01*
X5031466Y4973404D01*
X5032081Y4974266D02*
X5031958Y4974142D01*
X5031712D01*
X5031096Y4974389D01*
X5030727D01*
X5030481Y4974266D01*
X5030357Y4974142D01*
Y4973896D01*
X5031712Y4974142D02*
X5031096Y4974512D01*
X5030604D01*
X5030481Y4974389D01*
X5030357Y4974142D01*
X5025890Y4867240D02*
X5026752Y4869826D01*
X5025890Y4867240D02*
X5025028Y4869826D01*
X5025890Y4867609D02*
X5025151Y4869826D01*
X5026505Y4869087D02*
X5025397D01*
X5026998Y4869826D02*
X5026259D01*
X5025520D02*
X5024781D01*
X5023587Y4867240D02*
X5023956Y4867363D01*
X5024203Y4867609D01*
X5024326Y4867856D01*
X5024449Y4868348D01*
Y4868718D01*
X5024326Y4869210D01*
X5024203Y4869456D01*
X5023956Y4869703D01*
X5023587Y4869826D01*
X5023341D01*
X5022971Y4869703D01*
X5022725Y4869456D01*
X5022602Y4869210D01*
X5022478Y4868718D01*
Y4868348D01*
X5022602Y4867856D01*
X5022725Y4867609D01*
X5022971Y4867363D01*
X5023341Y4867240D01*
X5023587D01*
X5023833Y4867363D01*
X5024080Y4867609D01*
X5024203Y4867856D01*
X5024326Y4868348D01*
Y4868718D01*
X5024203Y4869210D01*
X5024080Y4869456D01*
X5023833Y4869703D01*
X5023587Y4869826D01*
X5023341D02*
X5023094Y4869703D01*
X5022848Y4869456D01*
X5022725Y4869210D01*
X5022602Y4868718D01*
Y4868348D01*
X5022725Y4867856D01*
X5022848Y4867609D01*
X5023094Y4867363D01*
X5023341Y4867240D01*
X5021998Y4867733D02*
X5021875Y4867856D01*
X5021998Y4867979D01*
X5022121Y4867856D01*
Y4867733D01*
X5021998Y4867486D01*
X5021875Y4867363D01*
X5021506Y4867240D01*
X5021013D01*
X5020644Y4867363D01*
X5020521Y4867486D01*
X5020398Y4867733D01*
Y4867979D01*
X5020521Y4868225D01*
X5020890Y4868472D01*
X5021506Y4868718D01*
X5021752Y4868841D01*
X5021998Y4869087D01*
X5022121Y4869456D01*
Y4869826D01*
X5021013Y4867240D02*
X5020767Y4867363D01*
X5020644Y4867486D01*
X5020521Y4867733D01*
Y4867979D01*
X5020644Y4868225D01*
X5021013Y4868472D01*
X5021506Y4868718D01*
X5022121Y4869580D02*
X5021998Y4869456D01*
X5021752D01*
X5021136Y4869703D01*
X5020767D01*
X5020521Y4869580D01*
X5020398Y4869456D01*
Y4869210D01*
X5021752Y4869456D02*
X5021136Y4869826D01*
X5020644D01*
X5020521Y4869703D01*
X5020398Y4869456D01*
X5035332Y4867291D02*
X5036195Y4869877D01*
X5035332Y4867291D02*
X5034471Y4869877D01*
X5035332Y4867661D02*
X5034594Y4869877D01*
X5035948Y4869138D02*
X5034840D01*
X5036441Y4869877D02*
X5035702D01*
X5034963D02*
X5034224D01*
X5033030Y4867291D02*
X5033399Y4867414D01*
X5033646Y4867661D01*
X5033769Y4867907D01*
X5033892Y4868399D01*
Y4868769D01*
X5033769Y4869262D01*
X5033646Y4869508D01*
X5033399Y4869754D01*
X5033030Y4869877D01*
X5032784D01*
X5032414Y4869754D01*
X5032168Y4869508D01*
X5032045Y4869262D01*
X5031921Y4868769D01*
Y4868399D01*
X5032045Y4867907D01*
X5032168Y4867661D01*
X5032414Y4867414D01*
X5032784Y4867291D01*
X5033030D01*
X5033276Y4867414D01*
X5033522Y4867661D01*
X5033646Y4867907D01*
X5033769Y4868399D01*
Y4868769D01*
X5033646Y4869262D01*
X5033522Y4869508D01*
X5033276Y4869754D01*
X5033030Y4869877D01*
X5032784D02*
X5032537Y4869754D01*
X5032291Y4869508D01*
X5032168Y4869262D01*
X5032045Y4868769D01*
Y4868399D01*
X5032168Y4867907D01*
X5032291Y4867661D01*
X5032537Y4867414D01*
X5032784Y4867291D01*
X5031564Y4867784D02*
X5031318Y4867661D01*
X5030949Y4867291D01*
Y4869877D01*
X5031072Y4867414D02*
Y4869877D01*
X5031564D02*
X5030456D01*
X5025854Y4971869D02*
X5026716Y4974456D01*
X5025854Y4971869D02*
X5024992Y4974456D01*
X5025854Y4972239D02*
X5025115Y4974456D01*
X5026469Y4973717D02*
X5025361D01*
X5026962Y4974456D02*
X5026223D01*
X5025484D02*
X5024746D01*
X5023551Y4971869D02*
X5023920Y4971992D01*
X5024167Y4972239D01*
X5024290Y4972485D01*
X5024413Y4972978D01*
Y4973347D01*
X5024290Y4973840D01*
X5024167Y4974086D01*
X5023920Y4974332D01*
X5023551Y4974456D01*
X5023305D01*
X5022935Y4974332D01*
X5022689Y4974086D01*
X5022566Y4973840D01*
X5022443Y4973347D01*
Y4972978D01*
X5022566Y4972485D01*
X5022689Y4972239D01*
X5022935Y4971992D01*
X5023305Y4971869D01*
X5023551D01*
X5023797Y4971992D01*
X5024044Y4972239D01*
X5024167Y4972485D01*
X5024290Y4972978D01*
Y4973347D01*
X5024167Y4973840D01*
X5024044Y4974086D01*
X5023797Y4974332D01*
X5023551Y4974456D01*
X5023305D02*
X5023058Y4974332D01*
X5022812Y4974086D01*
X5022689Y4973840D01*
X5022566Y4973347D01*
Y4972978D01*
X5022689Y4972485D01*
X5022812Y4972239D01*
X5023058Y4971992D01*
X5023305Y4971869D01*
X5022086Y4972362D02*
X5021840Y4972239D01*
X5021470Y4971869D01*
Y4974456D01*
X5021593Y4971992D02*
Y4974456D01*
X5022086D02*
X5020977D01*
X5075904Y4994565D02*
X5075375Y4996151D01*
X5075829Y4994565D02*
X5075375Y4995925D01*
X5074847Y4994565D02*
X5075375Y4996151D01*
X5076055Y4994565D02*
X5075602D01*
X5075149D02*
X5074696D01*
X5074265D02*
Y4996151D01*
X5074189Y4994565D02*
Y4996151D01*
X5074492Y4994565D02*
X5073963D01*
X5074492Y4996151D02*
X5073359D01*
Y4995698D01*
X5073434Y4996151D01*
X5072905Y4994565D02*
Y4996151D01*
X5072830Y4994565D02*
X5071923Y4996000D01*
X5072830Y4994716D02*
X5071923Y4996151D01*
Y4994565D02*
Y4996151D01*
X5073132Y4994565D02*
X5072830D01*
X5072150D02*
X5071697D01*
X5073132Y4996151D02*
X5072679D01*
X5074639Y4985026D02*
X5074544Y4985310D01*
Y4984742D01*
X5074639Y4985026D01*
X5074828Y4984837D01*
X5075112Y4984742D01*
X5075301D01*
X5075585Y4984837D01*
X5075774Y4985026D01*
X5075868Y4985215D01*
X5075963Y4985499D01*
Y4985972D01*
X5075868Y4986256D01*
X5075774Y4986445D01*
X5075585Y4986634D01*
X5075301Y4986729D01*
X5075112D01*
X5074828Y4986634D01*
X5074639Y4986445D01*
X5075301Y4984742D02*
X5075490Y4984837D01*
X5075679Y4985026D01*
X5075774Y4985215D01*
X5075868Y4985499D01*
Y4985972D01*
X5075774Y4986256D01*
X5075679Y4986445D01*
X5075490Y4986634D01*
X5075301Y4986729D01*
X5074639Y4985972D02*
Y4986729D01*
X5074544Y4985972D02*
Y4986729D01*
X5074923Y4985972D02*
X5074261D01*
X5073721Y4984742D02*
Y4986729D01*
X5073627Y4984742D02*
X5072492Y4986539D01*
X5073627Y4984932D02*
X5072492Y4986729D01*
Y4984742D02*
Y4986729D01*
X5074005Y4984742D02*
X5073627D01*
X5072776D02*
X5072208D01*
X5074005Y4986729D02*
X5073438D01*
X5071679Y4984742D02*
Y4986729D01*
X5071584Y4984742D02*
Y4986729D01*
X5071962Y4984742D02*
X5071016D01*
X5070733Y4984837D01*
X5070544Y4985026D01*
X5070449Y4985215D01*
X5070354Y4985499D01*
Y4985972D01*
X5070449Y4986256D01*
X5070544Y4986445D01*
X5070733Y4986634D01*
X5071016Y4986729D01*
X5071962D01*
X5071016Y4984742D02*
X5070827Y4984837D01*
X5070638Y4985026D01*
X5070544Y4985215D01*
X5070449Y4985499D01*
Y4985972D01*
X5070544Y4986256D01*
X5070638Y4986445D01*
X5070827Y4986634D01*
X5071016Y4986729D01*
X5075930Y4974773D02*
Y4976759D01*
X5075835Y4974773D02*
Y4976759D01*
X5076214Y4974773D02*
X5075079D01*
X5074795Y4974867D01*
X5074701Y4974962D01*
X5074606Y4975151D01*
Y4975340D01*
X5074701Y4975529D01*
X5074795Y4975624D01*
X5075079Y4975718D01*
X5075835D01*
X5075079Y4974773D02*
X5074890Y4974867D01*
X5074795Y4974962D01*
X5074701Y4975151D01*
Y4975340D01*
X5074795Y4975529D01*
X5074890Y4975624D01*
X5075079Y4975718D01*
X5076214Y4976759D02*
X5075552D01*
X5075363Y4975718D02*
X5075174Y4975813D01*
X5075079Y4975908D01*
X5074795Y4976569D01*
X5074701Y4976664D01*
X5074606D01*
X5074511Y4976569D01*
X5075174Y4975813D02*
X5075079Y4976002D01*
X5074890Y4976664D01*
X5074795Y4976759D01*
X5074606D01*
X5074511Y4976569D01*
Y4976475D01*
X5073027Y4975056D02*
X5072932Y4974773D01*
Y4975340D01*
X5073027Y4975056D01*
X5073215Y4974867D01*
X5073499Y4974773D01*
X5073783D01*
X5074067Y4974867D01*
X5074256Y4975056D01*
Y4975245D01*
X5074162Y4975434D01*
X5074067Y4975529D01*
X5073878Y4975624D01*
X5073310Y4975813D01*
X5073121Y4975908D01*
X5072932Y4976097D01*
X5074256Y4975245D02*
X5074067Y4975434D01*
X5073878Y4975529D01*
X5073310Y4975718D01*
X5073121Y4975813D01*
X5073027Y4975908D01*
X5072932Y4976097D01*
Y4976475D01*
X5073121Y4976664D01*
X5073405Y4976759D01*
X5073689D01*
X5073972Y4976664D01*
X5074162Y4976475D01*
X5074256Y4976191D01*
Y4976759D01*
X5074162Y4976475D01*
X5071976Y4974773D02*
Y4976759D01*
X5071882Y4974773D02*
Y4976759D01*
X5072544Y4974773D02*
X5072639Y4975340D01*
Y4974773D01*
X5071220D01*
Y4975340D01*
X5071315Y4974773D01*
X5072260Y4976759D02*
X5071598D01*
X5075707Y4964803D02*
X5075896Y4965748D01*
X5075707Y4965559D01*
X5075423Y4965464D01*
X5075140D01*
X5074856Y4965559D01*
X5074667Y4965748D01*
X5074572Y4966032D01*
Y4966221D01*
X5074667Y4966505D01*
X5074856Y4966694D01*
X5075140Y4966788D01*
X5075423D01*
X5075707Y4966694D01*
X5075802Y4966599D01*
X5075896Y4966410D01*
Y4966316D01*
X5075802Y4966221D01*
X5075707Y4966316D01*
X5075802Y4966410D01*
X5075140Y4965464D02*
X5074951Y4965559D01*
X5074762Y4965748D01*
X5074667Y4966032D01*
Y4966221D01*
X5074762Y4966505D01*
X5074951Y4966694D01*
X5075140Y4966788D01*
X5075707Y4964803D02*
X5074762D01*
X5075707Y4964897D02*
X5075234D01*
X5074762Y4964803D01*
X5074090D02*
X5073428Y4966788D01*
X5073996Y4964803D02*
X5073428Y4966505D01*
X5072766Y4964803D02*
X5073428Y4966788D01*
X5074279Y4964803D02*
X5073712D01*
X5073144D02*
X5072577D01*
X5075173Y4954704D02*
X5075835Y4956691D01*
X5075173Y4954704D02*
X5074511Y4956691D01*
X5075173Y4954988D02*
X5074606Y4956691D01*
X5075646Y4956123D02*
X5074795D01*
X5076024Y4956691D02*
X5075457D01*
X5074889D02*
X5074322D01*
X5074067Y4954704D02*
Y4955272D01*
Y4955083D02*
X5073972Y4954893D01*
X5073783Y4954704D01*
X5073594D01*
X5073121Y4954988D01*
X5072932D01*
X5072837Y4954893D01*
X5072742Y4954704D01*
X5073972Y4954893D02*
X5073783Y4954799D01*
X5073594D01*
X5073121Y4954988D01*
X5072742Y4954704D02*
Y4954988D01*
X5072837Y4955272D01*
X5073215Y4955745D01*
X5073310Y4955934D01*
X5073404Y4956218D01*
Y4956691D01*
X5072837Y4955272D02*
X5073310Y4955745D01*
X5073404Y4955934D01*
X5073499Y4956218D01*
Y4956691D01*
X5075045Y4944734D02*
X5075707Y4946721D01*
X5075045Y4944734D02*
X5074383Y4946721D01*
X5075045Y4945018D02*
X5074478Y4946721D01*
X5075518Y4946153D02*
X5074667D01*
X5075896Y4946721D02*
X5075329D01*
X5074762D02*
X5074194D01*
X5072804Y4945018D02*
X5072898Y4945113D01*
X5072804Y4945207D01*
X5072709Y4945113D01*
Y4945018D01*
X5072804Y4944829D01*
X5072993Y4944734D01*
X5073277D01*
X5073560Y4944829D01*
X5073750Y4945018D01*
X5073844Y4945207D01*
X5073939Y4945586D01*
Y4946153D01*
X5073844Y4946437D01*
X5073655Y4946626D01*
X5073371Y4946721D01*
X5073182D01*
X5072898Y4946626D01*
X5072709Y4946437D01*
X5072615Y4946153D01*
Y4946058D01*
X5072709Y4945775D01*
X5072898Y4945586D01*
X5073182Y4945491D01*
X5073277D01*
X5073560Y4945586D01*
X5073750Y4945775D01*
X5073844Y4946058D01*
X5073277Y4944734D02*
X5073466Y4944829D01*
X5073655Y4945018D01*
X5073750Y4945207D01*
X5073844Y4945586D01*
Y4946153D01*
X5073750Y4946437D01*
X5073560Y4946626D01*
X5073371Y4946721D01*
X5073182D02*
X5072993Y4946626D01*
X5072804Y4946437D01*
X5072709Y4946153D01*
Y4946058D01*
X5072804Y4945775D01*
X5072993Y4945586D01*
X5073182Y4945491D01*
X5075173Y4934575D02*
X5075835Y4936561D01*
X5075173Y4934575D02*
X5074511Y4936561D01*
X5075173Y4934859D02*
X5074606Y4936561D01*
X5075646Y4935994D02*
X5074795D01*
X5076024Y4936561D02*
X5075457D01*
X5074889D02*
X5074322D01*
X5073877Y4934575D02*
X5074067Y4935521D01*
X5073877Y4935331D01*
X5073594Y4935237D01*
X5073310D01*
X5073026Y4935331D01*
X5072837Y4935521D01*
X5072742Y4935804D01*
Y4935994D01*
X5072837Y4936277D01*
X5073026Y4936466D01*
X5073310Y4936561D01*
X5073594D01*
X5073877Y4936466D01*
X5073972Y4936372D01*
X5074067Y4936183D01*
Y4936088D01*
X5073972Y4935994D01*
X5073877Y4936088D01*
X5073972Y4936183D01*
X5073310Y4935237D02*
X5073121Y4935331D01*
X5072932Y4935521D01*
X5072837Y4935804D01*
Y4935994D01*
X5072932Y4936277D01*
X5073121Y4936466D01*
X5073310Y4936561D01*
X5073877Y4934575D02*
X5072932D01*
X5073877Y4934669D02*
X5073404D01*
X5072932Y4934575D01*
X5075045Y4924671D02*
X5075707Y4926657D01*
X5075045Y4924671D02*
X5074383Y4926657D01*
X5075045Y4924955D02*
X5074478Y4926657D01*
X5075518Y4926090D02*
X5074667D01*
X5075896Y4926657D02*
X5075329D01*
X5074762D02*
X5074194D01*
X5072993Y4924860D02*
Y4926657D01*
X5072425Y4926090D02*
X5073939D01*
X5072898Y4924671D01*
Y4926657D01*
X5073277D02*
X5072615D01*
X5074984Y4914762D02*
X5075646Y4916749D01*
X5074984Y4914762D02*
X5074322Y4916749D01*
X5074984Y4915046D02*
X5074416Y4916749D01*
X5075457Y4916181D02*
X5074606D01*
X5075835Y4916749D02*
X5075267D01*
X5074700D02*
X5074133D01*
X5073783Y4915141D02*
X5073688Y4915236D01*
X5073783Y4915330D01*
X5073877Y4915236D01*
Y4915141D01*
X5073783Y4914952D01*
X5073688Y4914857D01*
X5073404Y4914762D01*
X5073026D01*
X5072742Y4914857D01*
X5072648Y4915046D01*
Y4915330D01*
X5072742Y4915519D01*
X5073026Y4915614D01*
X5073310D01*
X5073026Y4914762D02*
X5072837Y4914857D01*
X5072742Y4915046D01*
Y4915330D01*
X5072837Y4915519D01*
X5073026Y4915614D01*
X5072837Y4915709D01*
X5072648Y4915898D01*
X5072553Y4916087D01*
Y4916370D01*
X5072648Y4916560D01*
X5072742Y4916654D01*
X5073026Y4916749D01*
X5073404D01*
X5073688Y4916654D01*
X5073783Y4916560D01*
X5073877Y4916370D01*
Y4916276D01*
X5073783Y4916181D01*
X5073688Y4916276D01*
X5073783Y4916370D01*
X5072742Y4915803D02*
X5072648Y4916087D01*
Y4916370D01*
X5072742Y4916560D01*
X5072837Y4916654D01*
X5073026Y4916749D01*
X5075045Y4904859D02*
X5075707Y4906845D01*
X5075045Y4904859D02*
X5074383Y4906845D01*
X5075045Y4905143D02*
X5074478Y4906845D01*
X5075518Y4906278D02*
X5074667D01*
X5075896Y4906845D02*
X5075329D01*
X5074762D02*
X5074194D01*
X5073844Y4905238D02*
X5073750Y4905332D01*
X5073844Y4905427D01*
X5073939Y4905332D01*
Y4905238D01*
X5073844Y4905048D01*
X5073750Y4904954D01*
X5073466Y4904859D01*
X5073087D01*
X5072804Y4904954D01*
X5072709Y4905048D01*
X5072615Y4905238D01*
Y4905427D01*
X5072709Y4905616D01*
X5072993Y4905805D01*
X5073466Y4905994D01*
X5073655Y4906089D01*
X5073844Y4906278D01*
X5073939Y4906562D01*
Y4906845D01*
X5073087Y4904859D02*
X5072898Y4904954D01*
X5072804Y4905048D01*
X5072709Y4905238D01*
Y4905427D01*
X5072804Y4905616D01*
X5073087Y4905805D01*
X5073466Y4905994D01*
X5073939Y4906656D02*
X5073844Y4906562D01*
X5073655D01*
X5073182Y4906751D01*
X5072898D01*
X5072709Y4906656D01*
X5072615Y4906562D01*
Y4906372D01*
X5073655Y4906562D02*
X5073182Y4906845D01*
X5072804D01*
X5072709Y4906751D01*
X5072615Y4906562D01*
X5074856Y4894633D02*
X5075518Y4896619D01*
X5074856Y4894633D02*
X5074194Y4896619D01*
X5074856Y4894917D02*
X5074289Y4896619D01*
X5075329Y4896052D02*
X5074478D01*
X5075707Y4896619D02*
X5075140D01*
X5074572D02*
X5074005D01*
X5073749Y4895012D02*
X5073560Y4894917D01*
X5073277Y4894633D01*
Y4896619D01*
X5073371Y4894728D02*
Y4896619D01*
X5073749D02*
X5072898D01*
X5075173Y4884602D02*
X5075835Y4886588D01*
X5075173Y4884602D02*
X5074511Y4886588D01*
X5075173Y4884885D02*
X5074606Y4886588D01*
X5075646Y4886020D02*
X5074795D01*
X5076024Y4886588D02*
X5075457D01*
X5074889D02*
X5074322D01*
X5073499Y4884602D02*
X5073783Y4884696D01*
X5073972Y4884980D01*
X5074067Y4885453D01*
Y4885736D01*
X5073972Y4886209D01*
X5073783Y4886493D01*
X5073499Y4886588D01*
X5073310D01*
X5073026Y4886493D01*
X5072837Y4886209D01*
X5072742Y4885736D01*
Y4885453D01*
X5072837Y4884980D01*
X5073026Y4884696D01*
X5073310Y4884602D01*
X5073499D01*
X5073688Y4884696D01*
X5073783Y4884791D01*
X5073877Y4884980D01*
X5073972Y4885453D01*
Y4885736D01*
X5073877Y4886209D01*
X5073783Y4886399D01*
X5073688Y4886493D01*
X5073499Y4886588D01*
X5073310D02*
X5073121Y4886493D01*
X5073026Y4886399D01*
X5072932Y4886209D01*
X5072837Y4885736D01*
Y4885453D01*
X5072932Y4884980D01*
X5073026Y4884791D01*
X5073121Y4884696D01*
X5073310Y4884602D01*
X5076253Y4874565D02*
X5076915Y4876551D01*
X5076253Y4874565D02*
X5075591Y4876551D01*
X5076253Y4874849D02*
X5075686Y4876551D01*
X5076726Y4875984D02*
X5075875D01*
X5077104Y4876551D02*
X5076537D01*
X5075969D02*
X5075402D01*
X5074863Y4874565D02*
Y4876551D01*
X5074768Y4874565D02*
Y4876551D01*
X5075146Y4874565D02*
X5074012D01*
X5073728Y4874660D01*
X5073633Y4874754D01*
X5073539Y4874943D01*
Y4875132D01*
X5073633Y4875322D01*
X5073728Y4875416D01*
X5074012Y4875511D01*
X5074768D01*
X5074012Y4874565D02*
X5073822Y4874660D01*
X5073728Y4874754D01*
X5073633Y4874943D01*
Y4875132D01*
X5073728Y4875322D01*
X5073822Y4875416D01*
X5074012Y4875511D01*
X5075146Y4876551D02*
X5074484D01*
X5074295Y4875511D02*
X5074106Y4875605D01*
X5074012Y4875700D01*
X5073728Y4876362D01*
X5073633Y4876456D01*
X5073539D01*
X5073444Y4876362D01*
X5074106Y4875605D02*
X5074012Y4875795D01*
X5073822Y4876456D01*
X5073728Y4876551D01*
X5073539D01*
X5073444Y4876362D01*
Y4876268D01*
X5072905Y4874565D02*
Y4876551D01*
X5072810Y4874565D02*
Y4876551D01*
X5072243Y4875132D02*
Y4875889D01*
X5073189Y4874565D02*
X5071675D01*
Y4875132D01*
X5071770Y4874565D01*
X5072810Y4875511D02*
X5072243D01*
X5073189Y4876551D02*
X5071675D01*
Y4875984D01*
X5071770Y4876551D01*
X5071117Y4874565D02*
Y4876551D01*
X5071023Y4874565D02*
Y4876551D01*
X5070455Y4875132D02*
Y4875889D01*
X5071401Y4874565D02*
X5069888D01*
Y4875132D01*
X5069983Y4874565D01*
X5071023Y4875511D02*
X5070455D01*
X5071401Y4876551D02*
X5070739D01*
X5076119Y4865101D02*
X5076025Y4865196D01*
X5076119Y4865290D01*
X5076214Y4865196D01*
Y4865101D01*
X5076119Y4864912D01*
X5076025Y4864817D01*
X5075741Y4864723D01*
X5075363D01*
X5075079Y4864817D01*
X5074984Y4865007D01*
Y4865290D01*
X5075079Y4865480D01*
X5075363Y4865574D01*
X5075646D01*
X5075363Y4864723D02*
X5075174Y4864817D01*
X5075079Y4865007D01*
Y4865290D01*
X5075174Y4865480D01*
X5075363Y4865574D01*
X5075174Y4865669D01*
X5074984Y4865858D01*
X5074890Y4866047D01*
Y4866331D01*
X5074984Y4866520D01*
X5075079Y4866615D01*
X5075363Y4866709D01*
X5075741D01*
X5076025Y4866615D01*
X5076119Y4866520D01*
X5076214Y4866331D01*
Y4866236D01*
X5076119Y4866142D01*
X5076025Y4866236D01*
X5076119Y4866331D01*
X5075079Y4865763D02*
X5074984Y4866047D01*
Y4866331D01*
X5075079Y4866520D01*
X5075174Y4866615D01*
X5075363Y4866709D01*
X5074407Y4864723D02*
X5073745Y4866709D01*
X5074313Y4864723D02*
X5073745Y4866425D01*
X5073083Y4864723D02*
X5073745Y4866709D01*
X5074596Y4864723D02*
X5074029D01*
X5073462D02*
X5072894D01*
X5072544Y4865101D02*
X5072449Y4865196D01*
X5072544Y4865290D01*
X5072639Y4865196D01*
Y4865101D01*
X5072544Y4864912D01*
X5072449Y4864817D01*
X5072166Y4864723D01*
X5071788D01*
X5071504Y4864817D01*
X5071409Y4865007D01*
Y4865290D01*
X5071504Y4865480D01*
X5071788Y4865574D01*
X5072071D01*
X5071788Y4864723D02*
X5071598Y4864817D01*
X5071504Y4865007D01*
Y4865290D01*
X5071598Y4865480D01*
X5071788Y4865574D01*
X5071598Y4865669D01*
X5071409Y4865858D01*
X5071315Y4866047D01*
Y4866331D01*
X5071409Y4866520D01*
X5071504Y4866615D01*
X5071788Y4866709D01*
X5072166D01*
X5072449Y4866615D01*
X5072544Y4866520D01*
X5072639Y4866331D01*
Y4866236D01*
X5072544Y4866142D01*
X5072449Y4866236D01*
X5072544Y4866331D01*
X5071504Y4865763D02*
X5071409Y4866047D01*
Y4866331D01*
X5071504Y4866520D01*
X5071598Y4866615D01*
X5071788Y4866709D01*
X5075485Y4854819D02*
Y4856805D01*
X5075390Y4854819D02*
Y4856805D01*
X5075769Y4854819D02*
X5074823D01*
X5074539Y4854914D01*
X5074350Y4855103D01*
X5074255Y4855292D01*
X5074161Y4855576D01*
Y4856049D01*
X5074255Y4856333D01*
X5074350Y4856522D01*
X5074539Y4856711D01*
X5074823Y4856805D01*
X5075769D01*
X5074823Y4854819D02*
X5074633Y4854914D01*
X5074445Y4855103D01*
X5074350Y4855292D01*
X5074255Y4855576D01*
Y4856049D01*
X5074350Y4856333D01*
X5074445Y4856522D01*
X5074633Y4856711D01*
X5074823Y4856805D01*
X5073896Y4855198D02*
X5073707Y4855103D01*
X5073423Y4854819D01*
Y4856805D01*
X5073518Y4854914D02*
Y4856805D01*
X5073896D02*
X5073045D01*
X5072609Y4855198D02*
X5072515Y4855292D01*
X5072609Y4855387D01*
X5072704Y4855292D01*
Y4855198D01*
X5072609Y4855008D01*
X5072515Y4854914D01*
X5072231Y4854819D01*
X5071853D01*
X5071569Y4854914D01*
X5071474Y4855008D01*
X5071380Y4855198D01*
Y4855387D01*
X5071474Y4855576D01*
X5071758Y4855765D01*
X5072231Y4855954D01*
X5072421Y4856049D01*
X5072609Y4856238D01*
X5072704Y4856522D01*
Y4856805D01*
X5071853Y4854819D02*
X5071664Y4854914D01*
X5071569Y4855008D01*
X5071474Y4855198D01*
Y4855387D01*
X5071569Y4855576D01*
X5071853Y4855765D01*
X5072231Y4855954D01*
X5072704Y4856616D02*
X5072609Y4856522D01*
X5072421D01*
X5071947Y4856711D01*
X5071664D01*
X5071474Y4856616D01*
X5071380Y4856522D01*
Y4856333D01*
X5072421Y4856522D02*
X5071947Y4856805D01*
X5071569D01*
X5071474Y4856711D01*
X5071380Y4856522D01*
X5013863Y4894628D02*
Y4896614D01*
X5013768Y4894628D02*
Y4896614D01*
X5014146Y4894628D02*
X5013201D01*
X5012917Y4894723D01*
X5012728Y4894912D01*
X5012633Y4895101D01*
X5012539Y4895385D01*
Y4895858D01*
X5012633Y4896141D01*
X5012728Y4896331D01*
X5012917Y4896519D01*
X5013201Y4896614D01*
X5014146D01*
X5013201Y4894628D02*
X5013012Y4894723D01*
X5012822Y4894912D01*
X5012728Y4895101D01*
X5012633Y4895385D01*
Y4895858D01*
X5012728Y4896141D01*
X5012822Y4896331D01*
X5013012Y4896519D01*
X5013201Y4896614D01*
X5011801Y4894628D02*
X5012085Y4894723D01*
X5012179Y4894912D01*
Y4895195D01*
X5012085Y4895385D01*
X5011801Y4895479D01*
X5011423D01*
X5011139Y4895385D01*
X5011044Y4895195D01*
Y4894912D01*
X5011139Y4894723D01*
X5011423Y4894628D01*
X5011801D01*
X5011990Y4894723D01*
X5012085Y4894912D01*
Y4895195D01*
X5011990Y4895385D01*
X5011801Y4895479D01*
X5011423D02*
X5011234Y4895385D01*
X5011139Y4895195D01*
Y4894912D01*
X5011234Y4894723D01*
X5011423Y4894628D01*
X5011801Y4895479D02*
X5012085Y4895574D01*
X5012179Y4895668D01*
X5012274Y4895858D01*
Y4896236D01*
X5012179Y4896425D01*
X5012085Y4896519D01*
X5011801Y4896614D01*
X5011423D01*
X5011139Y4896519D01*
X5011044Y4896425D01*
X5010950Y4896236D01*
Y4895858D01*
X5011044Y4895668D01*
X5011139Y4895574D01*
X5011423Y4895479D01*
X5011801D02*
X5011990Y4895574D01*
X5012085Y4895668D01*
X5012179Y4895858D01*
Y4896236D01*
X5012085Y4896425D01*
X5011990Y4896519D01*
X5011801Y4896614D01*
X5011423D02*
X5011234Y4896519D01*
X5011139Y4896425D01*
X5011044Y4896236D01*
Y4895858D01*
X5011139Y4895668D01*
X5011234Y4895574D01*
X5011423Y4895479D01*
X5013776Y4904716D02*
Y4906702D01*
X5013681Y4904716D02*
Y4906702D01*
X5014059Y4904716D02*
X5013114D01*
X5012830Y4904810D01*
X5012641Y4905000D01*
X5012546Y4905189D01*
X5012452Y4905473D01*
Y4905946D01*
X5012546Y4906229D01*
X5012641Y4906418D01*
X5012830Y4906607D01*
X5013114Y4906702D01*
X5014059D01*
X5013114Y4904716D02*
X5012925Y4904810D01*
X5012735Y4905000D01*
X5012641Y4905189D01*
X5012546Y4905473D01*
Y4905946D01*
X5012641Y4906229D01*
X5012735Y4906418D01*
X5012925Y4906607D01*
X5013114Y4906702D01*
X5012187Y4904716D02*
Y4905283D01*
Y4905094D02*
X5012092Y4904905D01*
X5011903Y4904716D01*
X5011714D01*
X5011241Y4905000D01*
X5011052D01*
X5010957Y4904905D01*
X5010863Y4904716D01*
X5012092Y4904905D02*
X5011903Y4904810D01*
X5011714D01*
X5011241Y4905000D01*
X5010863Y4904716D02*
Y4905000D01*
X5010957Y4905283D01*
X5011335Y4905756D01*
X5011430Y4905946D01*
X5011525Y4906229D01*
Y4906702D01*
X5010957Y4905283D02*
X5011430Y4905756D01*
X5011525Y4905946D01*
X5011619Y4906229D01*
Y4906702D01*
X5013520Y4934687D02*
Y4936674D01*
X5013425Y4934687D02*
Y4936674D01*
X5013803Y4934687D02*
X5012858D01*
X5012574Y4934782D01*
X5012385Y4934971D01*
X5012290Y4935160D01*
X5012196Y4935444D01*
Y4935917D01*
X5012290Y4936201D01*
X5012385Y4936390D01*
X5012574Y4936579D01*
X5012858Y4936674D01*
X5013803D01*
X5012858Y4934687D02*
X5012669Y4934782D01*
X5012479Y4934971D01*
X5012385Y4935160D01*
X5012290Y4935444D01*
Y4935917D01*
X5012385Y4936201D01*
X5012479Y4936390D01*
X5012669Y4936579D01*
X5012858Y4936674D01*
X5010985Y4934877D02*
Y4936674D01*
X5010418Y4936106D02*
X5011931D01*
X5010891Y4934687D01*
Y4936674D01*
X5011269D02*
X5010607D01*
X5013985Y4954837D02*
Y4956824D01*
X5013891Y4954837D02*
Y4956824D01*
X5014269Y4954837D02*
X5013324D01*
X5013040Y4954932D01*
X5012851Y4955121D01*
X5012756Y4955310D01*
X5012661Y4955594D01*
Y4956067D01*
X5012756Y4956351D01*
X5012851Y4956540D01*
X5013040Y4956729D01*
X5013324Y4956824D01*
X5014269D01*
X5013324Y4954837D02*
X5013134Y4954932D01*
X5012945Y4955121D01*
X5012851Y4955310D01*
X5012756Y4955594D01*
Y4956067D01*
X5012851Y4956351D01*
X5012945Y4956540D01*
X5013134Y4956729D01*
X5013324Y4956824D01*
X5012302Y4955216D02*
X5012207Y4955310D01*
X5012302Y4955405D01*
X5012397Y4955310D01*
Y4955216D01*
X5012302Y4955027D01*
X5012207Y4954932D01*
X5011924Y4954837D01*
X5011546D01*
X5011262Y4954932D01*
X5011167Y4955027D01*
X5011073Y4955216D01*
Y4955405D01*
X5011167Y4955594D01*
X5011451Y4955783D01*
X5011924Y4955972D01*
X5012113Y4956067D01*
X5012302Y4956256D01*
X5012397Y4956540D01*
Y4956824D01*
X5011546Y4954837D02*
X5011356Y4954932D01*
X5011262Y4955027D01*
X5011167Y4955216D01*
Y4955405D01*
X5011262Y4955594D01*
X5011546Y4955783D01*
X5011924Y4955972D01*
X5012397Y4956635D02*
X5012302Y4956540D01*
X5012113D01*
X5011640Y4956729D01*
X5011356D01*
X5011167Y4956635D01*
X5011073Y4956540D01*
Y4956351D01*
X5012113Y4956540D02*
X5011640Y4956824D01*
X5011262D01*
X5011167Y4956729D01*
X5011073Y4956540D01*
X5012904Y4965240D02*
X5012810Y4965524D01*
Y4964956D01*
X5012904Y4965240D01*
X5013093Y4965051D01*
X5013377Y4964956D01*
X5013566D01*
X5013850Y4965051D01*
X5014039Y4965240D01*
X5014134Y4965429D01*
X5014228Y4965713D01*
Y4966185D01*
X5014134Y4966469D01*
X5014039Y4966658D01*
X5013850Y4966848D01*
X5013566Y4966942D01*
X5013377D01*
X5013093Y4966848D01*
X5012904Y4966658D01*
X5013566Y4964956D02*
X5013755Y4965051D01*
X5013945Y4965240D01*
X5014039Y4965429D01*
X5014134Y4965713D01*
Y4966185D01*
X5014039Y4966469D01*
X5013945Y4966658D01*
X5013755Y4966848D01*
X5013566Y4966942D01*
X5012904Y4966185D02*
Y4966942D01*
X5012810Y4966185D02*
Y4966942D01*
X5013188Y4966185D02*
X5012526D01*
X5011987Y4964956D02*
Y4966942D01*
X5011892Y4964956D02*
X5010757Y4966753D01*
X5011892Y4965145D02*
X5010757Y4966942D01*
Y4964956D02*
Y4966942D01*
X5012270Y4964956D02*
X5011892D01*
X5011041D02*
X5010474D01*
X5012270Y4966942D02*
X5011703D01*
X5009944Y4964956D02*
Y4966942D01*
X5009849Y4964956D02*
Y4966942D01*
X5010228Y4964956D02*
X5009282D01*
X5008998Y4965051D01*
X5008809Y4965240D01*
X5008714Y4965429D01*
X5008620Y4965713D01*
Y4966185D01*
X5008714Y4966469D01*
X5008809Y4966658D01*
X5008998Y4966848D01*
X5009282Y4966942D01*
X5010228D01*
X5009282Y4964956D02*
X5009093Y4965051D01*
X5008904Y4965240D01*
X5008809Y4965429D01*
X5008714Y4965713D01*
Y4966185D01*
X5008809Y4966469D01*
X5008904Y4966658D01*
X5009093Y4966848D01*
X5009282Y4966942D01*
X5014072Y4974905D02*
Y4976892D01*
X5013978Y4974905D02*
Y4976892D01*
X5014356Y4974905D02*
X5013221D01*
X5012938Y4975000D01*
X5012843Y4975095D01*
X5012748Y4975284D01*
Y4975473D01*
X5012843Y4975662D01*
X5012938Y4975757D01*
X5013221Y4975851D01*
X5013978D01*
X5013221Y4974905D02*
X5013032Y4975000D01*
X5012938Y4975095D01*
X5012843Y4975284D01*
Y4975473D01*
X5012938Y4975662D01*
X5013032Y4975757D01*
X5013221Y4975851D01*
X5014356Y4976892D02*
X5013694D01*
X5013505Y4975851D02*
X5013316Y4975946D01*
X5013221Y4976041D01*
X5012938Y4976702D01*
X5012843Y4976797D01*
X5012748D01*
X5012654Y4976702D01*
X5013316Y4975946D02*
X5013221Y4976135D01*
X5013032Y4976797D01*
X5012938Y4976892D01*
X5012748D01*
X5012654Y4976702D01*
Y4976608D01*
X5011169Y4975189D02*
X5011074Y4974905D01*
Y4975473D01*
X5011169Y4975189D01*
X5011358Y4975000D01*
X5011642Y4974905D01*
X5011926D01*
X5012209Y4975000D01*
X5012399Y4975189D01*
Y4975378D01*
X5012304Y4975568D01*
X5012209Y4975662D01*
X5012020Y4975757D01*
X5011453Y4975946D01*
X5011264Y4976041D01*
X5011074Y4976229D01*
X5012399Y4975378D02*
X5012209Y4975568D01*
X5012020Y4975662D01*
X5011453Y4975851D01*
X5011264Y4975946D01*
X5011169Y4976041D01*
X5011074Y4976229D01*
Y4976608D01*
X5011264Y4976797D01*
X5011547Y4976892D01*
X5011831D01*
X5012115Y4976797D01*
X5012304Y4976608D01*
X5012399Y4976324D01*
Y4976892D01*
X5012304Y4976608D01*
X5010119Y4974905D02*
Y4976892D01*
X5010025Y4974905D02*
Y4976892D01*
X5010686Y4974905D02*
X5010781Y4975473D01*
Y4974905D01*
X5009362D01*
Y4975473D01*
X5009457Y4974905D01*
X5010403Y4976892D02*
X5009741D01*
X5013894Y4984886D02*
Y4986872D01*
X5013799Y4984886D02*
Y4986872D01*
X5014177Y4984886D02*
X5013231D01*
X5012948Y4984980D01*
X5012759Y4985170D01*
X5012664Y4985359D01*
X5012569Y4985643D01*
Y4986115D01*
X5012664Y4986399D01*
X5012759Y4986588D01*
X5012948Y4986777D01*
X5013231Y4986872D01*
X5014177D01*
X5013231Y4984886D02*
X5013042Y4984980D01*
X5012853Y4985170D01*
X5012759Y4985359D01*
X5012664Y4985643D01*
Y4986115D01*
X5012759Y4986399D01*
X5012853Y4986588D01*
X5013042Y4986777D01*
X5013231Y4986872D01*
X5011737Y4984886D02*
X5012021Y4984980D01*
X5012210Y4985264D01*
X5012305Y4985737D01*
Y4986021D01*
X5012210Y4986494D01*
X5012021Y4986777D01*
X5011737Y4986872D01*
X5011548D01*
X5011264Y4986777D01*
X5011075Y4986494D01*
X5010980Y4986021D01*
Y4985737D01*
X5011075Y4985264D01*
X5011264Y4984980D01*
X5011548Y4984886D01*
X5011737D01*
X5011926Y4984980D01*
X5012021Y4985075D01*
X5012115Y4985264D01*
X5012210Y4985737D01*
Y4986021D01*
X5012115Y4986494D01*
X5012021Y4986683D01*
X5011926Y4986777D01*
X5011737Y4986872D01*
X5011548D02*
X5011359Y4986777D01*
X5011264Y4986683D01*
X5011169Y4986494D01*
X5011075Y4986021D01*
Y4985737D01*
X5011169Y4985264D01*
X5011264Y4985075D01*
X5011359Y4984980D01*
X5011548Y4984886D01*
X5013699Y4994303D02*
Y4996289D01*
X5013604Y4994303D02*
Y4996289D01*
X5013983Y4994303D02*
X5013037D01*
X5012753Y4994398D01*
X5012564Y4994587D01*
X5012469Y4994776D01*
X5012375Y4995060D01*
Y4995533D01*
X5012469Y4995816D01*
X5012564Y4996006D01*
X5012753Y4996195D01*
X5013037Y4996289D01*
X5013983D01*
X5013037Y4994303D02*
X5012848Y4994398D01*
X5012659Y4994587D01*
X5012564Y4994776D01*
X5012469Y4995060D01*
Y4995533D01*
X5012564Y4995816D01*
X5012659Y4996006D01*
X5012848Y4996195D01*
X5013037Y4996289D01*
X5012110Y4994682D02*
X5011921Y4994587D01*
X5011637Y4994303D01*
Y4996289D01*
X5011732Y4994398D02*
Y4996289D01*
X5012110D02*
X5011259D01*
M02*
