G04*
G04 #@! TF.GenerationSoftware,Altium Limited,Altium Designer,19.0.12 (326)*
G04*
G04 Layer_Color=8421504*
%FSLAX25Y25*%
%MOIN*%
G70*
G01*
G75*
%ADD12R,0.07087X0.01181*%
%ADD13R,0.09843X0.06299*%
%ADD14R,0.06299X0.09843*%
%ADD15R,0.04724X0.04724*%
D12*
X5026860Y4901461D02*
D03*
Y4903902D02*
D03*
X5026896Y4906497D02*
D03*
Y4909051D02*
D03*
X5026931Y4911682D02*
D03*
X5026967Y4914277D02*
D03*
Y4916867D02*
D03*
Y4919272D02*
D03*
Y4921867D02*
D03*
X5027044Y4924385D02*
D03*
X5027003Y4927016D02*
D03*
X5026967Y4929534D02*
D03*
X5053244Y4929549D02*
D03*
Y4926980D02*
D03*
X5053223Y4924487D02*
D03*
Y4921944D02*
D03*
X5053295Y4919354D02*
D03*
Y4916882D02*
D03*
X5053269Y4914241D02*
D03*
X5053197Y4911749D02*
D03*
X5053244Y4909102D02*
D03*
X5053295Y4906512D02*
D03*
Y4903872D02*
D03*
X5053244Y4901451D02*
D03*
D13*
X5033038Y4879028D02*
D03*
Y4892561D02*
D03*
D14*
X5053909Y4952018D02*
D03*
X5040377D02*
D03*
D15*
X5020575Y4889735D02*
D03*
X5020672Y4880968D02*
D03*
X5028968Y4939115D02*
D03*
X5020201Y4939018D02*
D03*
X5028968Y4948005D02*
D03*
X5020201Y4947908D02*
D03*
X5028892Y4957003D02*
D03*
X5020124Y4956905D02*
D03*
M02*
