M48
;Layer_Color=9474304
;FILE_FORMAT=2:5
INCH,LZ
;TYPE=PLATED
T1F00S00C0.01575
T2F00S00C0.02362
T3F00S00C0.03937
T4F00S00C0.04000
T5F00S00C0.08661
T6F00S00C0.12992
%
T01
X001317Y002547
X0013045Y0057095
T02
X0013128Y0065885
X0012919Y0071509
T03
X0042044Y0050469
X0052209Y0050304
X0062334Y0050387
X0072021Y0050407
X0082105Y0050325
T04
X0103542Y0015173
X0110126Y0012091
X0117708Y0015174
X0120167Y0022383
X0117251Y0029466
X0110208Y0031842
X0103542Y0029133
X0100751Y0022591
X0103499Y0078173
X0103499Y0078173
X0110083Y0075091
X0110083Y007509
X0117666Y0078173
X0117666Y0078173
X0120125Y0085382
X0120125Y0085382
X0117209Y0092466
X0117208Y0092466
X0110166Y0094841
X0110166Y0094842
X01035Y0092132
X01035Y0092132
X0100708Y0085591
X0100708Y008559
T05
X0058001Y00793
T06
X0110667Y0022049
X0110624Y0085048
X0110624Y0085048
M30
