G04*
G04 #@! TF.GenerationSoftware,Altium Limited,Altium Designer,19.0.12 (326)*
G04*
G04 Layer_Color=65535*
%FSLAX25Y25*%
%MOIN*%
G70*
G01*
G75*
%ADD10C,0.00787*%
%ADD11C,0.00800*%
%ADD12C,0.00394*%
G36*
X108832Y66956D02*
X108840D01*
X108865Y66973D01*
X108915Y66990D01*
X108974Y67015D01*
X109050Y67057D01*
X109133Y67099D01*
X109225Y67149D01*
X109335Y67208D01*
X109569Y67342D01*
X109812Y67509D01*
X110072Y67702D01*
X110315Y67928D01*
X110323Y67937D01*
X110340Y67962D01*
X110374Y67995D01*
X110415Y68046D01*
X110466Y68104D01*
X110524Y68180D01*
X110591Y68272D01*
X110659Y68372D01*
X110734Y68481D01*
X110801Y68599D01*
X110876Y68733D01*
X110943Y68875D01*
X111011Y69026D01*
X111069Y69185D01*
X111128Y69361D01*
X111170Y69537D01*
X111430D01*
Y69512D01*
X111438Y69479D01*
Y69445D01*
X111463Y69345D01*
X111496Y69219D01*
X111547Y69093D01*
X111614Y68967D01*
X111714Y68859D01*
X111773Y68817D01*
X111840Y68775D01*
X111832Y68766D01*
X111807Y68733D01*
X111773Y68683D01*
X111723Y68607D01*
X111656Y68532D01*
X111580Y68431D01*
X111496Y68331D01*
X111396Y68213D01*
X111295Y68096D01*
X111178Y67970D01*
X110927Y67719D01*
X110642Y67476D01*
X110499Y67367D01*
X110348Y67266D01*
X110340Y67258D01*
X110315Y67241D01*
X110265Y67216D01*
X110206Y67183D01*
X110139Y67149D01*
X110055Y67099D01*
X109955Y67049D01*
X109854Y66998D01*
X109619Y66898D01*
X109360Y66797D01*
X109100Y66705D01*
X108966Y66671D01*
X108832Y66646D01*
Y66579D01*
X108848D01*
X108890Y66571D01*
X108949Y66554D01*
X109041Y66537D01*
X109142Y66512D01*
X109267Y66479D01*
X109402Y66437D01*
X109544Y66395D01*
X109703Y66336D01*
X109854Y66269D01*
X110022Y66194D01*
X110181Y66102D01*
X110332Y66001D01*
X110483Y65892D01*
X110625Y65766D01*
X110759Y65632D01*
X110767Y65624D01*
X110784Y65599D01*
X110826Y65557D01*
X110868Y65490D01*
X110927Y65414D01*
X110994Y65314D01*
X111069Y65205D01*
X111153Y65079D01*
X111237Y64928D01*
X111329Y64769D01*
X111421Y64593D01*
X111522Y64392D01*
X111614Y64183D01*
X111714Y63956D01*
X111807Y63722D01*
X111899Y63462D01*
X111664Y63319D01*
X111656Y63336D01*
X111639Y63378D01*
X111614Y63437D01*
X111572Y63520D01*
X111522Y63630D01*
X111463Y63747D01*
X111396Y63881D01*
X111320Y64023D01*
X111145Y64325D01*
X110935Y64635D01*
X110826Y64786D01*
X110717Y64937D01*
X110600Y65071D01*
X110474Y65197D01*
X110466Y65205D01*
X110441Y65222D01*
X110407Y65255D01*
X110357Y65297D01*
X110290Y65347D01*
X110214Y65406D01*
X110122Y65465D01*
X110013Y65532D01*
X109904Y65599D01*
X109779Y65666D01*
X109644Y65733D01*
X109502Y65800D01*
X109343Y65859D01*
X109184Y65909D01*
X109008Y65951D01*
X108832Y65984D01*
Y65197D01*
X108840Y65121D01*
Y65021D01*
X108857Y64903D01*
X108874Y64769D01*
X108899Y64635D01*
X108932Y64493D01*
X108488Y64157D01*
Y66018D01*
X108480D01*
X108446D01*
X108404Y66026D01*
X108346D01*
X108262Y66035D01*
X108170D01*
X108061Y66043D01*
X107943Y66051D01*
X107809D01*
X107667Y66060D01*
X107508D01*
X107340Y66068D01*
X107172D01*
X106988Y66076D01*
X106603D01*
Y65758D01*
X106611Y65683D01*
Y65582D01*
X106628Y65465D01*
X106644Y65331D01*
X106661Y65188D01*
X106695Y65046D01*
X106259Y64710D01*
Y66076D01*
X106242D01*
X106209D01*
X106150D01*
X106075D01*
X105982D01*
X105874D01*
X105756D01*
X105622D01*
X105337Y66068D01*
X105035D01*
X104734Y66060D01*
X104583D01*
X104449Y66051D01*
X104826Y67023D01*
X105136Y66680D01*
X106259D01*
Y67828D01*
X105907Y68096D01*
X106393Y68725D01*
X106678Y68448D01*
X108488D01*
X108078Y68892D01*
X108832Y69563D01*
Y66956D01*
D02*
G37*
G36*
X109552Y65339D02*
X109561Y65331D01*
X109569Y65306D01*
X109578Y65280D01*
X109603Y65197D01*
X109644Y65088D01*
X109686Y64962D01*
X109737Y64811D01*
X109795Y64643D01*
X109862Y64476D01*
X109988Y64116D01*
X110055Y63931D01*
X110122Y63763D01*
X110181Y63596D01*
X110248Y63445D01*
X110298Y63311D01*
X110348Y63194D01*
Y63185D01*
X110357Y63169D01*
X110374Y63143D01*
X110390Y63110D01*
X110432Y63018D01*
X110491Y62909D01*
X110550Y62800D01*
X110617Y62691D01*
X110692Y62599D01*
X110726Y62565D01*
X110759Y62540D01*
X109963Y62104D01*
Y62129D01*
X109955Y62155D01*
X109946Y62196D01*
X109938Y62247D01*
X109930Y62305D01*
X109921Y62372D01*
X109904Y62456D01*
X109888Y62540D01*
X109871Y62632D01*
X109837Y62850D01*
X109795Y63085D01*
X109745Y63345D01*
X107223D01*
Y63118D01*
X107231Y63043D01*
Y62942D01*
X107248Y62825D01*
X107265Y62691D01*
X107281Y62557D01*
X107315Y62414D01*
X106879Y62079D01*
Y63345D01*
X106871D01*
X106862D01*
X106837D01*
X106804D01*
X106720D01*
X106603D01*
X106468D01*
X106309D01*
X106133D01*
X105949D01*
X105563Y63336D01*
X105371D01*
X105178D01*
X104994Y63328D01*
X104826D01*
X104675D01*
X104541Y63319D01*
X104952Y64258D01*
X105253Y63948D01*
X106879D01*
Y64266D01*
X106494Y64669D01*
X107223Y65314D01*
Y63948D01*
X109603D01*
X109293Y65297D01*
X109552Y65347D01*
Y65339D01*
D02*
G37*
G36*
X109921Y59121D02*
X109930D01*
X109938Y59138D01*
X109988Y59180D01*
X110064Y59247D01*
X110164Y59347D01*
X110281Y59465D01*
X110415Y59615D01*
X110550Y59783D01*
X110692Y59967D01*
Y59976D01*
X110709Y59992D01*
X110726Y60026D01*
X110751Y60068D01*
X110784Y60118D01*
X110818Y60185D01*
X110851Y60261D01*
X110885Y60344D01*
X110927Y60437D01*
X110960Y60546D01*
X111002Y60663D01*
X111036Y60789D01*
X111069Y60923D01*
X111094Y61065D01*
X111111Y61224D01*
X111128Y61384D01*
X111396D01*
Y61367D01*
X111413Y61317D01*
X111430Y61233D01*
X111471Y61141D01*
X111522Y61040D01*
X111597Y60931D01*
X111689Y60830D01*
X111807Y60747D01*
X111798Y60730D01*
X111781Y60688D01*
X111756Y60621D01*
X111706Y60537D01*
X111647Y60428D01*
X111580Y60303D01*
X111488Y60160D01*
X111388Y60018D01*
X111270Y59859D01*
X111136Y59708D01*
X110977Y59540D01*
X110809Y59389D01*
X110617Y59230D01*
X110407Y59088D01*
X110172Y58953D01*
X109921Y58828D01*
Y58819D01*
X109930D01*
X109938Y58811D01*
X109963Y58803D01*
X109996Y58794D01*
X110080Y58761D01*
X110198Y58702D01*
X110332Y58635D01*
X110483Y58543D01*
X110650Y58425D01*
X110818Y58283D01*
X110994Y58115D01*
X111170Y57914D01*
X111337Y57680D01*
X111421Y57554D01*
X111496Y57420D01*
X111572Y57277D01*
X111639Y57118D01*
X111706Y56959D01*
X111765Y56783D01*
X111815Y56607D01*
X111865Y56414D01*
X111899Y56205D01*
X111932Y55995D01*
X111698Y55945D01*
Y55953D01*
X111689Y55995D01*
X111672Y56046D01*
X111647Y56121D01*
X111622Y56205D01*
X111589Y56305D01*
X111547Y56414D01*
X111505Y56540D01*
X111396Y56791D01*
X111270Y57051D01*
X111119Y57294D01*
X111036Y57411D01*
X110943Y57512D01*
X110935Y57520D01*
X110918Y57537D01*
X110893Y57562D01*
X110860Y57596D01*
X110809Y57638D01*
X110759Y57688D01*
X110633Y57797D01*
X110474Y57923D01*
X110307Y58040D01*
X110114Y58149D01*
X109921Y58241D01*
Y57202D01*
X109930Y57127D01*
Y57026D01*
X109946Y56909D01*
X109963Y56775D01*
X109980Y56640D01*
X110013Y56498D01*
X109578Y56155D01*
Y58283D01*
X109569D01*
X109527Y58291D01*
X109477Y58300D01*
X109393Y58308D01*
X109284Y58325D01*
X109159Y58333D01*
X109008Y58350D01*
X108832Y58358D01*
Y57755D01*
X109058D01*
X109267Y57152D01*
X109259D01*
X109225D01*
X109175D01*
X109117Y57160D01*
X109033D01*
X108949D01*
X108848Y57169D01*
X108739D01*
X108505Y57177D01*
X108254D01*
X108010Y57185D01*
X107902D01*
X107793D01*
X107784D01*
X107767D01*
X107734D01*
X107692D01*
X107633D01*
X107575D01*
X107491D01*
X107407D01*
X107315Y57177D01*
X107206D01*
X107089D01*
X106971Y57169D01*
X106703Y57160D01*
X106402Y57152D01*
X106661Y57688D01*
Y57713D01*
X106653D01*
X106644D01*
X106619D01*
X106586Y57722D01*
X106494D01*
X106385Y57730D01*
X106259D01*
X106125Y57738D01*
X105991D01*
X105857D01*
Y57060D01*
X105915Y56741D01*
X105513Y56439D01*
Y57738D01*
X105496D01*
X105446D01*
X105362D01*
X105245D01*
X105103Y57730D01*
X105010D01*
X104918D01*
X104809Y57722D01*
X104700D01*
X104575D01*
X104449Y57713D01*
X104826Y58560D01*
X105069Y58308D01*
X105513D01*
Y59196D01*
X105505D01*
X105488D01*
X105463D01*
X105429D01*
X105387D01*
X105337D01*
X105203D01*
X105044Y59188D01*
X104860D01*
X104650Y59180D01*
X104415Y59171D01*
X104826Y60051D01*
X105103Y59775D01*
X105513D01*
Y60269D01*
X105128Y60680D01*
X105857Y61325D01*
Y59775D01*
X105865D01*
X105899D01*
X105957D01*
X106024D01*
X106108Y59783D01*
X106200D01*
X106309Y59791D01*
X106418Y59800D01*
X106603Y59196D01*
X105857D01*
Y58308D01*
X106418D01*
X106661Y57713D01*
Y59892D01*
X106368Y60177D01*
X106837Y60705D01*
X107055Y60453D01*
X107063D01*
X107072D01*
X107122D01*
X107198D01*
X107307D01*
X107424D01*
X107566D01*
X107717D01*
X107876Y60462D01*
X108212D01*
X108371D01*
X108522Y60470D01*
X108672D01*
X108798Y60479D01*
X108907D01*
X108991Y60487D01*
X109209Y59884D01*
X108832D01*
Y58953D01*
X108848D01*
X108890Y58945D01*
X108957D01*
X109050Y58937D01*
X109167Y58920D01*
X109293Y58912D01*
X109427Y58886D01*
X109578Y58870D01*
Y60303D01*
X109167Y60738D01*
X109921Y61417D01*
Y59121D01*
D02*
G37*
G36*
X106636Y55828D02*
X107281D01*
Y55836D01*
X107298Y55861D01*
X107315Y55895D01*
X107340Y55937D01*
X107365Y55995D01*
X107399Y56054D01*
X107483Y56196D01*
X107575Y56356D01*
X107684Y56507D01*
X107793Y56640D01*
X107843Y56691D01*
X107902Y56741D01*
X107918Y56749D01*
X107952Y56775D01*
X108010Y56808D01*
X108094Y56833D01*
X108195Y56850D01*
X108312D01*
X108379Y56842D01*
X108446Y56817D01*
X108513Y56791D01*
X108589Y56758D01*
X108605Y56749D01*
X108639Y56724D01*
X108689Y56682D01*
X108723Y56624D01*
X108731Y56590D01*
Y56557D01*
X108723Y56523D01*
X108706Y56481D01*
X108672Y56439D01*
X108622Y56397D01*
X108555Y56356D01*
X108463Y56314D01*
X108455D01*
X108438Y56305D01*
X108413Y56289D01*
X108371Y56272D01*
X108279Y56230D01*
X108153Y56163D01*
X108019Y56096D01*
X107876Y56012D01*
X107726Y55920D01*
X107591Y55828D01*
X107600D01*
X107625D01*
X107667D01*
X107734D01*
X107801D01*
X107893D01*
X107994D01*
X108103D01*
X108228D01*
X108354D01*
X108496D01*
X108647D01*
X108966D01*
X109301Y55836D01*
X109644D01*
X109988D01*
X110332D01*
X110667Y55844D01*
X110969D01*
X111119D01*
X111253Y55853D01*
X111379D01*
X111496D01*
X111597Y55861D01*
X111689D01*
X111899Y55224D01*
X111882D01*
X111848D01*
X111773D01*
X111681Y55233D01*
X111547D01*
X111388D01*
X111203Y55241D01*
X110977D01*
X110851D01*
X110726D01*
X110583Y55250D01*
X110432D01*
X110273D01*
X110105D01*
X109930D01*
X109745D01*
X109552Y55258D01*
X109351D01*
X109142D01*
X108915D01*
X108689D01*
X108446D01*
X108195D01*
X107943D01*
X107985Y55241D01*
X108044Y55224D01*
X108119Y55199D01*
X108212Y55166D01*
X108329Y55124D01*
X108455Y55065D01*
X108597Y55006D01*
X108748Y54931D01*
X108907Y54847D01*
X109075Y54747D01*
X109251Y54638D01*
X109435Y54520D01*
X109611Y54378D01*
X109795Y54236D01*
X109980Y54068D01*
X109854Y53925D01*
X109846D01*
X109837Y53934D01*
X109812Y53951D01*
X109787Y53967D01*
X109695Y54018D01*
X109586Y54085D01*
X109443Y54160D01*
X109276Y54244D01*
X109083Y54344D01*
X108865Y54445D01*
X108631Y54554D01*
X108379Y54663D01*
X108119Y54763D01*
X107834Y54872D01*
X107550Y54965D01*
X107248Y55057D01*
X106946Y55132D01*
X106636Y55199D01*
Y54579D01*
X106695Y54261D01*
X106284Y53959D01*
Y55258D01*
X106267D01*
X106226D01*
X106158D01*
X106066D01*
X105966D01*
X105840D01*
X105706D01*
X105563D01*
X105262Y55250D01*
X104952Y55241D01*
X104809D01*
X104675Y55233D01*
X104558D01*
X104449Y55224D01*
X104826Y56138D01*
X105103Y55828D01*
X106284D01*
Y56046D01*
X105907Y56456D01*
X106636Y57101D01*
Y55828D01*
D02*
G37*
G36*
X107843Y46937D02*
X107851Y46861D01*
Y46760D01*
X107868Y46643D01*
X107885Y46509D01*
X107902Y46375D01*
X107935Y46233D01*
X107499Y45897D01*
Y50054D01*
X107491Y50062D01*
X107457Y50071D01*
X107407Y50096D01*
X107340Y50121D01*
X107256Y50154D01*
X107164Y50196D01*
X107055Y50238D01*
X106929Y50280D01*
X106804Y50330D01*
X106670Y50381D01*
X106376Y50473D01*
X106075Y50565D01*
X105915Y50606D01*
Y48210D01*
X105899Y48185D01*
X105882Y48160D01*
X105874Y48152D01*
X105915Y48093D01*
Y48210D01*
X105932Y48235D01*
X105974Y48286D01*
X106024Y48353D01*
X106083Y48428D01*
X106217Y48587D01*
X106368Y48755D01*
X106443Y48830D01*
X106519Y48906D01*
X106594Y48965D01*
X106670Y49023D01*
X106737Y49057D01*
X106804Y49082D01*
X106820D01*
X106862Y49090D01*
X106921D01*
X107005Y49082D01*
X107097Y49065D01*
X107198Y49015D01*
X107298Y48948D01*
X107357Y48906D01*
X107407Y48847D01*
X107415Y48830D01*
X107441Y48797D01*
X107466Y48747D01*
X107483Y48680D01*
Y48646D01*
X107466Y48612D01*
X107449Y48571D01*
X107424Y48537D01*
X107382Y48504D01*
X107323Y48478D01*
X107256Y48453D01*
X107164Y48428D01*
X107156D01*
X107139Y48420D01*
X107114D01*
X107072Y48403D01*
X107022Y48395D01*
X106963Y48378D01*
X106896Y48353D01*
X106820Y48328D01*
X106653Y48269D01*
X106452Y48193D01*
X106234Y48093D01*
X105999Y47976D01*
X105915Y48093D01*
Y47716D01*
X105924Y47640D01*
Y47540D01*
X105941Y47423D01*
X105957Y47289D01*
X105974Y47154D01*
X106008Y47012D01*
X105572Y46677D01*
Y49400D01*
X105563D01*
X105547Y49392D01*
X105522Y49384D01*
X105488Y49375D01*
X105396Y49342D01*
X105279Y49291D01*
X105136Y49216D01*
X104985Y49115D01*
X104818Y48998D01*
X104642Y48847D01*
X104449Y48956D01*
Y48965D01*
X104466Y48998D01*
X104482Y49040D01*
X104499Y49099D01*
X104533Y49166D01*
X104558Y49241D01*
X104642Y49409D01*
X104734Y49585D01*
X104843Y49752D01*
X104902Y49819D01*
X104960Y49878D01*
X105019Y49920D01*
X105077Y49953D01*
X105094Y49962D01*
X105128Y49970D01*
X105186Y49978D01*
X105262D01*
X105337Y49962D01*
X105421Y49937D01*
X105496Y49878D01*
X105538Y49836D01*
X105572Y49786D01*
Y51344D01*
X105128Y51847D01*
X105915Y52518D01*
Y50863D01*
X105781Y50640D01*
X105915Y50606D01*
Y50863D01*
X106276Y51462D01*
X106284Y51445D01*
X106318Y51403D01*
X106368Y51336D01*
X106435Y51252D01*
X106510Y51160D01*
X106603Y51068D01*
X106695Y50984D01*
X106804Y50900D01*
X106812Y50892D01*
X106854Y50867D01*
X106913Y50825D01*
X106997Y50766D01*
X107097Y50699D01*
X107214Y50607D01*
X107348Y50515D01*
X107499Y50406D01*
Y51906D01*
X106988Y52467D01*
X107843Y53205D01*
Y46937D01*
D02*
G37*
G36*
X108823Y51713D02*
X110332D01*
X110340D01*
X110365D01*
X110399D01*
X110449D01*
X110508D01*
X110583D01*
X110667D01*
X110751Y51722D01*
X110952D01*
X111161Y51730D01*
X111379Y51738D01*
X111589Y51747D01*
X111807Y51110D01*
X111187D01*
Y48177D01*
X111589D01*
X111840Y47540D01*
X111832D01*
X111798D01*
X111748D01*
X111672Y47548D01*
X111589D01*
X111488D01*
X111371Y47557D01*
X111245D01*
X111103D01*
X110952Y47565D01*
X110793D01*
X110633D01*
X110281Y47573D01*
X109921D01*
X109913D01*
X109879D01*
X109829D01*
X109754D01*
X109670D01*
X109569D01*
X109452D01*
X109335D01*
X109200Y47565D01*
X109058D01*
X108756Y47557D01*
X108446Y47548D01*
X108144Y47540D01*
X108429Y48110D01*
Y51085D01*
X108078Y51328D01*
X108563Y51964D01*
X108823Y51713D01*
D02*
G37*
G36*
X108212Y40752D02*
X108220Y40685D01*
Y40593D01*
X108237Y40492D01*
X108254Y40367D01*
X108279Y40241D01*
X108312Y40098D01*
X107868Y39763D01*
Y41230D01*
X106695Y41439D01*
Y41079D01*
X106703Y41045D01*
X106711Y40995D01*
X106720Y40920D01*
X106737Y40819D01*
X106753Y40693D01*
X106351Y40350D01*
Y41481D01*
X105488Y41590D01*
Y41087D01*
X105496Y41020D01*
Y40936D01*
X105513Y40828D01*
X105530Y40710D01*
X105547Y40584D01*
X105580Y40442D01*
X105136Y40107D01*
Y43568D01*
X104759Y44045D01*
X105488Y44649D01*
Y42219D01*
X106351Y42068D01*
Y43216D01*
X106033Y43450D01*
X106410Y44029D01*
X106703Y43811D01*
X107868D01*
Y44154D01*
X107491Y44598D01*
X108212Y45177D01*
Y40752D01*
D02*
G37*
G36*
X109410Y44213D02*
X109427D01*
X109469D01*
X109544D01*
X109636D01*
X109754D01*
X109888D01*
X110030D01*
X110189Y44221D01*
X110524D01*
X110876Y44230D01*
X111044D01*
X111203Y44238D01*
X111354D01*
X111496Y44247D01*
X111714Y43610D01*
X111220D01*
Y41355D01*
X111597D01*
X111807Y40727D01*
X111798D01*
X111781D01*
X111748D01*
X111698Y40735D01*
X111639D01*
X111572D01*
X111496D01*
X111404Y40744D01*
X111304D01*
X111187D01*
X111069D01*
X110935Y40752D01*
X110801D01*
X110650D01*
X110332D01*
X110323D01*
X110290D01*
X110248D01*
X110181D01*
X110105D01*
X110013D01*
X109904D01*
X109795D01*
X109670Y40744D01*
X109544D01*
X109267D01*
X108983Y40735D01*
X108698Y40727D01*
X108983Y41297D01*
Y43618D01*
X108664Y43861D01*
X109159Y44431D01*
X109410Y44213D01*
D02*
G37*
G36*
X109695Y40509D02*
X109712Y40492D01*
X109745Y40467D01*
X109787Y40434D01*
X109837Y40392D01*
X109896Y40341D01*
X110030Y40233D01*
X110172Y40107D01*
X110323Y39973D01*
X110474Y39847D01*
X110600Y39738D01*
X110617Y39730D01*
X110650Y39696D01*
X110717Y39638D01*
X110793Y39571D01*
X110893Y39495D01*
X111002Y39403D01*
X111119Y39302D01*
X111245Y39202D01*
X110700Y38674D01*
X110692Y38682D01*
X110667Y38707D01*
X110633Y38732D01*
X110583Y38774D01*
X110524Y38808D01*
X110449Y38833D01*
X110365Y38858D01*
X110273Y38867D01*
X107625D01*
Y38691D01*
X107633Y38640D01*
Y38565D01*
X107650Y38473D01*
X107667Y38355D01*
X107684Y38213D01*
X107717Y38045D01*
X107281Y37718D01*
Y38833D01*
X106929Y39076D01*
X107382Y39679D01*
X107642Y39436D01*
X110281D01*
X109502Y40350D01*
X109686Y40517D01*
X109695Y40509D01*
D02*
G37*
G36*
X105924Y39512D02*
X105999Y39487D01*
X106083Y39445D01*
X106175Y39378D01*
X106267Y39294D01*
X106276Y39286D01*
X106301Y39252D01*
X106318Y39202D01*
X106334Y39143D01*
X106318Y39084D01*
X106301Y39051D01*
X106276Y39026D01*
X106242Y38992D01*
X106192Y38967D01*
X106125Y38942D01*
X106050Y38917D01*
X106041D01*
X106024Y38908D01*
X105999Y38900D01*
X105966Y38892D01*
X105924Y38875D01*
X105865Y38858D01*
X105807Y38833D01*
X105731Y38808D01*
X105572Y38732D01*
X105379Y38640D01*
X105161Y38515D01*
X104918Y38364D01*
X104792Y38540D01*
Y38548D01*
X104809Y38565D01*
X104826Y38598D01*
X104851Y38632D01*
X104918Y38732D01*
X105002Y38858D01*
X105086Y38984D01*
X105178Y39110D01*
X105270Y39227D01*
X105312Y39269D01*
X105346Y39311D01*
X105354Y39319D01*
X105379Y39344D01*
X105413Y39369D01*
X105463Y39411D01*
X105530Y39445D01*
X105597Y39478D01*
X105681Y39512D01*
X105773Y39529D01*
X105781D01*
X105815D01*
X105865D01*
X105924Y39512D01*
D02*
G37*
%LPC*%
G36*
X108488Y67845D02*
X106603D01*
Y66680D01*
X106611D01*
X106644D01*
X106695D01*
X106770D01*
X106854D01*
X106955D01*
X107072Y66671D01*
X107198D01*
X107332D01*
X107483Y66663D01*
X107801Y66655D01*
X108136Y66638D01*
X108488Y66621D01*
Y67845D01*
D02*
G37*
G36*
Y59884D02*
X107902D01*
Y57755D01*
X108488D01*
Y59884D01*
D02*
G37*
G36*
X107558D02*
X107005D01*
Y57755D01*
X107558D01*
Y59884D01*
D02*
G37*
G36*
X110851Y51110D02*
X109980D01*
Y48177D01*
X110851D01*
Y51110D01*
D02*
G37*
G36*
X109636D02*
X108773D01*
Y48177D01*
X109636D01*
Y51110D01*
D02*
G37*
G36*
X107868Y43207D02*
X106695D01*
Y42026D01*
X107868Y41825D01*
Y43207D01*
D02*
G37*
G36*
X110876Y43610D02*
X109335D01*
Y41355D01*
X110876D01*
Y43610D01*
D02*
G37*
%LPD*%
D10*
X37629Y99553D02*
G03*
X23378Y75052I5125J-19376D01*
G01*
X22960Y83218D02*
G03*
X39545Y60136I19833J-3248D01*
G01*
X93961Y76469D02*
G03*
X77376Y99550I-19833J3248D01*
G01*
X79293Y60133D02*
G03*
X93544Y84634I-5125J19376D01*
G01*
X37774Y99583D02*
X77235D01*
X39794Y60114D02*
X79255D01*
X10951Y22134D02*
Y34134D01*
Y22134D02*
X30636D01*
X10951Y34134D02*
X30636D01*
D11*
Y30134D02*
G03*
X28636Y28134I0J-2000D01*
G01*
X28636Y28134D02*
G03*
X30636Y26134I2000J0D01*
G01*
X30636Y30134D02*
Y34134D01*
Y22134D02*
Y26134D01*
D12*
X40179Y56943D02*
X40048Y57205D01*
X39786Y57468D01*
X39523Y57599D01*
X38998D01*
X38736Y57468D01*
X38474Y57205D01*
X38342Y56943D01*
X38211Y56549D01*
Y55893D01*
X38342Y55500D01*
X38474Y55237D01*
X38736Y54975D01*
X38998Y54844D01*
X39523D01*
X39786Y54975D01*
X40048Y55237D01*
X40179Y55500D01*
Y55893D01*
X39523D02*
X40179D01*
X40809Y57599D02*
Y54844D01*
Y57599D02*
X42646Y54844D01*
Y57599D02*
Y54844D01*
X43407Y57599D02*
Y54844D01*
Y57599D02*
X44325D01*
X44719Y57468D01*
X44981Y57205D01*
X45113Y56943D01*
X45244Y56549D01*
Y55893D01*
X45113Y55500D01*
X44981Y55237D01*
X44719Y54975D01*
X44325Y54844D01*
X43407D01*
X79502Y57556D02*
Y54801D01*
Y57556D02*
X80683D01*
X81076Y57425D01*
X81208Y57294D01*
X81339Y57032D01*
Y56769D01*
X81208Y56507D01*
X81076Y56375D01*
X80683Y56244D01*
X79502D02*
X80683D01*
X81076Y56113D01*
X81208Y55982D01*
X81339Y55719D01*
Y55326D01*
X81208Y55063D01*
X81076Y54932D01*
X80683Y54801D01*
X79502D01*
X81955Y57556D02*
Y55588D01*
X82087Y55195D01*
X82349Y54932D01*
X82743Y54801D01*
X83005D01*
X83399Y54932D01*
X83661Y55195D01*
X83792Y55588D01*
Y57556D01*
X86390Y57163D02*
X86128Y57425D01*
X85734Y57556D01*
X85209D01*
X84816Y57425D01*
X84553Y57163D01*
Y56900D01*
X84684Y56638D01*
X84816Y56507D01*
X85078Y56375D01*
X85865Y56113D01*
X86128Y55982D01*
X86259Y55851D01*
X86390Y55588D01*
Y55195D01*
X86128Y54932D01*
X85734Y54801D01*
X85209D01*
X84816Y54932D01*
X84553Y55195D01*
X87007Y57556D02*
X88056Y56244D01*
Y54801D01*
X89106Y57556D02*
X88056Y56244D01*
X68044Y57600D02*
Y54844D01*
Y57600D02*
X68962D01*
X69356Y57469D01*
X69618Y57206D01*
X69749Y56944D01*
X69880Y56550D01*
Y55894D01*
X69749Y55501D01*
X69618Y55238D01*
X69356Y54976D01*
X68962Y54844D01*
X68044D01*
X72596D02*
X71547Y57600D01*
X70497Y54844D01*
X70891Y55763D02*
X72203D01*
X74158Y57600D02*
Y54844D01*
X73239Y57600D02*
X75076D01*
X77504Y54844D02*
X76454Y57600D01*
X75404Y54844D01*
X75798Y55763D02*
X77110D01*
X58752Y57681D02*
Y54926D01*
Y57681D02*
X59933D01*
X60326Y57550D01*
X60458Y57419D01*
X60589Y57156D01*
Y56894D01*
X60458Y56632D01*
X60326Y56501D01*
X59933Y56369D01*
X58752D01*
X59670D02*
X60589Y54926D01*
X63042Y57288D02*
X62780Y57550D01*
X62386Y57681D01*
X61861D01*
X61468Y57550D01*
X61205Y57288D01*
Y57025D01*
X61337Y56763D01*
X61468Y56632D01*
X61730Y56501D01*
X62517Y56238D01*
X62780Y56107D01*
X62911Y55976D01*
X63042Y55713D01*
Y55320D01*
X62780Y55057D01*
X62386Y54926D01*
X61861D01*
X61468Y55057D01*
X61205Y55320D01*
X64577Y57681D02*
Y54926D01*
X63659Y57681D02*
X65496D01*
X48836Y57640D02*
X49886Y54885D01*
X50936Y57640D02*
X49886Y54885D01*
X53258Y56985D02*
X53127Y57247D01*
X52864Y57509D01*
X52602Y57640D01*
X52077D01*
X51815Y57509D01*
X51552Y57247D01*
X51421Y56985D01*
X51290Y56591D01*
Y55935D01*
X51421Y55541D01*
X51552Y55279D01*
X51815Y55016D01*
X52077Y54885D01*
X52602D01*
X52864Y55016D01*
X53127Y55279D01*
X53258Y55541D01*
X56000Y56985D02*
X55869Y57247D01*
X55606Y57509D01*
X55344Y57640D01*
X54819D01*
X54557Y57509D01*
X54294Y57247D01*
X54163Y56985D01*
X54032Y56591D01*
Y55935D01*
X54163Y55541D01*
X54294Y55279D01*
X54557Y55016D01*
X54819Y54885D01*
X55344D01*
X55606Y55016D01*
X55869Y55279D01*
X56000Y55541D01*
M02*
