G04*
G04 #@! TF.GenerationSoftware,Altium Limited,Altium Designer,19.0.12 (326)*
G04*
G04 Layer_Physical_Order=1*
G04 Layer_Color=3707366*
%FSLAX25Y25*%
%MOIN*%
G70*
G01*
G75*
%ADD13O,0.02165X0.06299*%
%ADD14R,0.02165X0.06299*%
%ADD15R,0.03937X0.02600*%
%ADD27C,0.01575*%
%ADD28C,0.01968*%
%ADD29C,0.00000*%
%ADD30C,0.08661*%
%ADD31O,0.06299X0.02756*%
%ADD32C,0.05118*%
%ADD33R,0.05118X0.05118*%
%ADD34C,0.03500*%
%ADD35C,0.25591*%
%ADD36C,0.02362*%
D13*
X13294Y17800D02*
D03*
X18294D02*
D03*
X23294D02*
D03*
X28294D02*
D03*
X13294Y38469D02*
D03*
X18294D02*
D03*
X23294D02*
D03*
D14*
X28294D02*
D03*
D15*
X28461Y45404D02*
D03*
X28419Y52551D02*
D03*
X13129Y45363D02*
D03*
X13086Y52510D02*
D03*
D27*
X13065Y57136D02*
G03*
X13023Y57239I-145J0D01*
G01*
X13252Y45362D02*
G03*
X13148Y45614I-356J0D01*
G01*
X28378Y44959D02*
G03*
X28210Y45364I-572J0D01*
G01*
X18366Y69437D02*
G03*
X13461Y71469I-4905J-4905D01*
G01*
X23294Y59509D02*
G03*
X19758Y68045I-12071J0D01*
G01*
X18294Y59148D02*
G03*
X15503Y65885I-9528J0D01*
G01*
X30956Y20969D02*
G03*
X28544Y19970I0J-3411D01*
G01*
X56045Y20969D02*
G03*
X64580Y24504I0J12071D01*
G01*
X79008Y38932D02*
G03*
X82544Y47468I-8535J8535D01*
G01*
X68592Y36433D02*
G03*
X72128Y44969I-8535J8535D01*
G01*
X51679Y24176D02*
G03*
X59628Y27469I0J11242D01*
G01*
X27627Y24176D02*
G03*
X25703Y23379I0J-2720D01*
G01*
X23794Y21470D02*
G03*
X23419Y20564I905J-905D01*
G01*
X20212Y23220D02*
G03*
X18003Y17885I5335J-5335D01*
G01*
X29794Y27801D02*
G03*
X21258Y24265I0J-12071D01*
G01*
X46877Y27801D02*
G03*
X55413Y31337I0J12071D01*
G01*
X59008Y34932D02*
G03*
X62544Y43468I-8535J8535D01*
G01*
X13214Y18471D02*
Y25344D01*
X13065Y52281D02*
Y57136D01*
X28378Y38323D02*
Y44959D01*
X18366Y69437D02*
X19758Y68045D01*
X23294Y38051D02*
Y59509D01*
X18294Y38634D02*
Y59148D01*
X30956Y20969D02*
X56045D01*
X64580Y24504D02*
X79008Y38932D01*
X82544Y47468D02*
Y50134D01*
X72128Y44969D02*
Y51635D01*
X59628Y27469D02*
X68592Y36433D01*
X27627Y24176D02*
X51679D01*
X23794Y21470D02*
X25703Y23379D01*
X23419Y17259D02*
Y20564D01*
X20212Y23220D02*
X21258Y24265D01*
X29794Y27801D02*
X46877D01*
X55413Y31337D02*
X59008Y34932D01*
X62544Y43468D02*
Y50220D01*
D28*
X13364Y36563D02*
G03*
X14044Y33634I4585J-479D01*
G01*
X14044D02*
G03*
X18269Y31884I4225J4225D01*
G01*
X38043D02*
G03*
X46579Y35420I0J12071D01*
G01*
X48551Y37391D02*
G03*
X52086Y45927I-8535J8535D01*
G01*
X13252Y38301D02*
Y45362D01*
X18269Y31884D02*
X38043D01*
X46579Y35420D02*
X48551Y37391D01*
X52086Y45927D02*
Y50594D01*
X28514Y51885D02*
X41378D01*
D29*
X28418Y52219D02*
G03*
X28722Y52094I304J304D01*
G01*
D30*
X58001Y79300D02*
D03*
D31*
X13128Y65885D02*
D03*
X12919Y71509D02*
D03*
D32*
X82105Y50325D02*
D03*
X72021Y50407D02*
D03*
X62334Y50387D02*
D03*
X52209Y50304D02*
D03*
D33*
X42044Y50469D02*
D03*
D34*
X100751Y22591D02*
D03*
X103542Y29133D02*
D03*
X103542Y15173D02*
D03*
X110126Y12091D02*
D03*
X117708Y15174D02*
D03*
X120167Y22383D02*
D03*
X117251Y29466D02*
D03*
X110208Y31842D02*
D03*
X100708Y85590D02*
D03*
X103500Y92132D02*
D03*
X103499Y78173D02*
D03*
X110083Y75090D02*
D03*
X117666Y78173D02*
D03*
X120125Y85382D02*
D03*
X117209Y92466D02*
D03*
X110166Y94841D02*
D03*
X100708Y85591D02*
D03*
X103500Y92132D02*
D03*
X103499Y78173D02*
D03*
X110083Y75091D02*
D03*
X117666Y78173D02*
D03*
X120125Y85382D02*
D03*
X117208Y92466D02*
D03*
X110166Y94842D02*
D03*
D35*
X110667Y22049D02*
D03*
X110624Y85048D02*
D03*
X110624Y85048D02*
D03*
D36*
X13170Y25470D02*
D03*
X13045Y57095D02*
D03*
M02*
