M48
INCH,LZ
;FILE_FORMAT=2:4
;TYPE=PLATED
;Layer: PTH_Through
;EasyEDA v6.5.1, 2022-03-31 14:40:35
;3057500e3b38410d9f8712b39c549b2e,f4ced638559e4a0e855b540ea8c082d1,10
;Gerber Generator version 0.2
;Holesize 1 = 0.0120 inch
T01C0.0120
;Holesize 2 = 0.0280 inch
T02C0.0280
;Holesize 3 = 0.0320 inch
T03C0.0320
;Holesize 4 = 0.0350 inch
T04C0.0350
%
G05
G90
T01
X026082Y013060
X024652Y013060
X025602Y014210
X025081Y014199
X026142Y025100
X023032Y021170
X024015Y021340
X023362Y019360
X027652Y014590
X026262Y019120
X023082Y019040
X023352Y018700
X024272Y016320
X027542Y019480
X024592Y016440
X025142Y016800
X024945Y016310
X023532Y022760
X026122Y021749
X025782Y021450
X027652Y022750
X023442Y024190
X025232Y017500
X024852Y017230
T02
X027114Y013043G85X027114Y013476
X023570Y013043G85X023570Y013476
T03
X023570Y011468G85X023570Y011783
X027114Y011468G85X027114Y011783
T04
X028322Y011620G85X028322Y011620
X028322Y012620G85X028322Y012620
X028322Y013620G85X028322Y013620
X028322Y014620G85X028322Y014620
X028322Y015620G85X028322Y015620
X028322Y016620G85X028322Y016620
X028322Y017620G85X028322Y017620
X028322Y018620G85X028322Y018620
X028322Y019620G85X028322Y019620
X028322Y020620G85X028322Y020620
X028322Y021620G85X028322Y021620
X028322Y022620G85X028322Y022620
X028322Y023620G85X028322Y023620
X028322Y024620G85X028322Y024620
X028322Y025620G85X028322Y025620
X022322Y011620G85X022322Y011620
X022322Y012620G85X022322Y012620
X022322Y013620G85X022322Y013620
X022322Y014620G85X022322Y014620
X022322Y015620G85X022322Y015620
X022322Y016620G85X022322Y016620
X022322Y017620G85X022322Y017620
X022322Y018620G85X022322Y018620
X022322Y019620G85X022322Y019620
X022322Y020620G85X022322Y020620
X022322Y021620G85X022322Y021620
X022322Y022620G85X022322Y022620
X022322Y023620G85X022322Y023620
X022322Y024620G85X022322Y024620
X022322Y025620G85X022322Y025620
M30
