G04 Layer: BottomSilkscreenLayer*
G04 EasyEDA v6.5.1, 2022-03-31 14:40:35*
G04 3057500e3b38410d9f8712b39c549b2e,f4ced638559e4a0e855b540ea8c082d1,10*
G04 Gerber Generator version 0.2*
G04 Scale: 100 percent, Rotated: No, Reflected: No *
G04 Dimensions in inches *
G04 leading zeros omitted , absolute positions ,3 integer and 6 decimal *
%FSLAX36Y36*%
%MOIN*%

%ADD10C,0.0100*%
%ADD11C,0.0080*%
%ADD25C,0.0197*%
%ADD32C,0.0079*%
%ADD33C,0.0098*%
%ADD34C,0.0060*%

%LPD*%
D11*
X2708676Y2128684D02*
G01*
X2731582Y2128684D01*
X2735877Y2130115D01*
X2737308Y2131547D01*
X2738740Y2134410D01*
X2738740Y2137273D01*
X2737308Y2140137D01*
X2735877Y2141568D01*
X2731582Y2143000D01*
X2728719Y2143000D01*
X2708676Y2119235D02*
G01*
X2738740Y2119235D01*
X2738740Y2119235D02*
G01*
X2738740Y2102055D01*
X2715834Y2071132D02*
G01*
X2712971Y2072563D01*
X2710107Y2075427D01*
X2708676Y2078290D01*
X2708676Y2084016D01*
X2710107Y2086879D01*
X2712971Y2089743D01*
X2715834Y2091175D01*
X2720129Y2092606D01*
X2727287Y2092606D01*
X2731582Y2091175D01*
X2734445Y2089743D01*
X2737308Y2086879D01*
X2738740Y2084016D01*
X2738740Y2078290D01*
X2737308Y2075427D01*
X2734445Y2072563D01*
X2731582Y2071132D01*
X2708676Y2047366D02*
G01*
X2731582Y2047366D01*
X2735877Y2048798D01*
X2737308Y2050230D01*
X2738740Y2053093D01*
X2738740Y2055956D01*
X2737308Y2058820D01*
X2735877Y2060251D01*
X2731582Y2061682D01*
X2728719Y2061682D01*
X2708676Y2037918D02*
G01*
X2738740Y2037918D01*
X2738740Y2037918D02*
G01*
X2738740Y2020738D01*
X2715834Y1989814D02*
G01*
X2712971Y1991245D01*
X2710107Y1994109D01*
X2708676Y1996973D01*
X2708676Y2002699D01*
X2710107Y2005562D01*
X2712971Y2008426D01*
X2715834Y2009857D01*
X2720129Y2011288D01*
X2727287Y2011288D01*
X2731582Y2009857D01*
X2734445Y2008426D01*
X2737308Y2005562D01*
X2738740Y2002699D01*
X2738740Y1996973D01*
X2737308Y1994109D01*
X2734445Y1991245D01*
X2731582Y1989814D01*
X2708676Y1966048D02*
G01*
X2731582Y1966048D01*
X2735877Y1967481D01*
X2737308Y1968912D01*
X2738740Y1971776D01*
X2738740Y1974639D01*
X2737308Y1977502D01*
X2735877Y1978934D01*
X2731582Y1980366D01*
X2728719Y1980366D01*
X2708676Y1956600D02*
G01*
X2738740Y1956600D01*
X2738740Y1956600D02*
G01*
X2738740Y1939421D01*
X2715834Y1908497D02*
G01*
X2712971Y1909928D01*
X2710107Y1912792D01*
X2708676Y1915654D01*
X2708676Y1921382D01*
X2710107Y1924245D01*
X2712971Y1927109D01*
X2715834Y1928540D01*
X2720129Y1929972D01*
X2727287Y1929972D01*
X2731582Y1928540D01*
X2734445Y1927109D01*
X2737308Y1924245D01*
X2738740Y1921382D01*
X2738740Y1915654D01*
X2737308Y1912792D01*
X2734445Y1909928D01*
X2731582Y1908497D01*
X2708676Y1884732D02*
G01*
X2731582Y1884732D01*
X2735877Y1886164D01*
X2737308Y1887595D01*
X2738740Y1890459D01*
X2738740Y1893322D01*
X2737308Y1896185D01*
X2735877Y1897617D01*
X2731582Y1899048D01*
X2728719Y1899048D01*
X2708676Y1875283D02*
G01*
X2738740Y1875283D01*
X2738740Y1875283D02*
G01*
X2738740Y1858103D01*
X2715834Y1827180D02*
G01*
X2712971Y1828612D01*
X2710107Y1831475D01*
X2708676Y1834338D01*
X2708676Y1840065D01*
X2710107Y1842928D01*
X2712971Y1845791D01*
X2715834Y1847223D01*
X2720129Y1848655D01*
X2727287Y1848655D01*
X2731582Y1847223D01*
X2734445Y1845791D01*
X2737308Y1842928D01*
X2738740Y1840065D01*
X2738740Y1834338D01*
X2737308Y1831475D01*
X2734445Y1828612D01*
X2731582Y1827180D01*
X2642305Y1666000D02*
G01*
X2640851Y1663091D01*
X2636487Y1658727D01*
X2667032Y1658727D01*
X2636487Y1640400D02*
G01*
X2637941Y1644764D01*
X2642305Y1647673D01*
X2649578Y1649127D01*
X2653941Y1649127D01*
X2661214Y1647673D01*
X2665577Y1644764D01*
X2667032Y1640400D01*
X2667032Y1637491D01*
X2665577Y1633127D01*
X2661214Y1630218D01*
X2653941Y1628764D01*
X2649578Y1628764D01*
X2642305Y1630218D01*
X2637941Y1633127D01*
X2636487Y1637491D01*
X2636487Y1640400D01*
X2636487Y1610436D02*
G01*
X2637941Y1614800D01*
X2642305Y1617709D01*
X2649578Y1619164D01*
X2653941Y1619164D01*
X2661214Y1617709D01*
X2665577Y1614800D01*
X2667032Y1610436D01*
X2667032Y1607527D01*
X2665577Y1603163D01*
X2661214Y1600255D01*
X2653941Y1598800D01*
X2649578Y1598800D01*
X2642305Y1600255D01*
X2637941Y1603163D01*
X2636487Y1607527D01*
X2636487Y1610436D01*
X2646669Y1589199D02*
G01*
X2667032Y1589199D01*
X2652487Y1589199D02*
G01*
X2648123Y1584836D01*
X2646669Y1581927D01*
X2646669Y1577564D01*
X2648123Y1574655D01*
X2652487Y1573200D01*
X2667032Y1573200D01*
X2636487Y1563600D02*
G01*
X2667032Y1563600D01*
X2636487Y1563600D02*
G01*
X2636487Y1544691D01*
X2651032Y1563600D02*
G01*
X2651032Y1551964D01*
X2554206Y2202291D02*
G01*
X2533843Y2171745D01*
X2533843Y2202291D02*
G01*
X2554206Y2171745D01*
X2524243Y2196473D02*
G01*
X2521333Y2197927D01*
X2516970Y2202291D01*
X2516970Y2171745D01*
D10*
X2698775Y1464665D02*
G01*
X2682541Y1464665D01*
X2664206Y1483000D01*
X2664206Y1502000D01*
X2663206Y1671000D02*
G01*
X2663206Y1690000D01*
X2682821Y1709615D01*
X2698775Y1709615D01*
D11*
X2626022Y2239191D02*
G01*
X2728384Y2239191D01*
X2728384Y2188010D01*
X2626022Y2188010D01*
X2626022Y2239191D01*
X2438787Y2118568D02*
G01*
X2438787Y2124986D01*
X2635638Y2124986D01*
X2635638Y2118555D01*
X2635638Y2005432D02*
G01*
X2635638Y1999002D01*
X2438787Y1999002D01*
X2438787Y2005419D01*
D34*
X2552206Y2052000D02*
G01*
X2522206Y2052000D01*
X2522206Y2072000D01*
X2552206Y2072000D01*
X2552206Y2052000D01*
X2537206Y2087000D02*
G01*
X2537206Y2102000D01*
X2552206Y2102000D01*
X2557206Y2102000D01*
X2517206Y2022000D02*
G01*
X2537206Y2022000D01*
X2537206Y2037000D01*
X2522206Y2087000D02*
G01*
X2552206Y2087000D01*
X2522206Y2037000D02*
G01*
X2552206Y2037000D01*
D33*
X2342253Y2497898D02*
G01*
X2342253Y2360102D01*
X2598159Y2360102D01*
X2598159Y2497898D01*
X2342253Y2497898D01*
D11*
X2419206Y1844850D02*
G01*
X2459206Y1844850D01*
X2499206Y1844850D02*
G01*
X2539206Y1844850D01*
D32*
X2419206Y1844850D02*
G01*
X2419206Y1451150D01*
X2539206Y1451150D01*
X2539206Y1844850D01*
D10*
X2501206Y1270500D02*
G01*
X2501206Y1323000D01*
X2518206Y1340000D01*
X2554206Y1340000D01*
X2571206Y1323000D01*
X2571206Y1270500D01*
X2503106Y1243600D02*
G01*
X2567906Y1243600D01*
X2501206Y1185500D02*
G01*
X2501206Y1120500D01*
X2571206Y1120500D01*
X2571206Y1185500D01*
X2534706Y1243600D02*
G01*
X2566706Y1211600D01*
X2505006Y1211600D01*
X2535406Y1242000D01*
X2643206Y2449000D02*
G01*
X2643206Y2377543D01*
X2731206Y2377543D01*
X2731206Y2449000D01*
X2643206Y2572425D02*
G01*
X2731206Y2572425D01*
D34*
X2687206Y2469000D02*
G01*
X2687206Y2454000D01*
X2687206Y2479000D02*
G01*
X2687206Y2494000D01*
X2662206Y2479000D02*
G01*
X2712206Y2479000D01*
X2662206Y2469000D02*
G01*
X2712206Y2469000D01*
D10*
X2731206Y2499000D02*
G01*
X2731206Y2570457D01*
X2643206Y2499000D02*
G01*
X2643206Y2570457D01*
D34*
X2724364Y1655430D02*
G01*
X2724364Y1658430D01*
X2724364Y1661430D01*
X2715364Y1658430D02*
G01*
X2733364Y1658430D01*
D11*
X2698775Y1643430D02*
G01*
X2698775Y1607252D01*
X2749957Y1607252D01*
X2749957Y1643430D01*
X2749957Y1673430D02*
G01*
X2749957Y1709615D01*
X2698775Y1709615D01*
X2698775Y1673430D01*
X2327619Y2173000D02*
G01*
X2327619Y2136822D01*
X2378800Y2136822D01*
X2378800Y2173000D01*
X2327619Y2203000D02*
G01*
X2327619Y2239184D01*
X2378800Y2239184D01*
X2378800Y2203000D01*
D34*
X2344206Y2188000D02*
G01*
X2362206Y2188000D01*
X2353206Y2185000D02*
G01*
X2353206Y2188000D01*
X2353206Y2191000D01*
D11*
X2634206Y1213406D02*
G01*
X2598028Y1213406D01*
X2598028Y1264587D01*
X2634206Y1264587D01*
X2664206Y1213406D02*
G01*
X2700390Y1213406D01*
X2700390Y1264587D01*
X2664206Y1264587D01*
D34*
X2649206Y1230000D02*
G01*
X2649206Y1248000D01*
X2646206Y1239000D02*
G01*
X2649206Y1239000D01*
X2652206Y1239000D01*
D11*
X2440206Y1213413D02*
G01*
X2476384Y1213413D01*
X2476384Y1264594D01*
X2440206Y1264594D01*
X2410206Y1264594D02*
G01*
X2374022Y1264594D01*
X2374022Y1213413D01*
X2410206Y1213413D01*
D34*
X2425206Y1230000D02*
G01*
X2425206Y1248000D01*
X2422206Y1239000D02*
G01*
X2425206Y1239000D01*
X2428206Y1239000D01*
X2724364Y1512843D02*
G01*
X2724364Y1515843D01*
X2724364Y1518843D01*
X2715364Y1515843D02*
G01*
X2733364Y1515843D01*
D11*
X2698775Y1500843D02*
G01*
X2698775Y1464665D01*
X2749957Y1464665D01*
X2749957Y1500843D01*
X2749957Y1530843D02*
G01*
X2749957Y1567027D01*
X2698775Y1567027D01*
X2698775Y1530843D01*
X2457721Y1922406D02*
G01*
X2493899Y1922406D01*
X2493899Y1973587D01*
X2457721Y1973587D01*
X2427721Y1922406D02*
G01*
X2391537Y1922406D01*
X2391537Y1973587D01*
X2427721Y1973587D01*
D34*
X2442721Y1938993D02*
G01*
X2442721Y1956994D01*
X2439721Y1947994D02*
G01*
X2442721Y1947994D01*
X2445721Y1947994D01*
D11*
X2616691Y1922406D02*
G01*
X2580514Y1922406D01*
X2580514Y1973587D01*
X2616691Y1973587D01*
X2646692Y1922406D02*
G01*
X2682876Y1922406D01*
X2682876Y1973587D01*
X2646691Y1973587D01*
D34*
X2631691Y1939000D02*
G01*
X2631691Y1957000D01*
X2628691Y1948000D02*
G01*
X2631691Y1948000D01*
X2634691Y1948000D01*
D32*
X2782206Y2612000D02*
G01*
X2782206Y2537000D01*
X2782206Y1112000D01*
X2882206Y1112000D01*
X2882206Y2612000D01*
X2782206Y2612000D01*
X2782994Y2512788D02*
G01*
X2881418Y2512788D01*
X2182206Y2612000D02*
G01*
X2182206Y2537000D01*
X2182206Y1112000D01*
X2282206Y1112000D01*
X2282206Y2612000D01*
X2182206Y2612000D01*
X2182994Y2512788D02*
G01*
X2281418Y2512788D01*
D25*
G75*
G01*
X2348080Y2574000D02*
G03*
X2348078Y2573827I-7874J0D01*
G75*
G01*
X2383080Y2464000D02*
G03*
X2383078Y2463827I-7874J0D01*
D11*
G75*
G01*
X2459206Y1844850D02*
G03*
X2479206Y1824850I20000J0D01*
G75*
G01*
X2479206Y1824850D02*
G03*
X2499206Y1844850I0J20000D01*
D25*
G75*
G01*
X2585289Y1858000D02*
G03*
X2585283Y1857730I-6083J1D01*
M02*
