G04 Layer: BottomPasteMaskLayer*
G04 EasyEDA v6.5.1, 2022-03-31 14:40:35*
G04 3057500e3b38410d9f8712b39c549b2e,f4ced638559e4a0e855b540ea8c082d1,10*
G04 Gerber Generator version 0.2*
G04 Scale: 100 percent, Rotated: No, Reflected: No *
G04 Dimensions in inches *
G04 leading zeros omitted , absolute positions ,3 integer and 6 decimal *
%FSLAX36Y36*%
%MOIN*%

%ADD18R,0.0300X0.0300*%
%ADD25C,0.0197*%
%ADD26R,0.0866X0.0945*%
%ADD27R,0.0295X0.0669*%
%ADD28R,0.1220X0.0669*%
%ADD29R,0.0591X0.0197*%
%ADD30R,0.0500X0.0550*%
%ADD31R,0.0620X0.0550*%

%LPD*%
D25*
X2351175Y1473000D02*
G01*
X2390545Y1473000D01*
X2351175Y1523000D02*
G01*
X2390545Y1523000D01*
X2351175Y1573000D02*
G01*
X2390545Y1573000D01*
X2351175Y1623000D02*
G01*
X2390545Y1623000D01*
X2351175Y1673000D02*
G01*
X2390545Y1673000D01*
X2351175Y1723000D02*
G01*
X2390545Y1723000D01*
X2351175Y1773000D02*
G01*
X2390545Y1773000D01*
X2351175Y1823000D02*
G01*
X2390545Y1823000D01*
X2567865Y1473000D02*
G01*
X2607235Y1473000D01*
X2567865Y1523000D02*
G01*
X2607235Y1523000D01*
X2567865Y1573000D02*
G01*
X2607235Y1573000D01*
X2567865Y1623000D02*
G01*
X2607235Y1623000D01*
X2567865Y1673000D02*
G01*
X2607235Y1673000D01*
X2567865Y1723000D02*
G01*
X2607235Y1723000D01*
X2567865Y1773000D02*
G01*
X2607235Y1773000D01*
G36*
X2687790Y2228600D02*
G01*
X2717790Y2228600D01*
X2717790Y2198600D01*
X2687790Y2198600D01*
G37*
G36*
X2636610Y2228600D02*
G01*
X2666610Y2228600D01*
X2666610Y2198600D01*
X2636610Y2198600D01*
G37*
D26*
G01*
X2468310Y2062000D03*
G01*
X2606100Y2062000D03*
D27*
G01*
X2379660Y2549000D03*
G01*
X2470210Y2549000D03*
G01*
X2560760Y2549000D03*
D28*
G01*
X2470210Y2309000D03*
D29*
G01*
X2587550Y1823000D03*
G36*
X2513109Y1283433D02*
G01*
X2559303Y1283433D01*
X2559303Y1307567D01*
X2513109Y1307567D01*
G37*
D30*
G01*
X2536210Y1160500D03*
D31*
G01*
X2687210Y2531090D03*
G01*
X2687210Y2418880D03*
D18*
G01*
X2724370Y1684019D03*
G01*
X2724370Y1632840D03*
G01*
X2353210Y2162410D03*
G01*
X2353210Y2213590D03*
G01*
X2623620Y1239000D03*
G01*
X2674800Y1239000D03*
G36*
X2435790Y1254000D02*
G01*
X2465790Y1254000D01*
X2465790Y1224000D01*
X2435790Y1224000D01*
G37*
G36*
X2384610Y1254000D02*
G01*
X2414610Y1254000D01*
X2414610Y1224000D01*
X2384610Y1224000D01*
G37*
G01*
X2724370Y1541440D03*
G01*
X2724370Y1490260D03*
G36*
X2453310Y1963000D02*
G01*
X2483310Y1963000D01*
X2483310Y1933000D01*
X2453310Y1933000D01*
G37*
G36*
X2402130Y1963000D02*
G01*
X2432130Y1963000D01*
X2432130Y1933000D01*
X2402130Y1933000D01*
G37*
G01*
X2606100Y1948000D03*
G01*
X2657290Y1948000D03*
M02*
