G04 Layer: MechanicalLayer*
G04 EasyEDA v6.5.1, 2022-03-31 14:40:35*
G04 3057500e3b38410d9f8712b39c549b2e,f4ced638559e4a0e855b540ea8c082d1,10*
G04 Gerber Generator version 0.2*
G04 Scale: 100 percent, Rotated: No, Reflected: No *
G04 Dimensions in inches *
G04 leading zeros omitted , absolute positions ,3 integer and 6 decimal *
%FSLAX36Y36*%
%MOIN*%

%ADD10C,0.0100*%
%ADD51C,0.0010*%
%ADD52C,0.0020*%
%ADD53C,0.0039*%
%ADD54C,0.0059*%

%LPD*%
D10*
X2174206Y2620000D02*
G01*
X2890206Y2620000D01*
X2890206Y1104000D01*
X2174206Y1104000D01*
X2174206Y2620000D01*
D51*
X2669332Y2213597D02*
G01*
X2685080Y2213597D01*
X2677206Y2205723D02*
G01*
X2677206Y2221471D01*
D52*
X2517524Y2061996D02*
G01*
X2556894Y2061995D01*
X2537209Y2081680D02*
G01*
X2537210Y2042311D01*
D53*
X2606033Y2269000D02*
G01*
X2334379Y2269000D01*
X2334379Y2589000D01*
X2606033Y2589000D01*
X2606033Y2269000D01*
D52*
X2450521Y2429000D02*
G01*
X2489891Y2429000D01*
X2470206Y2409315D02*
G01*
X2470206Y2448685D01*
D53*
X2598159Y2360102D02*
G01*
X2342253Y2360102D01*
X2342253Y2497898D01*
X2598159Y2497898D01*
X2598159Y2360102D01*
D52*
X2479206Y1628315D02*
G01*
X2479206Y1667685D01*
X2459521Y1648000D02*
G01*
X2498891Y1648000D01*
D53*
X2649206Y1848787D02*
G01*
X2309206Y1848787D01*
X2309206Y1447213D01*
X2649206Y1447213D01*
X2649206Y1848787D01*
D54*
X2550072Y1848000D02*
G01*
X2408340Y1848000D01*
X2408340Y1448000D01*
X2550072Y1448000D01*
X2550072Y1848000D01*
D52*
X2536206Y1208315D02*
G01*
X2536206Y1247685D01*
X2516521Y1228000D02*
G01*
X2555891Y1228000D01*
X2687206Y2454315D02*
G01*
X2687206Y2493685D01*
X2667521Y2474000D02*
G01*
X2706891Y2474000D01*
D51*
X2716490Y1658430D02*
G01*
X2732238Y1658430D01*
X2724364Y1650556D02*
G01*
X2724364Y1666304D01*
X2353206Y2180126D02*
G01*
X2353206Y2195874D01*
X2345332Y2188000D02*
G01*
X2361080Y2188000D01*
X2641332Y1239000D02*
G01*
X2657080Y1239000D01*
X2649206Y1231126D02*
G01*
X2649206Y1246874D01*
X2417332Y1239000D02*
G01*
X2433080Y1239000D01*
X2425206Y1231126D02*
G01*
X2425206Y1246874D01*
X2716490Y1515843D02*
G01*
X2732238Y1515843D01*
X2724364Y1507969D02*
G01*
X2724364Y1523717D01*
X2434847Y1947994D02*
G01*
X2450595Y1947994D01*
X2442721Y1940120D02*
G01*
X2442721Y1955868D01*
X2623817Y1948000D02*
G01*
X2639566Y1948000D01*
X2631691Y1940126D02*
G01*
X2631691Y1955874D01*
D52*
X2516521Y2064000D02*
G01*
X2555891Y2064000D01*
X2536206Y2044315D02*
G01*
X2536206Y2083685D01*
D51*
X2414667Y2230532D02*
G01*
X2414667Y2246280D01*
X2406793Y2238406D02*
G01*
X2422541Y2238406D01*
X2495927Y2229532D02*
G01*
X2495927Y2245280D01*
X2488053Y2237406D02*
G01*
X2503801Y2237406D01*
X2577186Y2229532D02*
G01*
X2577186Y2245280D01*
X2569312Y2237406D02*
G01*
X2585059Y2237406D01*
X2658446Y2229532D02*
G01*
X2658446Y2245280D01*
X2650572Y2237406D02*
G01*
X2666320Y2237406D01*
D52*
X2476238Y2420000D02*
G01*
X2515608Y2420000D01*
X2495923Y2400315D02*
G01*
X2495923Y2439685D01*
X2414664Y2400315D02*
G01*
X2414664Y2439685D01*
X2394979Y2420000D02*
G01*
X2434349Y2420000D01*
X2557498Y2420000D02*
G01*
X2596868Y2420000D01*
X2577183Y2400315D02*
G01*
X2577183Y2439685D01*
X2638758Y2420000D02*
G01*
X2678128Y2420000D01*
X2658442Y2400315D02*
G01*
X2658442Y2439685D01*
D51*
G75*
G01*
X2682206Y2213597D02*
G03*
X2682201Y2213375I-5000J0D01*
D52*
G75*
G01*
X2550989Y2061996D02*
G03*
X2550988Y2061847I-13779J-1D01*
G75*
G01*
X2483986Y2429000D02*
G03*
X2483985Y2428851I-13780J-1D01*
D53*
G75*
G01*
X2380206Y2469000D02*
G03*
X2380204Y2468784I-9842J1D01*
D52*
G75*
G01*
X2492986Y1648000D02*
G03*
X2492985Y1647851I-13780J-1D01*
D54*
G75*
G01*
X2533348Y1818000D02*
G03*
X2533348Y1817847I-14142J-3D01*
D52*
G75*
G01*
X2549986Y1228000D02*
G03*
X2549985Y1227851I-13780J-1D01*
G75*
G01*
X2700986Y2474000D02*
G03*
X2700985Y2473851I-13780J-1D01*
D51*
G75*
G01*
X2729364Y1658430D02*
G03*
X2729359Y1658209I-5000J0D01*
G75*
G01*
X2358206Y2188000D02*
G03*
X2358201Y2187778I-5000J0D01*
G75*
G01*
X2654206Y1239000D02*
G03*
X2654201Y1238778I-5000J0D01*
G75*
G01*
X2430206Y1239000D02*
G03*
X2430201Y1238778I-5000J0D01*
G75*
G01*
X2729364Y1515843D02*
G03*
X2729359Y1515621I-5000J0D01*
G75*
G01*
X2447721Y1947994D02*
G03*
X2447716Y1947772I-5000J-1D01*
G75*
G01*
X2636691Y1948000D02*
G03*
X2636687Y1947778I-5000J0D01*
D52*
G75*
G01*
X2549986Y2064000D02*
G03*
X2549985Y2063851I-13780J-1D01*
D51*
G75*
G01*
X2419667Y2238406D02*
G03*
X2419662Y2238185I-5000J0D01*
G75*
G01*
X2500927Y2237406D02*
G03*
X2500922Y2237185I-5000J0D01*
G75*
G01*
X2582186Y2237406D02*
G03*
X2582181Y2237185I-5000J0D01*
G75*
G01*
X2663446Y2237406D02*
G03*
X2663441Y2237185I-5000J0D01*
D52*
G75*
G01*
X2509703Y2420000D02*
G03*
X2509702Y2419851I-13779J18D01*
G75*
G01*
X2428443Y2420000D02*
G03*
X2428443Y2419851I-13779J-74D01*
G75*
G01*
X2590963Y2420000D02*
G03*
X2590962Y2419851I-13779J18D01*
G75*
G01*
X2672222Y2420000D02*
G03*
X2672221Y2419851I-13779J18D01*
M02*
