G04 Layer: BottomLayer*
G04 EasyEDA v6.5.1, 2022-03-31 14:40:35*
G04 3057500e3b38410d9f8712b39c549b2e,f4ced638559e4a0e855b540ea8c082d1,10*
G04 Gerber Generator version 0.2*
G04 Scale: 100 percent, Rotated: No, Reflected: No *
G04 Dimensions in inches *
G04 leading zeros omitted , absolute positions ,3 integer and 6 decimal *
%FSLAX36Y36*%
%MOIN*%

%ADD11C,0.0080*%
%ADD12C,0.0070*%
%ADD13C,0.0150*%
%ADD15C,0.0240*%
%ADD18R,0.0300X0.0300*%
%ADD20C,0.0669*%
%ADD21R,0.0669X0.0669*%
%ADD22C,0.0295*%
%ADD23C,0.0472*%
%ADD24C,0.0200*%
%ADD25C,0.0197*%
%ADD26R,0.0866X0.0945*%
%ADD27R,0.0295X0.0669*%
%ADD28R,0.1220X0.0669*%
%ADD29R,0.0591X0.0197*%
%ADD30R,0.0500X0.0550*%
%ADD31R,0.0620X0.0550*%

%LPD*%
G36*
X2492760Y1114100D02*
G01*
X2491240Y1114400D01*
X2489940Y1115280D01*
X2426380Y1178820D01*
X2425520Y1180120D01*
X2425200Y1181660D01*
X2425200Y1257340D01*
X2425520Y1258880D01*
X2426380Y1260180D01*
X2446920Y1280720D01*
X2447200Y1281399D01*
X2447200Y1297040D01*
X2447320Y1298020D01*
X2448380Y1302160D01*
X2448720Y1306260D01*
X2448380Y1310360D01*
X2447320Y1314500D01*
X2447200Y1315480D01*
X2447200Y1321000D01*
X2447520Y1322540D01*
X2448380Y1323820D01*
X2449680Y1324700D01*
X2451200Y1325000D01*
X2483200Y1325000D01*
X2484740Y1324700D01*
X2486040Y1323820D01*
X2486900Y1322540D01*
X2487200Y1321000D01*
X2487200Y1256400D01*
X2487480Y1255720D01*
X2499920Y1243280D01*
X2500600Y1243000D01*
X2569820Y1243000D01*
X2570480Y1243280D01*
X2585920Y1258720D01*
X2586200Y1259400D01*
X2586200Y1318940D01*
X2586500Y1320440D01*
X2587420Y1321800D01*
X2588720Y1322680D01*
X2590280Y1323000D01*
X2624200Y1323000D01*
X2625740Y1322700D01*
X2627040Y1321819D01*
X2627900Y1320540D01*
X2628200Y1319000D01*
X2628200Y1315800D01*
X2628080Y1314800D01*
X2626920Y1310340D01*
X2626580Y1306260D01*
X2626920Y1302180D01*
X2628080Y1297720D01*
X2628200Y1296720D01*
X2628200Y1277400D01*
X2628480Y1276720D01*
X2647040Y1258180D01*
X2647900Y1256880D01*
X2648200Y1255340D01*
X2648200Y1175660D01*
X2647900Y1174120D01*
X2647040Y1172820D01*
X2589480Y1115280D01*
X2588180Y1114400D01*
X2586640Y1114100D01*
G37*

%LPD*%
G36*
X2184300Y1110100D02*
G01*
X2182780Y1110400D01*
X2181480Y1111280D01*
X2180620Y1112560D01*
X2180300Y1114100D01*
X2180300Y2609900D01*
X2180620Y2611440D01*
X2181480Y2612720D01*
X2182780Y2613600D01*
X2184300Y2613900D01*
X2880100Y2613900D01*
X2881640Y2613600D01*
X2882940Y2612720D01*
X2883800Y2611440D01*
X2884100Y2609900D01*
X2884100Y1114100D01*
X2883800Y1112560D01*
X2882940Y1111280D01*
X2881640Y1110400D01*
X2880100Y1110100D01*
X2719400Y1110100D01*
X2717820Y1110420D01*
X2716500Y1111340D01*
X2715659Y1112720D01*
X2715419Y1114320D01*
X2715820Y1115880D01*
X2716820Y1117140D01*
X2718220Y1117920D01*
X2722220Y1119160D01*
X2726220Y1121080D01*
X2729900Y1123580D01*
X2733140Y1126600D01*
X2735920Y1130080D01*
X2738140Y1133920D01*
X2739760Y1138060D01*
X2740740Y1142380D01*
X2741100Y1146960D01*
X2741100Y1178160D01*
X2740740Y1182740D01*
X2739760Y1187060D01*
X2738140Y1191200D01*
X2735920Y1195040D01*
X2733140Y1198520D01*
X2729900Y1201540D01*
X2726220Y1204040D01*
X2722220Y1205960D01*
X2717980Y1207280D01*
X2713600Y1207940D01*
X2709140Y1207940D01*
X2704760Y1207280D01*
X2700520Y1205960D01*
X2696520Y1204040D01*
X2692840Y1201540D01*
X2689600Y1198520D01*
X2686820Y1195040D01*
X2684600Y1191200D01*
X2682980Y1187060D01*
X2682000Y1182740D01*
X2681640Y1178160D01*
X2681640Y1146960D01*
X2682000Y1142380D01*
X2682980Y1138060D01*
X2684600Y1133920D01*
X2686820Y1130080D01*
X2689600Y1126600D01*
X2692840Y1123580D01*
X2696520Y1121080D01*
X2700520Y1119160D01*
X2704520Y1117920D01*
X2705920Y1117140D01*
X2706920Y1115880D01*
X2707320Y1114320D01*
X2707080Y1112720D01*
X2706240Y1111340D01*
X2704920Y1110420D01*
X2703340Y1110100D01*
X2602580Y1110100D01*
X2601060Y1110400D01*
X2599760Y1111280D01*
X2598900Y1112560D01*
X2598580Y1114100D01*
X2598900Y1115640D01*
X2599760Y1116920D01*
X2652340Y1169500D01*
X2653460Y1170960D01*
X2654060Y1172440D01*
X2654300Y1174260D01*
X2654300Y1256740D01*
X2654060Y1258560D01*
X2653460Y1260040D01*
X2652340Y1261500D01*
X2635480Y1278360D01*
X2634620Y1279660D01*
X2634300Y1281180D01*
X2634300Y1285220D01*
X2634680Y1286900D01*
X2635740Y1288280D01*
X2637280Y1289079D01*
X2639000Y1289160D01*
X2644300Y1286660D01*
X2647799Y1285720D01*
X2651440Y1285420D01*
X2655059Y1285720D01*
X2658560Y1286660D01*
X2661860Y1288200D01*
X2664840Y1290280D01*
X2667400Y1292860D01*
X2669480Y1295840D01*
X2671019Y1299120D01*
X2671960Y1302640D01*
X2672280Y1306260D01*
X2671960Y1309880D01*
X2671019Y1313400D01*
X2669480Y1316680D01*
X2667400Y1319660D01*
X2664840Y1322240D01*
X2661860Y1324319D01*
X2658560Y1325860D01*
X2655059Y1326800D01*
X2651440Y1327100D01*
X2647799Y1326800D01*
X2644300Y1325860D01*
X2641000Y1324319D01*
X2639780Y1323460D01*
X2638140Y1322800D01*
X2636380Y1322900D01*
X2634820Y1323760D01*
X2633800Y1325200D01*
X2633460Y1326040D01*
X2632500Y1327280D01*
X2631240Y1328260D01*
X2629780Y1328860D01*
X2627940Y1329100D01*
X2598700Y1329100D01*
X2597160Y1329400D01*
X2595860Y1330280D01*
X2595000Y1331560D01*
X2594700Y1333100D01*
X2595000Y1334640D01*
X2595860Y1335920D01*
X2645160Y1385220D01*
X2646460Y1386100D01*
X2648000Y1386399D01*
X2748880Y1386399D01*
X2750400Y1386100D01*
X2751700Y1385220D01*
X2756440Y1380500D01*
X2757300Y1379199D01*
X2757600Y1377660D01*
X2757600Y1323200D01*
X2757919Y1320180D01*
X2758800Y1317480D01*
X2760240Y1314980D01*
X2761700Y1313280D01*
X2785120Y1289860D01*
X2786740Y1287980D01*
X2787940Y1286240D01*
X2788920Y1284400D01*
X2789360Y1283080D01*
X2792780Y1259040D01*
X2792840Y1258100D01*
X2793740Y1252840D01*
X2795299Y1247780D01*
X2797520Y1243000D01*
X2800360Y1238540D01*
X2803780Y1234500D01*
X2807700Y1230960D01*
X2812060Y1227960D01*
X2816760Y1225580D01*
X2821760Y1223840D01*
X2826940Y1222800D01*
X2832220Y1222440D01*
X2837480Y1222800D01*
X2842660Y1223840D01*
X2847660Y1225580D01*
X2852360Y1227960D01*
X2856720Y1230960D01*
X2860640Y1234500D01*
X2864060Y1238540D01*
X2866900Y1243000D01*
X2869120Y1247780D01*
X2870680Y1252840D01*
X2871560Y1258040D01*
X2871740Y1263320D01*
X2871220Y1268580D01*
X2869980Y1273720D01*
X2868100Y1278660D01*
X2865560Y1283280D01*
X2862420Y1287540D01*
X2858740Y1291339D01*
X2854600Y1294620D01*
X2850059Y1297300D01*
X2845179Y1299360D01*
X2840080Y1300760D01*
X2811120Y1304860D01*
X2809800Y1305280D01*
X2807559Y1306519D01*
X2805860Y1307740D01*
X2804360Y1309079D01*
X2785980Y1327460D01*
X2785120Y1328760D01*
X2784800Y1330300D01*
X2784800Y1355000D01*
X2785140Y1356579D01*
X2786060Y1357920D01*
X2787440Y1358760D01*
X2789040Y1359000D01*
X2790600Y1358580D01*
X2791860Y1357580D01*
X2792640Y1356160D01*
X2794220Y1350900D01*
X2794620Y1349960D01*
X2795299Y1347780D01*
X2797520Y1343000D01*
X2800360Y1338540D01*
X2803780Y1334500D01*
X2807700Y1330960D01*
X2812060Y1327960D01*
X2816760Y1325580D01*
X2821760Y1323839D01*
X2826940Y1322800D01*
X2832220Y1322440D01*
X2837480Y1322800D01*
X2842660Y1323839D01*
X2847660Y1325580D01*
X2852360Y1327960D01*
X2856720Y1330960D01*
X2860640Y1334500D01*
X2864060Y1338540D01*
X2866900Y1343000D01*
X2869120Y1347780D01*
X2870680Y1352840D01*
X2871560Y1358040D01*
X2871740Y1363320D01*
X2871220Y1368580D01*
X2869980Y1373720D01*
X2868100Y1378660D01*
X2865560Y1383280D01*
X2862420Y1387540D01*
X2858740Y1391339D01*
X2854600Y1394620D01*
X2850059Y1397300D01*
X2845179Y1399360D01*
X2840080Y1400760D01*
X2834860Y1401459D01*
X2829560Y1401459D01*
X2825659Y1401020D01*
X2801640Y1396720D01*
X2800120Y1396759D01*
X2798100Y1397220D01*
X2796139Y1398120D01*
X2794120Y1399660D01*
X2735140Y1458640D01*
X2734280Y1459940D01*
X2733960Y1461480D01*
X2734080Y1463300D01*
X2734400Y1464180D01*
X2735800Y1466960D01*
X2736560Y1468000D01*
X2737620Y1468760D01*
X2738840Y1469120D01*
X2740940Y1469400D01*
X2742400Y1470000D01*
X2743660Y1470980D01*
X2744620Y1472220D01*
X2745220Y1473700D01*
X2745480Y1475520D01*
X2745480Y1505000D01*
X2745220Y1506819D01*
X2744620Y1508300D01*
X2743660Y1509540D01*
X2742400Y1510520D01*
X2740940Y1511120D01*
X2739100Y1511360D01*
X2709640Y1511360D01*
X2707799Y1511120D01*
X2706340Y1510520D01*
X2705080Y1509540D01*
X2704120Y1508300D01*
X2703519Y1506819D01*
X2703279Y1505000D01*
X2703279Y1475520D01*
X2703519Y1473700D01*
X2704120Y1472220D01*
X2705080Y1470980D01*
X2706340Y1470000D01*
X2707799Y1469400D01*
X2709900Y1469120D01*
X2711139Y1468760D01*
X2712200Y1468000D01*
X2712960Y1466940D01*
X2714340Y1464160D01*
X2714760Y1462380D01*
X2714800Y1455380D01*
X2715220Y1453000D01*
X2716180Y1450880D01*
X2717740Y1448880D01*
X2746200Y1420420D01*
X2747060Y1419139D01*
X2747380Y1417600D01*
X2747060Y1416060D01*
X2746200Y1414780D01*
X2744900Y1413899D01*
X2743380Y1413600D01*
X2640920Y1413600D01*
X2637880Y1413280D01*
X2635179Y1412400D01*
X2632679Y1410960D01*
X2630980Y1409500D01*
X2557080Y1335620D01*
X2555820Y1334440D01*
X2548340Y1328959D01*
X2546740Y1328260D01*
X2544980Y1328300D01*
X2543080Y1328779D01*
X2541500Y1328760D01*
X2539980Y1328340D01*
X2538620Y1327520D01*
X2537520Y1326380D01*
X2536740Y1325000D01*
X2536340Y1323480D01*
X2536360Y1322240D01*
X2536180Y1320980D01*
X2535620Y1319860D01*
X2534740Y1318959D01*
X2528580Y1314440D01*
X2527460Y1313860D01*
X2526220Y1313660D01*
X2513380Y1313660D01*
X2511540Y1313420D01*
X2510080Y1312820D01*
X2508820Y1311860D01*
X2507860Y1310600D01*
X2507260Y1309139D01*
X2507000Y1307300D01*
X2507000Y1283700D01*
X2507260Y1281860D01*
X2507860Y1280400D01*
X2508820Y1279140D01*
X2510080Y1278180D01*
X2511540Y1277580D01*
X2513380Y1277340D01*
X2559040Y1277340D01*
X2560880Y1277580D01*
X2562340Y1278180D01*
X2563600Y1279140D01*
X2564560Y1280400D01*
X2565160Y1281860D01*
X2565400Y1283700D01*
X2565400Y1293740D01*
X2565539Y1294740D01*
X2566600Y1296920D01*
X2566980Y1298460D01*
X2566960Y1300040D01*
X2566500Y1301699D01*
X2566380Y1303280D01*
X2566860Y1304760D01*
X2567860Y1306500D01*
X2569240Y1308460D01*
X2572620Y1312440D01*
X2573260Y1313080D01*
X2574540Y1313959D01*
X2576080Y1314280D01*
X2577620Y1313980D01*
X2578920Y1313100D01*
X2579800Y1311800D01*
X2580100Y1310280D01*
X2580100Y1263180D01*
X2579800Y1261660D01*
X2578940Y1260360D01*
X2568860Y1250280D01*
X2567559Y1249400D01*
X2566019Y1249100D01*
X2504380Y1249100D01*
X2502860Y1249400D01*
X2501560Y1250280D01*
X2494480Y1257360D01*
X2493620Y1258660D01*
X2493300Y1260180D01*
X2493300Y1324740D01*
X2493060Y1326560D01*
X2492460Y1328040D01*
X2491500Y1329280D01*
X2490240Y1330260D01*
X2488780Y1330860D01*
X2486940Y1331100D01*
X2447460Y1331100D01*
X2445640Y1330860D01*
X2444180Y1330260D01*
X2442920Y1329280D01*
X2441960Y1328040D01*
X2440800Y1324980D01*
X2439700Y1323779D01*
X2438200Y1323120D01*
X2436580Y1323120D01*
X2435080Y1323760D01*
X2434300Y1324319D01*
X2431000Y1325860D01*
X2427500Y1326800D01*
X2423880Y1327100D01*
X2420240Y1326800D01*
X2416740Y1325860D01*
X2413440Y1324319D01*
X2410460Y1322240D01*
X2407900Y1319660D01*
X2405820Y1316680D01*
X2404280Y1313400D01*
X2403340Y1309880D01*
X2403020Y1306260D01*
X2403340Y1302640D01*
X2404280Y1299120D01*
X2405820Y1295840D01*
X2407900Y1292860D01*
X2410460Y1290280D01*
X2413440Y1288200D01*
X2416740Y1286660D01*
X2420240Y1285720D01*
X2423880Y1285420D01*
X2427500Y1285720D01*
X2431000Y1286660D01*
X2435140Y1288660D01*
X2436680Y1289160D01*
X2438300Y1289000D01*
X2439720Y1288200D01*
X2440720Y1286900D01*
X2441100Y1285320D01*
X2440820Y1283720D01*
X2439940Y1282360D01*
X2421080Y1263500D01*
X2419960Y1262040D01*
X2419340Y1260560D01*
X2419100Y1258740D01*
X2419100Y1180260D01*
X2419340Y1178440D01*
X2419960Y1176960D01*
X2421080Y1175500D01*
X2479660Y1116920D01*
X2480520Y1115640D01*
X2480820Y1114100D01*
X2480520Y1112560D01*
X2479660Y1111280D01*
X2478360Y1110400D01*
X2476820Y1110100D01*
X2365080Y1110100D01*
X2363500Y1110420D01*
X2362180Y1111340D01*
X2361320Y1112720D01*
X2361080Y1114320D01*
X2361500Y1115880D01*
X2362480Y1117140D01*
X2363900Y1117920D01*
X2367900Y1119160D01*
X2371900Y1121080D01*
X2375560Y1123580D01*
X2378820Y1126600D01*
X2381580Y1130080D01*
X2383800Y1133920D01*
X2385440Y1138060D01*
X2386420Y1142380D01*
X2386760Y1146960D01*
X2386760Y1178160D01*
X2386420Y1182740D01*
X2385440Y1187060D01*
X2383800Y1191200D01*
X2381580Y1195040D01*
X2378820Y1198520D01*
X2375560Y1201540D01*
X2371900Y1204040D01*
X2367900Y1205960D01*
X2363660Y1207280D01*
X2359260Y1207940D01*
X2354820Y1207940D01*
X2350420Y1207280D01*
X2346180Y1205960D01*
X2342180Y1204040D01*
X2338520Y1201540D01*
X2335260Y1198520D01*
X2332500Y1195040D01*
X2330280Y1191200D01*
X2328640Y1187060D01*
X2327660Y1182740D01*
X2327320Y1178160D01*
X2327320Y1146960D01*
X2327660Y1142380D01*
X2328640Y1138060D01*
X2330280Y1133920D01*
X2332500Y1130080D01*
X2335260Y1126600D01*
X2338520Y1123580D01*
X2342180Y1121080D01*
X2346180Y1119160D01*
X2350180Y1117920D01*
X2351600Y1117140D01*
X2352580Y1115880D01*
X2353000Y1114320D01*
X2352760Y1112720D01*
X2351900Y1111340D01*
X2350580Y1110420D01*
X2349000Y1110100D01*
G37*

%LPC*%
G36*
X2832220Y1122440D02*
G01*
X2837480Y1122800D01*
X2842660Y1123840D01*
X2847660Y1125580D01*
X2852360Y1127960D01*
X2856720Y1130960D01*
X2860640Y1134500D01*
X2864060Y1138540D01*
X2866900Y1143000D01*
X2869120Y1147780D01*
X2870680Y1152840D01*
X2871560Y1158040D01*
X2871740Y1163320D01*
X2871220Y1168580D01*
X2869980Y1173720D01*
X2868100Y1178660D01*
X2865560Y1183280D01*
X2862420Y1187540D01*
X2858740Y1191340D01*
X2854600Y1194620D01*
X2850059Y1197300D01*
X2845179Y1199360D01*
X2840080Y1200760D01*
X2834860Y1201460D01*
X2829560Y1201460D01*
X2824340Y1200760D01*
X2819240Y1199360D01*
X2814380Y1197300D01*
X2809820Y1194620D01*
X2805680Y1191340D01*
X2802000Y1187540D01*
X2798860Y1183280D01*
X2796320Y1178660D01*
X2794440Y1173720D01*
X2793200Y1168580D01*
X2792679Y1163320D01*
X2792860Y1158040D01*
X2793740Y1152840D01*
X2795299Y1147780D01*
X2797520Y1143000D01*
X2800360Y1138540D01*
X2803780Y1134500D01*
X2807700Y1130960D01*
X2812060Y1127960D01*
X2816760Y1125580D01*
X2821760Y1123840D01*
X2826940Y1122800D01*
G37*
G36*
X2232220Y1122440D02*
G01*
X2237480Y1122800D01*
X2242660Y1123840D01*
X2247660Y1125580D01*
X2252360Y1127960D01*
X2256720Y1130960D01*
X2260640Y1134500D01*
X2264060Y1138540D01*
X2266900Y1143000D01*
X2269120Y1147780D01*
X2270680Y1152840D01*
X2271560Y1158040D01*
X2271740Y1163320D01*
X2271220Y1168580D01*
X2269980Y1173720D01*
X2268100Y1178660D01*
X2265560Y1183280D01*
X2262420Y1187540D01*
X2258740Y1191340D01*
X2254600Y1194620D01*
X2250060Y1197300D01*
X2245180Y1199360D01*
X2240080Y1200760D01*
X2234860Y1201460D01*
X2229560Y1201460D01*
X2224340Y1200760D01*
X2219240Y1199360D01*
X2214380Y1197300D01*
X2209820Y1194620D01*
X2205680Y1191340D01*
X2202000Y1187540D01*
X2198860Y1183280D01*
X2196320Y1178660D01*
X2194440Y1173720D01*
X2193200Y1168580D01*
X2192680Y1163320D01*
X2192860Y1158040D01*
X2193740Y1152840D01*
X2195300Y1147780D01*
X2197520Y1143000D01*
X2200360Y1138540D01*
X2203780Y1134500D01*
X2207700Y1130960D01*
X2212060Y1127960D01*
X2216760Y1125580D01*
X2221760Y1123840D01*
X2226940Y1122800D01*
G37*
G36*
X2232220Y1222440D02*
G01*
X2237480Y1222800D01*
X2242660Y1223840D01*
X2247660Y1225580D01*
X2252360Y1227960D01*
X2256720Y1230960D01*
X2260640Y1234500D01*
X2264060Y1238540D01*
X2266900Y1243000D01*
X2269120Y1247780D01*
X2270680Y1252840D01*
X2271560Y1258040D01*
X2271740Y1263320D01*
X2271220Y1268580D01*
X2269980Y1273720D01*
X2268100Y1278660D01*
X2265560Y1283280D01*
X2262420Y1287540D01*
X2258740Y1291339D01*
X2254600Y1294620D01*
X2250060Y1297300D01*
X2245180Y1299360D01*
X2240080Y1300760D01*
X2234860Y1301459D01*
X2229560Y1301459D01*
X2224340Y1300760D01*
X2219240Y1299360D01*
X2214380Y1297300D01*
X2209820Y1294620D01*
X2205680Y1291339D01*
X2202000Y1287540D01*
X2198860Y1283280D01*
X2196320Y1278660D01*
X2194440Y1273720D01*
X2193200Y1268580D01*
X2192680Y1263320D01*
X2192860Y1258040D01*
X2193740Y1252840D01*
X2195300Y1247780D01*
X2197520Y1243000D01*
X2200360Y1238540D01*
X2203780Y1234500D01*
X2207700Y1230960D01*
X2212060Y1227960D01*
X2216760Y1225580D01*
X2221760Y1223840D01*
X2226940Y1222800D01*
G37*
G36*
X2354820Y1274660D02*
G01*
X2359260Y1274660D01*
X2363660Y1275320D01*
X2367900Y1276620D01*
X2371900Y1278560D01*
X2375560Y1281060D01*
X2378820Y1284079D01*
X2381580Y1287540D01*
X2383800Y1291399D01*
X2385440Y1295520D01*
X2386420Y1299860D01*
X2386760Y1304440D01*
X2386760Y1347440D01*
X2386420Y1352020D01*
X2385440Y1356360D01*
X2383800Y1360480D01*
X2381580Y1364319D01*
X2378820Y1367800D01*
X2375560Y1370820D01*
X2371900Y1373320D01*
X2367900Y1375240D01*
X2363660Y1376560D01*
X2359260Y1377220D01*
X2354820Y1377220D01*
X2350420Y1376560D01*
X2346180Y1375240D01*
X2342180Y1373320D01*
X2338520Y1370820D01*
X2335260Y1367800D01*
X2332500Y1364319D01*
X2330280Y1360480D01*
X2328640Y1356360D01*
X2327660Y1352020D01*
X2327320Y1347440D01*
X2327320Y1304440D01*
X2327660Y1299860D01*
X2328640Y1295520D01*
X2330280Y1291399D01*
X2332500Y1287540D01*
X2335260Y1284079D01*
X2338520Y1281060D01*
X2342180Y1278560D01*
X2346180Y1276620D01*
X2350420Y1275320D01*
G37*
G36*
X2709140Y1274660D02*
G01*
X2713600Y1274660D01*
X2717980Y1275320D01*
X2722220Y1276620D01*
X2726220Y1278560D01*
X2729900Y1281060D01*
X2733140Y1284079D01*
X2735920Y1287540D01*
X2738140Y1291399D01*
X2739760Y1295520D01*
X2740740Y1299860D01*
X2741100Y1304440D01*
X2741100Y1347440D01*
X2740740Y1352020D01*
X2739760Y1356360D01*
X2738140Y1360480D01*
X2735920Y1364319D01*
X2733140Y1367800D01*
X2729900Y1370820D01*
X2726220Y1373320D01*
X2722220Y1375240D01*
X2717980Y1376560D01*
X2713600Y1377220D01*
X2709140Y1377220D01*
X2704760Y1376560D01*
X2700520Y1375240D01*
X2696520Y1373320D01*
X2692840Y1370820D01*
X2689600Y1367800D01*
X2686820Y1364319D01*
X2684600Y1360480D01*
X2682980Y1356360D01*
X2682000Y1352020D01*
X2681640Y1347440D01*
X2681640Y1304440D01*
X2682000Y1299860D01*
X2682980Y1295520D01*
X2684600Y1291399D01*
X2686820Y1287540D01*
X2689600Y1284079D01*
X2692840Y1281060D01*
X2696520Y1278560D01*
X2700520Y1276620D01*
X2704760Y1275320D01*
G37*
G36*
X2232220Y1322440D02*
G01*
X2237480Y1322800D01*
X2242660Y1323839D01*
X2247660Y1325580D01*
X2252360Y1327960D01*
X2256720Y1330960D01*
X2260640Y1334500D01*
X2264060Y1338540D01*
X2266900Y1343000D01*
X2269120Y1347780D01*
X2270680Y1352840D01*
X2271560Y1358040D01*
X2271740Y1363320D01*
X2271220Y1368580D01*
X2269980Y1373720D01*
X2268100Y1378660D01*
X2265560Y1383280D01*
X2262420Y1387540D01*
X2258740Y1391339D01*
X2254600Y1394620D01*
X2250060Y1397300D01*
X2245180Y1399360D01*
X2240080Y1400760D01*
X2234860Y1401459D01*
X2229560Y1401459D01*
X2224340Y1400760D01*
X2219240Y1399360D01*
X2214380Y1397300D01*
X2209820Y1394620D01*
X2205680Y1391339D01*
X2202000Y1387540D01*
X2198860Y1383280D01*
X2196320Y1378660D01*
X2194440Y1373720D01*
X2193200Y1368580D01*
X2192680Y1363320D01*
X2192860Y1358040D01*
X2193740Y1352840D01*
X2195300Y1347780D01*
X2197520Y1343000D01*
X2200360Y1338540D01*
X2203780Y1334500D01*
X2207700Y1330960D01*
X2212060Y1327960D01*
X2216760Y1325580D01*
X2221760Y1323839D01*
X2226940Y1322800D01*
G37*
G36*
X2506460Y1401900D02*
G01*
X2509780Y1401900D01*
X2513060Y1402520D01*
X2516180Y1403720D01*
X2519020Y1405480D01*
X2521480Y1407720D01*
X2523500Y1410400D01*
X2524980Y1413380D01*
X2525900Y1416579D01*
X2525960Y1417380D01*
X2526380Y1418820D01*
X2527300Y1420020D01*
X2528580Y1420780D01*
X2530060Y1421020D01*
X2531540Y1420700D01*
X2532780Y1419860D01*
X2538760Y1413899D01*
X2540800Y1412500D01*
X2542240Y1411900D01*
X2543160Y1411380D01*
X2549320Y1406560D01*
X2552140Y1404820D01*
X2555260Y1403600D01*
X2558540Y1403000D01*
X2561880Y1403000D01*
X2565160Y1403600D01*
X2568279Y1404820D01*
X2571100Y1406560D01*
X2573580Y1408820D01*
X2575580Y1411480D01*
X2577080Y1414460D01*
X2577980Y1417680D01*
X2578300Y1421000D01*
X2577980Y1424319D01*
X2577080Y1427540D01*
X2575580Y1430520D01*
X2573580Y1433180D01*
X2571100Y1435440D01*
X2568279Y1437180D01*
X2565160Y1438400D01*
X2561880Y1439000D01*
X2558540Y1439000D01*
X2555260Y1438400D01*
X2553260Y1437620D01*
X2551740Y1437340D01*
X2550220Y1437660D01*
X2548960Y1438540D01*
X2548100Y1439820D01*
X2547800Y1441339D01*
X2547800Y1461279D01*
X2548140Y1462880D01*
X2549080Y1464199D01*
X2550460Y1465040D01*
X2552060Y1465280D01*
X2553640Y1464840D01*
X2554900Y1463820D01*
X2556600Y1461740D01*
X2559020Y1459760D01*
X2561780Y1458280D01*
X2564760Y1457380D01*
X2568060Y1457060D01*
X2607040Y1457060D01*
X2610340Y1457380D01*
X2613320Y1458280D01*
X2616080Y1459760D01*
X2618500Y1461740D01*
X2620480Y1464160D01*
X2621940Y1466900D01*
X2622860Y1469900D01*
X2623159Y1473000D01*
X2622860Y1476100D01*
X2621940Y1479100D01*
X2620480Y1481840D01*
X2618500Y1484259D01*
X2616080Y1486240D01*
X2613320Y1487720D01*
X2610340Y1488620D01*
X2607040Y1488940D01*
X2568060Y1488940D01*
X2564760Y1488620D01*
X2561780Y1487720D01*
X2559020Y1486240D01*
X2556600Y1484259D01*
X2554900Y1482180D01*
X2553640Y1481160D01*
X2552060Y1480720D01*
X2550460Y1480960D01*
X2549080Y1481800D01*
X2548140Y1483120D01*
X2547800Y1484720D01*
X2547800Y1511279D01*
X2548140Y1512880D01*
X2549080Y1514199D01*
X2550460Y1515040D01*
X2552060Y1515280D01*
X2553640Y1514840D01*
X2554900Y1513820D01*
X2556600Y1511740D01*
X2559020Y1509760D01*
X2561780Y1508280D01*
X2564760Y1507380D01*
X2568060Y1507060D01*
X2607040Y1507060D01*
X2610340Y1507380D01*
X2613320Y1508280D01*
X2616080Y1509760D01*
X2618500Y1511740D01*
X2620480Y1514160D01*
X2621940Y1516900D01*
X2622860Y1519900D01*
X2623159Y1523000D01*
X2622860Y1526100D01*
X2621940Y1529100D01*
X2620480Y1531840D01*
X2619480Y1533060D01*
X2618759Y1534340D01*
X2618560Y1535800D01*
X2618900Y1537220D01*
X2619720Y1538420D01*
X2620920Y1539259D01*
X2622160Y1539800D01*
X2624160Y1541380D01*
X2639960Y1557160D01*
X2641680Y1559560D01*
X2642500Y1561699D01*
X2642799Y1564240D01*
X2642799Y1613940D01*
X2642340Y1616840D01*
X2641400Y1618959D01*
X2639820Y1620960D01*
X2630700Y1630060D01*
X2628660Y1631480D01*
X2626480Y1632300D01*
X2624140Y1632620D01*
X2622880Y1633000D01*
X2613440Y1637680D01*
X2610340Y1638620D01*
X2607040Y1638940D01*
X2568060Y1638940D01*
X2564760Y1638620D01*
X2561780Y1637720D01*
X2559020Y1636240D01*
X2556600Y1634259D01*
X2554620Y1631840D01*
X2553160Y1629100D01*
X2552240Y1626100D01*
X2551940Y1623000D01*
X2552240Y1619900D01*
X2553160Y1616900D01*
X2554620Y1614160D01*
X2556600Y1611740D01*
X2559020Y1609760D01*
X2561780Y1608280D01*
X2564760Y1607380D01*
X2568060Y1607060D01*
X2607040Y1607060D01*
X2610340Y1607380D01*
X2613399Y1608320D01*
X2617860Y1610480D01*
X2619400Y1610880D01*
X2621000Y1610640D01*
X2622360Y1609780D01*
X2623279Y1608460D01*
X2623600Y1606879D01*
X2623600Y1588520D01*
X2623320Y1587060D01*
X2622520Y1585780D01*
X2621320Y1584900D01*
X2619860Y1584540D01*
X2618380Y1584720D01*
X2617060Y1585420D01*
X2616080Y1586240D01*
X2613320Y1587720D01*
X2610340Y1588620D01*
X2607040Y1588940D01*
X2568060Y1588940D01*
X2564760Y1588620D01*
X2561660Y1587680D01*
X2552260Y1583020D01*
X2550480Y1582600D01*
X2537800Y1582580D01*
X2535360Y1582140D01*
X2533260Y1581200D01*
X2531240Y1579620D01*
X2501380Y1549740D01*
X2499640Y1547360D01*
X2498820Y1545200D01*
X2498520Y1542680D01*
X2498520Y1439259D01*
X2498360Y1438120D01*
X2497880Y1437080D01*
X2493780Y1430800D01*
X2492740Y1429420D01*
X2491260Y1426440D01*
X2490340Y1423240D01*
X2490040Y1419900D01*
X2490340Y1416579D01*
X2491260Y1413380D01*
X2492740Y1410400D01*
X2494760Y1407720D01*
X2497220Y1405480D01*
X2500060Y1403720D01*
X2503180Y1402520D01*
G37*
G36*
X2232220Y1422440D02*
G01*
X2237480Y1422800D01*
X2242660Y1423839D01*
X2247660Y1425580D01*
X2252360Y1427960D01*
X2256720Y1430960D01*
X2260640Y1434500D01*
X2264060Y1438540D01*
X2266900Y1443000D01*
X2269120Y1447780D01*
X2270680Y1452840D01*
X2271560Y1458040D01*
X2271740Y1463320D01*
X2271220Y1468580D01*
X2269980Y1473720D01*
X2268100Y1478660D01*
X2265560Y1483280D01*
X2262420Y1487540D01*
X2258740Y1491339D01*
X2254600Y1494620D01*
X2250060Y1497300D01*
X2245180Y1499360D01*
X2240080Y1500760D01*
X2234860Y1501459D01*
X2229560Y1501459D01*
X2224340Y1500760D01*
X2219240Y1499360D01*
X2214380Y1497300D01*
X2209820Y1494620D01*
X2205680Y1491339D01*
X2202000Y1487540D01*
X2198860Y1483280D01*
X2196320Y1478660D01*
X2194440Y1473720D01*
X2193200Y1468580D01*
X2192680Y1463320D01*
X2192860Y1458040D01*
X2193740Y1452840D01*
X2195300Y1447780D01*
X2197520Y1443000D01*
X2200360Y1438540D01*
X2203780Y1434500D01*
X2207700Y1430960D01*
X2212060Y1427960D01*
X2216760Y1425580D01*
X2221760Y1423839D01*
X2226940Y1422800D01*
G37*
G36*
X2832220Y1422440D02*
G01*
X2837480Y1422800D01*
X2842660Y1423839D01*
X2847660Y1425580D01*
X2852360Y1427960D01*
X2856720Y1430960D01*
X2860640Y1434500D01*
X2864060Y1438540D01*
X2866900Y1443000D01*
X2869120Y1447780D01*
X2870680Y1452840D01*
X2871560Y1458040D01*
X2871740Y1463320D01*
X2871220Y1468580D01*
X2869980Y1473720D01*
X2868100Y1478660D01*
X2865560Y1483280D01*
X2862420Y1487540D01*
X2858740Y1491339D01*
X2854600Y1494620D01*
X2850059Y1497300D01*
X2845179Y1499360D01*
X2840080Y1500760D01*
X2834860Y1501459D01*
X2829560Y1501459D01*
X2824340Y1500760D01*
X2819240Y1499360D01*
X2814380Y1497300D01*
X2809820Y1494620D01*
X2805680Y1491339D01*
X2802000Y1487540D01*
X2798860Y1483280D01*
X2796320Y1478660D01*
X2794440Y1473720D01*
X2793200Y1468580D01*
X2792679Y1463320D01*
X2792860Y1458040D01*
X2793740Y1452840D01*
X2795299Y1447780D01*
X2797520Y1443000D01*
X2800360Y1438540D01*
X2803780Y1434500D01*
X2807700Y1430960D01*
X2812060Y1427960D01*
X2816760Y1425580D01*
X2821760Y1423839D01*
X2826940Y1422800D01*
G37*
G36*
X2351380Y1457060D02*
G01*
X2390340Y1457060D01*
X2393660Y1457380D01*
X2396640Y1458280D01*
X2399400Y1459760D01*
X2401800Y1461740D01*
X2403780Y1464160D01*
X2405260Y1466900D01*
X2406160Y1469900D01*
X2406460Y1473000D01*
X2406160Y1476100D01*
X2405260Y1479100D01*
X2403780Y1481840D01*
X2401800Y1484259D01*
X2399400Y1486240D01*
X2396640Y1487720D01*
X2393660Y1488620D01*
X2390340Y1488940D01*
X2351380Y1488940D01*
X2348060Y1488620D01*
X2345080Y1487720D01*
X2342320Y1486240D01*
X2339920Y1484259D01*
X2337940Y1481840D01*
X2336460Y1479100D01*
X2335560Y1476100D01*
X2335260Y1473000D01*
X2335560Y1469900D01*
X2336460Y1466900D01*
X2337940Y1464160D01*
X2339920Y1461740D01*
X2342320Y1459760D01*
X2345080Y1458280D01*
X2348060Y1457380D01*
G37*
G36*
X2351380Y1507060D02*
G01*
X2390340Y1507060D01*
X2393660Y1507380D01*
X2396640Y1508280D01*
X2399400Y1509760D01*
X2401800Y1511740D01*
X2403780Y1514160D01*
X2405260Y1516900D01*
X2406160Y1519900D01*
X2406460Y1523000D01*
X2406160Y1526100D01*
X2405260Y1529100D01*
X2403780Y1531840D01*
X2401800Y1534259D01*
X2399400Y1536240D01*
X2396640Y1537720D01*
X2393660Y1538620D01*
X2390340Y1538940D01*
X2351380Y1538940D01*
X2348060Y1538620D01*
X2345080Y1537720D01*
X2342320Y1536240D01*
X2339920Y1534259D01*
X2337940Y1531840D01*
X2336460Y1529100D01*
X2335560Y1526100D01*
X2335260Y1523000D01*
X2335560Y1519900D01*
X2336460Y1516900D01*
X2337940Y1514160D01*
X2339920Y1511740D01*
X2342320Y1509760D01*
X2345080Y1508280D01*
X2348060Y1507380D01*
G37*
G36*
X2232220Y1522440D02*
G01*
X2237480Y1522800D01*
X2242660Y1523839D01*
X2247660Y1525580D01*
X2252360Y1527960D01*
X2256720Y1530960D01*
X2260640Y1534500D01*
X2264060Y1538540D01*
X2266900Y1543000D01*
X2269120Y1547780D01*
X2270680Y1552840D01*
X2271560Y1558040D01*
X2271740Y1563320D01*
X2271220Y1568580D01*
X2269980Y1573720D01*
X2268100Y1578660D01*
X2265560Y1583280D01*
X2262420Y1587540D01*
X2258740Y1591339D01*
X2254600Y1594620D01*
X2250060Y1597300D01*
X2245180Y1599360D01*
X2240080Y1600760D01*
X2234860Y1601459D01*
X2229560Y1601459D01*
X2224340Y1600760D01*
X2219240Y1599360D01*
X2214380Y1597300D01*
X2209820Y1594620D01*
X2205680Y1591339D01*
X2202000Y1587540D01*
X2198860Y1583280D01*
X2196320Y1578660D01*
X2194440Y1573720D01*
X2193200Y1568580D01*
X2192680Y1563320D01*
X2192860Y1558040D01*
X2193740Y1552840D01*
X2195300Y1547780D01*
X2197520Y1543000D01*
X2200360Y1538540D01*
X2203780Y1534500D01*
X2207700Y1530960D01*
X2212060Y1527960D01*
X2216760Y1525580D01*
X2221760Y1523839D01*
X2226940Y1522800D01*
G37*
G36*
X2832220Y1522440D02*
G01*
X2837480Y1522800D01*
X2842660Y1523839D01*
X2847660Y1525580D01*
X2852360Y1527960D01*
X2856720Y1530960D01*
X2860640Y1534500D01*
X2864060Y1538540D01*
X2866900Y1543000D01*
X2869120Y1547780D01*
X2870680Y1552840D01*
X2871560Y1558040D01*
X2871740Y1563320D01*
X2871220Y1568580D01*
X2869980Y1573720D01*
X2868100Y1578660D01*
X2865560Y1583280D01*
X2862420Y1587540D01*
X2858740Y1591339D01*
X2854600Y1594620D01*
X2850059Y1597300D01*
X2845179Y1599360D01*
X2840080Y1600760D01*
X2834860Y1601459D01*
X2829560Y1601459D01*
X2824340Y1600760D01*
X2819240Y1599360D01*
X2814380Y1597300D01*
X2809820Y1594620D01*
X2805680Y1591339D01*
X2802000Y1587540D01*
X2798860Y1583280D01*
X2796320Y1578660D01*
X2794440Y1573720D01*
X2793200Y1568580D01*
X2792679Y1563320D01*
X2792860Y1558040D01*
X2793740Y1552840D01*
X2795299Y1547780D01*
X2797520Y1543000D01*
X2800360Y1538540D01*
X2803780Y1534500D01*
X2807700Y1530960D01*
X2812060Y1527960D01*
X2816760Y1525580D01*
X2821760Y1523839D01*
X2826940Y1522800D01*
G37*
G36*
X2351380Y1557060D02*
G01*
X2390340Y1557060D01*
X2393660Y1557380D01*
X2396640Y1558280D01*
X2399400Y1559760D01*
X2401800Y1561740D01*
X2403780Y1564160D01*
X2405260Y1566900D01*
X2406160Y1569900D01*
X2406460Y1573000D01*
X2406160Y1576100D01*
X2405260Y1579100D01*
X2403780Y1581840D01*
X2401800Y1584259D01*
X2399400Y1586240D01*
X2396640Y1587720D01*
X2393660Y1588620D01*
X2390340Y1588940D01*
X2351380Y1588940D01*
X2348060Y1588620D01*
X2345080Y1587720D01*
X2342320Y1586240D01*
X2339920Y1584259D01*
X2337940Y1581840D01*
X2336460Y1579100D01*
X2335560Y1576100D01*
X2335260Y1573000D01*
X2335560Y1569900D01*
X2336460Y1566900D01*
X2337940Y1564160D01*
X2339920Y1561740D01*
X2342320Y1559760D01*
X2345080Y1558280D01*
X2348060Y1557380D01*
G37*
G36*
X2351380Y1607060D02*
G01*
X2390340Y1607060D01*
X2393660Y1607380D01*
X2396640Y1608280D01*
X2399400Y1609760D01*
X2401800Y1611740D01*
X2403780Y1614160D01*
X2405260Y1616900D01*
X2406060Y1619580D01*
X2406920Y1621100D01*
X2408360Y1622100D01*
X2410060Y1622420D01*
X2411760Y1621960D01*
X2413080Y1620820D01*
X2413840Y1619820D01*
X2416320Y1617560D01*
X2419140Y1615820D01*
X2422260Y1614600D01*
X2425540Y1614000D01*
X2428880Y1614000D01*
X2432160Y1614600D01*
X2435280Y1615820D01*
X2438100Y1617560D01*
X2440580Y1619820D01*
X2442580Y1622480D01*
X2444080Y1625460D01*
X2444900Y1627400D01*
X2446000Y1628400D01*
X2447360Y1628940D01*
X2448840Y1628940D01*
X2450200Y1628400D01*
X2451140Y1627820D01*
X2454260Y1626600D01*
X2457540Y1626000D01*
X2460880Y1626000D01*
X2464160Y1626600D01*
X2467280Y1627820D01*
X2471580Y1630480D01*
X2473180Y1630680D01*
X2474740Y1630240D01*
X2475980Y1629220D01*
X2476740Y1627780D01*
X2477680Y1624460D01*
X2479160Y1621480D01*
X2481180Y1618820D01*
X2483640Y1616560D01*
X2486480Y1614820D01*
X2489600Y1613600D01*
X2492880Y1613000D01*
X2496200Y1613000D01*
X2499480Y1613600D01*
X2502600Y1614820D01*
X2505440Y1616560D01*
X2507900Y1618820D01*
X2509920Y1621480D01*
X2511400Y1624460D01*
X2512320Y1627680D01*
X2512620Y1631000D01*
X2512320Y1634319D01*
X2511400Y1637540D01*
X2509920Y1640520D01*
X2507900Y1643180D01*
X2505440Y1645440D01*
X2502600Y1647180D01*
X2499480Y1648400D01*
X2493480Y1649580D01*
X2492220Y1650080D01*
X2491200Y1650980D01*
X2490540Y1652160D01*
X2490300Y1653480D01*
X2490280Y1659960D01*
X2489840Y1662340D01*
X2488900Y1664460D01*
X2487320Y1666459D01*
X2479220Y1674580D01*
X2478340Y1675860D01*
X2478040Y1677400D01*
X2478340Y1678940D01*
X2479220Y1680220D01*
X2480500Y1681100D01*
X2482040Y1681399D01*
X2492320Y1681399D01*
X2493740Y1681140D01*
X2494980Y1680400D01*
X2495860Y1679259D01*
X2496280Y1677880D01*
X2496420Y1676720D01*
X2497340Y1673460D01*
X2498840Y1670480D01*
X2500840Y1667820D01*
X2503320Y1665560D01*
X2506140Y1663820D01*
X2509260Y1662600D01*
X2512540Y1662000D01*
X2515880Y1662000D01*
X2519160Y1662600D01*
X2522280Y1663820D01*
X2525100Y1665560D01*
X2527580Y1667820D01*
X2529580Y1670480D01*
X2531080Y1673460D01*
X2531980Y1676680D01*
X2532300Y1680000D01*
X2531980Y1683320D01*
X2531080Y1686540D01*
X2529580Y1689520D01*
X2527580Y1692180D01*
X2525100Y1694440D01*
X2522280Y1696180D01*
X2519160Y1697400D01*
X2508700Y1699160D01*
X2507920Y1699379D01*
X2505500Y1700300D01*
X2502960Y1700600D01*
X2497300Y1700600D01*
X2495640Y1700960D01*
X2494280Y1701960D01*
X2493460Y1703440D01*
X2493320Y1705120D01*
X2493900Y1706699D01*
X2495060Y1707920D01*
X2496760Y1709040D01*
X2502280Y1712340D01*
X2503260Y1712760D01*
X2504320Y1712900D01*
X2550920Y1712900D01*
X2553920Y1712780D01*
X2555840Y1712220D01*
X2556620Y1711720D01*
X2559020Y1709760D01*
X2561780Y1708280D01*
X2564760Y1707380D01*
X2568060Y1707060D01*
X2607040Y1707060D01*
X2610340Y1707380D01*
X2613320Y1708280D01*
X2616080Y1709760D01*
X2618500Y1711740D01*
X2620480Y1714160D01*
X2621940Y1716900D01*
X2622860Y1719900D01*
X2623159Y1723000D01*
X2622860Y1726100D01*
X2621940Y1729100D01*
X2620480Y1731840D01*
X2618500Y1734259D01*
X2616080Y1736240D01*
X2613320Y1737720D01*
X2610340Y1738620D01*
X2607040Y1738940D01*
X2568060Y1738940D01*
X2564760Y1738620D01*
X2561780Y1737720D01*
X2559020Y1736240D01*
X2556620Y1734280D01*
X2555720Y1733720D01*
X2554700Y1733420D01*
X2552600Y1733140D01*
X2541040Y1733100D01*
X2539320Y1733480D01*
X2537940Y1734580D01*
X2537160Y1736140D01*
X2537120Y1737900D01*
X2537860Y1739520D01*
X2538580Y1740480D01*
X2540080Y1743460D01*
X2540980Y1746680D01*
X2541160Y1747960D01*
X2542820Y1754540D01*
X2543220Y1755520D01*
X2543860Y1756380D01*
X2549200Y1761699D01*
X2550580Y1762620D01*
X2552240Y1762880D01*
X2553980Y1762780D01*
X2555840Y1762220D01*
X2556620Y1761720D01*
X2559020Y1759760D01*
X2561780Y1758280D01*
X2564760Y1757380D01*
X2568060Y1757060D01*
X2607040Y1757060D01*
X2610340Y1757380D01*
X2613320Y1758280D01*
X2616080Y1759760D01*
X2618500Y1761740D01*
X2620480Y1764160D01*
X2621940Y1766900D01*
X2622860Y1769900D01*
X2623159Y1773000D01*
X2622860Y1776100D01*
X2621940Y1779100D01*
X2620480Y1781840D01*
X2618500Y1784259D01*
X2616080Y1786240D01*
X2613320Y1787720D01*
X2610340Y1788620D01*
X2607040Y1788940D01*
X2568060Y1788940D01*
X2564760Y1788620D01*
X2561780Y1787720D01*
X2559020Y1786240D01*
X2556620Y1784280D01*
X2555720Y1783720D01*
X2554700Y1783420D01*
X2552540Y1783140D01*
X2546320Y1783100D01*
X2543960Y1782840D01*
X2541820Y1782100D01*
X2539920Y1780900D01*
X2538980Y1780060D01*
X2529580Y1770660D01*
X2528740Y1770020D01*
X2527740Y1769620D01*
X2520940Y1767900D01*
X2518260Y1767400D01*
X2515140Y1766180D01*
X2512320Y1764440D01*
X2509840Y1762180D01*
X2507840Y1759520D01*
X2506340Y1756540D01*
X2505440Y1753320D01*
X2505120Y1750000D01*
X2505440Y1746680D01*
X2506340Y1743460D01*
X2507840Y1740480D01*
X2508560Y1739520D01*
X2509300Y1737900D01*
X2509260Y1736140D01*
X2508480Y1734580D01*
X2507100Y1733480D01*
X2505380Y1733100D01*
X2503260Y1733240D01*
X2502280Y1733660D01*
X2496760Y1736960D01*
X2493280Y1739180D01*
X2490160Y1740400D01*
X2486880Y1741000D01*
X2483540Y1741000D01*
X2480260Y1740400D01*
X2477140Y1739180D01*
X2475920Y1738420D01*
X2474320Y1737860D01*
X2472640Y1738000D01*
X2471160Y1738820D01*
X2470160Y1740180D01*
X2469800Y1741819D01*
X2469800Y1790360D01*
X2470120Y1791900D01*
X2470980Y1793200D01*
X2477260Y1799500D01*
X2478680Y1801560D01*
X2479500Y1803700D01*
X2479800Y1806240D01*
X2479800Y1812980D01*
X2480120Y1814520D01*
X2480980Y1815820D01*
X2502400Y1837220D01*
X2503700Y1838100D01*
X2505220Y1838400D01*
X2689540Y1838400D01*
X2692440Y1838860D01*
X2694540Y1839800D01*
X2696560Y1841380D01*
X2744960Y1889780D01*
X2746680Y1892160D01*
X2747500Y1894319D01*
X2747799Y1896860D01*
X2747799Y1925040D01*
X2748039Y1926380D01*
X2748700Y1927580D01*
X2749720Y1928460D01*
X2750980Y1928959D01*
X2756300Y1930080D01*
X2759160Y1930600D01*
X2762280Y1931819D01*
X2765100Y1933560D01*
X2767580Y1935820D01*
X2769580Y1938480D01*
X2771080Y1941459D01*
X2771980Y1944680D01*
X2772300Y1948000D01*
X2771980Y1951320D01*
X2771080Y1954540D01*
X2769580Y1957520D01*
X2767580Y1960180D01*
X2765100Y1962440D01*
X2762280Y1964180D01*
X2759160Y1965400D01*
X2758200Y1965580D01*
X2756620Y1966240D01*
X2755460Y1967520D01*
X2754960Y1969180D01*
X2755179Y1970880D01*
X2756120Y1972340D01*
X2801100Y2017320D01*
X2802620Y2018420D01*
X2805340Y2019680D01*
X2807640Y2020380D01*
X2810480Y2021020D01*
X2813780Y2021540D01*
X2818380Y2021860D01*
X2834320Y2022500D01*
X2837480Y2022800D01*
X2842660Y2023839D01*
X2847660Y2025580D01*
X2852360Y2027960D01*
X2856720Y2030960D01*
X2860640Y2034500D01*
X2864060Y2038540D01*
X2866900Y2043000D01*
X2869120Y2047780D01*
X2870680Y2052840D01*
X2871560Y2058040D01*
X2871740Y2063320D01*
X2871220Y2068580D01*
X2869980Y2073720D01*
X2868100Y2078660D01*
X2865560Y2083280D01*
X2862420Y2087540D01*
X2858740Y2091339D01*
X2854600Y2094620D01*
X2850059Y2097300D01*
X2845179Y2099360D01*
X2840080Y2100760D01*
X2834860Y2101460D01*
X2829560Y2101460D01*
X2824340Y2100760D01*
X2819240Y2099360D01*
X2814380Y2097300D01*
X2809820Y2094620D01*
X2805680Y2091339D01*
X2802000Y2087540D01*
X2798860Y2083280D01*
X2796320Y2078660D01*
X2794440Y2073720D01*
X2793200Y2068580D01*
X2792660Y2063100D01*
X2791960Y2045980D01*
X2791720Y2043300D01*
X2791180Y2040020D01*
X2790500Y2037140D01*
X2789660Y2034580D01*
X2788220Y2031759D01*
X2787540Y2030900D01*
X2722520Y1965900D01*
X2721220Y1965020D01*
X2719700Y1964720D01*
X2718159Y1965020D01*
X2716860Y1965900D01*
X2716000Y1967200D01*
X2715700Y1968720D01*
X2715700Y2174320D01*
X2715940Y2175680D01*
X2721860Y2191920D01*
X2722420Y2192980D01*
X2723279Y2193820D01*
X2724340Y2194360D01*
X2740659Y2199780D01*
X2741920Y2200000D01*
X2783600Y2200000D01*
X2786620Y2200320D01*
X2789320Y2201180D01*
X2791820Y2202640D01*
X2793519Y2204080D01*
X2804520Y2215080D01*
X2806220Y2216540D01*
X2807960Y2217720D01*
X2809800Y2218720D01*
X2811120Y2219140D01*
X2835340Y2222580D01*
X2837420Y2222780D01*
X2842660Y2223840D01*
X2847660Y2225580D01*
X2852360Y2227960D01*
X2856720Y2230960D01*
X2860640Y2234500D01*
X2864060Y2238540D01*
X2866900Y2243000D01*
X2869120Y2247780D01*
X2870680Y2252840D01*
X2871560Y2258040D01*
X2871740Y2263320D01*
X2871220Y2268580D01*
X2869980Y2273720D01*
X2868100Y2278660D01*
X2865560Y2283280D01*
X2847600Y2307220D01*
X2846940Y2308540D01*
X2846280Y2310920D01*
X2846120Y2312000D01*
X2846280Y2313080D01*
X2846940Y2315460D01*
X2847600Y2316780D01*
X2862260Y2336300D01*
X2864020Y2338500D01*
X2866900Y2343000D01*
X2869120Y2347780D01*
X2870680Y2352840D01*
X2871560Y2358040D01*
X2871740Y2363320D01*
X2871220Y2368580D01*
X2869980Y2373720D01*
X2868100Y2378660D01*
X2865560Y2383280D01*
X2862420Y2387540D01*
X2858740Y2391340D01*
X2854600Y2394620D01*
X2850059Y2397300D01*
X2845179Y2399360D01*
X2840080Y2400760D01*
X2834860Y2401460D01*
X2829560Y2401460D01*
X2824340Y2400760D01*
X2819240Y2399360D01*
X2814380Y2397300D01*
X2809820Y2394620D01*
X2805680Y2391340D01*
X2802000Y2387540D01*
X2798860Y2383280D01*
X2796320Y2378660D01*
X2794440Y2373720D01*
X2793200Y2368580D01*
X2792679Y2363320D01*
X2792860Y2358040D01*
X2793740Y2352840D01*
X2795299Y2347780D01*
X2797520Y2343000D01*
X2800400Y2338500D01*
X2802240Y2336200D01*
X2816820Y2316800D01*
X2817460Y2315460D01*
X2818140Y2313080D01*
X2818279Y2312000D01*
X2818140Y2310920D01*
X2817460Y2308540D01*
X2816820Y2307200D01*
X2798860Y2283280D01*
X2796320Y2278660D01*
X2794440Y2273720D01*
X2793200Y2268580D01*
X2792740Y2264700D01*
X2789360Y2240920D01*
X2788920Y2239600D01*
X2787679Y2237360D01*
X2786460Y2235660D01*
X2785120Y2234140D01*
X2779340Y2228360D01*
X2778039Y2227500D01*
X2776500Y2227200D01*
X2741940Y2227200D01*
X2740659Y2227400D01*
X2719560Y2234440D01*
X2717520Y2234700D01*
X2688060Y2234700D01*
X2686220Y2234460D01*
X2684760Y2233860D01*
X2683500Y2232880D01*
X2682540Y2231640D01*
X2681940Y2230160D01*
X2681700Y2228340D01*
X2681700Y2198880D01*
X2682040Y2196560D01*
X2688320Y2175760D01*
X2688500Y2174600D01*
X2688500Y2167560D01*
X2688340Y2165100D01*
X2687840Y2162980D01*
X2687320Y2161820D01*
X2686320Y2160440D01*
X2684840Y2159600D01*
X2682460Y2158880D01*
X2681500Y2158700D01*
X2679340Y2158600D01*
X2630500Y2158600D01*
X2628780Y2158980D01*
X2627400Y2160080D01*
X2626620Y2161640D01*
X2626580Y2163400D01*
X2629080Y2168360D01*
X2630000Y2171600D01*
X2630160Y2172900D01*
X2631600Y2179780D01*
X2632000Y2180860D01*
X2632679Y2181780D01*
X2639760Y2188860D01*
X2641139Y2189760D01*
X2647600Y2192240D01*
X2649020Y2192500D01*
X2666340Y2192500D01*
X2668180Y2192740D01*
X2669640Y2193340D01*
X2670899Y2194320D01*
X2671860Y2195560D01*
X2672460Y2197040D01*
X2672720Y2198860D01*
X2672720Y2228340D01*
X2672460Y2230160D01*
X2671860Y2231640D01*
X2670899Y2232880D01*
X2669640Y2233860D01*
X2668180Y2234460D01*
X2666720Y2234660D01*
X2665480Y2235020D01*
X2664420Y2235780D01*
X2663660Y2236820D01*
X2662220Y2239700D01*
X2661800Y2241480D01*
X2661800Y2251660D01*
X2662120Y2253180D01*
X2662980Y2254480D01*
X2672720Y2264220D01*
X2674020Y2265100D01*
X2675539Y2265400D01*
X2745860Y2265400D01*
X2747000Y2265240D01*
X2748060Y2264740D01*
X2753740Y2261020D01*
X2754320Y2260560D01*
X2757140Y2258820D01*
X2760260Y2257600D01*
X2763540Y2257000D01*
X2766880Y2257000D01*
X2770160Y2257600D01*
X2773279Y2258820D01*
X2776100Y2260560D01*
X2778580Y2262820D01*
X2780580Y2265480D01*
X2782080Y2268460D01*
X2782980Y2271680D01*
X2783300Y2275000D01*
X2782980Y2278320D01*
X2782080Y2281540D01*
X2780580Y2284520D01*
X2778580Y2287180D01*
X2776100Y2289440D01*
X2773279Y2291180D01*
X2770160Y2292400D01*
X2766880Y2293000D01*
X2763540Y2293000D01*
X2760260Y2292400D01*
X2757140Y2291180D01*
X2754240Y2289380D01*
X2753740Y2288980D01*
X2748060Y2285260D01*
X2747000Y2284760D01*
X2745860Y2284600D01*
X2669980Y2284600D01*
X2667060Y2284140D01*
X2664960Y2283200D01*
X2662960Y2281620D01*
X2645460Y2264120D01*
X2643740Y2261740D01*
X2642919Y2259580D01*
X2642600Y2257040D01*
X2642600Y2241480D01*
X2642180Y2239700D01*
X2640800Y2236920D01*
X2639900Y2235740D01*
X2638660Y2234960D01*
X2635040Y2234460D01*
X2633580Y2233860D01*
X2632320Y2232880D01*
X2631360Y2231640D01*
X2630760Y2230160D01*
X2630520Y2228340D01*
X2630520Y2214140D01*
X2630320Y2212920D01*
X2627640Y2204520D01*
X2627240Y2203660D01*
X2626660Y2202900D01*
X2619100Y2195360D01*
X2618180Y2194680D01*
X2617100Y2194280D01*
X2607260Y2192280D01*
X2604140Y2191080D01*
X2601320Y2189320D01*
X2598519Y2186740D01*
X2597200Y2185940D01*
X2595700Y2185680D01*
X2594200Y2186020D01*
X2592940Y2186900D01*
X2592100Y2188180D01*
X2591800Y2189680D01*
X2591800Y2367800D01*
X2591480Y2370820D01*
X2590620Y2373520D01*
X2589160Y2376020D01*
X2587720Y2377720D01*
X2484980Y2480460D01*
X2484120Y2481760D01*
X2483800Y2483300D01*
X2483800Y2491440D01*
X2484000Y2492680D01*
X2490680Y2513360D01*
X2491080Y2515840D01*
X2491080Y2582200D01*
X2490840Y2584040D01*
X2490220Y2585500D01*
X2489260Y2586760D01*
X2488000Y2587720D01*
X2486540Y2588320D01*
X2484720Y2588560D01*
X2455700Y2588560D01*
X2453880Y2588320D01*
X2452420Y2587720D01*
X2451160Y2586760D01*
X2450200Y2585500D01*
X2449580Y2584040D01*
X2449340Y2582200D01*
X2449340Y2515840D01*
X2449740Y2513360D01*
X2456420Y2492680D01*
X2456600Y2491440D01*
X2456600Y2476200D01*
X2456920Y2473180D01*
X2457800Y2470480D01*
X2459240Y2467980D01*
X2460700Y2466280D01*
X2563440Y2363540D01*
X2564300Y2362240D01*
X2564600Y2360700D01*
X2564600Y2162220D01*
X2564540Y2161520D01*
X2563600Y2156260D01*
X2563340Y2155360D01*
X2562840Y2154520D01*
X2561340Y2151540D01*
X2560440Y2148320D01*
X2560120Y2145000D01*
X2560440Y2141680D01*
X2561340Y2138460D01*
X2562840Y2135480D01*
X2564840Y2132820D01*
X2567320Y2130560D01*
X2570140Y2128820D01*
X2573260Y2127600D01*
X2576540Y2127000D01*
X2579880Y2127000D01*
X2583159Y2127600D01*
X2586259Y2128820D01*
X2587900Y2129820D01*
X2589300Y2130360D01*
X2594740Y2131340D01*
X2595440Y2131400D01*
X2679340Y2131400D01*
X2682000Y2131240D01*
X2684120Y2130740D01*
X2685280Y2130240D01*
X2686660Y2129220D01*
X2687500Y2127740D01*
X2688220Y2125380D01*
X2688380Y2124420D01*
X2688500Y2122220D01*
X2688500Y1912180D01*
X2688200Y1910640D01*
X2687320Y1909360D01*
X2670740Y1892780D01*
X2669440Y1891900D01*
X2667919Y1891600D01*
X2640880Y1891600D01*
X2639320Y1891920D01*
X2638020Y1892820D01*
X2637160Y1894160D01*
X2636880Y1895720D01*
X2637260Y1897280D01*
X2638180Y1898560D01*
X2639580Y1899820D01*
X2641580Y1902480D01*
X2643080Y1905460D01*
X2643980Y1908680D01*
X2644300Y1912000D01*
X2643980Y1915320D01*
X2643080Y1918540D01*
X2641580Y1921519D01*
X2639580Y1924180D01*
X2637100Y1926440D01*
X2634280Y1928180D01*
X2631160Y1929400D01*
X2629180Y1930000D01*
X2628120Y1930900D01*
X2627440Y1932100D01*
X2627200Y1933460D01*
X2627200Y1962740D01*
X2626960Y1964560D01*
X2626360Y1966040D01*
X2625380Y1967280D01*
X2624140Y1968260D01*
X2622679Y1968860D01*
X2620580Y1969139D01*
X2619340Y1969500D01*
X2618279Y1970260D01*
X2617520Y1971320D01*
X2616120Y1974100D01*
X2615700Y1975880D01*
X2615700Y2001879D01*
X2616120Y2003660D01*
X2617520Y2006440D01*
X2618399Y2007620D01*
X2619660Y2008380D01*
X2621100Y2008660D01*
X2649140Y2008660D01*
X2650980Y2008899D01*
X2652440Y2009500D01*
X2653700Y2010460D01*
X2654660Y2011720D01*
X2655260Y2013180D01*
X2655500Y2015020D01*
X2655500Y2108980D01*
X2655260Y2110820D01*
X2654660Y2112280D01*
X2653700Y2113540D01*
X2652440Y2114500D01*
X2650980Y2115100D01*
X2649140Y2115340D01*
X2563060Y2115340D01*
X2561220Y2115100D01*
X2559760Y2114500D01*
X2558500Y2113540D01*
X2557540Y2112280D01*
X2556940Y2110820D01*
X2556700Y2108980D01*
X2556700Y2015020D01*
X2556940Y2013180D01*
X2557540Y2011720D01*
X2558500Y2010460D01*
X2559760Y2009500D01*
X2561220Y2008899D01*
X2563060Y2008660D01*
X2591120Y2008660D01*
X2592559Y2008380D01*
X2593800Y2007620D01*
X2594680Y2006440D01*
X2596080Y2003660D01*
X2596500Y2001879D01*
X2596500Y1975880D01*
X2596400Y1974960D01*
X2596080Y1974079D01*
X2594680Y1971300D01*
X2593920Y1970260D01*
X2592860Y1969500D01*
X2591620Y1969139D01*
X2589540Y1968860D01*
X2588060Y1968260D01*
X2586820Y1967280D01*
X2585840Y1966040D01*
X2585240Y1964580D01*
X2584960Y1962460D01*
X2584600Y1961220D01*
X2583840Y1960180D01*
X2582780Y1959420D01*
X2580000Y1958020D01*
X2578220Y1957600D01*
X2562260Y1957600D01*
X2559360Y1957140D01*
X2557260Y1956180D01*
X2555240Y1954620D01*
X2520400Y1919780D01*
X2519100Y1918899D01*
X2517580Y1918600D01*
X2482180Y1918600D01*
X2480500Y1918980D01*
X2479120Y1920020D01*
X2478320Y1921540D01*
X2478240Y1923260D01*
X2479080Y1925160D01*
X2479980Y1926100D01*
X2481120Y1926699D01*
X2484880Y1927140D01*
X2486340Y1927740D01*
X2487600Y1928720D01*
X2488560Y1929960D01*
X2489160Y1931440D01*
X2489420Y1933260D01*
X2489420Y1962740D01*
X2489160Y1964560D01*
X2488560Y1966040D01*
X2487600Y1967280D01*
X2486340Y1968260D01*
X2484880Y1968860D01*
X2482780Y1969139D01*
X2481540Y1969500D01*
X2480480Y1970260D01*
X2479720Y1971320D01*
X2478340Y1974100D01*
X2477900Y1975880D01*
X2477900Y2001879D01*
X2478340Y2003660D01*
X2479720Y2006440D01*
X2480600Y2007620D01*
X2481860Y2008380D01*
X2483300Y2008660D01*
X2511360Y2008660D01*
X2513180Y2008899D01*
X2514640Y2009500D01*
X2515900Y2010460D01*
X2516880Y2011720D01*
X2517480Y2013180D01*
X2517720Y2015020D01*
X2517720Y2108980D01*
X2517480Y2110820D01*
X2516880Y2112280D01*
X2515900Y2113540D01*
X2514640Y2114500D01*
X2513180Y2115100D01*
X2511360Y2115340D01*
X2425260Y2115340D01*
X2423440Y2115100D01*
X2421980Y2114500D01*
X2420720Y2113540D01*
X2419760Y2112280D01*
X2419140Y2110820D01*
X2418900Y2108980D01*
X2418900Y2015020D01*
X2419140Y2013180D01*
X2419760Y2011720D01*
X2420720Y2010460D01*
X2421980Y2009500D01*
X2423440Y2008899D01*
X2425260Y2008660D01*
X2453320Y2008660D01*
X2454760Y2008380D01*
X2456000Y2007620D01*
X2456900Y2006440D01*
X2458280Y2003660D01*
X2458700Y2001879D01*
X2458700Y1975880D01*
X2458280Y1974079D01*
X2456880Y1971300D01*
X2456120Y1970260D01*
X2455080Y1969500D01*
X2453840Y1969139D01*
X2451740Y1968860D01*
X2450280Y1968260D01*
X2449020Y1967280D01*
X2448060Y1966040D01*
X2447460Y1964560D01*
X2447220Y1962740D01*
X2447220Y1933260D01*
X2447460Y1931440D01*
X2448060Y1929960D01*
X2449020Y1928720D01*
X2450540Y1927540D01*
X2451640Y1926260D01*
X2452100Y1924620D01*
X2451860Y1922960D01*
X2450940Y1921540D01*
X2444180Y1914780D01*
X2442880Y1913899D01*
X2441340Y1913600D01*
X2327560Y1913600D01*
X2326420Y1913760D01*
X2325360Y1914259D01*
X2319680Y1917980D01*
X2319100Y1918440D01*
X2316280Y1920180D01*
X2313160Y1921399D01*
X2309880Y1922000D01*
X2306540Y1922000D01*
X2303260Y1921399D01*
X2301760Y1920800D01*
X2300240Y1920540D01*
X2298720Y1920860D01*
X2297460Y1921740D01*
X2296600Y1923020D01*
X2296300Y1924540D01*
X2296300Y1966860D01*
X2296620Y1968400D01*
X2297480Y1969700D01*
X2359960Y2032180D01*
X2361680Y2034560D01*
X2362500Y2036720D01*
X2362800Y2039240D01*
X2362800Y2134520D01*
X2363240Y2136320D01*
X2364640Y2139100D01*
X2365400Y2140160D01*
X2366460Y2140900D01*
X2367680Y2141280D01*
X2369780Y2141560D01*
X2371240Y2142160D01*
X2372500Y2143120D01*
X2373460Y2144380D01*
X2374060Y2145840D01*
X2374320Y2147680D01*
X2374320Y2177140D01*
X2374060Y2178980D01*
X2373460Y2180440D01*
X2372500Y2181700D01*
X2371240Y2182660D01*
X2369780Y2183260D01*
X2367940Y2183500D01*
X2338480Y2183500D01*
X2336640Y2183260D01*
X2335180Y2182660D01*
X2333920Y2181700D01*
X2332960Y2180440D01*
X2332360Y2178980D01*
X2332120Y2177140D01*
X2332120Y2147680D01*
X2332360Y2145840D01*
X2332960Y2144380D01*
X2333920Y2143120D01*
X2335180Y2142160D01*
X2336640Y2141560D01*
X2338740Y2141280D01*
X2339980Y2140900D01*
X2341040Y2140140D01*
X2341800Y2139100D01*
X2343180Y2136320D01*
X2343600Y2134520D01*
X2343600Y2044640D01*
X2343300Y2043100D01*
X2342440Y2041800D01*
X2279960Y1979340D01*
X2278240Y1976940D01*
X2277240Y1974319D01*
X2276380Y1972980D01*
X2275080Y1972060D01*
X2273520Y1971740D01*
X2271940Y1972060D01*
X2270620Y1972960D01*
X2269760Y1974300D01*
X2268100Y1978660D01*
X2265560Y1983280D01*
X2262420Y1987540D01*
X2258740Y1991339D01*
X2254600Y1994620D01*
X2250060Y1997300D01*
X2245180Y1999360D01*
X2240080Y2000760D01*
X2234860Y2001459D01*
X2229560Y2001459D01*
X2224340Y2000760D01*
X2219240Y1999360D01*
X2214380Y1997300D01*
X2209820Y1994620D01*
X2205680Y1991339D01*
X2202000Y1987540D01*
X2198860Y1983280D01*
X2196320Y1978660D01*
X2194440Y1973720D01*
X2193200Y1968580D01*
X2192680Y1963320D01*
X2192860Y1958040D01*
X2193740Y1952840D01*
X2195300Y1947780D01*
X2197520Y1943000D01*
X2200360Y1938540D01*
X2203780Y1934500D01*
X2207700Y1930960D01*
X2212060Y1927960D01*
X2216760Y1925580D01*
X2221760Y1923839D01*
X2226940Y1922800D01*
X2232220Y1922440D01*
X2237480Y1922800D01*
X2242660Y1923839D01*
X2247660Y1925580D01*
X2252360Y1927960D01*
X2256720Y1930960D01*
X2260640Y1934500D01*
X2264060Y1938540D01*
X2266900Y1943000D01*
X2270060Y1949720D01*
X2271340Y1950720D01*
X2272900Y1951120D01*
X2274500Y1950880D01*
X2275860Y1950020D01*
X2276780Y1948700D01*
X2277100Y1947120D01*
X2277100Y1876759D01*
X2276800Y1875220D01*
X2275920Y1873899D01*
X2274600Y1873040D01*
X2273040Y1872760D01*
X2271500Y1873080D01*
X2270220Y1874000D01*
X2269380Y1875320D01*
X2268100Y1878660D01*
X2265560Y1883280D01*
X2262420Y1887540D01*
X2258740Y1891339D01*
X2254600Y1894620D01*
X2250060Y1897300D01*
X2245180Y1899360D01*
X2240080Y1900760D01*
X2234860Y1901459D01*
X2229560Y1901459D01*
X2224340Y1900760D01*
X2219240Y1899360D01*
X2214380Y1897300D01*
X2209820Y1894620D01*
X2205680Y1891339D01*
X2202000Y1887540D01*
X2198860Y1883280D01*
X2196320Y1878660D01*
X2194440Y1873720D01*
X2193200Y1868580D01*
X2192680Y1863320D01*
X2192860Y1858040D01*
X2193740Y1852840D01*
X2195300Y1847780D01*
X2197520Y1843000D01*
X2200360Y1838540D01*
X2203780Y1834500D01*
X2207700Y1830960D01*
X2212060Y1827960D01*
X2216760Y1825580D01*
X2221760Y1823839D01*
X2226940Y1822800D01*
X2232220Y1822440D01*
X2237480Y1822800D01*
X2242660Y1823839D01*
X2247660Y1825580D01*
X2252360Y1827960D01*
X2256720Y1830960D01*
X2260640Y1834500D01*
X2264060Y1838540D01*
X2266900Y1843000D01*
X2270060Y1849720D01*
X2271340Y1850720D01*
X2272900Y1851120D01*
X2274500Y1850880D01*
X2275860Y1850020D01*
X2276780Y1848700D01*
X2277100Y1847120D01*
X2277100Y1776759D01*
X2276800Y1775220D01*
X2275920Y1773899D01*
X2274600Y1773040D01*
X2273040Y1772760D01*
X2271500Y1773080D01*
X2270220Y1774000D01*
X2269380Y1775320D01*
X2268100Y1778660D01*
X2265560Y1783280D01*
X2262420Y1787540D01*
X2258740Y1791339D01*
X2254600Y1794620D01*
X2250060Y1797300D01*
X2245180Y1799360D01*
X2240080Y1800760D01*
X2234860Y1801459D01*
X2229560Y1801459D01*
X2224340Y1800760D01*
X2219240Y1799360D01*
X2214380Y1797300D01*
X2209820Y1794620D01*
X2205680Y1791339D01*
X2202000Y1787540D01*
X2198860Y1783280D01*
X2196320Y1778660D01*
X2194440Y1773720D01*
X2193200Y1768580D01*
X2192680Y1763320D01*
X2192860Y1758040D01*
X2193740Y1752840D01*
X2195300Y1747780D01*
X2197520Y1743000D01*
X2200360Y1738540D01*
X2203780Y1734500D01*
X2207700Y1730960D01*
X2212060Y1727960D01*
X2216760Y1725580D01*
X2221760Y1723839D01*
X2226940Y1722800D01*
X2232220Y1722440D01*
X2237480Y1722800D01*
X2242660Y1723839D01*
X2247660Y1725580D01*
X2252360Y1727960D01*
X2256720Y1730960D01*
X2260640Y1734500D01*
X2264060Y1738540D01*
X2266900Y1743000D01*
X2270060Y1749720D01*
X2271340Y1750720D01*
X2272900Y1751120D01*
X2274500Y1750880D01*
X2275860Y1750020D01*
X2276780Y1748700D01*
X2277100Y1747120D01*
X2277100Y1716560D01*
X2277560Y1713660D01*
X2278520Y1711540D01*
X2280080Y1709540D01*
X2323380Y1666260D01*
X2325760Y1664520D01*
X2327920Y1663700D01*
X2330440Y1663400D01*
X2333780Y1663400D01*
X2335580Y1662980D01*
X2344960Y1658320D01*
X2348060Y1657380D01*
X2351380Y1657060D01*
X2390340Y1657060D01*
X2393660Y1657380D01*
X2395440Y1657920D01*
X2396920Y1658080D01*
X2398360Y1657700D01*
X2399540Y1656819D01*
X2400340Y1655560D01*
X2400600Y1654100D01*
X2400600Y1648620D01*
X2400860Y1646260D01*
X2401620Y1644120D01*
X2402180Y1643100D01*
X2402660Y1641459D01*
X2402440Y1639780D01*
X2401520Y1638340D01*
X2400100Y1637420D01*
X2398420Y1637160D01*
X2393660Y1638620D01*
X2390340Y1638940D01*
X2351380Y1638940D01*
X2348060Y1638620D01*
X2345080Y1637720D01*
X2342320Y1636240D01*
X2339920Y1634259D01*
X2337940Y1631840D01*
X2336460Y1629100D01*
X2335560Y1626100D01*
X2335260Y1623000D01*
X2335560Y1619900D01*
X2336460Y1616900D01*
X2337940Y1614160D01*
X2339920Y1611740D01*
X2342320Y1609760D01*
X2345080Y1608280D01*
X2348060Y1607380D01*
G37*
G36*
X2709640Y1611740D02*
G01*
X2739100Y1611740D01*
X2740940Y1611980D01*
X2742400Y1612580D01*
X2743660Y1613560D01*
X2744620Y1614800D01*
X2745220Y1616279D01*
X2745480Y1618100D01*
X2745480Y1647580D01*
X2745220Y1649400D01*
X2744620Y1650880D01*
X2743660Y1652120D01*
X2742400Y1653100D01*
X2740940Y1653700D01*
X2739100Y1653940D01*
X2709640Y1653940D01*
X2707799Y1653700D01*
X2706340Y1653100D01*
X2705080Y1652120D01*
X2703140Y1649300D01*
X2701840Y1648440D01*
X2700299Y1648140D01*
X2698780Y1648440D01*
X2697480Y1649300D01*
X2667040Y1679740D01*
X2664660Y1681480D01*
X2662500Y1682300D01*
X2659960Y1682600D01*
X2624620Y1682600D01*
X2622840Y1683020D01*
X2613440Y1687680D01*
X2610340Y1688620D01*
X2607040Y1688940D01*
X2568060Y1688940D01*
X2564760Y1688620D01*
X2561780Y1687720D01*
X2559020Y1686240D01*
X2556600Y1684259D01*
X2554620Y1681840D01*
X2553160Y1679100D01*
X2552240Y1676100D01*
X2551940Y1673000D01*
X2552240Y1669900D01*
X2553160Y1666900D01*
X2554620Y1664160D01*
X2556600Y1661740D01*
X2559020Y1659760D01*
X2561780Y1658280D01*
X2564760Y1657380D01*
X2568060Y1657060D01*
X2607040Y1657060D01*
X2610340Y1657380D01*
X2613440Y1658320D01*
X2622840Y1662980D01*
X2624620Y1663400D01*
X2654580Y1663400D01*
X2656100Y1663100D01*
X2657400Y1662220D01*
X2693540Y1626100D01*
X2695920Y1624360D01*
X2698720Y1623240D01*
X2701280Y1621740D01*
X2702240Y1620960D01*
X2702919Y1619920D01*
X2703240Y1618740D01*
X2703519Y1616240D01*
X2704120Y1614800D01*
X2705080Y1613560D01*
X2706340Y1612580D01*
X2707799Y1611980D01*
G37*
G36*
X2232220Y1622440D02*
G01*
X2237480Y1622800D01*
X2242660Y1623839D01*
X2247660Y1625580D01*
X2252360Y1627960D01*
X2256720Y1630960D01*
X2260640Y1634500D01*
X2264060Y1638540D01*
X2266900Y1643000D01*
X2269120Y1647780D01*
X2270680Y1652840D01*
X2271560Y1658040D01*
X2271740Y1663320D01*
X2271220Y1668580D01*
X2269980Y1673720D01*
X2268100Y1678660D01*
X2265560Y1683280D01*
X2262420Y1687540D01*
X2258740Y1691339D01*
X2254600Y1694620D01*
X2250060Y1697300D01*
X2245180Y1699360D01*
X2240080Y1700760D01*
X2234860Y1701459D01*
X2229560Y1701459D01*
X2224340Y1700760D01*
X2219240Y1699360D01*
X2214380Y1697300D01*
X2209820Y1694620D01*
X2205680Y1691339D01*
X2202000Y1687540D01*
X2198860Y1683280D01*
X2196320Y1678660D01*
X2194440Y1673720D01*
X2193200Y1668580D01*
X2192680Y1663320D01*
X2192860Y1658040D01*
X2193740Y1652840D01*
X2195300Y1647780D01*
X2197520Y1643000D01*
X2200360Y1638540D01*
X2203780Y1634500D01*
X2207700Y1630960D01*
X2212060Y1627960D01*
X2216760Y1625580D01*
X2221760Y1623839D01*
X2226940Y1622800D01*
G37*
G36*
X2832220Y1622440D02*
G01*
X2837480Y1622800D01*
X2842660Y1623839D01*
X2847660Y1625580D01*
X2852360Y1627960D01*
X2856720Y1630960D01*
X2860640Y1634500D01*
X2864060Y1638540D01*
X2866900Y1643000D01*
X2869120Y1647780D01*
X2870680Y1652840D01*
X2871560Y1658040D01*
X2871740Y1663320D01*
X2871220Y1668580D01*
X2869980Y1673720D01*
X2868100Y1678660D01*
X2865560Y1683280D01*
X2862420Y1687540D01*
X2858740Y1691339D01*
X2854600Y1694620D01*
X2850059Y1697300D01*
X2845179Y1699360D01*
X2840080Y1700760D01*
X2834860Y1701459D01*
X2829560Y1701459D01*
X2824340Y1700760D01*
X2819240Y1699360D01*
X2814380Y1697300D01*
X2809820Y1694620D01*
X2805680Y1691339D01*
X2802000Y1687540D01*
X2798860Y1683280D01*
X2796320Y1678660D01*
X2794440Y1673720D01*
X2793200Y1668580D01*
X2792679Y1663320D01*
X2792860Y1658040D01*
X2793740Y1652840D01*
X2795299Y1647780D01*
X2797520Y1643000D01*
X2800360Y1638540D01*
X2803780Y1634500D01*
X2807700Y1630960D01*
X2812060Y1627960D01*
X2816760Y1625580D01*
X2821760Y1623839D01*
X2826940Y1622800D01*
G37*
G36*
X2832220Y1722440D02*
G01*
X2837480Y1722800D01*
X2842660Y1723839D01*
X2847660Y1725580D01*
X2852360Y1727960D01*
X2856720Y1730960D01*
X2860640Y1734500D01*
X2864060Y1738540D01*
X2866900Y1743000D01*
X2869120Y1747780D01*
X2870680Y1752840D01*
X2871560Y1758040D01*
X2871740Y1763320D01*
X2871220Y1768580D01*
X2869980Y1773720D01*
X2868100Y1778660D01*
X2865560Y1783280D01*
X2862420Y1787540D01*
X2858740Y1791339D01*
X2854600Y1794620D01*
X2850059Y1797300D01*
X2845179Y1799360D01*
X2840080Y1800760D01*
X2834860Y1801459D01*
X2829560Y1801459D01*
X2824340Y1800760D01*
X2819240Y1799360D01*
X2814380Y1797300D01*
X2809820Y1794620D01*
X2805680Y1791339D01*
X2802000Y1787540D01*
X2798860Y1783280D01*
X2796320Y1778660D01*
X2794440Y1773720D01*
X2793200Y1768580D01*
X2792679Y1763320D01*
X2792860Y1758040D01*
X2793740Y1752840D01*
X2795299Y1747780D01*
X2797520Y1743000D01*
X2800360Y1738540D01*
X2803780Y1734500D01*
X2807700Y1730960D01*
X2812060Y1727960D01*
X2816760Y1725580D01*
X2821760Y1723839D01*
X2826940Y1722800D01*
G37*
G36*
X2832220Y1822440D02*
G01*
X2837480Y1822800D01*
X2842660Y1823839D01*
X2847660Y1825580D01*
X2852360Y1827960D01*
X2856720Y1830960D01*
X2860640Y1834500D01*
X2864060Y1838540D01*
X2866900Y1843000D01*
X2869120Y1847780D01*
X2870680Y1852840D01*
X2871560Y1858040D01*
X2871740Y1863320D01*
X2871220Y1868580D01*
X2869980Y1873720D01*
X2868100Y1878660D01*
X2865560Y1883280D01*
X2862420Y1887540D01*
X2858740Y1891339D01*
X2854600Y1894620D01*
X2850059Y1897300D01*
X2845179Y1899360D01*
X2840080Y1900760D01*
X2834860Y1901459D01*
X2829560Y1901459D01*
X2824340Y1900760D01*
X2819240Y1899360D01*
X2814380Y1897300D01*
X2809820Y1894620D01*
X2805680Y1891339D01*
X2802000Y1887540D01*
X2798860Y1883280D01*
X2796320Y1878660D01*
X2794440Y1873720D01*
X2793200Y1868580D01*
X2792679Y1863320D01*
X2792860Y1858040D01*
X2793740Y1852840D01*
X2795299Y1847780D01*
X2797520Y1843000D01*
X2800360Y1838540D01*
X2803780Y1834500D01*
X2807700Y1830960D01*
X2812060Y1827960D01*
X2816760Y1825580D01*
X2821760Y1823839D01*
X2826940Y1822800D01*
G37*
G36*
X2832220Y1922440D02*
G01*
X2837480Y1922800D01*
X2842660Y1923839D01*
X2847660Y1925580D01*
X2852360Y1927960D01*
X2856720Y1930960D01*
X2860640Y1934500D01*
X2864060Y1938540D01*
X2866900Y1943000D01*
X2869120Y1947780D01*
X2870680Y1952840D01*
X2871560Y1958040D01*
X2871740Y1963320D01*
X2871220Y1968580D01*
X2869980Y1973720D01*
X2868100Y1978660D01*
X2865560Y1983280D01*
X2862420Y1987540D01*
X2858740Y1991339D01*
X2854600Y1994620D01*
X2850059Y1997300D01*
X2845179Y1999360D01*
X2840080Y2000760D01*
X2834860Y2001459D01*
X2829560Y2001459D01*
X2824340Y2000760D01*
X2819240Y1999360D01*
X2814380Y1997300D01*
X2809820Y1994620D01*
X2805680Y1991339D01*
X2802000Y1987540D01*
X2798860Y1983280D01*
X2796320Y1978660D01*
X2794440Y1973720D01*
X2793200Y1968580D01*
X2792679Y1963320D01*
X2792860Y1958040D01*
X2793740Y1952840D01*
X2795299Y1947780D01*
X2797520Y1943000D01*
X2800360Y1938540D01*
X2803780Y1934500D01*
X2807700Y1930960D01*
X2812060Y1927960D01*
X2816760Y1925580D01*
X2821760Y1923839D01*
X2826940Y1922800D01*
G37*
G36*
X2232220Y2022440D02*
G01*
X2237480Y2022800D01*
X2242660Y2023839D01*
X2247660Y2025580D01*
X2252360Y2027960D01*
X2256720Y2030960D01*
X2260640Y2034500D01*
X2264060Y2038540D01*
X2266900Y2043000D01*
X2269120Y2047780D01*
X2270680Y2052840D01*
X2271560Y2058040D01*
X2271740Y2063320D01*
X2271220Y2068580D01*
X2269980Y2073720D01*
X2268100Y2078660D01*
X2265560Y2083280D01*
X2262420Y2087540D01*
X2258740Y2091339D01*
X2254600Y2094620D01*
X2250060Y2097300D01*
X2245180Y2099360D01*
X2240080Y2100760D01*
X2234860Y2101460D01*
X2229560Y2101460D01*
X2224340Y2100760D01*
X2219240Y2099360D01*
X2214380Y2097300D01*
X2209820Y2094620D01*
X2205680Y2091339D01*
X2202000Y2087540D01*
X2198860Y2083280D01*
X2196320Y2078660D01*
X2194440Y2073720D01*
X2193200Y2068580D01*
X2192680Y2063320D01*
X2192860Y2058040D01*
X2193740Y2052840D01*
X2195300Y2047780D01*
X2197520Y2043000D01*
X2200360Y2038540D01*
X2203780Y2034500D01*
X2207700Y2030960D01*
X2212060Y2027960D01*
X2216760Y2025580D01*
X2221760Y2023839D01*
X2226940Y2022800D01*
G37*
G36*
X2832220Y2122440D02*
G01*
X2837480Y2122800D01*
X2842660Y2123840D01*
X2847660Y2125580D01*
X2852360Y2127960D01*
X2856720Y2130960D01*
X2860640Y2134500D01*
X2864060Y2138540D01*
X2866900Y2143000D01*
X2869120Y2147780D01*
X2870680Y2152840D01*
X2871560Y2158040D01*
X2871740Y2163320D01*
X2871220Y2168580D01*
X2869980Y2173720D01*
X2868100Y2178660D01*
X2865560Y2183280D01*
X2862420Y2187540D01*
X2858740Y2191340D01*
X2854600Y2194620D01*
X2850059Y2197300D01*
X2845179Y2199360D01*
X2840080Y2200760D01*
X2834860Y2201460D01*
X2829560Y2201460D01*
X2824340Y2200760D01*
X2819240Y2199360D01*
X2814380Y2197300D01*
X2809820Y2194620D01*
X2805680Y2191340D01*
X2802000Y2187540D01*
X2798860Y2183280D01*
X2796320Y2178660D01*
X2794440Y2173720D01*
X2793200Y2168580D01*
X2792679Y2163320D01*
X2792860Y2158040D01*
X2793740Y2152840D01*
X2795299Y2147780D01*
X2797520Y2143000D01*
X2800360Y2138540D01*
X2803780Y2134500D01*
X2807700Y2130960D01*
X2812060Y2127960D01*
X2816760Y2125580D01*
X2821760Y2123840D01*
X2826940Y2122800D01*
G37*
G36*
X2232220Y2122440D02*
G01*
X2237480Y2122800D01*
X2242660Y2123840D01*
X2247660Y2125580D01*
X2252360Y2127960D01*
X2256720Y2130960D01*
X2260640Y2134500D01*
X2264060Y2138540D01*
X2266900Y2143000D01*
X2269120Y2147780D01*
X2270680Y2152840D01*
X2271560Y2158040D01*
X2271740Y2163320D01*
X2271220Y2168580D01*
X2269980Y2173720D01*
X2268100Y2178660D01*
X2265560Y2183280D01*
X2262420Y2187540D01*
X2258740Y2191340D01*
X2254600Y2194620D01*
X2250060Y2197300D01*
X2245180Y2199360D01*
X2240080Y2200760D01*
X2234860Y2201460D01*
X2229560Y2201460D01*
X2224340Y2200760D01*
X2219240Y2199360D01*
X2214380Y2197300D01*
X2209820Y2194620D01*
X2205680Y2191340D01*
X2202000Y2187540D01*
X2198860Y2183280D01*
X2196320Y2178660D01*
X2194440Y2173720D01*
X2193200Y2168580D01*
X2192680Y2163320D01*
X2192860Y2158040D01*
X2193740Y2152840D01*
X2195300Y2147780D01*
X2197520Y2143000D01*
X2200360Y2138540D01*
X2203780Y2134500D01*
X2207700Y2130960D01*
X2212060Y2127960D01*
X2216760Y2125580D01*
X2221760Y2123840D01*
X2226940Y2122800D01*
G37*
G36*
X2338480Y2192480D02*
G01*
X2367940Y2192480D01*
X2369780Y2192740D01*
X2371240Y2193340D01*
X2372500Y2194300D01*
X2373460Y2195560D01*
X2374060Y2197020D01*
X2374320Y2198860D01*
X2374320Y2228320D01*
X2374060Y2230160D01*
X2373460Y2231620D01*
X2372500Y2232880D01*
X2371240Y2233840D01*
X2369780Y2234440D01*
X2367680Y2234720D01*
X2366440Y2235100D01*
X2365380Y2235860D01*
X2364620Y2236900D01*
X2363220Y2239680D01*
X2362800Y2241480D01*
X2362800Y2256640D01*
X2362980Y2257780D01*
X2363460Y2258820D01*
X2367540Y2265100D01*
X2368580Y2266480D01*
X2370080Y2269460D01*
X2370980Y2272680D01*
X2371300Y2276000D01*
X2370980Y2279320D01*
X2370080Y2282540D01*
X2368580Y2285520D01*
X2366580Y2288180D01*
X2364100Y2290440D01*
X2361280Y2292180D01*
X2358160Y2293400D01*
X2355200Y2293940D01*
X2348320Y2295380D01*
X2347240Y2295780D01*
X2346320Y2296460D01*
X2274040Y2368740D01*
X2271880Y2370420D01*
X2271000Y2371280D01*
X2270440Y2372380D01*
X2270060Y2373560D01*
X2268100Y2378660D01*
X2265560Y2383280D01*
X2262420Y2387540D01*
X2258740Y2391340D01*
X2254600Y2394620D01*
X2250060Y2397300D01*
X2245180Y2399360D01*
X2240080Y2400760D01*
X2234860Y2401460D01*
X2229560Y2401460D01*
X2224340Y2400760D01*
X2219240Y2399360D01*
X2214380Y2397300D01*
X2209820Y2394620D01*
X2205680Y2391340D01*
X2202000Y2387540D01*
X2198860Y2383280D01*
X2196320Y2378660D01*
X2194440Y2373720D01*
X2193200Y2368580D01*
X2192680Y2363320D01*
X2192860Y2358040D01*
X2193740Y2352840D01*
X2195300Y2347780D01*
X2197520Y2343000D01*
X2200360Y2338540D01*
X2203780Y2334500D01*
X2207700Y2330960D01*
X2212060Y2327960D01*
X2216760Y2325580D01*
X2221760Y2323840D01*
X2226940Y2322800D01*
X2232220Y2322440D01*
X2237480Y2322800D01*
X2242660Y2323840D01*
X2247660Y2325580D01*
X2252360Y2327960D01*
X2256780Y2331000D01*
X2260640Y2334500D01*
X2264060Y2338540D01*
X2266460Y2342300D01*
X2267720Y2343540D01*
X2269400Y2344120D01*
X2271160Y2343920D01*
X2272660Y2342980D01*
X2332740Y2282900D01*
X2333420Y2281960D01*
X2333820Y2280880D01*
X2335360Y2273460D01*
X2335440Y2272680D01*
X2336340Y2269460D01*
X2337860Y2266460D01*
X2339100Y2264720D01*
X2342960Y2258840D01*
X2343440Y2257800D01*
X2343600Y2256660D01*
X2343600Y2241480D01*
X2343180Y2239680D01*
X2341780Y2236900D01*
X2341020Y2235840D01*
X2339980Y2235100D01*
X2338740Y2234720D01*
X2336640Y2234440D01*
X2335180Y2233840D01*
X2333920Y2232880D01*
X2332960Y2231620D01*
X2332360Y2230160D01*
X2332120Y2228320D01*
X2332120Y2198860D01*
X2332360Y2197020D01*
X2332960Y2195560D01*
X2333920Y2194300D01*
X2335180Y2193340D01*
X2336640Y2192740D01*
G37*
G36*
X2409440Y2269440D02*
G01*
X2530980Y2269440D01*
X2532800Y2269680D01*
X2534260Y2270280D01*
X2535520Y2271240D01*
X2536480Y2272500D01*
X2537100Y2273960D01*
X2537340Y2275800D01*
X2537340Y2342200D01*
X2537100Y2344040D01*
X2536480Y2345500D01*
X2535520Y2346760D01*
X2534260Y2347720D01*
X2532800Y2348320D01*
X2530980Y2348560D01*
X2409440Y2348560D01*
X2407620Y2348320D01*
X2406160Y2347720D01*
X2404900Y2346760D01*
X2403940Y2345500D01*
X2403320Y2344040D01*
X2403080Y2342200D01*
X2403080Y2275800D01*
X2403320Y2273960D01*
X2403940Y2272500D01*
X2404900Y2271240D01*
X2406160Y2270280D01*
X2407620Y2269680D01*
G37*
G36*
X2342540Y2401000D02*
G01*
X2345880Y2401000D01*
X2349160Y2401600D01*
X2352280Y2402820D01*
X2355100Y2404560D01*
X2357580Y2406820D01*
X2359580Y2409480D01*
X2361080Y2412460D01*
X2361980Y2415680D01*
X2362300Y2419000D01*
X2361980Y2422320D01*
X2361080Y2425540D01*
X2359580Y2428520D01*
X2357580Y2431180D01*
X2355100Y2433440D01*
X2352280Y2435180D01*
X2349160Y2436400D01*
X2346200Y2436960D01*
X2339680Y2438600D01*
X2338680Y2439000D01*
X2337840Y2439660D01*
X2332480Y2445020D01*
X2331620Y2446300D01*
X2331300Y2447840D01*
X2331300Y2472880D01*
X2331040Y2475240D01*
X2330300Y2477380D01*
X2329100Y2479300D01*
X2328260Y2480220D01*
X2275920Y2532580D01*
X2274960Y2534140D01*
X2271980Y2543040D01*
X2271780Y2544300D01*
X2271780Y2595200D01*
X2271540Y2597040D01*
X2270920Y2598500D01*
X2269960Y2599760D01*
X2268700Y2600720D01*
X2267240Y2601320D01*
X2265420Y2601560D01*
X2199000Y2601560D01*
X2197180Y2601320D01*
X2195720Y2600720D01*
X2194460Y2599760D01*
X2193500Y2598500D01*
X2192880Y2597040D01*
X2192640Y2595200D01*
X2192640Y2528800D01*
X2192880Y2526960D01*
X2193500Y2525500D01*
X2194460Y2524240D01*
X2195720Y2523280D01*
X2197180Y2522680D01*
X2199000Y2522440D01*
X2249880Y2522440D01*
X2251140Y2522240D01*
X2260060Y2519260D01*
X2261620Y2518300D01*
X2309940Y2469980D01*
X2310800Y2468700D01*
X2311100Y2467160D01*
X2311100Y2442120D01*
X2311360Y2439760D01*
X2312120Y2437620D01*
X2313320Y2435700D01*
X2314140Y2434780D01*
X2323560Y2425380D01*
X2324200Y2424520D01*
X2324600Y2423520D01*
X2326260Y2416960D01*
X2326440Y2415680D01*
X2327340Y2412460D01*
X2328840Y2409480D01*
X2330840Y2406820D01*
X2333320Y2404560D01*
X2336140Y2402820D01*
X2339260Y2401600D01*
G37*
G36*
X2232220Y2422440D02*
G01*
X2237480Y2422800D01*
X2242660Y2423840D01*
X2247660Y2425580D01*
X2252360Y2427960D01*
X2256720Y2430960D01*
X2260640Y2434500D01*
X2264060Y2438540D01*
X2266900Y2443000D01*
X2269120Y2447780D01*
X2270680Y2452840D01*
X2271560Y2458040D01*
X2271740Y2463320D01*
X2271220Y2468580D01*
X2269980Y2473720D01*
X2268100Y2478660D01*
X2265560Y2483280D01*
X2262420Y2487540D01*
X2258740Y2491340D01*
X2254600Y2494620D01*
X2250060Y2497300D01*
X2245180Y2499360D01*
X2240080Y2500760D01*
X2234860Y2501460D01*
X2229560Y2501460D01*
X2224340Y2500760D01*
X2219240Y2499360D01*
X2214380Y2497300D01*
X2209820Y2494620D01*
X2205680Y2491340D01*
X2202000Y2487540D01*
X2198860Y2483280D01*
X2196320Y2478660D01*
X2194440Y2473720D01*
X2193200Y2468580D01*
X2192680Y2463320D01*
X2192860Y2458040D01*
X2193740Y2452840D01*
X2195300Y2447780D01*
X2197520Y2443000D01*
X2200360Y2438540D01*
X2203780Y2434500D01*
X2207700Y2430960D01*
X2212060Y2427960D01*
X2216760Y2425580D01*
X2221760Y2423840D01*
X2226940Y2422800D01*
G37*
G36*
X2656480Y2497480D02*
G01*
X2717940Y2497480D01*
X2719780Y2497740D01*
X2721240Y2498340D01*
X2722500Y2499300D01*
X2724360Y2502060D01*
X2725500Y2502900D01*
X2748800Y2514560D01*
X2750600Y2514980D01*
X2801100Y2514980D01*
X2804440Y2515320D01*
X2807440Y2516240D01*
X2810220Y2517720D01*
X2812820Y2519840D01*
X2814240Y2521260D01*
X2815539Y2522140D01*
X2817060Y2522440D01*
X2865419Y2522440D01*
X2867240Y2522680D01*
X2868700Y2523280D01*
X2869960Y2524240D01*
X2870920Y2525500D01*
X2871540Y2526960D01*
X2871780Y2528800D01*
X2871780Y2595200D01*
X2871540Y2597040D01*
X2870920Y2598500D01*
X2869960Y2599760D01*
X2868700Y2600720D01*
X2867240Y2601320D01*
X2865419Y2601560D01*
X2799000Y2601560D01*
X2797180Y2601320D01*
X2795720Y2600720D01*
X2794460Y2599760D01*
X2793500Y2598500D01*
X2792880Y2597040D01*
X2792640Y2595200D01*
X2792640Y2552380D01*
X2792280Y2550740D01*
X2791280Y2549380D01*
X2789800Y2548560D01*
X2787620Y2547920D01*
X2785160Y2547520D01*
X2782200Y2547280D01*
X2778740Y2547180D01*
X2750600Y2547180D01*
X2748800Y2547600D01*
X2725500Y2559260D01*
X2724360Y2560120D01*
X2723460Y2561620D01*
X2722500Y2562880D01*
X2721240Y2563840D01*
X2719780Y2564440D01*
X2717940Y2564680D01*
X2673300Y2564680D01*
X2669080Y2565100D01*
X2607900Y2565100D01*
X2606120Y2565520D01*
X2583840Y2576660D01*
X2582660Y2577559D01*
X2581900Y2578800D01*
X2581620Y2580240D01*
X2581620Y2582200D01*
X2581380Y2584040D01*
X2580779Y2585500D01*
X2579820Y2586760D01*
X2578560Y2587720D01*
X2577100Y2588320D01*
X2575260Y2588560D01*
X2546260Y2588560D01*
X2544420Y2588320D01*
X2542960Y2587720D01*
X2541700Y2586760D01*
X2540740Y2585500D01*
X2540140Y2584040D01*
X2539900Y2582200D01*
X2539900Y2515800D01*
X2540140Y2513960D01*
X2540740Y2512500D01*
X2541700Y2511240D01*
X2542960Y2510280D01*
X2544420Y2509680D01*
X2546260Y2509440D01*
X2575260Y2509440D01*
X2577100Y2509680D01*
X2578560Y2510280D01*
X2579820Y2511240D01*
X2580779Y2512500D01*
X2581380Y2513960D01*
X2581620Y2515800D01*
X2581620Y2517760D01*
X2581900Y2519200D01*
X2582660Y2520440D01*
X2583840Y2521340D01*
X2606120Y2532480D01*
X2607900Y2532900D01*
X2636300Y2532900D01*
X2639920Y2532800D01*
X2642940Y2532520D01*
X2645600Y2532040D01*
X2647280Y2531540D01*
X2648740Y2530720D01*
X2649760Y2529360D01*
X2650120Y2527700D01*
X2650120Y2503860D01*
X2650360Y2502020D01*
X2650960Y2500560D01*
X2651920Y2499300D01*
X2653180Y2498340D01*
X2654640Y2497740D01*
G37*

%LPD*%
G36*
X2543040Y1905600D02*
G01*
X2541500Y1905900D01*
X2540220Y1906780D01*
X2539340Y1908060D01*
X2539040Y1909600D01*
X2539340Y1911140D01*
X2540220Y1912420D01*
X2565000Y1937220D01*
X2566300Y1938100D01*
X2567840Y1938400D01*
X2578220Y1938400D01*
X2580000Y1937980D01*
X2582799Y1936579D01*
X2583840Y1935820D01*
X2584600Y1934760D01*
X2584960Y1933520D01*
X2585240Y1931440D01*
X2585840Y1929960D01*
X2586820Y1928720D01*
X2588060Y1927740D01*
X2589540Y1927140D01*
X2591360Y1926900D01*
X2607060Y1926900D01*
X2608639Y1926579D01*
X2609960Y1925640D01*
X2610820Y1924280D01*
X2611040Y1922680D01*
X2610640Y1921120D01*
X2609340Y1918540D01*
X2608440Y1915320D01*
X2608260Y1914040D01*
X2606880Y1908620D01*
X2606100Y1907060D01*
X2604720Y1905980D01*
X2603020Y1905600D01*
G37*

%LPD*%
G36*
X2354560Y1879600D02*
G01*
X2353420Y1879760D01*
X2352360Y1880260D01*
X2346680Y1883980D01*
X2346100Y1884440D01*
X2343280Y1886180D01*
X2342020Y1886680D01*
X2340700Y1887520D01*
X2339800Y1888800D01*
X2339460Y1890340D01*
X2339760Y1891900D01*
X2340620Y1893200D01*
X2341920Y1894100D01*
X2343460Y1894400D01*
X2432540Y1894400D01*
X2434060Y1894100D01*
X2435360Y1893220D01*
X2436220Y1891940D01*
X2436540Y1890400D01*
X2436220Y1888860D01*
X2435360Y1887580D01*
X2428560Y1880780D01*
X2427260Y1879900D01*
X2425740Y1879600D01*
G37*

%LPD*%
G36*
X2300300Y1832040D02*
G01*
X2298780Y1832340D01*
X2297480Y1833220D01*
X2296620Y1834500D01*
X2296300Y1836040D01*
X2296300Y1883460D01*
X2296600Y1884980D01*
X2297460Y1886260D01*
X2298720Y1887140D01*
X2300240Y1887460D01*
X2301760Y1887200D01*
X2303260Y1886600D01*
X2306540Y1886000D01*
X2309880Y1886000D01*
X2313160Y1886600D01*
X2318020Y1888520D01*
X2319580Y1888460D01*
X2321020Y1887800D01*
X2322080Y1886639D01*
X2322600Y1885160D01*
X2322520Y1883580D01*
X2321840Y1882160D01*
X2319840Y1879520D01*
X2318340Y1876540D01*
X2317440Y1873320D01*
X2317120Y1870000D01*
X2317440Y1866680D01*
X2318340Y1863460D01*
X2319840Y1860480D01*
X2322780Y1856519D01*
X2323140Y1854960D01*
X2322860Y1853380D01*
X2321960Y1852040D01*
X2303140Y1833220D01*
X2301840Y1832340D01*
G37*

%LPD*%
G36*
X2410680Y1701540D02*
G01*
X2409160Y1701819D01*
X2407840Y1702640D01*
X2405440Y1704920D01*
X2403380Y1706200D01*
X2402080Y1707360D01*
X2401380Y1708959D01*
X2401440Y1710700D01*
X2402220Y1712240D01*
X2403780Y1714160D01*
X2405260Y1716900D01*
X2406160Y1719900D01*
X2406460Y1723000D01*
X2406160Y1726100D01*
X2405260Y1729100D01*
X2403780Y1731840D01*
X2401800Y1734259D01*
X2399400Y1736240D01*
X2396640Y1737720D01*
X2393660Y1738620D01*
X2390340Y1738940D01*
X2351380Y1738940D01*
X2348060Y1738620D01*
X2345080Y1737720D01*
X2342320Y1736240D01*
X2339920Y1734259D01*
X2337940Y1731840D01*
X2336460Y1729100D01*
X2335560Y1726100D01*
X2335260Y1723000D01*
X2335560Y1719900D01*
X2336460Y1716900D01*
X2337940Y1714160D01*
X2339080Y1712320D01*
X2339260Y1710840D01*
X2338880Y1709379D01*
X2338000Y1708180D01*
X2336740Y1707380D01*
X2335260Y1707100D01*
X2331140Y1707100D01*
X2329600Y1707400D01*
X2328320Y1708280D01*
X2311560Y1725020D01*
X2310700Y1726300D01*
X2310400Y1727840D01*
X2310400Y1810260D01*
X2310700Y1811780D01*
X2311560Y1813080D01*
X2329040Y1830540D01*
X2330520Y1831480D01*
X2332260Y1831699D01*
X2333920Y1831160D01*
X2335200Y1829940D01*
X2335820Y1828300D01*
X2335260Y1823000D01*
X2335560Y1819900D01*
X2336460Y1816900D01*
X2337940Y1814160D01*
X2339920Y1811740D01*
X2342320Y1809760D01*
X2345080Y1808280D01*
X2348060Y1807380D01*
X2351380Y1807060D01*
X2391280Y1807100D01*
X2408560Y1808899D01*
X2409600Y1808880D01*
X2411380Y1808240D01*
X2412760Y1807220D01*
X2413600Y1805740D01*
X2414320Y1803380D01*
X2414500Y1802420D01*
X2414600Y1800240D01*
X2414600Y1705540D01*
X2414300Y1704019D01*
X2413460Y1702740D01*
X2412180Y1701860D01*
G37*

%LPC*%
G36*
X2351380Y1757060D02*
G01*
X2390340Y1757060D01*
X2393660Y1757380D01*
X2396640Y1758280D01*
X2399400Y1759760D01*
X2401800Y1761740D01*
X2403780Y1764160D01*
X2405260Y1766900D01*
X2406160Y1769900D01*
X2406460Y1773000D01*
X2406160Y1776100D01*
X2405260Y1779100D01*
X2403780Y1781840D01*
X2401800Y1784259D01*
X2399400Y1786240D01*
X2396640Y1787720D01*
X2393660Y1788620D01*
X2390340Y1788940D01*
X2351380Y1788940D01*
X2348060Y1788620D01*
X2345080Y1787720D01*
X2342320Y1786240D01*
X2339920Y1784259D01*
X2337940Y1781840D01*
X2336460Y1779100D01*
X2335560Y1776100D01*
X2335260Y1773000D01*
X2335560Y1769900D01*
X2336460Y1766900D01*
X2337940Y1764160D01*
X2339920Y1761740D01*
X2342320Y1759760D01*
X2345080Y1758280D01*
X2348060Y1757380D01*
G37*

%LPD*%
G36*
X2524060Y1430880D02*
G01*
X2522460Y1431480D01*
X2521260Y1432660D01*
X2518380Y1437060D01*
X2517880Y1438120D01*
X2517720Y1439259D01*
X2517720Y1537280D01*
X2518020Y1538820D01*
X2518900Y1540120D01*
X2541020Y1562220D01*
X2542300Y1563100D01*
X2543840Y1563400D01*
X2545860Y1563400D01*
X2547480Y1563060D01*
X2548800Y1562120D01*
X2549640Y1560700D01*
X2549860Y1559079D01*
X2549380Y1557500D01*
X2548340Y1556260D01*
X2546240Y1554620D01*
X2531460Y1539840D01*
X2529740Y1537440D01*
X2528920Y1535300D01*
X2528600Y1532760D01*
X2528600Y1434860D01*
X2528240Y1433200D01*
X2527240Y1431840D01*
X2525740Y1431020D01*
G37*

%LPD*%
G36*
X2567860Y1782840D02*
G01*
X2555860Y1777000D01*
X2555860Y1769000D01*
X2567860Y1763160D01*
G37*
G36*
X2567860Y1732840D02*
G01*
X2555860Y1727000D01*
X2555860Y1719000D01*
X2567860Y1713160D01*
G37*
G36*
X2611740Y1681759D02*
G01*
X2611740Y1664259D01*
X2622240Y1669500D01*
X2622240Y1676500D01*
G37*
G36*
X2611740Y1631759D02*
G01*
X2611740Y1614259D01*
X2622240Y1619500D01*
X2622240Y1626500D01*
G37*
G36*
X2563360Y1581759D02*
G01*
X2552860Y1576500D01*
X2552860Y1569500D01*
X2563360Y1564259D01*
G37*
G36*
X2390540Y1832840D02*
G01*
X2390540Y1813160D01*
X2413040Y1815500D01*
X2413040Y1830500D01*
G37*
G36*
X2346660Y1681759D02*
G01*
X2336160Y1676500D01*
X2336160Y1669500D01*
X2346660Y1664259D01*
G37*
G36*
X2560160Y1330060D02*
G01*
X2529520Y1307560D01*
X2559300Y1307560D01*
X2581380Y1330060D01*
G37*
G36*
X2265680Y2542660D02*
G01*
X2251520Y2528540D01*
X2264260Y2524300D01*
X2269920Y2529940D01*
G37*
G36*
X2602600Y1973500D02*
G01*
X2597360Y1963000D01*
X2614860Y1963000D01*
X2609600Y1973500D01*
G37*
G36*
X2591100Y1956740D02*
G01*
X2580600Y1951500D01*
X2580600Y1944500D01*
X2591100Y1939240D01*
G37*
G36*
X2464800Y1973500D02*
G01*
X2459560Y1963000D01*
X2477060Y1963000D01*
X2471800Y1973500D01*
G37*
G36*
X2459560Y1933000D02*
G01*
X2464800Y1925320D01*
X2471800Y1925320D01*
X2477060Y1933000D01*
G37*
G36*
X2715620Y1475260D02*
G01*
X2720860Y1464760D01*
X2727860Y1464760D01*
X2733120Y1475260D01*
G37*
G36*
X2349700Y2239080D02*
G01*
X2344460Y2228580D01*
X2361960Y2228580D01*
X2356700Y2239080D01*
G37*
G36*
X2344460Y2147420D02*
G01*
X2349700Y2136920D01*
X2356700Y2136920D01*
X2361960Y2147420D01*
G37*
G36*
X2709380Y1641600D02*
G01*
X2700360Y1636339D01*
X2700360Y1629340D01*
X2709380Y1624100D01*
G37*
G36*
X2718220Y2556080D02*
G01*
X2718220Y2506080D01*
X2748220Y2521080D01*
X2748220Y2541080D01*
G37*
G36*
X2575520Y2574000D02*
G01*
X2575520Y2524000D01*
X2605520Y2539000D01*
X2605520Y2559000D01*
G37*
G36*
X2455440Y2515540D02*
G01*
X2462700Y2493040D01*
X2477700Y2493040D01*
X2484980Y2515540D01*
G37*
G36*
X2597360Y2014760D02*
G01*
X2602600Y2004259D01*
X2609600Y2004259D01*
X2614860Y2014760D01*
G37*
G36*
X2459560Y2014760D02*
G01*
X2464800Y2004259D01*
X2471800Y2004259D01*
X2477060Y2014760D01*
G37*
G36*
X2648700Y2239100D02*
G01*
X2643460Y2228600D01*
X2660960Y2228600D01*
X2655700Y2239100D01*
G37*
G36*
X2636620Y2212560D02*
G01*
X2632700Y2200320D01*
X2636960Y2194680D01*
X2647160Y2198600D01*
G37*
G36*
X2717780Y2228600D02*
G01*
X2717780Y2198600D01*
X2740280Y2206100D01*
X2740280Y2221100D01*
G37*
G36*
X2687780Y2198600D02*
G01*
X2694600Y2176100D01*
X2709600Y2176100D01*
X2717780Y2198600D01*
G37*
G36*
X2493140Y1732000D02*
G01*
X2493140Y1714000D01*
X2501540Y1719000D01*
X2501540Y1727000D01*
G37*
G36*
X2531940Y1764379D02*
G01*
X2522460Y1761980D01*
X2535180Y1749259D01*
X2537580Y1758720D01*
G37*
G36*
X2335480Y2433380D02*
G01*
X2329820Y2427720D01*
X2332240Y2418240D01*
X2344960Y2430980D01*
G37*
G36*
X2757280Y2284000D02*
G01*
X2748880Y2278500D01*
X2748880Y2271500D01*
X2757280Y2266000D01*
G37*
G36*
X2586139Y2154000D02*
G01*
X2586139Y2136000D01*
X2594540Y2137500D01*
X2594540Y2152500D01*
G37*
G36*
X2570700Y2161340D02*
G01*
X2569200Y2152940D01*
X2587200Y2152940D01*
X2585700Y2161340D01*
G37*
G36*
X2621280Y2188920D02*
G01*
X2611460Y2186860D01*
X2624180Y2174140D01*
X2626240Y2183960D01*
G37*
G36*
X2344140Y2290020D02*
G01*
X2339180Y2285080D01*
X2341240Y2275240D01*
X2353960Y2287980D01*
G37*
G36*
X2344200Y2268060D02*
G01*
X2349700Y2259660D01*
X2356700Y2259660D01*
X2362200Y2268060D01*
G37*
G36*
X2485460Y1645020D02*
G01*
X2480520Y1640080D01*
X2482560Y1630240D01*
X2495300Y1642980D01*
G37*
G36*
X2505680Y1693480D02*
G01*
X2500740Y1688520D01*
X2502240Y1679240D01*
X2514960Y1691980D01*
G37*
G36*
X2452960Y1660860D02*
G01*
X2442360Y1650240D01*
X2447240Y1643240D01*
X2459960Y1655980D01*
G37*
G36*
X2742240Y1948760D02*
G01*
X2740179Y1938920D01*
X2745140Y1933980D01*
X2754960Y1936020D01*
G37*
G36*
X2418480Y1646380D02*
G01*
X2412820Y1640720D01*
X2415240Y1631240D01*
X2427960Y1643980D01*
G37*
G36*
X2343140Y1879000D02*
G01*
X2343140Y1861000D01*
X2351540Y1866500D01*
X2351540Y1873500D01*
G37*
G36*
X2316140Y1913000D02*
G01*
X2316140Y1895000D01*
X2324540Y1900500D01*
X2324540Y1907500D01*
G37*
G36*
X2614240Y1912760D02*
G01*
X2611820Y1903280D01*
X2617480Y1897620D01*
X2626960Y1900020D01*
G37*
G36*
X2504620Y1436240D02*
G01*
X2499120Y1427840D01*
X2517120Y1427840D01*
X2511620Y1436240D01*
G37*
G36*
X2552280Y1430000D02*
G01*
X2545200Y1424500D01*
X2545200Y1417500D01*
X2552280Y1412000D01*
G37*
G36*
X2254340Y2387100D02*
G01*
X2254340Y2336900D01*
X2267200Y2358500D01*
X2267200Y2365500D01*
G37*
G36*
X2807100Y2339860D02*
G01*
X2824700Y2316440D01*
X2839700Y2316440D01*
X2857300Y2339860D01*
G37*
G36*
X2824700Y2307560D02*
G01*
X2807100Y2284140D01*
X2857300Y2284140D01*
X2839700Y2307560D01*
G37*
G36*
X2798820Y2264100D02*
G01*
X2794680Y2235080D01*
X2805299Y2224480D01*
X2834300Y2228600D01*
G37*
G36*
X2798820Y2064100D02*
G01*
X2797520Y2032260D01*
X2802460Y2027320D01*
X2834300Y2028600D01*
G37*
G36*
X2827000Y1395060D02*
G01*
X2795680Y1389460D01*
X2791840Y1383420D01*
X2800059Y1352700D01*
G37*
G36*
X2805299Y1299520D02*
G01*
X2794680Y1288920D01*
X2798820Y1259900D01*
X2834300Y1295400D01*
G37*
G36*
X2265560Y2539960D02*
G01*
X2254240Y2528660D01*
X2254860Y2529100D01*
X2255600Y2529340D01*
X2256440Y2529340D01*
X2257400Y2529100D01*
X2258480Y2528660D01*
X2259660Y2527980D01*
X2260960Y2527080D01*
X2263920Y2524580D01*
X2265560Y2523000D01*
X2271200Y2528660D01*
X2268260Y2531820D01*
X2266220Y2534540D01*
X2265560Y2535720D01*
X2265100Y2536800D01*
X2264880Y2537760D01*
X2264880Y2538620D01*
X2265100Y2539340D01*
G37*
G36*
X2800260Y1304560D02*
G01*
X2789640Y1293959D01*
X2791420Y1291960D01*
X2793000Y1289700D01*
X2794380Y1287200D01*
X2795580Y1284420D01*
X2796580Y1281380D01*
X2797400Y1278100D01*
X2798020Y1274540D01*
X2798700Y1266660D01*
X2798740Y1262340D01*
X2831880Y1295460D01*
X2827540Y1295520D01*
X2823480Y1295760D01*
X2819660Y1296180D01*
X2816100Y1296819D01*
X2812820Y1297620D01*
X2809780Y1298640D01*
X2807020Y1299820D01*
X2804500Y1301220D01*
X2802240Y1302800D01*
G37*
G36*
X2790260Y1394900D02*
G01*
X2786860Y1388400D01*
X2787640Y1387400D01*
X2798260Y1358600D01*
X2800140Y1352420D01*
X2821980Y1393860D01*
X2817480Y1392540D01*
X2813279Y1391519D01*
X2809360Y1390820D01*
X2805760Y1390460D01*
X2802440Y1390400D01*
X2799400Y1390660D01*
X2796680Y1391240D01*
X2794240Y1392140D01*
X2792100Y1393360D01*
G37*
G36*
X2798740Y2061660D02*
G01*
X2798720Y2056300D01*
X2798560Y2051339D01*
X2797799Y2042680D01*
X2797200Y2038980D01*
X2796440Y2035700D01*
X2795560Y2032840D01*
X2794520Y2030380D01*
X2793340Y2028360D01*
X2792000Y2026740D01*
X2796940Y2021800D01*
X2798560Y2023120D01*
X2800600Y2024319D01*
X2803039Y2025360D01*
X2805899Y2026240D01*
X2809200Y2027000D01*
X2812900Y2027600D01*
X2826500Y2028520D01*
X2831880Y2028540D01*
G37*
G36*
X2824700Y2314700D02*
G01*
X2824540Y2312040D01*
X2824060Y2309320D01*
X2823279Y2306560D01*
X2822160Y2303760D01*
X2820720Y2300900D01*
X2818980Y2298000D01*
X2816900Y2295040D01*
X2811800Y2289000D01*
X2808780Y2285900D01*
X2855640Y2285900D01*
X2852600Y2289000D01*
X2849900Y2292040D01*
X2847500Y2295040D01*
X2845440Y2298000D01*
X2843680Y2300900D01*
X2842260Y2303760D01*
X2841139Y2306560D01*
X2840340Y2309320D01*
X2839860Y2312040D01*
X2839700Y2314700D01*
G37*
G36*
X2798740Y2261660D02*
G01*
X2798700Y2257340D01*
X2798460Y2253260D01*
X2798020Y2249460D01*
X2797400Y2245900D01*
X2796580Y2242620D01*
X2795580Y2239580D01*
X2794380Y2236800D01*
X2793000Y2234300D01*
X2791420Y2232040D01*
X2789640Y2230040D01*
X2800260Y2219440D01*
X2802240Y2221200D01*
X2804500Y2222780D01*
X2807020Y2224180D01*
X2809780Y2225360D01*
X2812820Y2226380D01*
X2816100Y2227180D01*
X2819660Y2227820D01*
X2827540Y2228480D01*
X2831880Y2228540D01*
G37*
G36*
X2808780Y2338100D02*
G01*
X2811800Y2335000D01*
X2814520Y2331960D01*
X2816900Y2328960D01*
X2818980Y2326000D01*
X2820720Y2323100D01*
X2822160Y2320240D01*
X2823279Y2317440D01*
X2824060Y2314680D01*
X2824540Y2311960D01*
X2824700Y2309300D01*
X2839700Y2309300D01*
X2839860Y2311960D01*
X2840340Y2314680D01*
X2841139Y2317440D01*
X2842260Y2320240D01*
X2843680Y2323100D01*
X2845440Y2326000D01*
X2847500Y2328960D01*
X2852600Y2335000D01*
X2855640Y2338100D01*
G37*
G36*
X2798980Y2551080D02*
G01*
X2798780Y2549180D01*
X2798159Y2547480D01*
X2797140Y2545980D01*
X2795740Y2544680D01*
X2793920Y2543580D01*
X2791720Y2542680D01*
X2789100Y2541980D01*
X2786080Y2541480D01*
X2782679Y2541180D01*
X2778860Y2541080D01*
X2778860Y2521080D01*
X2798860Y2528660D01*
G37*
G36*
X2687919Y2198720D02*
G01*
X2689180Y2198580D01*
X2690320Y2198120D01*
X2691320Y2197380D01*
X2692200Y2196320D01*
X2692919Y2194980D01*
X2693519Y2193320D01*
X2694000Y2191380D01*
X2694320Y2189120D01*
X2694520Y2186580D01*
X2694600Y2183720D01*
X2709600Y2183720D01*
X2709680Y2186580D01*
X2709900Y2189120D01*
X2710280Y2191380D01*
X2710800Y2193320D01*
X2711480Y2194980D01*
X2712300Y2196320D01*
X2713279Y2197380D01*
X2714400Y2198120D01*
X2715680Y2198580D01*
X2717100Y2198720D01*
G37*
G36*
X2717679Y2228480D02*
G01*
X2717679Y2198720D01*
X2717820Y2200120D01*
X2718279Y2201380D01*
X2719020Y2202480D01*
X2720080Y2203440D01*
X2721420Y2204260D01*
X2723080Y2204920D01*
X2725020Y2205440D01*
X2727280Y2205800D01*
X2729820Y2206020D01*
X2732679Y2206100D01*
X2732679Y2221100D01*
X2729820Y2221160D01*
X2727280Y2221380D01*
X2725020Y2221760D01*
X2723080Y2222280D01*
X2721420Y2222940D01*
X2720080Y2223760D01*
X2719020Y2224720D01*
X2718279Y2225820D01*
X2717820Y2227080D01*
G37*
G36*
X2648700Y2235480D02*
G01*
X2648680Y2234120D01*
X2648399Y2231840D01*
X2647840Y2230140D01*
X2647440Y2229500D01*
X2647000Y2229000D01*
X2646460Y2228640D01*
X2645880Y2228440D01*
X2645200Y2228360D01*
X2659200Y2228360D01*
X2658540Y2228440D01*
X2657940Y2228640D01*
X2657420Y2229000D01*
X2656960Y2229500D01*
X2656580Y2230140D01*
X2656259Y2230920D01*
X2655840Y2232920D01*
X2655700Y2235480D01*
G37*
G36*
X2636860Y2209320D02*
G01*
X2637200Y2208740D01*
X2637360Y2208080D01*
X2637340Y2207340D01*
X2637120Y2206480D01*
X2636700Y2205540D01*
X2636100Y2204500D01*
X2635320Y2203380D01*
X2633140Y2200820D01*
X2631780Y2199420D01*
X2636040Y2193780D01*
X2638880Y2196420D01*
X2641300Y2198260D01*
X2642340Y2198860D01*
X2643279Y2199280D01*
X2644100Y2199460D01*
X2644820Y2199460D01*
X2645440Y2199260D01*
X2645940Y2198840D01*
G37*
G36*
X2461300Y1933120D02*
G01*
X2461980Y1933040D01*
X2462560Y1932840D01*
X2463100Y1932480D01*
X2463540Y1932000D01*
X2463940Y1931360D01*
X2464500Y1929680D01*
X2464780Y1927440D01*
X2464800Y1926120D01*
X2471800Y1926120D01*
X2471940Y1928640D01*
X2472360Y1930600D01*
X2472680Y1931360D01*
X2473060Y1932000D01*
X2473520Y1932480D01*
X2474040Y1932840D01*
X2474640Y1933040D01*
X2475300Y1933120D01*
G37*
G36*
X2464800Y1969880D02*
G01*
X2464780Y1968520D01*
X2464500Y1966240D01*
X2463940Y1964540D01*
X2463540Y1963899D01*
X2463100Y1963400D01*
X2462560Y1963040D01*
X2461980Y1962820D01*
X2461300Y1962760D01*
X2475300Y1962760D01*
X2474640Y1962820D01*
X2474040Y1963040D01*
X2473520Y1963400D01*
X2473060Y1963899D01*
X2472680Y1964540D01*
X2472360Y1965320D01*
X2471940Y1967320D01*
X2471800Y1969880D01*
G37*
G36*
X2602600Y1969880D02*
G01*
X2602460Y1967360D01*
X2602040Y1965400D01*
X2601720Y1964620D01*
X2601340Y1964000D01*
X2600880Y1963500D01*
X2600360Y1963160D01*
X2599760Y1962940D01*
X2599100Y1962880D01*
X2613100Y1962880D01*
X2612440Y1962940D01*
X2611840Y1963160D01*
X2611320Y1963500D01*
X2610860Y1964000D01*
X2610480Y1964620D01*
X2610160Y1965400D01*
X2609740Y1967360D01*
X2609600Y1969880D01*
G37*
G36*
X2591340Y1955000D02*
G01*
X2591280Y1954340D01*
X2591060Y1953740D01*
X2590700Y1953220D01*
X2590200Y1952760D01*
X2589560Y1952380D01*
X2588780Y1952060D01*
X2586780Y1951639D01*
X2584220Y1951500D01*
X2584220Y1944500D01*
X2586780Y1944360D01*
X2588780Y1943940D01*
X2589560Y1943620D01*
X2590200Y1943240D01*
X2590700Y1942780D01*
X2591060Y1942260D01*
X2591280Y1941660D01*
X2591340Y1941000D01*
G37*
G36*
X2346200Y2147660D02*
G01*
X2346880Y2147580D01*
X2347460Y2147360D01*
X2348000Y2147020D01*
X2348440Y2146520D01*
X2348840Y2145880D01*
X2349400Y2144160D01*
X2349680Y2141880D01*
X2349700Y2140540D01*
X2356700Y2140540D01*
X2356840Y2143100D01*
X2357260Y2145080D01*
X2357580Y2145880D01*
X2357960Y2146520D01*
X2358420Y2147020D01*
X2358940Y2147360D01*
X2359540Y2147580D01*
X2360200Y2147660D01*
G37*
G36*
X2349700Y2235480D02*
G01*
X2349680Y2234120D01*
X2349400Y2231840D01*
X2348840Y2230140D01*
X2348440Y2229500D01*
X2348000Y2229000D01*
X2347460Y2228640D01*
X2346880Y2228420D01*
X2346200Y2228360D01*
X2360200Y2228360D01*
X2359540Y2228420D01*
X2358940Y2228640D01*
X2358420Y2229000D01*
X2357960Y2229500D01*
X2357580Y2230140D01*
X2357260Y2230920D01*
X2356840Y2232920D01*
X2356700Y2235480D01*
G37*
G36*
X2461300Y2015000D02*
G01*
X2461980Y2014920D01*
X2462560Y2014720D01*
X2463100Y2014360D01*
X2463540Y2013860D01*
X2463940Y2013220D01*
X2464500Y2011500D01*
X2464780Y2009220D01*
X2464800Y2007880D01*
X2471800Y2007880D01*
X2471940Y2010440D01*
X2472360Y2012440D01*
X2472680Y2013220D01*
X2473060Y2013860D01*
X2473520Y2014360D01*
X2474040Y2014720D01*
X2474640Y2014920D01*
X2475300Y2015000D01*
G37*
G36*
X2599100Y2015000D02*
G01*
X2599760Y2014920D01*
X2600360Y2014720D01*
X2600880Y2014360D01*
X2601340Y2013860D01*
X2601720Y2013220D01*
X2602040Y2012440D01*
X2602460Y2010440D01*
X2602600Y2007880D01*
X2609600Y2007880D01*
X2609740Y2010440D01*
X2610160Y2012440D01*
X2610480Y2013220D01*
X2610860Y2013860D01*
X2611320Y2014360D01*
X2611840Y2014720D01*
X2612440Y2014920D01*
X2613100Y2015000D01*
G37*
G36*
X2718080Y2551080D02*
G01*
X2718080Y2511080D01*
X2718279Y2512980D01*
X2718880Y2514680D01*
X2719880Y2516180D01*
X2721280Y2517480D01*
X2723080Y2518580D01*
X2725280Y2519480D01*
X2727880Y2520180D01*
X2730880Y2520680D01*
X2734280Y2520980D01*
X2738080Y2521080D01*
X2738080Y2541080D01*
X2734280Y2541180D01*
X2730880Y2541480D01*
X2727880Y2541980D01*
X2725280Y2542680D01*
X2723080Y2543580D01*
X2721280Y2544680D01*
X2719880Y2545980D01*
X2718880Y2547480D01*
X2718279Y2549180D01*
G37*
G36*
X2636320Y2559000D02*
G01*
X2636320Y2539000D01*
X2640140Y2538900D01*
X2643560Y2538600D01*
X2646580Y2538100D01*
X2649180Y2537400D01*
X2651400Y2536500D01*
X2653200Y2535400D01*
X2654620Y2534100D01*
X2655620Y2532600D01*
X2656240Y2530900D01*
X2656440Y2529000D01*
X2656320Y2558460D01*
G37*
G36*
X2717360Y1475500D02*
G01*
X2718039Y1475420D01*
X2718620Y1475220D01*
X2719160Y1474860D01*
X2719600Y1474360D01*
X2720000Y1473720D01*
X2720560Y1472000D01*
X2720840Y1469720D01*
X2720860Y1468380D01*
X2727860Y1468380D01*
X2728000Y1470940D01*
X2728420Y1472940D01*
X2728740Y1473720D01*
X2729120Y1474360D01*
X2729580Y1474860D01*
X2730100Y1475220D01*
X2730700Y1475420D01*
X2731360Y1475500D01*
G37*
G36*
X2709480Y1639840D02*
G01*
X2709420Y1639180D01*
X2709200Y1638580D01*
X2708860Y1638060D01*
X2708360Y1637600D01*
X2707740Y1637220D01*
X2706960Y1636900D01*
X2705000Y1636480D01*
X2702480Y1636339D01*
X2702480Y1629340D01*
X2705000Y1629199D01*
X2706960Y1628779D01*
X2707740Y1628460D01*
X2708360Y1628080D01*
X2708860Y1627620D01*
X2709200Y1627100D01*
X2709420Y1626500D01*
X2709480Y1625840D01*
G37*
G36*
X2455560Y2515660D02*
G01*
X2456920Y2515500D01*
X2458140Y2515060D01*
X2459200Y2514300D01*
X2460140Y2513260D01*
X2460920Y2511900D01*
X2461560Y2510260D01*
X2462060Y2508300D01*
X2462420Y2506060D01*
X2462640Y2503500D01*
X2462700Y2500660D01*
X2477700Y2500660D01*
X2477780Y2503500D01*
X2478000Y2506060D01*
X2478340Y2508300D01*
X2478840Y2510260D01*
X2479500Y2511900D01*
X2480280Y2513260D01*
X2481200Y2514300D01*
X2482280Y2515060D01*
X2483500Y2515500D01*
X2484840Y2515660D01*
G37*
G36*
X2575280Y2569000D02*
G01*
X2575280Y2529000D01*
X2575480Y2530900D01*
X2576080Y2532600D01*
X2577100Y2534100D01*
X2578500Y2535400D01*
X2580320Y2536500D01*
X2582520Y2537400D01*
X2585140Y2538100D01*
X2588159Y2538600D01*
X2591580Y2538900D01*
X2595400Y2539000D01*
X2595400Y2559000D01*
X2591580Y2559100D01*
X2588159Y2559400D01*
X2585140Y2559900D01*
X2582520Y2560600D01*
X2580320Y2561500D01*
X2578500Y2562600D01*
X2577100Y2563900D01*
X2576080Y2565400D01*
X2575480Y2567100D01*
G37*
G36*
X2344160Y1680000D02*
G01*
X2343660Y1679340D01*
X2342360Y1678220D01*
X2340700Y1677380D01*
X2338660Y1676819D01*
X2336280Y1676540D01*
X2334960Y1676500D01*
X2334960Y1669500D01*
X2337520Y1669360D01*
X2339720Y1668940D01*
X2341560Y1668240D01*
X2342360Y1667780D01*
X2343660Y1666660D01*
X2344160Y1666000D01*
G37*
G36*
X2394340Y1832160D02*
G01*
X2394340Y1813839D01*
X2394960Y1814160D01*
X2396960Y1814680D01*
X2408940Y1815480D01*
X2411820Y1815500D01*
X2411820Y1830500D01*
X2408940Y1830520D01*
X2401820Y1830760D01*
X2398320Y1831100D01*
X2395840Y1831560D01*
X2394960Y1831840D01*
G37*
G36*
X2560860Y1580000D02*
G01*
X2559740Y1578740D01*
X2558260Y1577760D01*
X2556420Y1577060D01*
X2554220Y1576639D01*
X2551660Y1576500D01*
X2551660Y1569500D01*
X2554220Y1569360D01*
X2556420Y1568940D01*
X2558260Y1568240D01*
X2559740Y1567260D01*
X2560860Y1566000D01*
G37*
G36*
X2614240Y1630000D02*
G01*
X2614240Y1616000D01*
X2615360Y1617260D01*
X2616840Y1618240D01*
X2618680Y1618940D01*
X2620899Y1619360D01*
X2623460Y1619500D01*
X2623460Y1626500D01*
X2620899Y1626639D01*
X2618680Y1627060D01*
X2616840Y1627760D01*
X2615360Y1628740D01*
G37*
G36*
X2614240Y1680000D02*
G01*
X2614240Y1666000D01*
X2615360Y1667260D01*
X2616840Y1668240D01*
X2618680Y1668940D01*
X2620899Y1669360D01*
X2623460Y1669500D01*
X2623460Y1676500D01*
X2620899Y1676639D01*
X2618680Y1677060D01*
X2616840Y1677760D01*
X2615360Y1678740D01*
G37*
G36*
X2562400Y1730900D02*
G01*
X2562300Y1730160D01*
X2561940Y1729500D01*
X2561360Y1728920D01*
X2560560Y1728400D01*
X2559520Y1727980D01*
X2558240Y1727620D01*
X2556740Y1727360D01*
X2553040Y1727040D01*
X2550840Y1727000D01*
X2550840Y1719000D01*
X2555000Y1718839D01*
X2558240Y1718380D01*
X2559520Y1718020D01*
X2560560Y1717600D01*
X2561360Y1717080D01*
X2561940Y1716500D01*
X2562300Y1715840D01*
X2562400Y1715100D01*
G37*
G36*
X2562400Y1780900D02*
G01*
X2562300Y1780160D01*
X2561940Y1779500D01*
X2561360Y1778920D01*
X2560560Y1778400D01*
X2559520Y1777980D01*
X2558240Y1777620D01*
X2556740Y1777360D01*
X2553040Y1777040D01*
X2550840Y1777000D01*
X2550840Y1769000D01*
X2555000Y1768839D01*
X2558240Y1768380D01*
X2559520Y1768020D01*
X2560560Y1767600D01*
X2561360Y1767080D01*
X2561940Y1766500D01*
X2562300Y1765840D01*
X2562400Y1765100D01*
G37*
G36*
X2561420Y1331320D02*
G01*
X2558640Y1328640D01*
X2556040Y1326360D01*
X2553640Y1324500D01*
X2551440Y1323020D01*
X2549440Y1321960D01*
X2547640Y1321320D01*
X2546020Y1321060D01*
X2544620Y1321220D01*
X2543400Y1321780D01*
X2542380Y1322760D01*
X2560960Y1299160D01*
X2560240Y1300440D01*
X2559920Y1301900D01*
X2560000Y1303540D01*
X2560460Y1305380D01*
X2561340Y1307400D01*
X2562600Y1309620D01*
X2564280Y1312020D01*
X2568820Y1317400D01*
X2571700Y1320380D01*
G37*
G36*
X2504620Y1438600D02*
G01*
X2504580Y1437540D01*
X2504180Y1435460D01*
X2503840Y1434420D01*
X2502860Y1432400D01*
X2501480Y1430420D01*
X2499720Y1428480D01*
X2516520Y1428480D01*
X2514760Y1430420D01*
X2513380Y1432400D01*
X2512400Y1434420D01*
X2511820Y1436500D01*
X2511620Y1438600D01*
G37*
G36*
X2614200Y1911879D02*
G01*
X2614180Y1910660D01*
X2613880Y1908380D01*
X2613260Y1906260D01*
X2612320Y1904319D01*
X2611040Y1902560D01*
X2610280Y1901740D01*
X2615940Y1896080D01*
X2617620Y1897520D01*
X2619480Y1898620D01*
X2620480Y1899060D01*
X2622580Y1899680D01*
X2624880Y1899980D01*
X2626080Y1900000D01*
G37*
G36*
X2316780Y1912400D02*
G01*
X2316780Y1895600D01*
X2317740Y1896540D01*
X2319700Y1898100D01*
X2321700Y1899280D01*
X2323740Y1900060D01*
X2325820Y1900460D01*
X2326880Y1900500D01*
X2326880Y1907500D01*
X2325820Y1907540D01*
X2323740Y1907940D01*
X2321700Y1908720D01*
X2319700Y1909900D01*
X2317740Y1911459D01*
G37*
G36*
X2343780Y1878400D02*
G01*
X2343780Y1861600D01*
X2344740Y1862540D01*
X2346700Y1864100D01*
X2348700Y1865280D01*
X2350740Y1866060D01*
X2352820Y1866459D01*
X2353880Y1866500D01*
X2353880Y1873500D01*
X2352820Y1873540D01*
X2350740Y1873940D01*
X2348700Y1874720D01*
X2346700Y1875900D01*
X2344740Y1877460D01*
G37*
G36*
X2416940Y1647920D02*
G01*
X2411280Y1642260D01*
X2412720Y1640580D01*
X2413320Y1639680D01*
X2414260Y1637740D01*
X2414880Y1635620D01*
X2415180Y1633340D01*
X2415200Y1632120D01*
X2427080Y1644000D01*
X2425880Y1644019D01*
X2423580Y1644319D01*
X2421480Y1644940D01*
X2419520Y1645900D01*
X2418620Y1646480D01*
G37*
G36*
X2742200Y1947880D02*
G01*
X2742080Y1945260D01*
X2741660Y1942880D01*
X2740920Y1940760D01*
X2739880Y1938899D01*
X2739240Y1938040D01*
X2738519Y1937260D01*
X2743480Y1932320D01*
X2745100Y1933660D01*
X2746000Y1934220D01*
X2748000Y1935120D01*
X2750240Y1935700D01*
X2752740Y1935980D01*
X2754080Y1936000D01*
G37*
G36*
X2452800Y1661020D02*
G01*
X2442180Y1650420D01*
X2444760Y1647740D01*
X2446400Y1645740D01*
X2447020Y1644780D01*
X2447200Y1644120D01*
X2459080Y1656000D01*
X2458440Y1656200D01*
X2457480Y1656800D01*
X2453760Y1660060D01*
G37*
G36*
X2505680Y1693480D02*
G01*
X2500740Y1688520D01*
X2502520Y1686579D01*
X2503040Y1685880D01*
X2503300Y1685360D01*
X2503320Y1685020D01*
X2509180Y1690900D01*
X2508840Y1690900D01*
X2508320Y1691160D01*
G37*
G36*
X2483800Y1646680D02*
G01*
X2478860Y1641740D01*
X2480200Y1640100D01*
X2481240Y1638240D01*
X2481660Y1637200D01*
X2482240Y1634960D01*
X2482520Y1632460D01*
X2482540Y1631120D01*
X2494420Y1643000D01*
X2491800Y1643120D01*
X2489420Y1643560D01*
X2488340Y1643880D01*
X2486340Y1644780D01*
X2484580Y1645980D01*
G37*
G36*
X2344800Y2267440D02*
G01*
X2346580Y2265480D01*
X2347940Y2263500D01*
X2348920Y2261480D01*
X2349520Y2259420D01*
X2349660Y2258380D01*
X2349700Y2257320D01*
X2356700Y2257320D01*
X2356900Y2259420D01*
X2357140Y2260460D01*
X2357940Y2262500D01*
X2359100Y2264500D01*
X2360680Y2266460D01*
X2361600Y2267440D01*
G37*
G36*
X2342480Y2291680D02*
G01*
X2337520Y2286740D01*
X2338240Y2285960D01*
X2339440Y2284200D01*
X2339920Y2283240D01*
X2340660Y2281120D01*
X2341080Y2278740D01*
X2341200Y2276120D01*
X2353080Y2288000D01*
X2350460Y2288120D01*
X2348100Y2288560D01*
X2347000Y2288880D01*
X2345000Y2289780D01*
X2343260Y2290980D01*
G37*
G36*
X2622940Y2190560D02*
G01*
X2621320Y2189220D01*
X2619440Y2188180D01*
X2617320Y2187440D01*
X2616160Y2187180D01*
X2613660Y2186900D01*
X2612320Y2186880D01*
X2624200Y2175000D01*
X2624340Y2177620D01*
X2624500Y2178840D01*
X2625100Y2181080D01*
X2625500Y2182120D01*
X2626540Y2184000D01*
X2627880Y2185620D01*
G37*
G36*
X2570700Y2161560D02*
G01*
X2570620Y2157860D01*
X2570380Y2155280D01*
X2570140Y2154180D01*
X2569800Y2153560D01*
X2586600Y2153560D01*
X2586280Y2154180D01*
X2586040Y2155280D01*
X2585720Y2160200D01*
X2585700Y2161560D01*
G37*
G36*
X2586780Y2153400D02*
G01*
X2586780Y2136600D01*
X2587380Y2136920D01*
X2588480Y2137180D01*
X2593420Y2137500D01*
X2594780Y2137500D01*
X2594780Y2152500D01*
X2591060Y2152580D01*
X2588480Y2152820D01*
X2587380Y2153080D01*
G37*
G36*
X2756640Y2283400D02*
G01*
X2755680Y2282460D01*
X2753700Y2280900D01*
X2752720Y2280260D01*
X2750700Y2279280D01*
X2748639Y2278700D01*
X2747580Y2278540D01*
X2746520Y2278500D01*
X2746520Y2271500D01*
X2747580Y2271460D01*
X2749660Y2271060D01*
X2750700Y2270720D01*
X2752720Y2269740D01*
X2754700Y2268360D01*
X2755680Y2267540D01*
X2756640Y2266600D01*
G37*
G36*
X2333940Y2434920D02*
G01*
X2328280Y2429260D01*
X2329720Y2427580D01*
X2330320Y2426680D01*
X2331260Y2424740D01*
X2331880Y2422620D01*
X2332180Y2420340D01*
X2332200Y2419120D01*
X2344080Y2431000D01*
X2342880Y2431020D01*
X2340580Y2431320D01*
X2338480Y2431940D01*
X2336520Y2432900D01*
X2335620Y2433480D01*
G37*
G36*
X2533460Y1765920D02*
G01*
X2532660Y1765160D01*
X2530880Y1763899D01*
X2528940Y1762940D01*
X2526820Y1762320D01*
X2524540Y1762020D01*
X2523320Y1762000D01*
X2535200Y1750120D01*
X2535340Y1752500D01*
X2535800Y1754700D01*
X2536580Y1756720D01*
X2537700Y1758580D01*
X2538360Y1759440D01*
X2539120Y1760260D01*
G37*
G36*
X2493780Y1731399D02*
G01*
X2493780Y1714600D01*
X2495560Y1716180D01*
X2497440Y1717420D01*
X2499420Y1718300D01*
X2501520Y1718820D01*
X2502600Y1718959D01*
X2503720Y1719000D01*
X2503720Y1727000D01*
X2502600Y1727040D01*
X2500460Y1727400D01*
X2499420Y1727700D01*
X2497440Y1728580D01*
X2495560Y1729820D01*
G37*
G36*
X2694600Y2167500D02*
G01*
X2694440Y2164660D01*
X2694000Y2162100D01*
X2693240Y2159860D01*
X2692200Y2157900D01*
X2690840Y2156260D01*
X2689200Y2154900D01*
X2687240Y2153860D01*
X2685000Y2153100D01*
X2682440Y2152660D01*
X2679600Y2152500D01*
X2679600Y2137500D01*
X2682440Y2137360D01*
X2685000Y2136900D01*
X2687240Y2136160D01*
X2689200Y2135100D01*
X2690840Y2133760D01*
X2692200Y2132100D01*
X2693240Y2130160D01*
X2694000Y2127900D01*
X2694440Y2125360D01*
X2694600Y2122500D01*
X2709600Y2145000D01*
G37*
G36*
X2435700Y1841100D02*
G01*
X2433540Y1839100D01*
X2431280Y1837280D01*
X2428940Y1835700D01*
X2426520Y1834319D01*
X2424000Y1833160D01*
X2421400Y1832200D01*
X2418700Y1831459D01*
X2415920Y1830920D01*
X2413060Y1830600D01*
X2410100Y1830500D01*
X2405700Y1815500D01*
X2408560Y1815360D01*
X2411100Y1814900D01*
X2413360Y1814160D01*
X2415300Y1813100D01*
X2416960Y1811759D01*
X2418300Y1810100D01*
X2419360Y1808160D01*
X2420100Y1805900D01*
X2420560Y1803360D01*
X2420700Y1800500D01*
X2435700Y1804900D01*
X2435820Y1807840D01*
X2436140Y1810720D01*
X2436660Y1813500D01*
X2437400Y1816200D01*
X2438360Y1818800D01*
X2439520Y1821320D01*
X2440900Y1823740D01*
X2442500Y1826080D01*
X2444300Y1828340D01*
X2446320Y1830500D01*
G37*
D12*
X2353210Y2213590D02*
G01*
X2353210Y2213600D01*
X2353210Y2276000D01*
X2267210Y2362000D01*
X2232210Y2362000D01*
X2587550Y1673000D02*
G01*
X2660210Y1673000D01*
X2700360Y1632840D01*
X2724370Y1632840D01*
X2724370Y1490250D02*
G01*
X2724370Y1455840D01*
X2818210Y1362000D01*
X2832210Y1362000D01*
D11*
X2485210Y1723000D02*
G01*
X2485210Y1723000D01*
X2587550Y1723000D01*
X2523210Y1750000D02*
G01*
X2546210Y1773000D01*
X2587550Y1773000D01*
D13*
X2370860Y1823000D02*
G01*
X2428210Y1823000D01*
D11*
X2232210Y2562000D02*
G01*
X2321210Y2473000D01*
X2321210Y2442000D01*
X2344210Y2419000D01*
D13*
X2470210Y2549000D02*
G01*
X2470210Y2476000D01*
X2578210Y2368000D01*
X2578210Y2145000D01*
X2702100Y2145000D01*
D24*
X2560760Y2549000D02*
G01*
X2669289Y2549000D01*
X2687210Y2531090D01*
X2801290Y2531090D01*
X2832210Y2562000D01*
D12*
X2370860Y1673000D02*
G01*
X2330210Y1673000D01*
X2286710Y1716500D01*
X2286710Y1972500D01*
X2353210Y2039000D01*
X2353210Y2162410D01*
X2335210Y1870000D02*
G01*
X2431370Y1870000D01*
X2470370Y1909000D01*
X2523210Y1909000D01*
X2562200Y1948000D01*
X2606100Y1948000D01*
X2606100Y2062000D01*
X2606100Y2062000D01*
X2308210Y1904000D02*
G01*
X2446980Y1904000D01*
X2468310Y1925329D01*
X2468310Y1948000D01*
X2468310Y2062000D01*
X2468310Y2062000D01*
D11*
X2427206Y1632000D02*
G01*
X2410706Y1648500D01*
X2410706Y1685500D01*
X2399206Y1697000D01*
X2325298Y1697000D01*
X2300298Y1722000D01*
X2300298Y1816091D01*
X2329206Y1845000D01*
X2403206Y1845000D01*
X2411206Y1853000D01*
X2433458Y1853000D01*
X2475958Y1895500D01*
X2609706Y1895500D01*
X2626206Y1912000D01*
D12*
X2514206Y1680000D02*
G01*
X2503206Y1691000D01*
X2467591Y1691000D01*
X2460206Y1698385D01*
X2460206Y1796000D01*
X2470206Y1806000D01*
X2470206Y1818615D01*
X2499591Y1848000D01*
X2689591Y1848000D01*
X2738206Y1896615D01*
X2738206Y1932000D01*
X2754206Y1948000D01*
X2494538Y1631000D02*
G01*
X2480706Y1644832D01*
X2480706Y1659500D01*
X2447206Y1693000D01*
X2447206Y1801385D01*
X2457206Y1811385D01*
X2457206Y1824000D01*
X2494206Y1861000D01*
X2684206Y1861000D01*
X2725206Y1902000D01*
X2725206Y1955000D01*
X2832206Y2062000D01*
X2612210Y2174890D02*
G01*
X2652210Y2214890D01*
X2652210Y2257290D01*
X2669910Y2275000D01*
X2765210Y2275000D01*
D13*
X2459210Y1644000D02*
G01*
X2428210Y1675000D01*
X2428210Y1823000D01*
X2483210Y1878000D01*
X2675210Y1878000D01*
X2702100Y1904890D01*
X2702100Y2145000D01*
X2702100Y2213590D01*
X2783800Y2213590D01*
X2832210Y2262000D01*
X2832210Y2362000D01*
D12*
X2508120Y1419920D02*
G01*
X2508120Y1542920D01*
X2538210Y1573000D01*
X2587550Y1573000D01*
X2587550Y1623000D02*
G01*
X2624210Y1623000D01*
X2633210Y1614000D01*
X2633210Y1564000D01*
X2617210Y1548000D01*
X2553210Y1548000D01*
X2538210Y1533000D01*
X2538210Y1428000D01*
X2545210Y1421000D01*
X2560210Y1421000D01*
D13*
X2536210Y1295500D02*
G01*
X2640710Y1400000D01*
X2756160Y1400000D01*
X2771210Y1384960D01*
X2771210Y1323000D01*
X2832210Y1262000D01*
D25*
X2351175Y1473000D02*
G01*
X2390545Y1473000D01*
X2351175Y1523000D02*
G01*
X2390545Y1523000D01*
X2351175Y1573000D02*
G01*
X2390545Y1573000D01*
X2351175Y1623000D02*
G01*
X2390545Y1623000D01*
X2351175Y1673000D02*
G01*
X2390545Y1673000D01*
X2351175Y1723000D02*
G01*
X2390545Y1723000D01*
X2351175Y1773000D02*
G01*
X2390545Y1773000D01*
X2351175Y1823000D02*
G01*
X2390545Y1823000D01*
X2567865Y1473000D02*
G01*
X2607235Y1473000D01*
X2567865Y1523000D02*
G01*
X2607235Y1523000D01*
X2567865Y1573000D02*
G01*
X2607235Y1573000D01*
X2567865Y1623000D02*
G01*
X2607235Y1623000D01*
X2567865Y1673000D02*
G01*
X2607235Y1673000D01*
X2567865Y1723000D02*
G01*
X2607235Y1723000D01*
X2567865Y1773000D02*
G01*
X2607235Y1773000D01*
G36*
X2687790Y2228600D02*
G01*
X2717790Y2228600D01*
X2717790Y2198600D01*
X2687790Y2198600D01*
G37*
G36*
X2636610Y2228600D02*
G01*
X2666610Y2228600D01*
X2666610Y2198600D01*
X2636610Y2198600D01*
G37*
D26*
G01*
X2468310Y2062000D03*
G01*
X2606100Y2062000D03*
D27*
G01*
X2379660Y2549000D03*
G01*
X2470210Y2549000D03*
G01*
X2560760Y2549000D03*
D28*
G01*
X2470210Y2309000D03*
D29*
G01*
X2587550Y1823000D03*
G36*
X2513109Y1283433D02*
G01*
X2559303Y1283433D01*
X2559303Y1307567D01*
X2513109Y1307567D01*
G37*
D30*
G01*
X2536210Y1160500D03*
D31*
G01*
X2687210Y2531090D03*
G01*
X2687210Y2418880D03*
D18*
G01*
X2724370Y1684019D03*
G01*
X2724370Y1632840D03*
G01*
X2353210Y2162410D03*
G01*
X2353210Y2213590D03*
G01*
X2623620Y1239000D03*
G01*
X2674800Y1239000D03*
G36*
X2435790Y1254000D02*
G01*
X2465790Y1254000D01*
X2465790Y1224000D01*
X2435790Y1224000D01*
G37*
G36*
X2384610Y1254000D02*
G01*
X2414610Y1254000D01*
X2414610Y1224000D01*
X2384610Y1224000D01*
G37*
G01*
X2724370Y1541440D03*
G01*
X2724370Y1490260D03*
G36*
X2453310Y1963000D02*
G01*
X2483310Y1963000D01*
X2483310Y1933000D01*
X2453310Y1933000D01*
G37*
G36*
X2402130Y1963000D02*
G01*
X2432130Y1963000D01*
X2432130Y1933000D01*
X2402130Y1933000D01*
G37*
G01*
X2606100Y1948000D03*
G01*
X2657290Y1948000D03*
D20*
G01*
X2832210Y1162000D03*
G01*
X2832210Y1262000D03*
G01*
X2832210Y1362000D03*
G01*
X2832210Y1462000D03*
G01*
X2832210Y1562000D03*
G01*
X2832210Y1662000D03*
G01*
X2832210Y1762000D03*
G01*
X2832210Y1862000D03*
G01*
X2832210Y1962000D03*
G01*
X2832210Y2062000D03*
G01*
X2832210Y2162000D03*
G01*
X2832210Y2262000D03*
G01*
X2832210Y2362000D03*
G01*
X2832210Y2462000D03*
D21*
G01*
X2832210Y2562000D03*
D20*
G01*
X2232210Y1162000D03*
G01*
X2232210Y1262000D03*
G01*
X2232210Y1362000D03*
G01*
X2232210Y1462000D03*
G01*
X2232210Y1562000D03*
G01*
X2232210Y1662000D03*
G01*
X2232210Y1762000D03*
G01*
X2232210Y1862000D03*
G01*
X2232210Y1962000D03*
G01*
X2232210Y2062000D03*
G01*
X2232210Y2162000D03*
G01*
X2232210Y2262000D03*
G01*
X2232210Y2362000D03*
G01*
X2232210Y2462000D03*
D21*
G01*
X2232210Y2562000D03*
D22*
G01*
X2423870Y1306260D03*
G01*
X2651429Y1306260D03*
D15*
G01*
X2608210Y1306000D03*
G01*
X2465210Y1306000D03*
G01*
X2560210Y1421000D03*
G01*
X2508120Y1419910D03*
G01*
X2614210Y2510000D03*
G01*
X2303210Y2117000D03*
G01*
X2401500Y2134000D03*
G01*
X2336210Y1936000D03*
G01*
X2765210Y1459000D03*
G01*
X2626210Y1912000D03*
G01*
X2308210Y1904000D03*
G01*
X2335210Y1870000D03*
G01*
X2427210Y1632000D03*
G01*
X2754210Y1948000D03*
G01*
X2459210Y1644000D03*
G01*
X2514210Y1680000D03*
G01*
X2494540Y1631000D03*
G01*
X2353210Y2276000D03*
G01*
X2612210Y2174890D03*
G01*
X2578210Y2145000D03*
G01*
X2765210Y2275000D03*
G01*
X2344210Y2419000D03*
G01*
X2523210Y1750000D03*
G01*
X2485210Y1723000D03*
D23*
X2357040Y1178308D02*
G01*
X2357040Y1146812D01*
X2711370Y1178308D02*
G01*
X2711370Y1146812D01*
X2711370Y1347593D02*
G01*
X2711370Y1304286D01*
X2357040Y1347593D02*
G01*
X2357040Y1304286D01*
M02*
