G04 Layer: TopLayer*
G04 EasyEDA v6.5.1, 2022-03-31 14:40:35*
G04 3057500e3b38410d9f8712b39c549b2e,f4ced638559e4a0e855b540ea8c082d1,10*
G04 Gerber Generator version 0.2*
G04 Scale: 100 percent, Rotated: No, Reflected: No *
G04 Dimensions in inches *
G04 leading zeros omitted , absolute positions ,3 integer and 6 decimal *
%FSLAX36Y36*%
%MOIN*%

%ADD11C,0.0080*%
%ADD12C,0.0070*%
%ADD13C,0.0150*%
%ADD14C,0.0177*%
%ADD15C,0.0240*%
%ADD18R,0.0300X0.0300*%
%ADD19R,0.0500X0.0600*%
%ADD20C,0.0669*%
%ADD21R,0.0669X0.0669*%
%ADD22C,0.0295*%
%ADD23C,0.0472*%

%LPD*%
G36*
X2429140Y2429100D02*
G01*
X2427520Y2429440D01*
X2426180Y2430420D01*
X2425340Y2431840D01*
X2425160Y2433480D01*
X2425660Y2435060D01*
X2426760Y2436300D01*
X2428740Y2437800D01*
X2441880Y2450940D01*
X2443020Y2452400D01*
X2443620Y2453860D01*
X2443860Y2455700D01*
X2443860Y2484300D01*
X2443620Y2486140D01*
X2443020Y2487600D01*
X2441880Y2489060D01*
X2429820Y2501140D01*
X2429020Y2502280D01*
X2425140Y2510640D01*
X2424760Y2512320D01*
X2424760Y2545620D01*
X2425060Y2547140D01*
X2425940Y2548440D01*
X2469120Y2591620D01*
X2470420Y2592500D01*
X2471940Y2592799D01*
X2523060Y2592799D01*
X2524600Y2592500D01*
X2525900Y2591620D01*
X2526760Y2590320D01*
X2527060Y2588800D01*
X2526760Y2587260D01*
X2525900Y2585980D01*
X2488860Y2548940D01*
X2487380Y2547080D01*
X2486400Y2545060D01*
X2485900Y2542840D01*
X2485820Y2541600D01*
X2485820Y2512320D01*
X2485460Y2510640D01*
X2481580Y2502280D01*
X2480780Y2501140D01*
X2468700Y2489060D01*
X2467580Y2487600D01*
X2466960Y2486140D01*
X2466720Y2484300D01*
X2466720Y2461820D01*
X2466560Y2460720D01*
X2465660Y2458960D01*
X2465180Y2457460D01*
X2464940Y2455180D01*
X2464420Y2454140D01*
X2461300Y2449740D01*
X2460860Y2449220D01*
X2441920Y2430280D01*
X2440620Y2429400D01*
X2439080Y2429100D01*
G37*

%LPD*%
G36*
X2750299Y2217440D02*
G01*
X2748780Y2217740D01*
X2747480Y2218620D01*
X2746620Y2219920D01*
X2746300Y2221440D01*
X2746300Y2257640D01*
X2746660Y2259300D01*
X2747679Y2260660D01*
X2749160Y2261480D01*
X2750860Y2261600D01*
X2752440Y2261020D01*
X2753660Y2259820D01*
X2754960Y2257840D01*
X2755440Y2256800D01*
X2755600Y2255660D01*
X2755600Y2222740D01*
X2755299Y2221220D01*
X2754440Y2219920D01*
X2753140Y2218620D01*
X2751840Y2217740D01*
G37*

%LPD*%
G36*
X2673300Y2180120D02*
G01*
X2671740Y2180480D01*
X2670440Y2181400D01*
X2669620Y2182780D01*
X2669400Y2184360D01*
X2669800Y2185900D01*
X2671200Y2188680D01*
X2671880Y2189660D01*
X2672840Y2190400D01*
X2673960Y2190820D01*
X2675720Y2191180D01*
X2677400Y2191160D01*
X2678940Y2190440D01*
X2680040Y2189160D01*
X2680520Y2187540D01*
X2680280Y2185860D01*
X2679360Y2184440D01*
X2676220Y2181280D01*
X2674880Y2180400D01*
G37*

%LPD*%
G36*
X2597760Y2149500D02*
G01*
X2596139Y2150260D01*
X2595020Y2151620D01*
X2593080Y2155360D01*
X2592820Y2156260D01*
X2592460Y2158200D01*
X2592500Y2159760D01*
X2593120Y2161200D01*
X2594220Y2162280D01*
X2595680Y2162840D01*
X2597220Y2162820D01*
X2598660Y2162220D01*
X2599740Y2161100D01*
X2601960Y2157740D01*
X2602440Y2156680D01*
X2602600Y2155540D01*
X2602600Y2153400D01*
X2602220Y2151680D01*
X2601120Y2150300D01*
X2599520Y2149520D01*
G37*

%LPD*%
G36*
X2539220Y2117600D02*
G01*
X2537700Y2117900D01*
X2536400Y2118780D01*
X2473420Y2181740D01*
X2471040Y2183480D01*
X2468880Y2184300D01*
X2466340Y2184600D01*
X2433940Y2184600D01*
X2432380Y2184920D01*
X2431060Y2185820D01*
X2430200Y2187180D01*
X2429940Y2188760D01*
X2430320Y2190320D01*
X2431280Y2191600D01*
X2432680Y2192400D01*
X2452540Y2199020D01*
X2453800Y2199220D01*
X2456580Y2199220D01*
X2457980Y2198960D01*
X2478520Y2191200D01*
X2481020Y2190720D01*
X2510660Y2190720D01*
X2513160Y2191140D01*
X2533860Y2198960D01*
X2535260Y2199220D01*
X2537840Y2199220D01*
X2539240Y2198960D01*
X2555760Y2192720D01*
X2557180Y2191820D01*
X2558080Y2190400D01*
X2564340Y2173880D01*
X2564600Y2172480D01*
X2564600Y2162220D01*
X2564540Y2161520D01*
X2563600Y2156260D01*
X2563340Y2155360D01*
X2562840Y2154520D01*
X2561340Y2151540D01*
X2560440Y2148320D01*
X2560120Y2145000D01*
X2560440Y2141680D01*
X2561340Y2138460D01*
X2562840Y2135480D01*
X2564840Y2132820D01*
X2567320Y2130560D01*
X2570140Y2128820D01*
X2573260Y2127600D01*
X2574200Y2127440D01*
X2575800Y2126760D01*
X2576940Y2125480D01*
X2577460Y2123840D01*
X2577220Y2122120D01*
X2576300Y2120680D01*
X2574400Y2118780D01*
X2573100Y2117900D01*
X2571580Y2117600D01*
G37*

%LPD*%
G36*
X2652580Y2099620D02*
G01*
X2651040Y2099940D01*
X2649740Y2100800D01*
X2648880Y2102100D01*
X2648580Y2103620D01*
X2648880Y2105160D01*
X2649740Y2106460D01*
X2674780Y2131480D01*
X2676080Y2132360D01*
X2677600Y2132660D01*
X2679140Y2132360D01*
X2680440Y2131480D01*
X2681300Y2130200D01*
X2681600Y2128660D01*
X2681600Y2106420D01*
X2681180Y2104620D01*
X2679800Y2101840D01*
X2678900Y2100660D01*
X2677660Y2099900D01*
X2676220Y2099620D01*
G37*

%LPD*%
G36*
X2641740Y2044199D02*
G01*
X2640200Y2044500D01*
X2638920Y2045380D01*
X2636380Y2047920D01*
X2635520Y2049199D01*
X2635200Y2050740D01*
X2635200Y2090260D01*
X2635520Y2091800D01*
X2636380Y2093080D01*
X2638920Y2095620D01*
X2640200Y2096480D01*
X2641740Y2096800D01*
X2643279Y2096480D01*
X2644560Y2095620D01*
X2645440Y2094319D01*
X2645740Y2092800D01*
X2645740Y2048200D01*
X2645440Y2046680D01*
X2644560Y2045380D01*
X2643279Y2044500D01*
G37*

%LPD*%
G36*
X2606240Y1863300D02*
G01*
X2604520Y1863520D01*
X2603020Y1864440D01*
X2602100Y1865940D01*
X2601880Y1867660D01*
X2602180Y1869720D01*
X2603140Y1872580D01*
X2603960Y1874000D01*
X2611760Y1881900D01*
X2613180Y1883940D01*
X2614000Y1886100D01*
X2614300Y1888640D01*
X2614300Y1891459D01*
X2614600Y1892980D01*
X2615460Y1894259D01*
X2616720Y1895140D01*
X2618240Y1895460D01*
X2619760Y1895200D01*
X2621259Y1894600D01*
X2624540Y1894000D01*
X2627880Y1894000D01*
X2631160Y1894600D01*
X2632660Y1895180D01*
X2634180Y1895460D01*
X2635680Y1895140D01*
X2636960Y1894259D01*
X2637799Y1892980D01*
X2638100Y1891459D01*
X2638100Y1880820D01*
X2637799Y1879300D01*
X2636940Y1878000D01*
X2627980Y1869040D01*
X2626680Y1868180D01*
X2625160Y1867880D01*
X2618740Y1867880D01*
X2616380Y1867620D01*
X2614240Y1866860D01*
X2613279Y1866339D01*
X2611180Y1864920D01*
X2608240Y1863680D01*
X2607080Y1863380D01*
G37*

%LPD*%
G36*
X2650779Y1818760D02*
G01*
X2649060Y1818980D01*
X2647559Y1819900D01*
X2646640Y1821399D01*
X2646420Y1823120D01*
X2646800Y1825120D01*
X2648039Y1828060D01*
X2649460Y1830160D01*
X2650419Y1832160D01*
X2650920Y1834379D01*
X2651000Y1835620D01*
X2651000Y1842040D01*
X2651300Y1843560D01*
X2652160Y1844860D01*
X2669260Y1861960D01*
X2670760Y1863820D01*
X2671740Y1865860D01*
X2672240Y1868060D01*
X2672300Y1869300D01*
X2672300Y2007680D01*
X2672040Y2010040D01*
X2671300Y2012180D01*
X2670100Y2014100D01*
X2662740Y2021540D01*
X2661880Y2022840D01*
X2661580Y2024379D01*
X2661880Y2025900D01*
X2662740Y2027200D01*
X2664040Y2028060D01*
X2665580Y2028380D01*
X2676220Y2028380D01*
X2677660Y2028100D01*
X2678900Y2027340D01*
X2679800Y2026160D01*
X2681180Y2023380D01*
X2681600Y2021579D01*
X2681600Y1846900D01*
X2681300Y1845380D01*
X2680440Y1844079D01*
X2657200Y1820900D01*
X2655720Y1820020D01*
X2652840Y1819060D01*
X2651960Y1818880D01*
G37*

%LPD*%
G36*
X2695320Y1774220D02*
G01*
X2693600Y1774440D01*
X2692100Y1775360D01*
X2691180Y1776860D01*
X2690960Y1778580D01*
X2691259Y1780620D01*
X2692220Y1783480D01*
X2693039Y1784900D01*
X2693960Y1785900D01*
X2784860Y1876819D01*
X2786280Y1877720D01*
X2787919Y1877980D01*
X2789540Y1877540D01*
X2790840Y1876459D01*
X2791580Y1874960D01*
X2791640Y1873280D01*
X2791000Y1871740D01*
X2779620Y1854960D01*
X2777420Y1851980D01*
X2701740Y1776360D01*
X2700280Y1775480D01*
X2697380Y1774520D01*
X2696500Y1774340D01*
G37*

%LPD*%
G36*
X2543500Y1760100D02*
G01*
X2541780Y1760480D01*
X2540400Y1761579D01*
X2539600Y1763160D01*
X2539580Y1764920D01*
X2540300Y1766519D01*
X2541660Y1767660D01*
X2543260Y1768480D01*
X2545080Y1769940D01*
X2567880Y1792740D01*
X2569620Y1794319D01*
X2570760Y1795040D01*
X2573240Y1796100D01*
X2575240Y1796480D01*
X2576960Y1796260D01*
X2578460Y1795340D01*
X2579380Y1793839D01*
X2579600Y1792120D01*
X2579200Y1790060D01*
X2577980Y1787280D01*
X2577200Y1786120D01*
X2552380Y1761279D01*
X2551080Y1760400D01*
X2549560Y1760100D01*
G37*

%LPD*%
G36*
X2324680Y1729660D02*
G01*
X2322640Y1729960D01*
X2320540Y1730660D01*
X2319120Y1731500D01*
X2318140Y1732840D01*
X2317800Y1734460D01*
X2317800Y1744019D01*
X2318160Y1745660D01*
X2319160Y1747000D01*
X2320620Y1747840D01*
X2322280Y1747980D01*
X2323880Y1747440D01*
X2325100Y1746279D01*
X2325740Y1744740D01*
X2326080Y1742880D01*
X2327440Y1740040D01*
X2328760Y1736080D01*
X2329060Y1734040D01*
X2328840Y1732300D01*
X2327900Y1730820D01*
X2326420Y1729880D01*
G37*

%LPD*%
G36*
X2337580Y1643899D02*
G01*
X2336120Y1644100D01*
X2333160Y1645080D01*
X2331600Y1646040D01*
X2302980Y1674680D01*
X2302120Y1675960D01*
X2301800Y1677500D01*
X2301800Y1704319D01*
X2302140Y1705900D01*
X2303080Y1707240D01*
X2304460Y1708080D01*
X2306060Y1708300D01*
X2307640Y1707860D01*
X2308900Y1706840D01*
X2310960Y1704340D01*
X2348260Y1667040D01*
X2350680Y1665040D01*
X2353400Y1663600D01*
X2354700Y1662480D01*
X2355420Y1660920D01*
X2355420Y1659220D01*
X2354700Y1657660D01*
X2353400Y1656540D01*
X2350680Y1655100D01*
X2348260Y1653100D01*
X2340220Y1645060D01*
X2339000Y1644220D01*
G37*

%LPD*%
G36*
X2411560Y1611120D02*
G01*
X2409900Y1611579D01*
X2409240Y1611940D01*
X2406440Y1612780D01*
X2403520Y1613080D01*
X2400240Y1612740D01*
X2398500Y1612960D01*
X2397020Y1613899D01*
X2396080Y1615380D01*
X2395860Y1617120D01*
X2396200Y1620400D01*
X2395900Y1623320D01*
X2395060Y1626120D01*
X2393680Y1628700D01*
X2391820Y1630960D01*
X2389560Y1632820D01*
X2386960Y1634199D01*
X2384160Y1635060D01*
X2381260Y1635340D01*
X2377960Y1635020D01*
X2376240Y1635240D01*
X2374740Y1636160D01*
X2373820Y1637660D01*
X2373600Y1639379D01*
X2373920Y1642680D01*
X2373640Y1645580D01*
X2372780Y1648380D01*
X2371400Y1650980D01*
X2369540Y1653240D01*
X2367280Y1655100D01*
X2364560Y1656540D01*
X2363260Y1657660D01*
X2362540Y1659220D01*
X2362540Y1660920D01*
X2363260Y1662480D01*
X2364560Y1663600D01*
X2367280Y1665040D01*
X2369540Y1666900D01*
X2371400Y1669160D01*
X2372780Y1671759D01*
X2373640Y1674560D01*
X2373920Y1677460D01*
X2373600Y1680760D01*
X2373820Y1682480D01*
X2374740Y1683980D01*
X2376240Y1684900D01*
X2377960Y1685120D01*
X2381260Y1684800D01*
X2384160Y1685080D01*
X2386960Y1685940D01*
X2389560Y1687320D01*
X2391820Y1689180D01*
X2393680Y1691440D01*
X2395060Y1694019D01*
X2395900Y1696819D01*
X2396220Y1700040D01*
X2396760Y1701699D01*
X2397960Y1702960D01*
X2399580Y1703600D01*
X2401320Y1703480D01*
X2402860Y1702640D01*
X2410020Y1696279D01*
X2436760Y1669540D01*
X2438580Y1667560D01*
X2440100Y1665660D01*
X2441400Y1663700D01*
X2442520Y1661699D01*
X2443500Y1659560D01*
X2444340Y1657120D01*
X2444540Y1655540D01*
X2444120Y1654000D01*
X2442340Y1650520D01*
X2441520Y1648600D01*
X2440420Y1647600D01*
X2439060Y1647060D01*
X2437580Y1647060D01*
X2436220Y1647600D01*
X2435280Y1648180D01*
X2432160Y1649400D01*
X2428880Y1650000D01*
X2425540Y1650000D01*
X2422260Y1649400D01*
X2419140Y1648180D01*
X2416320Y1646440D01*
X2413840Y1644180D01*
X2411840Y1641519D01*
X2410340Y1638540D01*
X2409440Y1635320D01*
X2409120Y1632000D01*
X2409440Y1628680D01*
X2410340Y1625460D01*
X2411840Y1622480D01*
X2412980Y1620940D01*
X2415220Y1617160D01*
X2415760Y1615520D01*
X2415580Y1613820D01*
X2414680Y1612340D01*
X2413260Y1611380D01*
G37*

%LPD*%
G36*
X2445120Y1607440D02*
G01*
X2443520Y1607720D01*
X2442140Y1608600D01*
X2439300Y1611420D01*
X2438360Y1612900D01*
X2438140Y1614640D01*
X2438700Y1616320D01*
X2439420Y1617520D01*
X2440420Y1618660D01*
X2441780Y1619340D01*
X2443300Y1619460D01*
X2444740Y1619000D01*
X2445920Y1618040D01*
X2446800Y1616260D01*
X2448440Y1613440D01*
X2448940Y1611900D01*
X2448800Y1610260D01*
X2448000Y1608839D01*
X2446700Y1607840D01*
G37*

%LPD*%
G36*
X2306840Y1570600D02*
G01*
X2305300Y1570900D01*
X2304020Y1571780D01*
X2298940Y1576840D01*
X2298080Y1578140D01*
X2297780Y1579660D01*
X2297780Y1643060D01*
X2298080Y1644600D01*
X2298940Y1645900D01*
X2300240Y1646759D01*
X2301780Y1647060D01*
X2303300Y1646759D01*
X2304600Y1645900D01*
X2318020Y1632460D01*
X2319000Y1630900D01*
X2319980Y1627960D01*
X2320180Y1626500D01*
X2319840Y1625060D01*
X2319020Y1623860D01*
X2310960Y1615800D01*
X2308980Y1613380D01*
X2307600Y1610800D01*
X2306740Y1608000D01*
X2306460Y1605080D01*
X2306740Y1602180D01*
X2307600Y1599379D01*
X2308980Y1596780D01*
X2310840Y1594520D01*
X2313100Y1592660D01*
X2315680Y1591279D01*
X2318480Y1590440D01*
X2321400Y1590140D01*
X2324680Y1590480D01*
X2326420Y1590260D01*
X2327900Y1589319D01*
X2328840Y1587840D01*
X2329060Y1586100D01*
X2328760Y1584060D01*
X2327800Y1581200D01*
X2326960Y1579780D01*
X2319040Y1571780D01*
X2317740Y1570900D01*
X2316220Y1570600D01*
G37*

%LPD*%
G36*
X2332680Y1548600D02*
G01*
X2331160Y1548899D01*
X2329860Y1549780D01*
X2328980Y1551060D01*
X2328680Y1552600D01*
X2328980Y1554139D01*
X2329860Y1555420D01*
X2340560Y1566060D01*
X2342020Y1566940D01*
X2344900Y1567900D01*
X2346960Y1568200D01*
X2348680Y1567980D01*
X2350180Y1567060D01*
X2351100Y1565560D01*
X2351320Y1563839D01*
X2351020Y1561780D01*
X2350060Y1558920D01*
X2349240Y1557500D01*
X2348320Y1556500D01*
X2341580Y1549780D01*
X2340300Y1548899D01*
X2338760Y1548600D01*
G37*

%LPD*%
G36*
X2572559Y1530420D02*
G01*
X2570820Y1530540D01*
X2569280Y1531380D01*
X2565440Y1534800D01*
X2495240Y1604980D01*
X2494320Y1606399D01*
X2494080Y1608080D01*
X2494560Y1609720D01*
X2495660Y1611000D01*
X2497200Y1611720D01*
X2499420Y1611620D01*
X2500500Y1611220D01*
X2501440Y1610520D01*
X2574760Y1537200D01*
X2575700Y1535720D01*
X2575920Y1534000D01*
X2575380Y1532340D01*
X2574180Y1531060D01*
G37*

%LPD*%
G36*
X2305840Y1503600D02*
G01*
X2304300Y1503899D01*
X2303020Y1504780D01*
X2276880Y1530900D01*
X2275780Y1532420D01*
X2274540Y1535140D01*
X2273820Y1537440D01*
X2273180Y1540320D01*
X2272660Y1543760D01*
X2272760Y1545420D01*
X2273540Y1546879D01*
X2274820Y1547920D01*
X2276420Y1548340D01*
X2278060Y1548080D01*
X2279460Y1547180D01*
X2294380Y1532260D01*
X2296760Y1530520D01*
X2298920Y1529700D01*
X2301440Y1529400D01*
X2344340Y1529400D01*
X2347240Y1529860D01*
X2349340Y1530800D01*
X2351360Y1532380D01*
X2362820Y1543800D01*
X2364280Y1544660D01*
X2367180Y1545640D01*
X2369220Y1545940D01*
X2370960Y1545720D01*
X2372440Y1544780D01*
X2373380Y1543300D01*
X2373600Y1541560D01*
X2373300Y1539520D01*
X2372340Y1536660D01*
X2371500Y1535220D01*
X2370600Y1534240D01*
X2341140Y1504780D01*
X2339840Y1503899D01*
X2338300Y1503600D01*
G37*

%LPD*%
G36*
X2641640Y1473600D02*
G01*
X2639920Y1473980D01*
X2638540Y1475060D01*
X2637760Y1476620D01*
X2637700Y1478380D01*
X2638420Y1479980D01*
X2642360Y1483180D01*
X2644220Y1485440D01*
X2645600Y1488020D01*
X2646460Y1490820D01*
X2646740Y1493740D01*
X2646420Y1497020D01*
X2646640Y1498760D01*
X2647559Y1500240D01*
X2649060Y1501180D01*
X2650779Y1501399D01*
X2652840Y1501100D01*
X2655680Y1500140D01*
X2657120Y1499300D01*
X2658120Y1498380D01*
X2676080Y1480420D01*
X2676940Y1479139D01*
X2677240Y1477600D01*
X2676940Y1476060D01*
X2676080Y1474780D01*
X2674780Y1473899D01*
X2673240Y1473600D01*
G37*

%LPD*%
G36*
X2368320Y1450600D02*
G01*
X2366780Y1450900D01*
X2365480Y1451780D01*
X2364620Y1453060D01*
X2364320Y1454600D01*
X2364620Y1456140D01*
X2365480Y1457420D01*
X2407360Y1499259D01*
X2408840Y1500120D01*
X2411720Y1501100D01*
X2413780Y1501399D01*
X2415500Y1501180D01*
X2417000Y1500240D01*
X2417920Y1498760D01*
X2418140Y1497020D01*
X2417840Y1494980D01*
X2416880Y1492120D01*
X2416060Y1490700D01*
X2415140Y1489680D01*
X2377220Y1451780D01*
X2375920Y1450900D01*
X2374380Y1450600D01*
G37*

%LPD*%
G36*
X2453100Y1445600D02*
G01*
X2451560Y1445920D01*
X2450240Y1446800D01*
X2449380Y1448140D01*
X2449100Y1449700D01*
X2449460Y1451240D01*
X2450380Y1452520D01*
X2452660Y1454660D01*
X2453840Y1455420D01*
X2456320Y1456480D01*
X2458320Y1456860D01*
X2460060Y1456639D01*
X2461540Y1455700D01*
X2462460Y1454220D01*
X2462680Y1452480D01*
X2462380Y1450440D01*
X2461680Y1448340D01*
X2460840Y1446900D01*
X2459500Y1445940D01*
X2457880Y1445600D01*
G37*

%LPD*%
G36*
X2388000Y1426100D02*
G01*
X2386400Y1426440D01*
X2385060Y1427380D01*
X2384220Y1428800D01*
X2384020Y1430420D01*
X2384480Y1432000D01*
X2385540Y1433240D01*
X2386980Y1434379D01*
X2429640Y1476980D01*
X2431100Y1477860D01*
X2434000Y1478820D01*
X2436040Y1479120D01*
X2437780Y1478899D01*
X2439260Y1477980D01*
X2440200Y1476480D01*
X2440420Y1474760D01*
X2440000Y1472700D01*
X2438780Y1469920D01*
X2438000Y1468760D01*
X2396560Y1427280D01*
X2395260Y1426399D01*
X2393720Y1426100D01*
G37*

%LPD*%
G36*
X2184300Y1110100D02*
G01*
X2182780Y1110400D01*
X2181480Y1111280D01*
X2180620Y1112560D01*
X2180300Y1114100D01*
X2180300Y2609900D01*
X2180620Y2611440D01*
X2181480Y2612720D01*
X2182780Y2613600D01*
X2184300Y2613900D01*
X2453160Y2613900D01*
X2454700Y2613600D01*
X2456000Y2612720D01*
X2456860Y2611440D01*
X2457160Y2609900D01*
X2456860Y2608360D01*
X2456000Y2607080D01*
X2407600Y2558680D01*
X2406120Y2556820D01*
X2405140Y2554800D01*
X2404640Y2552580D01*
X2404560Y2551340D01*
X2404560Y2512320D01*
X2404200Y2510640D01*
X2400320Y2502280D01*
X2399520Y2501140D01*
X2387440Y2489060D01*
X2386320Y2487600D01*
X2385700Y2486140D01*
X2385460Y2484300D01*
X2385460Y2478240D01*
X2385200Y2476800D01*
X2384420Y2475560D01*
X2383260Y2474660D01*
X2378980Y2472520D01*
X2377180Y2472100D01*
X2285640Y2472100D01*
X2283780Y2472380D01*
X2280820Y2473420D01*
X2278680Y2474520D01*
X2276220Y2476020D01*
X2273840Y2477740D01*
X2258540Y2491540D01*
X2254600Y2494600D01*
X2250060Y2497300D01*
X2245180Y2499360D01*
X2240080Y2500760D01*
X2234860Y2501460D01*
X2229560Y2501460D01*
X2224340Y2500760D01*
X2219240Y2499360D01*
X2214380Y2497300D01*
X2209820Y2494620D01*
X2205680Y2491340D01*
X2202000Y2487540D01*
X2198860Y2483280D01*
X2196320Y2478660D01*
X2194440Y2473720D01*
X2193200Y2468580D01*
X2192680Y2463320D01*
X2192860Y2458040D01*
X2193740Y2452840D01*
X2195300Y2447780D01*
X2197520Y2443000D01*
X2200360Y2438540D01*
X2203780Y2434500D01*
X2207700Y2430960D01*
X2212060Y2427960D01*
X2216760Y2425580D01*
X2221760Y2423840D01*
X2226940Y2422800D01*
X2232220Y2422440D01*
X2237480Y2422800D01*
X2242660Y2423840D01*
X2247660Y2425580D01*
X2252360Y2427960D01*
X2256780Y2431000D01*
X2258480Y2432420D01*
X2273840Y2446260D01*
X2276440Y2448120D01*
X2278960Y2449640D01*
X2281360Y2450820D01*
X2283780Y2451620D01*
X2285960Y2451900D01*
X2378500Y2451900D01*
X2379340Y2451820D01*
X2383580Y2450900D01*
X2384700Y2450480D01*
X2386100Y2449280D01*
X2387440Y2448460D01*
X2390360Y2447660D01*
X2391540Y2446840D01*
X2400580Y2437800D01*
X2402580Y2436300D01*
X2403660Y2435060D01*
X2404160Y2433480D01*
X2403980Y2431840D01*
X2403140Y2430420D01*
X2401800Y2429440D01*
X2400180Y2429100D01*
X2363320Y2429100D01*
X2362260Y2429240D01*
X2361280Y2429660D01*
X2355760Y2432960D01*
X2352280Y2435180D01*
X2349160Y2436400D01*
X2345880Y2437000D01*
X2342540Y2437000D01*
X2339260Y2436400D01*
X2336140Y2435180D01*
X2333320Y2433440D01*
X2330840Y2431180D01*
X2328840Y2428520D01*
X2327340Y2425540D01*
X2326440Y2422320D01*
X2326120Y2419000D01*
X2326440Y2415680D01*
X2327340Y2412460D01*
X2328840Y2409480D01*
X2330840Y2406820D01*
X2333320Y2404560D01*
X2336140Y2402820D01*
X2339260Y2401600D01*
X2342540Y2401000D01*
X2345880Y2401000D01*
X2349160Y2401600D01*
X2352280Y2402820D01*
X2355760Y2405040D01*
X2361280Y2408340D01*
X2362260Y2408760D01*
X2363320Y2408900D01*
X2380860Y2408900D01*
X2382380Y2408600D01*
X2383680Y2407720D01*
X2384540Y2406440D01*
X2384860Y2404900D01*
X2384540Y2403360D01*
X2383800Y2401560D01*
X2383560Y2399740D01*
X2383560Y2340260D01*
X2383800Y2338440D01*
X2384400Y2336960D01*
X2385380Y2335720D01*
X2386620Y2334740D01*
X2388100Y2334140D01*
X2389920Y2333900D01*
X2399680Y2333900D01*
X2401120Y2333640D01*
X2402360Y2332860D01*
X2403240Y2331680D01*
X2404640Y2328900D01*
X2405060Y2327120D01*
X2405060Y2291880D01*
X2404960Y2290960D01*
X2404640Y2290080D01*
X2403240Y2287300D01*
X2402480Y2286260D01*
X2401420Y2285500D01*
X2400180Y2285140D01*
X2398100Y2284860D01*
X2396620Y2284260D01*
X2395380Y2283280D01*
X2394400Y2282040D01*
X2393800Y2280560D01*
X2393560Y2278740D01*
X2393560Y2249260D01*
X2393800Y2247440D01*
X2394400Y2245960D01*
X2395380Y2244720D01*
X2396620Y2243740D01*
X2398100Y2243140D01*
X2399920Y2242900D01*
X2429400Y2242900D01*
X2431220Y2243140D01*
X2432700Y2243740D01*
X2433940Y2244720D01*
X2434920Y2245960D01*
X2435520Y2247440D01*
X2435760Y2249260D01*
X2435760Y2278740D01*
X2435520Y2280560D01*
X2434920Y2282040D01*
X2433940Y2283280D01*
X2432700Y2284260D01*
X2431240Y2284860D01*
X2429140Y2285140D01*
X2427900Y2285500D01*
X2426840Y2286260D01*
X2426080Y2287320D01*
X2424680Y2290100D01*
X2424260Y2291880D01*
X2424260Y2327120D01*
X2424680Y2328900D01*
X2426080Y2331680D01*
X2426960Y2332860D01*
X2428220Y2333640D01*
X2429660Y2333900D01*
X2439400Y2333900D01*
X2441220Y2334140D01*
X2442700Y2334740D01*
X2443940Y2335720D01*
X2444920Y2336960D01*
X2445520Y2338440D01*
X2445760Y2340260D01*
X2445760Y2399740D01*
X2445520Y2401560D01*
X2444320Y2404440D01*
X2444260Y2405940D01*
X2444780Y2407340D01*
X2445780Y2408460D01*
X2447100Y2409140D01*
X2449300Y2409900D01*
X2451220Y2411100D01*
X2452140Y2411940D01*
X2474060Y2433860D01*
X2475620Y2434820D01*
X2480920Y2436580D01*
X2482320Y2436780D01*
X2483720Y2436480D01*
X2484780Y2436040D01*
X2486620Y2435800D01*
X2505220Y2435800D01*
X2507060Y2436040D01*
X2508520Y2436660D01*
X2509980Y2437780D01*
X2523140Y2450940D01*
X2524280Y2452400D01*
X2524880Y2453860D01*
X2525120Y2455700D01*
X2525120Y2484300D01*
X2524880Y2486140D01*
X2524280Y2487600D01*
X2523140Y2489060D01*
X2511080Y2501140D01*
X2510280Y2502280D01*
X2506400Y2510640D01*
X2506020Y2512320D01*
X2506020Y2535880D01*
X2506320Y2537400D01*
X2507200Y2538700D01*
X2546120Y2577620D01*
X2547420Y2578500D01*
X2548940Y2578800D01*
X2689460Y2578800D01*
X2691000Y2578500D01*
X2692300Y2577620D01*
X2710940Y2558980D01*
X2711800Y2557700D01*
X2712100Y2556160D01*
X2712100Y2218840D01*
X2711800Y2217300D01*
X2710940Y2216020D01*
X2685820Y2190900D01*
X2684540Y2190040D01*
X2683000Y2189740D01*
X2681480Y2190040D01*
X2680179Y2190900D01*
X2679300Y2192200D01*
X2679000Y2193720D01*
X2679540Y2197080D01*
X2679540Y2226560D01*
X2679300Y2228380D01*
X2678700Y2229860D01*
X2677720Y2231100D01*
X2676480Y2232080D01*
X2675000Y2232680D01*
X2673180Y2232920D01*
X2643700Y2232920D01*
X2641880Y2232680D01*
X2640400Y2232080D01*
X2639160Y2231100D01*
X2638180Y2229860D01*
X2637580Y2228380D01*
X2637340Y2226560D01*
X2637340Y2197080D01*
X2637580Y2195260D01*
X2638180Y2193780D01*
X2639160Y2192540D01*
X2640400Y2191560D01*
X2641880Y2190960D01*
X2643880Y2190480D01*
X2644940Y2189740D01*
X2645700Y2188680D01*
X2647919Y2184220D01*
X2648340Y2182440D01*
X2648340Y2174880D01*
X2648039Y2173340D01*
X2647180Y2172040D01*
X2630160Y2155040D01*
X2628759Y2154120D01*
X2627120Y2153860D01*
X2625520Y2154300D01*
X2624220Y2155340D01*
X2623460Y2156820D01*
X2623380Y2158480D01*
X2623960Y2160040D01*
X2626540Y2164000D01*
X2627580Y2165380D01*
X2629080Y2168360D01*
X2629980Y2171560D01*
X2630299Y2174880D01*
X2629980Y2178220D01*
X2629080Y2181420D01*
X2627580Y2184400D01*
X2625580Y2187080D01*
X2623100Y2189320D01*
X2620280Y2191080D01*
X2617160Y2192280D01*
X2613880Y2192900D01*
X2610539Y2192900D01*
X2607260Y2192280D01*
X2602679Y2190500D01*
X2601180Y2190500D01*
X2599800Y2191060D01*
X2598720Y2192100D01*
X2598080Y2193460D01*
X2598000Y2194960D01*
X2598279Y2197080D01*
X2598279Y2226560D01*
X2598039Y2228380D01*
X2597440Y2229860D01*
X2596460Y2231100D01*
X2595220Y2232080D01*
X2593740Y2232680D01*
X2591920Y2232920D01*
X2562460Y2232920D01*
X2560220Y2232600D01*
X2539360Y2226580D01*
X2538240Y2226420D01*
X2534860Y2226420D01*
X2533740Y2226580D01*
X2512880Y2232600D01*
X2510640Y2232920D01*
X2481200Y2232920D01*
X2478960Y2232600D01*
X2458100Y2226580D01*
X2456980Y2226420D01*
X2453800Y2226420D01*
X2452540Y2226620D01*
X2431440Y2233660D01*
X2429400Y2233920D01*
X2399920Y2233920D01*
X2398100Y2233680D01*
X2396620Y2233080D01*
X2395380Y2232100D01*
X2394400Y2230860D01*
X2393800Y2229380D01*
X2393560Y2227560D01*
X2393560Y2198080D01*
X2393800Y2196260D01*
X2394400Y2194780D01*
X2395380Y2193540D01*
X2396620Y2192560D01*
X2397280Y2192300D01*
X2398580Y2191420D01*
X2399440Y2190140D01*
X2399760Y2188600D01*
X2399440Y2187060D01*
X2398580Y2185780D01*
X2397280Y2184900D01*
X2395760Y2184600D01*
X2381840Y2184600D01*
X2380300Y2184900D01*
X2379020Y2185780D01*
X2363980Y2200800D01*
X2363120Y2202100D01*
X2362800Y2203640D01*
X2362800Y2256640D01*
X2362980Y2257780D01*
X2363460Y2258820D01*
X2367540Y2265100D01*
X2368580Y2266480D01*
X2370080Y2269460D01*
X2370980Y2272680D01*
X2371300Y2276000D01*
X2370980Y2279320D01*
X2370080Y2282540D01*
X2368580Y2285520D01*
X2366580Y2288180D01*
X2364100Y2290440D01*
X2361280Y2292180D01*
X2358160Y2293400D01*
X2354880Y2294000D01*
X2351540Y2294000D01*
X2348260Y2293400D01*
X2345140Y2292180D01*
X2342320Y2290440D01*
X2339840Y2288180D01*
X2337840Y2285520D01*
X2336340Y2282540D01*
X2335440Y2279320D01*
X2335120Y2276000D01*
X2335440Y2272680D01*
X2336340Y2269460D01*
X2337860Y2266460D01*
X2339100Y2264720D01*
X2342960Y2258840D01*
X2343440Y2257800D01*
X2343600Y2256660D01*
X2343600Y2198060D01*
X2344060Y2195160D01*
X2345020Y2193040D01*
X2346580Y2191040D01*
X2359200Y2178420D01*
X2360060Y2177140D01*
X2360380Y2175600D01*
X2360060Y2174060D01*
X2359200Y2172780D01*
X2357900Y2171900D01*
X2356380Y2171600D01*
X2285780Y2171600D01*
X2283940Y2171900D01*
X2281140Y2172920D01*
X2279000Y2174060D01*
X2276540Y2175620D01*
X2273840Y2177580D01*
X2270460Y2180540D01*
X2258600Y2191480D01*
X2254600Y2194600D01*
X2250060Y2197300D01*
X2245180Y2199360D01*
X2240080Y2200760D01*
X2234860Y2201460D01*
X2229560Y2201460D01*
X2224340Y2200760D01*
X2219240Y2199360D01*
X2214380Y2197300D01*
X2209820Y2194620D01*
X2205680Y2191340D01*
X2202000Y2187540D01*
X2198860Y2183280D01*
X2196320Y2178660D01*
X2194440Y2173720D01*
X2193200Y2168580D01*
X2192680Y2163320D01*
X2192860Y2158040D01*
X2193740Y2152840D01*
X2195300Y2147780D01*
X2197520Y2143000D01*
X2200360Y2138540D01*
X2203780Y2134500D01*
X2207700Y2130960D01*
X2212060Y2127960D01*
X2216760Y2125580D01*
X2221760Y2123840D01*
X2226940Y2122800D01*
X2232220Y2122440D01*
X2237480Y2122800D01*
X2242660Y2123840D01*
X2247660Y2125580D01*
X2252360Y2127960D01*
X2256780Y2131000D01*
X2258540Y2132480D01*
X2272080Y2144940D01*
X2274060Y2146600D01*
X2276760Y2148520D01*
X2279280Y2150100D01*
X2281660Y2151300D01*
X2284700Y2152280D01*
X2285780Y2152400D01*
X2455580Y2152400D01*
X2457100Y2152100D01*
X2458400Y2151220D01*
X2521380Y2088260D01*
X2523760Y2086519D01*
X2525920Y2085700D01*
X2528440Y2085400D01*
X2566600Y2085400D01*
X2568140Y2085100D01*
X2569440Y2084220D01*
X2570299Y2082940D01*
X2570600Y2081399D01*
X2570600Y2021060D01*
X2571060Y2018160D01*
X2572020Y2016040D01*
X2573580Y2014040D01*
X2593940Y1993700D01*
X2594800Y1992400D01*
X2595100Y1990860D01*
X2595100Y1894040D01*
X2594800Y1892480D01*
X2593920Y1891180D01*
X2590460Y1887780D01*
X2588920Y1886840D01*
X2586019Y1885860D01*
X2584340Y1885600D01*
X2581540Y1884760D01*
X2578960Y1883380D01*
X2576540Y1881380D01*
X2539240Y1844079D01*
X2537260Y1841660D01*
X2535800Y1838959D01*
X2534700Y1837660D01*
X2533140Y1836940D01*
X2531420Y1836940D01*
X2529860Y1837660D01*
X2528760Y1838959D01*
X2527300Y1841660D01*
X2525320Y1844079D01*
X2488020Y1881380D01*
X2485600Y1883380D01*
X2483020Y1884760D01*
X2480220Y1885600D01*
X2478540Y1885860D01*
X2475680Y1886819D01*
X2474260Y1887660D01*
X2473240Y1888580D01*
X2293080Y2068740D01*
X2290700Y2070480D01*
X2288560Y2071279D01*
X2284820Y2071699D01*
X2283940Y2071900D01*
X2281140Y2072920D01*
X2279000Y2074060D01*
X2276540Y2075620D01*
X2273840Y2077580D01*
X2270460Y2080540D01*
X2258600Y2091480D01*
X2254600Y2094600D01*
X2250060Y2097300D01*
X2245180Y2099360D01*
X2240080Y2100760D01*
X2234860Y2101460D01*
X2229560Y2101460D01*
X2224340Y2100760D01*
X2219240Y2099360D01*
X2214380Y2097300D01*
X2209820Y2094620D01*
X2205680Y2091339D01*
X2202000Y2087540D01*
X2198860Y2083280D01*
X2196320Y2078660D01*
X2194440Y2073720D01*
X2193200Y2068580D01*
X2192680Y2063320D01*
X2192860Y2058040D01*
X2193740Y2052840D01*
X2195300Y2047780D01*
X2197520Y2043000D01*
X2200360Y2038540D01*
X2203780Y2034500D01*
X2207700Y2030960D01*
X2212060Y2027960D01*
X2216760Y2025580D01*
X2221760Y2023839D01*
X2226940Y2022800D01*
X2232220Y2022440D01*
X2237480Y2022800D01*
X2242660Y2023839D01*
X2247660Y2025580D01*
X2252360Y2027960D01*
X2256780Y2031000D01*
X2258540Y2032480D01*
X2272080Y2044940D01*
X2274060Y2046600D01*
X2276760Y2048520D01*
X2279280Y2050100D01*
X2280140Y2050560D01*
X2281760Y2051000D01*
X2283420Y2050760D01*
X2284840Y2049840D01*
X2459700Y1874980D01*
X2460540Y1874060D01*
X2461420Y1872600D01*
X2462380Y1869700D01*
X2462680Y1867660D01*
X2462460Y1865940D01*
X2461540Y1864440D01*
X2460040Y1863520D01*
X2458320Y1863300D01*
X2456260Y1863600D01*
X2453400Y1864540D01*
X2451980Y1865380D01*
X2450980Y1866300D01*
X2348540Y1968740D01*
X2346160Y1970480D01*
X2344000Y1971300D01*
X2341460Y1971600D01*
X2285780Y1971600D01*
X2283940Y1971900D01*
X2281140Y1972920D01*
X2279000Y1974060D01*
X2276540Y1975620D01*
X2273840Y1977580D01*
X2270460Y1980540D01*
X2258600Y1991480D01*
X2254600Y1994600D01*
X2250060Y1997300D01*
X2245180Y1999360D01*
X2240080Y2000760D01*
X2234860Y2001459D01*
X2229560Y2001459D01*
X2224340Y2000760D01*
X2219240Y1999360D01*
X2214380Y1997300D01*
X2209820Y1994620D01*
X2205680Y1991339D01*
X2202000Y1987540D01*
X2198860Y1983280D01*
X2196320Y1978660D01*
X2194440Y1973720D01*
X2193200Y1968580D01*
X2192680Y1963320D01*
X2192860Y1958040D01*
X2193740Y1952840D01*
X2195300Y1947780D01*
X2197520Y1943000D01*
X2200360Y1938540D01*
X2203780Y1934500D01*
X2207700Y1930960D01*
X2212060Y1927960D01*
X2216760Y1925580D01*
X2221760Y1923839D01*
X2226940Y1922800D01*
X2232220Y1922440D01*
X2237480Y1922800D01*
X2242660Y1923839D01*
X2247660Y1925580D01*
X2252360Y1927960D01*
X2256780Y1931000D01*
X2258540Y1932480D01*
X2272080Y1944940D01*
X2274060Y1946600D01*
X2276760Y1948520D01*
X2279280Y1950100D01*
X2281660Y1951300D01*
X2284700Y1952280D01*
X2285780Y1952400D01*
X2336080Y1952400D01*
X2337600Y1952100D01*
X2338900Y1951220D01*
X2438280Y1851800D01*
X2439140Y1850340D01*
X2440120Y1847440D01*
X2440380Y1845760D01*
X2441220Y1842960D01*
X2442600Y1840380D01*
X2444600Y1837960D01*
X2481900Y1800660D01*
X2484320Y1798680D01*
X2486900Y1797300D01*
X2489700Y1796440D01*
X2492620Y1796160D01*
X2495520Y1796440D01*
X2498320Y1797300D01*
X2500920Y1798680D01*
X2503180Y1800540D01*
X2505040Y1802800D01*
X2506420Y1805380D01*
X2507260Y1808180D01*
X2507560Y1811100D01*
X2507220Y1814379D01*
X2507440Y1816120D01*
X2508380Y1817600D01*
X2509860Y1818540D01*
X2511600Y1818760D01*
X2514880Y1818420D01*
X2517800Y1818720D01*
X2520600Y1819560D01*
X2523180Y1820940D01*
X2525440Y1822800D01*
X2527300Y1825060D01*
X2528760Y1827780D01*
X2529860Y1829079D01*
X2531420Y1829800D01*
X2533140Y1829800D01*
X2534700Y1829079D01*
X2535800Y1827780D01*
X2537260Y1825060D01*
X2539120Y1822800D01*
X2541380Y1820940D01*
X2543960Y1819560D01*
X2546760Y1818720D01*
X2549680Y1818420D01*
X2552960Y1818760D01*
X2554700Y1818540D01*
X2556180Y1817600D01*
X2557120Y1816120D01*
X2557340Y1814379D01*
X2556920Y1812340D01*
X2555700Y1809560D01*
X2554920Y1808400D01*
X2534840Y1788280D01*
X2533540Y1787400D01*
X2532020Y1787100D01*
X2513320Y1787100D01*
X2510960Y1786840D01*
X2508820Y1786100D01*
X2506920Y1784900D01*
X2505980Y1784060D01*
X2478980Y1757060D01*
X2477620Y1756180D01*
X2476040Y1755900D01*
X2474460Y1756279D01*
X2473160Y1757240D01*
X2472360Y1758660D01*
X2471620Y1760940D01*
X2470140Y1763480D01*
X2459040Y1776680D01*
X2421200Y1814580D01*
X2418780Y1816560D01*
X2416200Y1817940D01*
X2413400Y1818800D01*
X2410480Y1819079D01*
X2407560Y1818800D01*
X2404760Y1817940D01*
X2402180Y1816560D01*
X2399920Y1814700D01*
X2398060Y1812440D01*
X2396680Y1809860D01*
X2395820Y1807060D01*
X2395540Y1804139D01*
X2395820Y1801220D01*
X2396680Y1798420D01*
X2398060Y1795840D01*
X2400040Y1793420D01*
X2437940Y1755580D01*
X2444180Y1750320D01*
X2445240Y1748940D01*
X2445600Y1747260D01*
X2445600Y1708820D01*
X2445300Y1707300D01*
X2444440Y1706000D01*
X2443140Y1705120D01*
X2441600Y1704820D01*
X2440080Y1705120D01*
X2438780Y1706000D01*
X2429100Y1715680D01*
X2414060Y1732640D01*
X2376660Y1770040D01*
X2374240Y1772020D01*
X2371660Y1773400D01*
X2368860Y1774259D01*
X2365940Y1774540D01*
X2363020Y1774259D01*
X2360220Y1773400D01*
X2357640Y1772020D01*
X2355380Y1770160D01*
X2353520Y1767900D01*
X2352340Y1765680D01*
X2351180Y1764360D01*
X2349580Y1763640D01*
X2347840Y1763700D01*
X2346260Y1764480D01*
X2345200Y1765860D01*
X2344800Y1767580D01*
X2344800Y1850640D01*
X2344980Y1851780D01*
X2345460Y1852820D01*
X2349540Y1859100D01*
X2350580Y1860480D01*
X2352080Y1863460D01*
X2352980Y1866680D01*
X2353300Y1870000D01*
X2352980Y1873320D01*
X2352080Y1876540D01*
X2350580Y1879520D01*
X2348580Y1882180D01*
X2346100Y1884440D01*
X2343280Y1886180D01*
X2340160Y1887400D01*
X2336880Y1888000D01*
X2333540Y1888000D01*
X2330260Y1887400D01*
X2326800Y1886060D01*
X2325280Y1885780D01*
X2323780Y1886120D01*
X2322500Y1886980D01*
X2321660Y1888280D01*
X2321360Y1889800D01*
X2321660Y1891320D01*
X2322540Y1893100D01*
X2323580Y1894480D01*
X2325080Y1897460D01*
X2325980Y1900680D01*
X2326300Y1904000D01*
X2325980Y1907320D01*
X2325080Y1910540D01*
X2323580Y1913520D01*
X2321580Y1916180D01*
X2319100Y1918440D01*
X2316280Y1920180D01*
X2313160Y1921399D01*
X2309880Y1922000D01*
X2306540Y1922000D01*
X2303260Y1921399D01*
X2300140Y1920180D01*
X2297320Y1918440D01*
X2294840Y1916180D01*
X2292840Y1913520D01*
X2291340Y1910540D01*
X2290440Y1907320D01*
X2290120Y1904000D01*
X2290440Y1900680D01*
X2291340Y1897460D01*
X2292860Y1894460D01*
X2294100Y1892720D01*
X2297960Y1886840D01*
X2298440Y1885800D01*
X2298600Y1884660D01*
X2298600Y1737220D01*
X2298300Y1735680D01*
X2297440Y1734379D01*
X2296140Y1733520D01*
X2294600Y1733220D01*
X2293080Y1733520D01*
X2291780Y1734379D01*
X2290980Y1735180D01*
X2290120Y1736480D01*
X2289800Y1738020D01*
X2289800Y1813940D01*
X2289340Y1816840D01*
X2288400Y1818959D01*
X2286820Y1820960D01*
X2276880Y1830900D01*
X2275780Y1832420D01*
X2274540Y1835140D01*
X2273820Y1837440D01*
X2273180Y1840280D01*
X2272660Y1843560D01*
X2272360Y1848040D01*
X2271720Y1864120D01*
X2271220Y1868580D01*
X2269980Y1873720D01*
X2268100Y1878660D01*
X2265560Y1883280D01*
X2262420Y1887540D01*
X2258740Y1891339D01*
X2254600Y1894620D01*
X2250060Y1897300D01*
X2245180Y1899360D01*
X2240080Y1900760D01*
X2234860Y1901459D01*
X2229560Y1901459D01*
X2224340Y1900760D01*
X2219240Y1899360D01*
X2214380Y1897300D01*
X2209820Y1894620D01*
X2205680Y1891339D01*
X2202000Y1887540D01*
X2198860Y1883280D01*
X2196320Y1878660D01*
X2194440Y1873720D01*
X2193200Y1868580D01*
X2192680Y1863320D01*
X2192860Y1858040D01*
X2193740Y1852840D01*
X2195300Y1847780D01*
X2197520Y1843000D01*
X2200360Y1838540D01*
X2203780Y1834500D01*
X2207700Y1830960D01*
X2212060Y1827960D01*
X2216760Y1825580D01*
X2221760Y1823839D01*
X2226940Y1822800D01*
X2230120Y1822500D01*
X2248300Y1821759D01*
X2250900Y1821519D01*
X2254180Y1820980D01*
X2257060Y1820300D01*
X2259440Y1819540D01*
X2261620Y1818520D01*
X2263640Y1817000D01*
X2269440Y1811200D01*
X2270300Y1809900D01*
X2270600Y1808360D01*
X2270600Y1788600D01*
X2270260Y1786980D01*
X2269280Y1785620D01*
X2267860Y1784800D01*
X2266200Y1784620D01*
X2264620Y1785120D01*
X2263380Y1786220D01*
X2262420Y1787540D01*
X2258740Y1791339D01*
X2254600Y1794620D01*
X2250060Y1797300D01*
X2245180Y1799360D01*
X2240080Y1800760D01*
X2234860Y1801459D01*
X2229560Y1801459D01*
X2224340Y1800760D01*
X2219240Y1799360D01*
X2214380Y1797300D01*
X2209820Y1794620D01*
X2205680Y1791339D01*
X2202000Y1787540D01*
X2198860Y1783280D01*
X2196320Y1778660D01*
X2194440Y1773720D01*
X2193200Y1768580D01*
X2192680Y1763320D01*
X2192860Y1758040D01*
X2193740Y1752840D01*
X2195300Y1747780D01*
X2197520Y1743000D01*
X2200360Y1738540D01*
X2203780Y1734500D01*
X2207700Y1730960D01*
X2212060Y1727960D01*
X2216760Y1725580D01*
X2221760Y1723839D01*
X2226940Y1722800D01*
X2230120Y1722500D01*
X2248300Y1721759D01*
X2250900Y1721519D01*
X2254180Y1720980D01*
X2257060Y1720300D01*
X2259440Y1719540D01*
X2261620Y1718520D01*
X2263640Y1717000D01*
X2268440Y1712200D01*
X2269300Y1710900D01*
X2269600Y1709360D01*
X2269600Y1689960D01*
X2269300Y1688400D01*
X2268420Y1687100D01*
X2267100Y1686240D01*
X2265540Y1685960D01*
X2264000Y1686279D01*
X2262720Y1687180D01*
X2258740Y1691339D01*
X2254600Y1694620D01*
X2250060Y1697300D01*
X2245180Y1699360D01*
X2240080Y1700760D01*
X2234860Y1701459D01*
X2229560Y1701459D01*
X2224340Y1700760D01*
X2219240Y1699360D01*
X2214380Y1697300D01*
X2209820Y1694620D01*
X2205680Y1691339D01*
X2202000Y1687540D01*
X2198860Y1683280D01*
X2196320Y1678660D01*
X2194440Y1673720D01*
X2193200Y1668580D01*
X2192680Y1663320D01*
X2192860Y1658040D01*
X2193740Y1652840D01*
X2195300Y1647780D01*
X2197520Y1643000D01*
X2200360Y1638540D01*
X2203780Y1634500D01*
X2207700Y1630960D01*
X2212060Y1627960D01*
X2216760Y1625580D01*
X2221760Y1623839D01*
X2226940Y1622800D01*
X2230120Y1622500D01*
X2248300Y1621759D01*
X2250900Y1621519D01*
X2254180Y1620980D01*
X2257060Y1620300D01*
X2259440Y1619540D01*
X2261620Y1618520D01*
X2263640Y1617000D01*
X2264400Y1616240D01*
X2265260Y1614940D01*
X2265580Y1613400D01*
X2265580Y1594160D01*
X2265300Y1592700D01*
X2264500Y1591440D01*
X2263300Y1590560D01*
X2261880Y1590180D01*
X2260400Y1590340D01*
X2259080Y1591040D01*
X2254580Y1594620D01*
X2250060Y1597300D01*
X2245180Y1599360D01*
X2240080Y1600760D01*
X2234860Y1601459D01*
X2229560Y1601459D01*
X2224340Y1600760D01*
X2219240Y1599360D01*
X2214380Y1597300D01*
X2209820Y1594620D01*
X2205680Y1591339D01*
X2202000Y1587540D01*
X2198860Y1583280D01*
X2196320Y1578660D01*
X2194440Y1573720D01*
X2193200Y1568580D01*
X2192680Y1563320D01*
X2192860Y1558040D01*
X2193740Y1552840D01*
X2195300Y1547780D01*
X2197520Y1543000D01*
X2200360Y1538540D01*
X2203780Y1534500D01*
X2207700Y1530960D01*
X2212060Y1527960D01*
X2216760Y1525580D01*
X2221760Y1523839D01*
X2226940Y1522800D01*
X2230120Y1522500D01*
X2248300Y1521759D01*
X2250900Y1521519D01*
X2254180Y1520980D01*
X2257060Y1520300D01*
X2259440Y1519540D01*
X2261620Y1518520D01*
X2263640Y1517000D01*
X2293380Y1487260D01*
X2295760Y1485520D01*
X2297920Y1484700D01*
X2300440Y1484400D01*
X2343880Y1484400D01*
X2346780Y1484860D01*
X2348880Y1485800D01*
X2350900Y1487380D01*
X2385100Y1521519D01*
X2386560Y1522400D01*
X2389460Y1523360D01*
X2391500Y1523660D01*
X2393240Y1523440D01*
X2394720Y1522520D01*
X2395660Y1521040D01*
X2395880Y1519300D01*
X2395580Y1517260D01*
X2394620Y1514400D01*
X2393780Y1512960D01*
X2392860Y1511960D01*
X2353680Y1472780D01*
X2352380Y1471900D01*
X2350840Y1471600D01*
X2285780Y1471600D01*
X2283940Y1471900D01*
X2281140Y1472920D01*
X2279000Y1474060D01*
X2276540Y1475620D01*
X2273840Y1477580D01*
X2270460Y1480540D01*
X2258600Y1491480D01*
X2254600Y1494600D01*
X2250060Y1497300D01*
X2245180Y1499360D01*
X2240080Y1500760D01*
X2234860Y1501459D01*
X2229560Y1501459D01*
X2224340Y1500760D01*
X2219240Y1499360D01*
X2214380Y1497300D01*
X2209820Y1494620D01*
X2205680Y1491339D01*
X2202000Y1487540D01*
X2198860Y1483280D01*
X2196320Y1478660D01*
X2194440Y1473720D01*
X2193200Y1468580D01*
X2192680Y1463320D01*
X2192860Y1458040D01*
X2193740Y1452840D01*
X2195300Y1447780D01*
X2197520Y1443000D01*
X2200360Y1438540D01*
X2203780Y1434500D01*
X2207700Y1430960D01*
X2212060Y1427960D01*
X2216760Y1425580D01*
X2221760Y1423839D01*
X2226940Y1422800D01*
X2232220Y1422440D01*
X2237480Y1422800D01*
X2242660Y1423839D01*
X2247660Y1425580D01*
X2252360Y1427960D01*
X2256780Y1431000D01*
X2258540Y1432480D01*
X2272080Y1444940D01*
X2274060Y1446600D01*
X2276760Y1448520D01*
X2279280Y1450100D01*
X2281660Y1451300D01*
X2284700Y1452280D01*
X2285780Y1452400D01*
X2299380Y1452400D01*
X2300900Y1452100D01*
X2302200Y1451220D01*
X2303060Y1449940D01*
X2303380Y1448400D01*
X2303060Y1446860D01*
X2302200Y1445580D01*
X2263300Y1406680D01*
X2261780Y1405580D01*
X2259080Y1404319D01*
X2256760Y1403620D01*
X2253920Y1402980D01*
X2250640Y1402460D01*
X2246080Y1402160D01*
X2230040Y1401500D01*
X2224320Y1400760D01*
X2219240Y1399360D01*
X2214380Y1397300D01*
X2209820Y1394620D01*
X2205680Y1391339D01*
X2202000Y1387540D01*
X2198860Y1383280D01*
X2196320Y1378660D01*
X2194440Y1373720D01*
X2193200Y1368580D01*
X2192680Y1363320D01*
X2192860Y1358040D01*
X2193740Y1352840D01*
X2195300Y1347780D01*
X2197520Y1343000D01*
X2200360Y1338540D01*
X2203780Y1334500D01*
X2207700Y1330960D01*
X2212060Y1327960D01*
X2216760Y1325580D01*
X2221760Y1323839D01*
X2226940Y1322800D01*
X2232220Y1322440D01*
X2237480Y1322800D01*
X2242660Y1323839D01*
X2247660Y1325580D01*
X2252360Y1327960D01*
X2256720Y1330960D01*
X2260640Y1334500D01*
X2264060Y1338540D01*
X2266740Y1342740D01*
X2267940Y1343940D01*
X2269520Y1344540D01*
X2271220Y1344420D01*
X2272720Y1343600D01*
X2273740Y1342240D01*
X2274100Y1340580D01*
X2274100Y1319840D01*
X2273800Y1318300D01*
X2272940Y1317020D01*
X2262840Y1306920D01*
X2261320Y1305800D01*
X2258500Y1304440D01*
X2256200Y1303700D01*
X2253420Y1303040D01*
X2250500Y1302580D01*
X2229940Y1301500D01*
X2224320Y1300760D01*
X2219240Y1299360D01*
X2214380Y1297300D01*
X2209820Y1294620D01*
X2205680Y1291339D01*
X2202000Y1287540D01*
X2198860Y1283280D01*
X2196320Y1278660D01*
X2194440Y1273720D01*
X2193200Y1268580D01*
X2192680Y1263320D01*
X2192860Y1258040D01*
X2193740Y1252840D01*
X2195300Y1247780D01*
X2197520Y1243000D01*
X2200360Y1238540D01*
X2203780Y1234500D01*
X2207700Y1230960D01*
X2212060Y1227960D01*
X2216760Y1225580D01*
X2221760Y1223840D01*
X2226940Y1222800D01*
X2232220Y1222440D01*
X2237480Y1222800D01*
X2242660Y1223840D01*
X2247660Y1225580D01*
X2252360Y1227960D01*
X2256720Y1230960D01*
X2260640Y1234500D01*
X2264060Y1238540D01*
X2266900Y1243000D01*
X2269120Y1247780D01*
X2270680Y1252840D01*
X2271580Y1258140D01*
X2272780Y1280320D01*
X2273300Y1283460D01*
X2274000Y1286320D01*
X2274880Y1288860D01*
X2276020Y1291120D01*
X2277360Y1292880D01*
X2284780Y1300280D01*
X2286080Y1301160D01*
X2287600Y1301459D01*
X2289140Y1301160D01*
X2290440Y1300280D01*
X2291300Y1299000D01*
X2291600Y1297460D01*
X2291600Y1236640D01*
X2291300Y1235100D01*
X2290440Y1233800D01*
X2263300Y1206680D01*
X2261780Y1205580D01*
X2259080Y1204320D01*
X2256760Y1203620D01*
X2253920Y1202980D01*
X2250640Y1202460D01*
X2246080Y1202160D01*
X2230040Y1201500D01*
X2224320Y1200760D01*
X2219240Y1199360D01*
X2214380Y1197300D01*
X2209820Y1194620D01*
X2205680Y1191340D01*
X2202000Y1187540D01*
X2198860Y1183280D01*
X2196320Y1178660D01*
X2194440Y1173720D01*
X2193200Y1168580D01*
X2192680Y1163320D01*
X2192860Y1158040D01*
X2193740Y1152840D01*
X2195300Y1147780D01*
X2197520Y1143000D01*
X2200360Y1138540D01*
X2203780Y1134500D01*
X2207700Y1130960D01*
X2212060Y1127960D01*
X2216760Y1125580D01*
X2221760Y1123840D01*
X2226940Y1122800D01*
X2232220Y1122440D01*
X2237480Y1122800D01*
X2242660Y1123840D01*
X2247660Y1125580D01*
X2252360Y1127960D01*
X2256720Y1130960D01*
X2260640Y1134500D01*
X2264060Y1138540D01*
X2266900Y1143000D01*
X2269120Y1147780D01*
X2270680Y1152840D01*
X2271580Y1158120D01*
X2272460Y1178140D01*
X2272700Y1180700D01*
X2273240Y1183960D01*
X2273900Y1186860D01*
X2274740Y1189420D01*
X2276180Y1192240D01*
X2276880Y1193100D01*
X2307960Y1224160D01*
X2309680Y1226560D01*
X2310500Y1228700D01*
X2310800Y1231240D01*
X2310800Y1378680D01*
X2311120Y1380200D01*
X2311980Y1381500D01*
X2322200Y1391720D01*
X2323500Y1392600D01*
X2325020Y1392900D01*
X2405100Y1392900D01*
X2408000Y1393360D01*
X2410100Y1394300D01*
X2412120Y1395880D01*
X2441460Y1425220D01*
X2442760Y1426100D01*
X2444280Y1426399D01*
X2464040Y1426399D01*
X2466960Y1426860D01*
X2469060Y1427800D01*
X2471080Y1429400D01*
X2474100Y1432360D01*
X2475640Y1433300D01*
X2478540Y1434280D01*
X2480220Y1434540D01*
X2483020Y1435380D01*
X2485600Y1436759D01*
X2488020Y1438760D01*
X2525320Y1476060D01*
X2527300Y1478480D01*
X2528760Y1481180D01*
X2529860Y1482480D01*
X2531420Y1483200D01*
X2533140Y1483200D01*
X2534700Y1482480D01*
X2535800Y1481180D01*
X2537260Y1478480D01*
X2539240Y1476060D01*
X2570920Y1444379D01*
X2571780Y1443080D01*
X2572100Y1441579D01*
X2571800Y1440060D01*
X2570960Y1438760D01*
X2569680Y1437880D01*
X2568180Y1437540D01*
X2566640Y1437820D01*
X2565160Y1438400D01*
X2561880Y1439000D01*
X2558540Y1439000D01*
X2555260Y1438400D01*
X2552140Y1437180D01*
X2549320Y1435440D01*
X2546840Y1433180D01*
X2544840Y1430520D01*
X2543340Y1427540D01*
X2542440Y1424319D01*
X2542120Y1421000D01*
X2542440Y1417680D01*
X2543340Y1414460D01*
X2544840Y1411480D01*
X2546840Y1408820D01*
X2549300Y1406579D01*
X2552680Y1404520D01*
X2555780Y1402480D01*
X2556740Y1401579D01*
X2557360Y1400420D01*
X2557580Y1399120D01*
X2557580Y1396279D01*
X2557240Y1394660D01*
X2556280Y1393320D01*
X2554840Y1392500D01*
X2553200Y1392300D01*
X2551620Y1392800D01*
X2550380Y1393899D01*
X2549940Y1394480D01*
X2546980Y1397440D01*
X2543640Y1399940D01*
X2539980Y1401940D01*
X2536060Y1403400D01*
X2531980Y1404300D01*
X2525680Y1404780D01*
X2524260Y1405680D01*
X2523320Y1407060D01*
X2523040Y1408700D01*
X2523460Y1410320D01*
X2524980Y1413380D01*
X2525900Y1416579D01*
X2526200Y1419900D01*
X2525900Y1423240D01*
X2524980Y1426440D01*
X2523500Y1429420D01*
X2521480Y1432100D01*
X2519020Y1434340D01*
X2516180Y1436100D01*
X2513060Y1437300D01*
X2509780Y1437920D01*
X2506460Y1437920D01*
X2503180Y1437300D01*
X2500060Y1436100D01*
X2497220Y1434340D01*
X2494760Y1432100D01*
X2492740Y1429420D01*
X2491260Y1426440D01*
X2490340Y1423240D01*
X2490040Y1419900D01*
X2490340Y1416579D01*
X2491260Y1413380D01*
X2492760Y1410360D01*
X2494020Y1408640D01*
X2497860Y1402760D01*
X2498360Y1401699D01*
X2498520Y1400560D01*
X2498520Y1391660D01*
X2498080Y1389280D01*
X2497560Y1388040D01*
X2496680Y1387040D01*
X2495500Y1386399D01*
X2494180Y1386180D01*
X2482800Y1386180D01*
X2480960Y1385940D01*
X2480120Y1385580D01*
X2478600Y1385280D01*
X2477060Y1385580D01*
X2476220Y1385940D01*
X2474400Y1386180D01*
X2463100Y1386180D01*
X2461280Y1385940D01*
X2460240Y1385520D01*
X2458720Y1385200D01*
X2457180Y1385520D01*
X2456540Y1385780D01*
X2454720Y1386020D01*
X2431620Y1386020D01*
X2429780Y1385780D01*
X2428320Y1385180D01*
X2427060Y1384199D01*
X2426100Y1382960D01*
X2425500Y1381480D01*
X2425260Y1379660D01*
X2425260Y1334900D01*
X2425500Y1333080D01*
X2426040Y1331040D01*
X2425780Y1329560D01*
X2425020Y1328280D01*
X2423820Y1327380D01*
X2422380Y1326980D01*
X2420240Y1326800D01*
X2416740Y1325860D01*
X2413440Y1324319D01*
X2410460Y1322240D01*
X2407900Y1319660D01*
X2405820Y1316680D01*
X2404280Y1313400D01*
X2403340Y1309880D01*
X2403020Y1306260D01*
X2403340Y1302640D01*
X2404280Y1299120D01*
X2405820Y1295840D01*
X2407900Y1292860D01*
X2410460Y1290280D01*
X2413440Y1288200D01*
X2416740Y1286660D01*
X2420240Y1285720D01*
X2423880Y1285420D01*
X2427500Y1285720D01*
X2431000Y1286660D01*
X2434300Y1288200D01*
X2437280Y1290280D01*
X2439840Y1292860D01*
X2441920Y1295840D01*
X2442400Y1296860D01*
X2443260Y1298060D01*
X2444520Y1298860D01*
X2445980Y1299160D01*
X2447440Y1298899D01*
X2448700Y1298120D01*
X2451840Y1293820D01*
X2454320Y1291560D01*
X2457140Y1289820D01*
X2460260Y1288600D01*
X2463540Y1288000D01*
X2466880Y1288000D01*
X2470160Y1288600D01*
X2473280Y1289820D01*
X2476100Y1291560D01*
X2478580Y1293820D01*
X2480580Y1296480D01*
X2482080Y1299460D01*
X2482980Y1302680D01*
X2483300Y1306000D01*
X2482980Y1309319D01*
X2482080Y1312540D01*
X2480580Y1315520D01*
X2478580Y1318180D01*
X2476100Y1320440D01*
X2474320Y1321540D01*
X2473140Y1322660D01*
X2472500Y1324160D01*
X2472520Y1325780D01*
X2473180Y1327260D01*
X2474380Y1328360D01*
X2477060Y1329300D01*
X2478600Y1329600D01*
X2480120Y1329300D01*
X2480960Y1328940D01*
X2482800Y1328700D01*
X2494080Y1328700D01*
X2495920Y1328940D01*
X2496680Y1329259D01*
X2498200Y1329560D01*
X2499740Y1329259D01*
X2500640Y1328880D01*
X2502480Y1328640D01*
X2513760Y1328640D01*
X2515600Y1328880D01*
X2516500Y1329259D01*
X2518040Y1329560D01*
X2519900Y1329120D01*
X2520900Y1328520D01*
X2521680Y1327660D01*
X2523200Y1325400D01*
X2525380Y1322520D01*
X2528320Y1319560D01*
X2531660Y1317060D01*
X2535340Y1315060D01*
X2539240Y1313600D01*
X2543320Y1312700D01*
X2547500Y1312420D01*
X2551660Y1312700D01*
X2555740Y1313600D01*
X2559660Y1315060D01*
X2563320Y1317060D01*
X2566660Y1319560D01*
X2569640Y1322540D01*
X2571660Y1325160D01*
X2573240Y1327580D01*
X2574040Y1328480D01*
X2575480Y1329280D01*
X2577020Y1329600D01*
X2578540Y1329280D01*
X2579380Y1328940D01*
X2581200Y1328700D01*
X2592500Y1328700D01*
X2594320Y1328940D01*
X2595160Y1329300D01*
X2596700Y1329600D01*
X2598240Y1329300D01*
X2599040Y1328959D01*
X2600480Y1327960D01*
X2601340Y1326440D01*
X2601480Y1324700D01*
X2600860Y1323080D01*
X2599620Y1321860D01*
X2597320Y1320440D01*
X2594840Y1318180D01*
X2592840Y1315520D01*
X2591340Y1312540D01*
X2590440Y1309319D01*
X2590120Y1306000D01*
X2590440Y1302680D01*
X2591340Y1299460D01*
X2592840Y1296480D01*
X2594840Y1293820D01*
X2597320Y1291560D01*
X2600140Y1289820D01*
X2603260Y1288600D01*
X2606540Y1288000D01*
X2609880Y1288000D01*
X2613159Y1288600D01*
X2616280Y1289820D01*
X2619100Y1291560D01*
X2621580Y1293820D01*
X2623580Y1296480D01*
X2624780Y1298899D01*
X2625680Y1300080D01*
X2626960Y1300860D01*
X2628420Y1301120D01*
X2629880Y1300820D01*
X2631120Y1300000D01*
X2632000Y1298800D01*
X2633380Y1295840D01*
X2635460Y1292860D01*
X2638020Y1290280D01*
X2641000Y1288200D01*
X2644300Y1286660D01*
X2647799Y1285720D01*
X2651440Y1285420D01*
X2655059Y1285720D01*
X2658560Y1286660D01*
X2661860Y1288200D01*
X2664840Y1290280D01*
X2667400Y1292860D01*
X2669480Y1295840D01*
X2671019Y1299120D01*
X2671960Y1302640D01*
X2672280Y1306260D01*
X2671960Y1309880D01*
X2671019Y1313400D01*
X2669480Y1316680D01*
X2667400Y1319660D01*
X2664840Y1322240D01*
X2661860Y1324319D01*
X2658560Y1325860D01*
X2655059Y1326800D01*
X2652860Y1326980D01*
X2651420Y1327380D01*
X2650240Y1328300D01*
X2649460Y1329560D01*
X2649200Y1331040D01*
X2649520Y1332500D01*
X2649820Y1333240D01*
X2650059Y1335060D01*
X2650059Y1379820D01*
X2649820Y1381639D01*
X2649200Y1383120D01*
X2648240Y1384360D01*
X2646980Y1385340D01*
X2645520Y1385940D01*
X2643700Y1386180D01*
X2620580Y1386180D01*
X2618759Y1385940D01*
X2617919Y1385600D01*
X2616400Y1385280D01*
X2614860Y1385600D01*
X2614020Y1385940D01*
X2612200Y1386180D01*
X2600899Y1386180D01*
X2599080Y1385940D01*
X2598240Y1385580D01*
X2596700Y1385280D01*
X2595160Y1385580D01*
X2594320Y1385940D01*
X2592500Y1386180D01*
X2581139Y1386180D01*
X2579820Y1386399D01*
X2578639Y1387040D01*
X2577740Y1388040D01*
X2577240Y1389280D01*
X2576780Y1391720D01*
X2576780Y1404060D01*
X2576880Y1408500D01*
X2577780Y1416720D01*
X2577980Y1417680D01*
X2578300Y1421000D01*
X2577980Y1424319D01*
X2577080Y1427540D01*
X2575700Y1430280D01*
X2575299Y1431900D01*
X2575580Y1433540D01*
X2576500Y1434920D01*
X2577919Y1435820D01*
X2579560Y1436040D01*
X2584340Y1434540D01*
X2586019Y1434180D01*
X2588800Y1432940D01*
X2589980Y1432140D01*
X2593159Y1429100D01*
X2595080Y1427900D01*
X2597200Y1427160D01*
X2599560Y1426900D01*
X2688580Y1426900D01*
X2690100Y1426600D01*
X2691400Y1425720D01*
X2742520Y1374600D01*
X2743399Y1373300D01*
X2743700Y1371780D01*
X2743700Y1365780D01*
X2743320Y1364079D01*
X2742280Y1362720D01*
X2740740Y1361920D01*
X2739000Y1361840D01*
X2737400Y1362500D01*
X2736240Y1363779D01*
X2735920Y1364319D01*
X2733140Y1367800D01*
X2729900Y1370820D01*
X2726220Y1373320D01*
X2722220Y1375240D01*
X2717980Y1376560D01*
X2713600Y1377220D01*
X2709140Y1377220D01*
X2704760Y1376560D01*
X2700520Y1375240D01*
X2696520Y1373320D01*
X2692840Y1370820D01*
X2689600Y1367800D01*
X2686820Y1364319D01*
X2684600Y1360480D01*
X2682980Y1356360D01*
X2682000Y1352020D01*
X2681640Y1347440D01*
X2681640Y1304440D01*
X2682000Y1299860D01*
X2682980Y1295520D01*
X2684600Y1291399D01*
X2686820Y1287540D01*
X2689600Y1284079D01*
X2692840Y1281060D01*
X2696520Y1278560D01*
X2700520Y1276620D01*
X2704760Y1275320D01*
X2709140Y1274660D01*
X2713600Y1274660D01*
X2717980Y1275320D01*
X2722220Y1276620D01*
X2726220Y1278560D01*
X2729900Y1281060D01*
X2733140Y1284079D01*
X2735920Y1287540D01*
X2738140Y1291399D01*
X2739760Y1295520D01*
X2740740Y1299860D01*
X2741100Y1304720D01*
X2741500Y1306180D01*
X2742400Y1307380D01*
X2743700Y1308180D01*
X2745179Y1308420D01*
X2746660Y1308100D01*
X2747919Y1307260D01*
X2764940Y1290240D01*
X2765800Y1288940D01*
X2766100Y1287420D01*
X2766100Y1218120D01*
X2766360Y1215760D01*
X2767120Y1213620D01*
X2768320Y1211700D01*
X2769140Y1210780D01*
X2787280Y1192640D01*
X2788399Y1191120D01*
X2789760Y1188300D01*
X2790500Y1186000D01*
X2791160Y1183200D01*
X2791640Y1180280D01*
X2792840Y1158140D01*
X2793740Y1152840D01*
X2795299Y1147780D01*
X2797520Y1143000D01*
X2800360Y1138540D01*
X2803780Y1134500D01*
X2807700Y1130960D01*
X2812060Y1127960D01*
X2816760Y1125580D01*
X2821760Y1123840D01*
X2826940Y1122800D01*
X2832220Y1122440D01*
X2837480Y1122800D01*
X2842660Y1123840D01*
X2847660Y1125580D01*
X2852360Y1127960D01*
X2856720Y1130960D01*
X2860640Y1134500D01*
X2864060Y1138540D01*
X2866900Y1143000D01*
X2869120Y1147780D01*
X2870680Y1152840D01*
X2871560Y1158040D01*
X2871740Y1163320D01*
X2871220Y1168580D01*
X2869980Y1173720D01*
X2868100Y1178660D01*
X2865560Y1183280D01*
X2862420Y1187540D01*
X2858740Y1191340D01*
X2854600Y1194620D01*
X2850059Y1197300D01*
X2845179Y1199360D01*
X2840100Y1200760D01*
X2834460Y1201500D01*
X2813920Y1202580D01*
X2810740Y1203100D01*
X2807900Y1203800D01*
X2805360Y1204680D01*
X2803080Y1205800D01*
X2801340Y1207160D01*
X2787480Y1221020D01*
X2786620Y1222300D01*
X2786300Y1223840D01*
X2786300Y1250380D01*
X2786640Y1251960D01*
X2787559Y1253280D01*
X2788920Y1254120D01*
X2790520Y1254360D01*
X2792080Y1253960D01*
X2793340Y1252980D01*
X2794120Y1251560D01*
X2795299Y1247780D01*
X2797520Y1243000D01*
X2800360Y1238540D01*
X2803780Y1234500D01*
X2807700Y1230960D01*
X2812060Y1227960D01*
X2816760Y1225580D01*
X2821760Y1223840D01*
X2826940Y1222800D01*
X2832220Y1222440D01*
X2837480Y1222800D01*
X2842660Y1223840D01*
X2847660Y1225580D01*
X2852360Y1227960D01*
X2856720Y1230960D01*
X2860640Y1234500D01*
X2864060Y1238540D01*
X2866900Y1243000D01*
X2869120Y1247780D01*
X2870680Y1252840D01*
X2871560Y1258040D01*
X2871740Y1263320D01*
X2871220Y1268580D01*
X2869980Y1273720D01*
X2868100Y1278660D01*
X2865560Y1283280D01*
X2862420Y1287540D01*
X2858740Y1291339D01*
X2854600Y1294620D01*
X2850059Y1297300D01*
X2845179Y1299360D01*
X2840080Y1300760D01*
X2811120Y1304860D01*
X2809800Y1305280D01*
X2807559Y1306519D01*
X2805860Y1307740D01*
X2804360Y1309079D01*
X2786080Y1327360D01*
X2785200Y1328660D01*
X2784900Y1330200D01*
X2784900Y1354700D01*
X2785220Y1356279D01*
X2786160Y1357600D01*
X2787520Y1358460D01*
X2789120Y1358680D01*
X2790680Y1358280D01*
X2791960Y1357280D01*
X2792720Y1355860D01*
X2794220Y1350900D01*
X2794620Y1349960D01*
X2795299Y1347780D01*
X2797520Y1343000D01*
X2800360Y1338540D01*
X2803780Y1334500D01*
X2807700Y1330960D01*
X2812060Y1327960D01*
X2816760Y1325580D01*
X2821760Y1323839D01*
X2826940Y1322800D01*
X2832220Y1322440D01*
X2837480Y1322800D01*
X2842660Y1323839D01*
X2847660Y1325580D01*
X2852360Y1327960D01*
X2856720Y1330960D01*
X2860640Y1334500D01*
X2864060Y1338540D01*
X2866900Y1343000D01*
X2869120Y1347780D01*
X2870680Y1352840D01*
X2871560Y1358040D01*
X2871740Y1363320D01*
X2871220Y1368580D01*
X2869980Y1373720D01*
X2868100Y1378660D01*
X2865560Y1383280D01*
X2862420Y1387540D01*
X2858740Y1391339D01*
X2854600Y1394620D01*
X2850059Y1397300D01*
X2845179Y1399360D01*
X2840080Y1400760D01*
X2834860Y1401459D01*
X2829560Y1401459D01*
X2825659Y1401020D01*
X2801640Y1396720D01*
X2800120Y1396759D01*
X2798100Y1397220D01*
X2796139Y1398120D01*
X2794120Y1399660D01*
X2707040Y1486740D01*
X2704660Y1488480D01*
X2702500Y1489300D01*
X2699960Y1489600D01*
X2695720Y1489600D01*
X2694180Y1489900D01*
X2692880Y1490780D01*
X2670820Y1512900D01*
X2669960Y1514360D01*
X2668980Y1517240D01*
X2668720Y1518920D01*
X2667880Y1521720D01*
X2666500Y1524300D01*
X2664500Y1526720D01*
X2627200Y1564019D01*
X2624780Y1566020D01*
X2622200Y1567400D01*
X2619400Y1568240D01*
X2616480Y1568540D01*
X2613580Y1568240D01*
X2610779Y1567400D01*
X2608180Y1566020D01*
X2605920Y1564160D01*
X2604060Y1561900D01*
X2602679Y1559300D01*
X2601840Y1556500D01*
X2601540Y1553600D01*
X2601880Y1550300D01*
X2601660Y1548580D01*
X2600720Y1547080D01*
X2599240Y1546160D01*
X2597500Y1545940D01*
X2595460Y1546240D01*
X2592600Y1547180D01*
X2591180Y1548020D01*
X2590179Y1548940D01*
X2515020Y1624100D01*
X2514320Y1625020D01*
X2513920Y1626100D01*
X2512380Y1633540D01*
X2512320Y1634319D01*
X2511400Y1637540D01*
X2509920Y1640520D01*
X2507900Y1643180D01*
X2505440Y1645440D01*
X2502600Y1647180D01*
X2499480Y1648400D01*
X2496200Y1649000D01*
X2492880Y1649000D01*
X2489600Y1648400D01*
X2486480Y1647180D01*
X2482160Y1644520D01*
X2480560Y1644319D01*
X2479020Y1644760D01*
X2477760Y1645780D01*
X2477020Y1647220D01*
X2476080Y1650540D01*
X2474560Y1653560D01*
X2474080Y1654360D01*
X2473820Y1655260D01*
X2472860Y1660540D01*
X2472800Y1661240D01*
X2472800Y1702660D01*
X2473100Y1704160D01*
X2473960Y1705460D01*
X2475220Y1706339D01*
X2476740Y1706660D01*
X2478260Y1706380D01*
X2480260Y1705600D01*
X2483540Y1705000D01*
X2486880Y1705000D01*
X2490160Y1705600D01*
X2493280Y1706819D01*
X2496100Y1708560D01*
X2498580Y1710820D01*
X2500580Y1713480D01*
X2502080Y1716459D01*
X2502980Y1719680D01*
X2503300Y1723000D01*
X2502980Y1726320D01*
X2502080Y1729540D01*
X2500580Y1732520D01*
X2499440Y1734079D01*
X2495860Y1740080D01*
X2495440Y1741060D01*
X2495300Y1743160D01*
X2495620Y1744700D01*
X2496480Y1745980D01*
X2498800Y1748300D01*
X2500180Y1749199D01*
X2501800Y1749460D01*
X2503400Y1749060D01*
X2504700Y1748020D01*
X2505460Y1746560D01*
X2506340Y1743460D01*
X2507840Y1740480D01*
X2509840Y1737820D01*
X2512320Y1735560D01*
X2515140Y1733820D01*
X2518260Y1732600D01*
X2521540Y1732000D01*
X2524880Y1732000D01*
X2528160Y1732600D01*
X2531280Y1733820D01*
X2534760Y1736040D01*
X2540280Y1739340D01*
X2541260Y1739760D01*
X2542320Y1739900D01*
X2555280Y1739900D01*
X2557640Y1740160D01*
X2559780Y1740900D01*
X2561680Y1742100D01*
X2562620Y1742940D01*
X2590140Y1770460D01*
X2591880Y1772060D01*
X2593020Y1772780D01*
X2595520Y1773839D01*
X2597500Y1774220D01*
X2599240Y1774000D01*
X2600720Y1773060D01*
X2601660Y1771579D01*
X2601880Y1769840D01*
X2601540Y1766560D01*
X2601840Y1763640D01*
X2602679Y1760840D01*
X2604060Y1758260D01*
X2605920Y1756000D01*
X2608180Y1754139D01*
X2610779Y1752760D01*
X2613580Y1751900D01*
X2616480Y1751620D01*
X2619780Y1751940D01*
X2621500Y1751720D01*
X2623000Y1750800D01*
X2623920Y1749300D01*
X2624140Y1747580D01*
X2623820Y1744280D01*
X2624100Y1741380D01*
X2624960Y1738580D01*
X2626340Y1735980D01*
X2628200Y1733720D01*
X2630460Y1731860D01*
X2633039Y1730480D01*
X2635840Y1729640D01*
X2638759Y1729340D01*
X2642040Y1729680D01*
X2643780Y1729460D01*
X2645260Y1728520D01*
X2646200Y1727040D01*
X2646420Y1725300D01*
X2646080Y1722020D01*
X2646380Y1719100D01*
X2647220Y1716300D01*
X2648600Y1713720D01*
X2650460Y1711459D01*
X2652720Y1709600D01*
X2655320Y1708220D01*
X2658120Y1707360D01*
X2661019Y1707080D01*
X2664320Y1707400D01*
X2666060Y1707180D01*
X2667540Y1706260D01*
X2668480Y1704780D01*
X2668700Y1703040D01*
X2668360Y1699740D01*
X2668660Y1696819D01*
X2669500Y1694019D01*
X2670880Y1691440D01*
X2672740Y1689180D01*
X2675000Y1687320D01*
X2677600Y1685940D01*
X2680400Y1685080D01*
X2683300Y1684800D01*
X2686600Y1685120D01*
X2688320Y1684900D01*
X2689820Y1683980D01*
X2690740Y1682480D01*
X2690960Y1680760D01*
X2690640Y1677460D01*
X2690920Y1674560D01*
X2691780Y1671759D01*
X2693159Y1669160D01*
X2695020Y1666900D01*
X2697280Y1665040D01*
X2700000Y1663600D01*
X2701300Y1662480D01*
X2702020Y1660920D01*
X2702020Y1659220D01*
X2701300Y1657660D01*
X2700000Y1656540D01*
X2697280Y1655100D01*
X2695020Y1653240D01*
X2693159Y1650980D01*
X2691780Y1648380D01*
X2690920Y1645580D01*
X2690640Y1642680D01*
X2690960Y1639379D01*
X2690740Y1637660D01*
X2689820Y1636160D01*
X2688320Y1635240D01*
X2686600Y1635020D01*
X2683300Y1635340D01*
X2680400Y1635060D01*
X2677600Y1634199D01*
X2675000Y1632820D01*
X2672740Y1630960D01*
X2670880Y1628700D01*
X2669500Y1626120D01*
X2668660Y1623320D01*
X2668360Y1620400D01*
X2668700Y1617120D01*
X2668480Y1615380D01*
X2667540Y1613899D01*
X2666060Y1612960D01*
X2664320Y1612740D01*
X2662280Y1613040D01*
X2659420Y1614000D01*
X2657980Y1614840D01*
X2656980Y1615760D01*
X2586000Y1686740D01*
X2583620Y1688480D01*
X2581460Y1689300D01*
X2578920Y1689600D01*
X2533560Y1689600D01*
X2532420Y1689760D01*
X2531360Y1690260D01*
X2525680Y1693980D01*
X2525100Y1694440D01*
X2522280Y1696180D01*
X2519160Y1697400D01*
X2515880Y1698000D01*
X2512540Y1698000D01*
X2509260Y1697400D01*
X2506140Y1696180D01*
X2503320Y1694440D01*
X2500840Y1692180D01*
X2498840Y1689520D01*
X2497340Y1686540D01*
X2496440Y1683320D01*
X2496120Y1680000D01*
X2496440Y1676680D01*
X2497340Y1673460D01*
X2498840Y1670480D01*
X2500840Y1667820D01*
X2503320Y1665560D01*
X2506140Y1663820D01*
X2509260Y1662600D01*
X2512540Y1662000D01*
X2515880Y1662000D01*
X2519160Y1662600D01*
X2522280Y1663820D01*
X2525180Y1665620D01*
X2525680Y1666020D01*
X2531360Y1669740D01*
X2532420Y1670240D01*
X2533560Y1670400D01*
X2573540Y1670400D01*
X2575059Y1670100D01*
X2576360Y1669220D01*
X2644280Y1601260D01*
X2645140Y1599780D01*
X2646120Y1596900D01*
X2646380Y1595220D01*
X2647220Y1592420D01*
X2648600Y1589840D01*
X2650600Y1587420D01*
X2687900Y1550120D01*
X2690320Y1548120D01*
X2692900Y1546740D01*
X2695700Y1545900D01*
X2698620Y1545600D01*
X2701520Y1545900D01*
X2704320Y1546740D01*
X2706920Y1548120D01*
X2709180Y1549980D01*
X2711040Y1552240D01*
X2712420Y1554840D01*
X2713260Y1557640D01*
X2713560Y1560540D01*
X2713220Y1563839D01*
X2713440Y1565580D01*
X2714380Y1567060D01*
X2715860Y1567980D01*
X2717600Y1568200D01*
X2719640Y1567900D01*
X2722500Y1566940D01*
X2723940Y1566120D01*
X2724940Y1565200D01*
X2792240Y1497900D01*
X2793519Y1496120D01*
X2794620Y1493580D01*
X2795100Y1491519D01*
X2795320Y1488980D01*
X2792820Y1465580D01*
X2792679Y1463400D01*
X2792860Y1458040D01*
X2793740Y1452840D01*
X2795299Y1447780D01*
X2797520Y1443000D01*
X2800360Y1438540D01*
X2803780Y1434500D01*
X2807700Y1430960D01*
X2812060Y1427960D01*
X2816760Y1425580D01*
X2821760Y1423839D01*
X2826940Y1422800D01*
X2832220Y1422440D01*
X2837480Y1422800D01*
X2842660Y1423839D01*
X2847660Y1425580D01*
X2852360Y1427960D01*
X2856720Y1430960D01*
X2860640Y1434500D01*
X2864060Y1438540D01*
X2866900Y1443000D01*
X2869120Y1447780D01*
X2870680Y1452840D01*
X2871560Y1458040D01*
X2871740Y1463320D01*
X2871220Y1468580D01*
X2869980Y1473720D01*
X2868100Y1478660D01*
X2865560Y1483280D01*
X2862420Y1487540D01*
X2858740Y1491339D01*
X2854600Y1494620D01*
X2850059Y1497300D01*
X2845200Y1499360D01*
X2839740Y1500840D01*
X2828600Y1503180D01*
X2819600Y1505420D01*
X2812780Y1507540D01*
X2810340Y1508480D01*
X2808180Y1509540D01*
X2806480Y1510800D01*
X2737640Y1579700D01*
X2736780Y1581160D01*
X2735800Y1584060D01*
X2735500Y1586100D01*
X2735720Y1587840D01*
X2736660Y1589319D01*
X2738140Y1590260D01*
X2739880Y1590480D01*
X2741920Y1590180D01*
X2744780Y1589220D01*
X2746200Y1588380D01*
X2747200Y1587460D01*
X2779420Y1555260D01*
X2781800Y1553520D01*
X2783200Y1553000D01*
X2784480Y1552200D01*
X2805880Y1532480D01*
X2807640Y1531000D01*
X2812060Y1527960D01*
X2816760Y1525580D01*
X2821760Y1523839D01*
X2826940Y1522800D01*
X2832220Y1522440D01*
X2837480Y1522800D01*
X2842660Y1523839D01*
X2847660Y1525580D01*
X2852360Y1527960D01*
X2856720Y1530960D01*
X2860640Y1534500D01*
X2864060Y1538540D01*
X2866900Y1543000D01*
X2869120Y1547780D01*
X2870680Y1552840D01*
X2871560Y1558040D01*
X2871740Y1563320D01*
X2871220Y1568580D01*
X2869980Y1573720D01*
X2868100Y1578660D01*
X2865560Y1583280D01*
X2862420Y1587540D01*
X2858740Y1591339D01*
X2854600Y1594620D01*
X2850059Y1597300D01*
X2845179Y1599360D01*
X2840080Y1600760D01*
X2834860Y1601459D01*
X2829560Y1601459D01*
X2824340Y1600760D01*
X2819240Y1599360D01*
X2814380Y1597300D01*
X2809820Y1594620D01*
X2805520Y1591180D01*
X2790200Y1577060D01*
X2788900Y1576260D01*
X2787400Y1576000D01*
X2785920Y1576320D01*
X2784660Y1577180D01*
X2759920Y1601960D01*
X2759040Y1603440D01*
X2758080Y1606320D01*
X2757820Y1608000D01*
X2756960Y1610800D01*
X2755580Y1613380D01*
X2753600Y1615800D01*
X2716300Y1653100D01*
X2713880Y1655100D01*
X2711160Y1656540D01*
X2709860Y1657660D01*
X2709140Y1659220D01*
X2709140Y1660920D01*
X2709860Y1662480D01*
X2711160Y1663600D01*
X2713880Y1665040D01*
X2716300Y1667040D01*
X2753600Y1704340D01*
X2755580Y1706759D01*
X2756960Y1709340D01*
X2757820Y1712140D01*
X2758080Y1713820D01*
X2758780Y1715920D01*
X2759620Y1717340D01*
X2760960Y1718300D01*
X2762580Y1718640D01*
X2764360Y1718640D01*
X2765899Y1718340D01*
X2767200Y1717480D01*
X2789240Y1695420D01*
X2790600Y1693620D01*
X2791800Y1690960D01*
X2792400Y1688740D01*
X2792900Y1686040D01*
X2793120Y1683700D01*
X2792660Y1662360D01*
X2792860Y1658040D01*
X2793740Y1652840D01*
X2795299Y1647780D01*
X2797520Y1643000D01*
X2800360Y1638540D01*
X2803780Y1634500D01*
X2807700Y1630960D01*
X2812060Y1627960D01*
X2816760Y1625580D01*
X2821760Y1623839D01*
X2826940Y1622800D01*
X2832220Y1622440D01*
X2837480Y1622800D01*
X2842660Y1623839D01*
X2847660Y1625580D01*
X2852360Y1627960D01*
X2856720Y1630960D01*
X2860640Y1634500D01*
X2864060Y1638540D01*
X2866900Y1643000D01*
X2869120Y1647780D01*
X2870680Y1652840D01*
X2871560Y1658040D01*
X2871740Y1663320D01*
X2871220Y1668580D01*
X2869980Y1673720D01*
X2868100Y1678660D01*
X2865560Y1683280D01*
X2862420Y1687540D01*
X2858740Y1691339D01*
X2854600Y1694620D01*
X2850059Y1697300D01*
X2845179Y1699360D01*
X2840080Y1700760D01*
X2836760Y1701300D01*
X2822559Y1702780D01*
X2820200Y1703100D01*
X2812540Y1704600D01*
X2809660Y1705380D01*
X2807060Y1706320D01*
X2804800Y1707420D01*
X2803300Y1708520D01*
X2776840Y1735000D01*
X2774440Y1736720D01*
X2772300Y1737540D01*
X2769760Y1737840D01*
X2755960Y1737840D01*
X2753500Y1737380D01*
X2751400Y1736440D01*
X2749380Y1734860D01*
X2746340Y1731879D01*
X2744820Y1730940D01*
X2741920Y1729960D01*
X2739880Y1729660D01*
X2738140Y1729880D01*
X2736660Y1730820D01*
X2735720Y1732300D01*
X2735500Y1734040D01*
X2735800Y1736080D01*
X2736760Y1738940D01*
X2737600Y1740380D01*
X2738500Y1741360D01*
X2748360Y1751220D01*
X2749660Y1752100D01*
X2751200Y1752400D01*
X2778620Y1752400D01*
X2780480Y1752100D01*
X2783279Y1751080D01*
X2785419Y1749940D01*
X2787860Y1748380D01*
X2790560Y1746420D01*
X2794100Y1743340D01*
X2805880Y1732480D01*
X2807640Y1731000D01*
X2812060Y1727960D01*
X2816760Y1725580D01*
X2821760Y1723839D01*
X2826940Y1722800D01*
X2832220Y1722440D01*
X2837480Y1722800D01*
X2842660Y1723839D01*
X2847660Y1725580D01*
X2852360Y1727960D01*
X2856720Y1730960D01*
X2860640Y1734500D01*
X2864060Y1738540D01*
X2866900Y1743000D01*
X2869120Y1747780D01*
X2870680Y1752840D01*
X2871560Y1758040D01*
X2871740Y1763320D01*
X2871220Y1768580D01*
X2869980Y1773720D01*
X2868100Y1778660D01*
X2865560Y1783280D01*
X2862420Y1787540D01*
X2858740Y1791339D01*
X2854600Y1794620D01*
X2850059Y1797300D01*
X2845179Y1799360D01*
X2840080Y1800760D01*
X2834860Y1801459D01*
X2829560Y1801459D01*
X2824340Y1800760D01*
X2819240Y1799360D01*
X2814380Y1797300D01*
X2809820Y1794620D01*
X2805520Y1791180D01*
X2792420Y1779120D01*
X2790360Y1777400D01*
X2787660Y1775480D01*
X2785140Y1773899D01*
X2782740Y1772700D01*
X2779720Y1771720D01*
X2778620Y1771600D01*
X2745620Y1771600D01*
X2742720Y1771140D01*
X2740620Y1770200D01*
X2738600Y1768620D01*
X2724000Y1754079D01*
X2722540Y1753200D01*
X2719640Y1752240D01*
X2717600Y1751940D01*
X2715860Y1752160D01*
X2714380Y1753080D01*
X2713440Y1754560D01*
X2713220Y1756300D01*
X2713519Y1758360D01*
X2714480Y1761220D01*
X2715320Y1762640D01*
X2716240Y1763640D01*
X2788759Y1836160D01*
X2790120Y1837060D01*
X2791740Y1837320D01*
X2793340Y1836920D01*
X2815160Y1826300D01*
X2816680Y1825620D01*
X2821760Y1823839D01*
X2826940Y1822800D01*
X2832220Y1822440D01*
X2837480Y1822800D01*
X2842660Y1823839D01*
X2847660Y1825580D01*
X2852360Y1827960D01*
X2856720Y1830960D01*
X2860640Y1834500D01*
X2864060Y1838540D01*
X2866900Y1843000D01*
X2869120Y1847780D01*
X2870680Y1852840D01*
X2871560Y1858040D01*
X2871740Y1863320D01*
X2871220Y1868580D01*
X2869980Y1873720D01*
X2868100Y1878660D01*
X2865560Y1883280D01*
X2862420Y1887540D01*
X2858740Y1891339D01*
X2854600Y1894620D01*
X2850059Y1897300D01*
X2845179Y1899360D01*
X2840080Y1900760D01*
X2834860Y1901459D01*
X2829560Y1901459D01*
X2824340Y1900760D01*
X2819240Y1899360D01*
X2817640Y1898700D01*
X2816120Y1898380D01*
X2814580Y1898680D01*
X2813279Y1899540D01*
X2812400Y1900840D01*
X2812080Y1902360D01*
X2812400Y1903899D01*
X2813260Y1905200D01*
X2817240Y1909180D01*
X2818200Y1909900D01*
X2852300Y1927920D01*
X2856720Y1930960D01*
X2860640Y1934500D01*
X2864060Y1938540D01*
X2866900Y1943000D01*
X2869120Y1947780D01*
X2870680Y1952840D01*
X2871560Y1958040D01*
X2871740Y1963320D01*
X2871220Y1968580D01*
X2869980Y1973720D01*
X2868100Y1978660D01*
X2865560Y1983280D01*
X2862420Y1987540D01*
X2858740Y1991339D01*
X2854600Y1994620D01*
X2850059Y1997300D01*
X2845179Y1999360D01*
X2840080Y2000760D01*
X2834860Y2001459D01*
X2829560Y2001459D01*
X2824340Y2000760D01*
X2819240Y1999360D01*
X2814380Y1997300D01*
X2809820Y1994620D01*
X2805680Y1991339D01*
X2802000Y1987540D01*
X2798860Y1983280D01*
X2796320Y1978660D01*
X2794440Y1973720D01*
X2793200Y1968580D01*
X2792679Y1963320D01*
X2792860Y1958040D01*
X2793740Y1952840D01*
X2794820Y1949079D01*
X2803080Y1925640D01*
X2803320Y1924360D01*
X2803100Y1923060D01*
X2802500Y1921879D01*
X2801340Y1920440D01*
X2679460Y1798620D01*
X2678000Y1797760D01*
X2675100Y1796780D01*
X2673060Y1796480D01*
X2671320Y1796699D01*
X2669840Y1797640D01*
X2668900Y1799120D01*
X2668680Y1800860D01*
X2668980Y1802900D01*
X2669940Y1805760D01*
X2670779Y1807180D01*
X2671700Y1808180D01*
X2697960Y1834440D01*
X2699680Y1836819D01*
X2700500Y1838980D01*
X2700800Y1841519D01*
X2700800Y2021579D01*
X2701220Y2023380D01*
X2702620Y2026160D01*
X2703500Y2027340D01*
X2704760Y2028100D01*
X2706200Y2028380D01*
X2730320Y2028380D01*
X2732160Y2028620D01*
X2733620Y2029220D01*
X2734860Y2030180D01*
X2735840Y2031440D01*
X2736440Y2032900D01*
X2736640Y2034440D01*
X2737220Y2036040D01*
X2738420Y2037260D01*
X2740000Y2037860D01*
X2741720Y2037760D01*
X2743220Y2036940D01*
X2744240Y2035580D01*
X2744600Y2033899D01*
X2744600Y1967340D01*
X2744440Y1966220D01*
X2743960Y1965160D01*
X2739860Y1958880D01*
X2738840Y1957520D01*
X2737340Y1954540D01*
X2736440Y1951320D01*
X2736120Y1948000D01*
X2736440Y1944680D01*
X2737340Y1941459D01*
X2738840Y1938480D01*
X2740840Y1935820D01*
X2743320Y1933560D01*
X2746139Y1931819D01*
X2749260Y1930600D01*
X2752540Y1930000D01*
X2755880Y1930000D01*
X2759160Y1930600D01*
X2762280Y1931819D01*
X2765100Y1933560D01*
X2767580Y1935820D01*
X2769580Y1938480D01*
X2771080Y1941459D01*
X2771980Y1944680D01*
X2772300Y1948000D01*
X2771980Y1951320D01*
X2771080Y1954540D01*
X2769560Y1957540D01*
X2768320Y1959280D01*
X2764460Y1965160D01*
X2763980Y1966200D01*
X2763800Y1967360D01*
X2763800Y2078360D01*
X2764120Y2079900D01*
X2764980Y2081200D01*
X2801100Y2117320D01*
X2802620Y2118420D01*
X2805340Y2119680D01*
X2807640Y2120380D01*
X2810480Y2121020D01*
X2813780Y2121540D01*
X2818380Y2121860D01*
X2834320Y2122500D01*
X2837480Y2122800D01*
X2842660Y2123840D01*
X2847660Y2125580D01*
X2852360Y2127960D01*
X2856720Y2130960D01*
X2860640Y2134500D01*
X2864060Y2138540D01*
X2866900Y2143000D01*
X2869120Y2147780D01*
X2870680Y2152840D01*
X2871560Y2158040D01*
X2871740Y2163320D01*
X2871220Y2168580D01*
X2869980Y2173720D01*
X2868100Y2178660D01*
X2865560Y2183280D01*
X2862420Y2187540D01*
X2858740Y2191340D01*
X2854600Y2194620D01*
X2850059Y2197300D01*
X2845179Y2199360D01*
X2840080Y2200760D01*
X2834860Y2201460D01*
X2829560Y2201460D01*
X2824340Y2200760D01*
X2819240Y2199360D01*
X2814380Y2197300D01*
X2809820Y2194620D01*
X2805680Y2191340D01*
X2802000Y2187540D01*
X2798860Y2183280D01*
X2796320Y2178660D01*
X2794440Y2173720D01*
X2793200Y2168580D01*
X2792660Y2163100D01*
X2791960Y2145980D01*
X2791720Y2143300D01*
X2791180Y2140020D01*
X2790500Y2137140D01*
X2789660Y2134580D01*
X2788220Y2131760D01*
X2787540Y2130900D01*
X2747460Y2090840D01*
X2745740Y2088440D01*
X2744920Y2086300D01*
X2744660Y2084120D01*
X2744080Y2082520D01*
X2742900Y2081279D01*
X2741300Y2080660D01*
X2739580Y2080760D01*
X2738080Y2081579D01*
X2737040Y2082940D01*
X2736680Y2084620D01*
X2736680Y2093260D01*
X2736440Y2095100D01*
X2735840Y2096560D01*
X2734860Y2097820D01*
X2733620Y2098780D01*
X2732160Y2099380D01*
X2730320Y2099620D01*
X2706200Y2099620D01*
X2704760Y2099900D01*
X2703500Y2100660D01*
X2702620Y2101840D01*
X2701220Y2104620D01*
X2700800Y2106420D01*
X2700800Y2137480D01*
X2701120Y2139000D01*
X2701980Y2140300D01*
X2771960Y2210280D01*
X2773680Y2212660D01*
X2774500Y2214820D01*
X2774800Y2217360D01*
X2774800Y2255640D01*
X2774980Y2256780D01*
X2775460Y2257820D01*
X2779540Y2264100D01*
X2780580Y2265480D01*
X2782080Y2268460D01*
X2782980Y2271680D01*
X2783300Y2275000D01*
X2782980Y2278320D01*
X2782080Y2281540D01*
X2780580Y2284520D01*
X2778580Y2287180D01*
X2776100Y2289440D01*
X2773279Y2291180D01*
X2770160Y2292400D01*
X2766880Y2293000D01*
X2763540Y2293000D01*
X2760260Y2292400D01*
X2757140Y2291180D01*
X2754320Y2289440D01*
X2753000Y2288240D01*
X2751700Y2287440D01*
X2750179Y2287200D01*
X2748700Y2287540D01*
X2747440Y2288400D01*
X2746600Y2289680D01*
X2746300Y2291200D01*
X2746300Y2567679D01*
X2746040Y2570040D01*
X2745299Y2572180D01*
X2744100Y2574100D01*
X2743260Y2575020D01*
X2711220Y2607080D01*
X2710340Y2608360D01*
X2710040Y2609900D01*
X2710340Y2611440D01*
X2711220Y2612720D01*
X2712520Y2613600D01*
X2714040Y2613900D01*
X2880100Y2613900D01*
X2881640Y2613600D01*
X2882940Y2612720D01*
X2883800Y2611440D01*
X2884100Y2609900D01*
X2884100Y1114100D01*
X2883800Y1112560D01*
X2882940Y1111280D01*
X2881640Y1110400D01*
X2880100Y1110100D01*
X2719400Y1110100D01*
X2717820Y1110420D01*
X2716500Y1111340D01*
X2715659Y1112720D01*
X2715419Y1114320D01*
X2715820Y1115880D01*
X2716820Y1117140D01*
X2718220Y1117920D01*
X2722220Y1119160D01*
X2726220Y1121080D01*
X2729900Y1123580D01*
X2733140Y1126600D01*
X2735920Y1130080D01*
X2738140Y1133920D01*
X2739760Y1138060D01*
X2740740Y1142380D01*
X2741100Y1146960D01*
X2741100Y1178160D01*
X2740740Y1182740D01*
X2739760Y1187060D01*
X2738140Y1191200D01*
X2735920Y1195040D01*
X2733140Y1198520D01*
X2729900Y1201540D01*
X2726220Y1204040D01*
X2722220Y1205960D01*
X2717980Y1207280D01*
X2713600Y1207940D01*
X2709140Y1207940D01*
X2704760Y1207280D01*
X2700520Y1205960D01*
X2696520Y1204040D01*
X2692840Y1201540D01*
X2689600Y1198520D01*
X2686820Y1195040D01*
X2684600Y1191200D01*
X2682980Y1187060D01*
X2682000Y1182740D01*
X2681640Y1178160D01*
X2681640Y1146960D01*
X2682000Y1142380D01*
X2682980Y1138060D01*
X2684600Y1133920D01*
X2686820Y1130080D01*
X2689600Y1126600D01*
X2692840Y1123580D01*
X2696520Y1121080D01*
X2700520Y1119160D01*
X2704520Y1117920D01*
X2705920Y1117140D01*
X2706920Y1115880D01*
X2707320Y1114320D01*
X2707080Y1112720D01*
X2706240Y1111340D01*
X2704920Y1110420D01*
X2703340Y1110100D01*
X2365080Y1110100D01*
X2363500Y1110420D01*
X2362180Y1111340D01*
X2361320Y1112720D01*
X2361080Y1114320D01*
X2361500Y1115880D01*
X2362480Y1117140D01*
X2363900Y1117920D01*
X2367900Y1119160D01*
X2371900Y1121080D01*
X2375560Y1123580D01*
X2378820Y1126600D01*
X2381580Y1130080D01*
X2383800Y1133920D01*
X2385440Y1138060D01*
X2386420Y1142380D01*
X2386760Y1146960D01*
X2386760Y1178160D01*
X2386420Y1182740D01*
X2385440Y1187060D01*
X2383800Y1191200D01*
X2381580Y1195040D01*
X2378820Y1198520D01*
X2375560Y1201540D01*
X2371900Y1204040D01*
X2367900Y1205960D01*
X2363660Y1207280D01*
X2359260Y1207940D01*
X2354820Y1207940D01*
X2350420Y1207280D01*
X2346180Y1205960D01*
X2342180Y1204040D01*
X2338520Y1201540D01*
X2335260Y1198520D01*
X2332500Y1195040D01*
X2330280Y1191200D01*
X2328640Y1187060D01*
X2327660Y1182740D01*
X2327320Y1178160D01*
X2327320Y1146960D01*
X2327660Y1142380D01*
X2328640Y1138060D01*
X2330280Y1133920D01*
X2332500Y1130080D01*
X2335260Y1126600D01*
X2338520Y1123580D01*
X2342180Y1121080D01*
X2346180Y1119160D01*
X2350180Y1117920D01*
X2351600Y1117140D01*
X2352580Y1115880D01*
X2353000Y1114320D01*
X2352760Y1112720D01*
X2351900Y1111340D01*
X2350580Y1110420D01*
X2349000Y1110100D01*
G37*

%LPC*%
G36*
X2354820Y1274660D02*
G01*
X2359260Y1274660D01*
X2363660Y1275320D01*
X2367900Y1276620D01*
X2371900Y1278560D01*
X2375560Y1281060D01*
X2378820Y1284079D01*
X2381580Y1287540D01*
X2383800Y1291399D01*
X2385440Y1295520D01*
X2386420Y1299860D01*
X2386760Y1304440D01*
X2386760Y1347440D01*
X2386420Y1352020D01*
X2385440Y1356360D01*
X2383800Y1360480D01*
X2381580Y1364319D01*
X2378820Y1367800D01*
X2375560Y1370820D01*
X2371900Y1373320D01*
X2367900Y1375240D01*
X2363660Y1376560D01*
X2359260Y1377220D01*
X2354820Y1377220D01*
X2350420Y1376560D01*
X2346180Y1375240D01*
X2342180Y1373320D01*
X2338520Y1370820D01*
X2335260Y1367800D01*
X2332500Y1364319D01*
X2330280Y1360480D01*
X2328640Y1356360D01*
X2327660Y1352020D01*
X2327320Y1347440D01*
X2327320Y1304440D01*
X2327660Y1299860D01*
X2328640Y1295520D01*
X2330280Y1291399D01*
X2332500Y1287540D01*
X2335260Y1284079D01*
X2338520Y1281060D01*
X2342180Y1278560D01*
X2346180Y1276620D01*
X2350420Y1275320D01*
G37*
G36*
X2832220Y2022440D02*
G01*
X2837480Y2022800D01*
X2842660Y2023839D01*
X2847660Y2025580D01*
X2852360Y2027960D01*
X2856720Y2030960D01*
X2860640Y2034500D01*
X2864060Y2038540D01*
X2866900Y2043000D01*
X2869120Y2047780D01*
X2870680Y2052840D01*
X2871560Y2058040D01*
X2871740Y2063320D01*
X2871220Y2068580D01*
X2869980Y2073720D01*
X2868100Y2078660D01*
X2865560Y2083280D01*
X2862420Y2087540D01*
X2858740Y2091339D01*
X2854600Y2094620D01*
X2850059Y2097300D01*
X2845179Y2099360D01*
X2840080Y2100760D01*
X2834860Y2101460D01*
X2829560Y2101460D01*
X2824340Y2100760D01*
X2819240Y2099360D01*
X2814380Y2097300D01*
X2809820Y2094620D01*
X2805680Y2091339D01*
X2802000Y2087540D01*
X2798860Y2083280D01*
X2796320Y2078660D01*
X2794440Y2073720D01*
X2793200Y2068580D01*
X2792679Y2063320D01*
X2792860Y2058040D01*
X2793740Y2052840D01*
X2795299Y2047780D01*
X2797520Y2043000D01*
X2800360Y2038540D01*
X2803780Y2034500D01*
X2807700Y2030960D01*
X2812060Y2027960D01*
X2816760Y2025580D01*
X2821760Y2023839D01*
X2826940Y2022800D01*
G37*
G36*
X2832220Y2222440D02*
G01*
X2837480Y2222800D01*
X2842660Y2223840D01*
X2847660Y2225580D01*
X2852360Y2227960D01*
X2856720Y2230960D01*
X2860640Y2234500D01*
X2864060Y2238540D01*
X2866900Y2243000D01*
X2869120Y2247780D01*
X2870680Y2252840D01*
X2871560Y2258040D01*
X2871740Y2263320D01*
X2871220Y2268580D01*
X2869980Y2273720D01*
X2868100Y2278660D01*
X2865560Y2283280D01*
X2862420Y2287540D01*
X2858740Y2291340D01*
X2854600Y2294620D01*
X2850059Y2297300D01*
X2845179Y2299360D01*
X2840080Y2300760D01*
X2834860Y2301460D01*
X2829560Y2301460D01*
X2824340Y2300760D01*
X2819240Y2299360D01*
X2814380Y2297300D01*
X2809820Y2294620D01*
X2805680Y2291340D01*
X2802000Y2287540D01*
X2798860Y2283280D01*
X2796320Y2278660D01*
X2794440Y2273720D01*
X2793200Y2268580D01*
X2792679Y2263320D01*
X2792860Y2258040D01*
X2793740Y2252840D01*
X2795299Y2247780D01*
X2797520Y2243000D01*
X2800360Y2238540D01*
X2803780Y2234500D01*
X2807700Y2230960D01*
X2812060Y2227960D01*
X2816760Y2225580D01*
X2821760Y2223840D01*
X2826940Y2222800D01*
G37*
G36*
X2481180Y2241900D02*
G01*
X2510660Y2241900D01*
X2512480Y2242140D01*
X2513960Y2242740D01*
X2515200Y2243720D01*
X2516180Y2244960D01*
X2516780Y2246440D01*
X2517020Y2248260D01*
X2517020Y2277740D01*
X2516780Y2279560D01*
X2516180Y2281040D01*
X2515200Y2282280D01*
X2513960Y2283260D01*
X2512500Y2283860D01*
X2510400Y2284140D01*
X2509160Y2284500D01*
X2508100Y2285260D01*
X2507340Y2286320D01*
X2505940Y2289100D01*
X2505520Y2290880D01*
X2505520Y2327120D01*
X2505940Y2328900D01*
X2507340Y2331680D01*
X2508220Y2332860D01*
X2509480Y2333640D01*
X2510920Y2333900D01*
X2520660Y2333900D01*
X2522480Y2334140D01*
X2523960Y2334740D01*
X2525200Y2335720D01*
X2526180Y2336960D01*
X2526780Y2338440D01*
X2527020Y2340260D01*
X2527020Y2399740D01*
X2526780Y2401560D01*
X2526180Y2403040D01*
X2525200Y2404280D01*
X2523960Y2405260D01*
X2522480Y2405860D01*
X2520660Y2406100D01*
X2471180Y2406100D01*
X2469360Y2405860D01*
X2467880Y2405260D01*
X2466640Y2404280D01*
X2465660Y2403040D01*
X2465060Y2401560D01*
X2464820Y2399740D01*
X2464820Y2340260D01*
X2465060Y2338440D01*
X2465660Y2336960D01*
X2466640Y2335720D01*
X2467880Y2334740D01*
X2469360Y2334140D01*
X2471180Y2333900D01*
X2480940Y2333900D01*
X2482380Y2333640D01*
X2483620Y2332860D01*
X2484500Y2331680D01*
X2485900Y2328900D01*
X2486320Y2327120D01*
X2486320Y2290880D01*
X2486220Y2289960D01*
X2485900Y2289080D01*
X2484500Y2286300D01*
X2483740Y2285260D01*
X2482680Y2284500D01*
X2481440Y2284140D01*
X2479360Y2283860D01*
X2477880Y2283260D01*
X2476640Y2282280D01*
X2475660Y2281040D01*
X2475060Y2279560D01*
X2474820Y2277740D01*
X2474820Y2248260D01*
X2475060Y2246440D01*
X2475660Y2244960D01*
X2476640Y2243720D01*
X2477880Y2242740D01*
X2479360Y2242140D01*
G37*
G36*
X2562440Y2241900D02*
G01*
X2591920Y2241900D01*
X2593740Y2242140D01*
X2595220Y2242740D01*
X2596460Y2243720D01*
X2597440Y2244960D01*
X2598039Y2246440D01*
X2598279Y2248260D01*
X2598279Y2277740D01*
X2598039Y2279560D01*
X2597440Y2281040D01*
X2596460Y2282280D01*
X2595220Y2283260D01*
X2593759Y2283860D01*
X2591660Y2284140D01*
X2590419Y2284500D01*
X2589360Y2285260D01*
X2588600Y2286320D01*
X2587200Y2289100D01*
X2586780Y2290880D01*
X2586780Y2327120D01*
X2587200Y2328900D01*
X2588600Y2331680D01*
X2589480Y2332860D01*
X2590740Y2333640D01*
X2592180Y2333900D01*
X2601920Y2333900D01*
X2603740Y2334140D01*
X2605220Y2334740D01*
X2606460Y2335720D01*
X2607440Y2336960D01*
X2608039Y2338440D01*
X2608279Y2340260D01*
X2608279Y2399740D01*
X2608039Y2401560D01*
X2607440Y2403040D01*
X2606460Y2404280D01*
X2605220Y2405260D01*
X2603740Y2405860D01*
X2601920Y2406100D01*
X2552440Y2406100D01*
X2550620Y2405860D01*
X2549140Y2405260D01*
X2547900Y2404280D01*
X2546920Y2403040D01*
X2546320Y2401560D01*
X2546080Y2399740D01*
X2546080Y2340260D01*
X2546320Y2338440D01*
X2546920Y2336960D01*
X2547900Y2335720D01*
X2549140Y2334740D01*
X2550620Y2334140D01*
X2552440Y2333900D01*
X2562200Y2333900D01*
X2563639Y2333640D01*
X2564880Y2332860D01*
X2565760Y2331680D01*
X2567160Y2328900D01*
X2567580Y2327120D01*
X2567580Y2290880D01*
X2567480Y2289960D01*
X2567160Y2289080D01*
X2565760Y2286300D01*
X2565000Y2285260D01*
X2563940Y2284500D01*
X2562700Y2284140D01*
X2560620Y2283860D01*
X2559140Y2283260D01*
X2557900Y2282280D01*
X2556920Y2281040D01*
X2556320Y2279560D01*
X2556080Y2277740D01*
X2556080Y2248260D01*
X2556320Y2246440D01*
X2556920Y2244960D01*
X2557900Y2243720D01*
X2559140Y2242740D01*
X2560620Y2242140D01*
G37*
G36*
X2643700Y2241900D02*
G01*
X2673180Y2241900D01*
X2675000Y2242140D01*
X2676480Y2242740D01*
X2677720Y2243720D01*
X2678700Y2244960D01*
X2679300Y2246440D01*
X2679540Y2248260D01*
X2679540Y2277740D01*
X2679300Y2279560D01*
X2678700Y2281040D01*
X2677720Y2282280D01*
X2676480Y2283260D01*
X2675020Y2283860D01*
X2672919Y2284140D01*
X2671680Y2284500D01*
X2670620Y2285260D01*
X2669860Y2286320D01*
X2668460Y2289100D01*
X2668039Y2290880D01*
X2668039Y2327120D01*
X2668460Y2328900D01*
X2669860Y2331680D01*
X2670740Y2332860D01*
X2672000Y2333640D01*
X2673440Y2333900D01*
X2683180Y2333900D01*
X2685000Y2334140D01*
X2686480Y2334740D01*
X2687720Y2335720D01*
X2688700Y2336960D01*
X2689300Y2338440D01*
X2689540Y2340260D01*
X2689540Y2399740D01*
X2689300Y2401560D01*
X2688700Y2403040D01*
X2687720Y2404280D01*
X2686480Y2405260D01*
X2685000Y2405860D01*
X2683180Y2406100D01*
X2633700Y2406100D01*
X2631880Y2405860D01*
X2630400Y2405260D01*
X2629160Y2404280D01*
X2628180Y2403040D01*
X2627580Y2401560D01*
X2627340Y2399740D01*
X2627340Y2340260D01*
X2627580Y2338440D01*
X2628180Y2336960D01*
X2629160Y2335720D01*
X2630400Y2334740D01*
X2631880Y2334140D01*
X2633700Y2333900D01*
X2643460Y2333900D01*
X2644900Y2333640D01*
X2646139Y2332860D01*
X2647020Y2331680D01*
X2648420Y2328900D01*
X2648840Y2327120D01*
X2648840Y2290880D01*
X2648740Y2289960D01*
X2648420Y2289080D01*
X2647020Y2286300D01*
X2646259Y2285260D01*
X2645200Y2284500D01*
X2643960Y2284140D01*
X2641880Y2283860D01*
X2640400Y2283260D01*
X2639160Y2282280D01*
X2638180Y2281040D01*
X2637580Y2279560D01*
X2637340Y2277740D01*
X2637340Y2248260D01*
X2637580Y2246440D01*
X2638180Y2244960D01*
X2639160Y2243720D01*
X2640400Y2242740D01*
X2641880Y2242140D01*
G37*
G36*
X2832220Y2322440D02*
G01*
X2837480Y2322800D01*
X2842660Y2323840D01*
X2847660Y2325580D01*
X2852360Y2327960D01*
X2856720Y2330960D01*
X2860640Y2334500D01*
X2864060Y2338540D01*
X2866900Y2343000D01*
X2869120Y2347780D01*
X2870680Y2352840D01*
X2871560Y2358040D01*
X2871740Y2363320D01*
X2871220Y2368580D01*
X2869980Y2373720D01*
X2868100Y2378660D01*
X2865560Y2383280D01*
X2862420Y2387540D01*
X2858740Y2391340D01*
X2854600Y2394620D01*
X2850059Y2397300D01*
X2845179Y2399360D01*
X2840080Y2400760D01*
X2834860Y2401460D01*
X2829560Y2401460D01*
X2824340Y2400760D01*
X2819240Y2399360D01*
X2814380Y2397300D01*
X2809820Y2394620D01*
X2805680Y2391340D01*
X2802000Y2387540D01*
X2798860Y2383280D01*
X2796320Y2378660D01*
X2794440Y2373720D01*
X2793200Y2368580D01*
X2792679Y2363320D01*
X2792860Y2358040D01*
X2793740Y2352840D01*
X2795299Y2347780D01*
X2797520Y2343000D01*
X2800360Y2338540D01*
X2803780Y2334500D01*
X2807700Y2330960D01*
X2812060Y2327960D01*
X2816760Y2325580D01*
X2821760Y2323840D01*
X2826940Y2322800D01*
G37*
G36*
X2232220Y2322440D02*
G01*
X2237480Y2322800D01*
X2242660Y2323840D01*
X2247660Y2325580D01*
X2252360Y2327960D01*
X2256720Y2330960D01*
X2260640Y2334500D01*
X2264060Y2338540D01*
X2266900Y2343000D01*
X2269120Y2347780D01*
X2270680Y2352840D01*
X2271560Y2358040D01*
X2271740Y2363320D01*
X2271220Y2368580D01*
X2269980Y2373720D01*
X2268100Y2378660D01*
X2265560Y2383280D01*
X2262420Y2387540D01*
X2258740Y2391340D01*
X2254600Y2394620D01*
X2250060Y2397300D01*
X2245180Y2399360D01*
X2240080Y2400760D01*
X2234860Y2401460D01*
X2229560Y2401460D01*
X2224340Y2400760D01*
X2219240Y2399360D01*
X2214380Y2397300D01*
X2209820Y2394620D01*
X2205680Y2391340D01*
X2202000Y2387540D01*
X2198860Y2383280D01*
X2196320Y2378660D01*
X2194440Y2373720D01*
X2193200Y2368580D01*
X2192680Y2363320D01*
X2192860Y2358040D01*
X2193740Y2352840D01*
X2195300Y2347780D01*
X2197520Y2343000D01*
X2200360Y2338540D01*
X2203780Y2334500D01*
X2207700Y2330960D01*
X2212060Y2327960D01*
X2216760Y2325580D01*
X2221760Y2323840D01*
X2226940Y2322800D01*
G37*
G36*
X2799000Y2522440D02*
G01*
X2865419Y2522440D01*
X2867240Y2522680D01*
X2868700Y2523280D01*
X2869960Y2524240D01*
X2870920Y2525500D01*
X2871540Y2526960D01*
X2871780Y2528800D01*
X2871780Y2595200D01*
X2871540Y2597040D01*
X2870920Y2598500D01*
X2869960Y2599760D01*
X2868700Y2600720D01*
X2867240Y2601320D01*
X2865419Y2601560D01*
X2799000Y2601560D01*
X2797180Y2601320D01*
X2795720Y2600720D01*
X2794460Y2599760D01*
X2793500Y2598500D01*
X2792880Y2597040D01*
X2792640Y2595200D01*
X2792640Y2528800D01*
X2792880Y2526960D01*
X2793500Y2525500D01*
X2794460Y2524240D01*
X2795720Y2523280D01*
X2797180Y2522680D01*
G37*
G36*
X2199000Y2522440D02*
G01*
X2265420Y2522440D01*
X2267240Y2522680D01*
X2268700Y2523280D01*
X2269960Y2524240D01*
X2270920Y2525500D01*
X2271540Y2526960D01*
X2271780Y2528800D01*
X2271780Y2595200D01*
X2271540Y2597040D01*
X2270920Y2598500D01*
X2269960Y2599760D01*
X2268700Y2600720D01*
X2267240Y2601320D01*
X2265420Y2601560D01*
X2199000Y2601560D01*
X2197180Y2601320D01*
X2195720Y2600720D01*
X2194460Y2599760D01*
X2193500Y2598500D01*
X2192880Y2597040D01*
X2192640Y2595200D01*
X2192640Y2528800D01*
X2192880Y2526960D01*
X2193500Y2525500D01*
X2194460Y2524240D01*
X2195720Y2523280D01*
X2197180Y2522680D01*
G37*

%LPD*%
G36*
X2471380Y1881819D02*
G01*
X2466420Y1876879D01*
X2470140Y1865740D01*
X2482500Y1878120D01*
G37*
G36*
X2449100Y1859560D02*
G01*
X2444160Y1854600D01*
X2447860Y1843460D01*
X2460240Y1855840D01*
G37*
G36*
X2454320Y1772820D02*
G01*
X2441800Y1760300D01*
X2453900Y1750120D01*
X2464500Y1760720D01*
G37*
G36*
X2409780Y1728280D02*
G01*
X2397260Y1715760D01*
X2414120Y1700800D01*
X2424740Y1711420D01*
G37*
G36*
X2337740Y1748200D02*
G01*
X2332800Y1743260D01*
X2336500Y1732120D01*
X2348880Y1744480D01*
G37*
G36*
X2315480Y1725920D02*
G01*
X2310520Y1720980D01*
X2314240Y1709840D01*
X2326620Y1722220D01*
G37*
G36*
X2328980Y1640040D02*
G01*
X2324020Y1635100D01*
X2327740Y1623959D01*
X2340120Y1636339D01*
G37*
G36*
X2336500Y1588020D02*
G01*
X2332800Y1576900D01*
X2337740Y1571940D01*
X2348880Y1575660D01*
G37*
G36*
X2358780Y1565760D02*
G01*
X2355060Y1554620D01*
X2360020Y1549680D01*
X2371160Y1553380D01*
G37*
G36*
X2381040Y1543480D02*
G01*
X2377340Y1532340D01*
X2382280Y1527400D01*
X2393420Y1531120D01*
G37*
G36*
X2403320Y1521220D02*
G01*
X2399620Y1510080D01*
X2404560Y1505140D01*
X2415700Y1508839D01*
G37*
G36*
X2425600Y1498940D02*
G01*
X2421880Y1487820D01*
X2426840Y1482860D01*
X2437960Y1486579D01*
G37*
G36*
X2448760Y1477740D02*
G01*
X2443720Y1465820D01*
X2449380Y1460160D01*
X2461300Y1465200D01*
G37*
G36*
X2470140Y1454400D02*
G01*
X2466420Y1443260D01*
X2471360Y1438320D01*
X2482500Y1442020D01*
G37*
G36*
X2593519Y1455460D02*
G01*
X2581000Y1442920D01*
X2592919Y1437880D01*
X2598580Y1443540D01*
G37*
G36*
X2544020Y1498080D02*
G01*
X2538360Y1492420D01*
X2543420Y1480500D01*
X2555940Y1493040D01*
G37*
G36*
X2615800Y1477740D02*
G01*
X2603260Y1465200D01*
X2615700Y1454700D01*
X2626300Y1465300D01*
G37*
G36*
X2561340Y1530260D02*
G01*
X2550740Y1519660D01*
X2565680Y1502780D01*
X2578220Y1515320D01*
G37*
G36*
X2588300Y1542200D02*
G01*
X2583340Y1537240D01*
X2587060Y1526100D01*
X2599420Y1538480D01*
G37*
G36*
X2661240Y1521220D02*
G01*
X2648860Y1508839D01*
X2660000Y1505140D01*
X2664940Y1510080D01*
G37*
G36*
X2655100Y1609000D02*
G01*
X2650160Y1604060D01*
X2653860Y1592920D01*
X2666240Y1605300D01*
G37*
G36*
X2728060Y1588020D02*
G01*
X2715680Y1575660D01*
X2726820Y1571940D01*
X2731760Y1576900D01*
G37*
G36*
X2750320Y1610300D02*
G01*
X2737940Y1597920D01*
X2749080Y1594220D01*
X2754040Y1599160D01*
G37*
G36*
X2749080Y1725920D02*
G01*
X2737940Y1722220D01*
X2750320Y1709840D01*
X2754040Y1720980D01*
G37*
G36*
X2726820Y1748200D02*
G01*
X2715680Y1744480D01*
X2728060Y1732120D01*
X2731760Y1743260D01*
G37*
G36*
X2704540Y1770480D02*
G01*
X2693399Y1766759D01*
X2705779Y1754379D01*
X2709500Y1765520D01*
G37*
G36*
X2682280Y1792740D02*
G01*
X2671139Y1789040D01*
X2683500Y1776660D01*
X2687220Y1787800D01*
G37*
G36*
X2660000Y1815020D02*
G01*
X2648860Y1811300D01*
X2661240Y1798920D01*
X2664940Y1810060D01*
G37*
G36*
X2587960Y1795100D02*
G01*
X2582900Y1783180D01*
X2588560Y1777520D01*
X2600480Y1782560D01*
G37*
G36*
X2637460Y1837720D02*
G01*
X2625539Y1832680D01*
X2638060Y1820140D01*
X2643120Y1832060D01*
G37*
G36*
X2565680Y1817360D02*
G01*
X2560640Y1805440D01*
X2566300Y1799780D01*
X2578220Y1804840D01*
G37*
G36*
X2615179Y1860000D02*
G01*
X2603260Y1854940D01*
X2615800Y1842420D01*
X2620840Y1854340D01*
G37*
G36*
X2593180Y1881819D02*
G01*
X2582040Y1878120D01*
X2594420Y1865740D01*
X2598140Y1876879D01*
G37*
G36*
X2410660Y2510100D02*
G01*
X2405100Y2498100D01*
X2424240Y2498100D01*
X2418660Y2510100D01*
G37*
G36*
X2391560Y2472000D02*
G01*
X2379560Y2466000D01*
X2379560Y2458000D01*
X2391560Y2455440D01*
G37*
G36*
X2491920Y2510100D02*
G01*
X2486360Y2498100D01*
X2505500Y2498100D01*
X2499920Y2510100D01*
G37*
G36*
X2472820Y2455440D02*
G01*
X2465780Y2445520D01*
X2471440Y2439860D01*
X2484160Y2444100D01*
G37*
G36*
X2649700Y2340000D02*
G01*
X2654940Y2329500D01*
X2661940Y2329500D01*
X2667200Y2340000D01*
G37*
G36*
X2568440Y2340000D02*
G01*
X2573680Y2329500D01*
X2580680Y2329500D01*
X2585940Y2340000D01*
G37*
G36*
X2405920Y2340000D02*
G01*
X2411160Y2329500D01*
X2418160Y2329500D01*
X2423420Y2340000D01*
G37*
G36*
X2487180Y2340000D02*
G01*
X2492420Y2329500D01*
X2499420Y2329500D01*
X2504680Y2340000D01*
G37*
G36*
X2654940Y2288500D02*
G01*
X2649700Y2278000D01*
X2667200Y2278000D01*
X2661940Y2288500D01*
G37*
G36*
X2648440Y2196820D02*
G01*
X2654440Y2184820D01*
X2662440Y2184820D01*
X2668440Y2196820D01*
G37*
G36*
X2573680Y2288500D02*
G01*
X2568440Y2278000D01*
X2585940Y2278000D01*
X2580680Y2288500D01*
G37*
G36*
X2562180Y2196820D02*
G01*
X2570700Y2174320D01*
X2585700Y2174320D01*
X2592180Y2196820D01*
G37*
G36*
X2562180Y2226820D02*
G01*
X2539680Y2220320D01*
X2539680Y2205320D01*
X2562180Y2196820D01*
G37*
G36*
X2492420Y2288500D02*
G01*
X2487180Y2278000D01*
X2504680Y2278000D01*
X2499420Y2288500D01*
G37*
G36*
X2510920Y2226820D02*
G01*
X2510920Y2196820D01*
X2533420Y2205320D01*
X2533420Y2220320D01*
G37*
G36*
X2480920Y2226820D02*
G01*
X2458420Y2220320D01*
X2458420Y2205320D01*
X2480920Y2196820D01*
G37*
G36*
X2411160Y2289500D02*
G01*
X2405920Y2279000D01*
X2423420Y2279000D01*
X2418160Y2289500D01*
G37*
G36*
X2429660Y2227820D02*
G01*
X2429660Y2197820D01*
X2452160Y2205320D01*
X2452160Y2220320D01*
G37*
G36*
X2687700Y2104020D02*
G01*
X2682460Y2093520D01*
X2699960Y2093520D01*
X2694700Y2104020D01*
G37*
G36*
X2682460Y2034480D02*
G01*
X2687700Y2023980D01*
X2694700Y2023980D01*
X2699960Y2034480D01*
G37*
G36*
X2632140Y1334960D02*
G01*
X2621840Y1324600D01*
X2631620Y1324460D01*
X2643960Y1334800D01*
G37*
G36*
X2620320Y1334800D02*
G01*
X2622740Y1324300D01*
X2629740Y1324300D01*
X2632140Y1334800D01*
G37*
G36*
X2563680Y1390580D02*
G01*
X2561280Y1380080D01*
X2573080Y1380080D01*
X2570680Y1390580D01*
G37*
G36*
X2504620Y1390520D02*
G01*
X2502220Y1380020D01*
X2514020Y1380020D01*
X2511620Y1390520D01*
G37*
G36*
X2443160Y1334640D02*
G01*
X2445580Y1324139D01*
X2452580Y1324139D01*
X2454980Y1334640D01*
G37*
G36*
X2431360Y1334640D02*
G01*
X2433760Y1333940D01*
X2440760Y1333940D01*
X2443160Y1334640D01*
G37*
G36*
X2481200Y1739340D02*
G01*
X2476200Y1730940D01*
X2494200Y1730940D01*
X2489200Y1739340D01*
G37*
G36*
X2531140Y1759000D02*
G01*
X2531140Y1741000D01*
X2539540Y1746000D01*
X2539540Y1754000D01*
G37*
G36*
X2352140Y2428000D02*
G01*
X2352140Y2410000D01*
X2360540Y2415000D01*
X2360540Y2423000D01*
G37*
G36*
X2756200Y2267060D02*
G01*
X2761700Y2258660D01*
X2768700Y2258660D01*
X2774200Y2267060D01*
G37*
G36*
X2570700Y2161340D02*
G01*
X2569200Y2152940D01*
X2587200Y2152940D01*
X2585700Y2161340D01*
G37*
G36*
X2603200Y2166960D02*
G01*
X2608700Y2158560D01*
X2615700Y2158560D01*
X2621200Y2166960D01*
G37*
G36*
X2344200Y2268060D02*
G01*
X2349700Y2259660D01*
X2356700Y2259660D01*
X2362200Y2268060D01*
G37*
G36*
X2506520Y1631759D02*
G01*
X2493780Y1619019D01*
X2503620Y1616980D01*
X2508560Y1621920D01*
G37*
G36*
X2522140Y1689000D02*
G01*
X2522140Y1671000D01*
X2530540Y1676500D01*
X2530540Y1683500D01*
G37*
G36*
X2450200Y1636060D02*
G01*
X2451700Y1627660D01*
X2466700Y1627660D01*
X2468200Y1636060D01*
G37*
G36*
X2451700Y1660340D02*
G01*
X2450200Y1651940D01*
X2468200Y1651940D01*
X2466700Y1660340D01*
G37*
G36*
X2750700Y1964340D02*
G01*
X2745200Y1955940D01*
X2763200Y1955940D01*
X2757700Y1964340D01*
G37*
G36*
X2418200Y1624060D02*
G01*
X2423200Y1615660D01*
X2431200Y1615660D01*
X2436200Y1624060D01*
G37*
G36*
X2326200Y1862060D02*
G01*
X2331700Y1853660D01*
X2338700Y1853660D01*
X2344200Y1862060D01*
G37*
G36*
X2299200Y1896060D02*
G01*
X2304700Y1887660D01*
X2311700Y1887660D01*
X2317200Y1896060D01*
G37*
G36*
X2622200Y1928340D02*
G01*
X2617200Y1919940D01*
X2635200Y1919940D01*
X2630200Y1928340D01*
G37*
G36*
X2499120Y1411980D02*
G01*
X2504620Y1403580D01*
X2511620Y1403580D01*
X2517120Y1411980D01*
G37*
G36*
X2571740Y1417660D02*
G01*
X2555460Y1409980D01*
X2563680Y1404580D01*
X2570680Y1407880D01*
G37*
G36*
X2456140Y1320020D02*
G01*
X2451180Y1315080D01*
X2453240Y1305240D01*
X2465960Y1317980D01*
G37*
G36*
X2617280Y1320020D02*
G01*
X2607460Y1317980D01*
X2620179Y1305260D01*
X2622240Y1315080D01*
G37*
G36*
X2254340Y2487100D02*
G01*
X2254340Y2436900D01*
X2277760Y2458000D01*
X2277760Y2466000D01*
G37*
G36*
X2254340Y2187100D02*
G01*
X2254340Y2136900D01*
X2277760Y2158500D01*
X2277760Y2165500D01*
G37*
G36*
X2254340Y2087100D02*
G01*
X2254340Y2036900D01*
X2277760Y2058500D01*
X2277760Y2065500D01*
G37*
G36*
X2254340Y1987100D02*
G01*
X2254340Y1936900D01*
X2277760Y1958500D01*
X2277760Y1965500D01*
G37*
G36*
X2265600Y1864100D02*
G01*
X2230120Y1828600D01*
X2261940Y1827300D01*
X2266900Y1832260D01*
G37*
G36*
X2265600Y1764100D02*
G01*
X2230120Y1728600D01*
X2261940Y1727300D01*
X2266900Y1732260D01*
G37*
G36*
X2265600Y1664100D02*
G01*
X2230120Y1628600D01*
X2261940Y1627300D01*
X2266900Y1632260D01*
G37*
G36*
X2265600Y1564100D02*
G01*
X2230120Y1528600D01*
X2261940Y1527300D01*
X2266900Y1532260D01*
G37*
G36*
X2254340Y1487100D02*
G01*
X2254340Y1436900D01*
X2277760Y1458500D01*
X2277760Y1465500D01*
G37*
G36*
X2261940Y1396699D02*
G01*
X2230120Y1395400D01*
X2265600Y1359900D01*
X2266900Y1391740D01*
G37*
G36*
X2261600Y1297040D02*
G01*
X2230120Y1295400D01*
X2265600Y1259900D01*
X2267260Y1291380D01*
G37*
G36*
X2261940Y1196700D02*
G01*
X2230120Y1195400D01*
X2265600Y1159900D01*
X2266900Y1191740D01*
G37*
G36*
X2798820Y2164100D02*
G01*
X2797520Y2132260D01*
X2802460Y2127320D01*
X2834300Y2128600D01*
G37*
G36*
X2800480Y1951360D02*
G01*
X2811019Y1921500D01*
X2817980Y1918560D01*
X2846740Y1931840D01*
G37*
G36*
X2804000Y1880000D02*
G01*
X2787320Y1853260D01*
X2789540Y1845560D01*
X2817880Y1831759D01*
G37*
G36*
X2810080Y1787100D02*
G01*
X2786660Y1765500D01*
X2786660Y1758500D01*
X2810080Y1736900D01*
G37*
G36*
X2804700Y1698500D02*
G01*
X2799440Y1693860D01*
X2798740Y1662000D01*
X2836400Y1695200D01*
G37*
G36*
X2810080Y1587100D02*
G01*
X2786660Y1565500D01*
X2786660Y1558500D01*
X2810080Y1536900D01*
G37*
G36*
X2807940Y1500720D02*
G01*
X2802260Y1496500D01*
X2798860Y1464840D01*
X2839200Y1494720D01*
G37*
G36*
X2827000Y1395060D02*
G01*
X2795680Y1389460D01*
X2791840Y1383420D01*
X2800059Y1352700D01*
G37*
G36*
X2805299Y1299520D02*
G01*
X2794680Y1288920D01*
X2798820Y1259900D01*
X2834300Y1295400D01*
G37*
G36*
X2802820Y1197040D02*
G01*
X2797160Y1191380D01*
X2798820Y1159900D01*
X2834300Y1195400D01*
G37*
G36*
X2267460Y1202200D02*
G01*
X2265840Y1200880D01*
X2263820Y1199680D01*
X2261380Y1198640D01*
X2258500Y1197760D01*
X2255220Y1197000D01*
X2251520Y1196400D01*
X2237920Y1195480D01*
X2232540Y1195460D01*
X2265660Y1162340D01*
X2265680Y1167700D01*
X2265840Y1172660D01*
X2266620Y1181320D01*
X2267220Y1185020D01*
X2267960Y1188300D01*
X2268860Y1191160D01*
X2269900Y1193620D01*
X2271080Y1195640D01*
X2272420Y1197260D01*
G37*
G36*
X2267060Y1302520D02*
G01*
X2265400Y1301120D01*
X2263340Y1299900D01*
X2260880Y1298800D01*
X2258020Y1297880D01*
X2254780Y1297100D01*
X2251120Y1296459D01*
X2237780Y1295480D01*
X2232540Y1295460D01*
X2265660Y1262340D01*
X2265700Y1267580D01*
X2266180Y1276860D01*
X2266660Y1280920D01*
X2267300Y1284560D01*
X2268080Y1287820D01*
X2269020Y1290680D01*
X2270100Y1293140D01*
X2271340Y1295200D01*
X2272720Y1296860D01*
G37*
G36*
X2267460Y1402200D02*
G01*
X2265840Y1400880D01*
X2263820Y1399680D01*
X2261380Y1398640D01*
X2258500Y1397760D01*
X2255220Y1397000D01*
X2251520Y1396399D01*
X2237920Y1395480D01*
X2232540Y1395460D01*
X2265660Y1362340D01*
X2265680Y1367700D01*
X2265840Y1372660D01*
X2266620Y1381320D01*
X2267220Y1385020D01*
X2267960Y1388300D01*
X2268860Y1391160D01*
X2269900Y1393620D01*
X2271080Y1395640D01*
X2272420Y1397260D01*
G37*
G36*
X2256100Y1485420D02*
G01*
X2256100Y1438580D01*
X2259920Y1442360D01*
X2263540Y1445740D01*
X2270200Y1451320D01*
X2273240Y1453520D01*
X2276080Y1455320D01*
X2278740Y1456699D01*
X2281200Y1457700D01*
X2283480Y1458300D01*
X2285560Y1458500D01*
X2285560Y1465500D01*
X2283480Y1465700D01*
X2281200Y1466300D01*
X2278740Y1467300D01*
X2276080Y1468680D01*
X2273240Y1470480D01*
X2270200Y1472680D01*
X2259920Y1481639D01*
G37*
G36*
X2265660Y1561660D02*
G01*
X2232540Y1528540D01*
X2237920Y1528520D01*
X2242860Y1528360D01*
X2251520Y1527600D01*
X2255220Y1527000D01*
X2258500Y1526240D01*
X2261380Y1525360D01*
X2263820Y1524319D01*
X2265840Y1523120D01*
X2267460Y1521800D01*
X2272420Y1526740D01*
X2271080Y1528360D01*
X2269900Y1530380D01*
X2268860Y1532840D01*
X2267960Y1535700D01*
X2267220Y1538980D01*
X2266620Y1542680D01*
X2265680Y1556300D01*
G37*
G36*
X2265660Y1661660D02*
G01*
X2232540Y1628540D01*
X2237920Y1628520D01*
X2242860Y1628360D01*
X2251520Y1627600D01*
X2255220Y1627000D01*
X2258500Y1626240D01*
X2261380Y1625360D01*
X2263820Y1624319D01*
X2265840Y1623120D01*
X2267460Y1621800D01*
X2272420Y1626740D01*
X2271080Y1628360D01*
X2269900Y1630380D01*
X2268860Y1632840D01*
X2267960Y1635700D01*
X2267220Y1638980D01*
X2266620Y1642680D01*
X2265680Y1656300D01*
G37*
G36*
X2265660Y1761660D02*
G01*
X2232540Y1728540D01*
X2237920Y1728520D01*
X2242860Y1728360D01*
X2251520Y1727600D01*
X2255220Y1727000D01*
X2258500Y1726240D01*
X2261380Y1725360D01*
X2263820Y1724319D01*
X2265840Y1723120D01*
X2267460Y1721800D01*
X2272420Y1726740D01*
X2271080Y1728360D01*
X2269900Y1730380D01*
X2268860Y1732840D01*
X2267960Y1735700D01*
X2267220Y1738980D01*
X2266620Y1742680D01*
X2265680Y1756300D01*
G37*
G36*
X2265660Y1861660D02*
G01*
X2232540Y1828540D01*
X2237920Y1828520D01*
X2242860Y1828360D01*
X2251520Y1827600D01*
X2255220Y1827000D01*
X2258500Y1826240D01*
X2261380Y1825360D01*
X2263820Y1824319D01*
X2265840Y1823120D01*
X2267460Y1821800D01*
X2272420Y1826740D01*
X2271080Y1828360D01*
X2269900Y1830380D01*
X2268860Y1832840D01*
X2267960Y1835700D01*
X2267220Y1838980D01*
X2266620Y1842680D01*
X2265680Y1856300D01*
G37*
G36*
X2256100Y1985420D02*
G01*
X2256100Y1938580D01*
X2259920Y1942360D01*
X2263540Y1945740D01*
X2270200Y1951320D01*
X2273240Y1953520D01*
X2276080Y1955320D01*
X2278740Y1956699D01*
X2281200Y1957700D01*
X2283480Y1958300D01*
X2285560Y1958500D01*
X2285560Y1965500D01*
X2283480Y1965700D01*
X2281200Y1966300D01*
X2278740Y1967300D01*
X2276080Y1968680D01*
X2273240Y1970480D01*
X2270200Y1972680D01*
X2259920Y1981639D01*
G37*
G36*
X2256100Y2085420D02*
G01*
X2256100Y2038580D01*
X2259920Y2042360D01*
X2263540Y2045740D01*
X2270200Y2051320D01*
X2273240Y2053520D01*
X2276080Y2055320D01*
X2278740Y2056699D01*
X2281200Y2057700D01*
X2283480Y2058300D01*
X2285560Y2058500D01*
X2285560Y2065500D01*
X2283480Y2065700D01*
X2281200Y2066300D01*
X2278740Y2067300D01*
X2276080Y2068680D01*
X2273240Y2070480D01*
X2270200Y2072680D01*
X2259920Y2081639D01*
G37*
G36*
X2256100Y2185420D02*
G01*
X2256100Y2138580D01*
X2259920Y2142360D01*
X2263540Y2145740D01*
X2270200Y2151320D01*
X2273240Y2153520D01*
X2276080Y2155320D01*
X2278740Y2156700D01*
X2281200Y2157700D01*
X2283480Y2158300D01*
X2285560Y2158500D01*
X2285560Y2165500D01*
X2283480Y2165700D01*
X2281200Y2166300D01*
X2278740Y2167300D01*
X2276080Y2168680D01*
X2273240Y2170480D01*
X2270200Y2172680D01*
X2259920Y2181640D01*
G37*
G36*
X2256100Y2485420D02*
G01*
X2256100Y2438580D01*
X2259820Y2442260D01*
X2266740Y2448480D01*
X2269940Y2451000D01*
X2272980Y2453140D01*
X2275820Y2454900D01*
X2278500Y2456260D01*
X2281020Y2457220D01*
X2283340Y2457800D01*
X2285500Y2458000D01*
X2285500Y2466000D01*
X2283340Y2466200D01*
X2281020Y2466780D01*
X2278500Y2467740D01*
X2275820Y2469100D01*
X2272980Y2470860D01*
X2269940Y2473000D01*
X2259820Y2481740D01*
G37*
G36*
X2797340Y1202520D02*
G01*
X2791680Y1196860D01*
X2793080Y1195200D01*
X2794320Y1193140D01*
X2795400Y1190680D01*
X2796340Y1187820D01*
X2797120Y1184560D01*
X2797740Y1180920D01*
X2798720Y1167580D01*
X2798740Y1162340D01*
X2831880Y1195460D01*
X2826640Y1195480D01*
X2817340Y1195980D01*
X2813300Y1196460D01*
X2809640Y1197100D01*
X2806380Y1197880D01*
X2803519Y1198800D01*
X2801060Y1199900D01*
X2799000Y1201120D01*
G37*
G36*
X2800260Y1304560D02*
G01*
X2789640Y1293959D01*
X2791420Y1291960D01*
X2793000Y1289700D01*
X2794380Y1287200D01*
X2795580Y1284420D01*
X2796580Y1281380D01*
X2797400Y1278100D01*
X2798020Y1274540D01*
X2798700Y1266660D01*
X2798740Y1262340D01*
X2831880Y1295460D01*
X2827540Y1295520D01*
X2823480Y1295760D01*
X2819660Y1296180D01*
X2816100Y1296819D01*
X2812820Y1297620D01*
X2809780Y1298640D01*
X2807020Y1299820D01*
X2804500Y1301220D01*
X2802240Y1302800D01*
G37*
G36*
X2790260Y1394900D02*
G01*
X2786860Y1388400D01*
X2787640Y1387400D01*
X2798260Y1358600D01*
X2800140Y1352420D01*
X2821980Y1393860D01*
X2817480Y1392540D01*
X2813279Y1391519D01*
X2809360Y1390820D01*
X2805760Y1390460D01*
X2802440Y1390400D01*
X2799400Y1390660D01*
X2796680Y1391240D01*
X2794240Y1392140D01*
X2792100Y1393360D01*
G37*
G36*
X2802700Y1505960D02*
G01*
X2796740Y1502020D01*
X2798220Y1500240D01*
X2799440Y1498120D01*
X2800380Y1495640D01*
X2801060Y1492860D01*
X2801480Y1489720D01*
X2801620Y1486260D01*
X2801500Y1482460D01*
X2800419Y1473860D01*
X2799500Y1469040D01*
X2838600Y1494840D01*
X2827320Y1497200D01*
X2818080Y1499500D01*
X2810899Y1501720D01*
X2808080Y1502800D01*
X2805779Y1503880D01*
X2803980Y1504920D01*
G37*
G36*
X2802080Y1576579D02*
G01*
X2800960Y1574480D01*
X2799740Y1572580D01*
X2798399Y1570920D01*
X2796980Y1569480D01*
X2795440Y1568260D01*
X2793820Y1567280D01*
X2792080Y1566500D01*
X2790240Y1565940D01*
X2788300Y1565620D01*
X2786240Y1565500D01*
X2786240Y1558500D01*
X2788300Y1558380D01*
X2790240Y1558060D01*
X2792080Y1557500D01*
X2793820Y1556720D01*
X2795440Y1555740D01*
X2796980Y1554520D01*
X2798399Y1553080D01*
X2799740Y1551420D01*
X2800960Y1549520D01*
X2802080Y1547420D01*
G37*
G36*
X2799280Y1703920D02*
G01*
X2793900Y1699400D01*
X2795299Y1697700D01*
X2796520Y1695620D01*
X2797520Y1693160D01*
X2798320Y1690300D01*
X2798920Y1687080D01*
X2799320Y1683460D01*
X2799520Y1679460D01*
X2799300Y1670340D01*
X2798900Y1665200D01*
X2834740Y1695360D01*
X2824000Y1696420D01*
X2819320Y1697060D01*
X2811320Y1698600D01*
X2808000Y1699500D01*
X2805140Y1700480D01*
X2802720Y1701560D01*
X2800779Y1702700D01*
G37*
G36*
X2808300Y1785420D02*
G01*
X2804500Y1781639D01*
X2800880Y1778260D01*
X2794220Y1772680D01*
X2791180Y1770480D01*
X2788320Y1768680D01*
X2785659Y1767300D01*
X2783200Y1766300D01*
X2780920Y1765700D01*
X2778840Y1765500D01*
X2778840Y1758500D01*
X2780920Y1758300D01*
X2783200Y1757700D01*
X2785659Y1756699D01*
X2788320Y1755320D01*
X2791180Y1753520D01*
X2794220Y1751320D01*
X2804500Y1742360D01*
X2808300Y1738580D01*
G37*
G36*
X2804420Y1880660D02*
G01*
X2784660Y1851519D01*
X2782140Y1848080D01*
X2785200Y1841220D01*
X2787140Y1842880D01*
X2789220Y1844079D01*
X2791400Y1844820D01*
X2793680Y1845100D01*
X2796100Y1844920D01*
X2798620Y1844259D01*
X2801280Y1843160D01*
X2804040Y1841579D01*
X2806920Y1839540D01*
X2809900Y1837060D01*
G37*
G36*
X2803660Y1944560D02*
G01*
X2805760Y1940880D01*
X2807440Y1937380D01*
X2808720Y1934100D01*
X2809580Y1931000D01*
X2810020Y1928100D01*
X2810059Y1925400D01*
X2809680Y1922900D01*
X2808900Y1920580D01*
X2807679Y1918460D01*
X2806060Y1916540D01*
X2814000Y1914580D01*
X2847600Y1932280D01*
G37*
G36*
X2798740Y2161660D02*
G01*
X2798720Y2156300D01*
X2798560Y2151340D01*
X2797799Y2142680D01*
X2797200Y2138980D01*
X2796440Y2135700D01*
X2795560Y2132840D01*
X2794520Y2130380D01*
X2793340Y2128360D01*
X2792000Y2126740D01*
X2796940Y2121800D01*
X2798560Y2123120D01*
X2800600Y2124320D01*
X2803039Y2125360D01*
X2805899Y2126240D01*
X2809200Y2127000D01*
X2812900Y2127600D01*
X2826500Y2128520D01*
X2831880Y2128540D01*
G37*
G36*
X2632260Y1339960D02*
G01*
X2632840Y1339580D01*
X2633180Y1339079D01*
X2633260Y1338440D01*
X2633120Y1337660D01*
X2632760Y1336740D01*
X2632140Y1335680D01*
X2631280Y1334480D01*
X2628880Y1331680D01*
X2627320Y1330060D01*
X2634660Y1327500D01*
X2638600Y1331279D01*
X2641520Y1333740D01*
X2642900Y1334620D01*
X2643420Y1334840D01*
X2643840Y1334920D01*
G37*
G36*
X2620440Y1334920D02*
G01*
X2620880Y1334860D01*
X2621259Y1334640D01*
X2621620Y1334300D01*
X2622160Y1333180D01*
X2622520Y1331500D01*
X2622740Y1327920D01*
X2629740Y1327920D01*
X2629820Y1330440D01*
X2630100Y1332400D01*
X2630299Y1333180D01*
X2630860Y1334300D01*
X2631200Y1334640D01*
X2631580Y1334860D01*
X2632020Y1334920D01*
G37*
G36*
X2563680Y1386960D02*
G01*
X2563480Y1383380D01*
X2563100Y1381699D01*
X2562860Y1381080D01*
X2562559Y1380580D01*
X2562220Y1380240D01*
X2561820Y1380020D01*
X2561400Y1379960D01*
X2572960Y1379960D01*
X2572540Y1380020D01*
X2572140Y1380240D01*
X2571800Y1380580D01*
X2571500Y1381080D01*
X2571040Y1382480D01*
X2570880Y1383380D01*
X2570700Y1385620D01*
X2570680Y1386960D01*
G37*
G36*
X2561400Y1334920D02*
G01*
X2558000Y1329379D01*
X2566660Y1328640D01*
X2568080Y1330900D01*
X2569420Y1332660D01*
X2570700Y1333920D01*
X2571880Y1334680D01*
X2572420Y1334860D01*
X2572960Y1334920D01*
G37*
G36*
X2548140Y1386440D02*
G01*
X2539980Y1385980D01*
X2541540Y1382080D01*
X2541880Y1380880D01*
X2541940Y1380140D01*
X2541860Y1379960D01*
X2541700Y1379900D01*
X2553280Y1379900D01*
X2552820Y1379960D01*
X2552340Y1380160D01*
X2551360Y1380940D01*
X2550340Y1382260D01*
X2549820Y1383100D01*
G37*
G36*
X2522020Y1334920D02*
G01*
X2522560Y1334860D01*
X2523120Y1334680D01*
X2524300Y1333920D01*
X2525560Y1332660D01*
X2526220Y1331840D01*
X2528340Y1328640D01*
X2536980Y1329379D01*
X2533600Y1334920D01*
G37*
G36*
X2507480Y1386440D02*
G01*
X2505800Y1383100D01*
X2504760Y1381540D01*
X2503740Y1380480D01*
X2502800Y1379960D01*
X2502340Y1379900D01*
X2513900Y1379900D01*
X2513980Y1380820D01*
X2514340Y1382480D01*
X2515300Y1385220D01*
X2515640Y1385980D01*
G37*
G36*
X2504620Y1386900D02*
G01*
X2504420Y1383320D01*
X2504040Y1381639D01*
X2503800Y1381020D01*
X2503500Y1380520D01*
X2503160Y1380180D01*
X2502760Y1379960D01*
X2502340Y1379900D01*
X2513900Y1379900D01*
X2513480Y1379960D01*
X2513080Y1380180D01*
X2512740Y1380520D01*
X2512440Y1381020D01*
X2511980Y1382420D01*
X2511820Y1383320D01*
X2511640Y1385560D01*
X2511620Y1386900D01*
G37*
G36*
X2443280Y1334760D02*
G01*
X2443720Y1334700D01*
X2444100Y1334480D01*
X2444460Y1334139D01*
X2445000Y1333020D01*
X2445360Y1331339D01*
X2445580Y1327760D01*
X2452580Y1327760D01*
X2452660Y1330280D01*
X2452940Y1332240D01*
X2453140Y1333020D01*
X2453700Y1334139D01*
X2454040Y1334480D01*
X2454420Y1334700D01*
X2454860Y1334760D01*
G37*
G36*
X2595520Y1884160D02*
G01*
X2592880Y1881699D01*
X2591700Y1880760D01*
X2589620Y1879460D01*
X2588720Y1879079D01*
X2587900Y1878899D01*
X2587200Y1878920D01*
X2586580Y1879120D01*
X2586040Y1879500D01*
X2595800Y1869740D01*
X2595419Y1870260D01*
X2595220Y1870880D01*
X2595220Y1871600D01*
X2595400Y1872400D01*
X2595760Y1873300D01*
X2596320Y1874300D01*
X2597080Y1875380D01*
X2599140Y1877840D01*
X2600460Y1879199D01*
G37*
G36*
X2563759Y1814079D02*
G01*
X2564200Y1813460D01*
X2564400Y1812740D01*
X2564380Y1811900D01*
X2564140Y1810940D01*
X2563680Y1809860D01*
X2562980Y1808660D01*
X2562060Y1807360D01*
X2559520Y1804379D01*
X2557920Y1802720D01*
X2563580Y1797080D01*
X2566780Y1800060D01*
X2568200Y1801200D01*
X2569520Y1802120D01*
X2570720Y1802820D01*
X2571780Y1803300D01*
X2572740Y1803540D01*
X2573600Y1803560D01*
X2574320Y1803340D01*
X2574920Y1802900D01*
G37*
G36*
X2586019Y1791800D02*
G01*
X2586460Y1791200D01*
X2586680Y1790460D01*
X2586660Y1789620D01*
X2586420Y1788660D01*
X2585940Y1787580D01*
X2585240Y1786399D01*
X2584320Y1785080D01*
X2581800Y1782120D01*
X2580200Y1780460D01*
X2585860Y1774800D01*
X2589060Y1777780D01*
X2590480Y1778940D01*
X2591780Y1779860D01*
X2592980Y1780560D01*
X2594060Y1781020D01*
X2595020Y1781260D01*
X2595860Y1781279D01*
X2596580Y1781080D01*
X2597200Y1780640D01*
G37*
G36*
X2662320Y1817340D02*
G01*
X2659680Y1814900D01*
X2657420Y1813200D01*
X2656420Y1812640D01*
X2655520Y1812280D01*
X2654720Y1812100D01*
X2654000Y1812100D01*
X2653380Y1812300D01*
X2652860Y1812680D01*
X2662620Y1802920D01*
X2662240Y1803460D01*
X2662040Y1804079D01*
X2662020Y1804780D01*
X2662220Y1805600D01*
X2662580Y1806500D01*
X2663140Y1807480D01*
X2663900Y1808580D01*
X2665960Y1811020D01*
X2667280Y1812400D01*
G37*
G36*
X2684600Y1795060D02*
G01*
X2681960Y1792620D01*
X2680779Y1791680D01*
X2679700Y1790940D01*
X2678700Y1790380D01*
X2677799Y1790000D01*
X2677000Y1789820D01*
X2676280Y1789840D01*
X2675659Y1790020D01*
X2675140Y1790420D01*
X2684900Y1780660D01*
X2684500Y1781180D01*
X2684300Y1781800D01*
X2684300Y1782520D01*
X2684480Y1783320D01*
X2684860Y1784220D01*
X2685419Y1785220D01*
X2686160Y1786300D01*
X2688220Y1788760D01*
X2689540Y1790120D01*
G37*
G36*
X2706860Y1772800D02*
G01*
X2704240Y1770360D01*
X2701960Y1768660D01*
X2700980Y1768100D01*
X2700080Y1767740D01*
X2699260Y1767560D01*
X2698560Y1767560D01*
X2697940Y1767760D01*
X2697400Y1768140D01*
X2707160Y1758380D01*
X2706780Y1758920D01*
X2706580Y1759540D01*
X2706580Y1760240D01*
X2706760Y1761060D01*
X2707120Y1761960D01*
X2707679Y1762940D01*
X2708440Y1764040D01*
X2710500Y1766480D01*
X2711820Y1767840D01*
G37*
G36*
X2729140Y1750520D02*
G01*
X2726500Y1748080D01*
X2725320Y1747140D01*
X2724240Y1746399D01*
X2723240Y1745840D01*
X2722340Y1745460D01*
X2721540Y1745280D01*
X2720820Y1745280D01*
X2720200Y1745480D01*
X2719680Y1745880D01*
X2729440Y1736120D01*
X2729040Y1736639D01*
X2728840Y1737260D01*
X2728840Y1737980D01*
X2729020Y1738779D01*
X2729400Y1739680D01*
X2729960Y1740680D01*
X2730700Y1741759D01*
X2732780Y1744220D01*
X2734080Y1745580D01*
G37*
G36*
X2751420Y1728260D02*
G01*
X2748780Y1725820D01*
X2746500Y1724120D01*
X2745520Y1723560D01*
X2744620Y1723200D01*
X2743800Y1723000D01*
X2743100Y1723020D01*
X2742480Y1723220D01*
X2741940Y1723600D01*
X2751700Y1713839D01*
X2751320Y1714360D01*
X2751120Y1714980D01*
X2751120Y1715700D01*
X2751300Y1716500D01*
X2751660Y1717400D01*
X2752220Y1718400D01*
X2752980Y1719480D01*
X2755040Y1721940D01*
X2756360Y1723300D01*
G37*
G36*
X2751700Y1606300D02*
G01*
X2741940Y1596540D01*
X2742480Y1596940D01*
X2743100Y1597120D01*
X2743800Y1597140D01*
X2744620Y1596960D01*
X2745520Y1596579D01*
X2747600Y1595280D01*
X2750040Y1593200D01*
X2751420Y1591879D01*
X2756360Y1596840D01*
X2753920Y1599480D01*
X2752220Y1601740D01*
X2751660Y1602740D01*
X2751300Y1603640D01*
X2751120Y1604440D01*
X2751120Y1605160D01*
X2751320Y1605780D01*
G37*
G36*
X2729440Y1584040D02*
G01*
X2719680Y1574280D01*
X2720200Y1574660D01*
X2720820Y1574860D01*
X2721540Y1574860D01*
X2722340Y1574680D01*
X2723240Y1574319D01*
X2724240Y1573760D01*
X2725320Y1573000D01*
X2727780Y1570940D01*
X2729140Y1569620D01*
X2734080Y1574560D01*
X2731640Y1577200D01*
X2730700Y1578380D01*
X2729400Y1580460D01*
X2729020Y1581360D01*
X2728840Y1582180D01*
X2728840Y1582880D01*
X2729040Y1583500D01*
G37*
G36*
X2652780Y1611339D02*
G01*
X2647840Y1606380D01*
X2650280Y1603740D01*
X2651220Y1602560D01*
X2651960Y1601480D01*
X2652520Y1600480D01*
X2652900Y1599580D01*
X2653080Y1598779D01*
X2653080Y1598060D01*
X2652880Y1597440D01*
X2652480Y1596920D01*
X2662240Y1606680D01*
X2661720Y1606300D01*
X2661100Y1606100D01*
X2660380Y1606080D01*
X2659580Y1606260D01*
X2658680Y1606639D01*
X2657679Y1607200D01*
X2656600Y1607940D01*
X2654140Y1610020D01*
G37*
G36*
X2662620Y1517220D02*
G01*
X2652860Y1507460D01*
X2653380Y1507840D01*
X2654000Y1508040D01*
X2654720Y1508060D01*
X2655520Y1507860D01*
X2656420Y1507500D01*
X2657420Y1506940D01*
X2658500Y1506180D01*
X2660960Y1504120D01*
X2662320Y1502800D01*
X2667280Y1507760D01*
X2664820Y1510400D01*
X2663140Y1512660D01*
X2662580Y1513660D01*
X2662220Y1514560D01*
X2662020Y1515360D01*
X2662040Y1516080D01*
X2662240Y1516699D01*
G37*
G36*
X2585960Y1544520D02*
G01*
X2581019Y1539580D01*
X2583460Y1536940D01*
X2585160Y1534660D01*
X2585720Y1533680D01*
X2586080Y1532780D01*
X2586259Y1531960D01*
X2586259Y1531260D01*
X2586060Y1530640D01*
X2585680Y1530100D01*
X2595440Y1539860D01*
X2594900Y1539480D01*
X2594280Y1539280D01*
X2593580Y1539280D01*
X2592760Y1539460D01*
X2591860Y1539820D01*
X2590880Y1540380D01*
X2589780Y1541140D01*
X2587340Y1543200D01*
G37*
G36*
X2563460Y1528140D02*
G01*
X2552860Y1517540D01*
X2560880Y1509259D01*
X2562640Y1507260D01*
X2563560Y1505980D01*
X2563720Y1505640D01*
X2575360Y1517280D01*
G37*
G36*
X2595460Y1452180D02*
G01*
X2584280Y1441000D01*
X2584900Y1441440D01*
X2585620Y1441639D01*
X2586460Y1441639D01*
X2587420Y1441380D01*
X2588500Y1440920D01*
X2589700Y1440220D01*
X2591000Y1439300D01*
X2593980Y1436780D01*
X2595640Y1435160D01*
X2601280Y1440820D01*
X2598300Y1444019D01*
X2596240Y1446759D01*
X2595539Y1447960D01*
X2595059Y1449040D01*
X2594820Y1450000D01*
X2594800Y1450840D01*
X2595020Y1451560D01*
G37*
G36*
X2541300Y1500800D02*
G01*
X2535660Y1495140D01*
X2538640Y1491940D01*
X2539780Y1490520D01*
X2540700Y1489199D01*
X2541400Y1488020D01*
X2541880Y1486940D01*
X2542120Y1485980D01*
X2542140Y1485140D01*
X2541920Y1484400D01*
X2541480Y1483800D01*
X2552660Y1494980D01*
X2552040Y1494540D01*
X2551320Y1494319D01*
X2550480Y1494340D01*
X2549520Y1494580D01*
X2548440Y1495040D01*
X2547240Y1495740D01*
X2545940Y1496660D01*
X2542960Y1499199D01*
G37*
G36*
X2468760Y1450400D02*
G01*
X2469140Y1449880D01*
X2469340Y1449259D01*
X2469340Y1448540D01*
X2469160Y1447740D01*
X2468780Y1446840D01*
X2468220Y1445840D01*
X2467480Y1444760D01*
X2465420Y1442300D01*
X2464100Y1440940D01*
X2469040Y1436000D01*
X2471680Y1438440D01*
X2472860Y1439379D01*
X2473940Y1440120D01*
X2474940Y1440680D01*
X2475840Y1441060D01*
X2476640Y1441240D01*
X2477360Y1441240D01*
X2477980Y1441040D01*
X2478500Y1440640D01*
G37*
G36*
X2446840Y1474440D02*
G01*
X2447260Y1473839D01*
X2447480Y1473100D01*
X2447460Y1472260D01*
X2447220Y1471300D01*
X2446760Y1470220D01*
X2446060Y1469040D01*
X2445140Y1467720D01*
X2442600Y1464760D01*
X2441000Y1463100D01*
X2446660Y1457440D01*
X2449860Y1460420D01*
X2451280Y1461579D01*
X2452600Y1462500D01*
X2453780Y1463200D01*
X2454860Y1463660D01*
X2455820Y1463899D01*
X2456660Y1463920D01*
X2457400Y1463700D01*
X2458000Y1463260D01*
G37*
G36*
X2424200Y1494940D02*
G01*
X2424600Y1494420D01*
X2424800Y1493800D01*
X2424800Y1493080D01*
X2424620Y1492280D01*
X2424240Y1491380D01*
X2423680Y1490380D01*
X2422940Y1489300D01*
X2420880Y1486840D01*
X2419560Y1485480D01*
X2424500Y1480540D01*
X2427140Y1482980D01*
X2428320Y1483920D01*
X2429400Y1484660D01*
X2430400Y1485220D01*
X2431300Y1485600D01*
X2432100Y1485780D01*
X2432820Y1485780D01*
X2433440Y1485580D01*
X2433960Y1485180D01*
G37*
G36*
X2401940Y1517220D02*
G01*
X2402320Y1516699D01*
X2402520Y1516080D01*
X2402520Y1515360D01*
X2402340Y1514560D01*
X2401980Y1513660D01*
X2401420Y1512660D01*
X2400660Y1511579D01*
X2398600Y1509120D01*
X2397280Y1507760D01*
X2402240Y1502800D01*
X2404860Y1505240D01*
X2407140Y1506940D01*
X2408120Y1507500D01*
X2409020Y1507860D01*
X2409840Y1508060D01*
X2410540Y1508040D01*
X2411160Y1507840D01*
X2411700Y1507460D01*
G37*
G36*
X2379660Y1539480D02*
G01*
X2380060Y1538959D01*
X2380260Y1538340D01*
X2380260Y1537620D01*
X2380080Y1536819D01*
X2379700Y1535920D01*
X2379140Y1534920D01*
X2378400Y1533839D01*
X2376320Y1531399D01*
X2375020Y1530020D01*
X2379960Y1525080D01*
X2382600Y1527520D01*
X2383780Y1528460D01*
X2384860Y1529199D01*
X2385860Y1529760D01*
X2386760Y1530140D01*
X2387560Y1530320D01*
X2388280Y1530320D01*
X2388900Y1530120D01*
X2389420Y1529740D01*
G37*
G36*
X2357400Y1561759D02*
G01*
X2357780Y1561240D01*
X2357980Y1560620D01*
X2357980Y1559900D01*
X2357800Y1559100D01*
X2357440Y1558200D01*
X2356880Y1557200D01*
X2356120Y1556120D01*
X2354060Y1553660D01*
X2352740Y1552300D01*
X2357680Y1547340D01*
X2360320Y1549800D01*
X2361500Y1550740D01*
X2363580Y1552040D01*
X2364480Y1552420D01*
X2365300Y1552600D01*
X2366000Y1552580D01*
X2366620Y1552380D01*
X2367160Y1552000D01*
G37*
G36*
X2335120Y1584040D02*
G01*
X2335520Y1583500D01*
X2335700Y1582880D01*
X2335720Y1582180D01*
X2335540Y1581360D01*
X2335160Y1580460D01*
X2333860Y1578380D01*
X2331780Y1575940D01*
X2330460Y1574560D01*
X2335420Y1569620D01*
X2338060Y1572060D01*
X2340320Y1573760D01*
X2341320Y1574319D01*
X2342220Y1574680D01*
X2343020Y1574860D01*
X2343740Y1574860D01*
X2344360Y1574660D01*
X2344880Y1574280D01*
G37*
G36*
X2331420Y1637600D02*
G01*
X2326460Y1632660D01*
X2328180Y1630740D01*
X2328820Y1629860D01*
X2329300Y1629040D01*
X2329620Y1628260D01*
X2329800Y1627540D01*
X2329840Y1626860D01*
X2329720Y1626240D01*
X2329440Y1625660D01*
X2329020Y1625140D01*
X2338920Y1635040D01*
X2338400Y1634620D01*
X2337840Y1634360D01*
X2337220Y1634240D01*
X2336540Y1634259D01*
X2335820Y1634440D01*
X2334200Y1635260D01*
X2332400Y1636680D01*
G37*
G36*
X2313140Y1728260D02*
G01*
X2308200Y1723300D01*
X2310640Y1720660D01*
X2312340Y1718400D01*
X2312900Y1717400D01*
X2313260Y1716500D01*
X2313440Y1715700D01*
X2313440Y1714980D01*
X2313240Y1714360D01*
X2312860Y1713839D01*
X2322620Y1723600D01*
X2322080Y1723220D01*
X2321460Y1723020D01*
X2320760Y1723000D01*
X2319940Y1723200D01*
X2319040Y1723560D01*
X2318060Y1724120D01*
X2316960Y1724880D01*
X2314520Y1726940D01*
G37*
G36*
X2411760Y1725420D02*
G01*
X2400120Y1713779D01*
X2412020Y1702920D01*
X2422620Y1713520D01*
X2414600Y1721800D01*
X2412280Y1724540D01*
G37*
G36*
X2446780Y1861879D02*
G01*
X2441820Y1856940D01*
X2444260Y1854300D01*
X2445960Y1852020D01*
X2446520Y1851040D01*
X2446880Y1850140D01*
X2447080Y1849319D01*
X2447060Y1848620D01*
X2446860Y1848000D01*
X2446480Y1847460D01*
X2456240Y1857220D01*
X2455720Y1856840D01*
X2455100Y1856639D01*
X2454380Y1856639D01*
X2453560Y1856819D01*
X2452660Y1857180D01*
X2451680Y1857740D01*
X2450600Y1858500D01*
X2448140Y1860560D01*
G37*
G36*
X2469040Y1884160D02*
G01*
X2464100Y1879199D01*
X2466540Y1876560D01*
X2467480Y1875380D01*
X2468220Y1874300D01*
X2468780Y1873300D01*
X2469160Y1872400D01*
X2469340Y1871600D01*
X2469340Y1870880D01*
X2469140Y1870260D01*
X2468760Y1869740D01*
X2478500Y1879500D01*
X2477980Y1879120D01*
X2477360Y1878920D01*
X2476640Y1878899D01*
X2475840Y1879079D01*
X2474940Y1879460D01*
X2473940Y1880020D01*
X2472860Y1880760D01*
X2470420Y1882840D01*
G37*
G36*
X2429540Y2227700D02*
G01*
X2429540Y2197940D01*
X2429700Y2199340D01*
X2430140Y2200600D01*
X2430900Y2201700D01*
X2431940Y2202660D01*
X2433300Y2203480D01*
X2434940Y2204140D01*
X2436900Y2204660D01*
X2439140Y2205020D01*
X2441700Y2205240D01*
X2444540Y2205320D01*
X2444540Y2220320D01*
X2441700Y2220400D01*
X2439140Y2220620D01*
X2436900Y2220980D01*
X2434940Y2221500D01*
X2433300Y2222160D01*
X2431940Y2222980D01*
X2430900Y2223940D01*
X2430140Y2225040D01*
X2429700Y2226300D01*
G37*
G36*
X2411160Y2285880D02*
G01*
X2411020Y2283320D01*
X2410600Y2281320D01*
X2410280Y2280540D01*
X2409900Y2279900D01*
X2409440Y2279400D01*
X2408920Y2279040D01*
X2408320Y2278840D01*
X2407660Y2278760D01*
X2421660Y2278760D01*
X2421000Y2278840D01*
X2420400Y2279040D01*
X2419880Y2279400D01*
X2419420Y2279900D01*
X2419040Y2280540D01*
X2418720Y2281320D01*
X2418300Y2283320D01*
X2418160Y2285880D01*
G37*
G36*
X2481040Y2226700D02*
G01*
X2480900Y2225480D01*
X2480440Y2224400D01*
X2479700Y2223440D01*
X2478640Y2222620D01*
X2477300Y2221920D01*
X2475640Y2221340D01*
X2473700Y2220900D01*
X2471440Y2220580D01*
X2468900Y2220380D01*
X2466040Y2220320D01*
X2466040Y2205320D01*
X2468900Y2205240D01*
X2471440Y2205020D01*
X2473700Y2204640D01*
X2475640Y2204120D01*
X2477300Y2203440D01*
X2478640Y2202620D01*
X2479700Y2201640D01*
X2480440Y2200520D01*
X2480900Y2199240D01*
X2481040Y2197820D01*
G37*
G36*
X2510800Y2226700D02*
G01*
X2510680Y2197820D01*
X2510840Y2199240D01*
X2511300Y2200520D01*
X2512060Y2201640D01*
X2513120Y2202620D01*
X2514480Y2203440D01*
X2516140Y2204120D01*
X2518100Y2204640D01*
X2520380Y2205020D01*
X2522940Y2205240D01*
X2525800Y2205320D01*
X2525800Y2220320D01*
X2522960Y2220380D01*
X2520400Y2220580D01*
X2518160Y2220900D01*
X2516200Y2221340D01*
X2514560Y2221920D01*
X2513200Y2222620D01*
X2512160Y2223440D01*
X2511400Y2224400D01*
X2510960Y2225480D01*
G37*
G36*
X2492420Y2284880D02*
G01*
X2492280Y2282320D01*
X2491860Y2280320D01*
X2491540Y2279540D01*
X2491160Y2278900D01*
X2490700Y2278400D01*
X2490180Y2278040D01*
X2489580Y2277840D01*
X2488920Y2277760D01*
X2502920Y2277760D01*
X2502260Y2277840D01*
X2501660Y2278040D01*
X2501140Y2278400D01*
X2500680Y2278900D01*
X2500300Y2279540D01*
X2499980Y2280320D01*
X2499560Y2282320D01*
X2499420Y2284880D01*
G37*
G36*
X2563200Y2197060D02*
G01*
X2564640Y2196900D01*
X2565899Y2196440D01*
X2567040Y2195680D01*
X2568000Y2194620D01*
X2568840Y2193260D01*
X2569500Y2191600D01*
X2570040Y2189640D01*
X2570400Y2187380D01*
X2570640Y2184800D01*
X2570700Y2181940D01*
X2585700Y2181940D01*
X2585760Y2184780D01*
X2585960Y2187340D01*
X2586280Y2189580D01*
X2586720Y2191540D01*
X2587300Y2193180D01*
X2588000Y2194540D01*
X2588820Y2195580D01*
X2589780Y2196340D01*
X2590860Y2196780D01*
X2592060Y2196940D01*
G37*
G36*
X2562300Y2226700D02*
G01*
X2562160Y2225480D01*
X2561700Y2224400D01*
X2560960Y2223440D01*
X2559900Y2222620D01*
X2558560Y2221920D01*
X2556900Y2221340D01*
X2554960Y2220900D01*
X2552700Y2220580D01*
X2550160Y2220380D01*
X2547300Y2220320D01*
X2547300Y2205320D01*
X2550160Y2205240D01*
X2552700Y2205020D01*
X2554960Y2204640D01*
X2556900Y2204120D01*
X2558560Y2203440D01*
X2559900Y2202620D01*
X2560960Y2201640D01*
X2561700Y2200520D01*
X2562160Y2199240D01*
X2562300Y2197820D01*
G37*
G36*
X2573680Y2284880D02*
G01*
X2573540Y2282320D01*
X2573120Y2280320D01*
X2572799Y2279540D01*
X2572420Y2278900D01*
X2571960Y2278400D01*
X2571440Y2278040D01*
X2570840Y2277840D01*
X2570179Y2277760D01*
X2584180Y2277760D01*
X2583519Y2277840D01*
X2582919Y2278040D01*
X2582400Y2278400D01*
X2581940Y2278900D01*
X2581560Y2279540D01*
X2581240Y2280320D01*
X2580820Y2282320D01*
X2580680Y2284880D01*
G37*
G36*
X2650440Y2197060D02*
G01*
X2651200Y2196980D01*
X2651880Y2196740D01*
X2652480Y2196320D01*
X2653000Y2195760D01*
X2653440Y2195020D01*
X2653800Y2194140D01*
X2654080Y2193080D01*
X2654400Y2190480D01*
X2654440Y2188940D01*
X2662440Y2188940D01*
X2662600Y2191860D01*
X2662799Y2193080D01*
X2663080Y2194140D01*
X2663440Y2195020D01*
X2663880Y2195760D01*
X2664400Y2196320D01*
X2665000Y2196740D01*
X2665680Y2196980D01*
X2666440Y2197060D01*
G37*
G36*
X2654940Y2284880D02*
G01*
X2654800Y2282320D01*
X2654380Y2280320D01*
X2654060Y2279540D01*
X2653680Y2278900D01*
X2653220Y2278400D01*
X2652700Y2278040D01*
X2652100Y2277840D01*
X2651440Y2277760D01*
X2665440Y2277760D01*
X2664780Y2277840D01*
X2664180Y2278040D01*
X2663660Y2278400D01*
X2663200Y2278900D01*
X2662820Y2279540D01*
X2662500Y2280320D01*
X2662080Y2282320D01*
X2661940Y2284880D01*
G37*
G36*
X2687700Y2100400D02*
G01*
X2687679Y2099060D01*
X2687400Y2096780D01*
X2686840Y2095060D01*
X2686440Y2094420D01*
X2686000Y2093920D01*
X2685460Y2093580D01*
X2684880Y2093360D01*
X2684200Y2093280D01*
X2698200Y2093280D01*
X2697540Y2093360D01*
X2696940Y2093580D01*
X2696420Y2093920D01*
X2695960Y2094420D01*
X2695580Y2095060D01*
X2695260Y2095860D01*
X2694840Y2097840D01*
X2694700Y2100400D01*
G37*
G36*
X2684200Y2034600D02*
G01*
X2684880Y2034520D01*
X2685460Y2034319D01*
X2686000Y2033959D01*
X2686440Y2033480D01*
X2686840Y2032840D01*
X2687400Y2031160D01*
X2687679Y2028920D01*
X2687700Y2027600D01*
X2694700Y2027600D01*
X2694840Y2030120D01*
X2695260Y2032080D01*
X2695580Y2032840D01*
X2695960Y2033480D01*
X2696420Y2033959D01*
X2696940Y2034319D01*
X2697540Y2034520D01*
X2698200Y2034600D01*
G37*
G36*
X2570179Y2340240D02*
G01*
X2570840Y2340160D01*
X2571440Y2339960D01*
X2571960Y2339600D01*
X2572420Y2339100D01*
X2572799Y2338460D01*
X2573120Y2337680D01*
X2573540Y2335680D01*
X2573680Y2333120D01*
X2580680Y2333120D01*
X2580820Y2335680D01*
X2581240Y2337680D01*
X2581560Y2338460D01*
X2581940Y2339100D01*
X2582400Y2339600D01*
X2582919Y2339960D01*
X2583519Y2340160D01*
X2584180Y2340240D01*
G37*
G36*
X2651440Y2340240D02*
G01*
X2652100Y2340160D01*
X2652700Y2339960D01*
X2653220Y2339600D01*
X2653680Y2339100D01*
X2654060Y2338460D01*
X2654380Y2337680D01*
X2654800Y2335680D01*
X2654940Y2333120D01*
X2661940Y2333120D01*
X2662080Y2335680D01*
X2662500Y2337680D01*
X2662820Y2338460D01*
X2663200Y2339100D01*
X2663660Y2339600D01*
X2664180Y2339960D01*
X2664780Y2340160D01*
X2665440Y2340240D01*
G37*
G36*
X2410660Y2507880D02*
G01*
X2410500Y2505000D01*
X2410300Y2503800D01*
X2410020Y2502760D01*
X2409660Y2501880D01*
X2409220Y2501160D01*
X2408700Y2500600D01*
X2408100Y2500200D01*
X2407420Y2499960D01*
X2406660Y2499880D01*
X2422660Y2499880D01*
X2421900Y2499960D01*
X2421220Y2500200D01*
X2420620Y2500600D01*
X2420100Y2501160D01*
X2419660Y2501880D01*
X2419300Y2502760D01*
X2419020Y2503800D01*
X2418700Y2506360D01*
X2418660Y2507880D01*
G37*
G36*
X2389900Y2470000D02*
G01*
X2389820Y2469240D01*
X2389580Y2468560D01*
X2389180Y2467960D01*
X2388600Y2467440D01*
X2387880Y2467000D01*
X2386980Y2466640D01*
X2385920Y2466360D01*
X2383320Y2466040D01*
X2381780Y2466000D01*
X2381780Y2458000D01*
X2384700Y2457840D01*
X2385920Y2457640D01*
X2386980Y2457360D01*
X2387880Y2457000D01*
X2388600Y2456560D01*
X2389180Y2456040D01*
X2389580Y2455440D01*
X2389820Y2454760D01*
X2389900Y2454000D01*
G37*
G36*
X2407660Y2340240D02*
G01*
X2408320Y2340160D01*
X2408920Y2339960D01*
X2409440Y2339600D01*
X2409900Y2339100D01*
X2410280Y2338460D01*
X2410600Y2337680D01*
X2411020Y2335680D01*
X2411160Y2333120D01*
X2418160Y2333120D01*
X2418300Y2335680D01*
X2418720Y2337680D01*
X2419040Y2338460D01*
X2419420Y2339100D01*
X2419880Y2339600D01*
X2420400Y2339960D01*
X2421000Y2340160D01*
X2421660Y2340240D01*
G37*
G36*
X2488920Y2340240D02*
G01*
X2489580Y2340160D01*
X2490180Y2339960D01*
X2490700Y2339600D01*
X2491160Y2339100D01*
X2491540Y2338460D01*
X2491860Y2337680D01*
X2492280Y2335680D01*
X2492420Y2333120D01*
X2499420Y2333120D01*
X2499560Y2335680D01*
X2499980Y2337680D01*
X2500300Y2338460D01*
X2500680Y2339100D01*
X2501140Y2339600D01*
X2501660Y2339960D01*
X2502260Y2340160D01*
X2502920Y2340240D01*
G37*
G36*
X2491920Y2507880D02*
G01*
X2491760Y2505000D01*
X2491560Y2503800D01*
X2491280Y2502760D01*
X2490920Y2501880D01*
X2490480Y2501160D01*
X2489960Y2500600D01*
X2489360Y2500200D01*
X2488680Y2499960D01*
X2487920Y2499880D01*
X2503920Y2499880D01*
X2503160Y2499960D01*
X2502480Y2500200D01*
X2501880Y2500600D01*
X2501360Y2501160D01*
X2500920Y2501880D01*
X2500560Y2502760D01*
X2500280Y2503800D01*
X2499960Y2506360D01*
X2499920Y2507880D01*
G37*
G36*
X2471160Y2456440D02*
G01*
X2471520Y2455740D01*
X2471700Y2454980D01*
X2471680Y2454140D01*
X2471480Y2453220D01*
X2471100Y2452200D01*
X2469740Y2449960D01*
X2467620Y2447400D01*
X2466280Y2446020D01*
X2471940Y2440360D01*
X2474260Y2442460D01*
X2475320Y2443240D01*
X2477180Y2444200D01*
X2478000Y2444400D01*
X2478740Y2444400D01*
X2479420Y2444220D01*
X2480000Y2443840D01*
X2480500Y2443260D01*
G37*
G36*
X2618940Y1321680D02*
G01*
X2617320Y1320340D01*
X2615440Y1319300D01*
X2614400Y1318880D01*
X2612160Y1318300D01*
X2609660Y1318020D01*
X2608320Y1318000D01*
X2620200Y1306120D01*
X2620340Y1308740D01*
X2620500Y1309960D01*
X2621100Y1312200D01*
X2621500Y1313240D01*
X2622540Y1315100D01*
X2623880Y1316740D01*
G37*
G36*
X2454480Y1321680D02*
G01*
X2449520Y1316740D01*
X2450240Y1315960D01*
X2451440Y1314199D01*
X2451920Y1313240D01*
X2452660Y1311120D01*
X2453080Y1308740D01*
X2453200Y1306120D01*
X2465080Y1318000D01*
X2462460Y1318120D01*
X2460100Y1318560D01*
X2459000Y1318880D01*
X2457000Y1319780D01*
X2455260Y1320980D01*
G37*
G36*
X2571820Y1417960D02*
G01*
X2558360Y1409139D01*
X2559360Y1408920D01*
X2560280Y1408600D01*
X2561060Y1408180D01*
X2561760Y1407660D01*
X2562340Y1407020D01*
X2562820Y1406279D01*
X2563200Y1405440D01*
X2563460Y1404500D01*
X2563620Y1403460D01*
X2563680Y1402320D01*
X2570680Y1404040D01*
X2570720Y1407660D01*
X2570960Y1412320D01*
X2571240Y1414880D01*
G37*
G36*
X2499720Y1411339D02*
G01*
X2500660Y1410380D01*
X2502220Y1408420D01*
X2503400Y1406420D01*
X2504180Y1404379D01*
X2504580Y1402300D01*
X2504620Y1401240D01*
X2511620Y1401240D01*
X2511820Y1403340D01*
X2512060Y1404379D01*
X2512840Y1406420D01*
X2514020Y1408420D01*
X2515600Y1410380D01*
X2516520Y1411339D01*
G37*
G36*
X2622200Y1930520D02*
G01*
X2622040Y1928320D01*
X2621820Y1927260D01*
X2621100Y1925220D01*
X2620059Y1923280D01*
X2619400Y1922340D01*
X2617799Y1920560D01*
X2634600Y1920560D01*
X2633020Y1922340D01*
X2631800Y1924240D01*
X2631300Y1925220D01*
X2630600Y1927260D01*
X2630380Y1928320D01*
X2630200Y1930520D01*
G37*
G36*
X2299800Y1895440D02*
G01*
X2301580Y1893480D01*
X2302940Y1891500D01*
X2303920Y1889480D01*
X2304520Y1887420D01*
X2304660Y1886380D01*
X2304700Y1885320D01*
X2311700Y1885320D01*
X2311900Y1887420D01*
X2312140Y1888460D01*
X2312940Y1890500D01*
X2314100Y1892500D01*
X2315680Y1894460D01*
X2316600Y1895440D01*
G37*
G36*
X2326800Y1861440D02*
G01*
X2328580Y1859480D01*
X2329940Y1857500D01*
X2330920Y1855480D01*
X2331520Y1853420D01*
X2331660Y1852380D01*
X2331700Y1851320D01*
X2338700Y1851320D01*
X2338900Y1853420D01*
X2339140Y1854460D01*
X2339940Y1856500D01*
X2341100Y1858500D01*
X2342680Y1860460D01*
X2343600Y1861440D01*
G37*
G36*
X2418800Y1623440D02*
G01*
X2420400Y1621660D01*
X2421620Y1619760D01*
X2422500Y1617780D01*
X2422820Y1616740D01*
X2423040Y1615680D01*
X2423200Y1613480D01*
X2431200Y1613480D01*
X2431380Y1615680D01*
X2431600Y1616740D01*
X2432300Y1618779D01*
X2433360Y1620720D01*
X2434020Y1621660D01*
X2435600Y1623440D01*
G37*
G36*
X2750700Y1966680D02*
G01*
X2750659Y1965620D01*
X2750520Y1964580D01*
X2749920Y1962520D01*
X2748940Y1960500D01*
X2747580Y1958520D01*
X2745800Y1956560D01*
X2762600Y1956560D01*
X2760840Y1958520D01*
X2760100Y1959500D01*
X2758940Y1961500D01*
X2758140Y1963540D01*
X2757760Y1965620D01*
X2757700Y1966680D01*
G37*
G36*
X2451700Y1660560D02*
G01*
X2451620Y1656860D01*
X2451380Y1654280D01*
X2451140Y1653180D01*
X2450800Y1652560D01*
X2467600Y1652560D01*
X2467280Y1653180D01*
X2467040Y1654280D01*
X2466720Y1659199D01*
X2466700Y1660560D01*
G37*
G36*
X2450800Y1635440D02*
G01*
X2451140Y1634820D01*
X2451380Y1633720D01*
X2451700Y1628800D01*
X2451700Y1627440D01*
X2466700Y1627440D01*
X2466780Y1631140D01*
X2467040Y1633720D01*
X2467280Y1634820D01*
X2467600Y1635440D01*
G37*
G36*
X2522780Y1688400D02*
G01*
X2522780Y1671600D01*
X2523740Y1672540D01*
X2525700Y1674100D01*
X2527700Y1675280D01*
X2529740Y1676060D01*
X2531820Y1676459D01*
X2532880Y1676500D01*
X2532880Y1683500D01*
X2531820Y1683540D01*
X2529740Y1683940D01*
X2527700Y1684720D01*
X2525700Y1685900D01*
X2523740Y1687460D01*
G37*
G36*
X2506540Y1630880D02*
G01*
X2494660Y1619000D01*
X2497280Y1618880D01*
X2499640Y1618440D01*
X2500740Y1618120D01*
X2502740Y1617220D01*
X2504480Y1616020D01*
X2505280Y1615320D01*
X2510220Y1620260D01*
X2509500Y1621040D01*
X2508320Y1622800D01*
X2507420Y1624800D01*
X2506840Y1627040D01*
X2506560Y1629540D01*
G37*
G36*
X2344800Y2267440D02*
G01*
X2346580Y2265480D01*
X2347940Y2263500D01*
X2348920Y2261480D01*
X2349520Y2259420D01*
X2349660Y2258380D01*
X2349700Y2257320D01*
X2356700Y2257320D01*
X2356900Y2259420D01*
X2357140Y2260460D01*
X2357940Y2262500D01*
X2359100Y2264500D01*
X2360680Y2266460D01*
X2361600Y2267440D01*
G37*
G36*
X2603800Y2166320D02*
G01*
X2605580Y2164380D01*
X2606940Y2162400D01*
X2607919Y2160380D01*
X2608519Y2158300D01*
X2608660Y2157260D01*
X2608700Y2156200D01*
X2615700Y2156200D01*
X2615899Y2158300D01*
X2616139Y2159340D01*
X2616940Y2161380D01*
X2618100Y2163380D01*
X2619680Y2165360D01*
X2620600Y2166320D01*
G37*
G36*
X2570700Y2161560D02*
G01*
X2570620Y2157860D01*
X2570380Y2155280D01*
X2570140Y2154180D01*
X2569800Y2153560D01*
X2586600Y2153560D01*
X2586280Y2154180D01*
X2586040Y2155280D01*
X2585720Y2160200D01*
X2585700Y2161560D01*
G37*
G36*
X2756800Y2266440D02*
G01*
X2758580Y2264480D01*
X2759940Y2262500D01*
X2760920Y2260480D01*
X2761520Y2258420D01*
X2761660Y2257380D01*
X2761700Y2256320D01*
X2768700Y2256320D01*
X2768900Y2258420D01*
X2769140Y2259460D01*
X2769940Y2261500D01*
X2771100Y2263500D01*
X2772679Y2265460D01*
X2773600Y2266440D01*
G37*
G36*
X2352780Y2427400D02*
G01*
X2352780Y2410600D01*
X2354560Y2412180D01*
X2356440Y2413420D01*
X2358420Y2414300D01*
X2360520Y2414820D01*
X2361600Y2414960D01*
X2362720Y2415000D01*
X2362720Y2423000D01*
X2361600Y2423040D01*
X2359460Y2423400D01*
X2358420Y2423700D01*
X2356440Y2424580D01*
X2354560Y2425820D01*
G37*
G36*
X2531780Y1758400D02*
G01*
X2531780Y1741600D01*
X2533560Y1743180D01*
X2535440Y1744420D01*
X2537420Y1745300D01*
X2539520Y1745820D01*
X2540600Y1745960D01*
X2541720Y1746000D01*
X2541720Y1754000D01*
X2540600Y1754040D01*
X2538460Y1754400D01*
X2537420Y1754700D01*
X2535440Y1755580D01*
X2533560Y1756819D01*
G37*
G36*
X2481200Y1741519D02*
G01*
X2481040Y1739319D01*
X2480820Y1738260D01*
X2480100Y1736220D01*
X2479060Y1734280D01*
X2478400Y1733340D01*
X2476800Y1731560D01*
X2493600Y1731560D01*
X2492020Y1733340D01*
X2490800Y1735240D01*
X2490300Y1736220D01*
X2489600Y1738260D01*
X2489380Y1739319D01*
X2489200Y1741519D01*
G37*
G36*
X2629740Y1339480D02*
G01*
X2622740Y1332480D01*
X2622540Y1329760D01*
X2621940Y1327200D01*
X2621500Y1325980D01*
X2620299Y1323680D01*
X2619560Y1322580D01*
X2617780Y1320520D01*
X2628700Y1321560D01*
X2633660Y1326500D01*
X2634680Y1337420D01*
X2633740Y1336560D01*
X2632900Y1335920D01*
X2632160Y1335540D01*
X2631520Y1335380D01*
X2630960Y1335460D01*
X2630520Y1335780D01*
X2630179Y1336360D01*
X2629920Y1337160D01*
X2629780Y1338200D01*
G37*
G36*
X2451700Y1699440D02*
G01*
X2451600Y1696699D01*
X2451280Y1694460D01*
X2450760Y1692740D01*
X2450000Y1691540D01*
X2449060Y1690840D01*
X2447880Y1690660D01*
X2446500Y1690980D01*
X2444920Y1691819D01*
X2443120Y1693180D01*
X2441100Y1695040D01*
X2441100Y1673839D01*
X2443120Y1671660D01*
X2444920Y1669420D01*
X2446500Y1667080D01*
X2447880Y1664640D01*
X2449060Y1662120D01*
X2450000Y1659520D01*
X2450760Y1656819D01*
X2451280Y1654040D01*
X2451600Y1651180D01*
X2451700Y1648220D01*
X2466700Y1666339D01*
G37*
G36*
X2445580Y1337580D02*
G01*
X2445520Y1336300D01*
X2445380Y1335260D01*
X2445120Y1334460D01*
X2444780Y1333899D01*
X2444340Y1333580D01*
X2443780Y1333480D01*
X2443140Y1333640D01*
X2442400Y1334040D01*
X2441560Y1334660D01*
X2440620Y1335540D01*
X2441640Y1324600D01*
X2446600Y1319660D01*
X2457520Y1318640D01*
X2456580Y1319640D01*
X2455000Y1321780D01*
X2453800Y1324100D01*
X2453360Y1325320D01*
X2452760Y1327860D01*
X2452620Y1329199D01*
X2452580Y1330580D01*
G37*
D11*
X2344210Y2419000D02*
G01*
X2444920Y2419000D01*
X2495920Y2470000D01*
X2495920Y2541720D01*
X2543110Y2588900D01*
X2695310Y2588900D01*
X2722210Y2562000D01*
X2722210Y2213000D01*
X2611110Y2101900D01*
X2611110Y2039100D01*
X2615210Y2035000D01*
X2615210Y2035000D01*
X2648210Y2002000D01*
X2648210Y1874980D01*
X2630990Y1857769D01*
X2618620Y1857769D01*
X2590740Y1829890D01*
X2537850Y1777000D01*
X2513210Y1777000D01*
X2485210Y1749000D01*
X2485210Y1723000D01*
D12*
X2414660Y2264000D02*
G01*
X2414660Y2264000D01*
X2414660Y2370000D01*
X2495920Y2263000D02*
G01*
X2495920Y2370000D01*
X2577180Y2263000D02*
G01*
X2577180Y2370000D01*
X2658440Y2263000D02*
G01*
X2658440Y2370000D01*
X2232210Y1462000D02*
G01*
X2356480Y1462000D01*
X2429280Y1534800D01*
X2232210Y1562000D02*
G01*
X2300210Y1494000D01*
X2343930Y1494000D01*
X2407000Y1557070D01*
X2232210Y1662000D02*
G01*
X2275170Y1619040D01*
X2275170Y1565040D01*
X2301210Y1539000D01*
X2344390Y1539000D01*
X2384730Y1579340D01*
X2232210Y1762000D02*
G01*
X2279210Y1715000D01*
X2279210Y1666480D01*
X2288170Y1657520D01*
X2288170Y1574040D01*
X2301210Y1561000D01*
X2321850Y1561000D01*
X2362460Y1601610D01*
X2340190Y1623880D02*
G01*
X2292210Y1671870D01*
X2292210Y1720380D01*
X2280210Y1732380D01*
X2280210Y1814000D01*
X2232210Y1862000D01*
X2232210Y1962000D02*
G01*
X2341710Y1962000D01*
X2473820Y1829890D01*
X2232210Y2062000D02*
G01*
X2286250Y2062000D01*
X2496090Y1852160D01*
X2832210Y1462000D02*
G01*
X2832210Y1471500D01*
X2702100Y1601610D01*
X2724370Y1623880D02*
G01*
X2786250Y1562000D01*
X2832210Y1562000D01*
X2832210Y1662000D02*
G01*
X2832210Y1666040D01*
X2770000Y1728250D01*
X2756350Y1728250D01*
X2724370Y1696260D01*
X2702100Y1718530D02*
G01*
X2745560Y1762000D01*
X2832210Y1762000D01*
X2679820Y1740810D02*
G01*
X2801019Y1862000D01*
X2832210Y1862000D01*
X2657550Y1763080D02*
G01*
X2832210Y1937730D01*
X2832210Y1962000D01*
X2635280Y1785350D02*
G01*
X2691210Y1841270D01*
X2691210Y2064000D01*
X2691210Y2143110D01*
X2765210Y2217110D01*
X2765210Y2275000D01*
X2494540Y1631000D02*
G01*
X2613010Y1512529D01*
X2514210Y1680000D02*
G01*
X2579160Y1680000D01*
X2679820Y1579340D01*
D13*
X2459210Y1666330D02*
G01*
X2459210Y1755420D01*
X2429280Y1785350D01*
D12*
X2754206Y1948000D02*
G01*
X2754206Y2084000D01*
X2832206Y2162000D01*
X2362460Y1718530D02*
G01*
X2335210Y1745790D01*
X2335210Y1870000D01*
X2340190Y1696260D02*
G01*
X2308210Y1728250D01*
X2308210Y1904000D01*
X2353206Y2276000D02*
G01*
X2353206Y2198000D01*
X2376206Y2175000D01*
X2466591Y2175000D01*
X2533591Y2108000D01*
X2577206Y2108000D01*
X2612206Y2143000D01*
X2612206Y2174886D01*
D11*
X2232210Y2462000D02*
G01*
X2406660Y2462000D01*
X2414660Y2470000D01*
X2414660Y2551460D01*
X2466110Y2602900D01*
X2701110Y2602900D01*
X2736210Y2567799D01*
X2736210Y2207200D01*
X2625110Y2096100D01*
X2625110Y2044900D01*
X2662210Y2007800D01*
X2662210Y1869190D01*
X2640899Y1847870D01*
X2640899Y1835500D01*
X2613010Y1807620D01*
X2555390Y1750000D01*
X2523210Y1750000D01*
X2626210Y1912000D02*
G01*
X2626210Y2004199D01*
X2597110Y2033300D01*
X2597110Y2107700D01*
X2658440Y2169040D01*
X2658440Y2211820D01*
D12*
X2568470Y1852160D02*
G01*
X2604710Y1888400D01*
X2604710Y1996500D01*
X2580210Y2021000D01*
X2580210Y2088000D01*
X2573210Y2095000D01*
X2528210Y2095000D01*
X2461210Y2162000D01*
X2232210Y2162000D01*
X2232210Y1362000D02*
G01*
X2311210Y1441000D01*
X2380020Y1441000D01*
X2451550Y1512529D01*
D11*
X2245560Y1262000D02*
G01*
X2232210Y1262000D01*
X2284210Y1314000D01*
X2284210Y1386399D01*
X2313800Y1416000D01*
X2399560Y1416000D01*
X2473820Y1490250D01*
D12*
X2635280Y1534800D02*
G01*
X2690080Y1480000D01*
X2700210Y1480000D01*
X2818210Y1362000D01*
X2832210Y1362000D01*
D13*
X2384730Y1740810D02*
G01*
X2459210Y1666330D01*
X2459210Y1644000D01*
X2459210Y1621790D01*
X2590740Y1490250D01*
X2620990Y1460000D01*
X2696160Y1460000D01*
X2771300Y1384860D01*
X2771300Y1322910D01*
X2832210Y1262000D01*
X2819000Y1262000D01*
X2414660Y2212820D02*
G01*
X2576180Y2212820D01*
X2577180Y2211820D01*
X2578210Y2210800D01*
X2578210Y2145000D01*
D11*
X2427210Y1632000D02*
G01*
X2427210Y1609250D01*
X2568470Y1467980D01*
X2599450Y1437000D01*
X2694420Y1437000D01*
X2753800Y1377620D01*
X2753800Y1315660D01*
X2776210Y1293250D01*
X2776210Y1218000D01*
X2832210Y1162000D01*
D12*
X2527811Y1341680D02*
G01*
X2527811Y1357440D01*
X2508120Y1357380D02*
G01*
X2508120Y1375310D01*
X2508120Y1419920D01*
X2547491Y1357380D02*
G01*
X2547491Y1375320D01*
X2560210Y1421000D02*
G01*
X2567180Y1414019D01*
X2567180Y1357440D01*
X2567180Y1341690D01*
X2449070Y1322140D02*
G01*
X2449070Y1357280D01*
X2437260Y1357280D02*
G01*
X2437260Y1333950D01*
X2449070Y1322140D01*
X2465210Y1306000D01*
X2626230Y1324019D02*
G01*
X2626230Y1357440D01*
X2608210Y1306000D02*
G01*
X2626230Y1324019D01*
X2638050Y1335850D01*
X2638050Y1357440D01*
X2232210Y1162000D02*
G01*
X2301210Y1231000D01*
X2301210Y1384310D01*
X2319390Y1402500D01*
X2405150Y1402500D01*
X2438650Y1436000D01*
X2464100Y1436000D01*
X2496090Y1467980D01*
D14*
X2587260Y1870951D02*
G01*
X2549679Y1833369D01*
X2609531Y1848681D02*
G01*
X2571949Y1811099D01*
X2631801Y1826411D02*
G01*
X2594219Y1788829D01*
X2654071Y1804141D02*
G01*
X2616489Y1766559D01*
X2676341Y1781870D02*
G01*
X2638759Y1744289D01*
X2698611Y1759601D02*
G01*
X2661029Y1722019D01*
X2720890Y1737321D02*
G01*
X2683309Y1699738D01*
X2743161Y1715051D02*
G01*
X2705579Y1677469D01*
X2705579Y1642671D02*
G01*
X2743161Y1605089D01*
X2683309Y1620401D02*
G01*
X2720890Y1582819D01*
X2661029Y1598131D02*
G01*
X2698611Y1560549D01*
X2638759Y1575860D02*
G01*
X2676341Y1538279D01*
X2616489Y1553591D02*
G01*
X2654071Y1516009D01*
X2594219Y1531321D02*
G01*
X2631801Y1493739D01*
X2571949Y1509051D02*
G01*
X2609531Y1471468D01*
X2549679Y1486771D02*
G01*
X2587260Y1449189D01*
X2514881Y1486771D02*
G01*
X2477299Y1449189D01*
X2492611Y1509051D02*
G01*
X2455029Y1471468D01*
X2470341Y1531321D02*
G01*
X2432759Y1493739D01*
X2448071Y1553591D02*
G01*
X2410489Y1516009D01*
X2425791Y1575860D02*
G01*
X2388209Y1538279D01*
X2403521Y1598131D02*
G01*
X2365939Y1560549D01*
X2381251Y1620401D02*
G01*
X2343669Y1582819D01*
X2358981Y1642671D02*
G01*
X2321399Y1605089D01*
X2321399Y1715051D02*
G01*
X2358981Y1677469D01*
X2343669Y1737321D02*
G01*
X2381251Y1699738D01*
X2365939Y1759601D02*
G01*
X2403521Y1722019D01*
X2388209Y1781870D02*
G01*
X2425791Y1744289D01*
X2410479Y1804141D02*
G01*
X2448061Y1766559D01*
X2432759Y1826411D02*
G01*
X2470341Y1788829D01*
X2455029Y1848681D02*
G01*
X2492611Y1811099D01*
X2477299Y1870951D02*
G01*
X2514881Y1833369D01*
G36*
X2399855Y1380018D02*
G01*
X2411666Y1380018D01*
X2411666Y1334742D01*
X2399855Y1334742D01*
G37*
G36*
X2411665Y1380018D02*
G01*
X2423476Y1380018D01*
X2423476Y1334742D01*
X2411665Y1334742D01*
G37*
G36*
X2431355Y1379918D02*
G01*
X2443166Y1379918D01*
X2443166Y1334642D01*
X2431355Y1334642D01*
G37*
G36*
X2443165Y1379918D02*
G01*
X2454976Y1379918D01*
X2454976Y1334642D01*
X2443165Y1334642D01*
G37*
G36*
X2462845Y1380078D02*
G01*
X2474656Y1380078D01*
X2474656Y1334802D01*
X2462845Y1334802D01*
G37*
G36*
X2482535Y1380078D02*
G01*
X2494346Y1380078D01*
X2494346Y1334802D01*
X2482535Y1334802D01*
G37*
G36*
X2502215Y1380018D02*
G01*
X2514026Y1380018D01*
X2514026Y1334742D01*
X2502215Y1334742D01*
G37*
G36*
X2521905Y1380078D02*
G01*
X2533716Y1380078D01*
X2533716Y1334802D01*
X2521905Y1334802D01*
G37*
G36*
X2541585Y1380018D02*
G01*
X2553396Y1380018D01*
X2553396Y1334742D01*
X2541585Y1334742D01*
G37*
G36*
X2561275Y1380078D02*
G01*
X2573086Y1380078D01*
X2573086Y1334802D01*
X2561275Y1334802D01*
G37*
G36*
X2580945Y1380078D02*
G01*
X2592756Y1380078D01*
X2592756Y1334802D01*
X2580945Y1334802D01*
G37*
G36*
X2600644Y1380078D02*
G01*
X2612456Y1380078D01*
X2612456Y1334802D01*
X2600644Y1334802D01*
G37*
G36*
X2620325Y1380078D02*
G01*
X2632136Y1380078D01*
X2632136Y1334802D01*
X2620325Y1334802D01*
G37*
G36*
X2632145Y1380078D02*
G01*
X2643956Y1380078D01*
X2643956Y1334802D01*
X2632145Y1334802D01*
G37*
G36*
X2651825Y1380078D02*
G01*
X2663636Y1380078D01*
X2663636Y1334802D01*
X2651825Y1334802D01*
G37*
G36*
X2663635Y1380078D02*
G01*
X2675446Y1380078D01*
X2675446Y1334802D01*
X2663635Y1334802D01*
G37*
G36*
X2339520Y2092738D02*
G01*
X2418260Y2092738D01*
X2418260Y2033682D01*
X2339520Y2033682D01*
G37*
G36*
X2651840Y2093528D02*
G01*
X2730580Y2093528D01*
X2730580Y2034472D01*
X2651840Y2034472D01*
G37*
D18*
G01*
X2414660Y2212820D03*
G01*
X2414660Y2264000D03*
G01*
X2495920Y2211820D03*
G01*
X2495920Y2263000D03*
G01*
X2577180Y2211820D03*
G01*
X2577180Y2263000D03*
G01*
X2658440Y2211820D03*
G01*
X2658440Y2263000D03*
D19*
G01*
X2495920Y2370000D03*
G36*
X2472826Y2455433D02*
G01*
X2486356Y2441903D01*
X2505491Y2441903D01*
X2519020Y2455433D01*
X2519020Y2484567D01*
X2505491Y2498097D01*
X2486356Y2498097D01*
X2472826Y2484567D01*
G37*
G36*
X2391567Y2455433D02*
G01*
X2405097Y2441903D01*
X2424231Y2441903D01*
X2437761Y2455433D01*
X2437761Y2484567D01*
X2424231Y2498097D01*
X2405097Y2498097D01*
X2391567Y2484567D01*
G37*
G01*
X2414660Y2370000D03*
G36*
X2554086Y2455433D02*
G01*
X2567616Y2441903D01*
X2586750Y2441903D01*
X2600280Y2455433D01*
X2600280Y2484567D01*
X2586750Y2498097D01*
X2567616Y2498097D01*
X2554086Y2484567D01*
G37*
G01*
X2577180Y2370000D03*
G36*
X2635346Y2455433D02*
G01*
X2648875Y2441903D01*
X2668010Y2441903D01*
X2681540Y2455433D01*
X2681540Y2484567D01*
X2668010Y2498097D01*
X2648875Y2498097D01*
X2635346Y2484567D01*
G37*
G01*
X2658440Y2370000D03*
D12*
G75*
G01*
X2527811Y1341680D02*
G03*
X2547491Y1322000I19680J0D01*
G75*
G01*
X2547491Y1322000D02*
G03*
X2567181Y1341690I0J19690D01*
G75*
G01*
X2527811Y1395000D02*
G03*
X2508121Y1375310I0J-19690D01*
G75*
G01*
X2547491Y1375320D02*
G03*
X2527811Y1395000I-19680J0D01*
D20*
G01*
X2832210Y1162000D03*
G01*
X2832210Y1262000D03*
G01*
X2832210Y1362000D03*
G01*
X2832210Y1462000D03*
G01*
X2832210Y1562000D03*
G01*
X2832210Y1662000D03*
G01*
X2832210Y1762000D03*
G01*
X2832210Y1862000D03*
G01*
X2832210Y1962000D03*
G01*
X2832210Y2062000D03*
G01*
X2832210Y2162000D03*
G01*
X2832210Y2262000D03*
G01*
X2832210Y2362000D03*
G01*
X2832210Y2462000D03*
D21*
G01*
X2832210Y2562000D03*
D20*
G01*
X2232210Y1162000D03*
G01*
X2232210Y1262000D03*
G01*
X2232210Y1362000D03*
G01*
X2232210Y1462000D03*
G01*
X2232210Y1562000D03*
G01*
X2232210Y1662000D03*
G01*
X2232210Y1762000D03*
G01*
X2232210Y1862000D03*
G01*
X2232210Y1962000D03*
G01*
X2232210Y2062000D03*
G01*
X2232210Y2162000D03*
G01*
X2232210Y2262000D03*
G01*
X2232210Y2362000D03*
G01*
X2232210Y2462000D03*
D21*
G01*
X2232210Y2562000D03*
D22*
G01*
X2423870Y1306260D03*
G01*
X2651429Y1306260D03*
D15*
G01*
X2608210Y1306000D03*
G01*
X2465210Y1306000D03*
G01*
X2560210Y1421000D03*
G01*
X2508120Y1419910D03*
G01*
X2614210Y2510000D03*
G01*
X2303210Y2117000D03*
G01*
X2401500Y2134000D03*
G01*
X2336210Y1936000D03*
G01*
X2765210Y1459000D03*
G01*
X2626210Y1912000D03*
G01*
X2308210Y1904000D03*
G01*
X2335210Y1870000D03*
G01*
X2427210Y1632000D03*
G01*
X2754210Y1948000D03*
G01*
X2459210Y1644000D03*
G01*
X2514210Y1680000D03*
G01*
X2494540Y1631000D03*
G01*
X2353210Y2276000D03*
G01*
X2612210Y2174890D03*
G01*
X2578210Y2145000D03*
G01*
X2765210Y2275000D03*
G01*
X2344210Y2419000D03*
G01*
X2523210Y1750000D03*
G01*
X2485210Y1723000D03*
D23*
X2357040Y1178308D02*
G01*
X2357040Y1146812D01*
X2711370Y1178308D02*
G01*
X2711370Y1146812D01*
X2711370Y1347593D02*
G01*
X2711370Y1304286D01*
X2357040Y1347593D02*
G01*
X2357040Y1304286D01*
M02*
