G04 Layer: BottomSolderMaskLayer*
G04 EasyEDA v6.5.1, 2022-03-31 14:40:35*
G04 3057500e3b38410d9f8712b39c549b2e,f4ced638559e4a0e855b540ea8c082d1,10*
G04 Gerber Generator version 0.2*
G04 Scale: 100 percent, Rotated: No, Reflected: No *
G04 Dimensions in inches *
G04 leading zeros omitted , absolute positions ,3 integer and 6 decimal *
%FSLAX36Y36*%
%MOIN*%

%ADD35C,0.0552*%
%ADD37C,0.0749*%
%ADD39C,0.0375*%
%ADD44C,0.0277*%
%ADD50R,0.0700X0.0630*%

%LPD*%
D44*
X2351175Y1473000D02*
G01*
X2390545Y1473000D01*
X2351175Y1523000D02*
G01*
X2390545Y1523000D01*
X2351175Y1573000D02*
G01*
X2390545Y1573000D01*
X2351175Y1623000D02*
G01*
X2390545Y1623000D01*
X2351175Y1673000D02*
G01*
X2390545Y1673000D01*
X2351175Y1723000D02*
G01*
X2390545Y1723000D01*
X2351175Y1773000D02*
G01*
X2390545Y1773000D01*
X2351175Y1823000D02*
G01*
X2390545Y1823000D01*
X2567865Y1473000D02*
G01*
X2607235Y1473000D01*
X2567865Y1523000D02*
G01*
X2607235Y1523000D01*
X2567865Y1573000D02*
G01*
X2607235Y1573000D01*
X2567865Y1623000D02*
G01*
X2607235Y1623000D01*
X2567865Y1673000D02*
G01*
X2607235Y1673000D01*
X2567865Y1723000D02*
G01*
X2607235Y1723000D01*
X2567865Y1773000D02*
G01*
X2607235Y1773000D01*
D35*
X2357040Y1178308D02*
G01*
X2357040Y1146812D01*
X2711370Y1178308D02*
G01*
X2711370Y1146812D01*
X2711370Y1347593D02*
G01*
X2711370Y1304286D01*
X2357040Y1347593D02*
G01*
X2357040Y1304286D01*
G36*
X2683800Y2194600D02*
G01*
X2683800Y2232600D01*
X2721800Y2232600D01*
X2721800Y2194600D01*
G37*
G36*
X2632600Y2194600D02*
G01*
X2632600Y2232600D01*
X2670600Y2232600D01*
X2670600Y2194600D01*
G37*
G36*
X2421000Y2010800D02*
G01*
X2421000Y2113200D01*
X2515600Y2113200D01*
X2515600Y2010800D01*
G37*
G36*
X2558800Y2010800D02*
G01*
X2558800Y2113200D01*
X2653399Y2113200D01*
X2653399Y2010800D01*
G37*
G36*
X2360900Y2511500D02*
G01*
X2360900Y2586500D01*
X2398400Y2586500D01*
X2398400Y2511500D01*
G37*
G36*
X2451400Y2511500D02*
G01*
X2451400Y2586500D01*
X2489000Y2586500D01*
X2489000Y2511500D01*
G37*
G36*
X2542000Y2511500D02*
G01*
X2542000Y2586500D01*
X2579500Y2586500D01*
X2579500Y2511500D01*
G37*
G36*
X2405200Y2271500D02*
G01*
X2405200Y2346500D01*
X2535200Y2346500D01*
X2535200Y2271500D01*
G37*
G36*
X2554000Y1809199D02*
G01*
X2554000Y1836800D01*
X2621100Y1836800D01*
X2621100Y1809199D01*
G37*
G36*
X2509100Y1279400D02*
G01*
X2509100Y1311600D01*
X2563300Y1311600D01*
X2563300Y1279400D01*
G37*
G36*
X2507200Y1129000D02*
G01*
X2507200Y1192000D01*
X2565200Y1192000D01*
X2565200Y1129000D01*
G37*
D50*
G01*
X2687210Y2531090D03*
G36*
X2652200Y2387400D02*
G01*
X2652200Y2450400D01*
X2722200Y2450400D01*
X2722200Y2387400D01*
G37*
G36*
X2705400Y1665000D02*
G01*
X2705400Y1703000D01*
X2743399Y1703000D01*
X2743399Y1665000D01*
G37*
G36*
X2705400Y1613800D02*
G01*
X2705400Y1651800D01*
X2743399Y1651800D01*
X2743399Y1613800D01*
G37*
G36*
X2334200Y2143400D02*
G01*
X2334200Y2181400D01*
X2372200Y2181400D01*
X2372200Y2143400D01*
G37*
G36*
X2334200Y2194600D02*
G01*
X2334200Y2232600D01*
X2372200Y2232600D01*
X2372200Y2194600D01*
G37*
G36*
X2604600Y1220000D02*
G01*
X2604600Y1258000D01*
X2642600Y1258000D01*
X2642600Y1220000D01*
G37*
G36*
X2655800Y1220000D02*
G01*
X2655800Y1258000D01*
X2693800Y1258000D01*
X2693800Y1220000D01*
G37*
G36*
X2431800Y1220000D02*
G01*
X2431800Y1258000D01*
X2469800Y1258000D01*
X2469800Y1220000D01*
G37*
G36*
X2380600Y1220000D02*
G01*
X2380600Y1258000D01*
X2418600Y1258000D01*
X2418600Y1220000D01*
G37*
G36*
X2705400Y1522400D02*
G01*
X2705400Y1560400D01*
X2743399Y1560400D01*
X2743399Y1522400D01*
G37*
G36*
X2705400Y1471300D02*
G01*
X2705400Y1509300D01*
X2743399Y1509300D01*
X2743399Y1471300D01*
G37*
G36*
X2449300Y1929000D02*
G01*
X2449300Y1967000D01*
X2487300Y1967000D01*
X2487300Y1929000D01*
G37*
G36*
X2398100Y1929000D02*
G01*
X2398100Y1967000D01*
X2436100Y1967000D01*
X2436100Y1929000D01*
G37*
G36*
X2587100Y1929000D02*
G01*
X2587100Y1967000D01*
X2625100Y1967000D01*
X2625100Y1929000D01*
G37*
G36*
X2638300Y1929000D02*
G01*
X2638300Y1967000D01*
X2676300Y1967000D01*
X2676300Y1929000D01*
G37*
D37*
G01*
X2832210Y1162000D03*
G01*
X2832210Y1262000D03*
G01*
X2832210Y1362000D03*
G01*
X2832210Y1462000D03*
G01*
X2832210Y1562000D03*
G01*
X2832210Y1662000D03*
G01*
X2832210Y1762000D03*
G01*
X2832210Y1862000D03*
G01*
X2832210Y1962000D03*
G01*
X2832210Y2062000D03*
G01*
X2832210Y2162000D03*
G01*
X2832210Y2262000D03*
G01*
X2832210Y2362000D03*
G01*
X2832210Y2462000D03*
G36*
X2794700Y2524500D02*
G01*
X2794700Y2599500D01*
X2869700Y2599500D01*
X2869700Y2524500D01*
G37*
G01*
X2232210Y1162000D03*
G01*
X2232210Y1262000D03*
G01*
X2232210Y1362000D03*
G01*
X2232210Y1462000D03*
G01*
X2232210Y1562000D03*
G01*
X2232210Y1662000D03*
G01*
X2232210Y1762000D03*
G01*
X2232210Y1862000D03*
G01*
X2232210Y1962000D03*
G01*
X2232210Y2062000D03*
G01*
X2232210Y2162000D03*
G01*
X2232210Y2262000D03*
G01*
X2232210Y2362000D03*
G01*
X2232210Y2462000D03*
G36*
X2194700Y2524500D02*
G01*
X2194700Y2599500D01*
X2269700Y2599500D01*
X2269700Y2524500D01*
G37*
D39*
G01*
X2423870Y1306260D03*
G01*
X2651429Y1306260D03*
M02*
