G04 Layer: TopPasteMaskLayer*
G04 EasyEDA v6.5.1, 2022-03-31 14:40:35*
G04 3057500e3b38410d9f8712b39c549b2e,f4ced638559e4a0e855b540ea8c082d1,10*
G04 Gerber Generator version 0.2*
G04 Scale: 100 percent, Rotated: No, Reflected: No *
G04 Dimensions in inches *
G04 leading zeros omitted , absolute positions ,3 integer and 6 decimal *
%FSLAX36Y36*%
%MOIN*%

%ADD14C,0.0177*%
%ADD18R,0.0300X0.0300*%
%ADD19R,0.0500X0.0600*%

%LPD*%
D14*
X2587260Y1870951D02*
G01*
X2549679Y1833369D01*
X2609531Y1848681D02*
G01*
X2571949Y1811099D01*
X2631801Y1826411D02*
G01*
X2594219Y1788829D01*
X2654071Y1804141D02*
G01*
X2616489Y1766559D01*
X2676341Y1781870D02*
G01*
X2638759Y1744289D01*
X2698611Y1759601D02*
G01*
X2661029Y1722019D01*
X2720890Y1737321D02*
G01*
X2683309Y1699738D01*
X2743161Y1715051D02*
G01*
X2705579Y1677469D01*
X2705579Y1642671D02*
G01*
X2743161Y1605089D01*
X2683309Y1620401D02*
G01*
X2720890Y1582819D01*
X2661029Y1598131D02*
G01*
X2698611Y1560549D01*
X2638759Y1575860D02*
G01*
X2676341Y1538279D01*
X2616489Y1553591D02*
G01*
X2654071Y1516009D01*
X2594219Y1531321D02*
G01*
X2631801Y1493739D01*
X2571949Y1509051D02*
G01*
X2609531Y1471468D01*
X2549679Y1486771D02*
G01*
X2587260Y1449189D01*
X2514881Y1486771D02*
G01*
X2477299Y1449189D01*
X2492611Y1509051D02*
G01*
X2455029Y1471468D01*
X2470341Y1531321D02*
G01*
X2432759Y1493739D01*
X2448071Y1553591D02*
G01*
X2410489Y1516009D01*
X2425791Y1575860D02*
G01*
X2388209Y1538279D01*
X2403521Y1598131D02*
G01*
X2365939Y1560549D01*
X2381251Y1620401D02*
G01*
X2343669Y1582819D01*
X2358981Y1642671D02*
G01*
X2321399Y1605089D01*
X2321399Y1715051D02*
G01*
X2358981Y1677469D01*
X2343669Y1737321D02*
G01*
X2381251Y1699738D01*
X2365939Y1759601D02*
G01*
X2403521Y1722019D01*
X2388209Y1781870D02*
G01*
X2425791Y1744289D01*
X2410479Y1804141D02*
G01*
X2448061Y1766559D01*
X2432759Y1826411D02*
G01*
X2470341Y1788829D01*
X2455029Y1848681D02*
G01*
X2492611Y1811099D01*
X2477299Y1870951D02*
G01*
X2514881Y1833369D01*
G36*
X2399855Y1380018D02*
G01*
X2411666Y1380018D01*
X2411666Y1334742D01*
X2399855Y1334742D01*
G37*
G36*
X2411665Y1380018D02*
G01*
X2423475Y1380018D01*
X2423475Y1334742D01*
X2411665Y1334742D01*
G37*
G36*
X2431355Y1379918D02*
G01*
X2443166Y1379918D01*
X2443166Y1334642D01*
X2431355Y1334642D01*
G37*
G36*
X2443165Y1379918D02*
G01*
X2454976Y1379918D01*
X2454976Y1334642D01*
X2443165Y1334642D01*
G37*
G36*
X2462845Y1380078D02*
G01*
X2474655Y1380078D01*
X2474655Y1334802D01*
X2462845Y1334802D01*
G37*
G36*
X2482534Y1380078D02*
G01*
X2494346Y1380078D01*
X2494346Y1334802D01*
X2482534Y1334802D01*
G37*
G36*
X2502215Y1380018D02*
G01*
X2514026Y1380018D01*
X2514026Y1334742D01*
X2502215Y1334742D01*
G37*
G36*
X2521905Y1380078D02*
G01*
X2533716Y1380078D01*
X2533716Y1334802D01*
X2521905Y1334802D01*
G37*
G36*
X2541584Y1380018D02*
G01*
X2553396Y1380018D01*
X2553396Y1334742D01*
X2541584Y1334742D01*
G37*
G36*
X2561275Y1380078D02*
G01*
X2573086Y1380078D01*
X2573086Y1334802D01*
X2561275Y1334802D01*
G37*
G36*
X2580945Y1380078D02*
G01*
X2592756Y1380078D01*
X2592756Y1334802D01*
X2580945Y1334802D01*
G37*
G36*
X2600644Y1380078D02*
G01*
X2612456Y1380078D01*
X2612456Y1334802D01*
X2600644Y1334802D01*
G37*
G36*
X2620325Y1380078D02*
G01*
X2632136Y1380078D01*
X2632136Y1334802D01*
X2620325Y1334802D01*
G37*
G36*
X2632145Y1380078D02*
G01*
X2643956Y1380078D01*
X2643956Y1334802D01*
X2632145Y1334802D01*
G37*
G36*
X2651825Y1380078D02*
G01*
X2663636Y1380078D01*
X2663636Y1334802D01*
X2651825Y1334802D01*
G37*
G36*
X2663635Y1380078D02*
G01*
X2675446Y1380078D01*
X2675446Y1334802D01*
X2663635Y1334802D01*
G37*
G36*
X2339520Y2092738D02*
G01*
X2418260Y2092738D01*
X2418260Y2033682D01*
X2339520Y2033682D01*
G37*
G36*
X2651840Y2093528D02*
G01*
X2730580Y2093528D01*
X2730580Y2034472D01*
X2651840Y2034472D01*
G37*
D18*
G01*
X2414660Y2212820D03*
G01*
X2414660Y2264000D03*
G01*
X2495920Y2211820D03*
G01*
X2495920Y2263000D03*
G01*
X2577180Y2211820D03*
G01*
X2577180Y2263000D03*
G01*
X2658440Y2211820D03*
G01*
X2658440Y2263000D03*
D19*
G01*
X2495920Y2370000D03*
G36*
X2472826Y2455433D02*
G01*
X2486356Y2441903D01*
X2505491Y2441903D01*
X2519019Y2455433D01*
X2519019Y2484567D01*
X2505491Y2498096D01*
X2486356Y2498096D01*
X2472826Y2484567D01*
G37*
G36*
X2391566Y2455433D02*
G01*
X2405097Y2441903D01*
X2424231Y2441903D01*
X2437761Y2455433D01*
X2437761Y2484567D01*
X2424231Y2498096D01*
X2405097Y2498096D01*
X2391566Y2484567D01*
G37*
G01*
X2414660Y2370000D03*
G36*
X2554086Y2455433D02*
G01*
X2567616Y2441903D01*
X2586750Y2441903D01*
X2600280Y2455433D01*
X2600280Y2484567D01*
X2586750Y2498096D01*
X2567616Y2498096D01*
X2554086Y2484567D01*
G37*
G01*
X2577180Y2370000D03*
G36*
X2635346Y2455433D02*
G01*
X2648875Y2441903D01*
X2668010Y2441903D01*
X2681540Y2455433D01*
X2681540Y2484567D01*
X2668010Y2498096D01*
X2648875Y2498096D01*
X2635346Y2484567D01*
G37*
G01*
X2658440Y2370000D03*
M02*
