%FSLAX25Y25*%
%MOIN*%
G70*
G01*
G75*
G04 Layer_Physical_Order=2*
G04 Layer_Color=16711680*
%ADD10C,0.06693*%
%ADD11C,0.05118*%
%ADD12C,0.02362*%
%ADD13C,0.04000*%
%ADD14C,0.25591*%
%ADD15R,0.03937X0.02600*%
%ADD16R,0.05512X0.04724*%
%ADD17C,0.02362*%
%ADD18C,0.00787*%
%ADD19C,0.01000*%
G36*
X10210Y150624D02*
X42298D01*
X42447Y150622D01*
X42741Y150605D01*
X43023Y150568D01*
X43301Y150512D01*
X43576Y150436D01*
X43843Y150342D01*
X44104Y150229D01*
X44357Y150098D01*
X44599Y149950D01*
X44831Y149785D01*
X45050Y149604D01*
X45257Y149409D01*
X45449Y149200D01*
X45626Y148977D01*
X45788Y148743D01*
X45932Y148499D01*
X46059Y148244D01*
X46168Y147982D01*
X46259Y147713D01*
X46330Y147437D01*
X46383Y147158D01*
X46415Y146876D01*
X46430Y146549D01*
X46431Y146546D01*
Y5221D01*
X46427Y5057D01*
X46402Y4719D01*
X46356Y4394D01*
X46286Y4073D01*
X46195Y3758D01*
X46081Y3450D01*
X45947Y3150D01*
X45792Y2861D01*
X45617Y2583D01*
X45423Y2318D01*
X45211Y2067D01*
X44982Y1832D01*
X44737Y1613D01*
X44478Y1411D01*
X44205Y1229D01*
X43920Y1065D01*
X43624Y922D01*
X43319Y800D01*
X43007Y700D01*
X42688Y622D01*
X42364Y566D01*
X42037Y532D01*
X41749Y523D01*
X10205D01*
X10197Y522D01*
X10052Y525D01*
X9714Y550D01*
X9389Y596D01*
X9068Y666D01*
X8753Y757D01*
X8445Y871D01*
X8145Y1005D01*
X7856Y1161D01*
X7578Y1335D01*
X7313Y1529D01*
X7110Y1701D01*
X7119Y1849D01*
X7307Y2201D01*
X14080D01*
Y3081D01*
X19432D01*
X20313Y2716D01*
X21448Y2567D01*
X22583Y2716D01*
X23640Y3154D01*
X24548Y3851D01*
X25245Y4759D01*
X25683Y5816D01*
X25832Y6951D01*
X25683Y8086D01*
X25245Y9143D01*
X24548Y10051D01*
X23640Y10748D01*
X22583Y11186D01*
X21448Y11335D01*
X20313Y11186D01*
X19256Y10748D01*
X18348Y10051D01*
X17651Y9143D01*
X17213Y8086D01*
X17140Y7529D01*
X14080D01*
Y8925D01*
X6568D01*
Y3152D01*
X6068Y3019D01*
X6060Y3032D01*
X5917Y3328D01*
X5796Y3633D01*
X5695Y3945D01*
X5617Y4264D01*
X5561Y4588D01*
X5528Y4915D01*
X5516Y5285D01*
X5515Y5287D01*
Y87766D01*
X5977Y87958D01*
X14166Y79769D01*
X13929Y79299D01*
X13661Y79299D01*
X12520D01*
Y79594D01*
X12350Y80445D01*
X11868Y81166D01*
X11147Y81648D01*
X10296Y81818D01*
X9445Y81648D01*
X8724Y81166D01*
X8241Y80445D01*
X8072Y79594D01*
Y79299D01*
X6581D01*
Y76437D01*
X10337D01*
X14093D01*
Y78831D01*
X14093Y79135D01*
X14562Y79373D01*
X15797Y78139D01*
X16293Y77807D01*
X16878Y77691D01*
X22079D01*
X27606Y72162D01*
X27593Y72146D01*
X27155Y71089D01*
X27006Y69954D01*
X27155Y68819D01*
X27593Y67762D01*
X28290Y66854D01*
X29198Y66157D01*
X30255Y65719D01*
X31390Y65570D01*
X32525Y65719D01*
X33582Y66157D01*
X34490Y66854D01*
X35187Y67762D01*
X35625Y68819D01*
X35774Y69954D01*
X35625Y71089D01*
X35187Y72146D01*
X34490Y73054D01*
X33582Y73751D01*
X32525Y74189D01*
X31390Y74338D01*
X30255Y74189D01*
X30008Y74086D01*
X23794Y80301D01*
X23794Y80301D01*
X23793Y80301D01*
X23597Y80433D01*
X23297Y80633D01*
X23297Y80633D01*
X23297Y80633D01*
X22974Y80697D01*
X22712Y80749D01*
X22712Y80749D01*
X22712Y80749D01*
X17512D01*
X8005Y90255D01*
Y90952D01*
X8102Y91029D01*
X8772Y90927D01*
X8799Y90887D01*
X17672Y82014D01*
X18168Y81682D01*
X18753Y81566D01*
X32372D01*
X37767Y76170D01*
Y48103D01*
X32513Y42849D01*
X32425Y42886D01*
X31290Y43035D01*
X30155Y42886D01*
X29098Y42448D01*
X28190Y41751D01*
X27493Y40843D01*
X27055Y39786D01*
X26906Y38651D01*
X27055Y37516D01*
X27493Y36459D01*
X28190Y35551D01*
X29098Y34854D01*
X30155Y34416D01*
X31290Y34267D01*
X32425Y34416D01*
X33482Y34854D01*
X34390Y35551D01*
X35087Y36459D01*
X35525Y37516D01*
X35674Y38651D01*
X35525Y39786D01*
X35087Y40843D01*
X34976Y40987D01*
X40377Y46387D01*
X40377Y46387D01*
X40377Y46388D01*
X40509Y46584D01*
X40709Y46884D01*
X40709Y46884D01*
X40709Y46884D01*
X40773Y47207D01*
X40825Y47469D01*
X40825Y47469D01*
X40825Y47469D01*
Y76804D01*
X40709Y77389D01*
X40377Y77885D01*
X34086Y84176D01*
X33590Y84508D01*
X33005Y84624D01*
X19387D01*
X11409Y92602D01*
Y109503D01*
X19901Y117995D01*
X20284Y117837D01*
X21213Y117714D01*
X22142Y117837D01*
X23008Y118195D01*
X23751Y118766D01*
X24322Y119509D01*
X24680Y120375D01*
X24803Y121304D01*
X24680Y122233D01*
X24322Y123099D01*
X23751Y123842D01*
X23008Y124413D01*
X22142Y124771D01*
X21213Y124894D01*
X20284Y124771D01*
X19418Y124413D01*
X18675Y123842D01*
X18104Y123099D01*
X17746Y122233D01*
X17623Y121304D01*
X17746Y120375D01*
X17807Y120227D01*
X8799Y111218D01*
X8772Y111178D01*
X8102Y111076D01*
X8005Y111153D01*
Y115933D01*
X9990Y117917D01*
X10284Y117795D01*
X11213Y117672D01*
X12142Y117795D01*
X13008Y118153D01*
X13751Y118724D01*
X14322Y119467D01*
X14680Y120333D01*
X14803Y121262D01*
X14680Y122191D01*
X14322Y123057D01*
X13751Y123800D01*
X13008Y124371D01*
X12142Y124729D01*
X11213Y124852D01*
X10284Y124729D01*
X9418Y124371D01*
X8675Y123800D01*
X8104Y123057D01*
X7746Y122191D01*
X7623Y121262D01*
X7746Y120333D01*
X7844Y120096D01*
X5977Y118230D01*
X5515Y118422D01*
Y145926D01*
X5519Y146090D01*
X5544Y146428D01*
X5590Y146753D01*
X5660Y147074D01*
X5751Y147389D01*
X5865Y147697D01*
X5999Y147997D01*
X6154Y148286D01*
X6329Y148564D01*
X6523Y148829D01*
X6735Y149080D01*
X6964Y149315D01*
X7209Y149534D01*
X7468Y149736D01*
X7741Y149918D01*
X8026Y150082D01*
X8322Y150224D01*
X8627Y150347D01*
X8939Y150447D01*
X9258Y150525D01*
X9582Y150581D01*
X9909Y150615D01*
X10208Y150624D01*
X10210Y150624D01*
D02*
G37*
%LPC*%
G36*
X9754Y44437D02*
X6498D01*
Y41575D01*
X9754D01*
Y44437D01*
D02*
G37*
G36*
X21290Y43035D02*
X20155Y42886D01*
X19098Y42448D01*
X18190Y41751D01*
X17493Y40843D01*
X17055Y39786D01*
X16977Y39194D01*
X14010D01*
Y40425D01*
X6498D01*
Y33701D01*
X14010D01*
Y34746D01*
X19359D01*
X20155Y34416D01*
X21290Y34267D01*
X22425Y34416D01*
X23482Y34854D01*
X24390Y35551D01*
X25087Y36459D01*
X25525Y37516D01*
X25674Y38651D01*
X25525Y39786D01*
X25087Y40843D01*
X24390Y41751D01*
X23482Y42448D01*
X22425Y42886D01*
X21290Y43035D01*
D02*
G37*
G36*
X10254Y50978D02*
X9403Y50808D01*
X8682Y50326D01*
X8200Y49605D01*
X8030Y48754D01*
Y48299D01*
X6498D01*
Y45437D01*
X10254D01*
X14010D01*
Y48299D01*
X12478D01*
Y48754D01*
X12308Y49605D01*
X11826Y50326D01*
X11105Y50808D01*
X10254Y50978D01*
D02*
G37*
G36*
X14010Y44437D02*
X10754D01*
Y41575D01*
X14010D01*
Y44437D01*
D02*
G37*
G36*
X31338Y124977D02*
X30409Y124854D01*
X29543Y124496D01*
X28800Y123925D01*
X28229Y123182D01*
X27871Y122316D01*
X27748Y121387D01*
X27871Y120458D01*
X28229Y119592D01*
X28800Y118849D01*
X29543Y118278D01*
X30409Y117920D01*
X31338Y117797D01*
X32267Y117920D01*
X32472Y118005D01*
X42017Y108460D01*
Y20353D01*
X32771Y11108D01*
X32583Y11186D01*
X31448Y11335D01*
X30313Y11186D01*
X29256Y10748D01*
X28348Y10051D01*
X27651Y9143D01*
X27213Y8086D01*
X27064Y6951D01*
X27213Y5816D01*
X27651Y4759D01*
X28348Y3851D01*
X29256Y3154D01*
X30313Y2716D01*
X31448Y2567D01*
X32583Y2716D01*
X33640Y3154D01*
X34548Y3851D01*
X35245Y4759D01*
X35683Y5816D01*
X35832Y6951D01*
X35683Y8086D01*
X35245Y9143D01*
X35196Y9207D01*
X44627Y18638D01*
X44627Y18638D01*
X44627Y18638D01*
X44759Y18835D01*
X44959Y19134D01*
X44959Y19134D01*
X44959Y19134D01*
X45075Y19719D01*
X45075Y19719D01*
X45075Y19719D01*
Y109094D01*
X44959Y109679D01*
X44627Y110175D01*
X34670Y120132D01*
X34805Y120458D01*
X34928Y121387D01*
X34805Y122316D01*
X34447Y123182D01*
X33876Y123925D01*
X33133Y124496D01*
X32267Y124854D01*
X31338Y124977D01*
D02*
G37*
G36*
X14080Y12937D02*
X10824D01*
Y10075D01*
X14080D01*
Y12937D01*
D02*
G37*
G36*
X9824D02*
X6568D01*
Y10075D01*
X9824D01*
Y12937D01*
D02*
G37*
G36*
X10296Y19110D02*
X9445Y18940D01*
X8724Y18458D01*
X8241Y17737D01*
X8072Y16886D01*
Y16799D01*
X6568D01*
Y13937D01*
X10324D01*
X14080D01*
Y16799D01*
X12520D01*
Y16886D01*
X12350Y17737D01*
X11868Y18458D01*
X11147Y18940D01*
X10296Y19110D01*
D02*
G37*
G36*
X44778Y120763D02*
X41754D01*
Y117739D01*
X42183Y117796D01*
X43049Y118154D01*
X43792Y118725D01*
X44363Y119468D01*
X44721Y120334D01*
X44778Y120763D01*
D02*
G37*
G36*
X40754D02*
X37730D01*
X37787Y120334D01*
X38145Y119468D01*
X38716Y118725D01*
X39459Y118154D01*
X40325Y117796D01*
X40754Y117739D01*
Y120763D01*
D02*
G37*
G36*
X41754Y124787D02*
Y121763D01*
X44778D01*
X44721Y122192D01*
X44363Y123058D01*
X43792Y123801D01*
X43049Y124372D01*
X42183Y124730D01*
X41754Y124787D01*
D02*
G37*
G36*
X40754D02*
X40325Y124730D01*
X39459Y124372D01*
X38716Y123801D01*
X38145Y123058D01*
X37787Y122192D01*
X37730Y121763D01*
X40754D01*
Y124787D01*
D02*
G37*
G36*
X9837Y75437D02*
X6581D01*
Y72575D01*
X9837D01*
Y75437D01*
D02*
G37*
G36*
X21390Y74338D02*
X20255Y74189D01*
X19198Y73751D01*
X18290Y73054D01*
X17593Y72146D01*
X17155Y71089D01*
X17120Y70820D01*
X14093D01*
Y71425D01*
X6581D01*
Y64701D01*
X14093D01*
Y66372D01*
X18918D01*
X19198Y66157D01*
X20255Y65719D01*
X21390Y65570D01*
X22525Y65719D01*
X23582Y66157D01*
X24490Y66854D01*
X25187Y67762D01*
X25625Y68819D01*
X25774Y69954D01*
X25625Y71089D01*
X25187Y72146D01*
X24490Y73054D01*
X23582Y73751D01*
X22525Y74189D01*
X21390Y74338D01*
D02*
G37*
G36*
X26122Y115522D02*
X23957Y115352D01*
X21846Y114845D01*
X19840Y114014D01*
X17988Y112879D01*
X16337Y111469D01*
X14927Y109818D01*
X13792Y107966D01*
X12961Y105960D01*
X12454Y103849D01*
X12284Y101684D01*
X12454Y99519D01*
X12961Y97408D01*
X13792Y95402D01*
X14927Y93550D01*
X16337Y91899D01*
X17988Y90489D01*
X19840Y89354D01*
X21846Y88523D01*
X23957Y88016D01*
X26122Y87846D01*
X28287Y88016D01*
X30398Y88523D01*
X32404Y89354D01*
X34256Y90489D01*
X35907Y91899D01*
X37317Y93550D01*
X38452Y95402D01*
X39283Y97408D01*
X39790Y99519D01*
X39960Y101684D01*
X39790Y103849D01*
X39283Y105960D01*
X38452Y107966D01*
X37317Y109818D01*
X35907Y111469D01*
X34256Y112879D01*
X32404Y114014D01*
X30398Y114845D01*
X28287Y115352D01*
X26122Y115522D01*
D02*
G37*
G36*
X14093Y75437D02*
X10837D01*
Y72575D01*
X14093D01*
Y75437D01*
D02*
G37*
%LPD*%
D10*
X21390Y69954D02*
D03*
X31390D02*
D03*
X21290Y38651D02*
D03*
X31290D02*
D03*
X21448Y6951D02*
D03*
X31448D02*
D03*
D11*
X11213Y121262D02*
D03*
X21213Y121304D02*
D03*
X31338Y121387D02*
D03*
X41254Y121263D02*
D03*
D12*
X10295Y79593D02*
D03*
X10296Y16886D02*
D03*
X10500Y49000D02*
D03*
D13*
X16207Y102227D02*
D03*
X18998Y108768D02*
D03*
Y94809D02*
D03*
X25582Y91727D02*
D03*
X33164Y94809D02*
D03*
X35623Y102018D02*
D03*
X32707Y109102D02*
D03*
X25664Y111478D02*
D03*
D14*
X26122Y101684D02*
D03*
D15*
X10211Y36970D02*
D03*
X10254Y44117D02*
D03*
X10281Y5411D02*
D03*
X10324Y12558D02*
D03*
X10295Y68553D02*
D03*
X10337Y75700D02*
D03*
D16*
Y68063D02*
D03*
Y75937D02*
D03*
X10254Y37063D02*
D03*
Y44937D02*
D03*
X10324Y5563D02*
D03*
Y13437D02*
D03*
D17*
X10296Y12636D02*
Y16886D01*
Y76054D02*
Y79594D01*
X10463Y44054D02*
Y44937D01*
X10254Y44117D02*
Y48754D01*
X19802Y5305D02*
X21448Y6951D01*
X10296Y5305D02*
X19802D01*
X19609Y36970D02*
X21290Y38651D01*
X10213Y36970D02*
X19609D01*
X10131Y68596D02*
X19256D01*
X21005Y70345D01*
D18*
X32005Y120635D02*
Y121220D01*
X20129Y120386D02*
Y120886D01*
D19*
X31037Y70878D02*
Y70894D01*
X22712Y79220D02*
X31037Y70894D01*
X16878Y79220D02*
X22712D01*
X11129Y121219D02*
Y121386D01*
X6476Y89622D02*
X16878Y79220D01*
X6476Y89622D02*
Y116566D01*
X11129Y121219D01*
X33005Y83095D02*
X39296Y76804D01*
X18753Y83095D02*
X33005D01*
X39296Y47469D02*
Y76804D01*
X30962Y7136D02*
X43546Y19719D01*
Y109094D01*
X32005Y120635D02*
X43546Y109094D01*
X30712Y38886D02*
X39296Y47469D01*
X9880Y110137D02*
X20129Y120386D01*
X9880Y91968D02*
X18753Y83095D01*
X9880Y91968D02*
Y110137D01*
M02*
