%FSLAX25Y25*%
%MOIN*%
G70*
G01*
G75*
%ADD10C,0.06693*%
%ADD11C,0.05118*%
%ADD12C,0.02362*%
%ADD13C,0.04000*%
%ADD14C,0.25591*%
%ADD15R,0.03937X0.02600*%
%ADD16R,0.05512X0.04724*%
%ADD17C,0.02362*%
%ADD18C,0.00787*%
%ADD19C,0.01000*%
%ADD20C,0.07493*%
%ADD21C,0.05918*%
%ADD22R,0.04737X0.03400*%
%ADD23R,0.06312X0.05524*%
%ADD24C,0.00394*%
%ADD25C,0.00400*%
%ADD26C,0.00394*%
%ADD27C,0.00500*%
%ADD28C,0.00667*%
%ADD29C,0.01600*%
%ADD30C,0.00800*%
D27*
X19618Y69954D02*
X23162D01*
X21390Y68182D02*
Y71725D01*
X29618Y69954D02*
X33162D01*
X31390Y68182D02*
Y71725D01*
X19519Y38651D02*
X23062D01*
X21290Y36880D02*
Y40422D01*
X29518Y38651D02*
X33062D01*
X31290Y36880D02*
Y40422D01*
X19677Y6951D02*
X23220D01*
X21448Y5179D02*
Y8722D01*
X29676Y6951D02*
X33220D01*
X31448Y5179D02*
Y8722D01*
X9245Y121262D02*
X13182D01*
X11213Y119293D02*
Y123231D01*
X19244Y121304D02*
X23181D01*
X21213Y119335D02*
Y123273D01*
X29370Y121387D02*
X33307D01*
X31338Y119419D02*
Y123355D01*
X39285Y121263D02*
X43222D01*
X41254Y119295D02*
Y123231D01*
X9507Y79593D02*
X11083D01*
X10295Y78806D02*
Y80380D01*
X9509Y16886D02*
X11084D01*
X10296Y16098D02*
Y17673D01*
X14207Y102227D02*
X18207D01*
X16207Y100227D02*
Y104227D01*
X16998Y108768D02*
X20998D01*
X18998Y106768D02*
Y110768D01*
X16998Y94809D02*
X20998D01*
X18998Y92809D02*
Y96809D01*
X23582Y91727D02*
X27582D01*
X25582Y89727D02*
Y93727D01*
X31164Y94809D02*
X35164D01*
X33164Y92809D02*
Y96809D01*
X33623Y102018D02*
X37623D01*
X35623Y100018D02*
Y104018D01*
X30707Y109102D02*
X34707D01*
X32707Y107102D02*
Y111102D01*
X23664Y111478D02*
X27664D01*
X25664Y109478D02*
Y113478D01*
X19626Y101684D02*
X32618D01*
X26122Y95188D02*
Y108180D01*
X9713Y49000D02*
X11287D01*
X10500Y48213D02*
Y49788D01*
M02*
