%FSLAX25Y25*%
%MOIN*%
G70*
G01*
G75*
%ADD10C,0.06693*%
%ADD11C,0.05118*%
%ADD12C,0.02362*%
%ADD13C,0.04000*%
%ADD14C,0.25591*%
%ADD15R,0.03937X0.02600*%
%ADD16R,0.05512X0.04724*%
%ADD17C,0.02362*%
%ADD18C,0.00787*%
%ADD19C,0.01000*%
G36*
X11291Y10956D02*
X11491D01*
X11597Y10962D01*
X11719Y10967D01*
X11857Y10973D01*
X12007Y10978D01*
X11796Y10518D01*
X11669Y10684D01*
X11291D01*
Y9968D01*
X11519D01*
X11630Y9974D01*
X11758Y9979D01*
X11891Y9985D01*
X12030Y9990D01*
X11796Y9508D01*
X11652Y9696D01*
X11291D01*
Y9280D01*
X11547Y9025D01*
X11169Y8647D01*
Y9696D01*
X11086D01*
X11031Y9691D01*
X10970D01*
X10903Y9685D01*
X10836Y9680D01*
X10770Y9674D01*
X10664Y9968D01*
X11169D01*
Y10684D01*
X10770D01*
X10620Y10978D01*
X10631D01*
X10664Y10973D01*
X10714D01*
X10786Y10967D01*
X10864Y10962D01*
X10958D01*
X11064Y10956D01*
X11169D01*
Y11478D01*
X11125Y11667D01*
X11291Y11839D01*
Y10956D01*
D02*
G37*
G36*
X10520Y28039D02*
X11169D01*
Y28478D01*
Y28483D01*
Y28489D01*
Y28522D01*
X11164Y28577D01*
Y28644D01*
X11153Y28722D01*
X11142Y28805D01*
X11125Y28894D01*
X11103Y28983D01*
X11291Y29171D01*
Y28039D01*
X11591D01*
X11713Y28045D01*
X11835D01*
X11891Y28050D01*
X11991D01*
X12030Y28056D01*
X11796Y27595D01*
X11652Y27767D01*
X11291D01*
Y26591D01*
X11547D01*
X11663Y26596D01*
X11780Y26602D01*
X11896Y26607D01*
X12007Y26613D01*
X11774Y26130D01*
X11630Y26319D01*
X11291D01*
Y25669D01*
X11547Y25414D01*
X11169Y25036D01*
Y26319D01*
X10520D01*
Y25397D01*
X10809Y25103D01*
X10392Y24681D01*
Y27029D01*
X9910D01*
Y25941D01*
X10098Y25730D01*
X9826Y25436D01*
X9721Y25625D01*
X9216D01*
X9094Y25619D01*
X8716D01*
X8600Y25614D01*
X8489D01*
X8389Y25608D01*
X8300D01*
X8233Y25603D01*
X8106Y25897D01*
X8294D01*
Y28394D01*
X8167D01*
X8045Y28688D01*
X8150D01*
X8228Y28683D01*
X8566D01*
X8705Y28677D01*
X9360D01*
X9715Y28683D01*
X10076Y28688D01*
X9910Y28394D01*
Y27301D01*
X10392D01*
Y28960D01*
Y28966D01*
Y28971D01*
Y29005D01*
X10387Y29060D01*
Y29127D01*
X10376Y29199D01*
X10365Y29288D01*
X10353Y29371D01*
X10331Y29460D01*
X10520Y29649D01*
Y28039D01*
D02*
G37*
G36*
X11314Y14736D02*
X11608Y14442D01*
X11186Y14042D01*
Y15324D01*
X7651D01*
X7612Y15330D01*
X7556Y15341D01*
X7501Y15357D01*
X7434Y15380D01*
X7373Y15407D01*
X7318Y15452D01*
X7312Y15457D01*
X7295Y15474D01*
X7268Y15502D01*
X7234Y15546D01*
X7196Y15596D01*
X7157Y15663D01*
X7118Y15735D01*
X7085Y15824D01*
X7090D01*
X7101Y15829D01*
X7118Y15840D01*
X7140Y15857D01*
X7173Y15879D01*
X7207Y15907D01*
X7240Y15940D01*
X7279Y15979D01*
X7323Y16023D01*
X7362Y16073D01*
X7406Y16134D01*
X7445Y16201D01*
X7490Y16279D01*
X7523Y16362D01*
X7562Y16456D01*
X7590Y16556D01*
X7667Y16540D01*
Y16534D01*
X7662Y16512D01*
Y16484D01*
X7656Y16445D01*
X7651Y16401D01*
X7645Y16345D01*
X7628Y16223D01*
X7617Y16101D01*
X7606Y15979D01*
X7601Y15923D01*
Y15874D01*
Y15829D01*
Y15796D01*
Y15790D01*
X7606Y15768D01*
X7617Y15746D01*
X7634Y15712D01*
X7667Y15685D01*
X7712Y15657D01*
X7773Y15640D01*
X7812Y15635D01*
X11186D01*
Y16267D01*
Y16273D01*
Y16279D01*
Y16312D01*
X11180Y16367D01*
Y16434D01*
X11169Y16506D01*
X11158Y16595D01*
X11147Y16678D01*
X11125Y16767D01*
X11314Y16956D01*
Y14736D01*
D02*
G37*
G36*
X8433Y13526D02*
X8450Y13515D01*
X8467Y13504D01*
X8528Y13470D01*
X8600Y13426D01*
X8694Y13376D01*
X8811Y13315D01*
X8938Y13248D01*
X9082Y13182D01*
X9244Y13110D01*
X9415Y13037D01*
X9599Y12965D01*
X9793Y12899D01*
X9993Y12832D01*
X10204Y12771D01*
X10420Y12721D01*
X10642Y12677D01*
Y13160D01*
X10603Y13343D01*
X10770Y13515D01*
Y12632D01*
X11280D01*
X11486Y12638D01*
X11591D01*
X11691Y12643D01*
X11785D01*
X11869Y12649D01*
X11946D01*
X12007Y12654D01*
X11796Y12150D01*
X11652Y12360D01*
X10770D01*
Y12127D01*
X11020Y11878D01*
X10642Y11500D01*
Y12360D01*
X10120D01*
Y12355D01*
X10109Y12338D01*
X10098Y12316D01*
X10081Y12283D01*
X10059Y12244D01*
X10037Y12199D01*
X9982Y12100D01*
X9921Y11994D01*
X9848Y11894D01*
X9776Y11800D01*
X9743Y11767D01*
X9710Y11733D01*
X9704Y11728D01*
X9676Y11711D01*
X9643Y11694D01*
X9593Y11672D01*
X9527Y11661D01*
X9454Y11655D01*
X9377Y11667D01*
X9332Y11683D01*
X9288Y11700D01*
X9277Y11705D01*
X9255Y11722D01*
X9232Y11744D01*
X9210Y11778D01*
Y11794D01*
Y11811D01*
X9216Y11833D01*
X9232Y11855D01*
X9255Y11878D01*
X9288Y11905D01*
X9338Y11928D01*
X9393Y11955D01*
X9399D01*
X9410Y11961D01*
X9427Y11972D01*
X9454Y11977D01*
X9482Y11994D01*
X9515Y12011D01*
X9599Y12055D01*
X9693Y12111D01*
X9793Y12183D01*
X9893Y12266D01*
X9993Y12360D01*
X9055D01*
X8827Y12355D01*
X8122D01*
X7900Y12349D01*
X7595D01*
X7506Y12344D01*
X7340D01*
X7273Y12338D01*
X7212D01*
X7085Y12654D01*
X7162D01*
X7229Y12649D01*
X7473D01*
X7540Y12643D01*
X7856D01*
X7950Y12638D01*
X8516D01*
X8650Y12632D01*
X9765D01*
X9754Y12638D01*
X9732Y12643D01*
X9693Y12666D01*
X9638Y12688D01*
X9571Y12716D01*
X9493Y12754D01*
X9404Y12799D01*
X9310Y12849D01*
X9205Y12910D01*
X9094Y12971D01*
X8983Y13043D01*
X8861Y13121D01*
X8738Y13204D01*
X8622Y13293D01*
X8500Y13387D01*
X8378Y13492D01*
X8422Y13531D01*
X8428D01*
X8433Y13526D01*
D02*
G37*
G36*
X7750Y34788D02*
X7756Y34771D01*
X7762Y34743D01*
X7773Y34699D01*
X7784Y34644D01*
X7801Y34571D01*
X7823Y34483D01*
X7850Y34377D01*
X7884Y34255D01*
X7928Y34105D01*
X7950Y34028D01*
X7972Y33939D01*
X7995Y33844D01*
X8022Y33750D01*
X8056Y33645D01*
X8083Y33534D01*
X8117Y33417D01*
X8156Y33295D01*
X8189Y33167D01*
X8233Y33034D01*
X8272Y32890D01*
X8317Y32740D01*
X8233Y32718D01*
Y32723D01*
X8228Y32734D01*
X8217Y32762D01*
X8206Y32790D01*
X8189Y32829D01*
X8172Y32879D01*
X8150Y32929D01*
X8128Y32990D01*
X8072Y33117D01*
X8011Y33267D01*
X7950Y33428D01*
X7878Y33589D01*
X7812Y33756D01*
X7739Y33922D01*
X7667Y34072D01*
X7601Y34216D01*
X7567Y34277D01*
X7540Y34338D01*
X7512Y34388D01*
X7484Y34433D01*
X7462Y34472D01*
X7440Y34505D01*
X7418Y34527D01*
X7401Y34544D01*
X7750Y34793D01*
Y34788D01*
D02*
G37*
G36*
X10054Y34866D02*
X10065Y34838D01*
X10076Y34816D01*
X10093Y34788D01*
X10115Y34760D01*
X10143Y34727D01*
X10181Y34688D01*
X10226Y34644D01*
X10276Y34594D01*
X10342Y34544D01*
X10414Y34488D01*
X10503Y34427D01*
X10603Y34366D01*
X10714Y34299D01*
X10720Y34294D01*
X10742Y34283D01*
X10775Y34266D01*
X10825Y34238D01*
X10881Y34211D01*
X10947Y34177D01*
X11020Y34139D01*
X11103Y34100D01*
X11191Y34055D01*
X11286Y34016D01*
X11486Y33928D01*
X11697Y33850D01*
X11902Y33789D01*
X11630Y33367D01*
X11502Y33534D01*
X11491Y33539D01*
X11469Y33556D01*
X11425Y33584D01*
X11369Y33622D01*
X11297Y33667D01*
X11219Y33722D01*
X11125Y33783D01*
X11025Y33850D01*
X10920Y33922D01*
X10803Y34000D01*
X10564Y34172D01*
X10320Y34355D01*
X10076Y34544D01*
X10143Y33556D01*
X10148Y33550D01*
X10159Y33545D01*
X10181Y33528D01*
X10209Y33511D01*
X10248Y33489D01*
X10287Y33461D01*
X10337Y33434D01*
X10387Y33400D01*
X10503Y33334D01*
X10637Y33267D01*
X10775Y33201D01*
X10914Y33140D01*
X10620Y32762D01*
X10520Y32951D01*
X10514D01*
X10509Y32962D01*
X10492Y32973D01*
X10470Y32990D01*
X10442Y33006D01*
X10409Y33034D01*
X10326Y33095D01*
X10231Y33167D01*
X10120Y33250D01*
X9998Y33351D01*
X9865Y33456D01*
X9732Y33567D01*
X9588Y33683D01*
X9310Y33928D01*
X9171Y34055D01*
X9044Y34177D01*
X8927Y34299D01*
X8822Y34416D01*
X9155Y32862D01*
X9071Y32845D01*
Y32851D01*
X9066Y32873D01*
X9055Y32901D01*
X9038Y32940D01*
X9021Y32990D01*
X9005Y33045D01*
X8983Y33112D01*
X8960Y33184D01*
X8911Y33339D01*
X8855Y33506D01*
X8800Y33683D01*
X8744Y33850D01*
Y33856D01*
X8738Y33867D01*
X8733Y33894D01*
X8722Y33922D01*
X8705Y33955D01*
X8694Y34000D01*
X8655Y34094D01*
X8605Y34200D01*
X8550Y34311D01*
X8489Y34411D01*
X8422Y34499D01*
X8800Y34732D01*
Y34727D01*
X8811Y34710D01*
X8822Y34683D01*
X8849Y34644D01*
X8883Y34594D01*
X8927Y34533D01*
X8988Y34466D01*
X9060Y34388D01*
X9066Y34383D01*
X9071Y34377D01*
X9088Y34366D01*
X9105Y34344D01*
X9132Y34322D01*
X9171Y34288D01*
X9216Y34249D01*
X9266Y34205D01*
X9327Y34155D01*
X9399Y34100D01*
X9477Y34033D01*
X9565Y33961D01*
X9665Y33883D01*
X9776Y33795D01*
X9904Y33700D01*
X10037Y33600D01*
Y33606D01*
X10032Y33622D01*
Y33645D01*
X10020Y33678D01*
X10015Y33717D01*
X10009Y33756D01*
X9987Y33861D01*
X9959Y33972D01*
X9932Y34089D01*
X9904Y34200D01*
X9876Y34294D01*
X9871Y34305D01*
X9865Y34333D01*
X9848Y34372D01*
X9826Y34422D01*
X9798Y34483D01*
X9760Y34538D01*
X9721Y34599D01*
X9676Y34649D01*
X10054Y34877D01*
Y34866D01*
D02*
G37*
G36*
X7151Y29432D02*
X7168Y29399D01*
X7190Y29355D01*
X7229Y29288D01*
X7273Y29205D01*
X7329Y29110D01*
X7390Y29005D01*
X7462Y28888D01*
X7540Y28766D01*
X7623Y28638D01*
X7717Y28505D01*
X7817Y28372D01*
X7923Y28239D01*
X8034Y28106D01*
X8150Y27972D01*
X8272Y27850D01*
X7939Y27490D01*
X7895Y27723D01*
Y27728D01*
X7889Y27734D01*
X7867Y27767D01*
X7834Y27823D01*
X7789Y27895D01*
X7739Y27984D01*
X7684Y28084D01*
X7617Y28194D01*
X7551Y28322D01*
X7479Y28450D01*
X7406Y28589D01*
X7273Y28872D01*
X7207Y29016D01*
X7151Y29155D01*
X7101Y29293D01*
X7062Y29421D01*
X7146Y29443D01*
X7151Y29432D01*
D02*
G37*
G36*
X7667Y31880D02*
X10958D01*
Y32296D01*
Y32302D01*
Y32307D01*
Y32340D01*
X10953Y32396D01*
Y32462D01*
X10942Y32540D01*
X10931Y32623D01*
X10920Y32712D01*
X10897Y32801D01*
X11086Y32990D01*
Y31042D01*
X11375Y30703D01*
X10958Y30287D01*
Y31586D01*
X7667D01*
Y30831D01*
X7961Y30476D01*
X7545Y30098D01*
Y32657D01*
Y32662D01*
Y32668D01*
Y32701D01*
X7540Y32757D01*
Y32823D01*
X7529Y32895D01*
X7517Y32984D01*
X7506Y33067D01*
X7484Y33156D01*
X7667Y33345D01*
Y31880D01*
D02*
G37*
G36*
X7961Y22866D02*
X7967Y22855D01*
X7972Y22839D01*
X7984Y22811D01*
X7995Y22783D01*
X8011Y22744D01*
X8050Y22656D01*
X8100Y22550D01*
X8156Y22428D01*
X8228Y22295D01*
X8305Y22151D01*
Y22145D01*
X8317Y22134D01*
X8328Y22112D01*
X8344Y22084D01*
X8361Y22051D01*
X8383Y22012D01*
X8439Y21912D01*
X8505Y21801D01*
X8572Y21684D01*
X8716Y21429D01*
X8650Y21385D01*
Y21390D01*
X8638Y21396D01*
X8633Y21412D01*
X8616Y21435D01*
X8578Y21490D01*
X8528Y21557D01*
X8467Y21645D01*
X8394Y21740D01*
X8322Y21845D01*
X8239Y21951D01*
X8067Y22167D01*
X7984Y22267D01*
X7900Y22356D01*
X7817Y22439D01*
X7745Y22506D01*
X7678Y22556D01*
X7651Y22572D01*
X7623Y22583D01*
X7961Y22872D01*
Y22866D01*
D02*
G37*
G36*
X9638Y22306D02*
X9632Y22300D01*
X9626Y22278D01*
X9610Y22251D01*
X9588Y22212D01*
X9565Y22162D01*
X9538Y22112D01*
X9471Y22001D01*
X9399Y21884D01*
X9360Y21829D01*
X9321Y21779D01*
X9282Y21734D01*
X9249Y21701D01*
X9216Y21673D01*
X9182Y21662D01*
X9177D01*
X9155Y21657D01*
X9082D01*
X9038Y21662D01*
X8983Y21673D01*
X8922Y21695D01*
X8861Y21734D01*
X8855Y21740D01*
X8838Y21751D01*
X8822Y21773D01*
X8811Y21801D01*
Y21834D01*
X8816Y21851D01*
X8833Y21868D01*
X8849Y21884D01*
X8877Y21901D01*
X8911Y21923D01*
X8955Y21940D01*
X8960D01*
X8966Y21945D01*
X8983Y21951D01*
X8999Y21962D01*
X9055Y21984D01*
X9132Y22028D01*
X9221Y22084D01*
X9327Y22151D01*
X9449Y22239D01*
X9577Y22350D01*
X9638Y22306D01*
D02*
G37*
G36*
X9782Y18843D02*
X9826Y18821D01*
X9876Y18787D01*
X9898Y18765D01*
X9926Y18737D01*
X9932Y18732D01*
X9959Y18710D01*
X9976Y18693D01*
X10004Y18676D01*
X10037Y18660D01*
X10070Y18637D01*
X10115Y18615D01*
X10165Y18587D01*
X10226Y18560D01*
X10292Y18538D01*
X10365Y18510D01*
X10448Y18482D01*
X10542Y18454D01*
X10642Y18427D01*
Y18343D01*
X10387D01*
X10298Y18349D01*
X10215D01*
X10126Y18354D01*
X10093D01*
X10048Y18360D01*
X10004Y18365D01*
X9948Y18377D01*
X9887Y18393D01*
X9832Y18410D01*
X9782Y18438D01*
X9776Y18443D01*
X9760Y18449D01*
X9743Y18465D01*
X9715Y18487D01*
X9687Y18515D01*
X9660Y18554D01*
X9638Y18593D01*
X9615Y18637D01*
Y18643D01*
X9610Y18660D01*
Y18682D01*
Y18710D01*
X9615Y18737D01*
X9626Y18771D01*
X9643Y18804D01*
X9676Y18832D01*
X9682D01*
X9693Y18843D01*
X9715D01*
X9748Y18848D01*
X9782Y18843D01*
D02*
G37*
G36*
X9993Y20380D02*
X10709D01*
Y21362D01*
Y21368D01*
Y21374D01*
Y21407D01*
X10703Y21462D01*
Y21529D01*
X10692Y21607D01*
X10681Y21690D01*
X10664Y21779D01*
X10642Y21868D01*
X10831Y22056D01*
Y20380D01*
X11480D01*
Y21551D01*
Y21557D01*
Y21562D01*
Y21596D01*
X11475Y21651D01*
Y21718D01*
X11463Y21795D01*
X11452Y21879D01*
X11441Y21967D01*
X11419Y22056D01*
X11608Y22245D01*
Y20419D01*
X11819Y20252D01*
X11547Y19897D01*
X11419Y20108D01*
X9993D01*
Y19919D01*
X10265Y19647D01*
X9865Y19309D01*
Y20946D01*
X9527D01*
X9521Y20941D01*
X9504Y20935D01*
X9482Y20930D01*
X9427Y20907D01*
X9349Y20874D01*
X9255Y20830D01*
X9144Y20780D01*
X9021Y20708D01*
X8883Y20630D01*
X8888Y20624D01*
X8899Y20608D01*
X8922Y20585D01*
X8949Y20552D01*
X8983Y20513D01*
X9027Y20469D01*
X9121Y20364D01*
X9232Y20252D01*
X9349Y20142D01*
X9471Y20042D01*
X9532Y19997D01*
X9593Y19958D01*
X9238Y19647D01*
X9216Y19853D01*
X9210Y19864D01*
X9199Y19892D01*
X9188Y19914D01*
X9171Y19942D01*
X9155Y19975D01*
X9132Y20014D01*
X9105Y20064D01*
X9077Y20114D01*
X9044Y20175D01*
X9005Y20241D01*
X8960Y20319D01*
X8911Y20402D01*
X8861Y20491D01*
X8800Y20591D01*
X8794Y20585D01*
X8783Y20580D01*
X8761Y20563D01*
X8733Y20541D01*
X8700Y20519D01*
X8661Y20486D01*
X8566Y20413D01*
X8461Y20325D01*
X8350Y20225D01*
X8245Y20114D01*
X8139Y19992D01*
X8134Y19986D01*
X8128Y19975D01*
X8117Y19958D01*
X8095Y19936D01*
X8078Y19908D01*
X8050Y19870D01*
X8000Y19786D01*
X7939Y19692D01*
X7884Y19586D01*
X7834Y19470D01*
X7795Y19353D01*
X7706D01*
Y19359D01*
Y19364D01*
Y19381D01*
Y19403D01*
X7701Y19453D01*
X7689Y19520D01*
X7662Y19598D01*
X7623Y19670D01*
X7562Y19747D01*
X7529Y19781D01*
X7484Y19814D01*
X7495Y19825D01*
X7523Y19853D01*
X7567Y19892D01*
X7628Y19947D01*
X7701Y20019D01*
X7789Y20097D01*
X7895Y20180D01*
X8011Y20269D01*
X8139Y20364D01*
X8272Y20458D01*
X8422Y20552D01*
X8578Y20647D01*
X8738Y20730D01*
X8905Y20813D01*
X9082Y20885D01*
X9260Y20946D01*
X7634D01*
X7595Y20952D01*
X7556Y20957D01*
X7512Y20968D01*
X7462Y20985D01*
X7412Y21007D01*
X7362Y21041D01*
X7312Y21074D01*
X7262Y21124D01*
X7218Y21179D01*
X7173Y21240D01*
X7140Y21318D01*
X7107Y21407D01*
X7118D01*
X7135Y21412D01*
X7157Y21418D01*
X7207Y21440D01*
X7240Y21462D01*
X7273Y21485D01*
X7306Y21518D01*
X7345Y21557D01*
X7379Y21601D01*
X7418Y21657D01*
X7451Y21718D01*
X7484Y21790D01*
X7517Y21879D01*
X7545Y21973D01*
X7623D01*
Y21967D01*
Y21951D01*
X7617Y21923D01*
Y21890D01*
X7612Y21851D01*
X7606Y21806D01*
X7595Y21707D01*
X7590Y21596D01*
X7579Y21496D01*
Y21451D01*
Y21407D01*
Y21374D01*
Y21346D01*
Y21340D01*
X7584Y21324D01*
X7590Y21307D01*
X7606Y21279D01*
X7623Y21257D01*
X7656Y21240D01*
X7695Y21224D01*
X7750Y21218D01*
X9865D01*
Y21995D01*
Y22001D01*
Y22006D01*
Y22039D01*
X9860Y22095D01*
Y22162D01*
X9848Y22234D01*
X9837Y22323D01*
X9826Y22406D01*
X9804Y22495D01*
X9993Y22683D01*
Y20380D01*
D02*
G37*
G36*
X8167Y26735D02*
Y26729D01*
X8161Y26707D01*
X8150Y26674D01*
X8134Y26624D01*
X8117Y26568D01*
X8100Y26502D01*
X8078Y26430D01*
X8050Y26352D01*
X8022Y26263D01*
X7995Y26174D01*
X7928Y25986D01*
X7856Y25791D01*
X7784Y25608D01*
Y25603D01*
X7773Y25586D01*
X7762Y25564D01*
X7750Y25530D01*
X7706Y25458D01*
X7645Y25370D01*
X7573Y25286D01*
X7529Y25247D01*
X7484Y25214D01*
X7434Y25186D01*
X7384Y25170D01*
X7329Y25159D01*
X7257D01*
X7223Y25170D01*
X7184Y25186D01*
X7151Y25214D01*
X7140Y25236D01*
X7135Y25264D01*
Y25292D01*
X7146Y25331D01*
X7168Y25370D01*
X7201Y25420D01*
X7245Y25475D01*
X7306Y25536D01*
X7312Y25542D01*
X7323Y25553D01*
X7345Y25575D01*
X7368Y25603D01*
X7401Y25642D01*
X7445Y25691D01*
X7490Y25747D01*
X7540Y25819D01*
X7595Y25897D01*
X7656Y25986D01*
X7717Y26085D01*
X7789Y26197D01*
X7856Y26319D01*
X7928Y26452D01*
X8006Y26596D01*
X8083Y26757D01*
X8167Y26735D01*
D02*
G37*
G36*
X7257Y18776D02*
X7284Y18754D01*
X7318Y18726D01*
X7368Y18682D01*
X7429Y18637D01*
X7501Y18582D01*
X7584Y18521D01*
X7673Y18460D01*
X7773Y18393D01*
X7878Y18327D01*
X8100Y18204D01*
X8217Y18149D01*
X8339Y18099D01*
X8455Y18060D01*
X8578Y18027D01*
X8583D01*
X8605Y18021D01*
X8644Y18010D01*
X8688Y18005D01*
X8749Y17994D01*
X8822Y17982D01*
X8905Y17966D01*
X8999Y17955D01*
X9099Y17938D01*
X9210Y17927D01*
X9327Y17916D01*
X9454Y17905D01*
X9588Y17899D01*
X9726Y17888D01*
X10165D01*
X10243Y17894D01*
X10564D01*
X10698Y17899D01*
X10847D01*
X11003Y17905D01*
X11175D01*
X11353Y17910D01*
X11541Y17916D01*
X11735D01*
X11941Y17921D01*
X11752Y17461D01*
X11586Y17605D01*
X10243D01*
X10248Y17600D01*
X10265Y17589D01*
X10287Y17572D01*
X10320Y17544D01*
X10359Y17511D01*
X10403Y17477D01*
X10453Y17439D01*
X10509Y17400D01*
X10631Y17311D01*
X10770Y17228D01*
X10903Y17144D01*
X11042Y17083D01*
X10747Y16728D01*
Y16734D01*
X10736Y16756D01*
X10720Y16789D01*
X10698Y16834D01*
X10664Y16889D01*
X10631Y16950D01*
X10581Y17011D01*
X10526Y17083D01*
X10520Y17095D01*
X10498Y17117D01*
X10464Y17161D01*
X10414Y17217D01*
X10359Y17294D01*
X10287Y17383D01*
X10209Y17489D01*
X10120Y17605D01*
X10043D01*
X9987Y17611D01*
X9921D01*
X9837Y17616D01*
X9754Y17622D01*
X9660D01*
X9465Y17633D01*
X9260Y17650D01*
X9166Y17655D01*
X9071Y17666D01*
X8983Y17677D01*
X8905Y17688D01*
X8899Y17683D01*
X8894Y17666D01*
X8877Y17638D01*
X8861Y17605D01*
X8838Y17566D01*
X8811Y17522D01*
X8744Y17416D01*
X8666Y17305D01*
X8589Y17194D01*
X8505Y17100D01*
X8461Y17056D01*
X8422Y17022D01*
X8411Y17017D01*
X8389Y16995D01*
X8344Y16967D01*
X8294Y16939D01*
X8239Y16911D01*
X8172Y16889D01*
X8111Y16878D01*
X8045Y16884D01*
X8039D01*
X8017Y16889D01*
X7989Y16900D01*
X7961Y16911D01*
X7928Y16928D01*
X7895Y16945D01*
X7873Y16972D01*
X7856Y17000D01*
Y17006D01*
Y17017D01*
X7867Y17033D01*
X7889Y17061D01*
X7928Y17095D01*
X7956Y17117D01*
X7989Y17139D01*
X8028Y17161D01*
X8072Y17189D01*
X8128Y17217D01*
X8189Y17244D01*
X8195D01*
X8206Y17250D01*
X8222Y17261D01*
X8250Y17272D01*
X8278Y17289D01*
X8317Y17311D01*
X8400Y17361D01*
X8494Y17427D01*
X8594Y17505D01*
X8700Y17600D01*
X8800Y17711D01*
X8788D01*
X8755Y17722D01*
X8705Y17733D01*
X8633Y17755D01*
X8550Y17783D01*
X8455Y17821D01*
X8344Y17866D01*
X8228Y17921D01*
X8100Y17982D01*
X7967Y18060D01*
X7834Y18144D01*
X7695Y18243D01*
X7556Y18349D01*
X7423Y18471D01*
X7290Y18610D01*
X7168Y18759D01*
X7251Y18782D01*
X7257Y18776D01*
D02*
G37*
G36*
X7961Y24210D02*
X7967Y24198D01*
X7972Y24176D01*
X7978Y24143D01*
X7989Y24099D01*
X8006Y24037D01*
X8028Y23971D01*
X8056Y23882D01*
X8089Y23782D01*
X8134Y23666D01*
X8178Y23532D01*
X8233Y23377D01*
X8294Y23205D01*
X8372Y23011D01*
X8411Y22905D01*
X8450Y22800D01*
X8494Y22683D01*
X8544Y22561D01*
X8483Y22539D01*
Y22545D01*
X8472Y22561D01*
X8461Y22583D01*
X8439Y22617D01*
X8416Y22667D01*
X8383Y22722D01*
X8350Y22783D01*
X8305Y22861D01*
X8261Y22950D01*
X8206Y23044D01*
X8145Y23155D01*
X8078Y23272D01*
X8006Y23405D01*
X7928Y23544D01*
X7845Y23699D01*
X7750Y23860D01*
X7606Y23965D01*
X7961Y24215D01*
Y24210D01*
D02*
G37*
G36*
X10348Y24182D02*
X10359Y24154D01*
X10381Y24110D01*
X10403Y24082D01*
X10426Y24049D01*
X10459Y24015D01*
X10498Y23977D01*
X10542Y23932D01*
X10598Y23888D01*
X10659Y23838D01*
X10736Y23782D01*
X10820Y23727D01*
X10914Y23671D01*
X10920Y23666D01*
X10936Y23655D01*
X10970Y23643D01*
X11008Y23621D01*
X11058Y23594D01*
X11114Y23566D01*
X11180Y23532D01*
X11247Y23494D01*
X11325Y23460D01*
X11408Y23422D01*
X11580Y23344D01*
X11758Y23272D01*
X11941Y23211D01*
X11652Y22750D01*
X11547Y23000D01*
X11541Y23005D01*
X11519Y23016D01*
X11486Y23039D01*
X11441Y23072D01*
X11386Y23105D01*
X11319Y23149D01*
X11247Y23200D01*
X11164Y23255D01*
X11075Y23316D01*
X10981Y23383D01*
X10775Y23532D01*
X10559Y23688D01*
X10331Y23860D01*
X10348Y22977D01*
X10353D01*
X10365Y22966D01*
X10381Y22955D01*
X10409Y22944D01*
X10437Y22928D01*
X10476Y22905D01*
X10564Y22861D01*
X10664Y22805D01*
X10786Y22750D01*
X10909Y22694D01*
X11042Y22645D01*
X10747Y22245D01*
X10664Y22434D01*
X10653Y22439D01*
X10625Y22461D01*
X10581Y22495D01*
X10520Y22539D01*
X10448Y22600D01*
X10359Y22667D01*
X10265Y22739D01*
X10154Y22828D01*
X10037Y22917D01*
X9915Y23016D01*
X9782Y23122D01*
X9649Y23227D01*
X9371Y23455D01*
X9094Y23694D01*
Y23688D01*
Y23671D01*
Y23649D01*
X9099Y23610D01*
Y23566D01*
X9105Y23510D01*
X9110Y23444D01*
X9116Y23371D01*
X9121Y23288D01*
X9132Y23194D01*
X9144Y23094D01*
X9155Y22983D01*
X9166Y22866D01*
X9182Y22739D01*
X9199Y22600D01*
X9216Y22456D01*
X9132Y22434D01*
Y22439D01*
X9127Y22450D01*
Y22467D01*
X9121Y22489D01*
X9116Y22517D01*
X9105Y22550D01*
X9088Y22633D01*
X9066Y22733D01*
X9038Y22844D01*
X9005Y22961D01*
X8971Y23088D01*
X8933Y23211D01*
X8894Y23333D01*
X8855Y23449D01*
X8816Y23555D01*
X8772Y23649D01*
X8733Y23727D01*
X8711Y23760D01*
X8688Y23782D01*
X8672Y23804D01*
X8650Y23816D01*
X9049Y24071D01*
Y24065D01*
X9060Y24037D01*
X9077Y24004D01*
X9110Y23949D01*
X9155Y23882D01*
X9188Y23843D01*
X9227Y23799D01*
X9271Y23754D01*
X9321Y23705D01*
X9382Y23655D01*
X9449Y23599D01*
X9454Y23594D01*
X9465Y23588D01*
X9488Y23571D01*
X9515Y23549D01*
X9549Y23521D01*
X9593Y23488D01*
X9638Y23455D01*
X9687Y23416D01*
X9810Y23327D01*
X9943Y23238D01*
X10087Y23138D01*
X10243Y23044D01*
Y23050D01*
Y23061D01*
Y23077D01*
X10237Y23100D01*
X10231Y23161D01*
X10226Y23238D01*
X10215Y23322D01*
X10198Y23416D01*
X10181Y23505D01*
X10159Y23588D01*
Y23599D01*
X10148Y23621D01*
X10131Y23666D01*
X10109Y23716D01*
X10081Y23771D01*
X10048Y23838D01*
X10004Y23899D01*
X9954Y23965D01*
X10348Y24193D01*
Y24182D01*
D02*
G37*
G36*
X7190Y45616D02*
X7196Y45605D01*
X7201Y45588D01*
X7207Y45566D01*
X7218Y45533D01*
X7234Y45494D01*
X7245Y45455D01*
X7262Y45405D01*
X7306Y45294D01*
X7356Y45166D01*
X7418Y45022D01*
X7484Y44867D01*
X7562Y44700D01*
X7645Y44528D01*
X7739Y44350D01*
X7845Y44173D01*
X7956Y43995D01*
X8072Y43818D01*
X8200Y43646D01*
X8339Y43485D01*
X8344Y43490D01*
X8367Y43501D01*
X8405Y43529D01*
X8455Y43557D01*
X8516Y43596D01*
X8589Y43640D01*
X8677Y43690D01*
X8777Y43746D01*
X8888Y43801D01*
X9010Y43862D01*
X9149Y43923D01*
X9293Y43990D01*
X9449Y44051D01*
X9610Y44118D01*
X9787Y44179D01*
X9971Y44240D01*
X9993Y44156D01*
X9982Y44151D01*
X9954Y44140D01*
X9904Y44118D01*
X9843Y44090D01*
X9765Y44056D01*
X9676Y44012D01*
X9582Y43962D01*
X9471Y43912D01*
X9360Y43851D01*
X9238Y43784D01*
X8994Y43646D01*
X8755Y43485D01*
X8638Y43402D01*
X8528Y43318D01*
X8533Y43313D01*
X8555Y43296D01*
X8589Y43274D01*
X8633Y43246D01*
X8688Y43207D01*
X8761Y43163D01*
X8838Y43119D01*
X8933Y43063D01*
X9038Y43007D01*
X9155Y42952D01*
X9282Y42896D01*
X9421Y42835D01*
X9571Y42780D01*
X9726Y42724D01*
X9898Y42674D01*
X10076Y42625D01*
X9782Y42142D01*
X9676Y42353D01*
X9665Y42358D01*
X9638Y42369D01*
X9593Y42391D01*
X9527Y42419D01*
X9454Y42458D01*
X9371Y42502D01*
X9277Y42552D01*
X9171Y42602D01*
X8955Y42724D01*
X8733Y42863D01*
X8627Y42941D01*
X8522Y43013D01*
X8428Y43091D01*
X8339Y43168D01*
X8328Y43157D01*
X8305Y43124D01*
X8267Y43074D01*
X8211Y43007D01*
X8150Y42913D01*
X8083Y42808D01*
X8011Y42680D01*
X7939Y42536D01*
X7867Y42375D01*
X7795Y42203D01*
X7734Y42008D01*
X7678Y41798D01*
X7634Y41576D01*
X7601Y41337D01*
X7590Y41087D01*
Y40821D01*
X7523D01*
Y40826D01*
X7517Y40837D01*
X7506Y40854D01*
X7495Y40871D01*
X7468Y40926D01*
X7423Y40993D01*
X7373Y41059D01*
X7312Y41120D01*
X7245Y41170D01*
X7207Y41187D01*
X7168Y41198D01*
Y41204D01*
Y41215D01*
X7173Y41232D01*
X7179Y41259D01*
X7184Y41293D01*
X7190Y41331D01*
X7201Y41376D01*
X7212Y41431D01*
X7240Y41548D01*
X7273Y41681D01*
X7318Y41831D01*
X7368Y41992D01*
X7429Y42158D01*
X7501Y42330D01*
X7579Y42508D01*
X7673Y42686D01*
X7773Y42858D01*
X7889Y43024D01*
X8011Y43174D01*
X8150Y43318D01*
X8145Y43329D01*
X8117Y43357D01*
X8078Y43407D01*
X8034Y43479D01*
X7972Y43562D01*
X7900Y43668D01*
X7828Y43790D01*
X7745Y43934D01*
X7662Y44090D01*
X7573Y44262D01*
X7484Y44451D01*
X7401Y44650D01*
X7318Y44867D01*
X7240Y45100D01*
X7168Y45344D01*
X7107Y45599D01*
X7190Y45621D01*
Y45616D01*
D02*
G37*
G36*
X12007Y43696D02*
X12002Y43690D01*
X11991Y43668D01*
X11974Y43635D01*
X11952Y43590D01*
X11924Y43540D01*
X11891Y43485D01*
X11813Y43357D01*
X11730Y43235D01*
X11686Y43174D01*
X11641Y43124D01*
X11597Y43080D01*
X11558Y43046D01*
X11519Y43024D01*
X11480Y43013D01*
X11447D01*
X11413Y43018D01*
X11369Y43024D01*
X11319Y43041D01*
X11269Y43063D01*
X11214Y43096D01*
X11164Y43141D01*
X11158Y43146D01*
X11147Y43163D01*
X11142Y43185D01*
X11136Y43218D01*
X11147Y43257D01*
X11158Y43274D01*
X11175Y43290D01*
X11197Y43313D01*
X11230Y43329D01*
X11269Y43352D01*
X11314Y43368D01*
X11319D01*
X11325Y43374D01*
X11341Y43379D01*
X11364Y43385D01*
X11419Y43413D01*
X11497Y43451D01*
X11586Y43507D01*
X11691Y43574D01*
X11813Y43657D01*
X11941Y43757D01*
X12007Y43696D01*
D02*
G37*
G36*
X11086Y41703D02*
X11419Y41365D01*
X10958Y40904D01*
Y44972D01*
Y44983D01*
Y45017D01*
X10953Y45061D01*
Y45128D01*
X10942Y45200D01*
X10931Y45283D01*
X10920Y45366D01*
X10897Y45455D01*
X11086Y45644D01*
Y41703D01*
D02*
G37*
G36*
X10770Y42708D02*
X10764Y42697D01*
X10753Y42674D01*
X10736Y42636D01*
X10714Y42586D01*
X10687Y42525D01*
X10648Y42458D01*
X10614Y42380D01*
X10570Y42297D01*
X10481Y42120D01*
X10381Y41936D01*
X10287Y41759D01*
X10237Y41681D01*
X10193Y41609D01*
Y41603D01*
X10181Y41592D01*
X10170Y41576D01*
X10154Y41553D01*
X10104Y41498D01*
X10037Y41442D01*
X9959Y41387D01*
X9915Y41365D01*
X9871Y41348D01*
X9826Y41337D01*
X9776D01*
X9721Y41342D01*
X9671Y41359D01*
X9665D01*
X9660Y41365D01*
X9632Y41381D01*
X9593Y41403D01*
X9560Y41437D01*
X9538Y41476D01*
X9532Y41498D01*
X9538Y41520D01*
X9549Y41548D01*
X9565Y41576D01*
X9599Y41603D01*
X9638Y41631D01*
X9643D01*
X9649Y41637D01*
X9682Y41659D01*
X9726Y41692D01*
X9793Y41737D01*
X9865Y41798D01*
X9943Y41864D01*
X10032Y41942D01*
X10115Y42031D01*
X10120D01*
X10126Y42042D01*
X10137Y42058D01*
X10159Y42075D01*
X10181Y42103D01*
X10209Y42131D01*
X10237Y42169D01*
X10276Y42208D01*
X10315Y42258D01*
X10359Y42314D01*
X10403Y42369D01*
X10453Y42436D01*
X10509Y42508D01*
X10564Y42580D01*
X10625Y42663D01*
X10687Y42752D01*
X10770Y42708D01*
D02*
G37*
G36*
X11447Y50206D02*
X10992D01*
Y52476D01*
X9821D01*
Y50350D01*
X9366D01*
Y52476D01*
X8061D01*
Y50117D01*
X7606D01*
Y52986D01*
X11447D01*
Y50206D01*
D02*
G37*
G36*
Y55489D02*
X8061D01*
Y53597D01*
X7606D01*
Y56000D01*
X11447D01*
Y55489D01*
D02*
G37*
G36*
X9410Y45572D02*
X9421Y45555D01*
X9443Y45527D01*
X9465Y45488D01*
X9499Y45444D01*
X9543Y45388D01*
X9588Y45333D01*
X9638Y45266D01*
X9754Y45122D01*
X9887Y44972D01*
X10026Y44811D01*
X10181Y44661D01*
X10187Y44656D01*
X10198Y44645D01*
X10220Y44622D01*
X10254Y44595D01*
X10287Y44567D01*
X10326Y44528D01*
X10420Y44451D01*
X10526Y44362D01*
X10631Y44278D01*
X10736Y44206D01*
X10786Y44179D01*
X10831Y44156D01*
X10498Y43779D01*
X10431Y43984D01*
X10420Y43995D01*
X10392Y44023D01*
X10353Y44073D01*
X10298Y44140D01*
X10231Y44217D01*
X10154Y44312D01*
X10070Y44417D01*
X9982Y44528D01*
X9887Y44650D01*
X9798Y44778D01*
X9621Y45039D01*
X9538Y45172D01*
X9460Y45305D01*
X9399Y45433D01*
X9343Y45560D01*
X9404Y45577D01*
X9410Y45572D01*
D02*
G37*
G36*
X11447Y48091D02*
Y48086D01*
Y48069D01*
Y48047D01*
Y48019D01*
Y47980D01*
Y47936D01*
X11441Y47836D01*
X11436Y47725D01*
X11425Y47614D01*
X11408Y47503D01*
X11391Y47409D01*
Y47403D01*
X11386Y47392D01*
Y47375D01*
X11375Y47353D01*
X11358Y47292D01*
X11330Y47214D01*
X11291Y47126D01*
X11242Y47031D01*
X11186Y46937D01*
X11114Y46848D01*
X11108Y46843D01*
X11103Y46837D01*
X11086Y46820D01*
X11069Y46798D01*
X11014Y46743D01*
X10936Y46676D01*
X10842Y46604D01*
X10731Y46526D01*
X10603Y46454D01*
X10459Y46393D01*
X10453D01*
X10442Y46387D01*
X10420Y46376D01*
X10387Y46371D01*
X10348Y46354D01*
X10304Y46343D01*
X10254Y46332D01*
X10193Y46315D01*
X10131Y46299D01*
X10059Y46288D01*
X9904Y46260D01*
X9732Y46243D01*
X9543Y46237D01*
X9471D01*
X9432Y46243D01*
X9388D01*
X9282Y46249D01*
X9160Y46265D01*
X9033Y46282D01*
X8899Y46310D01*
X8766Y46343D01*
X8761D01*
X8749Y46349D01*
X8733Y46354D01*
X8711Y46360D01*
X8650Y46382D01*
X8572Y46415D01*
X8483Y46448D01*
X8394Y46493D01*
X8300Y46548D01*
X8211Y46604D01*
X8200Y46609D01*
X8172Y46632D01*
X8134Y46665D01*
X8083Y46709D01*
X8028Y46759D01*
X7972Y46820D01*
X7912Y46881D01*
X7862Y46953D01*
X7856Y46965D01*
X7839Y46987D01*
X7817Y47026D01*
X7789Y47081D01*
X7756Y47148D01*
X7728Y47225D01*
X7695Y47314D01*
X7667Y47414D01*
Y47420D01*
Y47425D01*
X7662Y47442D01*
X7656Y47459D01*
X7651Y47514D01*
X7639Y47592D01*
X7628Y47681D01*
X7617Y47786D01*
X7612Y47903D01*
X7606Y48030D01*
Y49412D01*
X11447D01*
Y48091D01*
D02*
G37*
G36*
X7173Y7293D02*
X7184Y7265D01*
X7201Y7227D01*
X7229Y7171D01*
X7262Y7099D01*
X7301Y7021D01*
X7345Y6933D01*
X7395Y6838D01*
X7512Y6638D01*
X7645Y6427D01*
X7795Y6222D01*
X7878Y6133D01*
X7961Y6044D01*
X7967Y6039D01*
X7984Y6028D01*
X8011Y6006D01*
X8045Y5972D01*
X8089Y5939D01*
X8145Y5900D01*
X8211Y5856D01*
X8283Y5811D01*
X8367Y5767D01*
X8455Y5717D01*
X8555Y5673D01*
X8661Y5628D01*
X8772Y5589D01*
X8894Y5556D01*
X9021Y5523D01*
X9155Y5500D01*
Y6044D01*
Y6050D01*
Y6056D01*
Y6089D01*
X9149Y6144D01*
Y6211D01*
X9138Y6289D01*
X9127Y6372D01*
X9116Y6461D01*
X9094Y6549D01*
X9282Y6738D01*
Y5478D01*
X9310D01*
X9343Y5473D01*
X9388D01*
X9449Y5467D01*
X9515Y5462D01*
X9593D01*
X9682Y5456D01*
X9782Y5451D01*
X9887Y5445D01*
X9998D01*
X10120Y5440D01*
X10248D01*
X10381Y5434D01*
X10664D01*
Y5667D01*
Y5673D01*
Y5678D01*
Y5711D01*
X10659Y5767D01*
Y5834D01*
X10648Y5911D01*
X10637Y5994D01*
X10625Y6083D01*
X10603Y6172D01*
X10792Y6361D01*
Y5434D01*
X11242D01*
X11436Y5440D01*
X11641Y5445D01*
X11835Y5451D01*
X11924D01*
X12007Y5456D01*
X11796Y4912D01*
X11630Y5145D01*
X10792D01*
Y4285D01*
X11020Y4113D01*
X10747Y3758D01*
X10581Y3946D01*
X9282D01*
Y3863D01*
X9554Y3591D01*
X9155Y3192D01*
Y4957D01*
X9149Y4951D01*
X9127Y4946D01*
X9094Y4934D01*
X9049Y4912D01*
X8988Y4890D01*
X8927Y4862D01*
X8855Y4823D01*
X8777Y4785D01*
X8605Y4690D01*
X8422Y4574D01*
X8233Y4440D01*
X8061Y4285D01*
X8056Y4279D01*
X8045Y4263D01*
X8022Y4241D01*
X7989Y4207D01*
X7956Y4163D01*
X7917Y4113D01*
X7873Y4052D01*
X7823Y3985D01*
X7778Y3908D01*
X7728Y3830D01*
X7678Y3741D01*
X7634Y3647D01*
X7590Y3547D01*
X7551Y3441D01*
X7512Y3331D01*
X7484Y3214D01*
X7401D01*
Y3220D01*
Y3231D01*
X7395Y3247D01*
Y3275D01*
X7379Y3336D01*
X7356Y3414D01*
X7323Y3497D01*
X7279Y3575D01*
X7212Y3647D01*
X7173Y3675D01*
X7129Y3697D01*
X7135Y3702D01*
X7151Y3725D01*
X7173Y3752D01*
X7207Y3797D01*
X7245Y3847D01*
X7295Y3908D01*
X7351Y3969D01*
X7418Y4041D01*
X7484Y4113D01*
X7562Y4191D01*
X7728Y4352D01*
X7912Y4502D01*
X8006Y4574D01*
X8106Y4640D01*
X8111Y4646D01*
X8128Y4657D01*
X8161Y4674D01*
X8200Y4696D01*
X8250Y4718D01*
X8305Y4751D01*
X8372Y4785D01*
X8439Y4818D01*
X8516Y4851D01*
X8600Y4890D01*
X8777Y4957D01*
X8966Y5012D01*
X9060Y5040D01*
X9155Y5057D01*
Y5206D01*
X9144D01*
X9116Y5212D01*
X9071Y5223D01*
X9010Y5234D01*
X8938Y5251D01*
X8855Y5273D01*
X8761Y5301D01*
X8661Y5334D01*
X8555Y5373D01*
X8444Y5417D01*
X8333Y5467D01*
X8228Y5528D01*
X8117Y5595D01*
X8017Y5667D01*
X7923Y5750D01*
X7834Y5839D01*
X7828Y5845D01*
X7817Y5861D01*
X7789Y5889D01*
X7762Y5933D01*
X7723Y5983D01*
X7678Y6044D01*
X7634Y6117D01*
X7579Y6200D01*
X7523Y6294D01*
X7462Y6400D01*
X7401Y6516D01*
X7334Y6638D01*
X7273Y6777D01*
X7207Y6921D01*
X7146Y7071D01*
X7085Y7238D01*
X7168Y7304D01*
X7173Y7293D01*
D02*
G37*
G36*
X10370Y7282D02*
X11014D01*
X11280Y7288D01*
X11408D01*
X11536Y7293D01*
X11658D01*
X11763Y7299D01*
X11863D01*
X11941Y7304D01*
X11713Y6777D01*
X11547Y6988D01*
X10370D01*
Y6694D01*
X10620Y6444D01*
X10243Y6067D01*
Y6988D01*
X8528D01*
X8733Y6067D01*
X8650Y6044D01*
Y6050D01*
X8644Y6056D01*
X8633Y6089D01*
X8616Y6144D01*
X8594Y6216D01*
X8561Y6300D01*
X8528Y6394D01*
X8489Y6505D01*
X8450Y6616D01*
X8367Y6855D01*
X8322Y6971D01*
X8278Y7088D01*
X8239Y7199D01*
X8200Y7299D01*
X8161Y7393D01*
X8128Y7471D01*
Y7476D01*
X8122Y7487D01*
X8111Y7504D01*
X8100Y7532D01*
X8072Y7593D01*
X8034Y7665D01*
X7989Y7737D01*
X7945Y7804D01*
X7923Y7832D01*
X7900Y7859D01*
X7878Y7876D01*
X7856Y7887D01*
X8294Y8120D01*
Y8115D01*
Y8104D01*
X8300Y8087D01*
X8305Y8065D01*
Y8037D01*
X8317Y7998D01*
X8322Y7954D01*
X8328Y7904D01*
X8339Y7848D01*
X8350Y7787D01*
X8361Y7715D01*
X8378Y7643D01*
X8389Y7560D01*
X8405Y7476D01*
X8428Y7382D01*
X8444Y7282D01*
X10243D01*
Y7449D01*
Y7454D01*
Y7460D01*
Y7493D01*
X10237Y7548D01*
Y7615D01*
X10226Y7693D01*
X10215Y7776D01*
X10204Y7865D01*
X10181Y7954D01*
X10370Y8142D01*
Y7282D01*
D02*
G37*
G36*
X7129Y12166D02*
X7135Y12138D01*
X7146Y12105D01*
X7162Y12055D01*
X7179Y12000D01*
X7201Y11933D01*
X7223Y11861D01*
X7257Y11778D01*
X7329Y11611D01*
X7418Y11434D01*
X7517Y11267D01*
X7579Y11195D01*
X7639Y11123D01*
X7645Y11117D01*
X7656Y11106D01*
X7673Y11089D01*
X7701Y11067D01*
X7734Y11034D01*
X7773Y11001D01*
X7817Y10967D01*
X7867Y10928D01*
X7984Y10845D01*
X8117Y10762D01*
X8261Y10684D01*
X8422Y10618D01*
Y11334D01*
Y11339D01*
Y11345D01*
Y11378D01*
X8416Y11434D01*
Y11500D01*
X8405Y11578D01*
X8394Y11661D01*
X8378Y11750D01*
X8355Y11839D01*
X8544Y12027D01*
Y10601D01*
X8555D01*
X8583Y10595D01*
X8633Y10584D01*
X8700Y10573D01*
X8788Y10568D01*
X8888Y10557D01*
X9016Y10546D01*
X9155Y10534D01*
Y11062D01*
X8988D01*
X8861Y11356D01*
X8916D01*
X8955Y11350D01*
X9060D01*
X9121Y11345D01*
X9194D01*
X9338Y11339D01*
X9499D01*
X9654Y11334D01*
X10054D01*
X10120Y11339D01*
X10187D01*
X10337Y11345D01*
X10503Y11350D01*
X10687Y11356D01*
X10520Y11062D01*
Y9530D01*
X10709Y9363D01*
X10453Y9069D01*
X10331Y9236D01*
X9876D01*
X9765Y9230D01*
X9432D01*
X9327Y9225D01*
X9232D01*
X9149Y9219D01*
X9082D01*
X9027Y9213D01*
X8905Y9508D01*
X9155D01*
Y10240D01*
X9127D01*
X9105Y10246D01*
X9049Y10251D01*
X8977Y10257D01*
X8888Y10268D01*
X8783Y10279D01*
X8666Y10290D01*
X8544Y10307D01*
Y9258D01*
X8822Y8986D01*
X8422Y8586D01*
Y10140D01*
X8416Y10135D01*
X8405Y10129D01*
X8389Y10118D01*
X8361Y10096D01*
X8333Y10074D01*
X8294Y10046D01*
X8211Y9979D01*
X8117Y9891D01*
X8011Y9791D01*
X7906Y9674D01*
X7806Y9541D01*
Y9535D01*
X7795Y9524D01*
X7784Y9502D01*
X7767Y9474D01*
X7745Y9441D01*
X7723Y9397D01*
X7695Y9347D01*
X7673Y9286D01*
X7645Y9225D01*
X7617Y9153D01*
X7595Y9075D01*
X7567Y8991D01*
X7551Y8903D01*
X7529Y8808D01*
X7506Y8608D01*
X7418D01*
Y8614D01*
Y8620D01*
X7406Y8653D01*
X7395Y8703D01*
X7368Y8758D01*
X7334Y8825D01*
X7284Y8892D01*
X7223Y8953D01*
X7146Y9008D01*
X7151Y9019D01*
X7162Y9042D01*
X7179Y9086D01*
X7212Y9141D01*
X7251Y9208D01*
X7295Y9286D01*
X7356Y9375D01*
X7423Y9469D01*
X7506Y9569D01*
X7595Y9669D01*
X7701Y9769D01*
X7817Y9874D01*
X7950Y9974D01*
X8089Y10068D01*
X8250Y10157D01*
X8422Y10240D01*
Y10329D01*
X8416D01*
X8411Y10335D01*
X8394Y10340D01*
X8372Y10346D01*
X8311Y10368D01*
X8239Y10407D01*
X8145Y10451D01*
X8039Y10512D01*
X7928Y10590D01*
X7812Y10679D01*
X7695Y10790D01*
X7573Y10917D01*
X7462Y11067D01*
X7406Y11150D01*
X7356Y11239D01*
X7306Y11328D01*
X7257Y11428D01*
X7212Y11533D01*
X7173Y11644D01*
X7140Y11761D01*
X7107Y11883D01*
X7085Y12011D01*
X7062Y12150D01*
X7129Y12172D01*
Y12166D01*
D02*
G37*
G36*
X10725Y38323D02*
Y37419D01*
X10742D01*
X10759Y37424D01*
X10781Y37430D01*
X10847Y37457D01*
X10925Y37496D01*
X10970Y37524D01*
X11020Y37557D01*
X11069Y37596D01*
X11114Y37641D01*
X11169Y37696D01*
X11219Y37757D01*
X11264Y37824D01*
X11314Y37901D01*
X11375Y37857D01*
Y37852D01*
X11369Y37840D01*
Y37824D01*
X11364Y37796D01*
X11353Y37763D01*
X11347Y37729D01*
X11319Y37635D01*
X11280Y37535D01*
X11236Y37419D01*
X11175Y37297D01*
X11103Y37169D01*
X11608Y36536D01*
Y37946D01*
Y37951D01*
Y37957D01*
Y37974D01*
Y37996D01*
X11602Y38051D01*
Y38118D01*
X11591Y38201D01*
X11580Y38290D01*
X11569Y38379D01*
X11547Y38467D01*
X11735Y38656D01*
Y36520D01*
X11924Y36331D01*
X11524Y35953D01*
Y35959D01*
Y35970D01*
Y35987D01*
X11519Y36020D01*
X11513Y36053D01*
X11502Y36103D01*
X11491Y36159D01*
X11475Y36220D01*
X11447Y36298D01*
X11419Y36381D01*
X11380Y36475D01*
X11330Y36581D01*
X11275Y36692D01*
X11208Y36819D01*
X11130Y36952D01*
X11042Y37102D01*
X11036Y37097D01*
X11008Y37091D01*
X10975Y37086D01*
X10931Y37080D01*
X10881Y37086D01*
X10831Y37102D01*
X10775Y37136D01*
X10747Y37163D01*
X10725Y37191D01*
Y36248D01*
X10936Y36098D01*
X10709Y35781D01*
X10559Y35931D01*
X8305D01*
X8283Y35937D01*
X8217Y35948D01*
X8145Y35970D01*
X8100Y35992D01*
X8061Y36020D01*
X8017Y36053D01*
X7978Y36092D01*
X7934Y36136D01*
X7900Y36192D01*
X7867Y36259D01*
X7834Y36331D01*
X7845D01*
X7884Y36342D01*
X7934Y36364D01*
X7961Y36381D01*
X7989Y36403D01*
X8022Y36436D01*
X8056Y36470D01*
X8089Y36514D01*
X8117Y36569D01*
X8145Y36630D01*
X8172Y36697D01*
X8195Y36780D01*
X8211Y36875D01*
X8294D01*
Y36869D01*
Y36858D01*
Y36841D01*
X8289Y36819D01*
Y36758D01*
X8283Y36686D01*
X8278Y36603D01*
Y36520D01*
X8272Y36436D01*
Y36370D01*
Y36364D01*
X8278Y36342D01*
X8283Y36314D01*
X8294Y36286D01*
X8317Y36253D01*
X8344Y36231D01*
X8389Y36209D01*
X8444Y36203D01*
X9094D01*
Y37191D01*
X8150D01*
X8022Y37463D01*
X9094D01*
Y38384D01*
X8083D01*
X7961Y38678D01*
X8022D01*
X8067Y38673D01*
X8189D01*
X8272Y38667D01*
X8467D01*
X8583Y38662D01*
X8844D01*
X8988Y38656D01*
X10032D01*
X10148Y38662D01*
X10265D01*
X10509Y38667D01*
X10625D01*
X10736Y38673D01*
X10842D01*
X10936Y38678D01*
X10725Y38323D01*
D02*
G37*
G36*
X10120Y39555D02*
X10331Y39433D01*
X10076Y39095D01*
X9932Y39267D01*
X8272D01*
X8261Y39256D01*
X8233Y39228D01*
X8183Y39184D01*
X8128Y39117D01*
X8056Y39039D01*
X7989Y38945D01*
X7917Y38834D01*
X7845Y38712D01*
Y38706D01*
X7839Y38695D01*
X7828Y38673D01*
X7817Y38645D01*
X7801Y38601D01*
X7789Y38551D01*
X7773Y38495D01*
X7750Y38423D01*
X7734Y38345D01*
X7717Y38251D01*
X7701Y38151D01*
X7684Y38035D01*
X7667Y37912D01*
X7651Y37774D01*
X7639Y37624D01*
X7634Y37463D01*
Y37452D01*
Y37424D01*
Y37374D01*
Y37302D01*
Y37219D01*
Y37119D01*
Y37002D01*
Y36869D01*
X7639Y36725D01*
X7645Y36569D01*
X7651Y36397D01*
X7662Y36220D01*
X7673Y36037D01*
X7689Y35837D01*
X7706Y35637D01*
X7728Y35426D01*
X7645D01*
Y35432D01*
X7639Y35443D01*
X7634Y35465D01*
X7623Y35493D01*
X7601Y35559D01*
X7562Y35631D01*
X7512Y35709D01*
X7445Y35770D01*
X7406Y35798D01*
X7368Y35815D01*
X7323Y35826D01*
X7273D01*
Y35837D01*
Y35870D01*
Y35920D01*
Y35992D01*
Y36075D01*
Y36170D01*
X7279Y36281D01*
Y36397D01*
Y36520D01*
X7284Y36653D01*
X7290Y36919D01*
X7301Y37185D01*
X7312Y37308D01*
X7318Y37430D01*
Y37435D01*
Y37457D01*
X7323Y37491D01*
X7329Y37530D01*
Y37585D01*
X7340Y37646D01*
X7345Y37713D01*
X7356Y37785D01*
X7379Y37946D01*
X7406Y38112D01*
X7445Y38279D01*
X7490Y38434D01*
Y38440D01*
X7495Y38451D01*
X7506Y38473D01*
X7512Y38501D01*
X7529Y38534D01*
X7545Y38568D01*
X7590Y38656D01*
X7639Y38762D01*
X7706Y38867D01*
X7784Y38967D01*
X7873Y39067D01*
X7878D01*
X7884Y39078D01*
X7912Y39106D01*
X7950Y39150D01*
X8000Y39200D01*
X8045Y39256D01*
X8083Y39311D01*
X8111Y39367D01*
X8117Y39389D01*
Y39411D01*
Y39417D01*
X8111Y39433D01*
X8100Y39456D01*
X8083Y39489D01*
X8050Y39539D01*
X8006Y39594D01*
X7945Y39661D01*
X7862Y39739D01*
X7850Y39750D01*
X7823Y39772D01*
X7773Y39811D01*
X7717Y39861D01*
X7651Y39911D01*
X7573Y39966D01*
X7495Y40016D01*
X7418Y40060D01*
X7689Y40377D01*
X7695Y40371D01*
X7706Y40360D01*
X7717Y40343D01*
X7739Y40321D01*
X7767Y40288D01*
X7801Y40249D01*
X7834Y40205D01*
X7873Y40155D01*
X7917Y40094D01*
X7961Y40033D01*
X8006Y39966D01*
X8050Y39888D01*
X8145Y39722D01*
X8233Y39539D01*
X9993D01*
Y39683D01*
Y39689D01*
Y39694D01*
Y39727D01*
X9987Y39783D01*
Y39849D01*
X9976Y39927D01*
X9965Y40010D01*
X9954Y40099D01*
X9932Y40188D01*
X10120Y40377D01*
Y39555D01*
D02*
G37*
G36*
X11735Y39933D02*
Y39927D01*
X11730Y39922D01*
X11719Y39905D01*
X11708Y39883D01*
X11680Y39833D01*
X11641Y39766D01*
X11597Y39694D01*
X11547Y39616D01*
X11491Y39539D01*
X11436Y39467D01*
X11430Y39461D01*
X11413Y39439D01*
X11380Y39411D01*
X11347Y39372D01*
X11303Y39339D01*
X11253Y39311D01*
X11197Y39289D01*
X11142Y39283D01*
X11119D01*
X11086Y39289D01*
X11053Y39300D01*
X11008Y39317D01*
X10958Y39344D01*
X10909Y39378D01*
X10853Y39422D01*
X10847Y39428D01*
X10836Y39444D01*
X10820Y39467D01*
X10814Y39494D01*
X10825Y39528D01*
X10836Y39544D01*
X10853Y39561D01*
X10875Y39578D01*
X10903Y39594D01*
X10942Y39611D01*
X10992Y39622D01*
X10997D01*
X11003Y39628D01*
X11020D01*
X11042Y39639D01*
X11069Y39644D01*
X11103Y39655D01*
X11186Y39689D01*
X11286Y39733D01*
X11408Y39799D01*
X11541Y39877D01*
X11691Y39977D01*
X11735Y39933D01*
D02*
G37*
%LPC*%
G36*
X9782Y11062D02*
X9282D01*
Y9508D01*
X9782D01*
Y11062D01*
D02*
G37*
G36*
X10392D02*
X9910D01*
Y9508D01*
X10392D01*
Y11062D01*
D02*
G37*
G36*
X9282Y5184D02*
Y4241D01*
X10664D01*
Y5145D01*
X10403D01*
X10320Y5151D01*
X10126D01*
X10015Y5156D01*
X9898D01*
X9782Y5162D01*
X9532Y5173D01*
X9282Y5184D01*
D02*
G37*
G36*
X10603Y37191D02*
X9971D01*
Y36203D01*
X10603D01*
Y37191D01*
D02*
G37*
G36*
X9848D02*
X9216D01*
Y36203D01*
X9848D01*
Y37191D01*
D02*
G37*
G36*
Y38384D02*
X9216D01*
Y37463D01*
X9848D01*
Y38384D01*
D02*
G37*
G36*
X10992Y48902D02*
X8061D01*
Y48086D01*
Y48080D01*
Y48069D01*
Y48047D01*
Y48025D01*
Y47991D01*
X8067Y47952D01*
X8072Y47869D01*
X8078Y47775D01*
X8089Y47675D01*
X8106Y47575D01*
X8128Y47492D01*
X8134Y47481D01*
X8139Y47453D01*
X8156Y47414D01*
X8178Y47364D01*
X8211Y47309D01*
X8245Y47253D01*
X8283Y47198D01*
X8328Y47142D01*
X8339Y47137D01*
X8361Y47114D01*
X8400Y47081D01*
X8455Y47042D01*
X8528Y46998D01*
X8611Y46948D01*
X8705Y46904D01*
X8811Y46865D01*
X8816D01*
X8827Y46859D01*
X8844Y46854D01*
X8866Y46848D01*
X8894Y46843D01*
X8933Y46831D01*
X8971Y46820D01*
X9016Y46809D01*
X9127Y46793D01*
X9255Y46776D01*
X9399Y46765D01*
X9554Y46759D01*
X9610D01*
X9654Y46765D01*
X9704D01*
X9760Y46770D01*
X9826Y46776D01*
X9893Y46782D01*
X10043Y46809D01*
X10198Y46843D01*
X10342Y46892D01*
X10414Y46926D01*
X10476Y46959D01*
X10481D01*
X10492Y46970D01*
X10509Y46981D01*
X10531Y46992D01*
X10587Y47037D01*
X10653Y47092D01*
X10725Y47164D01*
X10797Y47248D01*
X10859Y47342D01*
X10909Y47442D01*
X10914Y47453D01*
X10920Y47481D01*
X10936Y47531D01*
X10953Y47603D01*
X10964Y47692D01*
X10981Y47803D01*
X10986Y47869D01*
Y47941D01*
X10992Y48013D01*
Y48097D01*
Y48902D01*
D02*
G37*
G36*
X10603Y38384D02*
X9971D01*
Y37463D01*
X10603D01*
Y38384D01*
D02*
G37*
G36*
X9782Y27029D02*
X9155D01*
Y25897D01*
X9782D01*
Y27029D01*
D02*
G37*
G36*
X9027D02*
X8422D01*
Y25897D01*
X9027D01*
Y27029D01*
D02*
G37*
G36*
X11169Y27767D02*
X10520D01*
Y26591D01*
X11169D01*
Y27767D01*
D02*
G37*
G36*
X9782Y28394D02*
X9155D01*
Y27301D01*
X9782D01*
Y28394D01*
D02*
G37*
G36*
X9027D02*
X8422D01*
Y27301D01*
X9027D01*
Y28394D01*
D02*
G37*
%LPD*%
D19*
X44498Y112867D02*
X45498Y113866D01*
Y115866D01*
X44498Y116865D01*
X40500D01*
X39500Y115866D01*
Y113866D01*
X40500Y112867D01*
X42499D01*
Y114866D01*
X39500Y110867D02*
X45498D01*
X39500Y106869D01*
X45498D01*
Y104869D02*
X39500D01*
Y101870D01*
X40500Y100871D01*
X44498D01*
X45498Y101870D01*
Y104869D01*
X13463Y116665D02*
X12630Y117498D01*
X10964D01*
X10131Y116665D01*
Y113333D01*
X10964Y112500D01*
X12630D01*
X13463Y113333D01*
Y114999D01*
X11797D01*
X20128Y117498D02*
Y116665D01*
X21794Y114999D01*
X23460Y116665D01*
Y117498D01*
X21794Y114999D02*
Y112500D01*
X30125D02*
Y117498D01*
X32624D01*
X33457Y116665D01*
Y114999D01*
X32624Y114166D01*
X30125D01*
X31791D02*
X33457Y112500D01*
M02*
