%FSLAX25Y25*%
%MOIN*%
G70*
G01*
G75*
G04 Layer_Physical_Order=1*
G04 Layer_Color=255*
%ADD10C,0.06693*%
%ADD11C,0.05118*%
%ADD12C,0.02362*%
%ADD13C,0.04000*%
%ADD14C,0.25591*%
G36*
X10210Y150624D02*
X42298D01*
X42447Y150622D01*
X42741Y150605D01*
X43023Y150568D01*
X43301Y150512D01*
X43576Y150436D01*
X43843Y150342D01*
X44104Y150229D01*
X44357Y150098D01*
X44599Y149950D01*
X44831Y149785D01*
X45050Y149604D01*
X45257Y149409D01*
X45449Y149200D01*
X45626Y148977D01*
X45788Y148743D01*
X45932Y148499D01*
X46059Y148244D01*
X46168Y147982D01*
X46259Y147713D01*
X46330Y147437D01*
X46383Y147158D01*
X46415Y146876D01*
X46430Y146549D01*
X46431Y146546D01*
Y5221D01*
X46427Y5057D01*
X46402Y4719D01*
X46356Y4394D01*
X46286Y4073D01*
X46195Y3758D01*
X46081Y3450D01*
X45947Y3150D01*
X45792Y2861D01*
X45617Y2583D01*
X45423Y2318D01*
X45211Y2067D01*
X44982Y1832D01*
X44737Y1613D01*
X44478Y1411D01*
X44205Y1229D01*
X43920Y1065D01*
X43624Y922D01*
X43319Y800D01*
X43007Y700D01*
X42688Y622D01*
X42364Y566D01*
X42037Y532D01*
X41749Y523D01*
X10205D01*
X10197Y522D01*
X10052Y525D01*
X9714Y550D01*
X9389Y596D01*
X9068Y666D01*
X8753Y757D01*
X8445Y871D01*
X8145Y1005D01*
X7856Y1161D01*
X7578Y1335D01*
X7313Y1529D01*
X7062Y1741D01*
X6827Y1970D01*
X6608Y2215D01*
X6406Y2474D01*
X6224Y2747D01*
X6060Y3032D01*
X5917Y3328D01*
X5796Y3633D01*
X5695Y3945D01*
X5617Y4264D01*
X5561Y4588D01*
X5528Y4915D01*
X5516Y5285D01*
X5515Y5287D01*
Y145926D01*
X5519Y146090D01*
X5544Y146428D01*
X5590Y146753D01*
X5660Y147074D01*
X5751Y147389D01*
X5865Y147697D01*
X5999Y147997D01*
X6154Y148286D01*
X6329Y148564D01*
X6523Y148829D01*
X6735Y149080D01*
X6964Y149315D01*
X7209Y149534D01*
X7468Y149736D01*
X7741Y149918D01*
X8026Y150082D01*
X8322Y150224D01*
X8627Y150347D01*
X8939Y150447D01*
X9258Y150525D01*
X9582Y150581D01*
X9909Y150615D01*
X10208Y150624D01*
X10210Y150624D01*
D02*
G37*
%LPC*%
G36*
X31290Y43035D02*
X30155Y42886D01*
X29098Y42448D01*
X28190Y41751D01*
X27493Y40843D01*
X27055Y39786D01*
X26906Y38651D01*
X27055Y37516D01*
X27493Y36459D01*
X28190Y35551D01*
X29098Y34854D01*
X30155Y34416D01*
X31290Y34267D01*
X32425Y34416D01*
X33482Y34854D01*
X34390Y35551D01*
X35087Y36459D01*
X35525Y37516D01*
X35674Y38651D01*
X35525Y39786D01*
X35087Y40843D01*
X34390Y41751D01*
X33482Y42448D01*
X32425Y42886D01*
X31290Y43035D01*
D02*
G37*
G36*
X21390Y74338D02*
X20255Y74189D01*
X19198Y73751D01*
X18290Y73054D01*
X17593Y72146D01*
X17155Y71089D01*
X17006Y69954D01*
X17155Y68819D01*
X17593Y67762D01*
X18290Y66854D01*
X19198Y66157D01*
X20255Y65719D01*
X21390Y65570D01*
X22525Y65719D01*
X23582Y66157D01*
X24490Y66854D01*
X25187Y67762D01*
X25625Y68819D01*
X25774Y69954D01*
X25625Y71089D01*
X25187Y72146D01*
X24490Y73054D01*
X23582Y73751D01*
X22525Y74189D01*
X21390Y74338D01*
D02*
G37*
G36*
X31390D02*
X30255Y74189D01*
X29198Y73751D01*
X28290Y73054D01*
X27593Y72146D01*
X27155Y71089D01*
X27006Y69954D01*
X27155Y68819D01*
X27593Y67762D01*
X28290Y66854D01*
X29198Y66157D01*
X30255Y65719D01*
X31390Y65570D01*
X32525Y65719D01*
X33582Y66157D01*
X34490Y66854D01*
X35187Y67762D01*
X35625Y68819D01*
X35774Y69954D01*
X35625Y71089D01*
X35187Y72146D01*
X34490Y73054D01*
X33582Y73751D01*
X32525Y74189D01*
X31390Y74338D01*
D02*
G37*
G36*
X21448Y11335D02*
X20313Y11186D01*
X19256Y10748D01*
X18348Y10051D01*
X17651Y9143D01*
X17213Y8086D01*
X17064Y6951D01*
X17213Y5816D01*
X17651Y4759D01*
X18348Y3851D01*
X19256Y3154D01*
X20313Y2716D01*
X21448Y2567D01*
X22583Y2716D01*
X23640Y3154D01*
X24548Y3851D01*
X25245Y4759D01*
X25683Y5816D01*
X25832Y6951D01*
X25683Y8086D01*
X25245Y9143D01*
X24548Y10051D01*
X23640Y10748D01*
X22583Y11186D01*
X21448Y11335D01*
D02*
G37*
G36*
X31448D02*
X30313Y11186D01*
X29256Y10748D01*
X28348Y10051D01*
X27651Y9143D01*
X27213Y8086D01*
X27064Y6951D01*
X27213Y5816D01*
X27651Y4759D01*
X28348Y3851D01*
X29256Y3154D01*
X30313Y2716D01*
X31448Y2567D01*
X32583Y2716D01*
X33640Y3154D01*
X34548Y3851D01*
X35245Y4759D01*
X35683Y5816D01*
X35832Y6951D01*
X35683Y8086D01*
X35245Y9143D01*
X34548Y10051D01*
X33640Y10748D01*
X32583Y11186D01*
X31448Y11335D01*
D02*
G37*
G36*
X21290Y43035D02*
X20155Y42886D01*
X19098Y42448D01*
X18190Y41751D01*
X17493Y40843D01*
X17055Y39786D01*
X16906Y38651D01*
X17055Y37516D01*
X17493Y36459D01*
X18190Y35551D01*
X19098Y34854D01*
X20155Y34416D01*
X21290Y34267D01*
X22425Y34416D01*
X23482Y34854D01*
X24390Y35551D01*
X25087Y36459D01*
X25525Y37516D01*
X25674Y38651D01*
X25525Y39786D01*
X25087Y40843D01*
X24390Y41751D01*
X23482Y42448D01*
X22425Y42886D01*
X21290Y43035D01*
D02*
G37*
G36*
X26122Y115522D02*
X23957Y115352D01*
X21846Y114845D01*
X19840Y114014D01*
X17988Y112879D01*
X16337Y111469D01*
X14927Y109818D01*
X13792Y107966D01*
X12961Y105960D01*
X12454Y103849D01*
X12284Y101684D01*
X12454Y99519D01*
X12961Y97408D01*
X13792Y95402D01*
X14927Y93550D01*
X16337Y91899D01*
X17988Y90489D01*
X19840Y89354D01*
X21846Y88523D01*
X23957Y88016D01*
X26122Y87846D01*
X28287Y88016D01*
X30398Y88523D01*
X32404Y89354D01*
X34256Y90489D01*
X35907Y91899D01*
X37317Y93550D01*
X38452Y95402D01*
X39283Y97408D01*
X39790Y99519D01*
X39960Y101684D01*
X39790Y103849D01*
X39283Y105960D01*
X38452Y107966D01*
X37317Y109818D01*
X35907Y111469D01*
X34256Y112879D01*
X32404Y114014D01*
X30398Y114845D01*
X28287Y115352D01*
X26122Y115522D01*
D02*
G37*
G36*
X31338Y124977D02*
X30409Y124854D01*
X29543Y124496D01*
X28800Y123925D01*
X28229Y123182D01*
X27871Y122316D01*
X27748Y121387D01*
X27871Y120458D01*
X28229Y119592D01*
X28800Y118849D01*
X29543Y118278D01*
X30409Y117920D01*
X31338Y117797D01*
X32267Y117920D01*
X33133Y118278D01*
X33876Y118849D01*
X34447Y119592D01*
X34805Y120458D01*
X34928Y121387D01*
X34805Y122316D01*
X34447Y123182D01*
X33876Y123925D01*
X33133Y124496D01*
X32267Y124854D01*
X31338Y124977D01*
D02*
G37*
G36*
X40754Y124787D02*
X40325Y124730D01*
X39459Y124372D01*
X38716Y123801D01*
X38145Y123058D01*
X37787Y122192D01*
X37730Y121763D01*
X40754D01*
Y124787D01*
D02*
G37*
G36*
X41754D02*
Y121763D01*
X44778D01*
X44721Y122192D01*
X44363Y123058D01*
X43792Y123801D01*
X43049Y124372D01*
X42183Y124730D01*
X41754Y124787D01*
D02*
G37*
G36*
X44778Y120763D02*
X41754D01*
Y117739D01*
X42183Y117796D01*
X43049Y118154D01*
X43792Y118725D01*
X44363Y119468D01*
X44721Y120334D01*
X44778Y120763D01*
D02*
G37*
G36*
X11213Y124852D02*
X10284Y124729D01*
X9418Y124371D01*
X8675Y123800D01*
X8104Y123057D01*
X7746Y122191D01*
X7623Y121262D01*
X7746Y120333D01*
X8104Y119467D01*
X8675Y118724D01*
X9418Y118153D01*
X10284Y117795D01*
X11213Y117672D01*
X12142Y117795D01*
X13008Y118153D01*
X13751Y118724D01*
X14322Y119467D01*
X14680Y120333D01*
X14803Y121262D01*
X14680Y122191D01*
X14322Y123057D01*
X13751Y123800D01*
X13008Y124371D01*
X12142Y124729D01*
X11213Y124852D01*
D02*
G37*
G36*
X21213Y124894D02*
X20284Y124771D01*
X19418Y124413D01*
X18675Y123842D01*
X18104Y123099D01*
X17746Y122233D01*
X17623Y121304D01*
X17746Y120375D01*
X18104Y119509D01*
X18675Y118766D01*
X19418Y118195D01*
X20284Y117837D01*
X21213Y117714D01*
X22142Y117837D01*
X23008Y118195D01*
X23751Y118766D01*
X24322Y119509D01*
X24680Y120375D01*
X24803Y121304D01*
X24680Y122233D01*
X24322Y123099D01*
X23751Y123842D01*
X23008Y124413D01*
X22142Y124771D01*
X21213Y124894D01*
D02*
G37*
G36*
X40754Y120763D02*
X37730D01*
X37787Y120334D01*
X38145Y119468D01*
X38716Y118725D01*
X39459Y118154D01*
X40325Y117796D01*
X40754Y117739D01*
Y120763D01*
D02*
G37*
%LPD*%
D10*
X21390Y69954D02*
D03*
X31390D02*
D03*
X21290Y38651D02*
D03*
X31290D02*
D03*
X21448Y6951D02*
D03*
X31448D02*
D03*
D11*
X11213Y121262D02*
D03*
X21213Y121304D02*
D03*
X31338Y121387D02*
D03*
X41254Y121263D02*
D03*
D12*
X10295Y79593D02*
D03*
X10296Y16886D02*
D03*
X10500Y49000D02*
D03*
D13*
X16207Y102227D02*
D03*
X18998Y108768D02*
D03*
Y94809D02*
D03*
X25582Y91727D02*
D03*
X33164Y94809D02*
D03*
X35623Y102018D02*
D03*
X32707Y109102D02*
D03*
X25664Y111478D02*
D03*
D14*
X26122Y101684D02*
D03*
M02*
