M48
;Layer_Color=9474304
;FILE_FORMAT=2:5
INCH,LZ
;TYPE=PLATED
T1F00S00C0.01575
T2F00S00C0.03543
T3F00S00C0.03937
T4F00S00C0.04000
T5F00S00C0.12992
%
T01
X0010296Y0016886
X00105Y0049
X0010295Y0079593
T02
X0021448Y0006951
X0031448
X003129Y0038651
X002129
X002139Y0069954
X003139
T03
X0011213Y0121262
X0021213Y0121304
X0031338Y0121387
X0041254Y0121263
T04
X0018998Y0094809
X0025582Y0091727
X0033164Y0094809
X0035623Y0102018
X0032707Y0109102
X0025664Y0111478
X0018998Y0108768
X0016207Y0102227
T05
X0026122Y0101684
M30
