M48
;Layer_Color=9474304
;FILE_FORMAT=2:5
INCH,LZ
;TYPE=PLATED
T1F00S00C0.01575
T3F00S00C0.03543
T4F00S00C0.03740
%
T01
X0130592Y0013383
X0135925Y0013425
X014155Y0013508
X0158696Y0016758
X0162404Y0021821
X0169383Y0023341
X0175091Y0023466
X0181966Y0024424
X0188633Y0025467
X0193924Y0024593
X0201799Y0024549
X0209154Y0023508
X0215883Y0032217
X0124716Y0013341
X0118717Y0013383
X0113259Y0013382
X0107175Y0013425
X0101467Y00133
X009553Y0013236
X0088466Y0013091
X0083132Y0013049
X0077257Y0013006
X0071257Y0013049
X00658Y0013048
X0059716Y0013091
X0054008Y0012966
X0048071Y0012902
X0027737Y0015968
X0023924Y0022132
X0016612Y0023174
X001228Y002853
X0012049Y0032632
X0011924Y0036924
X0012007Y0041549
X0011966Y0046174
X0012049Y0050424
X0012092Y0054592
Y0058842
X0012217Y0063383
X0012447Y0067822
X0012467Y0072008
X0012383Y0076342
X0012424Y0080799
X0012342Y0085467
X0012467Y0089758
X0012549Y0093843
X0012299Y0098132
X0012383Y0102675
X0012364Y0106697
X0012174Y0110799
X0012341Y0115299
X0012091Y0119716
X0012049Y0124341
X0012132Y0128591
X0012175Y0132758
Y0137008
X0026862Y0125757
X0026821Y0118321
X0034695Y0118049
Y0125924
X0080727Y0122946
X0080654Y0117321
X008057Y0113049
X0087799Y0118007
X0097424Y0118049
X0097674Y0132718
X0101633Y0137967
X0087507Y0132674
X0087509Y0098717
X009755Y0098925
X0097467Y0088758
X0097424Y0078718
X0087383Y007851
X0087426Y0088551
X0112383Y0088342
X0112342Y0123133
X0120969Y0164677
Y0174927
X0120883Y01853
X0073549Y0161299
X0073508Y0157092
X0073591Y0153424
X0036634Y0187717
X0032502Y0187536
X0028508Y0187633
X0012383Y0188217
X0012299Y0183968
X00123Y0179592
Y0175302
X0061633Y0075802
X0060467Y00608
X0137257Y0088299
X0137133Y0102967
X0146883Y0078967
X0146507Y0127343
X014655Y0137383
X0146633Y014755
X0161674Y0172093
X0161717Y0181717
X0151799Y0182218
X0171299Y0171718
X0201152Y0181467
X0215674Y0182343
X0215717Y0176467
X0215758Y0171133
X0215675Y0165508
X0215798Y0159506
X0215862Y015357
X0215987Y0147862
X0215944Y0141777
X0215945Y013632
X0215902Y0130321
X0215945Y0124445
X0215987Y0119112
X021607Y0113487
X021582Y0107403
X0215883Y0101467
X0216008Y0095758
X0215966Y0089674
X0215967Y0084217
X0215924Y0078218
X0215967Y0072342
X0216008Y0067008
X0216092Y0061383
X0215736Y0055403
X02158Y0049466
X0215925Y0043758
X0215882Y0037674
X020082Y0108945
X0215717Y0188342
X0215716Y0193799
X0215758Y0199883
X0215633Y0205592
X021557Y0211528
X0215549Y0231093
X0215424Y0235593
X0215299Y0240093
X0215238Y0244489
X0215175Y0249425
X0215007Y0253799
X0214842Y0258258
X0214966Y0263049
X0214967Y0267633
X0215008Y0272092
X0212383Y0275717
X0208049Y0276549
X0202967Y0276633
X0197882Y0276799
X0192716Y0276757
X0187674Y0276799
X0182258Y0276758
X0177091Y0276757
X0172175Y0276717
X0167091Y0276757
X01618Y0276842
X015655Y0276883
X0151425
X0146424Y0276924
X0141175Y0276842
X0136239Y0276778
X0130924Y0276841
X0125882Y0276883
X0148222Y0229766
X0161382Y0237049
X0176967Y0237133
X0196341Y0231924
X0121175Y0234008
X0121134Y0243905
X0121134Y0253717
X0111592Y0260508
X0108632Y0257549
X0105592Y0254508
X0103217Y0250967
X0114549Y0263549
X0115299Y0276841
X0110383Y02768
X0105299Y0276841
X0100008Y0276925
X0094758Y0276967
X0089633
X0084632Y0277008
X0079383Y0276925
X0074447Y0276862
X0074299Y0276757
X0069257Y0276799
X0063842Y0276758
X0058674Y0276757
X0053758Y0276717
X0048674Y0276757
X0043383Y0276842
X0038133Y0276883
X0033008
X0028007Y0276924
X0022758Y0276842
X0017822Y0276778
X0012508Y0273381
X0012507Y0268549
X0012592Y0263883
X0012507Y0259174
Y0254299
X0012467Y0249883
X0012508Y0245217
Y0240717
X0012549Y0236049
X0012384Y0215967
X0012467Y0211383
X0012341Y0206757
X0012299Y0202299
X0012466Y0197549
X0012383Y0192967
X0018009Y0194176
X0093883Y0201383
X0097799Y0201549
Y0205799
X0094217Y0224217
X0088174Y0224174
X0088217Y0230342
X0094258Y0230383
X012105Y0223633
X0120968Y0214343
Y0204468
X0120925Y0194468
X0120467Y0276842
T03
X0067133Y0117965
Y0127965
Y0137965
Y0147965
Y0157965
Y0167965
Y0177965
Y0187965
X0129508Y0187633
Y0177633
Y0167633
Y0157633
Y0147633
Y0137633
Y0127633
Y0117633
Y0197633
Y0207633
Y0217633
Y0227633
Y0237633
Y0247633
Y0257633
X0067133Y0257965
Y0247965
Y0237965
Y0227965
Y0217965
Y0207965
Y0197965
T04
X0208945Y0029737
X0018717Y0030343
X0018967Y0040383
X0018758Y0050425
X0018674Y0060509
Y0070468
X0018675Y008055
X0034862Y008428
X0044883Y0084302
X0044799Y0074218
Y0064259
X0034777Y0064237
Y0074196
X0034778Y0054155
X0034861Y0044196
X003482Y0034237
X0044842Y0034258
X0044883Y0044218
X00448Y0054177
X0055029Y0054323
X0055112Y0044363
X0055071Y0034404
X0070552Y0034302
X0080468Y0034428
X0090634
X0090384Y0044467
X0080218
X0070302Y0044341
X007051Y0054383
X0080426Y0054509
X0090592
X0090677Y0064593
X008051
X0070594Y0064467
X0055028Y0064405
Y0074363
X0055112Y0084448
X0055321Y0094489
X0055071Y0104529
X0044842Y0104383
X003482Y0104362
X003507Y0094322
X0045092Y0094344
X0018592Y0100552
X0018842Y0110592
X0018633Y0120633
X0018549Y0130718
Y0140676
X001855Y0150758
X0018632Y0160717
X0106174Y0064632
X0116217Y0064717
X0116132Y0054633
X010609Y0054548
X0105882Y0044506
X0115924Y0044591
X0116174Y0034551
X0106131Y0034467
X0126049Y0034509
X0136216
X0135966Y0044549
X0125799
X0126007Y0054591
X0136174
X0136258Y0064675
X0126092
X0155342Y0064843
X0155257Y0054759
X0155049Y0044718
X0155299Y0034678
X0171883Y0034802
X0181778Y0034801
X0191716Y0034738
X0191715Y0044904
X0181777Y0044967
X0171882Y0044968
X0171842Y0054969
X0181737Y0054968
X018182Y0064801
X0171925Y0064802
X0171883Y0074927
X0181778Y0074926
X0191716Y0074863
X0191756Y0084904
X0191674Y009482
X0181737Y0094882
X0171842Y0094883
X0171924Y0084968
X0181819Y0084967
X0181777Y0104842
X0171882Y0104843
X01718Y0114802
X0181695Y0114801
X0191632Y0114738
X0191715Y0104779
X0191631Y0124821
Y0134779
X0181694Y0134842
X0171799Y0134843
Y0124884
X0181694Y0124883
X0181778Y0144926
X0171883Y0144927
X0172092Y0154969
X0181987Y0154968
X0191924Y0154905
X0191716Y0144863
X0208884Y0146049
X0208925Y013609
X0208843Y0126174
X0208883Y0116133
X0208945Y0099862
X0208695Y0089822
X0208903Y007978
X0208988Y0069696
Y0059737
X0208987Y0049655
X0208904Y0039696
X0191674Y0054905
X0191758Y0064738
X0191674Y0164945
X0181737Y0165007
X0171842Y0165008
X0208968Y0166091
Y0176049
X0208883Y0186133
X0208967Y0156008
X0208675Y0196175
X0208925Y0206215
X0191967Y0204508
X0181841Y0204466
X0171842Y02043
X0161757Y0204174
X0151675Y0204175
X0151467Y0194133
X0161549Y0194132
X0171633Y0194258
X0181632Y0194424
X0191758Y0194467
X0191717Y0214548
X0181591Y0214506
X0171592Y021434
X0161507Y0214214
X0151425Y0214215
M30
