G04*
G04 #@! TF.GenerationSoftware,Altium Limited,Altium Designer,19.0.12 (326)*
G04*
G04 Layer_Color=32896*
%FSLAX25Y25*%
%MOIN*%
G70*
G01*
G75*
%ADD12C,0.00787*%
G36*
X80805Y116104D02*
X80101D01*
Y118648D01*
X78539Y116104D01*
X77802D01*
Y119882D01*
X78506D01*
Y117393D01*
X80041Y119882D01*
X80805D01*
Y116104D01*
D02*
G37*
G36*
X77071D02*
X76306D01*
Y119882D01*
X77071D01*
Y116104D01*
D02*
G37*
G36*
X75946D02*
X75132D01*
X74209Y118900D01*
X73249Y116104D01*
X72424D01*
X73778Y119882D01*
X74603D01*
X75946Y116104D01*
D02*
G37*
G36*
X74390Y129990D02*
X74554Y129968D01*
X74712Y129940D01*
X74849Y129908D01*
X74909Y129891D01*
X74964Y129875D01*
X75013Y129859D01*
X75056Y129848D01*
X75089Y129837D01*
X75111Y129826D01*
X75127Y129820D01*
X75133D01*
X75297Y129755D01*
X75433Y129684D01*
X75553Y129613D01*
X75657Y129553D01*
X75733Y129498D01*
X75761Y129476D01*
X75788Y129455D01*
X75804Y129438D01*
X75821Y129427D01*
X75832Y129416D01*
Y127898D01*
X74188D01*
Y128537D01*
X75062D01*
Y129023D01*
X74996Y129072D01*
X74925Y129116D01*
X74854Y129154D01*
X74789Y129187D01*
X74734Y129214D01*
X74685Y129236D01*
X74658Y129247D01*
X74652Y129253D01*
X74647D01*
X74559Y129285D01*
X74472Y129307D01*
X74390Y129323D01*
X74319Y129334D01*
X74254Y129340D01*
X74210Y129345D01*
X74166D01*
X74079Y129340D01*
X73992Y129329D01*
X73915Y129313D01*
X73839Y129291D01*
X73702Y129236D01*
X73648Y129209D01*
X73593Y129176D01*
X73544Y129143D01*
X73500Y129116D01*
X73467Y129083D01*
X73435Y129061D01*
X73413Y129040D01*
X73397Y129023D01*
X73386Y129012D01*
X73380Y129007D01*
X73331Y128941D01*
X73282Y128865D01*
X73244Y128788D01*
X73211Y128707D01*
X73156Y128537D01*
X73124Y128374D01*
X73113Y128297D01*
X73102Y128221D01*
X73096Y128161D01*
X73091Y128101D01*
X73085Y128057D01*
Y128019D01*
Y127997D01*
Y127991D01*
X73091Y127877D01*
X73096Y127773D01*
X73113Y127669D01*
X73129Y127576D01*
X73151Y127494D01*
X73178Y127418D01*
X73206Y127347D01*
X73233Y127281D01*
X73255Y127227D01*
X73282Y127178D01*
X73309Y127139D01*
X73331Y127107D01*
X73347Y127079D01*
X73364Y127063D01*
X73369Y127052D01*
X73375Y127047D01*
X73435Y126992D01*
X73495Y126937D01*
X73560Y126899D01*
X73626Y126861D01*
X73691Y126828D01*
X73757Y126801D01*
X73883Y126763D01*
X73943Y126752D01*
X73997Y126741D01*
X74046Y126735D01*
X74090Y126730D01*
X74123Y126725D01*
X74172D01*
X74292Y126730D01*
X74396Y126752D01*
X74489Y126774D01*
X74571Y126806D01*
X74630Y126834D01*
X74680Y126861D01*
X74707Y126883D01*
X74718Y126888D01*
X74794Y126954D01*
X74860Y127025D01*
X74914Y127096D01*
X74953Y127167D01*
X74985Y127232D01*
X75007Y127281D01*
X75018Y127314D01*
X75024Y127320D01*
Y127325D01*
X75783Y127183D01*
X75761Y127090D01*
X75728Y126997D01*
X75695Y126916D01*
X75652Y126839D01*
X75613Y126763D01*
X75570Y126697D01*
X75526Y126637D01*
X75482Y126583D01*
X75439Y126533D01*
X75400Y126490D01*
X75368Y126452D01*
X75335Y126424D01*
X75308Y126402D01*
X75286Y126381D01*
X75275Y126375D01*
X75269Y126370D01*
X75193Y126315D01*
X75111Y126271D01*
X75024Y126233D01*
X74931Y126200D01*
X74751Y126146D01*
X74576Y126113D01*
X74494Y126097D01*
X74418Y126091D01*
X74347Y126086D01*
X74287Y126080D01*
X74237Y126075D01*
X74172D01*
X73975Y126080D01*
X73801Y126102D01*
X73724Y126119D01*
X73648Y126135D01*
X73577Y126151D01*
X73517Y126168D01*
X73462Y126189D01*
X73408Y126206D01*
X73369Y126222D01*
X73331Y126233D01*
X73304Y126250D01*
X73282Y126255D01*
X73271Y126266D01*
X73265D01*
X73096Y126364D01*
X73025Y126424D01*
X72954Y126479D01*
X72889Y126539D01*
X72829Y126599D01*
X72774Y126659D01*
X72725Y126714D01*
X72687Y126768D01*
X72649Y126817D01*
X72616Y126861D01*
X72588Y126899D01*
X72572Y126932D01*
X72556Y126954D01*
X72550Y126970D01*
X72545Y126976D01*
X72501Y127063D01*
X72463Y127150D01*
X72403Y127331D01*
X72359Y127511D01*
X72332Y127669D01*
X72321Y127746D01*
X72310Y127811D01*
X72305Y127871D01*
Y127926D01*
X72299Y127964D01*
Y127997D01*
Y128019D01*
Y128024D01*
X72310Y128226D01*
X72332Y128412D01*
X72370Y128581D01*
X72386Y128663D01*
X72408Y128734D01*
X72430Y128799D01*
X72447Y128859D01*
X72468Y128909D01*
X72485Y128952D01*
X72496Y128985D01*
X72507Y129012D01*
X72518Y129029D01*
Y129034D01*
X72610Y129198D01*
X72714Y129340D01*
X72823Y129465D01*
X72932Y129564D01*
X72982Y129607D01*
X73031Y129646D01*
X73069Y129678D01*
X73107Y129700D01*
X73134Y129722D01*
X73162Y129738D01*
X73173Y129744D01*
X73178Y129749D01*
X73265Y129793D01*
X73347Y129831D01*
X73528Y129891D01*
X73702Y129935D01*
X73861Y129962D01*
X73937Y129973D01*
X74003Y129984D01*
X74063Y129990D01*
X74117D01*
X74155Y129995D01*
X74216D01*
X74390Y129990D01*
D02*
G37*
G36*
X79545Y126146D02*
X78840D01*
Y128690D01*
X77279Y126146D01*
X76542D01*
Y129924D01*
X77246D01*
Y127434D01*
X78780Y129924D01*
X79545D01*
Y126146D01*
D02*
G37*
G36*
X81931Y129919D02*
X82067Y129913D01*
X82182Y129902D01*
X82275Y129886D01*
X82351Y129869D01*
X82411Y129859D01*
X82427Y129853D01*
X82444D01*
X82449Y129848D01*
X82455D01*
X82575Y129804D01*
X82684Y129755D01*
X82771Y129706D01*
X82848Y129657D01*
X82908Y129613D01*
X82952Y129580D01*
X82979Y129558D01*
X82990Y129547D01*
X83083Y129444D01*
X83165Y129334D01*
X83236Y129220D01*
X83290Y129116D01*
X83334Y129018D01*
X83356Y128980D01*
X83367Y128947D01*
X83377Y128914D01*
X83388Y128892D01*
X83394Y128881D01*
Y128876D01*
X83432Y128745D01*
X83465Y128608D01*
X83487Y128477D01*
X83498Y128352D01*
X83503Y128292D01*
X83508Y128237D01*
Y128193D01*
X83514Y128150D01*
Y128117D01*
Y128095D01*
Y128079D01*
Y128073D01*
X83508Y127882D01*
X83492Y127713D01*
X83487Y127631D01*
X83476Y127560D01*
X83465Y127489D01*
X83454Y127429D01*
X83438Y127374D01*
X83427Y127325D01*
X83416Y127281D01*
X83410Y127249D01*
X83399Y127221D01*
X83394Y127200D01*
X83388Y127189D01*
Y127183D01*
X83339Y127052D01*
X83279Y126932D01*
X83219Y126828D01*
X83159Y126741D01*
X83110Y126670D01*
X83066Y126615D01*
X83039Y126583D01*
X83034Y126572D01*
X83028D01*
X82935Y126484D01*
X82842Y126413D01*
X82744Y126353D01*
X82657Y126304D01*
X82580Y126266D01*
X82515Y126239D01*
X82493Y126233D01*
X82477Y126228D01*
X82466Y126222D01*
X82460D01*
X82356Y126195D01*
X82242Y126179D01*
X82122Y126162D01*
X82007Y126157D01*
X81903Y126151D01*
X81860Y126146D01*
X80353D01*
Y129924D01*
X81783D01*
X81931Y129919D01*
D02*
G37*
G36*
X74481Y139270D02*
X74432Y139194D01*
X74383Y139117D01*
X74339Y139052D01*
X74296Y138992D01*
X74257Y138937D01*
X74225Y138883D01*
X74159Y138801D01*
X74110Y138735D01*
X74077Y138691D01*
X74050Y138664D01*
X74044Y138659D01*
X73984Y138593D01*
X73913Y138533D01*
X73848Y138484D01*
X73782Y138435D01*
X73728Y138397D01*
X73684Y138369D01*
X73651Y138348D01*
X73646Y138342D01*
X73640D01*
X73733Y138326D01*
X73815Y138304D01*
X73891Y138282D01*
X73968Y138255D01*
X74033Y138227D01*
X74094Y138200D01*
X74154Y138173D01*
X74203Y138140D01*
X74246Y138113D01*
X74285Y138085D01*
X74317Y138058D01*
X74339Y138036D01*
X74361Y138020D01*
X74377Y138004D01*
X74383Y137998D01*
X74388Y137993D01*
X74432Y137938D01*
X74470Y137883D01*
X74536Y137763D01*
X74579Y137649D01*
X74607Y137534D01*
X74629Y137436D01*
X74634Y137398D01*
Y137359D01*
X74639Y137332D01*
Y137305D01*
Y137294D01*
Y137288D01*
X74634Y137168D01*
X74612Y137054D01*
X74585Y136955D01*
X74558Y136868D01*
X74525Y136797D01*
X74497Y136742D01*
X74487Y136726D01*
X74476Y136710D01*
X74470Y136704D01*
Y136699D01*
X74405Y136606D01*
X74334Y136529D01*
X74263Y136469D01*
X74192Y136415D01*
X74126Y136382D01*
X74077Y136355D01*
X74044Y136338D01*
X74039Y136333D01*
X74033D01*
X73979Y136316D01*
X73919Y136300D01*
X73782Y136273D01*
X73635Y136256D01*
X73493Y136240D01*
X73422D01*
X73362Y136234D01*
X73302D01*
X73253Y136229D01*
X71549D01*
Y140007D01*
X72313D01*
Y138429D01*
X72559D01*
X72636Y138435D01*
X72701Y138440D01*
X72756Y138451D01*
X72799Y138457D01*
X72827Y138468D01*
X72843Y138473D01*
X72849D01*
X72892Y138495D01*
X72936Y138517D01*
X72974Y138544D01*
X73012Y138566D01*
X73040Y138593D01*
X73062Y138615D01*
X73072Y138626D01*
X73078Y138631D01*
X73100Y138659D01*
X73127Y138686D01*
X73187Y138768D01*
X73253Y138855D01*
X73324Y138954D01*
X73384Y139041D01*
X73411Y139085D01*
X73433Y139117D01*
X73455Y139145D01*
X73471Y139167D01*
X73476Y139183D01*
X73482Y139188D01*
X74028Y140007D01*
X74945D01*
X74481Y139270D01*
D02*
G37*
G36*
X80498Y136868D02*
X81612D01*
Y136229D01*
X78614D01*
Y136868D01*
X79734D01*
Y140007D01*
X80498D01*
Y136868D01*
D02*
G37*
G36*
X76889Y140073D02*
X77047Y140057D01*
X77189Y140035D01*
X77249Y140024D01*
X77309Y140007D01*
X77359Y139997D01*
X77402Y139986D01*
X77440Y139975D01*
X77473Y139964D01*
X77500Y139953D01*
X77517Y139947D01*
X77528Y139942D01*
X77533D01*
X77653Y139882D01*
X77752Y139816D01*
X77845Y139751D01*
X77916Y139680D01*
X77970Y139620D01*
X78014Y139565D01*
X78036Y139532D01*
X78047Y139527D01*
Y139522D01*
X78107Y139412D01*
X78156Y139309D01*
X78189Y139205D01*
X78210Y139107D01*
X78221Y139030D01*
X78227Y138992D01*
X78232Y138964D01*
Y138943D01*
Y138926D01*
Y138915D01*
Y138910D01*
X78227Y138779D01*
X78210Y138664D01*
X78183Y138560D01*
X78156Y138473D01*
X78128Y138402D01*
X78101Y138353D01*
X78085Y138320D01*
X78079Y138309D01*
X78019Y138222D01*
X77948Y138145D01*
X77877Y138080D01*
X77812Y138025D01*
X77752Y137982D01*
X77702Y137949D01*
X77670Y137927D01*
X77664Y137922D01*
X77659D01*
X77604Y137894D01*
X77550Y137867D01*
X77419Y137818D01*
X77282Y137774D01*
X77151Y137731D01*
X77091Y137714D01*
X77031Y137698D01*
X76976Y137681D01*
X76933Y137671D01*
X76894Y137660D01*
X76867Y137654D01*
X76845Y137649D01*
X76840D01*
X76742Y137621D01*
X76654Y137600D01*
X76572Y137578D01*
X76496Y137556D01*
X76436Y137534D01*
X76376Y137512D01*
X76327Y137490D01*
X76283Y137474D01*
X76245Y137458D01*
X76217Y137441D01*
X76190Y137430D01*
X76174Y137419D01*
X76146Y137403D01*
X76141Y137398D01*
X76103Y137359D01*
X76075Y137321D01*
X76059Y137283D01*
X76048Y137245D01*
X76037Y137217D01*
X76032Y137190D01*
Y137174D01*
Y137168D01*
X76037Y137114D01*
X76048Y137070D01*
X76070Y137026D01*
X76092Y136994D01*
X76114Y136966D01*
X76135Y136950D01*
X76146Y136939D01*
X76152Y136933D01*
X76228Y136884D01*
X76310Y136852D01*
X76398Y136824D01*
X76480Y136808D01*
X76551Y136797D01*
X76610Y136792D01*
X76665D01*
X76780Y136797D01*
X76878Y136813D01*
X76960Y136835D01*
X77026Y136857D01*
X77080Y136879D01*
X77118Y136901D01*
X77140Y136917D01*
X77146Y136923D01*
X77200Y136977D01*
X77249Y137043D01*
X77288Y137108D01*
X77315Y137179D01*
X77337Y137239D01*
X77348Y137288D01*
X77359Y137327D01*
Y137332D01*
Y137338D01*
X78123Y137310D01*
X78118Y137212D01*
X78101Y137125D01*
X78079Y137037D01*
X78052Y136961D01*
X78025Y136884D01*
X77992Y136813D01*
X77959Y136753D01*
X77926Y136693D01*
X77888Y136644D01*
X77855Y136600D01*
X77823Y136562D01*
X77795Y136529D01*
X77773Y136507D01*
X77757Y136491D01*
X77746Y136480D01*
X77741Y136475D01*
X77670Y136420D01*
X77593Y136371D01*
X77511Y136327D01*
X77424Y136289D01*
X77337Y136262D01*
X77249Y136234D01*
X77075Y136196D01*
X76993Y136185D01*
X76922Y136174D01*
X76851Y136169D01*
X76791Y136164D01*
X76742Y136158D01*
X76676D01*
X76518Y136164D01*
X76376Y136180D01*
X76250Y136202D01*
X76141Y136224D01*
X76092Y136240D01*
X76048Y136251D01*
X76015Y136262D01*
X75983Y136273D01*
X75961Y136284D01*
X75944Y136289D01*
X75933Y136295D01*
X75928D01*
X75819Y136349D01*
X75726Y136409D01*
X75644Y136475D01*
X75579Y136535D01*
X75524Y136589D01*
X75491Y136633D01*
X75464Y136666D01*
X75459Y136671D01*
Y136677D01*
X75404Y136770D01*
X75366Y136868D01*
X75338Y136961D01*
X75322Y137043D01*
X75311Y137114D01*
X75300Y137168D01*
Y137190D01*
Y137206D01*
Y137212D01*
Y137217D01*
X75306Y137299D01*
X75317Y137381D01*
X75333Y137452D01*
X75355Y137523D01*
X75409Y137654D01*
X75475Y137769D01*
X75502Y137818D01*
X75535Y137856D01*
X75562Y137894D01*
X75590Y137927D01*
X75611Y137949D01*
X75628Y137965D01*
X75639Y137976D01*
X75644Y137982D01*
X75693Y138020D01*
X75753Y138058D01*
X75813Y138096D01*
X75884Y138129D01*
X76021Y138195D01*
X76163Y138249D01*
X76234Y138271D01*
X76294Y138293D01*
X76354Y138309D01*
X76403Y138326D01*
X76441Y138337D01*
X76474Y138348D01*
X76496Y138353D01*
X76501D01*
X76589Y138375D01*
X76665Y138397D01*
X76736Y138413D01*
X76802Y138429D01*
X76856Y138446D01*
X76905Y138457D01*
X76949Y138473D01*
X76987Y138484D01*
X77020Y138489D01*
X77047Y138500D01*
X77086Y138511D01*
X77107Y138522D01*
X77113D01*
X77184Y138550D01*
X77238Y138577D01*
X77288Y138604D01*
X77326Y138631D01*
X77353Y138653D01*
X77369Y138670D01*
X77380Y138681D01*
X77386Y138686D01*
X77413Y138724D01*
X77435Y138762D01*
X77446Y138801D01*
X77457Y138833D01*
X77462Y138866D01*
X77468Y138894D01*
Y138910D01*
Y138915D01*
X77462Y138992D01*
X77440Y139057D01*
X77408Y139123D01*
X77375Y139178D01*
X77337Y139221D01*
X77309Y139254D01*
X77288Y139276D01*
X77277Y139281D01*
X77200Y139330D01*
X77113Y139369D01*
X77020Y139396D01*
X76933Y139412D01*
X76851Y139423D01*
X76785Y139434D01*
X76725D01*
X76600Y139429D01*
X76490Y139407D01*
X76398Y139380D01*
X76316Y139347D01*
X76250Y139314D01*
X76206Y139287D01*
X76179Y139265D01*
X76168Y139259D01*
X76097Y139183D01*
X76043Y139101D01*
X75994Y139008D01*
X75961Y138915D01*
X75933Y138833D01*
X75912Y138768D01*
X75906Y138746D01*
Y138724D01*
X75901Y138713D01*
Y138708D01*
X75158Y138779D01*
X75174Y138894D01*
X75196Y139003D01*
X75229Y139107D01*
X75256Y139199D01*
X75295Y139287D01*
X75333Y139369D01*
X75371Y139440D01*
X75409Y139505D01*
X75447Y139560D01*
X75486Y139609D01*
X75519Y139653D01*
X75551Y139691D01*
X75573Y139718D01*
X75595Y139734D01*
X75606Y139745D01*
X75611Y139751D01*
X75688Y139811D01*
X75770Y139860D01*
X75857Y139904D01*
X75950Y139942D01*
X76037Y139969D01*
X76130Y139997D01*
X76310Y140035D01*
X76392Y140051D01*
X76469Y140062D01*
X76534Y140068D01*
X76594Y140073D01*
X76643Y140078D01*
X76714D01*
X76889Y140073D01*
D02*
G37*
G36*
X73498Y149907D02*
X73613Y149891D01*
X73717Y149869D01*
X73815Y149836D01*
X73908Y149798D01*
X73990Y149754D01*
X74066Y149711D01*
X74137Y149661D01*
X74197Y149618D01*
X74252Y149574D01*
X74301Y149530D01*
X74339Y149492D01*
X74366Y149459D01*
X74388Y149438D01*
X74399Y149421D01*
X74405Y149416D01*
X74454Y149345D01*
X74497Y149274D01*
X74530Y149203D01*
X74563Y149126D01*
X74612Y148984D01*
X74645Y148853D01*
X74656Y148799D01*
X74661Y148744D01*
X74672Y148695D01*
Y148651D01*
X74678Y148619D01*
Y148597D01*
Y148580D01*
Y148575D01*
X74672Y148471D01*
X74661Y148373D01*
X74645Y148280D01*
X74623Y148193D01*
X74601Y148116D01*
X74568Y148040D01*
X74541Y147969D01*
X74508Y147909D01*
X74476Y147854D01*
X74448Y147805D01*
X74416Y147761D01*
X74394Y147729D01*
X74372Y147701D01*
X74356Y147679D01*
X74345Y147669D01*
X74339Y147663D01*
X74274Y147603D01*
X74208Y147548D01*
X74137Y147499D01*
X74066Y147456D01*
X74001Y147423D01*
X73930Y147396D01*
X73804Y147352D01*
X73744Y147336D01*
X73689Y147325D01*
X73640Y147319D01*
X73602Y147314D01*
X73569Y147308D01*
X73520D01*
X73427Y147314D01*
X73334Y147330D01*
X73253Y147346D01*
X73176Y147368D01*
X73116Y147396D01*
X73067Y147412D01*
X73034Y147428D01*
X73029Y147434D01*
X73023D01*
X73138Y146790D01*
X74508D01*
Y146112D01*
X72592D01*
X72221Y148083D01*
X72805Y148165D01*
X72854Y148116D01*
X72903Y148073D01*
X72952Y148034D01*
X73001Y148002D01*
X73094Y147952D01*
X73182Y147920D01*
X73258Y147903D01*
X73313Y147892D01*
X73334Y147887D01*
X73367D01*
X73455Y147892D01*
X73536Y147914D01*
X73607Y147942D01*
X73668Y147974D01*
X73711Y148012D01*
X73750Y148040D01*
X73771Y148062D01*
X73777Y148067D01*
X73831Y148138D01*
X73870Y148220D01*
X73897Y148307D01*
X73913Y148395D01*
X73930Y148471D01*
X73935Y148531D01*
Y148558D01*
Y148575D01*
Y148586D01*
Y148591D01*
X73930Y148722D01*
X73913Y148837D01*
X73886Y148930D01*
X73859Y149006D01*
X73826Y149072D01*
X73804Y149115D01*
X73782Y149137D01*
X73777Y149148D01*
X73717Y149208D01*
X73651Y149257D01*
X73586Y149290D01*
X73526Y149312D01*
X73471Y149323D01*
X73427Y149328D01*
X73400Y149334D01*
X73389D01*
X73318Y149328D01*
X73247Y149312D01*
X73187Y149290D01*
X73138Y149263D01*
X73094Y149235D01*
X73062Y149214D01*
X73040Y149197D01*
X73034Y149192D01*
X72985Y149132D01*
X72941Y149072D01*
X72909Y149006D01*
X72887Y148946D01*
X72870Y148892D01*
X72860Y148842D01*
X72854Y148815D01*
Y148804D01*
X72133Y148881D01*
X72150Y148968D01*
X72166Y149050D01*
X72221Y149197D01*
X72281Y149328D01*
X72313Y149383D01*
X72352Y149438D01*
X72385Y149481D01*
X72412Y149520D01*
X72444Y149552D01*
X72466Y149585D01*
X72488Y149607D01*
X72505Y149623D01*
X72515Y149629D01*
X72521Y149634D01*
X72587Y149683D01*
X72652Y149727D01*
X72723Y149765D01*
X72794Y149793D01*
X72941Y149847D01*
X73072Y149880D01*
X73138Y149891D01*
X73193Y149896D01*
X73247Y149902D01*
X73291Y149907D01*
X73329Y149913D01*
X73378D01*
X73498Y149907D01*
D02*
G37*
G36*
X78358Y146063D02*
X77544D01*
X76621Y148859D01*
X75661Y146063D01*
X74836D01*
X76190Y149842D01*
X77014D01*
X78358Y146063D01*
D02*
G37*
G36*
X74613Y156230D02*
X73805D01*
X72342Y160008D01*
X73150D01*
X73461Y159151D01*
X74979D01*
X75306Y160008D01*
X76131D01*
X74613Y156230D01*
D02*
G37*
G36*
X77589Y159817D02*
X77605Y159621D01*
X77632Y159430D01*
X77643Y159342D01*
X77660Y159255D01*
X77676Y159178D01*
X77693Y159102D01*
X77703Y159042D01*
X77714Y158987D01*
X77725Y158938D01*
X77736Y158905D01*
X77742Y158884D01*
Y158878D01*
X77813Y158643D01*
X77889Y158419D01*
X77927Y158316D01*
X77971Y158217D01*
X78009Y158125D01*
X78047Y158037D01*
X78086Y157961D01*
X78118Y157890D01*
X78151Y157824D01*
X78173Y157775D01*
X78195Y157731D01*
X78211Y157704D01*
X78222Y157682D01*
X78228Y157677D01*
X78288Y157573D01*
X78348Y157475D01*
X78402Y157387D01*
X78457Y157300D01*
X78512Y157224D01*
X78566Y157153D01*
X78615Y157087D01*
X78659Y157027D01*
X78703Y156973D01*
X78741Y156929D01*
X78774Y156891D01*
X78801Y156858D01*
X78823Y156836D01*
X78839Y156820D01*
X78850Y156809D01*
X78856Y156803D01*
Y156279D01*
X76377D01*
Y156951D01*
X78020D01*
X77840Y157196D01*
X77682Y157453D01*
X77605Y157573D01*
X77540Y157699D01*
X77480Y157813D01*
X77425Y157923D01*
X77376Y158026D01*
X77332Y158119D01*
X77294Y158206D01*
X77261Y158277D01*
X77239Y158332D01*
X77223Y158376D01*
X77212Y158403D01*
X77207Y158414D01*
X77152Y158567D01*
X77103Y158714D01*
X77065Y158862D01*
X77026Y159004D01*
X76999Y159146D01*
X76972Y159277D01*
X76950Y159402D01*
X76934Y159517D01*
X76917Y159621D01*
X76906Y159719D01*
X76895Y159801D01*
X76890Y159872D01*
Y159932D01*
X76884Y159976D01*
Y159997D01*
Y160008D01*
X77583D01*
X77589Y159817D01*
D02*
G37*
G36*
X74488Y166188D02*
X73680D01*
X72217Y169967D01*
X73025D01*
X73336Y169109D01*
X74854D01*
X75182Y169967D01*
X76006D01*
X74488Y166188D01*
D02*
G37*
G36*
X77660Y170032D02*
X77753Y170021D01*
X77841Y170005D01*
X77922Y169983D01*
X78004Y169956D01*
X78075Y169929D01*
X78141Y169896D01*
X78201Y169863D01*
X78255Y169830D01*
X78299Y169797D01*
X78343Y169770D01*
X78376Y169743D01*
X78403Y169721D01*
X78419Y169705D01*
X78430Y169694D01*
X78436Y169688D01*
X78496Y169623D01*
X78550Y169546D01*
X78594Y169470D01*
X78632Y169393D01*
X78670Y169317D01*
X78698Y169240D01*
X78736Y169088D01*
X78752Y169022D01*
X78763Y168957D01*
X78769Y168902D01*
X78774Y168853D01*
X78780Y168809D01*
Y168782D01*
Y168760D01*
Y168755D01*
X78774Y168651D01*
X78763Y168558D01*
X78747Y168465D01*
X78730Y168383D01*
X78703Y168301D01*
X78676Y168230D01*
X78649Y168159D01*
X78616Y168099D01*
X78583Y168045D01*
X78556Y167996D01*
X78528Y167957D01*
X78501Y167919D01*
X78485Y167892D01*
X78468Y167876D01*
X78457Y167865D01*
X78452Y167859D01*
X78392Y167799D01*
X78326Y167745D01*
X78261Y167695D01*
X78195Y167657D01*
X78130Y167624D01*
X78064Y167597D01*
X77944Y167553D01*
X77890Y167537D01*
X77835Y167526D01*
X77791Y167521D01*
X77753Y167515D01*
X77720Y167510D01*
X77677D01*
X77600Y167515D01*
X77529Y167526D01*
X77464Y167537D01*
X77398Y167559D01*
X77284Y167613D01*
X77185Y167668D01*
X77109Y167728D01*
X77076Y167755D01*
X77049Y167783D01*
X77027Y167805D01*
X77011Y167815D01*
X77005Y167826D01*
X77000Y167832D01*
X77011Y167717D01*
X77021Y167608D01*
X77032Y167510D01*
X77049Y167422D01*
X77065Y167346D01*
X77082Y167275D01*
X77098Y167215D01*
X77120Y167160D01*
X77136Y167111D01*
X77147Y167073D01*
X77163Y167040D01*
X77174Y167018D01*
X77185Y166997D01*
X77196Y166985D01*
X77202Y166975D01*
X77262Y166904D01*
X77327Y166855D01*
X77393Y166816D01*
X77453Y166794D01*
X77507Y166778D01*
X77551Y166773D01*
X77578Y166767D01*
X77589D01*
X77649Y166773D01*
X77710Y166783D01*
X77759Y166800D01*
X77797Y166816D01*
X77830Y166838D01*
X77851Y166855D01*
X77868Y166865D01*
X77873Y166871D01*
X77912Y166915D01*
X77939Y166964D01*
X77966Y167018D01*
X77982Y167067D01*
X77993Y167117D01*
X78004Y167155D01*
X78010Y167177D01*
Y167188D01*
X78709Y167111D01*
X78670Y166947D01*
X78616Y166811D01*
X78556Y166691D01*
X78496Y166587D01*
X78436Y166510D01*
X78414Y166483D01*
X78386Y166456D01*
X78370Y166439D01*
X78354Y166423D01*
X78348Y166412D01*
X78343D01*
X78288Y166369D01*
X78234Y166330D01*
X78114Y166270D01*
X77993Y166227D01*
X77884Y166199D01*
X77786Y166177D01*
X77742Y166172D01*
X77704D01*
X77677Y166166D01*
X77633D01*
X77518Y166172D01*
X77415Y166188D01*
X77311Y166210D01*
X77218Y166237D01*
X77131Y166276D01*
X77043Y166314D01*
X76972Y166358D01*
X76901Y166396D01*
X76841Y166439D01*
X76787Y166483D01*
X76743Y166521D01*
X76705Y166560D01*
X76672Y166587D01*
X76650Y166609D01*
X76639Y166625D01*
X76634Y166631D01*
X76568Y166724D01*
X76508Y166827D01*
X76459Y166942D01*
X76415Y167057D01*
X76377Y167182D01*
X76345Y167308D01*
X76317Y167433D01*
X76301Y167553D01*
X76284Y167668D01*
X76274Y167777D01*
X76263Y167876D01*
X76257Y167963D01*
X76252Y168034D01*
Y168088D01*
Y168105D01*
Y168121D01*
Y168127D01*
Y168132D01*
X76257Y168318D01*
X76268Y168487D01*
X76284Y168645D01*
X76312Y168787D01*
X76339Y168924D01*
X76366Y169044D01*
X76399Y169148D01*
X76437Y169246D01*
X76470Y169328D01*
X76503Y169399D01*
X76530Y169459D01*
X76563Y169508D01*
X76585Y169546D01*
X76601Y169574D01*
X76612Y169590D01*
X76617Y169595D01*
X76688Y169672D01*
X76765Y169743D01*
X76841Y169803D01*
X76923Y169852D01*
X77000Y169896D01*
X77082Y169929D01*
X77158Y169961D01*
X77229Y169983D01*
X77300Y170000D01*
X77360Y170016D01*
X77420Y170021D01*
X77469Y170032D01*
X77507D01*
X77535Y170038D01*
X77562D01*
X77660Y170032D01*
D02*
G37*
G36*
X74363Y176230D02*
X73555D01*
X72092Y180008D01*
X72900D01*
X73211Y179151D01*
X74729D01*
X75056Y180008D01*
X75881D01*
X74363Y176230D01*
D02*
G37*
G36*
X77503Y180074D02*
X77617Y180057D01*
X77721Y180036D01*
X77819Y180003D01*
X77912Y179965D01*
X77994Y179921D01*
X78070Y179877D01*
X78141Y179828D01*
X78201Y179784D01*
X78256Y179741D01*
X78305Y179697D01*
X78343Y179659D01*
X78371Y179626D01*
X78392Y179604D01*
X78404Y179588D01*
X78409Y179582D01*
X78458Y179511D01*
X78502Y179440D01*
X78535Y179369D01*
X78567Y179293D01*
X78616Y179151D01*
X78649Y179020D01*
X78660Y178965D01*
X78666Y178911D01*
X78676Y178862D01*
Y178818D01*
X78682Y178785D01*
Y178763D01*
Y178747D01*
Y178742D01*
X78676Y178638D01*
X78666Y178540D01*
X78649Y178447D01*
X78627Y178359D01*
X78606Y178283D01*
X78573Y178207D01*
X78545Y178136D01*
X78513Y178076D01*
X78480Y178021D01*
X78453Y177972D01*
X78420Y177928D01*
X78398Y177895D01*
X78376Y177868D01*
X78360Y177846D01*
X78349Y177835D01*
X78343Y177830D01*
X78278Y177770D01*
X78212Y177715D01*
X78141Y177666D01*
X78070Y177622D01*
X78005Y177589D01*
X77934Y177562D01*
X77808Y177518D01*
X77748Y177502D01*
X77694Y177491D01*
X77644Y177486D01*
X77606Y177480D01*
X77574Y177475D01*
X77524D01*
X77432Y177480D01*
X77339Y177497D01*
X77257Y177513D01*
X77180Y177535D01*
X77120Y177562D01*
X77071Y177579D01*
X77039Y177595D01*
X77033Y177600D01*
X77027D01*
X77142Y176956D01*
X78513D01*
Y176279D01*
X76596D01*
X76225Y178250D01*
X76809Y178332D01*
X76858Y178283D01*
X76907Y178239D01*
X76957Y178201D01*
X77006Y178168D01*
X77099Y178119D01*
X77186Y178086D01*
X77262Y178070D01*
X77317Y178059D01*
X77339Y178054D01*
X77372D01*
X77459Y178059D01*
X77541Y178081D01*
X77612Y178108D01*
X77672Y178141D01*
X77715Y178179D01*
X77754Y178207D01*
X77776Y178228D01*
X77781Y178234D01*
X77836Y178305D01*
X77874Y178387D01*
X77901Y178474D01*
X77917Y178561D01*
X77934Y178638D01*
X77939Y178698D01*
Y178725D01*
Y178742D01*
Y178753D01*
Y178758D01*
X77934Y178889D01*
X77917Y179004D01*
X77890Y179096D01*
X77863Y179173D01*
X77830Y179238D01*
X77808Y179282D01*
X77786Y179304D01*
X77781Y179315D01*
X77721Y179375D01*
X77655Y179424D01*
X77590Y179457D01*
X77530Y179479D01*
X77475Y179490D01*
X77432Y179495D01*
X77404Y179500D01*
X77393D01*
X77322Y179495D01*
X77251Y179479D01*
X77191Y179457D01*
X77142Y179429D01*
X77099Y179402D01*
X77066Y179380D01*
X77044Y179364D01*
X77039Y179359D01*
X76989Y179298D01*
X76946Y179238D01*
X76913Y179173D01*
X76891Y179113D01*
X76875Y179058D01*
X76864Y179009D01*
X76858Y178982D01*
Y178971D01*
X76138Y179047D01*
X76154Y179135D01*
X76170Y179217D01*
X76225Y179364D01*
X76285Y179495D01*
X76318Y179550D01*
X76356Y179604D01*
X76389Y179648D01*
X76416Y179686D01*
X76449Y179719D01*
X76471Y179752D01*
X76493Y179773D01*
X76509Y179790D01*
X76520Y179795D01*
X76525Y179801D01*
X76591Y179850D01*
X76656Y179894D01*
X76727Y179932D01*
X76798Y179959D01*
X76946Y180014D01*
X77077Y180046D01*
X77142Y180057D01*
X77197Y180063D01*
X77251Y180068D01*
X77295Y180074D01*
X77333Y180079D01*
X77382D01*
X77503Y180074D01*
D02*
G37*
G36*
X74571Y186064D02*
X73762D01*
X72299Y189843D01*
X73107D01*
X73418Y188985D01*
X74936D01*
X75264Y189843D01*
X76088D01*
X74571Y186064D01*
D02*
G37*
G36*
X78458Y189084D02*
X78927D01*
Y188450D01*
X78458D01*
Y186048D01*
X77846D01*
X76209Y188456D01*
Y189084D01*
X77759D01*
Y189843D01*
X78458D01*
Y189084D01*
D02*
G37*
G36*
X74488Y195980D02*
X73680D01*
X72217Y199758D01*
X73025D01*
X73336Y198901D01*
X74854D01*
X75182Y199758D01*
X76006D01*
X74488Y195980D01*
D02*
G37*
G36*
X77562Y199824D02*
X77660Y199813D01*
X77748Y199796D01*
X77835Y199775D01*
X77912Y199747D01*
X77988Y199720D01*
X78059Y199687D01*
X78119Y199655D01*
X78174Y199622D01*
X78228Y199589D01*
X78266Y199562D01*
X78305Y199534D01*
X78332Y199513D01*
X78354Y199496D01*
X78365Y199485D01*
X78370Y199480D01*
X78436Y199414D01*
X78490Y199343D01*
X78539Y199272D01*
X78583Y199201D01*
X78616Y199125D01*
X78649Y199054D01*
X78692Y198923D01*
X78703Y198863D01*
X78714Y198803D01*
X78725Y198754D01*
X78730Y198710D01*
X78736Y198677D01*
Y198650D01*
Y198634D01*
Y198628D01*
X78725Y198503D01*
X78703Y198393D01*
X78676Y198290D01*
X78638Y198208D01*
X78599Y198137D01*
X78572Y198088D01*
X78550Y198055D01*
X78539Y198044D01*
X78463Y197962D01*
X78376Y197891D01*
X78288Y197836D01*
X78206Y197793D01*
X78135Y197760D01*
X78075Y197744D01*
X78053Y197733D01*
X78037D01*
X78026Y197727D01*
X78021D01*
X78119Y197667D01*
X78201Y197607D01*
X78272Y197541D01*
X78337Y197476D01*
X78392Y197411D01*
X78436Y197345D01*
X78468Y197280D01*
X78501Y197219D01*
X78523Y197159D01*
X78539Y197105D01*
X78550Y197056D01*
X78556Y197012D01*
X78561Y196979D01*
X78567Y196952D01*
Y196935D01*
Y196930D01*
X78561Y196864D01*
X78556Y196804D01*
X78523Y196684D01*
X78485Y196575D01*
X78436Y196482D01*
X78386Y196406D01*
X78343Y196351D01*
X78326Y196329D01*
X78310Y196313D01*
X78305Y196308D01*
X78299Y196302D01*
X78239Y196242D01*
X78168Y196187D01*
X78103Y196144D01*
X78032Y196106D01*
X77955Y196067D01*
X77884Y196040D01*
X77748Y196002D01*
X77688Y195985D01*
X77628Y195975D01*
X77578Y195969D01*
X77529Y195964D01*
X77491Y195958D01*
X77442D01*
X77327Y195964D01*
X77223Y195975D01*
X77125Y195996D01*
X77043Y196018D01*
X76978Y196040D01*
X76923Y196062D01*
X76890Y196073D01*
X76885Y196078D01*
X76880D01*
X76792Y196127D01*
X76710Y196182D01*
X76645Y196237D01*
X76590Y196286D01*
X76547Y196335D01*
X76514Y196373D01*
X76492Y196395D01*
X76486Y196406D01*
X76437Y196488D01*
X76394Y196575D01*
X76361Y196668D01*
X76328Y196755D01*
X76306Y196837D01*
X76290Y196897D01*
X76284Y196925D01*
Y196941D01*
X76279Y196952D01*
Y196957D01*
X76945Y197066D01*
X76961Y196979D01*
X76983Y196903D01*
X77005Y196837D01*
X77032Y196788D01*
X77060Y196744D01*
X77082Y196712D01*
X77098Y196695D01*
X77103Y196690D01*
X77153Y196646D01*
X77207Y196613D01*
X77262Y196591D01*
X77311Y196575D01*
X77355Y196564D01*
X77387Y196559D01*
X77420D01*
X77486Y196564D01*
X77551Y196575D01*
X77600Y196597D01*
X77644Y196613D01*
X77682Y196635D01*
X77704Y196657D01*
X77720Y196668D01*
X77726Y196673D01*
X77764Y196717D01*
X77791Y196772D01*
X77813Y196821D01*
X77824Y196870D01*
X77835Y196914D01*
X77841Y196946D01*
Y196968D01*
Y196979D01*
X77835Y197061D01*
X77819Y197132D01*
X77791Y197192D01*
X77764Y197241D01*
X77731Y197285D01*
X77710Y197312D01*
X77688Y197334D01*
X77682Y197339D01*
X77617Y197383D01*
X77546Y197416D01*
X77469Y197438D01*
X77398Y197454D01*
X77333Y197460D01*
X77278Y197465D01*
X77229D01*
X77153Y198049D01*
X77223Y198033D01*
X77284Y198017D01*
X77344Y198006D01*
X77393Y198000D01*
X77431Y197995D01*
X77486D01*
X77562Y198000D01*
X77628Y198022D01*
X77688Y198044D01*
X77742Y198077D01*
X77780Y198104D01*
X77813Y198131D01*
X77835Y198153D01*
X77841Y198159D01*
X77890Y198224D01*
X77928Y198295D01*
X77955Y198366D01*
X77977Y198437D01*
X77988Y198503D01*
X77993Y198552D01*
Y198584D01*
Y198590D01*
Y198595D01*
X77988Y198699D01*
X77972Y198792D01*
X77944Y198874D01*
X77917Y198939D01*
X77884Y198988D01*
X77862Y199027D01*
X77841Y199054D01*
X77835Y199059D01*
X77775Y199114D01*
X77710Y199158D01*
X77649Y199185D01*
X77589Y199207D01*
X77535Y199218D01*
X77496Y199223D01*
X77469Y199229D01*
X77458D01*
X77382Y199223D01*
X77316Y199207D01*
X77256Y199185D01*
X77202Y199158D01*
X77163Y199136D01*
X77131Y199114D01*
X77109Y199098D01*
X77103Y199092D01*
X77054Y199032D01*
X77011Y198967D01*
X76983Y198896D01*
X76956Y198830D01*
X76940Y198770D01*
X76929Y198721D01*
X76923Y198688D01*
Y198683D01*
Y198677D01*
X76224Y198765D01*
X76235Y198852D01*
X76257Y198934D01*
X76306Y199087D01*
X76366Y199218D01*
X76405Y199272D01*
X76437Y199327D01*
X76470Y199376D01*
X76503Y199414D01*
X76530Y199452D01*
X76557Y199480D01*
X76579Y199502D01*
X76596Y199518D01*
X76607Y199529D01*
X76612Y199534D01*
X76678Y199584D01*
X76749Y199633D01*
X76814Y199671D01*
X76890Y199704D01*
X77032Y199758D01*
X77163Y199791D01*
X77229Y199802D01*
X77284Y199813D01*
X77333Y199818D01*
X77376Y199824D01*
X77415Y199829D01*
X77464D01*
X77562Y199824D01*
D02*
G37*
G36*
X74530Y205980D02*
X73722D01*
X72258Y209758D01*
X73066D01*
X73378Y208901D01*
X74896D01*
X75223Y209758D01*
X76047D01*
X74530Y205980D01*
D02*
G37*
G36*
X78739Y209087D02*
X77298D01*
X77342Y209016D01*
X77391Y208956D01*
X77412Y208928D01*
X77429Y208907D01*
X77440Y208896D01*
X77445Y208890D01*
X77467Y208868D01*
X77489Y208841D01*
X77555Y208781D01*
X77626Y208710D01*
X77697Y208639D01*
X77767Y208574D01*
X77828Y208519D01*
X77849Y208497D01*
X77866Y208481D01*
X77877Y208475D01*
X77882Y208470D01*
X78002Y208355D01*
X78101Y208262D01*
X78182Y208175D01*
X78248Y208109D01*
X78297Y208055D01*
X78330Y208017D01*
X78352Y207989D01*
X78357Y207984D01*
X78428Y207891D01*
X78488Y207804D01*
X78537Y207722D01*
X78575Y207651D01*
X78608Y207591D01*
X78630Y207541D01*
X78641Y207514D01*
X78646Y207503D01*
X78679Y207416D01*
X78701Y207329D01*
X78717Y207247D01*
X78728Y207170D01*
X78734Y207110D01*
X78739Y207061D01*
Y207028D01*
Y207017D01*
X78734Y206936D01*
X78723Y206854D01*
X78712Y206777D01*
X78690Y206706D01*
X78636Y206581D01*
X78581Y206471D01*
X78548Y206422D01*
X78521Y206384D01*
X78494Y206346D01*
X78466Y206318D01*
X78444Y206297D01*
X78434Y206275D01*
X78423Y206269D01*
X78417Y206264D01*
X78357Y206209D01*
X78286Y206160D01*
X78221Y206122D01*
X78144Y206089D01*
X78002Y206035D01*
X77860Y205996D01*
X77795Y205985D01*
X77735Y205975D01*
X77680Y205969D01*
X77631Y205964D01*
X77593Y205958D01*
X77538D01*
X77445Y205964D01*
X77358Y205969D01*
X77189Y205996D01*
X77047Y206040D01*
X76981Y206062D01*
X76921Y206089D01*
X76867Y206111D01*
X76823Y206138D01*
X76779Y206160D01*
X76746Y206176D01*
X76719Y206198D01*
X76703Y206209D01*
X76692Y206215D01*
X76686Y206220D01*
X76626Y206275D01*
X76572Y206329D01*
X76523Y206395D01*
X76479Y206466D01*
X76413Y206608D01*
X76359Y206744D01*
X76342Y206815D01*
X76326Y206875D01*
X76310Y206930D01*
X76304Y206979D01*
X76293Y207023D01*
Y207050D01*
X76288Y207072D01*
Y207077D01*
X77008Y207148D01*
X77019Y207039D01*
X77041Y206946D01*
X77063Y206865D01*
X77090Y206804D01*
X77112Y206755D01*
X77134Y206722D01*
X77150Y206701D01*
X77156Y206695D01*
X77210Y206652D01*
X77271Y206619D01*
X77331Y206592D01*
X77391Y206575D01*
X77440Y206564D01*
X77483Y206559D01*
X77522D01*
X77604Y206564D01*
X77675Y206581D01*
X77735Y206602D01*
X77789Y206624D01*
X77828Y206646D01*
X77860Y206668D01*
X77877Y206684D01*
X77882Y206690D01*
X77926Y206744D01*
X77959Y206804D01*
X77980Y206865D01*
X77997Y206925D01*
X78008Y206979D01*
X78013Y207028D01*
Y207056D01*
Y207061D01*
Y207066D01*
X78008Y207148D01*
X77991Y207225D01*
X77964Y207301D01*
X77937Y207367D01*
X77909Y207427D01*
X77882Y207471D01*
X77866Y207498D01*
X77860Y207509D01*
X77838Y207541D01*
X77806Y207580D01*
X77762Y207629D01*
X77718Y207673D01*
X77620Y207776D01*
X77522Y207880D01*
X77424Y207978D01*
X77380Y208022D01*
X77336Y208055D01*
X77303Y208087D01*
X77281Y208109D01*
X77265Y208126D01*
X77260Y208131D01*
X77150Y208235D01*
X77052Y208333D01*
X76959Y208426D01*
X76877Y208508D01*
X76801Y208590D01*
X76736Y208666D01*
X76675Y208732D01*
X76626Y208797D01*
X76583Y208852D01*
X76544Y208901D01*
X76512Y208939D01*
X76490Y208978D01*
X76468Y208999D01*
X76457Y209021D01*
X76446Y209032D01*
Y209038D01*
X76375Y209163D01*
X76320Y209294D01*
X76277Y209414D01*
X76244Y209524D01*
X76222Y209622D01*
X76217Y209660D01*
X76211Y209693D01*
X76206Y209720D01*
X76200Y209742D01*
Y209753D01*
Y209758D01*
X78739D01*
Y209087D01*
D02*
G37*
G36*
X74405Y216563D02*
X73597D01*
X72133Y220342D01*
X72941D01*
X73253Y219484D01*
X74771D01*
X75098Y220342D01*
X75923D01*
X74405Y216563D01*
D02*
G37*
G36*
X78019Y216542D02*
X77430D01*
X77375Y216667D01*
X77304Y216782D01*
X77228Y216891D01*
X77151Y216978D01*
X77086Y217049D01*
X77026Y217104D01*
X77004Y217126D01*
X76987Y217142D01*
X76976Y217148D01*
X76971Y217153D01*
X76851Y217240D01*
X76736Y217317D01*
X76632Y217377D01*
X76540Y217421D01*
X76463Y217453D01*
X76409Y217481D01*
X76387Y217486D01*
X76370Y217492D01*
X76365Y217497D01*
X76359D01*
Y218152D01*
X76556Y218076D01*
X76731Y217994D01*
X76813Y217950D01*
X76889Y217901D01*
X76960Y217857D01*
X77026Y217814D01*
X77086Y217770D01*
X77140Y217732D01*
X77184Y217699D01*
X77222Y217666D01*
X77255Y217639D01*
X77277Y217623D01*
X77288Y217612D01*
X77293Y217606D01*
Y220342D01*
X78019D01*
Y216542D01*
D02*
G37*
G36*
X74905Y226813D02*
X74097D01*
X72633Y230592D01*
X73441D01*
X73753Y229734D01*
X75271D01*
X75598Y230592D01*
X76423D01*
X74905Y226813D01*
D02*
G37*
G36*
X77990Y230657D02*
X78083Y230646D01*
X78175Y230625D01*
X78257Y230603D01*
X78334Y230575D01*
X78405Y230543D01*
X78465Y230504D01*
X78525Y230466D01*
X78574Y230433D01*
X78623Y230395D01*
X78661Y230362D01*
X78694Y230335D01*
X78716Y230313D01*
X78732Y230291D01*
X78743Y230280D01*
X78749Y230275D01*
X78814Y230182D01*
X78869Y230073D01*
X78923Y229958D01*
X78961Y229833D01*
X79000Y229707D01*
X79027Y229582D01*
X79054Y229451D01*
X79076Y229325D01*
X79087Y229205D01*
X79098Y229096D01*
X79109Y228992D01*
X79114Y228905D01*
X79120Y228834D01*
Y228779D01*
Y228757D01*
Y228741D01*
Y228735D01*
Y228730D01*
X79114Y228533D01*
X79103Y228353D01*
X79087Y228189D01*
X79060Y228036D01*
X79032Y227894D01*
X79005Y227769D01*
X78967Y227654D01*
X78934Y227556D01*
X78901Y227463D01*
X78869Y227392D01*
X78836Y227327D01*
X78809Y227272D01*
X78781Y227234D01*
X78765Y227206D01*
X78754Y227190D01*
X78749Y227185D01*
X78689Y227114D01*
X78623Y227054D01*
X78552Y227005D01*
X78481Y226955D01*
X78410Y226917D01*
X78339Y226890D01*
X78274Y226863D01*
X78203Y226841D01*
X78137Y226824D01*
X78083Y226813D01*
X78028Y226802D01*
X77984Y226797D01*
X77946Y226792D01*
X77891D01*
X77793Y226797D01*
X77700Y226808D01*
X77608Y226830D01*
X77526Y226852D01*
X77449Y226884D01*
X77378Y226917D01*
X77318Y226950D01*
X77258Y226988D01*
X77209Y227026D01*
X77160Y227059D01*
X77122Y227092D01*
X77094Y227125D01*
X77067Y227146D01*
X77051Y227168D01*
X77040Y227179D01*
X77034Y227185D01*
X76969Y227277D01*
X76914Y227387D01*
X76865Y227501D01*
X76821Y227622D01*
X76789Y227747D01*
X76756Y227878D01*
X76734Y228004D01*
X76712Y228129D01*
X76701Y228249D01*
X76690Y228359D01*
X76679Y228462D01*
X76674Y228550D01*
X76668Y228621D01*
Y228675D01*
Y228697D01*
Y228713D01*
Y228719D01*
Y228724D01*
X76674Y228921D01*
X76685Y229101D01*
X76701Y229270D01*
X76723Y229423D01*
X76745Y229560D01*
X76772Y229685D01*
X76805Y229795D01*
X76838Y229893D01*
X76865Y229975D01*
X76898Y230051D01*
X76925Y230111D01*
X76952Y230160D01*
X76969Y230193D01*
X76985Y230220D01*
X76996Y230237D01*
X77001Y230242D01*
X77067Y230319D01*
X77138Y230379D01*
X77209Y230439D01*
X77285Y230483D01*
X77356Y230526D01*
X77433Y230559D01*
X77504Y230586D01*
X77575Y230608D01*
X77640Y230630D01*
X77700Y230641D01*
X77755Y230652D01*
X77799Y230657D01*
X77837D01*
X77869Y230663D01*
X77891D01*
X77990Y230657D01*
D02*
G37*
G36*
X74530Y236730D02*
X73722D01*
X72258Y240508D01*
X73066D01*
X73378Y239651D01*
X74896D01*
X75223Y240508D01*
X76047D01*
X74530Y236730D01*
D02*
G37*
G36*
X79389Y239771D02*
X79340Y239695D01*
X79291Y239618D01*
X79247Y239553D01*
X79203Y239493D01*
X79165Y239438D01*
X79132Y239384D01*
X79067Y239302D01*
X79018Y239236D01*
X78985Y239192D01*
X78958Y239165D01*
X78952Y239160D01*
X78892Y239094D01*
X78821Y239034D01*
X78756Y238985D01*
X78690Y238936D01*
X78636Y238898D01*
X78592Y238870D01*
X78559Y238848D01*
X78554Y238843D01*
X78548D01*
X78641Y238827D01*
X78723Y238805D01*
X78799Y238783D01*
X78876Y238756D01*
X78941Y238728D01*
X79001Y238701D01*
X79062Y238674D01*
X79111Y238641D01*
X79154Y238614D01*
X79193Y238586D01*
X79225Y238559D01*
X79247Y238537D01*
X79269Y238521D01*
X79285Y238505D01*
X79291Y238499D01*
X79296Y238494D01*
X79340Y238439D01*
X79378Y238384D01*
X79444Y238264D01*
X79487Y238150D01*
X79515Y238035D01*
X79536Y237937D01*
X79542Y237898D01*
Y237860D01*
X79547Y237833D01*
Y237806D01*
Y237795D01*
Y237789D01*
X79542Y237669D01*
X79520Y237554D01*
X79493Y237456D01*
X79466Y237369D01*
X79433Y237298D01*
X79405Y237243D01*
X79395Y237227D01*
X79384Y237210D01*
X79378Y237205D01*
Y237199D01*
X79313Y237107D01*
X79242Y237030D01*
X79171Y236970D01*
X79100Y236916D01*
X79034Y236883D01*
X78985Y236856D01*
X78952Y236839D01*
X78947Y236834D01*
X78941D01*
X78887Y236817D01*
X78827Y236801D01*
X78690Y236774D01*
X78543Y236757D01*
X78401Y236741D01*
X78330D01*
X78270Y236735D01*
X78210D01*
X78161Y236730D01*
X76457D01*
Y240508D01*
X77221D01*
Y238930D01*
X77467D01*
X77544Y238936D01*
X77609Y238941D01*
X77664Y238952D01*
X77707Y238958D01*
X77735Y238969D01*
X77751Y238974D01*
X77757D01*
X77800Y238996D01*
X77844Y239018D01*
X77882Y239045D01*
X77920Y239067D01*
X77948Y239094D01*
X77969Y239116D01*
X77980Y239127D01*
X77986Y239132D01*
X78008Y239160D01*
X78035Y239187D01*
X78095Y239269D01*
X78161Y239356D01*
X78232Y239455D01*
X78292Y239542D01*
X78319Y239586D01*
X78341Y239618D01*
X78363Y239646D01*
X78379Y239668D01*
X78384Y239684D01*
X78390Y239689D01*
X78936Y240508D01*
X79853D01*
X79389Y239771D01*
D02*
G37*
G36*
X84554Y238903D02*
X86132D01*
Y238264D01*
X84554D01*
Y237369D01*
X86383D01*
Y236730D01*
X83790D01*
Y240508D01*
X84554D01*
Y238903D01*
D02*
G37*
G36*
X83140Y239869D02*
X81033D01*
Y238843D01*
X82927D01*
Y238204D01*
X81033D01*
Y237369D01*
X83069D01*
Y236730D01*
X80268D01*
Y240508D01*
X83140D01*
Y239869D01*
D02*
G37*
G36*
X80180Y249949D02*
X80278Y249938D01*
X80366Y249921D01*
X80453Y249900D01*
X80530Y249872D01*
X80606Y249845D01*
X80677Y249812D01*
X80737Y249780D01*
X80792Y249747D01*
X80846Y249714D01*
X80884Y249687D01*
X80923Y249659D01*
X80950Y249638D01*
X80972Y249621D01*
X80983Y249610D01*
X80988Y249605D01*
X81054Y249539D01*
X81108Y249468D01*
X81157Y249397D01*
X81201Y249326D01*
X81234Y249250D01*
X81267Y249179D01*
X81310Y249048D01*
X81321Y248988D01*
X81332Y248928D01*
X81343Y248879D01*
X81349Y248835D01*
X81354Y248802D01*
Y248775D01*
Y248759D01*
Y248753D01*
X81343Y248627D01*
X81321Y248518D01*
X81294Y248415D01*
X81256Y248333D01*
X81218Y248262D01*
X81190Y248213D01*
X81168Y248180D01*
X81157Y248169D01*
X81081Y248087D01*
X80994Y248016D01*
X80906Y247961D01*
X80825Y247918D01*
X80753Y247885D01*
X80693Y247869D01*
X80672Y247858D01*
X80655D01*
X80644Y247852D01*
X80639D01*
X80737Y247792D01*
X80819Y247732D01*
X80890Y247667D01*
X80955Y247601D01*
X81010Y247535D01*
X81054Y247470D01*
X81086Y247405D01*
X81119Y247344D01*
X81141Y247284D01*
X81157Y247230D01*
X81168Y247181D01*
X81174Y247137D01*
X81179Y247104D01*
X81185Y247077D01*
Y247060D01*
Y247055D01*
X81179Y246989D01*
X81174Y246929D01*
X81141Y246809D01*
X81103Y246700D01*
X81054Y246607D01*
X81005Y246531D01*
X80961Y246476D01*
X80945Y246454D01*
X80928Y246438D01*
X80923Y246433D01*
X80917Y246427D01*
X80857Y246367D01*
X80786Y246312D01*
X80721Y246269D01*
X80650Y246231D01*
X80573Y246192D01*
X80502Y246165D01*
X80366Y246127D01*
X80306Y246110D01*
X80246Y246099D01*
X80197Y246094D01*
X80147Y246089D01*
X80109Y246083D01*
X80060D01*
X79945Y246089D01*
X79842Y246099D01*
X79743Y246121D01*
X79662Y246143D01*
X79596Y246165D01*
X79541Y246187D01*
X79509Y246198D01*
X79503Y246203D01*
X79498D01*
X79410Y246252D01*
X79328Y246307D01*
X79263Y246362D01*
X79208Y246411D01*
X79165Y246460D01*
X79132Y246498D01*
X79110Y246520D01*
X79105Y246531D01*
X79055Y246613D01*
X79012Y246700D01*
X78979Y246793D01*
X78946Y246880D01*
X78924Y246962D01*
X78908Y247022D01*
X78903Y247050D01*
Y247066D01*
X78897Y247077D01*
Y247082D01*
X79563Y247192D01*
X79580Y247104D01*
X79601Y247028D01*
X79623Y246962D01*
X79651Y246913D01*
X79678Y246869D01*
X79700Y246837D01*
X79716Y246820D01*
X79721Y246815D01*
X79771Y246771D01*
X79825Y246738D01*
X79880Y246716D01*
X79929Y246700D01*
X79973Y246689D01*
X80006Y246684D01*
X80038D01*
X80104Y246689D01*
X80169Y246700D01*
X80218Y246722D01*
X80262Y246738D01*
X80300Y246760D01*
X80322Y246782D01*
X80339Y246793D01*
X80344Y246798D01*
X80382Y246842D01*
X80409Y246897D01*
X80431Y246946D01*
X80442Y246995D01*
X80453Y247039D01*
X80459Y247071D01*
Y247093D01*
Y247104D01*
X80453Y247186D01*
X80437Y247257D01*
X80409Y247317D01*
X80382Y247366D01*
X80349Y247410D01*
X80328Y247437D01*
X80306Y247459D01*
X80300Y247464D01*
X80235Y247508D01*
X80164Y247541D01*
X80087Y247563D01*
X80016Y247579D01*
X79951Y247585D01*
X79896Y247590D01*
X79847D01*
X79771Y248174D01*
X79842Y248158D01*
X79902Y248142D01*
X79962Y248131D01*
X80011Y248125D01*
X80049Y248120D01*
X80104D01*
X80180Y248125D01*
X80246Y248147D01*
X80306Y248169D01*
X80360Y248202D01*
X80399Y248229D01*
X80431Y248256D01*
X80453Y248278D01*
X80459Y248284D01*
X80508Y248349D01*
X80546Y248420D01*
X80573Y248491D01*
X80595Y248562D01*
X80606Y248627D01*
X80611Y248677D01*
Y248709D01*
Y248715D01*
Y248720D01*
X80606Y248824D01*
X80590Y248917D01*
X80562Y248999D01*
X80535Y249064D01*
X80502Y249113D01*
X80480Y249152D01*
X80459Y249179D01*
X80453Y249184D01*
X80393Y249239D01*
X80328Y249283D01*
X80268Y249310D01*
X80208Y249332D01*
X80153Y249343D01*
X80115Y249348D01*
X80087Y249354D01*
X80076D01*
X80000Y249348D01*
X79935Y249332D01*
X79874Y249310D01*
X79820Y249283D01*
X79782Y249261D01*
X79749Y249239D01*
X79727Y249223D01*
X79721Y249217D01*
X79672Y249157D01*
X79629Y249092D01*
X79601Y249021D01*
X79574Y248955D01*
X79558Y248895D01*
X79547Y248846D01*
X79541Y248813D01*
Y248808D01*
Y248802D01*
X78843Y248890D01*
X78853Y248977D01*
X78875Y249059D01*
X78924Y249212D01*
X78984Y249343D01*
X79023Y249397D01*
X79055Y249452D01*
X79088Y249501D01*
X79121Y249539D01*
X79148Y249577D01*
X79176Y249605D01*
X79197Y249627D01*
X79214Y249643D01*
X79225Y249654D01*
X79230Y249659D01*
X79296Y249709D01*
X79367Y249758D01*
X79432Y249796D01*
X79509Y249829D01*
X79651Y249883D01*
X79782Y249916D01*
X79847Y249927D01*
X79902Y249938D01*
X79951Y249943D01*
X79994Y249949D01*
X80033Y249954D01*
X80082D01*
X80180Y249949D01*
D02*
G37*
G36*
X73721D02*
X73819Y249938D01*
X73907Y249921D01*
X73994Y249900D01*
X74070Y249872D01*
X74147Y249845D01*
X74218Y249812D01*
X74278Y249780D01*
X74332Y249747D01*
X74387Y249714D01*
X74425Y249687D01*
X74464Y249659D01*
X74491Y249638D01*
X74513Y249621D01*
X74524Y249610D01*
X74529Y249605D01*
X74595Y249539D01*
X74649Y249468D01*
X74698Y249397D01*
X74742Y249326D01*
X74775Y249250D01*
X74808Y249179D01*
X74851Y249048D01*
X74862Y248988D01*
X74873Y248928D01*
X74884Y248879D01*
X74889Y248835D01*
X74895Y248802D01*
Y248775D01*
Y248759D01*
Y248753D01*
X74884Y248627D01*
X74862Y248518D01*
X74835Y248415D01*
X74797Y248333D01*
X74758Y248262D01*
X74731Y248213D01*
X74709Y248180D01*
X74698Y248169D01*
X74622Y248087D01*
X74534Y248016D01*
X74447Y247961D01*
X74365Y247918D01*
X74294Y247885D01*
X74234Y247869D01*
X74212Y247858D01*
X74196D01*
X74185Y247852D01*
X74180D01*
X74278Y247792D01*
X74360Y247732D01*
X74431Y247667D01*
X74496Y247601D01*
X74551Y247535D01*
X74595Y247470D01*
X74627Y247405D01*
X74660Y247344D01*
X74682Y247284D01*
X74698Y247230D01*
X74709Y247181D01*
X74715Y247137D01*
X74720Y247104D01*
X74726Y247077D01*
Y247060D01*
Y247055D01*
X74720Y246989D01*
X74715Y246929D01*
X74682Y246809D01*
X74644Y246700D01*
X74595Y246607D01*
X74546Y246531D01*
X74502Y246476D01*
X74485Y246454D01*
X74469Y246438D01*
X74464Y246433D01*
X74458Y246427D01*
X74398Y246367D01*
X74327Y246312D01*
X74261Y246269D01*
X74191Y246231D01*
X74114Y246192D01*
X74043Y246165D01*
X73907Y246127D01*
X73847Y246110D01*
X73786Y246099D01*
X73737Y246094D01*
X73688Y246089D01*
X73650Y246083D01*
X73601D01*
X73486Y246089D01*
X73383Y246099D01*
X73284Y246121D01*
X73202Y246143D01*
X73137Y246165D01*
X73082Y246187D01*
X73049Y246198D01*
X73044Y246203D01*
X73039D01*
X72951Y246252D01*
X72869Y246307D01*
X72804Y246362D01*
X72749Y246411D01*
X72705Y246460D01*
X72673Y246498D01*
X72651Y246520D01*
X72645Y246531D01*
X72596Y246613D01*
X72553Y246700D01*
X72520Y246793D01*
X72487Y246880D01*
X72465Y246962D01*
X72449Y247022D01*
X72443Y247050D01*
Y247066D01*
X72438Y247077D01*
Y247082D01*
X73104Y247192D01*
X73120Y247104D01*
X73142Y247028D01*
X73164Y246962D01*
X73191Y246913D01*
X73219Y246869D01*
X73241Y246837D01*
X73257Y246820D01*
X73262Y246815D01*
X73312Y246771D01*
X73366Y246738D01*
X73421Y246716D01*
X73470Y246700D01*
X73514Y246689D01*
X73546Y246684D01*
X73579D01*
X73645Y246689D01*
X73710Y246700D01*
X73759Y246722D01*
X73803Y246738D01*
X73841Y246760D01*
X73863Y246782D01*
X73879Y246793D01*
X73885Y246798D01*
X73923Y246842D01*
X73950Y246897D01*
X73972Y246946D01*
X73983Y246995D01*
X73994Y247039D01*
X74000Y247071D01*
Y247093D01*
Y247104D01*
X73994Y247186D01*
X73978Y247257D01*
X73950Y247317D01*
X73923Y247366D01*
X73890Y247410D01*
X73868Y247437D01*
X73847Y247459D01*
X73841Y247464D01*
X73776Y247508D01*
X73705Y247541D01*
X73628Y247563D01*
X73557Y247579D01*
X73492Y247585D01*
X73437Y247590D01*
X73388D01*
X73312Y248174D01*
X73383Y248158D01*
X73443Y248142D01*
X73503Y248131D01*
X73552Y248125D01*
X73590Y248120D01*
X73645D01*
X73721Y248125D01*
X73786Y248147D01*
X73847Y248169D01*
X73901Y248202D01*
X73939Y248229D01*
X73972Y248256D01*
X73994Y248278D01*
X74000Y248284D01*
X74049Y248349D01*
X74087Y248420D01*
X74114Y248491D01*
X74136Y248562D01*
X74147Y248627D01*
X74152Y248677D01*
Y248709D01*
Y248715D01*
Y248720D01*
X74147Y248824D01*
X74130Y248917D01*
X74103Y248999D01*
X74076Y249064D01*
X74043Y249113D01*
X74021Y249152D01*
X74000Y249179D01*
X73994Y249184D01*
X73934Y249239D01*
X73868Y249283D01*
X73808Y249310D01*
X73748Y249332D01*
X73694Y249343D01*
X73655Y249348D01*
X73628Y249354D01*
X73617D01*
X73541Y249348D01*
X73475Y249332D01*
X73415Y249310D01*
X73361Y249283D01*
X73322Y249261D01*
X73290Y249239D01*
X73268Y249223D01*
X73262Y249217D01*
X73213Y249157D01*
X73169Y249092D01*
X73142Y249021D01*
X73115Y248955D01*
X73099Y248895D01*
X73088Y248846D01*
X73082Y248813D01*
Y248808D01*
Y248802D01*
X72383Y248890D01*
X72394Y248977D01*
X72416Y249059D01*
X72465Y249212D01*
X72525Y249343D01*
X72563Y249397D01*
X72596Y249452D01*
X72629Y249501D01*
X72662Y249539D01*
X72689Y249577D01*
X72716Y249605D01*
X72738Y249627D01*
X72755Y249643D01*
X72765Y249654D01*
X72771Y249659D01*
X72837Y249709D01*
X72908Y249758D01*
X72973Y249796D01*
X73049Y249829D01*
X73191Y249883D01*
X73322Y249916D01*
X73388Y249927D01*
X73443Y249938D01*
X73492Y249943D01*
X73535Y249949D01*
X73574Y249954D01*
X73623D01*
X73721Y249949D01*
D02*
G37*
G36*
X78646Y246105D02*
X77832D01*
X76910Y248901D01*
X75949Y246105D01*
X75124D01*
X76478Y249883D01*
X77303D01*
X78646Y246105D01*
D02*
G37*
G36*
X80279Y259949D02*
X80377Y259938D01*
X80464Y259922D01*
X80552Y259900D01*
X80628Y259873D01*
X80704Y259845D01*
X80775Y259812D01*
X80835Y259780D01*
X80890Y259747D01*
X80945Y259714D01*
X80983Y259687D01*
X81021Y259660D01*
X81048Y259638D01*
X81070Y259621D01*
X81081Y259610D01*
X81087Y259605D01*
X81152Y259539D01*
X81207Y259468D01*
X81256Y259398D01*
X81300Y259327D01*
X81332Y259250D01*
X81365Y259179D01*
X81409Y259048D01*
X81420Y258988D01*
X81431Y258928D01*
X81441Y258879D01*
X81447Y258835D01*
X81453Y258802D01*
Y258775D01*
Y258759D01*
Y258753D01*
X81441Y258628D01*
X81420Y258518D01*
X81392Y258415D01*
X81354Y258333D01*
X81316Y258262D01*
X81289Y258213D01*
X81267Y258180D01*
X81256Y258169D01*
X81179Y258087D01*
X81092Y258016D01*
X81005Y257962D01*
X80923Y257918D01*
X80852Y257885D01*
X80792Y257869D01*
X80770Y257858D01*
X80754D01*
X80743Y257852D01*
X80737D01*
X80835Y257792D01*
X80917Y257732D01*
X80988Y257667D01*
X81054Y257601D01*
X81108Y257536D01*
X81152Y257470D01*
X81185Y257405D01*
X81218Y257345D01*
X81239Y257284D01*
X81256Y257230D01*
X81267Y257181D01*
X81272Y257137D01*
X81278Y257104D01*
X81283Y257077D01*
Y257061D01*
Y257055D01*
X81278Y256990D01*
X81272Y256929D01*
X81239Y256809D01*
X81201Y256700D01*
X81152Y256607D01*
X81103Y256531D01*
X81059Y256476D01*
X81043Y256454D01*
X81027Y256438D01*
X81021Y256433D01*
X81016Y256427D01*
X80956Y256367D01*
X80885Y256313D01*
X80819Y256269D01*
X80748Y256231D01*
X80672Y256192D01*
X80601Y256165D01*
X80464Y256127D01*
X80404Y256111D01*
X80344Y256100D01*
X80295Y256094D01*
X80246Y256089D01*
X80208Y256083D01*
X80158D01*
X80044Y256089D01*
X79940Y256100D01*
X79842Y256121D01*
X79760Y256143D01*
X79694Y256165D01*
X79640Y256187D01*
X79607Y256198D01*
X79602Y256203D01*
X79596D01*
X79509Y256253D01*
X79427Y256307D01*
X79361Y256362D01*
X79307Y256411D01*
X79263Y256460D01*
X79230Y256498D01*
X79208Y256520D01*
X79203Y256531D01*
X79154Y256613D01*
X79110Y256700D01*
X79077Y256793D01*
X79045Y256880D01*
X79023Y256962D01*
X79006Y257022D01*
X79001Y257050D01*
Y257066D01*
X78996Y257077D01*
Y257082D01*
X79662Y257192D01*
X79678Y257104D01*
X79700Y257028D01*
X79722Y256962D01*
X79749Y256913D01*
X79776Y256870D01*
X79798Y256837D01*
X79814Y256820D01*
X79820Y256815D01*
X79869Y256771D01*
X79924Y256738D01*
X79978Y256717D01*
X80027Y256700D01*
X80071Y256689D01*
X80104Y256684D01*
X80137D01*
X80202Y256689D01*
X80268Y256700D01*
X80317Y256722D01*
X80361Y256738D01*
X80399Y256760D01*
X80421Y256782D01*
X80437Y256793D01*
X80442Y256799D01*
X80481Y256842D01*
X80508Y256897D01*
X80530Y256946D01*
X80541Y256995D01*
X80552Y257039D01*
X80557Y257071D01*
Y257093D01*
Y257104D01*
X80552Y257186D01*
X80535Y257257D01*
X80508Y257317D01*
X80481Y257366D01*
X80448Y257410D01*
X80426Y257437D01*
X80404Y257459D01*
X80399Y257465D01*
X80333Y257508D01*
X80262Y257541D01*
X80186Y257563D01*
X80115Y257579D01*
X80049Y257585D01*
X79995Y257590D01*
X79945D01*
X79869Y258174D01*
X79940Y258158D01*
X80000Y258142D01*
X80060Y258131D01*
X80109Y258125D01*
X80147Y258120D01*
X80202D01*
X80279Y258125D01*
X80344Y258147D01*
X80404Y258169D01*
X80459Y258202D01*
X80497Y258229D01*
X80530Y258256D01*
X80552Y258278D01*
X80557Y258284D01*
X80606Y258349D01*
X80644Y258420D01*
X80672Y258491D01*
X80694Y258562D01*
X80704Y258628D01*
X80710Y258677D01*
Y258710D01*
Y258715D01*
Y258720D01*
X80704Y258824D01*
X80688Y258917D01*
X80661Y258999D01*
X80633Y259064D01*
X80601Y259114D01*
X80579Y259152D01*
X80557Y259179D01*
X80552Y259185D01*
X80492Y259239D01*
X80426Y259283D01*
X80366Y259310D01*
X80306Y259332D01*
X80251Y259343D01*
X80213Y259348D01*
X80186Y259354D01*
X80175D01*
X80098Y259348D01*
X80033Y259332D01*
X79973Y259310D01*
X79918Y259283D01*
X79880Y259261D01*
X79847Y259239D01*
X79825Y259223D01*
X79820Y259217D01*
X79771Y259157D01*
X79727Y259092D01*
X79700Y259021D01*
X79672Y258955D01*
X79656Y258895D01*
X79645Y258846D01*
X79640Y258813D01*
Y258808D01*
Y258802D01*
X78941Y258890D01*
X78952Y258977D01*
X78974Y259059D01*
X79023Y259212D01*
X79083Y259343D01*
X79121Y259398D01*
X79154Y259452D01*
X79187Y259501D01*
X79219Y259539D01*
X79247Y259578D01*
X79274Y259605D01*
X79296Y259627D01*
X79312Y259643D01*
X79323Y259654D01*
X79329Y259660D01*
X79394Y259709D01*
X79465Y259758D01*
X79531Y259796D01*
X79607Y259829D01*
X79749Y259883D01*
X79880Y259916D01*
X79945Y259927D01*
X80000Y259938D01*
X80049Y259944D01*
X80093Y259949D01*
X80131Y259954D01*
X80180D01*
X80279Y259949D01*
D02*
G37*
G36*
X77882Y256083D02*
X77292D01*
X77237Y256209D01*
X77166Y256324D01*
X77090Y256433D01*
X77013Y256520D01*
X76948Y256591D01*
X76888Y256646D01*
X76866Y256667D01*
X76850Y256684D01*
X76839Y256689D01*
X76833Y256695D01*
X76713Y256782D01*
X76599Y256859D01*
X76495Y256919D01*
X76402Y256962D01*
X76326Y256995D01*
X76271Y257022D01*
X76249Y257028D01*
X76233Y257033D01*
X76227Y257039D01*
X76222D01*
Y257694D01*
X76418Y257617D01*
X76593Y257536D01*
X76675Y257492D01*
X76751Y257443D01*
X76822Y257399D01*
X76888Y257355D01*
X76948Y257312D01*
X77003Y257274D01*
X77046Y257241D01*
X77084Y257208D01*
X77117Y257181D01*
X77139Y257164D01*
X77150Y257153D01*
X77155Y257148D01*
Y259883D01*
X77882D01*
Y256083D01*
D02*
G37*
G36*
X73961Y259878D02*
X74098Y259873D01*
X74212Y259862D01*
X74305Y259845D01*
X74382Y259829D01*
X74442Y259818D01*
X74458Y259812D01*
X74475D01*
X74480Y259807D01*
X74485D01*
X74606Y259763D01*
X74715Y259714D01*
X74802Y259665D01*
X74879Y259616D01*
X74939Y259572D01*
X74982Y259539D01*
X75010Y259518D01*
X75021Y259507D01*
X75113Y259403D01*
X75195Y259294D01*
X75266Y259179D01*
X75321Y259075D01*
X75365Y258977D01*
X75386Y258939D01*
X75397Y258906D01*
X75408Y258873D01*
X75419Y258852D01*
X75425Y258840D01*
Y258835D01*
X75463Y258704D01*
X75496Y258568D01*
X75517Y258436D01*
X75528Y258311D01*
X75534Y258251D01*
X75539Y258196D01*
Y258153D01*
X75545Y258109D01*
Y258076D01*
Y258054D01*
Y258038D01*
Y258032D01*
X75539Y257841D01*
X75523Y257672D01*
X75517Y257590D01*
X75507Y257519D01*
X75496Y257448D01*
X75485Y257388D01*
X75468Y257334D01*
X75457Y257284D01*
X75446Y257241D01*
X75441Y257208D01*
X75430Y257181D01*
X75425Y257159D01*
X75419Y257148D01*
Y257142D01*
X75370Y257011D01*
X75310Y256891D01*
X75250Y256788D01*
X75190Y256700D01*
X75141Y256629D01*
X75097Y256575D01*
X75070Y256542D01*
X75064Y256531D01*
X75059D01*
X74966Y256444D01*
X74873Y256373D01*
X74775Y256313D01*
X74687Y256263D01*
X74611Y256225D01*
X74546Y256198D01*
X74524Y256192D01*
X74507Y256187D01*
X74496Y256182D01*
X74491D01*
X74387Y256154D01*
X74273Y256138D01*
X74152Y256121D01*
X74038Y256116D01*
X73934Y256111D01*
X73890Y256105D01*
X72383D01*
Y259883D01*
X73814D01*
X73961Y259878D01*
D02*
G37*
G36*
X120297Y255999D02*
X119708D01*
X119653Y256124D01*
X119582Y256239D01*
X119506Y256348D01*
X119429Y256436D01*
X119364Y256507D01*
X119304Y256561D01*
X119282Y256583D01*
X119265Y256599D01*
X119255Y256605D01*
X119249Y256610D01*
X119129Y256698D01*
X119014Y256774D01*
X118911Y256834D01*
X118818Y256878D01*
X118741Y256911D01*
X118687Y256938D01*
X118665Y256943D01*
X118648Y256949D01*
X118643Y256954D01*
X118638D01*
Y257610D01*
X118834Y257533D01*
X119009Y257451D01*
X119091Y257408D01*
X119167Y257359D01*
X119238Y257315D01*
X119304Y257271D01*
X119364Y257227D01*
X119418Y257189D01*
X119462Y257156D01*
X119500Y257124D01*
X119533Y257096D01*
X119555Y257080D01*
X119566Y257069D01*
X119571Y257064D01*
Y259799D01*
X120297D01*
Y255999D01*
D02*
G37*
G36*
X123830Y259127D02*
X122389D01*
X122432Y259056D01*
X122481Y258997D01*
X122503Y258969D01*
X122520Y258947D01*
X122530Y258936D01*
X122536Y258931D01*
X122558Y258909D01*
X122580Y258882D01*
X122645Y258822D01*
X122716Y258751D01*
X122787Y258680D01*
X122858Y258614D01*
X122918Y258560D01*
X122940Y258538D01*
X122956Y258522D01*
X122967Y258516D01*
X122973Y258510D01*
X123093Y258396D01*
X123191Y258303D01*
X123273Y258216D01*
X123338Y258150D01*
X123388Y258096D01*
X123420Y258057D01*
X123442Y258030D01*
X123448Y258025D01*
X123519Y257932D01*
X123579Y257844D01*
X123628Y257763D01*
X123666Y257692D01*
X123699Y257631D01*
X123721Y257582D01*
X123732Y257555D01*
X123737Y257544D01*
X123770Y257457D01*
X123792Y257369D01*
X123808Y257288D01*
X123819Y257211D01*
X123825Y257151D01*
X123830Y257102D01*
Y257069D01*
Y257058D01*
X123825Y256976D01*
X123814Y256894D01*
X123803Y256818D01*
X123781Y256747D01*
X123726Y256621D01*
X123672Y256512D01*
X123639Y256463D01*
X123611Y256425D01*
X123584Y256387D01*
X123557Y256359D01*
X123535Y256337D01*
X123524Y256316D01*
X123513Y256310D01*
X123508Y256305D01*
X123448Y256250D01*
X123377Y256201D01*
X123311Y256163D01*
X123235Y256130D01*
X123093Y256075D01*
X122951Y256037D01*
X122885Y256026D01*
X122825Y256015D01*
X122771Y256010D01*
X122722Y256004D01*
X122683Y255999D01*
X122629D01*
X122536Y256004D01*
X122449Y256010D01*
X122279Y256037D01*
X122137Y256081D01*
X122072Y256103D01*
X122012Y256130D01*
X121957Y256152D01*
X121914Y256179D01*
X121870Y256201D01*
X121837Y256217D01*
X121810Y256239D01*
X121793Y256250D01*
X121782Y256256D01*
X121777Y256261D01*
X121717Y256316D01*
X121662Y256370D01*
X121613Y256436D01*
X121570Y256507D01*
X121504Y256649D01*
X121449Y256785D01*
X121433Y256856D01*
X121417Y256916D01*
X121400Y256971D01*
X121395Y257020D01*
X121384Y257064D01*
Y257091D01*
X121378Y257113D01*
Y257118D01*
X122099Y257189D01*
X122110Y257080D01*
X122132Y256987D01*
X122154Y256905D01*
X122181Y256845D01*
X122203Y256796D01*
X122225Y256763D01*
X122241Y256741D01*
X122247Y256736D01*
X122301Y256692D01*
X122361Y256660D01*
X122421Y256632D01*
X122481Y256616D01*
X122530Y256605D01*
X122574Y256599D01*
X122612D01*
X122694Y256605D01*
X122765Y256621D01*
X122825Y256643D01*
X122880Y256665D01*
X122918Y256687D01*
X122951Y256709D01*
X122967Y256725D01*
X122973Y256731D01*
X123016Y256785D01*
X123049Y256845D01*
X123071Y256905D01*
X123087Y256965D01*
X123098Y257020D01*
X123104Y257069D01*
Y257096D01*
Y257102D01*
Y257107D01*
X123098Y257189D01*
X123082Y257266D01*
X123055Y257342D01*
X123027Y257408D01*
X123000Y257468D01*
X122973Y257511D01*
X122956Y257539D01*
X122951Y257550D01*
X122929Y257582D01*
X122896Y257621D01*
X122853Y257670D01*
X122809Y257713D01*
X122711Y257817D01*
X122612Y257921D01*
X122514Y258019D01*
X122470Y258063D01*
X122427Y258096D01*
X122394Y258128D01*
X122372Y258150D01*
X122356Y258167D01*
X122350Y258172D01*
X122241Y258276D01*
X122143Y258374D01*
X122050Y258467D01*
X121968Y258549D01*
X121892Y258631D01*
X121826Y258707D01*
X121766Y258773D01*
X121717Y258838D01*
X121673Y258893D01*
X121635Y258942D01*
X121602Y258980D01*
X121580Y259018D01*
X121559Y259040D01*
X121548Y259062D01*
X121537Y259073D01*
Y259078D01*
X121466Y259204D01*
X121411Y259335D01*
X121368Y259455D01*
X121335Y259564D01*
X121313Y259663D01*
X121307Y259701D01*
X121302Y259734D01*
X121297Y259761D01*
X121291Y259783D01*
Y259794D01*
Y259799D01*
X123830D01*
Y259127D01*
D02*
G37*
G36*
X116377Y259794D02*
X116514Y259788D01*
X116628Y259777D01*
X116721Y259761D01*
X116797Y259745D01*
X116858Y259734D01*
X116874Y259728D01*
X116890D01*
X116896Y259723D01*
X116901D01*
X117021Y259679D01*
X117130Y259630D01*
X117218Y259581D01*
X117294Y259532D01*
X117354Y259488D01*
X117398Y259455D01*
X117425Y259433D01*
X117436Y259422D01*
X117529Y259319D01*
X117611Y259209D01*
X117682Y259095D01*
X117737Y258991D01*
X117780Y258893D01*
X117802Y258855D01*
X117813Y258822D01*
X117824Y258789D01*
X117835Y258767D01*
X117840Y258756D01*
Y258751D01*
X117878Y258620D01*
X117911Y258483D01*
X117933Y258352D01*
X117944Y258227D01*
X117949Y258167D01*
X117955Y258112D01*
Y258068D01*
X117960Y258025D01*
Y257992D01*
Y257970D01*
Y257954D01*
Y257948D01*
X117955Y257757D01*
X117939Y257588D01*
X117933Y257506D01*
X117922Y257435D01*
X117911Y257364D01*
X117900Y257304D01*
X117884Y257249D01*
X117873Y257200D01*
X117862Y257156D01*
X117857Y257124D01*
X117846Y257096D01*
X117840Y257075D01*
X117835Y257064D01*
Y257058D01*
X117786Y256927D01*
X117726Y256807D01*
X117666Y256703D01*
X117605Y256616D01*
X117556Y256545D01*
X117513Y256490D01*
X117485Y256458D01*
X117480Y256447D01*
X117474D01*
X117382Y256359D01*
X117289Y256288D01*
X117191Y256228D01*
X117103Y256179D01*
X117027Y256141D01*
X116961Y256114D01*
X116939Y256108D01*
X116923Y256103D01*
X116912Y256097D01*
X116907D01*
X116803Y256070D01*
X116688Y256053D01*
X116568Y256037D01*
X116454Y256032D01*
X116350Y256026D01*
X116306Y256021D01*
X114799D01*
Y259799D01*
X116230D01*
X116377Y259794D01*
D02*
G37*
G36*
X120755Y248485D02*
X120815Y248431D01*
X120881Y248382D01*
X120941Y248344D01*
X121001Y248311D01*
X121061Y248284D01*
X121165Y248240D01*
X121258Y248213D01*
X121296Y248207D01*
X121329Y248202D01*
X121356Y248196D01*
X121389D01*
X121482Y248202D01*
X121585Y248223D01*
X121689Y248251D01*
X121787Y248284D01*
X121875Y248316D01*
X121913Y248333D01*
X121946Y248344D01*
X121973Y248355D01*
X121995Y248365D01*
X122006Y248371D01*
X122011D01*
X122104Y248409D01*
X122186Y248436D01*
X122251Y248464D01*
X122306Y248480D01*
X122344Y248497D01*
X122377Y248507D01*
X122393Y248513D01*
X122399D01*
X122492Y248529D01*
X122535Y248535D01*
X122573D01*
X122606Y248540D01*
X122650D01*
X122737Y248535D01*
X122814Y248524D01*
X122890Y248507D01*
X122956Y248485D01*
X123010Y248469D01*
X123054Y248453D01*
X123081Y248442D01*
X123092Y248436D01*
X123169Y248393D01*
X123234Y248355D01*
X123289Y248316D01*
X123338Y248278D01*
X123376Y248245D01*
X123403Y248223D01*
X123420Y248207D01*
X123425Y248202D01*
Y247508D01*
X123354Y247574D01*
X123289Y247634D01*
X123223Y247677D01*
X123169Y247721D01*
X123119Y247748D01*
X123081Y247770D01*
X123059Y247781D01*
X123048Y247787D01*
X122983Y247814D01*
X122917Y247836D01*
X122863Y247847D01*
X122814Y247858D01*
X122775Y247863D01*
X122748Y247869D01*
X122721D01*
X122666Y247863D01*
X122595Y247847D01*
X122513Y247825D01*
X122432Y247798D01*
X122361Y247776D01*
X122301Y247754D01*
X122273Y247743D01*
X122257Y247738D01*
X122246Y247732D01*
X122240D01*
X122120Y247683D01*
X122017Y247645D01*
X121929Y247612D01*
X121864Y247590D01*
X121809Y247574D01*
X121776Y247563D01*
X121755Y247557D01*
X121749D01*
X121645Y247535D01*
X121596Y247530D01*
X121547D01*
X121509Y247525D01*
X121449D01*
X121367Y247530D01*
X121290Y247541D01*
X121214Y247557D01*
X121148Y247579D01*
X121017Y247634D01*
X120908Y247699D01*
X120859Y247732D01*
X120815Y247765D01*
X120777Y247792D01*
X120750Y247819D01*
X120723Y247841D01*
X120706Y247858D01*
X120695Y247869D01*
X120690Y247874D01*
Y248546D01*
X120755Y248485D01*
D02*
G37*
G36*
X119652Y246083D02*
X119063D01*
X119008Y246209D01*
X118937Y246323D01*
X118861Y246433D01*
X118784Y246520D01*
X118719Y246591D01*
X118659Y246645D01*
X118637Y246667D01*
X118621Y246684D01*
X118609Y246689D01*
X118604Y246695D01*
X118484Y246782D01*
X118369Y246859D01*
X118266Y246919D01*
X118173Y246962D01*
X118096Y246995D01*
X118042Y247022D01*
X118020Y247028D01*
X118003Y247033D01*
X117998Y247039D01*
X117993D01*
Y247694D01*
X118189Y247617D01*
X118364Y247535D01*
X118446Y247492D01*
X118522Y247443D01*
X118593Y247399D01*
X118659Y247355D01*
X118719Y247312D01*
X118773Y247273D01*
X118817Y247241D01*
X118855Y247208D01*
X118888Y247181D01*
X118910Y247164D01*
X118921Y247153D01*
X118926Y247148D01*
Y249883D01*
X119652D01*
Y246083D01*
D02*
G37*
G36*
X116715D02*
X116125D01*
X116071Y246209D01*
X116000Y246323D01*
X115923Y246433D01*
X115847Y246520D01*
X115781Y246591D01*
X115721Y246645D01*
X115699Y246667D01*
X115683Y246684D01*
X115672Y246689D01*
X115667Y246695D01*
X115547Y246782D01*
X115432Y246859D01*
X115328Y246919D01*
X115235Y246962D01*
X115159Y246995D01*
X115104Y247022D01*
X115082Y247028D01*
X115066Y247033D01*
X115060Y247039D01*
X115055D01*
Y247694D01*
X115252Y247617D01*
X115426Y247535D01*
X115508Y247492D01*
X115585Y247443D01*
X115656Y247399D01*
X115721Y247355D01*
X115781Y247312D01*
X115836Y247273D01*
X115879Y247241D01*
X115918Y247208D01*
X115951Y247181D01*
X115972Y247164D01*
X115983Y247153D01*
X115989Y247148D01*
Y249883D01*
X116715D01*
Y246083D01*
D02*
G37*
G36*
X112795Y249878D02*
X112931Y249872D01*
X113046Y249862D01*
X113139Y249845D01*
X113215Y249829D01*
X113275Y249818D01*
X113292Y249812D01*
X113308D01*
X113313Y249807D01*
X113319D01*
X113439Y249763D01*
X113548Y249714D01*
X113636Y249665D01*
X113712Y249616D01*
X113772Y249572D01*
X113816Y249539D01*
X113843Y249517D01*
X113854Y249507D01*
X113947Y249403D01*
X114029Y249294D01*
X114100Y249179D01*
X114154Y249075D01*
X114198Y248977D01*
X114220Y248939D01*
X114231Y248906D01*
X114242Y248873D01*
X114252Y248851D01*
X114258Y248840D01*
Y248835D01*
X114296Y248704D01*
X114329Y248567D01*
X114351Y248436D01*
X114362Y248311D01*
X114367Y248251D01*
X114373Y248196D01*
Y248152D01*
X114378Y248109D01*
Y248076D01*
Y248054D01*
Y248038D01*
Y248032D01*
X114373Y247841D01*
X114356Y247672D01*
X114351Y247590D01*
X114340Y247519D01*
X114329Y247448D01*
X114318Y247388D01*
X114302Y247334D01*
X114291Y247284D01*
X114280Y247241D01*
X114274Y247208D01*
X114263Y247181D01*
X114258Y247159D01*
X114252Y247148D01*
Y247142D01*
X114203Y247011D01*
X114143Y246891D01*
X114083Y246788D01*
X114023Y246700D01*
X113974Y246629D01*
X113930Y246574D01*
X113903Y246542D01*
X113898Y246531D01*
X113892D01*
X113799Y246444D01*
X113707Y246373D01*
X113608Y246312D01*
X113521Y246263D01*
X113444Y246225D01*
X113379Y246198D01*
X113357Y246192D01*
X113341Y246187D01*
X113330Y246181D01*
X113324D01*
X113221Y246154D01*
X113106Y246138D01*
X112986Y246121D01*
X112871Y246116D01*
X112767Y246110D01*
X112724Y246105D01*
X111217D01*
Y249883D01*
X112647D01*
X112795Y249878D01*
D02*
G37*
G36*
X121004Y238401D02*
X121064Y238347D01*
X121130Y238298D01*
X121190Y238259D01*
X121250Y238227D01*
X121310Y238199D01*
X121414Y238156D01*
X121507Y238128D01*
X121545Y238123D01*
X121578Y238117D01*
X121605Y238112D01*
X121638D01*
X121730Y238117D01*
X121834Y238139D01*
X121938Y238167D01*
X122036Y238199D01*
X122124Y238232D01*
X122162Y238248D01*
X122195Y238259D01*
X122222Y238270D01*
X122244Y238281D01*
X122255Y238287D01*
X122260D01*
X122353Y238325D01*
X122435Y238352D01*
X122500Y238380D01*
X122555Y238396D01*
X122593Y238412D01*
X122626Y238423D01*
X122642Y238429D01*
X122648D01*
X122741Y238445D01*
X122784Y238451D01*
X122822D01*
X122855Y238456D01*
X122899D01*
X122986Y238451D01*
X123063Y238440D01*
X123139Y238423D01*
X123205Y238401D01*
X123259Y238385D01*
X123303Y238369D01*
X123330Y238358D01*
X123341Y238352D01*
X123418Y238309D01*
X123483Y238270D01*
X123538Y238232D01*
X123587Y238194D01*
X123625Y238161D01*
X123652Y238139D01*
X123669Y238123D01*
X123674Y238117D01*
Y237424D01*
X123603Y237490D01*
X123538Y237550D01*
X123472Y237593D01*
X123418Y237637D01*
X123369Y237664D01*
X123330Y237686D01*
X123308Y237697D01*
X123298Y237702D01*
X123232Y237730D01*
X123167Y237752D01*
X123112Y237762D01*
X123063Y237773D01*
X123024Y237779D01*
X122997Y237784D01*
X122970D01*
X122915Y237779D01*
X122844Y237762D01*
X122762Y237741D01*
X122680Y237713D01*
X122610Y237691D01*
X122549Y237670D01*
X122522Y237659D01*
X122506Y237653D01*
X122495Y237648D01*
X122489D01*
X122369Y237599D01*
X122266Y237561D01*
X122178Y237528D01*
X122113Y237506D01*
X122058Y237490D01*
X122025Y237479D01*
X122003Y237473D01*
X121998D01*
X121894Y237451D01*
X121845Y237446D01*
X121796D01*
X121758Y237440D01*
X121698D01*
X121616Y237446D01*
X121539Y237457D01*
X121463Y237473D01*
X121397Y237495D01*
X121266Y237550D01*
X121157Y237615D01*
X121108Y237648D01*
X121064Y237681D01*
X121026Y237708D01*
X120999Y237735D01*
X120972Y237757D01*
X120955Y237773D01*
X120944Y237784D01*
X120939Y237790D01*
Y238461D01*
X121004Y238401D01*
D02*
G37*
G36*
X116964Y235999D02*
X116374D01*
X116320Y236124D01*
X116249Y236239D01*
X116172Y236348D01*
X116096Y236436D01*
X116030Y236507D01*
X115970Y236561D01*
X115948Y236583D01*
X115932Y236599D01*
X115921Y236605D01*
X115916Y236611D01*
X115796Y236698D01*
X115681Y236774D01*
X115577Y236834D01*
X115484Y236878D01*
X115408Y236911D01*
X115353Y236938D01*
X115331Y236944D01*
X115315Y236949D01*
X115310Y236954D01*
X115304D01*
Y237610D01*
X115501Y237533D01*
X115675Y237451D01*
X115757Y237408D01*
X115834Y237358D01*
X115905Y237315D01*
X115970Y237271D01*
X116030Y237227D01*
X116085Y237189D01*
X116129Y237157D01*
X116167Y237124D01*
X116200Y237096D01*
X116221Y237080D01*
X116232Y237069D01*
X116238Y237064D01*
Y239799D01*
X116964D01*
Y235999D01*
D02*
G37*
G36*
X113044Y239794D02*
X113180Y239788D01*
X113295Y239777D01*
X113388Y239761D01*
X113464Y239744D01*
X113524Y239734D01*
X113540Y239728D01*
X113557D01*
X113562Y239723D01*
X113568D01*
X113688Y239679D01*
X113797Y239630D01*
X113884Y239581D01*
X113961Y239532D01*
X114021Y239488D01*
X114065Y239455D01*
X114092Y239433D01*
X114103Y239422D01*
X114196Y239319D01*
X114278Y239209D01*
X114349Y239095D01*
X114403Y238991D01*
X114447Y238893D01*
X114469Y238855D01*
X114480Y238822D01*
X114490Y238789D01*
X114502Y238767D01*
X114507Y238756D01*
Y238751D01*
X114545Y238620D01*
X114578Y238483D01*
X114600Y238352D01*
X114611Y238227D01*
X114616Y238167D01*
X114622Y238112D01*
Y238068D01*
X114627Y238025D01*
Y237992D01*
Y237970D01*
Y237954D01*
Y237948D01*
X114622Y237757D01*
X114605Y237588D01*
X114600Y237506D01*
X114589Y237435D01*
X114578Y237364D01*
X114567Y237304D01*
X114551Y237249D01*
X114540Y237200D01*
X114529Y237157D01*
X114523Y237124D01*
X114512Y237096D01*
X114507Y237075D01*
X114502Y237064D01*
Y237058D01*
X114452Y236927D01*
X114392Y236807D01*
X114332Y236703D01*
X114272Y236616D01*
X114223Y236545D01*
X114179Y236490D01*
X114152Y236458D01*
X114147Y236447D01*
X114141D01*
X114048Y236359D01*
X113955Y236288D01*
X113857Y236228D01*
X113770Y236179D01*
X113693Y236141D01*
X113628Y236114D01*
X113606Y236108D01*
X113590Y236103D01*
X113579Y236097D01*
X113573D01*
X113470Y236070D01*
X113355Y236053D01*
X113235Y236037D01*
X113120Y236032D01*
X113016Y236026D01*
X112973Y236021D01*
X111466D01*
Y239799D01*
X112896D01*
X113044Y239794D01*
D02*
G37*
G36*
X119372Y239865D02*
X119465Y239854D01*
X119557Y239832D01*
X119639Y239810D01*
X119716Y239783D01*
X119787Y239750D01*
X119847Y239712D01*
X119907Y239673D01*
X119956Y239641D01*
X120005Y239602D01*
X120043Y239570D01*
X120076Y239543D01*
X120098Y239521D01*
X120114Y239499D01*
X120125Y239488D01*
X120131Y239482D01*
X120196Y239390D01*
X120251Y239280D01*
X120305Y239166D01*
X120344Y239040D01*
X120382Y238915D01*
X120409Y238789D01*
X120437Y238658D01*
X120458Y238532D01*
X120469Y238412D01*
X120480Y238303D01*
X120491Y238199D01*
X120496Y238112D01*
X120502Y238041D01*
Y237986D01*
Y237965D01*
Y237948D01*
Y237943D01*
Y237937D01*
X120496Y237741D01*
X120486Y237561D01*
X120469Y237397D01*
X120442Y237244D01*
X120415Y237102D01*
X120387Y236976D01*
X120349Y236862D01*
X120316Y236763D01*
X120284Y236670D01*
X120251Y236599D01*
X120218Y236534D01*
X120191Y236479D01*
X120164Y236441D01*
X120147Y236414D01*
X120136Y236398D01*
X120131Y236392D01*
X120071Y236321D01*
X120005Y236261D01*
X119934Y236212D01*
X119863Y236163D01*
X119792Y236124D01*
X119721Y236097D01*
X119656Y236070D01*
X119585Y236048D01*
X119519Y236032D01*
X119465Y236021D01*
X119410Y236010D01*
X119366Y236004D01*
X119328Y235999D01*
X119273D01*
X119175Y236004D01*
X119082Y236015D01*
X118990Y236037D01*
X118908Y236059D01*
X118831Y236092D01*
X118760Y236124D01*
X118700Y236157D01*
X118640Y236195D01*
X118591Y236234D01*
X118542Y236266D01*
X118504Y236299D01*
X118476Y236332D01*
X118449Y236354D01*
X118433Y236376D01*
X118422Y236387D01*
X118416Y236392D01*
X118351Y236485D01*
X118296Y236594D01*
X118247Y236709D01*
X118203Y236829D01*
X118171Y236954D01*
X118138Y237086D01*
X118116Y237211D01*
X118094Y237337D01*
X118083Y237457D01*
X118072Y237566D01*
X118061Y237670D01*
X118056Y237757D01*
X118051Y237828D01*
Y237883D01*
Y237905D01*
Y237921D01*
Y237926D01*
Y237932D01*
X118056Y238128D01*
X118067Y238309D01*
X118083Y238478D01*
X118105Y238631D01*
X118127Y238767D01*
X118154Y238893D01*
X118187Y239002D01*
X118220Y239100D01*
X118247Y239182D01*
X118280Y239259D01*
X118307Y239319D01*
X118334Y239368D01*
X118351Y239401D01*
X118367Y239428D01*
X118378Y239444D01*
X118384Y239450D01*
X118449Y239526D01*
X118520Y239586D01*
X118591Y239646D01*
X118667Y239690D01*
X118738Y239734D01*
X118815Y239766D01*
X118886Y239794D01*
X118957Y239815D01*
X119022Y239837D01*
X119082Y239848D01*
X119137Y239859D01*
X119181Y239865D01*
X119219D01*
X119252Y239870D01*
X119273D01*
X119372Y239865D01*
D02*
G37*
G36*
X119023Y229783D02*
X119126Y229767D01*
X119225Y229745D01*
X119323Y229718D01*
X119410Y229679D01*
X119492Y229641D01*
X119569Y229603D01*
X119634Y229559D01*
X119694Y229516D01*
X119749Y229477D01*
X119792Y229434D01*
X119831Y229401D01*
X119863Y229374D01*
X119885Y229352D01*
X119896Y229335D01*
X119902Y229330D01*
X119973Y229237D01*
X120027Y229133D01*
X120082Y229019D01*
X120125Y228904D01*
X120164Y228779D01*
X120196Y228653D01*
X120218Y228533D01*
X120240Y228407D01*
X120256Y228292D01*
X120267Y228189D01*
X120278Y228091D01*
X120284Y228003D01*
X120289Y227932D01*
Y227878D01*
Y227861D01*
Y227845D01*
Y227839D01*
Y227834D01*
X120284Y227648D01*
X120273Y227479D01*
X120256Y227321D01*
X120229Y227173D01*
X120202Y227042D01*
X120175Y226922D01*
X120136Y226813D01*
X120104Y226715D01*
X120071Y226633D01*
X120038Y226562D01*
X120005Y226502D01*
X119978Y226452D01*
X119951Y226414D01*
X119934Y226387D01*
X119923Y226371D01*
X119918Y226365D01*
X119847Y226289D01*
X119771Y226218D01*
X119694Y226158D01*
X119618Y226109D01*
X119536Y226065D01*
X119459Y226027D01*
X119383Y225999D01*
X119307Y225972D01*
X119241Y225956D01*
X119176Y225939D01*
X119121Y225928D01*
X119072Y225923D01*
X119028D01*
X119001Y225917D01*
X118973D01*
X118875Y225923D01*
X118788Y225934D01*
X118700Y225950D01*
X118619Y225972D01*
X118542Y225999D01*
X118471Y226032D01*
X118400Y226059D01*
X118345Y226092D01*
X118291Y226130D01*
X118242Y226158D01*
X118204Y226190D01*
X118165Y226218D01*
X118138Y226240D01*
X118122Y226256D01*
X118111Y226267D01*
X118105Y226272D01*
X118045Y226343D01*
X117996Y226414D01*
X117947Y226491D01*
X117909Y226567D01*
X117876Y226644D01*
X117849Y226726D01*
X117810Y226873D01*
X117794Y226939D01*
X117783Y227004D01*
X117778Y227059D01*
X117772Y227108D01*
X117767Y227151D01*
Y227179D01*
Y227201D01*
Y227206D01*
X117772Y227304D01*
X117783Y227403D01*
X117794Y227495D01*
X117816Y227577D01*
X117843Y227659D01*
X117870Y227730D01*
X117898Y227801D01*
X117931Y227861D01*
X117958Y227916D01*
X117985Y227965D01*
X118012Y228003D01*
X118040Y228041D01*
X118062Y228063D01*
X118072Y228085D01*
X118084Y228096D01*
X118089Y228101D01*
X118149Y228162D01*
X118214Y228216D01*
X118280Y228260D01*
X118345Y228298D01*
X118411Y228331D01*
X118471Y228363D01*
X118591Y228402D01*
X118695Y228429D01*
X118739Y228434D01*
X118777Y228440D01*
X118810Y228445D01*
X118853D01*
X118930Y228440D01*
X119001Y228429D01*
X119066Y228418D01*
X119132Y228396D01*
X119252Y228347D01*
X119350Y228287D01*
X119427Y228227D01*
X119459Y228200D01*
X119487Y228178D01*
X119509Y228156D01*
X119525Y228140D01*
X119530Y228134D01*
X119536Y228129D01*
X119525Y228243D01*
X119514Y228353D01*
X119503Y228451D01*
X119487Y228538D01*
X119470Y228615D01*
X119454Y228686D01*
X119438Y228746D01*
X119421Y228800D01*
X119399Y228850D01*
X119388Y228888D01*
X119372Y228920D01*
X119361Y228942D01*
X119350Y228964D01*
X119339Y228975D01*
X119334Y228986D01*
X119274Y229051D01*
X119208Y229101D01*
X119148Y229139D01*
X119088Y229161D01*
X119034Y229177D01*
X118995Y229183D01*
X118968Y229188D01*
X118957D01*
X118897Y229183D01*
X118837Y229172D01*
X118793Y229155D01*
X118750Y229139D01*
X118717Y229122D01*
X118695Y229106D01*
X118679Y229095D01*
X118673Y229090D01*
X118635Y229046D01*
X118608Y228997D01*
X118586Y228942D01*
X118569Y228888D01*
X118553Y228844D01*
X118548Y228806D01*
X118542Y228779D01*
Y228768D01*
X117843Y228850D01*
X117860Y228937D01*
X117881Y229013D01*
X117903Y229090D01*
X117931Y229155D01*
X117958Y229221D01*
X117985Y229281D01*
X118018Y229330D01*
X118045Y229379D01*
X118078Y229417D01*
X118100Y229455D01*
X118127Y229483D01*
X118149Y229510D01*
X118165Y229526D01*
X118182Y229543D01*
X118187Y229548D01*
X118193Y229554D01*
X118247Y229597D01*
X118302Y229630D01*
X118422Y229690D01*
X118537Y229729D01*
X118651Y229761D01*
X118755Y229778D01*
X118799Y229783D01*
X118837D01*
X118864Y229789D01*
X118908D01*
X119023Y229783D01*
D02*
G37*
G36*
X120775Y228320D02*
X120835Y228265D01*
X120901Y228216D01*
X120961Y228178D01*
X121021Y228145D01*
X121081Y228118D01*
X121185Y228074D01*
X121278Y228047D01*
X121316Y228041D01*
X121349Y228036D01*
X121376Y228030D01*
X121409D01*
X121501Y228036D01*
X121605Y228058D01*
X121709Y228085D01*
X121807Y228118D01*
X121895Y228151D01*
X121933Y228167D01*
X121966Y228178D01*
X121993Y228189D01*
X122015Y228200D01*
X122026Y228205D01*
X122031D01*
X122124Y228243D01*
X122206Y228271D01*
X122271Y228298D01*
X122326Y228314D01*
X122364Y228331D01*
X122397Y228342D01*
X122413Y228347D01*
X122419D01*
X122511Y228363D01*
X122555Y228369D01*
X122593D01*
X122626Y228374D01*
X122670D01*
X122757Y228369D01*
X122834Y228358D01*
X122910Y228342D01*
X122976Y228320D01*
X123030Y228304D01*
X123074Y228287D01*
X123101Y228276D01*
X123112Y228271D01*
X123189Y228227D01*
X123254Y228189D01*
X123309Y228151D01*
X123358Y228112D01*
X123396Y228080D01*
X123423Y228058D01*
X123440Y228041D01*
X123445Y228036D01*
Y227343D01*
X123374Y227408D01*
X123309Y227468D01*
X123243Y227512D01*
X123189Y227555D01*
X123139Y227583D01*
X123101Y227605D01*
X123079Y227615D01*
X123068Y227621D01*
X123003Y227648D01*
X122937Y227670D01*
X122883Y227681D01*
X122834Y227692D01*
X122795Y227697D01*
X122768Y227703D01*
X122741D01*
X122686Y227697D01*
X122615Y227681D01*
X122533Y227659D01*
X122451Y227632D01*
X122380Y227610D01*
X122320Y227588D01*
X122293Y227577D01*
X122277Y227572D01*
X122266Y227566D01*
X122260D01*
X122140Y227517D01*
X122037Y227479D01*
X121949Y227446D01*
X121884Y227424D01*
X121829Y227408D01*
X121796Y227397D01*
X121774Y227392D01*
X121769D01*
X121665Y227370D01*
X121616Y227364D01*
X121567D01*
X121529Y227359D01*
X121469D01*
X121387Y227364D01*
X121310Y227375D01*
X121234Y227392D01*
X121168Y227414D01*
X121037Y227468D01*
X120928Y227534D01*
X120879Y227566D01*
X120835Y227599D01*
X120797Y227626D01*
X120770Y227654D01*
X120742Y227676D01*
X120726Y227692D01*
X120715Y227703D01*
X120710Y227708D01*
Y228380D01*
X120775Y228320D01*
D02*
G37*
G36*
X115752Y229712D02*
X115889Y229707D01*
X116003Y229696D01*
X116096Y229679D01*
X116173Y229663D01*
X116233Y229652D01*
X116249Y229647D01*
X116265D01*
X116271Y229641D01*
X116276D01*
X116396Y229597D01*
X116506Y229548D01*
X116593Y229499D01*
X116669Y229450D01*
X116729Y229406D01*
X116773Y229374D01*
X116800Y229352D01*
X116811Y229341D01*
X116904Y229237D01*
X116986Y229128D01*
X117057Y229013D01*
X117112Y228909D01*
X117155Y228811D01*
X117177Y228773D01*
X117188Y228740D01*
X117199Y228708D01*
X117210Y228686D01*
X117215Y228675D01*
Y228669D01*
X117253Y228538D01*
X117286Y228402D01*
X117308Y228271D01*
X117319Y228145D01*
X117324Y228085D01*
X117330Y228030D01*
Y227987D01*
X117335Y227943D01*
Y227910D01*
Y227888D01*
Y227872D01*
Y227867D01*
X117330Y227676D01*
X117314Y227506D01*
X117308Y227424D01*
X117297Y227353D01*
X117286Y227282D01*
X117275Y227222D01*
X117259Y227168D01*
X117248Y227119D01*
X117237Y227075D01*
X117232Y227042D01*
X117221Y227015D01*
X117215Y226993D01*
X117210Y226982D01*
Y226977D01*
X117161Y226846D01*
X117101Y226726D01*
X117041Y226622D01*
X116981Y226534D01*
X116931Y226463D01*
X116888Y226409D01*
X116860Y226376D01*
X116855Y226365D01*
X116850D01*
X116757Y226278D01*
X116664Y226207D01*
X116566Y226147D01*
X116478Y226098D01*
X116402Y226059D01*
X116336Y226032D01*
X116314Y226027D01*
X116298Y226021D01*
X116287Y226016D01*
X116282D01*
X116178Y225988D01*
X116063Y225972D01*
X115943Y225956D01*
X115829Y225950D01*
X115725Y225945D01*
X115681Y225939D01*
X114174D01*
Y229718D01*
X115605D01*
X115752Y229712D01*
D02*
G37*
G36*
X119377Y219669D02*
X119513Y219663D01*
X119628Y219652D01*
X119721Y219636D01*
X119798Y219619D01*
X119858Y219609D01*
X119874Y219603D01*
X119890D01*
X119896Y219598D01*
X119901D01*
X120021Y219554D01*
X120131Y219505D01*
X120218Y219456D01*
X120294Y219407D01*
X120354Y219363D01*
X120398Y219330D01*
X120425Y219308D01*
X120436Y219297D01*
X120529Y219194D01*
X120611Y219084D01*
X120682Y218970D01*
X120737Y218866D01*
X120780Y218768D01*
X120802Y218729D01*
X120813Y218697D01*
X120824Y218664D01*
X120835Y218642D01*
X120840Y218631D01*
Y218626D01*
X120879Y218495D01*
X120911Y218358D01*
X120933Y218227D01*
X120944Y218102D01*
X120949Y218042D01*
X120955Y217987D01*
Y217943D01*
X120960Y217900D01*
Y217867D01*
Y217845D01*
Y217829D01*
Y217823D01*
X120955Y217632D01*
X120939Y217463D01*
X120933Y217381D01*
X120922Y217310D01*
X120911Y217239D01*
X120900Y217179D01*
X120884Y217124D01*
X120873Y217075D01*
X120862Y217032D01*
X120857Y216999D01*
X120846Y216971D01*
X120840Y216950D01*
X120835Y216939D01*
Y216933D01*
X120786Y216802D01*
X120726Y216682D01*
X120666Y216578D01*
X120606Y216491D01*
X120556Y216420D01*
X120513Y216365D01*
X120485Y216333D01*
X120480Y216322D01*
X120475D01*
X120382Y216234D01*
X120289Y216163D01*
X120191Y216103D01*
X120103Y216054D01*
X120027Y216016D01*
X119961Y215989D01*
X119939Y215983D01*
X119923Y215978D01*
X119912Y215972D01*
X119907D01*
X119803Y215945D01*
X119688Y215929D01*
X119568Y215912D01*
X119454Y215907D01*
X119350Y215901D01*
X119306Y215896D01*
X117799D01*
Y219674D01*
X119230D01*
X119377Y219669D01*
D02*
G37*
G36*
X122801Y219740D02*
X122893Y219729D01*
X122986Y219712D01*
X123073Y219696D01*
X123150Y219669D01*
X123221Y219641D01*
X123292Y219614D01*
X123352Y219581D01*
X123407Y219549D01*
X123450Y219521D01*
X123494Y219494D01*
X123527Y219467D01*
X123554Y219450D01*
X123570Y219434D01*
X123581Y219423D01*
X123587Y219418D01*
X123647Y219352D01*
X123696Y219286D01*
X123745Y219215D01*
X123783Y219145D01*
X123816Y219074D01*
X123843Y219003D01*
X123881Y218866D01*
X123898Y218806D01*
X123909Y218751D01*
X123914Y218697D01*
X123920Y218653D01*
X123925Y218615D01*
Y218588D01*
Y218571D01*
Y218566D01*
X123920Y218451D01*
X123898Y218347D01*
X123876Y218249D01*
X123843Y218167D01*
X123816Y218102D01*
X123789Y218053D01*
X123767Y218020D01*
X123761Y218009D01*
X123696Y217921D01*
X123619Y217845D01*
X123538Y217779D01*
X123461Y217730D01*
X123390Y217687D01*
X123336Y217654D01*
X123314Y217643D01*
X123297Y217637D01*
X123286Y217632D01*
X123281D01*
X123368Y217588D01*
X123445Y217539D01*
X123510Y217490D01*
X123565Y217436D01*
X123609Y217392D01*
X123636Y217354D01*
X123658Y217332D01*
X123663Y217321D01*
X123712Y217239D01*
X123745Y217157D01*
X123772Y217081D01*
X123789Y217010D01*
X123800Y216944D01*
X123805Y216895D01*
Y216862D01*
Y216857D01*
Y216851D01*
X123800Y216775D01*
X123794Y216698D01*
X123756Y216562D01*
X123712Y216447D01*
X123658Y216343D01*
X123598Y216262D01*
X123576Y216229D01*
X123554Y216201D01*
X123532Y216180D01*
X123516Y216163D01*
X123510Y216158D01*
X123505Y216152D01*
X123445Y216103D01*
X123385Y216060D01*
X123314Y216021D01*
X123248Y215989D01*
X123106Y215939D01*
X122970Y215907D01*
X122910Y215896D01*
X122850Y215890D01*
X122801Y215885D01*
X122751Y215879D01*
X122719Y215874D01*
X122664D01*
X122566Y215879D01*
X122473Y215885D01*
X122386Y215901D01*
X122304Y215918D01*
X122227Y215939D01*
X122156Y215961D01*
X122096Y215989D01*
X122041Y216010D01*
X121987Y216038D01*
X121943Y216065D01*
X121911Y216087D01*
X121878Y216109D01*
X121856Y216125D01*
X121839Y216142D01*
X121829Y216147D01*
X121823Y216152D01*
X121774Y216207D01*
X121725Y216262D01*
X121687Y216322D01*
X121654Y216376D01*
X121599Y216496D01*
X121566Y216606D01*
X121545Y216704D01*
X121539Y216747D01*
X121534Y216780D01*
X121528Y216813D01*
Y216835D01*
Y216846D01*
Y216851D01*
X121534Y216944D01*
X121550Y217026D01*
X121566Y217108D01*
X121594Y217173D01*
X121616Y217233D01*
X121632Y217272D01*
X121648Y217299D01*
X121654Y217310D01*
X121709Y217381D01*
X121774Y217446D01*
X121839Y217501D01*
X121911Y217550D01*
X121970Y217583D01*
X122020Y217610D01*
X122052Y217627D01*
X122058Y217632D01*
X122063D01*
X121949Y217692D01*
X121850Y217752D01*
X121768Y217818D01*
X121703Y217883D01*
X121648Y217943D01*
X121610Y217987D01*
X121588Y218020D01*
X121583Y218025D01*
Y218031D01*
X121534Y218129D01*
X121495Y218227D01*
X121474Y218325D01*
X121452Y218413D01*
X121441Y218484D01*
X121435Y218544D01*
Y218566D01*
Y218582D01*
Y218593D01*
Y218599D01*
X121441Y218702D01*
X121452Y218795D01*
X121474Y218888D01*
X121501Y218970D01*
X121528Y219052D01*
X121561Y219123D01*
X121599Y219188D01*
X121637Y219248D01*
X121676Y219297D01*
X121714Y219346D01*
X121747Y219385D01*
X121774Y219418D01*
X121801Y219445D01*
X121823Y219461D01*
X121834Y219472D01*
X121839Y219478D01*
X121905Y219527D01*
X121976Y219565D01*
X122047Y219603D01*
X122118Y219630D01*
X122260Y219680D01*
X122396Y219712D01*
X122462Y219723D01*
X122517Y219729D01*
X122566Y219734D01*
X122609Y219740D01*
X122648Y219745D01*
X122697D01*
X122801Y219740D01*
D02*
G37*
G36*
X122576Y209442D02*
X122592Y209246D01*
X122620Y209054D01*
X122631Y208967D01*
X122647Y208880D01*
X122663Y208803D01*
X122680Y208727D01*
X122691Y208667D01*
X122702Y208612D01*
X122713Y208563D01*
X122723Y208530D01*
X122729Y208508D01*
Y208503D01*
X122800Y208268D01*
X122876Y208044D01*
X122915Y207941D01*
X122958Y207842D01*
X122996Y207750D01*
X123035Y207662D01*
X123073Y207586D01*
X123106Y207515D01*
X123138Y207449D01*
X123160Y207400D01*
X123182Y207357D01*
X123198Y207329D01*
X123210Y207307D01*
X123215Y207302D01*
X123275Y207198D01*
X123335Y207100D01*
X123390Y207013D01*
X123444Y206925D01*
X123499Y206849D01*
X123553Y206778D01*
X123603Y206712D01*
X123646Y206652D01*
X123690Y206597D01*
X123728Y206554D01*
X123761Y206516D01*
X123788Y206483D01*
X123810Y206461D01*
X123826Y206445D01*
X123837Y206434D01*
X123843Y206428D01*
Y205904D01*
X121364D01*
Y206576D01*
X123007D01*
X122827Y206821D01*
X122669Y207078D01*
X122592Y207198D01*
X122527Y207324D01*
X122467Y207438D01*
X122412Y207548D01*
X122363Y207651D01*
X122319Y207744D01*
X122281Y207832D01*
X122248Y207903D01*
X122227Y207957D01*
X122210Y208001D01*
X122199Y208028D01*
X122194Y208039D01*
X122139Y208192D01*
X122090Y208339D01*
X122052Y208487D01*
X122014Y208629D01*
X121986Y208771D01*
X121959Y208902D01*
X121937Y209027D01*
X121921Y209142D01*
X121905Y209246D01*
X121894Y209344D01*
X121883Y209426D01*
X121877Y209497D01*
Y209557D01*
X121872Y209600D01*
Y209622D01*
Y209633D01*
X122571D01*
X122576Y209442D01*
D02*
G37*
G36*
X119295Y209628D02*
X119431Y209622D01*
X119546Y209612D01*
X119639Y209595D01*
X119715Y209579D01*
X119775Y209568D01*
X119791Y209562D01*
X119808D01*
X119813Y209557D01*
X119819D01*
X119939Y209513D01*
X120048Y209464D01*
X120135Y209415D01*
X120212Y209366D01*
X120272Y209322D01*
X120316Y209289D01*
X120343Y209267D01*
X120354Y209257D01*
X120447Y209153D01*
X120529Y209044D01*
X120600Y208929D01*
X120654Y208825D01*
X120698Y208727D01*
X120720Y208689D01*
X120731Y208656D01*
X120741Y208623D01*
X120753Y208601D01*
X120758Y208590D01*
Y208585D01*
X120796Y208454D01*
X120829Y208317D01*
X120851Y208186D01*
X120862Y208061D01*
X120867Y208001D01*
X120873Y207946D01*
Y207903D01*
X120878Y207859D01*
Y207826D01*
Y207804D01*
Y207788D01*
Y207782D01*
X120873Y207591D01*
X120856Y207422D01*
X120851Y207340D01*
X120840Y207269D01*
X120829Y207198D01*
X120818Y207138D01*
X120802Y207084D01*
X120791Y207034D01*
X120780Y206991D01*
X120774Y206958D01*
X120763Y206931D01*
X120758Y206909D01*
X120753Y206898D01*
Y206892D01*
X120703Y206761D01*
X120643Y206641D01*
X120583Y206538D01*
X120523Y206450D01*
X120474Y206379D01*
X120430Y206325D01*
X120403Y206292D01*
X120398Y206281D01*
X120392D01*
X120299Y206193D01*
X120206Y206122D01*
X120108Y206063D01*
X120021Y206013D01*
X119944Y205975D01*
X119879Y205948D01*
X119857Y205942D01*
X119841Y205937D01*
X119830Y205931D01*
X119824D01*
X119720Y205904D01*
X119606Y205888D01*
X119486Y205871D01*
X119371Y205866D01*
X119267Y205860D01*
X119224Y205855D01*
X117717D01*
Y209633D01*
X119147D01*
X119295Y209628D01*
D02*
G37*
G36*
X120693Y198194D02*
X120753Y198139D01*
X120818Y198090D01*
X120879Y198052D01*
X120939Y198019D01*
X120999Y197992D01*
X121102Y197948D01*
X121195Y197921D01*
X121233Y197915D01*
X121266Y197910D01*
X121293Y197905D01*
X121326D01*
X121419Y197910D01*
X121523Y197932D01*
X121626Y197959D01*
X121725Y197992D01*
X121812Y198025D01*
X121850Y198041D01*
X121883Y198052D01*
X121910Y198063D01*
X121932Y198074D01*
X121943Y198079D01*
X121949D01*
X122041Y198117D01*
X122123Y198145D01*
X122189Y198172D01*
X122243Y198188D01*
X122282Y198205D01*
X122315Y198216D01*
X122331Y198221D01*
X122336D01*
X122429Y198238D01*
X122473Y198243D01*
X122511D01*
X122544Y198249D01*
X122588D01*
X122675Y198243D01*
X122751Y198232D01*
X122828Y198216D01*
X122893Y198194D01*
X122948Y198178D01*
X122992Y198161D01*
X123019Y198150D01*
X123030Y198145D01*
X123106Y198101D01*
X123172Y198063D01*
X123226Y198025D01*
X123275Y197986D01*
X123314Y197954D01*
X123341Y197932D01*
X123357Y197915D01*
X123363Y197910D01*
Y197217D01*
X123292Y197282D01*
X123226Y197342D01*
X123161Y197386D01*
X123106Y197430D01*
X123057Y197457D01*
X123019Y197479D01*
X122997Y197490D01*
X122986Y197495D01*
X122921Y197522D01*
X122855Y197544D01*
X122800Y197555D01*
X122751Y197566D01*
X122713Y197572D01*
X122686Y197577D01*
X122658D01*
X122604Y197572D01*
X122533Y197555D01*
X122451Y197533D01*
X122369Y197506D01*
X122298Y197484D01*
X122238Y197462D01*
X122211Y197451D01*
X122194Y197446D01*
X122183Y197441D01*
X122178D01*
X122058Y197391D01*
X121954Y197353D01*
X121867Y197320D01*
X121801Y197299D01*
X121747Y197282D01*
X121714Y197271D01*
X121692Y197266D01*
X121687D01*
X121583Y197244D01*
X121534Y197238D01*
X121484D01*
X121446Y197233D01*
X121386D01*
X121304Y197238D01*
X121228Y197249D01*
X121151Y197266D01*
X121086Y197288D01*
X120955Y197342D01*
X120846Y197408D01*
X120797Y197441D01*
X120753Y197473D01*
X120715Y197501D01*
X120687Y197528D01*
X120660Y197550D01*
X120644Y197566D01*
X120633Y197577D01*
X120627Y197582D01*
Y198254D01*
X120693Y198194D01*
D02*
G37*
G36*
X119148Y199657D02*
X119240Y199646D01*
X119328Y199630D01*
X119410Y199608D01*
X119492Y199581D01*
X119563Y199554D01*
X119628Y199521D01*
X119688Y199488D01*
X119743Y199455D01*
X119787Y199422D01*
X119830Y199395D01*
X119863Y199368D01*
X119890Y199346D01*
X119907Y199330D01*
X119918Y199319D01*
X119923Y199313D01*
X119983Y199248D01*
X120038Y199171D01*
X120081Y199095D01*
X120120Y199018D01*
X120158Y198942D01*
X120185Y198865D01*
X120223Y198713D01*
X120240Y198647D01*
X120251Y198582D01*
X120256Y198527D01*
X120262Y198478D01*
X120267Y198434D01*
Y198407D01*
Y198385D01*
Y198380D01*
X120262Y198276D01*
X120251Y198183D01*
X120234Y198090D01*
X120218Y198008D01*
X120191Y197926D01*
X120163Y197855D01*
X120136Y197784D01*
X120103Y197724D01*
X120070Y197670D01*
X120043Y197621D01*
X120016Y197582D01*
X119989Y197544D01*
X119972Y197517D01*
X119956Y197501D01*
X119945Y197490D01*
X119939Y197484D01*
X119879Y197424D01*
X119814Y197370D01*
X119748Y197320D01*
X119683Y197282D01*
X119617Y197249D01*
X119552Y197222D01*
X119432Y197178D01*
X119377Y197162D01*
X119322Y197151D01*
X119279Y197146D01*
X119240Y197140D01*
X119208Y197135D01*
X119164D01*
X119088Y197140D01*
X119017Y197151D01*
X118951Y197162D01*
X118886Y197184D01*
X118771Y197238D01*
X118673Y197293D01*
X118596Y197353D01*
X118563Y197380D01*
X118536Y197408D01*
X118514Y197430D01*
X118498Y197441D01*
X118492Y197451D01*
X118487Y197457D01*
X118498Y197342D01*
X118509Y197233D01*
X118520Y197135D01*
X118536Y197047D01*
X118552Y196971D01*
X118569Y196900D01*
X118585Y196840D01*
X118607Y196785D01*
X118623Y196736D01*
X118634Y196698D01*
X118651Y196665D01*
X118662Y196643D01*
X118673Y196622D01*
X118684Y196610D01*
X118689Y196600D01*
X118749Y196529D01*
X118815Y196479D01*
X118880Y196441D01*
X118940Y196419D01*
X118995Y196403D01*
X119038Y196398D01*
X119066Y196392D01*
X119077D01*
X119137Y196398D01*
X119197Y196408D01*
X119246Y196425D01*
X119284Y196441D01*
X119317Y196463D01*
X119339Y196479D01*
X119355Y196490D01*
X119361Y196496D01*
X119399Y196540D01*
X119426Y196589D01*
X119453Y196643D01*
X119470Y196692D01*
X119481Y196742D01*
X119492Y196780D01*
X119497Y196802D01*
Y196813D01*
X120196Y196736D01*
X120158Y196572D01*
X120103Y196436D01*
X120043Y196316D01*
X119983Y196212D01*
X119923Y196135D01*
X119901Y196108D01*
X119874Y196081D01*
X119858Y196064D01*
X119841Y196048D01*
X119836Y196037D01*
X119830D01*
X119776Y195994D01*
X119721Y195955D01*
X119601Y195895D01*
X119481Y195852D01*
X119371Y195824D01*
X119273Y195802D01*
X119230Y195797D01*
X119191D01*
X119164Y195791D01*
X119120D01*
X119006Y195797D01*
X118902Y195813D01*
X118798Y195835D01*
X118705Y195862D01*
X118618Y195901D01*
X118531Y195939D01*
X118460Y195983D01*
X118389Y196021D01*
X118329Y196064D01*
X118274Y196108D01*
X118230Y196146D01*
X118192Y196185D01*
X118159Y196212D01*
X118138Y196234D01*
X118127Y196250D01*
X118121Y196256D01*
X118056Y196349D01*
X117996Y196452D01*
X117947Y196567D01*
X117903Y196681D01*
X117865Y196807D01*
X117832Y196933D01*
X117805Y197058D01*
X117788Y197178D01*
X117772Y197293D01*
X117761Y197402D01*
X117750Y197501D01*
X117744Y197588D01*
X117739Y197659D01*
Y197713D01*
Y197730D01*
Y197746D01*
Y197752D01*
Y197757D01*
X117744Y197943D01*
X117755Y198112D01*
X117772Y198270D01*
X117799Y198412D01*
X117826Y198549D01*
X117854Y198669D01*
X117886Y198773D01*
X117925Y198871D01*
X117957Y198953D01*
X117990Y199024D01*
X118017Y199084D01*
X118050Y199133D01*
X118072Y199171D01*
X118088Y199199D01*
X118099Y199215D01*
X118105Y199220D01*
X118176Y199297D01*
X118252Y199368D01*
X118329Y199428D01*
X118411Y199477D01*
X118487Y199521D01*
X118569Y199554D01*
X118645Y199586D01*
X118716Y199608D01*
X118787Y199625D01*
X118847Y199641D01*
X118907Y199646D01*
X118957Y199657D01*
X118995D01*
X119022Y199663D01*
X119049D01*
X119148Y199657D01*
D02*
G37*
G36*
X115670Y199586D02*
X115806Y199581D01*
X115921Y199570D01*
X116014Y199554D01*
X116090Y199537D01*
X116150Y199526D01*
X116166Y199521D01*
X116183D01*
X116188Y199515D01*
X116194D01*
X116314Y199472D01*
X116423Y199422D01*
X116510Y199373D01*
X116587Y199324D01*
X116647Y199281D01*
X116691Y199248D01*
X116718Y199226D01*
X116729Y199215D01*
X116822Y199111D01*
X116904Y199002D01*
X116975Y198887D01*
X117029Y198784D01*
X117073Y198685D01*
X117095Y198647D01*
X117106Y198614D01*
X117116Y198582D01*
X117128Y198560D01*
X117133Y198549D01*
Y198543D01*
X117171Y198412D01*
X117204Y198276D01*
X117226Y198145D01*
X117237Y198019D01*
X117242Y197959D01*
X117248Y197905D01*
Y197861D01*
X117253Y197817D01*
Y197784D01*
Y197763D01*
Y197746D01*
Y197741D01*
X117248Y197550D01*
X117231Y197380D01*
X117226Y197299D01*
X117215Y197228D01*
X117204Y197157D01*
X117193Y197097D01*
X117177Y197042D01*
X117166Y196993D01*
X117155Y196949D01*
X117149Y196916D01*
X117138Y196889D01*
X117133Y196867D01*
X117128Y196856D01*
Y196851D01*
X117078Y196720D01*
X117018Y196600D01*
X116958Y196496D01*
X116898Y196408D01*
X116849Y196337D01*
X116805Y196283D01*
X116778Y196250D01*
X116773Y196239D01*
X116767D01*
X116674Y196152D01*
X116581Y196081D01*
X116483Y196021D01*
X116396Y195972D01*
X116319Y195933D01*
X116254Y195906D01*
X116232Y195901D01*
X116216Y195895D01*
X116205Y195890D01*
X116199D01*
X116095Y195862D01*
X115981Y195846D01*
X115861Y195830D01*
X115746Y195824D01*
X115642Y195819D01*
X115599Y195813D01*
X114092D01*
Y199592D01*
X115522D01*
X115670Y199586D01*
D02*
G37*
G36*
X118711Y179918D02*
X118848Y179912D01*
X118962Y179901D01*
X119055Y179885D01*
X119132Y179868D01*
X119192Y179858D01*
X119208Y179852D01*
X119225D01*
X119230Y179847D01*
X119235D01*
X119355Y179803D01*
X119465Y179754D01*
X119552Y179705D01*
X119629Y179656D01*
X119689Y179612D01*
X119732Y179579D01*
X119760Y179557D01*
X119771Y179546D01*
X119863Y179443D01*
X119945Y179333D01*
X120016Y179219D01*
X120071Y179115D01*
X120115Y179017D01*
X120136Y178979D01*
X120147Y178946D01*
X120158Y178913D01*
X120169Y178891D01*
X120175Y178880D01*
Y178875D01*
X120213Y178744D01*
X120246Y178607D01*
X120267Y178476D01*
X120278Y178351D01*
X120284Y178291D01*
X120289Y178236D01*
Y178192D01*
X120295Y178149D01*
Y178116D01*
Y178094D01*
Y178078D01*
Y178072D01*
X120289Y177881D01*
X120273Y177712D01*
X120267Y177630D01*
X120256Y177559D01*
X120246Y177488D01*
X120235Y177428D01*
X120218Y177373D01*
X120207Y177324D01*
X120196Y177280D01*
X120191Y177248D01*
X120180Y177220D01*
X120175Y177199D01*
X120169Y177188D01*
Y177182D01*
X120120Y177051D01*
X120060Y176931D01*
X120000Y176827D01*
X119940Y176740D01*
X119891Y176669D01*
X119847Y176614D01*
X119820Y176582D01*
X119814Y176571D01*
X119809D01*
X119716Y176483D01*
X119623Y176412D01*
X119525Y176352D01*
X119437Y176303D01*
X119361Y176265D01*
X119296Y176238D01*
X119274Y176232D01*
X119257Y176227D01*
X119246Y176221D01*
X119241D01*
X119137Y176194D01*
X119023Y176178D01*
X118902Y176161D01*
X118788Y176156D01*
X118684Y176150D01*
X118640Y176145D01*
X117133D01*
Y179923D01*
X118564D01*
X118711Y179918D01*
D02*
G37*
G36*
X122905Y179164D02*
X123374D01*
Y178531D01*
X122905D01*
Y176128D01*
X122293D01*
X120655Y178536D01*
Y179164D01*
X122206D01*
Y179923D01*
X122905D01*
Y179164D01*
D02*
G37*
G36*
X118865Y189907D02*
X118980Y189891D01*
X119083Y189869D01*
X119182Y189836D01*
X119274Y189798D01*
X119356Y189754D01*
X119433Y189711D01*
X119504Y189662D01*
X119564Y189618D01*
X119618Y189574D01*
X119667Y189531D01*
X119706Y189492D01*
X119733Y189460D01*
X119755Y189438D01*
X119766Y189421D01*
X119771Y189416D01*
X119820Y189345D01*
X119864Y189274D01*
X119897Y189203D01*
X119930Y189126D01*
X119979Y188985D01*
X120011Y188853D01*
X120022Y188799D01*
X120028Y188744D01*
X120039Y188695D01*
Y188651D01*
X120044Y188619D01*
Y188597D01*
Y188580D01*
Y188575D01*
X120039Y188471D01*
X120028Y188373D01*
X120011Y188280D01*
X119990Y188193D01*
X119968Y188116D01*
X119935Y188040D01*
X119908Y187969D01*
X119875Y187909D01*
X119842Y187854D01*
X119815Y187805D01*
X119782Y187761D01*
X119760Y187729D01*
X119738Y187701D01*
X119722Y187680D01*
X119711Y187669D01*
X119706Y187663D01*
X119640Y187603D01*
X119575Y187548D01*
X119504Y187499D01*
X119433Y187456D01*
X119367Y187423D01*
X119296Y187396D01*
X119171Y187352D01*
X119111Y187336D01*
X119056Y187325D01*
X119007Y187319D01*
X118969Y187314D01*
X118936Y187308D01*
X118887D01*
X118794Y187314D01*
X118701Y187330D01*
X118619Y187346D01*
X118543Y187368D01*
X118483Y187396D01*
X118434Y187412D01*
X118401Y187428D01*
X118395Y187434D01*
X118390D01*
X118505Y186790D01*
X119875D01*
Y186112D01*
X117958D01*
X117587Y188084D01*
X118172Y188165D01*
X118221Y188116D01*
X118270Y188073D01*
X118319Y188034D01*
X118368Y188002D01*
X118461Y187952D01*
X118548Y187920D01*
X118625Y187903D01*
X118679Y187892D01*
X118701Y187887D01*
X118734D01*
X118821Y187892D01*
X118903Y187914D01*
X118974Y187942D01*
X119034Y187974D01*
X119078Y188013D01*
X119116Y188040D01*
X119138Y188062D01*
X119143Y188067D01*
X119198Y188138D01*
X119236Y188220D01*
X119264Y188307D01*
X119280Y188395D01*
X119296Y188471D01*
X119302Y188531D01*
Y188559D01*
Y188575D01*
Y188586D01*
Y188591D01*
X119296Y188722D01*
X119280Y188837D01*
X119253Y188930D01*
X119225Y189006D01*
X119193Y189072D01*
X119171Y189116D01*
X119149Y189137D01*
X119143Y189148D01*
X119083Y189208D01*
X119018Y189258D01*
X118952Y189290D01*
X118892Y189312D01*
X118838Y189323D01*
X118794Y189329D01*
X118767Y189334D01*
X118756D01*
X118685Y189329D01*
X118614Y189312D01*
X118554Y189290D01*
X118505Y189263D01*
X118461Y189236D01*
X118428Y189214D01*
X118406Y189197D01*
X118401Y189192D01*
X118352Y189132D01*
X118308Y189072D01*
X118275Y189006D01*
X118253Y188946D01*
X118237Y188892D01*
X118226Y188842D01*
X118221Y188815D01*
Y188804D01*
X117500Y188881D01*
X117516Y188968D01*
X117533Y189050D01*
X117587Y189197D01*
X117647Y189329D01*
X117680Y189383D01*
X117718Y189438D01*
X117751Y189481D01*
X117778Y189520D01*
X117811Y189552D01*
X117833Y189585D01*
X117855Y189607D01*
X117871Y189623D01*
X117882Y189629D01*
X117888Y189634D01*
X117953Y189683D01*
X118019Y189727D01*
X118090Y189765D01*
X118161Y189793D01*
X118308Y189847D01*
X118439Y189880D01*
X118505Y189891D01*
X118559Y189896D01*
X118614Y189902D01*
X118657Y189907D01*
X118696Y189913D01*
X118745D01*
X118865Y189907D01*
D02*
G37*
G36*
X120443Y188444D02*
X120503Y188389D01*
X120568Y188340D01*
X120628Y188302D01*
X120688Y188269D01*
X120749Y188242D01*
X120852Y188198D01*
X120945Y188171D01*
X120983Y188165D01*
X121016Y188160D01*
X121043Y188155D01*
X121076D01*
X121169Y188160D01*
X121273Y188182D01*
X121377Y188209D01*
X121475Y188242D01*
X121562Y188275D01*
X121600Y188291D01*
X121633Y188302D01*
X121660Y188313D01*
X121682Y188324D01*
X121693Y188329D01*
X121699D01*
X121792Y188367D01*
X121873Y188395D01*
X121939Y188422D01*
X121994Y188438D01*
X122032Y188455D01*
X122064Y188466D01*
X122081Y188471D01*
X122086D01*
X122179Y188488D01*
X122223Y188493D01*
X122261D01*
X122294Y188498D01*
X122337D01*
X122425Y188493D01*
X122501Y188482D01*
X122578Y188466D01*
X122643Y188444D01*
X122698Y188428D01*
X122741Y188411D01*
X122769Y188400D01*
X122780Y188395D01*
X122856Y188351D01*
X122922Y188313D01*
X122976Y188275D01*
X123025Y188236D01*
X123064Y188204D01*
X123091Y188182D01*
X123107Y188165D01*
X123113Y188160D01*
Y187467D01*
X123042Y187532D01*
X122976Y187592D01*
X122911Y187636D01*
X122856Y187680D01*
X122807Y187707D01*
X122769Y187729D01*
X122747Y187740D01*
X122736Y187745D01*
X122670Y187772D01*
X122605Y187794D01*
X122550Y187805D01*
X122501Y187816D01*
X122463Y187821D01*
X122436Y187827D01*
X122408D01*
X122354Y187821D01*
X122283Y187805D01*
X122201Y187783D01*
X122119Y187756D01*
X122048Y187734D01*
X121988Y187712D01*
X121961Y187701D01*
X121944Y187696D01*
X121933Y187690D01*
X121928D01*
X121808Y187641D01*
X121704Y187603D01*
X121617Y187570D01*
X121551Y187548D01*
X121497Y187532D01*
X121464Y187521D01*
X121442Y187516D01*
X121437D01*
X121333Y187494D01*
X121284Y187488D01*
X121235D01*
X121196Y187483D01*
X121136D01*
X121054Y187488D01*
X120978Y187499D01*
X120902Y187516D01*
X120836Y187538D01*
X120705Y187592D01*
X120596Y187658D01*
X120547Y187690D01*
X120503Y187723D01*
X120465Y187750D01*
X120437Y187778D01*
X120410Y187800D01*
X120394Y187816D01*
X120383Y187827D01*
X120377Y187832D01*
Y188504D01*
X120443Y188444D01*
D02*
G37*
G36*
X115420Y189836D02*
X115556Y189831D01*
X115671Y189820D01*
X115764Y189804D01*
X115840Y189787D01*
X115900Y189776D01*
X115917Y189771D01*
X115933D01*
X115938Y189765D01*
X115944D01*
X116064Y189722D01*
X116173Y189672D01*
X116261Y189623D01*
X116337Y189574D01*
X116397Y189531D01*
X116441Y189498D01*
X116468Y189476D01*
X116479Y189465D01*
X116572Y189361D01*
X116654Y189252D01*
X116725Y189137D01*
X116779Y189034D01*
X116823Y188935D01*
X116845Y188897D01*
X116856Y188864D01*
X116867Y188832D01*
X116877Y188810D01*
X116883Y188799D01*
Y188793D01*
X116921Y188662D01*
X116954Y188526D01*
X116976Y188395D01*
X116987Y188269D01*
X116992Y188209D01*
X116998Y188155D01*
Y188111D01*
X117003Y188067D01*
Y188034D01*
Y188013D01*
Y187996D01*
Y187991D01*
X116998Y187800D01*
X116981Y187630D01*
X116976Y187548D01*
X116965Y187478D01*
X116954Y187407D01*
X116943Y187346D01*
X116927Y187292D01*
X116916Y187243D01*
X116905Y187199D01*
X116899Y187166D01*
X116888Y187139D01*
X116883Y187117D01*
X116877Y187106D01*
Y187101D01*
X116828Y186970D01*
X116768Y186850D01*
X116708Y186746D01*
X116648Y186659D01*
X116599Y186588D01*
X116555Y186533D01*
X116528Y186500D01*
X116523Y186489D01*
X116517D01*
X116424Y186402D01*
X116332Y186331D01*
X116233Y186271D01*
X116146Y186222D01*
X116069Y186184D01*
X116004Y186156D01*
X115982Y186151D01*
X115966Y186145D01*
X115955Y186140D01*
X115949D01*
X115846Y186112D01*
X115731Y186096D01*
X115611Y186080D01*
X115496Y186074D01*
X115392Y186069D01*
X115349Y186063D01*
X113842D01*
Y189842D01*
X115272D01*
X115420Y189836D01*
D02*
G37*
G36*
X119007Y169698D02*
X119105Y169687D01*
X119192Y169671D01*
X119280Y169649D01*
X119356Y169622D01*
X119433Y169594D01*
X119504Y169561D01*
X119564Y169529D01*
X119618Y169496D01*
X119673Y169463D01*
X119711Y169436D01*
X119749Y169409D01*
X119777Y169387D01*
X119799Y169370D01*
X119809Y169359D01*
X119815Y169354D01*
X119880Y169288D01*
X119935Y169217D01*
X119984Y169147D01*
X120028Y169076D01*
X120061Y168999D01*
X120093Y168928D01*
X120137Y168797D01*
X120148Y168737D01*
X120159Y168677D01*
X120170Y168628D01*
X120175Y168584D01*
X120181Y168551D01*
Y168524D01*
Y168508D01*
Y168502D01*
X120170Y168377D01*
X120148Y168267D01*
X120121Y168164D01*
X120082Y168082D01*
X120044Y168011D01*
X120017Y167962D01*
X119995Y167929D01*
X119984Y167918D01*
X119908Y167836D01*
X119820Y167765D01*
X119733Y167710D01*
X119651Y167667D01*
X119580Y167634D01*
X119520Y167618D01*
X119498Y167607D01*
X119482D01*
X119471Y167601D01*
X119465D01*
X119564Y167541D01*
X119646Y167481D01*
X119717Y167416D01*
X119782Y167350D01*
X119837Y167285D01*
X119880Y167219D01*
X119913Y167154D01*
X119946Y167094D01*
X119968Y167033D01*
X119984Y166979D01*
X119995Y166930D01*
X120001Y166886D01*
X120006Y166853D01*
X120011Y166826D01*
Y166810D01*
Y166804D01*
X120006Y166739D01*
X120001Y166679D01*
X119968Y166558D01*
X119930Y166449D01*
X119880Y166356D01*
X119831Y166280D01*
X119788Y166225D01*
X119771Y166203D01*
X119755Y166187D01*
X119749Y166182D01*
X119744Y166176D01*
X119684Y166116D01*
X119613Y166062D01*
X119547Y166018D01*
X119476Y165980D01*
X119400Y165941D01*
X119329Y165914D01*
X119192Y165876D01*
X119132Y165859D01*
X119072Y165849D01*
X119023Y165843D01*
X118974Y165838D01*
X118936Y165832D01*
X118887D01*
X118772Y165838D01*
X118668Y165849D01*
X118570Y165870D01*
X118488Y165892D01*
X118423Y165914D01*
X118368Y165936D01*
X118335Y165947D01*
X118330Y165952D01*
X118324D01*
X118237Y166001D01*
X118155Y166056D01*
X118089Y166111D01*
X118035Y166160D01*
X117991Y166209D01*
X117958Y166247D01*
X117937Y166269D01*
X117931Y166280D01*
X117882Y166362D01*
X117838Y166449D01*
X117806Y166542D01*
X117773Y166629D01*
X117751Y166711D01*
X117735Y166771D01*
X117729Y166799D01*
Y166815D01*
X117724Y166826D01*
Y166831D01*
X118390Y166941D01*
X118406Y166853D01*
X118428Y166777D01*
X118450Y166711D01*
X118477Y166662D01*
X118505Y166619D01*
X118526Y166586D01*
X118543Y166569D01*
X118548Y166564D01*
X118597Y166520D01*
X118652Y166487D01*
X118707Y166466D01*
X118756Y166449D01*
X118799Y166438D01*
X118832Y166433D01*
X118865D01*
X118930Y166438D01*
X118996Y166449D01*
X119045Y166471D01*
X119089Y166487D01*
X119127Y166509D01*
X119149Y166531D01*
X119165Y166542D01*
X119171Y166548D01*
X119209Y166591D01*
X119236Y166646D01*
X119258Y166695D01*
X119269Y166744D01*
X119280Y166788D01*
X119285Y166821D01*
Y166842D01*
Y166853D01*
X119280Y166935D01*
X119263Y167006D01*
X119236Y167066D01*
X119209Y167115D01*
X119176Y167159D01*
X119154Y167186D01*
X119132Y167208D01*
X119127Y167214D01*
X119061Y167257D01*
X118990Y167290D01*
X118914Y167312D01*
X118843Y167328D01*
X118778Y167334D01*
X118723Y167339D01*
X118674D01*
X118597Y167923D01*
X118668Y167907D01*
X118728Y167891D01*
X118788Y167880D01*
X118837Y167874D01*
X118876Y167869D01*
X118930D01*
X119007Y167874D01*
X119072Y167896D01*
X119132Y167918D01*
X119187Y167951D01*
X119225Y167978D01*
X119258Y168005D01*
X119280Y168027D01*
X119285Y168033D01*
X119334Y168098D01*
X119373Y168169D01*
X119400Y168240D01*
X119422Y168311D01*
X119433Y168377D01*
X119438Y168426D01*
Y168458D01*
Y168464D01*
Y168469D01*
X119433Y168573D01*
X119416Y168666D01*
X119389Y168748D01*
X119362Y168813D01*
X119329Y168862D01*
X119307Y168901D01*
X119285Y168928D01*
X119280Y168933D01*
X119220Y168988D01*
X119154Y169032D01*
X119094Y169059D01*
X119034Y169081D01*
X118980Y169092D01*
X118941Y169097D01*
X118914Y169103D01*
X118903D01*
X118827Y169097D01*
X118761Y169081D01*
X118701Y169059D01*
X118646Y169032D01*
X118608Y169010D01*
X118575Y168988D01*
X118554Y168972D01*
X118548Y168966D01*
X118499Y168906D01*
X118455Y168841D01*
X118428Y168770D01*
X118401Y168704D01*
X118384Y168644D01*
X118373Y168595D01*
X118368Y168562D01*
Y168557D01*
Y168551D01*
X117669Y168639D01*
X117680Y168726D01*
X117702Y168808D01*
X117751Y168961D01*
X117811Y169092D01*
X117849Y169147D01*
X117882Y169201D01*
X117915Y169250D01*
X117947Y169288D01*
X117975Y169327D01*
X118002Y169354D01*
X118024Y169376D01*
X118040Y169392D01*
X118051Y169403D01*
X118057Y169409D01*
X118122Y169458D01*
X118193Y169507D01*
X118259Y169545D01*
X118335Y169578D01*
X118477Y169632D01*
X118608Y169665D01*
X118674Y169676D01*
X118728Y169687D01*
X118778Y169693D01*
X118821Y169698D01*
X118859Y169703D01*
X118909D01*
X119007Y169698D01*
D02*
G37*
G36*
X120650Y168235D02*
X120710Y168180D01*
X120776Y168131D01*
X120836Y168093D01*
X120896Y168060D01*
X120956Y168033D01*
X121060Y167989D01*
X121153Y167962D01*
X121191Y167956D01*
X121223Y167951D01*
X121251Y167945D01*
X121284D01*
X121376Y167951D01*
X121480Y167973D01*
X121584Y168000D01*
X121682Y168033D01*
X121769Y168065D01*
X121808Y168082D01*
X121841Y168093D01*
X121868Y168104D01*
X121890Y168114D01*
X121901Y168120D01*
X121906D01*
X121999Y168158D01*
X122081Y168185D01*
X122146Y168213D01*
X122201Y168229D01*
X122239Y168246D01*
X122272Y168256D01*
X122288Y168262D01*
X122294D01*
X122387Y168278D01*
X122430Y168284D01*
X122468D01*
X122501Y168289D01*
X122545D01*
X122632Y168284D01*
X122709Y168273D01*
X122785Y168256D01*
X122851Y168235D01*
X122905Y168218D01*
X122949Y168202D01*
X122976Y168191D01*
X122987Y168185D01*
X123064Y168142D01*
X123129Y168104D01*
X123184Y168065D01*
X123233Y168027D01*
X123271Y167994D01*
X123298Y167973D01*
X123315Y167956D01*
X123320Y167951D01*
Y167257D01*
X123249Y167323D01*
X123184Y167383D01*
X123118Y167427D01*
X123064Y167470D01*
X123014Y167498D01*
X122976Y167519D01*
X122954Y167530D01*
X122943Y167536D01*
X122878Y167563D01*
X122812Y167585D01*
X122758Y167596D01*
X122709Y167607D01*
X122670Y167612D01*
X122643Y167618D01*
X122616D01*
X122561Y167612D01*
X122490Y167596D01*
X122408Y167574D01*
X122327Y167547D01*
X122256Y167525D01*
X122195Y167503D01*
X122168Y167492D01*
X122152Y167487D01*
X122141Y167481D01*
X122135D01*
X122015Y167432D01*
X121912Y167394D01*
X121824Y167361D01*
X121759Y167339D01*
X121704Y167323D01*
X121671Y167312D01*
X121649Y167306D01*
X121644D01*
X121540Y167285D01*
X121491Y167279D01*
X121442D01*
X121404Y167274D01*
X121344D01*
X121262Y167279D01*
X121185Y167290D01*
X121109Y167306D01*
X121043Y167328D01*
X120912Y167383D01*
X120803Y167448D01*
X120754Y167481D01*
X120710Y167514D01*
X120672Y167541D01*
X120645Y167569D01*
X120617Y167590D01*
X120601Y167607D01*
X120590Y167618D01*
X120585Y167623D01*
Y168295D01*
X120650Y168235D01*
D02*
G37*
G36*
X115627Y169627D02*
X115763Y169622D01*
X115878Y169611D01*
X115971Y169594D01*
X116048Y169578D01*
X116107Y169567D01*
X116124Y169561D01*
X116140D01*
X116146Y169556D01*
X116151D01*
X116271Y169512D01*
X116381Y169463D01*
X116468Y169414D01*
X116544Y169365D01*
X116604Y169321D01*
X116648Y169288D01*
X116675Y169267D01*
X116686Y169256D01*
X116779Y169152D01*
X116861Y169043D01*
X116932Y168928D01*
X116987Y168824D01*
X117030Y168726D01*
X117052Y168688D01*
X117063Y168655D01*
X117074Y168622D01*
X117085Y168600D01*
X117090Y168589D01*
Y168584D01*
X117129Y168453D01*
X117161Y168316D01*
X117183Y168185D01*
X117194Y168060D01*
X117200Y168000D01*
X117205Y167945D01*
Y167902D01*
X117210Y167858D01*
Y167825D01*
Y167803D01*
Y167787D01*
Y167781D01*
X117205Y167590D01*
X117189Y167421D01*
X117183Y167339D01*
X117172Y167268D01*
X117161Y167197D01*
X117150Y167137D01*
X117134Y167083D01*
X117123Y167033D01*
X117112Y166990D01*
X117107Y166957D01*
X117096Y166930D01*
X117090Y166908D01*
X117085Y166897D01*
Y166892D01*
X117036Y166760D01*
X116976Y166640D01*
X116916Y166537D01*
X116856Y166449D01*
X116806Y166378D01*
X116763Y166324D01*
X116735Y166291D01*
X116730Y166280D01*
X116725D01*
X116632Y166193D01*
X116539Y166122D01*
X116441Y166062D01*
X116353Y166012D01*
X116277Y165974D01*
X116211Y165947D01*
X116189Y165941D01*
X116173Y165936D01*
X116162Y165930D01*
X116157D01*
X116053Y165903D01*
X115938Y165887D01*
X115818Y165870D01*
X115703Y165865D01*
X115600Y165859D01*
X115556Y165854D01*
X114049D01*
Y169632D01*
X115480D01*
X115627Y169627D01*
D02*
G37*
G36*
X123810Y159087D02*
X122369D01*
X122412Y159016D01*
X122461Y158956D01*
X122483Y158928D01*
X122500Y158906D01*
X122511Y158896D01*
X122516Y158890D01*
X122538Y158868D01*
X122560Y158841D01*
X122625Y158781D01*
X122696Y158710D01*
X122767Y158639D01*
X122838Y158573D01*
X122898Y158519D01*
X122920Y158497D01*
X122936Y158481D01*
X122947Y158475D01*
X122953Y158470D01*
X123073Y158355D01*
X123171Y158262D01*
X123253Y158175D01*
X123319Y158109D01*
X123368Y158055D01*
X123401Y158017D01*
X123422Y157989D01*
X123428Y157984D01*
X123499Y157891D01*
X123559Y157804D01*
X123608Y157722D01*
X123646Y157651D01*
X123679Y157591D01*
X123701Y157542D01*
X123712Y157514D01*
X123717Y157503D01*
X123750Y157416D01*
X123772Y157329D01*
X123788Y157247D01*
X123799Y157170D01*
X123805Y157110D01*
X123810Y157061D01*
Y157028D01*
Y157017D01*
X123805Y156936D01*
X123794Y156854D01*
X123783Y156777D01*
X123761Y156706D01*
X123706Y156581D01*
X123652Y156471D01*
X123619Y156422D01*
X123592Y156384D01*
X123564Y156346D01*
X123537Y156318D01*
X123515Y156297D01*
X123504Y156275D01*
X123493Y156269D01*
X123488Y156264D01*
X123428Y156209D01*
X123357Y156160D01*
X123291Y156122D01*
X123215Y156089D01*
X123073Y156035D01*
X122931Y155996D01*
X122865Y155985D01*
X122805Y155974D01*
X122751Y155969D01*
X122702Y155964D01*
X122663Y155958D01*
X122609D01*
X122516Y155964D01*
X122429Y155969D01*
X122259Y155996D01*
X122117Y156040D01*
X122052Y156062D01*
X121992Y156089D01*
X121937Y156111D01*
X121894Y156138D01*
X121850Y156160D01*
X121817Y156176D01*
X121790Y156198D01*
X121774Y156209D01*
X121763Y156215D01*
X121757Y156220D01*
X121697Y156275D01*
X121642Y156329D01*
X121593Y156395D01*
X121550Y156466D01*
X121484Y156608D01*
X121430Y156744D01*
X121413Y156815D01*
X121397Y156875D01*
X121380Y156930D01*
X121375Y156979D01*
X121364Y157023D01*
Y157050D01*
X121359Y157072D01*
Y157077D01*
X122079Y157148D01*
X122090Y157039D01*
X122112Y156946D01*
X122134Y156865D01*
X122161Y156804D01*
X122183Y156755D01*
X122205Y156722D01*
X122221Y156701D01*
X122227Y156695D01*
X122281Y156652D01*
X122341Y156619D01*
X122401Y156591D01*
X122461Y156575D01*
X122511Y156564D01*
X122554Y156559D01*
X122592D01*
X122674Y156564D01*
X122745Y156581D01*
X122805Y156602D01*
X122860Y156624D01*
X122898Y156646D01*
X122931Y156668D01*
X122947Y156684D01*
X122953Y156690D01*
X122996Y156744D01*
X123029Y156804D01*
X123051Y156865D01*
X123067Y156925D01*
X123078Y156979D01*
X123084Y157028D01*
Y157056D01*
Y157061D01*
Y157067D01*
X123078Y157148D01*
X123062Y157225D01*
X123035Y157301D01*
X123007Y157367D01*
X122980Y157427D01*
X122953Y157471D01*
X122936Y157498D01*
X122931Y157509D01*
X122909Y157542D01*
X122876Y157580D01*
X122833Y157629D01*
X122789Y157673D01*
X122691Y157776D01*
X122592Y157880D01*
X122494Y157978D01*
X122450Y158022D01*
X122407Y158055D01*
X122374Y158088D01*
X122352Y158109D01*
X122336Y158126D01*
X122330Y158131D01*
X122221Y158235D01*
X122123Y158333D01*
X122030Y158426D01*
X121948Y158508D01*
X121872Y158590D01*
X121806Y158666D01*
X121746Y158732D01*
X121697Y158797D01*
X121653Y158852D01*
X121615Y158901D01*
X121582Y158939D01*
X121561Y158977D01*
X121539Y158999D01*
X121528Y159021D01*
X121517Y159032D01*
Y159038D01*
X121446Y159163D01*
X121391Y159294D01*
X121348Y159414D01*
X121315Y159523D01*
X121293Y159622D01*
X121288Y159660D01*
X121282Y159693D01*
X121277Y159720D01*
X121271Y159742D01*
Y159753D01*
Y159758D01*
X123810D01*
Y159087D01*
D02*
G37*
G36*
X119295Y159753D02*
X119431Y159747D01*
X119546Y159737D01*
X119639Y159720D01*
X119715Y159704D01*
X119775Y159693D01*
X119791Y159687D01*
X119808D01*
X119813Y159682D01*
X119819D01*
X119939Y159638D01*
X120048Y159589D01*
X120135Y159540D01*
X120212Y159491D01*
X120272Y159447D01*
X120316Y159414D01*
X120343Y159392D01*
X120354Y159382D01*
X120447Y159278D01*
X120529Y159169D01*
X120600Y159054D01*
X120654Y158950D01*
X120698Y158852D01*
X120720Y158814D01*
X120731Y158781D01*
X120741Y158748D01*
X120753Y158726D01*
X120758Y158715D01*
Y158710D01*
X120796Y158579D01*
X120829Y158442D01*
X120851Y158311D01*
X120862Y158186D01*
X120867Y158126D01*
X120873Y158071D01*
Y158028D01*
X120878Y157984D01*
Y157951D01*
Y157929D01*
Y157913D01*
Y157907D01*
X120873Y157716D01*
X120856Y157547D01*
X120851Y157465D01*
X120840Y157394D01*
X120829Y157323D01*
X120818Y157263D01*
X120802Y157209D01*
X120791Y157159D01*
X120780Y157116D01*
X120774Y157083D01*
X120763Y157056D01*
X120758Y157034D01*
X120753Y157023D01*
Y157017D01*
X120703Y156886D01*
X120643Y156766D01*
X120583Y156662D01*
X120523Y156575D01*
X120474Y156504D01*
X120430Y156449D01*
X120403Y156417D01*
X120398Y156406D01*
X120392D01*
X120299Y156318D01*
X120206Y156247D01*
X120108Y156187D01*
X120021Y156138D01*
X119944Y156100D01*
X119879Y156073D01*
X119857Y156067D01*
X119841Y156062D01*
X119830Y156056D01*
X119824D01*
X119720Y156029D01*
X119606Y156013D01*
X119486Y155996D01*
X119371Y155991D01*
X119267Y155985D01*
X119224Y155980D01*
X117717D01*
Y159758D01*
X119147D01*
X119295Y159753D01*
D02*
G37*
G36*
X114433Y149657D02*
X114597Y149635D01*
X114755Y149608D01*
X114892Y149575D01*
X114952Y149559D01*
X115006Y149543D01*
X115055Y149526D01*
X115099Y149515D01*
X115132Y149504D01*
X115154Y149493D01*
X115170Y149488D01*
X115175D01*
X115339Y149422D01*
X115476Y149352D01*
X115596Y149281D01*
X115700Y149220D01*
X115776Y149166D01*
X115803Y149144D01*
X115831Y149122D01*
X115847Y149106D01*
X115863Y149095D01*
X115874Y149084D01*
Y147566D01*
X114231D01*
Y148205D01*
X115104D01*
Y148691D01*
X115039Y148740D01*
X114968Y148784D01*
X114897Y148822D01*
X114831Y148855D01*
X114777Y148882D01*
X114728Y148904D01*
X114700Y148915D01*
X114695Y148920D01*
X114690D01*
X114602Y148953D01*
X114515Y148975D01*
X114433Y148991D01*
X114362Y149002D01*
X114296Y149007D01*
X114253Y149013D01*
X114209D01*
X114122Y149007D01*
X114034Y148997D01*
X113958Y148980D01*
X113881Y148958D01*
X113745Y148904D01*
X113690Y148876D01*
X113636Y148844D01*
X113587Y148811D01*
X113543Y148784D01*
X113510Y148751D01*
X113477Y148729D01*
X113455Y148707D01*
X113439Y148691D01*
X113428Y148680D01*
X113423Y148674D01*
X113374Y148609D01*
X113324Y148532D01*
X113286Y148456D01*
X113253Y148374D01*
X113199Y148205D01*
X113166Y148041D01*
X113155Y147965D01*
X113144Y147888D01*
X113139Y147828D01*
X113133Y147768D01*
X113128Y147724D01*
Y147686D01*
Y147664D01*
Y147659D01*
X113133Y147544D01*
X113139Y147441D01*
X113155Y147337D01*
X113172Y147244D01*
X113194Y147162D01*
X113221Y147086D01*
X113248Y147015D01*
X113275Y146949D01*
X113297Y146895D01*
X113324Y146845D01*
X113352Y146807D01*
X113374Y146774D01*
X113390Y146747D01*
X113406Y146731D01*
X113412Y146720D01*
X113417Y146714D01*
X113477Y146660D01*
X113537Y146605D01*
X113603Y146567D01*
X113669Y146529D01*
X113734Y146496D01*
X113800Y146469D01*
X113925Y146430D01*
X113985Y146419D01*
X114040Y146408D01*
X114089Y146403D01*
X114133Y146398D01*
X114165Y146392D01*
X114215D01*
X114335Y146398D01*
X114438Y146419D01*
X114531Y146441D01*
X114613Y146474D01*
X114673Y146501D01*
X114722Y146529D01*
X114750Y146551D01*
X114760Y146556D01*
X114837Y146622D01*
X114902Y146692D01*
X114957Y146763D01*
X114995Y146834D01*
X115028Y146900D01*
X115050Y146949D01*
X115061Y146982D01*
X115066Y146987D01*
Y146993D01*
X115825Y146851D01*
X115803Y146758D01*
X115771Y146665D01*
X115738Y146583D01*
X115694Y146507D01*
X115656Y146430D01*
X115612Y146365D01*
X115569Y146305D01*
X115525Y146250D01*
X115481Y146201D01*
X115443Y146157D01*
X115410Y146119D01*
X115377Y146092D01*
X115350Y146070D01*
X115328Y146048D01*
X115317Y146043D01*
X115312Y146037D01*
X115235Y145983D01*
X115154Y145939D01*
X115066Y145901D01*
X114973Y145868D01*
X114793Y145813D01*
X114619Y145781D01*
X114537Y145764D01*
X114460Y145759D01*
X114389Y145753D01*
X114329Y145748D01*
X114280Y145742D01*
X114215D01*
X114018Y145748D01*
X113843Y145770D01*
X113767Y145786D01*
X113690Y145802D01*
X113619Y145819D01*
X113559Y145835D01*
X113505Y145857D01*
X113450Y145873D01*
X113412Y145890D01*
X113374Y145901D01*
X113346Y145917D01*
X113324Y145923D01*
X113314Y145933D01*
X113308D01*
X113139Y146032D01*
X113068Y146092D01*
X112997Y146146D01*
X112931Y146206D01*
X112871Y146267D01*
X112817Y146327D01*
X112768Y146381D01*
X112729Y146436D01*
X112691Y146485D01*
X112658Y146529D01*
X112631Y146567D01*
X112615Y146600D01*
X112598Y146622D01*
X112593Y146638D01*
X112587Y146643D01*
X112544Y146731D01*
X112505Y146818D01*
X112445Y146998D01*
X112402Y147178D01*
X112374Y147337D01*
X112364Y147413D01*
X112353Y147479D01*
X112347Y147539D01*
Y147593D01*
X112342Y147632D01*
Y147664D01*
Y147686D01*
Y147692D01*
X112353Y147894D01*
X112374Y148079D01*
X112413Y148249D01*
X112429Y148330D01*
X112451Y148401D01*
X112473Y148467D01*
X112489Y148527D01*
X112511Y148576D01*
X112527Y148620D01*
X112538Y148653D01*
X112549Y148680D01*
X112560Y148696D01*
Y148702D01*
X112653Y148865D01*
X112757Y149007D01*
X112866Y149133D01*
X112975Y149231D01*
X113024Y149275D01*
X113073Y149313D01*
X113112Y149346D01*
X113150Y149368D01*
X113177Y149390D01*
X113204Y149406D01*
X113215Y149411D01*
X113221Y149417D01*
X113308Y149461D01*
X113390Y149499D01*
X113570Y149559D01*
X113745Y149603D01*
X113903Y149630D01*
X113980Y149641D01*
X114045Y149652D01*
X114105Y149657D01*
X114160D01*
X114198Y149663D01*
X114258D01*
X114433Y149657D01*
D02*
G37*
G36*
X119587Y145813D02*
X118883D01*
Y148358D01*
X117321Y145813D01*
X116584D01*
Y149592D01*
X117288D01*
Y147102D01*
X118823Y149592D01*
X119587D01*
Y145813D01*
D02*
G37*
G36*
X121973Y149586D02*
X122110Y149581D01*
X122224Y149570D01*
X122317Y149554D01*
X122394Y149537D01*
X122454Y149526D01*
X122470Y149521D01*
X122486D01*
X122492Y149515D01*
X122497D01*
X122617Y149472D01*
X122727Y149422D01*
X122814Y149373D01*
X122890Y149324D01*
X122950Y149281D01*
X122994Y149248D01*
X123021Y149226D01*
X123032Y149215D01*
X123125Y149111D01*
X123207Y149002D01*
X123278Y148887D01*
X123333Y148784D01*
X123376Y148685D01*
X123398Y148647D01*
X123409Y148614D01*
X123420Y148582D01*
X123431Y148560D01*
X123436Y148549D01*
Y148543D01*
X123475Y148412D01*
X123507Y148276D01*
X123529Y148145D01*
X123540Y148019D01*
X123546Y147959D01*
X123551Y147905D01*
Y147861D01*
X123556Y147817D01*
Y147784D01*
Y147763D01*
Y147746D01*
Y147741D01*
X123551Y147550D01*
X123535Y147380D01*
X123529Y147299D01*
X123518Y147228D01*
X123507Y147157D01*
X123496Y147097D01*
X123480Y147042D01*
X123469Y146993D01*
X123458Y146949D01*
X123453Y146916D01*
X123442Y146889D01*
X123436Y146867D01*
X123431Y146856D01*
Y146851D01*
X123382Y146720D01*
X123322Y146600D01*
X123262Y146496D01*
X123202Y146408D01*
X123152Y146337D01*
X123109Y146283D01*
X123082Y146250D01*
X123076Y146239D01*
X123071D01*
X122978Y146152D01*
X122885Y146081D01*
X122787Y146021D01*
X122699Y145972D01*
X122623Y145933D01*
X122557Y145906D01*
X122536Y145901D01*
X122519Y145895D01*
X122508Y145890D01*
X122503D01*
X122399Y145862D01*
X122284Y145846D01*
X122164Y145830D01*
X122050Y145824D01*
X121946Y145819D01*
X121902Y145813D01*
X120395D01*
Y149592D01*
X121826D01*
X121973Y149586D01*
D02*
G37*
G36*
X117231Y139145D02*
X117182Y139069D01*
X117133Y138992D01*
X117089Y138927D01*
X117045Y138867D01*
X117007Y138812D01*
X116974Y138758D01*
X116909Y138676D01*
X116860Y138610D01*
X116827Y138567D01*
X116800Y138539D01*
X116794Y138534D01*
X116734Y138468D01*
X116663Y138408D01*
X116598Y138359D01*
X116532Y138310D01*
X116478Y138272D01*
X116434Y138244D01*
X116401Y138223D01*
X116396Y138217D01*
X116390D01*
X116483Y138201D01*
X116565Y138179D01*
X116641Y138157D01*
X116718Y138130D01*
X116783Y138102D01*
X116843Y138075D01*
X116903Y138048D01*
X116953Y138015D01*
X116996Y137988D01*
X117035Y137961D01*
X117067Y137933D01*
X117089Y137911D01*
X117111Y137895D01*
X117127Y137879D01*
X117133Y137873D01*
X117138Y137868D01*
X117182Y137813D01*
X117220Y137759D01*
X117286Y137638D01*
X117329Y137524D01*
X117357Y137409D01*
X117378Y137311D01*
X117384Y137273D01*
Y137234D01*
X117390Y137207D01*
Y137180D01*
Y137169D01*
Y137163D01*
X117384Y137043D01*
X117362Y136928D01*
X117335Y136830D01*
X117308Y136743D01*
X117275Y136672D01*
X117247Y136617D01*
X117237Y136601D01*
X117226Y136585D01*
X117220Y136579D01*
Y136574D01*
X117155Y136481D01*
X117084Y136404D01*
X117013Y136344D01*
X116942Y136290D01*
X116876Y136257D01*
X116827Y136230D01*
X116794Y136213D01*
X116789Y136208D01*
X116783D01*
X116729Y136191D01*
X116669Y136175D01*
X116532Y136148D01*
X116385Y136131D01*
X116243Y136115D01*
X116172D01*
X116112Y136109D01*
X116052D01*
X116003Y136104D01*
X114299D01*
Y139882D01*
X115064D01*
Y138304D01*
X115309D01*
X115386Y138310D01*
X115451Y138315D01*
X115506Y138326D01*
X115549Y138332D01*
X115577Y138343D01*
X115593Y138348D01*
X115599D01*
X115642Y138370D01*
X115686Y138392D01*
X115724Y138419D01*
X115762Y138441D01*
X115790Y138468D01*
X115812Y138490D01*
X115822Y138501D01*
X115828Y138506D01*
X115850Y138534D01*
X115877Y138561D01*
X115937Y138643D01*
X116003Y138730D01*
X116074Y138829D01*
X116134Y138916D01*
X116161Y138960D01*
X116183Y138992D01*
X116205Y139020D01*
X116221Y139042D01*
X116226Y139058D01*
X116232Y139063D01*
X116778Y139882D01*
X117695D01*
X117231Y139145D01*
D02*
G37*
G36*
X123248Y136743D02*
X124362D01*
Y136104D01*
X121364D01*
Y136743D01*
X122484D01*
Y139882D01*
X123248D01*
Y136743D01*
D02*
G37*
G36*
X119639Y139948D02*
X119797Y139931D01*
X119939Y139910D01*
X119999Y139899D01*
X120059Y139882D01*
X120108Y139872D01*
X120152Y139861D01*
X120190Y139850D01*
X120223Y139839D01*
X120250Y139828D01*
X120267Y139822D01*
X120278Y139817D01*
X120283D01*
X120403Y139757D01*
X120502Y139691D01*
X120595Y139626D01*
X120666Y139555D01*
X120720Y139495D01*
X120764Y139440D01*
X120786Y139407D01*
X120797Y139402D01*
Y139397D01*
X120857Y139287D01*
X120906Y139183D01*
X120939Y139080D01*
X120960Y138981D01*
X120971Y138905D01*
X120977Y138867D01*
X120982Y138839D01*
Y138818D01*
Y138801D01*
Y138790D01*
Y138785D01*
X120977Y138654D01*
X120960Y138539D01*
X120933Y138435D01*
X120906Y138348D01*
X120878Y138277D01*
X120851Y138228D01*
X120835Y138195D01*
X120829Y138184D01*
X120769Y138097D01*
X120698Y138021D01*
X120627Y137955D01*
X120562Y137900D01*
X120502Y137857D01*
X120452Y137824D01*
X120420Y137802D01*
X120414Y137797D01*
X120409D01*
X120354Y137769D01*
X120300Y137742D01*
X120169Y137693D01*
X120032Y137649D01*
X119901Y137606D01*
X119841Y137589D01*
X119781Y137573D01*
X119726Y137556D01*
X119683Y137546D01*
X119644Y137535D01*
X119617Y137529D01*
X119595Y137524D01*
X119590D01*
X119492Y137496D01*
X119404Y137475D01*
X119322Y137453D01*
X119246Y137431D01*
X119186Y137409D01*
X119126Y137387D01*
X119077Y137365D01*
X119033Y137349D01*
X118995Y137333D01*
X118967Y137316D01*
X118940Y137305D01*
X118924Y137294D01*
X118896Y137278D01*
X118891Y137273D01*
X118853Y137234D01*
X118825Y137196D01*
X118809Y137158D01*
X118798Y137120D01*
X118787Y137092D01*
X118782Y137065D01*
Y137049D01*
Y137043D01*
X118787Y136989D01*
X118798Y136945D01*
X118820Y136901D01*
X118842Y136869D01*
X118864Y136841D01*
X118886Y136825D01*
X118896Y136814D01*
X118902Y136808D01*
X118978Y136759D01*
X119060Y136726D01*
X119148Y136699D01*
X119229Y136683D01*
X119300Y136672D01*
X119360Y136667D01*
X119415D01*
X119530Y136672D01*
X119628Y136688D01*
X119710Y136710D01*
X119775Y136732D01*
X119830Y136754D01*
X119868Y136776D01*
X119890Y136792D01*
X119896Y136797D01*
X119950Y136852D01*
X119999Y136918D01*
X120038Y136983D01*
X120065Y137054D01*
X120087Y137114D01*
X120098Y137163D01*
X120108Y137201D01*
Y137207D01*
Y137213D01*
X120873Y137185D01*
X120868Y137087D01*
X120851Y136999D01*
X120829Y136912D01*
X120802Y136836D01*
X120775Y136759D01*
X120742Y136688D01*
X120709Y136628D01*
X120676Y136568D01*
X120638Y136519D01*
X120605Y136475D01*
X120573Y136437D01*
X120545Y136404D01*
X120524Y136382D01*
X120507Y136366D01*
X120496Y136355D01*
X120491Y136350D01*
X120420Y136295D01*
X120343Y136246D01*
X120261Y136202D01*
X120174Y136164D01*
X120087Y136137D01*
X119999Y136109D01*
X119825Y136071D01*
X119743Y136060D01*
X119672Y136049D01*
X119601Y136044D01*
X119541Y136039D01*
X119492Y136033D01*
X119426D01*
X119268Y136039D01*
X119126Y136055D01*
X119000Y136077D01*
X118891Y136099D01*
X118842Y136115D01*
X118798Y136126D01*
X118765Y136137D01*
X118733Y136148D01*
X118711Y136159D01*
X118694Y136164D01*
X118684Y136170D01*
X118678D01*
X118569Y136224D01*
X118476Y136284D01*
X118394Y136350D01*
X118329Y136410D01*
X118274Y136464D01*
X118241Y136508D01*
X118214Y136541D01*
X118209Y136546D01*
Y136552D01*
X118154Y136645D01*
X118116Y136743D01*
X118088Y136836D01*
X118072Y136918D01*
X118061Y136989D01*
X118050Y137043D01*
Y137065D01*
Y137081D01*
Y137087D01*
Y137092D01*
X118056Y137174D01*
X118067Y137256D01*
X118083Y137327D01*
X118105Y137398D01*
X118159Y137529D01*
X118225Y137644D01*
X118252Y137693D01*
X118285Y137731D01*
X118312Y137769D01*
X118340Y137802D01*
X118361Y137824D01*
X118378Y137840D01*
X118389Y137851D01*
X118394Y137857D01*
X118443Y137895D01*
X118503Y137933D01*
X118563Y137971D01*
X118634Y138004D01*
X118771Y138070D01*
X118913Y138124D01*
X118984Y138146D01*
X119044Y138168D01*
X119104Y138184D01*
X119153Y138201D01*
X119191Y138212D01*
X119224Y138223D01*
X119246Y138228D01*
X119251D01*
X119339Y138250D01*
X119415Y138272D01*
X119486Y138288D01*
X119552Y138304D01*
X119606Y138321D01*
X119655Y138332D01*
X119699Y138348D01*
X119737Y138359D01*
X119770Y138365D01*
X119797Y138375D01*
X119835Y138386D01*
X119857Y138397D01*
X119863D01*
X119934Y138425D01*
X119988Y138452D01*
X120038Y138479D01*
X120076Y138506D01*
X120103Y138528D01*
X120120Y138545D01*
X120130Y138556D01*
X120136Y138561D01*
X120163Y138599D01*
X120185Y138637D01*
X120196Y138676D01*
X120207Y138708D01*
X120212Y138741D01*
X120218Y138769D01*
Y138785D01*
Y138790D01*
X120212Y138867D01*
X120190Y138932D01*
X120158Y138998D01*
X120125Y139052D01*
X120087Y139096D01*
X120059Y139129D01*
X120038Y139151D01*
X120027Y139156D01*
X119950Y139205D01*
X119863Y139244D01*
X119770Y139271D01*
X119683Y139287D01*
X119601Y139298D01*
X119535Y139309D01*
X119475D01*
X119350Y139304D01*
X119240Y139282D01*
X119148Y139254D01*
X119066Y139222D01*
X119000Y139189D01*
X118956Y139162D01*
X118929Y139140D01*
X118918Y139134D01*
X118847Y139058D01*
X118793Y138976D01*
X118744Y138883D01*
X118711Y138790D01*
X118684Y138708D01*
X118662Y138643D01*
X118656Y138621D01*
Y138599D01*
X118651Y138588D01*
Y138583D01*
X117908Y138654D01*
X117924Y138769D01*
X117946Y138878D01*
X117979Y138981D01*
X118006Y139074D01*
X118045Y139162D01*
X118083Y139244D01*
X118121Y139315D01*
X118159Y139380D01*
X118198Y139435D01*
X118236Y139484D01*
X118269Y139527D01*
X118301Y139566D01*
X118323Y139593D01*
X118345Y139609D01*
X118356Y139620D01*
X118361Y139626D01*
X118438Y139686D01*
X118520Y139735D01*
X118607Y139779D01*
X118700Y139817D01*
X118787Y139844D01*
X118880Y139872D01*
X119060Y139910D01*
X119142Y139926D01*
X119219Y139937D01*
X119284Y139943D01*
X119344Y139948D01*
X119393Y139953D01*
X119464D01*
X119639Y139948D01*
D02*
G37*
G36*
X119252Y129587D02*
X119388Y129582D01*
X119503Y129571D01*
X119596Y129554D01*
X119673Y129538D01*
X119732Y129527D01*
X119749Y129522D01*
X119765D01*
X119771Y129516D01*
X119776D01*
X119896Y129472D01*
X120006Y129423D01*
X120093Y129374D01*
X120169Y129325D01*
X120229Y129281D01*
X120273Y129249D01*
X120300Y129227D01*
X120311Y129216D01*
X120404Y129112D01*
X120486Y129003D01*
X120557Y128888D01*
X120612Y128785D01*
X120655Y128686D01*
X120677Y128648D01*
X120688Y128615D01*
X120699Y128583D01*
X120710Y128561D01*
X120715Y128550D01*
Y128544D01*
X120754Y128413D01*
X120786Y128277D01*
X120808Y128146D01*
X120819Y128020D01*
X120825Y127960D01*
X120830Y127905D01*
Y127862D01*
X120835Y127818D01*
Y127785D01*
Y127763D01*
Y127747D01*
Y127742D01*
X120830Y127551D01*
X120814Y127381D01*
X120808Y127299D01*
X120797Y127228D01*
X120786Y127157D01*
X120775Y127097D01*
X120759Y127043D01*
X120748Y126994D01*
X120737Y126950D01*
X120732Y126917D01*
X120721Y126890D01*
X120715Y126868D01*
X120710Y126857D01*
Y126852D01*
X120661Y126721D01*
X120601Y126601D01*
X120541Y126497D01*
X120481Y126409D01*
X120431Y126338D01*
X120388Y126284D01*
X120360Y126251D01*
X120355Y126240D01*
X120350D01*
X120257Y126153D01*
X120164Y126082D01*
X120066Y126022D01*
X119978Y125973D01*
X119902Y125934D01*
X119836Y125907D01*
X119814Y125902D01*
X119798Y125896D01*
X119787Y125891D01*
X119782D01*
X119678Y125863D01*
X119563Y125847D01*
X119443Y125831D01*
X119328Y125825D01*
X119225Y125820D01*
X119181Y125814D01*
X117674D01*
Y129593D01*
X119105D01*
X119252Y129587D01*
D02*
G37*
G36*
X122643Y129658D02*
X122736Y129647D01*
X122828Y129625D01*
X122910Y129604D01*
X122987Y129576D01*
X123058Y129543D01*
X123118Y129505D01*
X123178Y129467D01*
X123227Y129434D01*
X123276Y129396D01*
X123314Y129363D01*
X123347Y129336D01*
X123369Y129314D01*
X123385Y129292D01*
X123396Y129281D01*
X123402Y129276D01*
X123467Y129183D01*
X123522Y129074D01*
X123576Y128959D01*
X123615Y128834D01*
X123653Y128708D01*
X123680Y128583D01*
X123707Y128452D01*
X123729Y128326D01*
X123740Y128206D01*
X123751Y128097D01*
X123762Y127993D01*
X123767Y127905D01*
X123773Y127834D01*
Y127780D01*
Y127758D01*
Y127742D01*
Y127736D01*
Y127731D01*
X123767Y127534D01*
X123757Y127354D01*
X123740Y127190D01*
X123713Y127037D01*
X123686Y126895D01*
X123658Y126770D01*
X123620Y126655D01*
X123587Y126557D01*
X123555Y126464D01*
X123522Y126393D01*
X123489Y126328D01*
X123462Y126273D01*
X123434Y126235D01*
X123418Y126207D01*
X123407Y126191D01*
X123402Y126186D01*
X123342Y126115D01*
X123276Y126055D01*
X123205Y126005D01*
X123134Y125956D01*
X123063Y125918D01*
X122992Y125891D01*
X122927Y125863D01*
X122856Y125842D01*
X122790Y125825D01*
X122736Y125814D01*
X122681Y125803D01*
X122637Y125798D01*
X122599Y125792D01*
X122544D01*
X122446Y125798D01*
X122353Y125809D01*
X122260Y125831D01*
X122179Y125853D01*
X122102Y125885D01*
X122031Y125918D01*
X121971Y125951D01*
X121911Y125989D01*
X121862Y126027D01*
X121813Y126060D01*
X121775Y126093D01*
X121747Y126126D01*
X121720Y126147D01*
X121704Y126169D01*
X121693Y126180D01*
X121687Y126186D01*
X121622Y126278D01*
X121567Y126388D01*
X121518Y126502D01*
X121474Y126622D01*
X121441Y126748D01*
X121409Y126879D01*
X121387Y127005D01*
X121365Y127130D01*
X121354Y127250D01*
X121343Y127359D01*
X121332Y127463D01*
X121327Y127551D01*
X121321Y127621D01*
Y127676D01*
Y127698D01*
Y127714D01*
Y127720D01*
Y127725D01*
X121327Y127922D01*
X121338Y128102D01*
X121354Y128271D01*
X121376Y128424D01*
X121398Y128561D01*
X121425Y128686D01*
X121458Y128795D01*
X121491Y128894D01*
X121518Y128976D01*
X121551Y129052D01*
X121578Y129112D01*
X121605Y129161D01*
X121622Y129194D01*
X121638Y129221D01*
X121649Y129238D01*
X121654Y129243D01*
X121720Y129320D01*
X121791Y129380D01*
X121862Y129440D01*
X121938Y129483D01*
X122009Y129527D01*
X122086Y129560D01*
X122157Y129587D01*
X122228Y129609D01*
X122293Y129631D01*
X122353Y129642D01*
X122408Y129653D01*
X122452Y129658D01*
X122490D01*
X122523Y129664D01*
X122544D01*
X122643Y129658D01*
D02*
G37*
G36*
X123852Y115667D02*
X123302D01*
X123251Y115784D01*
X123184Y115892D01*
X123113Y115993D01*
X123041Y116075D01*
X122980Y116141D01*
X122924Y116192D01*
X122904Y116213D01*
X122889Y116228D01*
X122878Y116233D01*
X122873Y116238D01*
X122761Y116320D01*
X122654Y116391D01*
X122557Y116447D01*
X122470Y116488D01*
X122399Y116519D01*
X122348Y116544D01*
X122327Y116549D01*
X122312Y116554D01*
X122307Y116560D01*
X122302D01*
Y117172D01*
X122486Y117100D01*
X122649Y117024D01*
X122725Y116983D01*
X122797Y116937D01*
X122863Y116896D01*
X122924Y116855D01*
X122980Y116815D01*
X123031Y116779D01*
X123072Y116748D01*
X123108Y116718D01*
X123138Y116692D01*
X123159Y116677D01*
X123169Y116667D01*
X123174Y116662D01*
Y119217D01*
X123852D01*
Y115667D01*
D02*
G37*
G36*
X120191Y119212D02*
X120318Y119207D01*
X120425Y119196D01*
X120512Y119181D01*
X120583Y119166D01*
X120639Y119156D01*
X120655Y119150D01*
X120670D01*
X120675Y119145D01*
X120680D01*
X120792Y119105D01*
X120894Y119059D01*
X120976Y119013D01*
X121047Y118967D01*
X121104Y118926D01*
X121144Y118895D01*
X121170Y118875D01*
X121180Y118865D01*
X121267Y118768D01*
X121343Y118666D01*
X121409Y118559D01*
X121460Y118462D01*
X121501Y118370D01*
X121522Y118334D01*
X121532Y118304D01*
X121542Y118273D01*
X121552Y118253D01*
X121557Y118243D01*
Y118237D01*
X121593Y118115D01*
X121624Y117988D01*
X121644Y117865D01*
X121654Y117748D01*
X121659Y117692D01*
X121665Y117641D01*
Y117600D01*
X121670Y117559D01*
Y117529D01*
Y117508D01*
Y117493D01*
Y117488D01*
X121665Y117309D01*
X121649Y117151D01*
X121644Y117075D01*
X121634Y117008D01*
X121624Y116942D01*
X121614Y116886D01*
X121598Y116835D01*
X121588Y116789D01*
X121578Y116748D01*
X121573Y116718D01*
X121563Y116692D01*
X121557Y116672D01*
X121552Y116662D01*
Y116656D01*
X121506Y116534D01*
X121450Y116422D01*
X121394Y116325D01*
X121338Y116243D01*
X121292Y116177D01*
X121251Y116126D01*
X121226Y116095D01*
X121221Y116085D01*
X121216D01*
X121129Y116004D01*
X121042Y115937D01*
X120950Y115881D01*
X120869Y115835D01*
X120798Y115800D01*
X120736Y115774D01*
X120716Y115769D01*
X120701Y115764D01*
X120690Y115759D01*
X120685D01*
X120588Y115733D01*
X120481Y115718D01*
X120369Y115703D01*
X120262Y115698D01*
X120165Y115693D01*
X120124Y115688D01*
X118717D01*
Y119217D01*
X120053D01*
X120191Y119212D01*
D02*
G37*
%LPC*%
G36*
X81789Y129285D02*
X81117D01*
Y126785D01*
X81614D01*
X81685Y126790D01*
X81750D01*
X81805Y126795D01*
X81854D01*
X81903Y126801D01*
X81941D01*
X82002Y126812D01*
X82045Y126817D01*
X82073Y126823D01*
X82078D01*
X82154Y126845D01*
X82220Y126872D01*
X82280Y126899D01*
X82335Y126932D01*
X82373Y126959D01*
X82406Y126981D01*
X82422Y126997D01*
X82427Y127003D01*
X82477Y127058D01*
X82520Y127118D01*
X82558Y127178D01*
X82591Y127232D01*
X82613Y127287D01*
X82629Y127331D01*
X82640Y127358D01*
X82646Y127363D01*
Y127369D01*
X82673Y127467D01*
X82695Y127571D01*
X82706Y127685D01*
X82717Y127795D01*
X82722Y127887D01*
X82728Y127931D01*
Y127969D01*
Y127997D01*
Y128019D01*
Y128035D01*
Y128040D01*
X82722Y128193D01*
X82717Y128335D01*
X82700Y128450D01*
X82689Y128548D01*
X82673Y128630D01*
X82668Y128663D01*
X82657Y128685D01*
X82651Y128707D01*
Y128723D01*
X82646Y128728D01*
Y128734D01*
X82613Y128821D01*
X82586Y128898D01*
X82547Y128958D01*
X82520Y129007D01*
X82493Y129045D01*
X82471Y129072D01*
X82455Y129089D01*
X82449Y129094D01*
X82400Y129132D01*
X82351Y129165D01*
X82302Y129192D01*
X82253Y129214D01*
X82209Y129231D01*
X82176Y129242D01*
X82154Y129253D01*
X82143D01*
X82083Y129263D01*
X82012Y129269D01*
X81936Y129280D01*
X81860D01*
X81789Y129285D01*
D02*
G37*
G36*
X73056Y137829D02*
X72313D01*
Y136868D01*
X73187D01*
X73236Y136873D01*
X73356D01*
X73405Y136879D01*
X73438D01*
X73455Y136884D01*
X73460D01*
X73526Y136901D01*
X73586Y136923D01*
X73635Y136944D01*
X73673Y136972D01*
X73706Y136999D01*
X73733Y137015D01*
X73744Y137032D01*
X73750Y137037D01*
X73782Y137081D01*
X73809Y137135D01*
X73826Y137185D01*
X73842Y137234D01*
X73848Y137277D01*
X73853Y137310D01*
Y137332D01*
Y137343D01*
X73848Y137403D01*
X73842Y137458D01*
X73826Y137507D01*
X73815Y137550D01*
X73799Y137583D01*
X73782Y137605D01*
X73777Y137621D01*
X73771Y137627D01*
X73739Y137665D01*
X73706Y137698D01*
X73635Y137747D01*
X73607Y137763D01*
X73580Y137774D01*
X73564Y137785D01*
X73558D01*
X73531Y137791D01*
X73487Y137802D01*
X73444Y137807D01*
X73395Y137812D01*
X73280Y137818D01*
X73165Y137823D01*
X73056Y137829D01*
D02*
G37*
G36*
X74733Y158512D02*
X73690D01*
X74204Y157109D01*
X74733Y158512D01*
D02*
G37*
G36*
X74608Y168471D02*
X73565D01*
X74079Y167067D01*
X74608Y168471D01*
D02*
G37*
G36*
X77628Y169437D02*
X77595D01*
X77518Y169426D01*
X77447Y169404D01*
X77387Y169377D01*
X77333Y169339D01*
X77289Y169306D01*
X77251Y169273D01*
X77229Y169251D01*
X77223Y169246D01*
X77169Y169169D01*
X77131Y169082D01*
X77103Y168989D01*
X77087Y168902D01*
X77076Y168820D01*
X77065Y168760D01*
Y168733D01*
Y168716D01*
Y168705D01*
Y168700D01*
X77071Y168585D01*
X77087Y168487D01*
X77109Y168405D01*
X77136Y168334D01*
X77163Y168285D01*
X77185Y168247D01*
X77202Y168219D01*
X77207Y168214D01*
X77262Y168159D01*
X77322Y168116D01*
X77382Y168088D01*
X77437Y168067D01*
X77486Y168056D01*
X77529Y168045D01*
X77562D01*
X77639Y168050D01*
X77710Y168072D01*
X77770Y168099D01*
X77824Y168132D01*
X77868Y168165D01*
X77895Y168192D01*
X77917Y168214D01*
X77922Y168219D01*
X77972Y168290D01*
X78010Y168378D01*
X78032Y168471D01*
X78053Y168558D01*
X78064Y168640D01*
X78070Y168705D01*
Y168727D01*
Y168749D01*
Y168760D01*
Y168765D01*
X78064Y168891D01*
X78048Y169000D01*
X78026Y169088D01*
X78004Y169159D01*
X77977Y169213D01*
X77955Y169251D01*
X77939Y169279D01*
X77933Y169284D01*
X77879Y169333D01*
X77824Y169372D01*
X77764Y169399D01*
X77715Y169415D01*
X77666Y169426D01*
X77628Y169437D01*
D02*
G37*
G36*
X74483Y178512D02*
X73440D01*
X73954Y177109D01*
X74483Y178512D01*
D02*
G37*
G36*
X74691Y188347D02*
X73648D01*
X74161Y186943D01*
X74691Y188347D01*
D02*
G37*
G36*
X77759Y188450D02*
X76880D01*
X77759Y187151D01*
Y188450D01*
D02*
G37*
G36*
X74608Y198262D02*
X73565D01*
X74079Y196859D01*
X74608Y198262D01*
D02*
G37*
G36*
X74650Y208262D02*
X73607D01*
X74120Y206859D01*
X74650Y208262D01*
D02*
G37*
G36*
X74525Y218846D02*
X73482D01*
X73995Y217442D01*
X74525Y218846D01*
D02*
G37*
G36*
X75025Y229096D02*
X73982D01*
X74495Y227692D01*
X75025Y229096D01*
D02*
G37*
G36*
X77913Y230062D02*
X77891D01*
X77842Y230057D01*
X77799Y230051D01*
X77760Y230035D01*
X77728Y230018D01*
X77700Y230008D01*
X77678Y229991D01*
X77667Y229986D01*
X77662Y229980D01*
X77629Y229942D01*
X77596Y229893D01*
X77569Y229838D01*
X77542Y229784D01*
X77526Y229734D01*
X77509Y229691D01*
X77504Y229663D01*
X77498Y229653D01*
X77487Y229598D01*
X77476Y229538D01*
X77465Y229472D01*
X77460Y229401D01*
X77449Y229248D01*
X77444Y229096D01*
X77438Y229025D01*
Y228954D01*
X77433Y228894D01*
Y228839D01*
Y228795D01*
Y228757D01*
Y228735D01*
Y228730D01*
Y228610D01*
X77438Y228495D01*
Y228397D01*
X77444Y228298D01*
X77449Y228217D01*
X77455Y228135D01*
X77460Y228069D01*
X77471Y228004D01*
X77476Y227949D01*
X77482Y227905D01*
X77487Y227867D01*
X77493Y227834D01*
X77498Y227813D01*
Y227791D01*
X77504Y227785D01*
Y227780D01*
X77526Y227703D01*
X77553Y227638D01*
X77575Y227589D01*
X77602Y227545D01*
X77624Y227518D01*
X77640Y227496D01*
X77651Y227485D01*
X77657Y227480D01*
X77695Y227452D01*
X77738Y227430D01*
X77777Y227414D01*
X77815Y227403D01*
X77842Y227398D01*
X77869Y227392D01*
X77891D01*
X77940Y227398D01*
X77984Y227403D01*
X78022Y227419D01*
X78055Y227436D01*
X78083Y227452D01*
X78104Y227463D01*
X78115Y227474D01*
X78121Y227480D01*
X78154Y227518D01*
X78186Y227567D01*
X78214Y227622D01*
X78241Y227676D01*
X78257Y227731D01*
X78274Y227774D01*
X78279Y227802D01*
X78285Y227807D01*
Y227813D01*
X78295Y227862D01*
X78306Y227922D01*
X78317Y227993D01*
X78328Y228064D01*
X78339Y228211D01*
X78345Y228364D01*
X78350Y228435D01*
Y228506D01*
X78355Y228566D01*
Y228621D01*
Y228664D01*
Y228702D01*
Y228724D01*
Y228730D01*
Y228850D01*
X78350Y228965D01*
Y229068D01*
X78345Y229161D01*
X78339Y229248D01*
X78334Y229325D01*
X78323Y229396D01*
X78317Y229456D01*
X78312Y229511D01*
X78301Y229554D01*
X78295Y229592D01*
X78290Y229625D01*
X78285Y229647D01*
Y229669D01*
X78279Y229674D01*
Y229680D01*
X78257Y229756D01*
X78230Y229816D01*
X78203Y229871D01*
X78181Y229909D01*
X78159Y229942D01*
X78137Y229964D01*
X78126Y229975D01*
X78121Y229980D01*
X78083Y230008D01*
X78044Y230029D01*
X78006Y230040D01*
X77968Y230051D01*
X77940Y230057D01*
X77913Y230062D01*
D02*
G37*
G36*
X74650Y239012D02*
X73607D01*
X74120Y237609D01*
X74650Y239012D01*
D02*
G37*
G36*
X77964Y238330D02*
X77221D01*
Y237369D01*
X78095D01*
X78144Y237374D01*
X78264D01*
X78313Y237380D01*
X78346D01*
X78363Y237385D01*
X78368D01*
X78434Y237402D01*
X78494Y237423D01*
X78543Y237445D01*
X78581Y237473D01*
X78614Y237500D01*
X78641Y237516D01*
X78652Y237533D01*
X78657Y237538D01*
X78690Y237582D01*
X78717Y237636D01*
X78734Y237685D01*
X78750Y237735D01*
X78756Y237778D01*
X78761Y237811D01*
Y237833D01*
Y237844D01*
X78756Y237904D01*
X78750Y237959D01*
X78734Y238008D01*
X78723Y238051D01*
X78707Y238084D01*
X78690Y238106D01*
X78685Y238122D01*
X78679Y238128D01*
X78646Y238166D01*
X78614Y238199D01*
X78543Y238248D01*
X78515Y238264D01*
X78488Y238275D01*
X78472Y238286D01*
X78466D01*
X78439Y238292D01*
X78395Y238302D01*
X78352Y238308D01*
X78303Y238313D01*
X78188Y238319D01*
X78073Y238324D01*
X77964Y238330D01*
D02*
G37*
G36*
X73819Y259245D02*
X73148D01*
Y256744D01*
X73645D01*
X73716Y256749D01*
X73781D01*
X73836Y256755D01*
X73885D01*
X73934Y256760D01*
X73972D01*
X74032Y256771D01*
X74076Y256777D01*
X74103Y256782D01*
X74109D01*
X74185Y256804D01*
X74251Y256831D01*
X74311Y256859D01*
X74365Y256891D01*
X74404Y256919D01*
X74436Y256941D01*
X74453Y256957D01*
X74458Y256962D01*
X74507Y257017D01*
X74551Y257077D01*
X74589Y257137D01*
X74622Y257192D01*
X74644Y257246D01*
X74660Y257290D01*
X74671Y257317D01*
X74677Y257323D01*
Y257328D01*
X74704Y257426D01*
X74726Y257530D01*
X74737Y257645D01*
X74748Y257754D01*
X74753Y257847D01*
X74758Y257891D01*
Y257929D01*
Y257956D01*
Y257978D01*
Y257994D01*
Y258000D01*
X74753Y258153D01*
X74748Y258295D01*
X74731Y258409D01*
X74720Y258507D01*
X74704Y258589D01*
X74698Y258622D01*
X74687Y258644D01*
X74682Y258666D01*
Y258682D01*
X74677Y258688D01*
Y258693D01*
X74644Y258781D01*
X74616Y258857D01*
X74578Y258917D01*
X74551Y258966D01*
X74524Y259004D01*
X74502Y259032D01*
X74485Y259048D01*
X74480Y259053D01*
X74431Y259092D01*
X74382Y259124D01*
X74333Y259152D01*
X74283Y259174D01*
X74240Y259190D01*
X74207Y259201D01*
X74185Y259212D01*
X74174D01*
X74114Y259223D01*
X74043Y259228D01*
X73967Y259239D01*
X73890D01*
X73819Y259245D01*
D02*
G37*
G36*
X116235Y259160D02*
X115563D01*
Y256660D01*
X116060D01*
X116131Y256665D01*
X116197D01*
X116252Y256670D01*
X116301D01*
X116350Y256676D01*
X116388D01*
X116448Y256687D01*
X116492Y256692D01*
X116519Y256698D01*
X116525D01*
X116601Y256720D01*
X116666Y256747D01*
X116727Y256774D01*
X116781Y256807D01*
X116819Y256834D01*
X116852Y256856D01*
X116868Y256873D01*
X116874Y256878D01*
X116923Y256933D01*
X116967Y256993D01*
X117005Y257053D01*
X117038Y257107D01*
X117060Y257162D01*
X117076Y257206D01*
X117087Y257233D01*
X117092Y257238D01*
Y257244D01*
X117120Y257342D01*
X117141Y257446D01*
X117152Y257560D01*
X117163Y257670D01*
X117169Y257763D01*
X117174Y257806D01*
Y257844D01*
Y257872D01*
Y257894D01*
Y257910D01*
Y257915D01*
X117169Y258068D01*
X117163Y258210D01*
X117147Y258325D01*
X117136Y258423D01*
X117120Y258505D01*
X117114Y258538D01*
X117103Y258560D01*
X117098Y258581D01*
Y258598D01*
X117092Y258603D01*
Y258609D01*
X117060Y258696D01*
X117032Y258773D01*
X116994Y258833D01*
X116967Y258882D01*
X116939Y258920D01*
X116918Y258947D01*
X116901Y258964D01*
X116896Y258969D01*
X116847Y259007D01*
X116797Y259040D01*
X116748Y259068D01*
X116699Y259089D01*
X116656Y259106D01*
X116623Y259117D01*
X116601Y259127D01*
X116590D01*
X116530Y259138D01*
X116459Y259144D01*
X116383Y259155D01*
X116306D01*
X116235Y259160D01*
D02*
G37*
G36*
X112653Y249244D02*
X111981D01*
Y246744D01*
X112478D01*
X112549Y246749D01*
X112615D01*
X112669Y246755D01*
X112718D01*
X112767Y246760D01*
X112806D01*
X112866Y246771D01*
X112909Y246777D01*
X112937Y246782D01*
X112942D01*
X113019Y246804D01*
X113084Y246831D01*
X113144Y246859D01*
X113199Y246891D01*
X113237Y246919D01*
X113270Y246940D01*
X113286Y246957D01*
X113292Y246962D01*
X113341Y247017D01*
X113384Y247077D01*
X113423Y247137D01*
X113455Y247192D01*
X113477Y247246D01*
X113494Y247290D01*
X113504Y247317D01*
X113510Y247323D01*
Y247328D01*
X113537Y247426D01*
X113559Y247530D01*
X113570Y247645D01*
X113581Y247754D01*
X113586Y247847D01*
X113592Y247890D01*
Y247929D01*
Y247956D01*
Y247978D01*
Y247994D01*
Y248000D01*
X113586Y248152D01*
X113581Y248294D01*
X113565Y248409D01*
X113554Y248507D01*
X113537Y248589D01*
X113532Y248622D01*
X113521Y248644D01*
X113515Y248666D01*
Y248682D01*
X113510Y248688D01*
Y248693D01*
X113477Y248780D01*
X113450Y248857D01*
X113412Y248917D01*
X113384Y248966D01*
X113357Y249004D01*
X113335Y249031D01*
X113319Y249048D01*
X113313Y249053D01*
X113264Y249092D01*
X113215Y249124D01*
X113166Y249152D01*
X113117Y249173D01*
X113073Y249190D01*
X113040Y249201D01*
X113019Y249212D01*
X113008D01*
X112947Y249223D01*
X112876Y249228D01*
X112800Y249239D01*
X112724D01*
X112653Y249244D01*
D02*
G37*
G36*
X112902Y239160D02*
X112230D01*
Y236660D01*
X112727D01*
X112798Y236665D01*
X112864D01*
X112918Y236670D01*
X112967D01*
X113016Y236676D01*
X113055D01*
X113115Y236687D01*
X113158Y236692D01*
X113186Y236698D01*
X113191D01*
X113268Y236720D01*
X113333Y236747D01*
X113393Y236774D01*
X113448Y236807D01*
X113486Y236834D01*
X113519Y236856D01*
X113535Y236873D01*
X113540Y236878D01*
X113590Y236933D01*
X113633Y236993D01*
X113672Y237053D01*
X113704Y237107D01*
X113726Y237162D01*
X113742Y237206D01*
X113753Y237233D01*
X113759Y237238D01*
Y237244D01*
X113786Y237342D01*
X113808Y237446D01*
X113819Y237561D01*
X113830Y237670D01*
X113835Y237762D01*
X113841Y237806D01*
Y237844D01*
Y237872D01*
Y237894D01*
Y237910D01*
Y237915D01*
X113835Y238068D01*
X113830Y238210D01*
X113813Y238325D01*
X113803Y238423D01*
X113786Y238505D01*
X113781Y238538D01*
X113770Y238560D01*
X113764Y238581D01*
Y238598D01*
X113759Y238603D01*
Y238609D01*
X113726Y238696D01*
X113699Y238773D01*
X113661Y238833D01*
X113633Y238882D01*
X113606Y238920D01*
X113584Y238947D01*
X113568Y238964D01*
X113562Y238969D01*
X113513Y239007D01*
X113464Y239040D01*
X113415Y239068D01*
X113366Y239089D01*
X113322Y239106D01*
X113289Y239117D01*
X113268Y239127D01*
X113257D01*
X113197Y239138D01*
X113126Y239144D01*
X113049Y239155D01*
X112973D01*
X112902Y239160D01*
D02*
G37*
G36*
X119295Y239269D02*
X119273D01*
X119224Y239264D01*
X119181Y239259D01*
X119142Y239242D01*
X119110Y239226D01*
X119082Y239215D01*
X119061Y239198D01*
X119050Y239193D01*
X119044Y239188D01*
X119011Y239149D01*
X118979Y239100D01*
X118951Y239046D01*
X118924Y238991D01*
X118908Y238942D01*
X118891Y238898D01*
X118886Y238871D01*
X118880Y238860D01*
X118869Y238805D01*
X118859Y238745D01*
X118848Y238680D01*
X118842Y238609D01*
X118831Y238456D01*
X118826Y238303D01*
X118820Y238232D01*
Y238161D01*
X118815Y238101D01*
Y238046D01*
Y238003D01*
Y237965D01*
Y237943D01*
Y237937D01*
Y237817D01*
X118820Y237702D01*
Y237604D01*
X118826Y237506D01*
X118831Y237424D01*
X118837Y237342D01*
X118842Y237277D01*
X118853Y237211D01*
X118859Y237157D01*
X118864Y237113D01*
X118869Y237075D01*
X118875Y237042D01*
X118880Y237020D01*
Y236998D01*
X118886Y236993D01*
Y236987D01*
X118908Y236911D01*
X118935Y236845D01*
X118957Y236796D01*
X118984Y236752D01*
X119006Y236725D01*
X119022Y236703D01*
X119033Y236692D01*
X119039Y236687D01*
X119077Y236660D01*
X119121Y236638D01*
X119159Y236621D01*
X119197Y236611D01*
X119224Y236605D01*
X119252Y236599D01*
X119273D01*
X119323Y236605D01*
X119366Y236611D01*
X119404Y236627D01*
X119437Y236643D01*
X119465Y236660D01*
X119486Y236670D01*
X119497Y236681D01*
X119503Y236687D01*
X119536Y236725D01*
X119568Y236774D01*
X119596Y236829D01*
X119623Y236883D01*
X119639Y236938D01*
X119656Y236982D01*
X119661Y237009D01*
X119667Y237015D01*
Y237020D01*
X119677Y237069D01*
X119688Y237129D01*
X119699Y237200D01*
X119710Y237271D01*
X119721Y237419D01*
X119727Y237571D01*
X119732Y237642D01*
Y237713D01*
X119738Y237773D01*
Y237828D01*
Y237872D01*
Y237910D01*
Y237932D01*
Y237937D01*
Y238057D01*
X119732Y238172D01*
Y238276D01*
X119727Y238369D01*
X119721Y238456D01*
X119716Y238532D01*
X119705Y238603D01*
X119699Y238663D01*
X119694Y238718D01*
X119683Y238762D01*
X119677Y238800D01*
X119672Y238833D01*
X119667Y238855D01*
Y238876D01*
X119661Y238882D01*
Y238887D01*
X119639Y238964D01*
X119612Y239024D01*
X119585Y239078D01*
X119563Y239117D01*
X119541Y239149D01*
X119519Y239171D01*
X119508Y239182D01*
X119503Y239188D01*
X119465Y239215D01*
X119426Y239237D01*
X119388Y239248D01*
X119350Y239259D01*
X119323Y239264D01*
X119295Y239269D01*
D02*
G37*
G36*
X118990Y227916D02*
X118979D01*
X118903Y227910D01*
X118832Y227888D01*
X118771Y227861D01*
X118717Y227828D01*
X118673Y227801D01*
X118646Y227774D01*
X118624Y227752D01*
X118619Y227747D01*
X118569Y227676D01*
X118537Y227588D01*
X118509Y227501D01*
X118493Y227408D01*
X118482Y227332D01*
X118477Y227266D01*
Y227239D01*
Y227222D01*
Y227211D01*
Y227206D01*
X118482Y227080D01*
X118498Y226971D01*
X118520Y226878D01*
X118542Y226807D01*
X118564Y226753D01*
X118586Y226715D01*
X118602Y226687D01*
X118608Y226682D01*
X118662Y226627D01*
X118717Y226589D01*
X118771Y226556D01*
X118826Y226540D01*
X118870Y226529D01*
X118908Y226518D01*
X118941D01*
X119017Y226529D01*
X119088Y226551D01*
X119154Y226578D01*
X119208Y226616D01*
X119252Y226655D01*
X119285Y226682D01*
X119307Y226704D01*
X119312Y226715D01*
X119367Y226797D01*
X119405Y226884D01*
X119438Y226977D01*
X119454Y227064D01*
X119465Y227146D01*
X119476Y227206D01*
Y227233D01*
Y227250D01*
Y227261D01*
Y227266D01*
X119470Y227381D01*
X119454Y227479D01*
X119427Y227561D01*
X119405Y227632D01*
X119378Y227681D01*
X119350Y227719D01*
X119334Y227747D01*
X119328Y227752D01*
X119274Y227807D01*
X119214Y227845D01*
X119154Y227878D01*
X119099Y227894D01*
X119050Y227905D01*
X119012Y227910D01*
X118990Y227916D01*
D02*
G37*
G36*
X115610Y229079D02*
X114938D01*
Y226578D01*
X115435D01*
X115506Y226584D01*
X115572D01*
X115627Y226589D01*
X115676D01*
X115725Y226594D01*
X115763D01*
X115823Y226605D01*
X115867Y226611D01*
X115894Y226616D01*
X115900D01*
X115976Y226638D01*
X116041Y226665D01*
X116102Y226693D01*
X116156Y226726D01*
X116194Y226753D01*
X116227Y226775D01*
X116243Y226791D01*
X116249Y226797D01*
X116298Y226851D01*
X116342Y226911D01*
X116380Y226971D01*
X116413Y227026D01*
X116435Y227080D01*
X116451Y227124D01*
X116462Y227151D01*
X116467Y227157D01*
Y227162D01*
X116495Y227261D01*
X116516Y227364D01*
X116527Y227479D01*
X116538Y227588D01*
X116544Y227681D01*
X116549Y227725D01*
Y227763D01*
Y227790D01*
Y227812D01*
Y227828D01*
Y227834D01*
X116544Y227987D01*
X116538Y228129D01*
X116522Y228243D01*
X116511Y228342D01*
X116495Y228424D01*
X116489Y228456D01*
X116478Y228478D01*
X116473Y228500D01*
Y228516D01*
X116467Y228522D01*
Y228527D01*
X116435Y228615D01*
X116407Y228691D01*
X116369Y228751D01*
X116342Y228800D01*
X116314Y228838D01*
X116293Y228866D01*
X116276Y228882D01*
X116271Y228888D01*
X116222Y228926D01*
X116173Y228959D01*
X116123Y228986D01*
X116074Y229008D01*
X116031Y229024D01*
X115998Y229035D01*
X115976Y229046D01*
X115965D01*
X115905Y229057D01*
X115834Y229062D01*
X115758Y229073D01*
X115681D01*
X115610Y229079D01*
D02*
G37*
G36*
X119235Y219035D02*
X118563D01*
Y216535D01*
X119060D01*
X119131Y216540D01*
X119197D01*
X119252Y216546D01*
X119301D01*
X119350Y216551D01*
X119388D01*
X119448Y216562D01*
X119492Y216567D01*
X119519Y216573D01*
X119525D01*
X119601Y216595D01*
X119666Y216622D01*
X119727Y216649D01*
X119781Y216682D01*
X119819Y216709D01*
X119852Y216731D01*
X119868Y216747D01*
X119874Y216753D01*
X119923Y216808D01*
X119967Y216868D01*
X120005Y216928D01*
X120038Y216982D01*
X120060Y217037D01*
X120076Y217081D01*
X120087Y217108D01*
X120092Y217113D01*
Y217119D01*
X120120Y217217D01*
X120141Y217321D01*
X120152Y217436D01*
X120163Y217545D01*
X120169Y217637D01*
X120174Y217681D01*
Y217719D01*
Y217747D01*
Y217769D01*
Y217785D01*
Y217790D01*
X120169Y217943D01*
X120163Y218085D01*
X120147Y218200D01*
X120136Y218298D01*
X120120Y218380D01*
X120114Y218413D01*
X120103Y218435D01*
X120098Y218457D01*
Y218473D01*
X120092Y218478D01*
Y218484D01*
X120060Y218571D01*
X120032Y218648D01*
X119994Y218708D01*
X119967Y218757D01*
X119939Y218795D01*
X119918Y218822D01*
X119901Y218839D01*
X119896Y218844D01*
X119847Y218882D01*
X119798Y218915D01*
X119748Y218942D01*
X119699Y218964D01*
X119656Y218981D01*
X119623Y218992D01*
X119601Y219003D01*
X119590D01*
X119530Y219013D01*
X119459Y219019D01*
X119383Y219030D01*
X119306D01*
X119235Y219035D01*
D02*
G37*
G36*
X122724Y219161D02*
X122686D01*
X122604Y219155D01*
X122528Y219134D01*
X122462Y219106D01*
X122407Y219079D01*
X122364Y219046D01*
X122331Y219024D01*
X122309Y219003D01*
X122304Y218997D01*
X122255Y218926D01*
X122216Y218850D01*
X122189Y218773D01*
X122173Y218697D01*
X122162Y218626D01*
X122151Y218571D01*
Y218549D01*
Y218533D01*
Y218528D01*
Y218522D01*
X122156Y218446D01*
X122173Y218369D01*
X122189Y218304D01*
X122216Y218244D01*
X122238Y218194D01*
X122255Y218156D01*
X122271Y218134D01*
X122276Y218124D01*
X122331Y218063D01*
X122396Y218014D01*
X122462Y217982D01*
X122528Y217960D01*
X122582Y217949D01*
X122631Y217938D01*
X122675D01*
X122757Y217943D01*
X122833Y217965D01*
X122899Y217987D01*
X122953Y218020D01*
X122997Y218047D01*
X123030Y218074D01*
X123052Y218096D01*
X123057Y218102D01*
X123106Y218167D01*
X123144Y218238D01*
X123172Y218309D01*
X123194Y218380D01*
X123205Y218440D01*
X123210Y218489D01*
Y218522D01*
Y218528D01*
Y218533D01*
X123205Y218642D01*
X123188Y218735D01*
X123161Y218817D01*
X123134Y218882D01*
X123106Y218937D01*
X123079Y218970D01*
X123063Y218997D01*
X123057Y219003D01*
X122997Y219057D01*
X122937Y219095D01*
X122877Y219123D01*
X122817Y219139D01*
X122762Y219150D01*
X122724Y219161D01*
D02*
G37*
G36*
X122697Y217365D02*
X122664D01*
X122593Y217359D01*
X122528Y217348D01*
X122473Y217326D01*
X122424Y217304D01*
X122386Y217283D01*
X122358Y217261D01*
X122342Y217250D01*
X122336Y217244D01*
X122298Y217195D01*
X122265Y217141D01*
X122243Y217086D01*
X122233Y217032D01*
X122222Y216982D01*
X122216Y216944D01*
Y216917D01*
Y216906D01*
X122222Y216829D01*
X122233Y216764D01*
X122255Y216709D01*
X122276Y216660D01*
X122298Y216622D01*
X122320Y216595D01*
X122331Y216578D01*
X122336Y216573D01*
X122386Y216529D01*
X122440Y216502D01*
X122495Y216480D01*
X122549Y216464D01*
X122598Y216453D01*
X122637Y216447D01*
X122669D01*
X122740Y216453D01*
X122806Y216469D01*
X122861Y216486D01*
X122910Y216507D01*
X122948Y216535D01*
X122975Y216551D01*
X122992Y216567D01*
X122997Y216573D01*
X123041Y216622D01*
X123068Y216677D01*
X123090Y216731D01*
X123106Y216786D01*
X123117Y216829D01*
X123123Y216868D01*
Y216890D01*
Y216900D01*
X123117Y216977D01*
X123101Y217048D01*
X123084Y217102D01*
X123063Y217152D01*
X123035Y217195D01*
X123019Y217223D01*
X123003Y217239D01*
X122997Y217244D01*
X122948Y217283D01*
X122893Y217315D01*
X122839Y217337D01*
X122784Y217348D01*
X122735Y217359D01*
X122697Y217365D01*
D02*
G37*
G36*
X119153Y208995D02*
X118481D01*
Y206494D01*
X118978D01*
X119049Y206499D01*
X119114D01*
X119169Y206505D01*
X119218D01*
X119267Y206510D01*
X119306D01*
X119366Y206521D01*
X119409Y206527D01*
X119437Y206532D01*
X119442D01*
X119518Y206554D01*
X119584Y206581D01*
X119644Y206609D01*
X119699Y206641D01*
X119737Y206668D01*
X119770Y206690D01*
X119786Y206707D01*
X119791Y206712D01*
X119841Y206767D01*
X119884Y206827D01*
X119922Y206887D01*
X119955Y206942D01*
X119977Y206996D01*
X119993Y207040D01*
X120004Y207067D01*
X120010Y207073D01*
Y207078D01*
X120037Y207176D01*
X120059Y207280D01*
X120070Y207395D01*
X120081Y207504D01*
X120086Y207597D01*
X120092Y207640D01*
Y207679D01*
Y207706D01*
Y207728D01*
Y207744D01*
Y207750D01*
X120086Y207903D01*
X120081Y208044D01*
X120064Y208159D01*
X120054Y208257D01*
X120037Y208339D01*
X120032Y208372D01*
X120021Y208394D01*
X120015Y208416D01*
Y208432D01*
X120010Y208438D01*
Y208443D01*
X119977Y208530D01*
X119950Y208607D01*
X119912Y208667D01*
X119884Y208716D01*
X119857Y208754D01*
X119835Y208782D01*
X119819Y208798D01*
X119813Y208803D01*
X119764Y208842D01*
X119715Y208874D01*
X119666Y208902D01*
X119617Y208924D01*
X119573Y208940D01*
X119540Y208951D01*
X119518Y208962D01*
X119508D01*
X119448Y208973D01*
X119377Y208978D01*
X119300Y208989D01*
X119224D01*
X119153Y208995D01*
D02*
G37*
G36*
X119115Y199062D02*
X119082D01*
X119006Y199051D01*
X118935Y199029D01*
X118875Y199002D01*
X118820Y198964D01*
X118776Y198931D01*
X118738Y198898D01*
X118716Y198876D01*
X118711Y198871D01*
X118656Y198794D01*
X118618Y198707D01*
X118591Y198614D01*
X118574Y198527D01*
X118563Y198445D01*
X118552Y198385D01*
Y198358D01*
Y198341D01*
Y198330D01*
Y198325D01*
X118558Y198210D01*
X118574Y198112D01*
X118596Y198030D01*
X118623Y197959D01*
X118651Y197910D01*
X118673Y197872D01*
X118689Y197845D01*
X118694Y197839D01*
X118749Y197784D01*
X118809Y197741D01*
X118869Y197713D01*
X118924Y197692D01*
X118973Y197681D01*
X119017Y197670D01*
X119049D01*
X119126Y197675D01*
X119197Y197697D01*
X119257Y197724D01*
X119311Y197757D01*
X119355Y197790D01*
X119382Y197817D01*
X119404Y197839D01*
X119410Y197845D01*
X119459Y197915D01*
X119497Y198003D01*
X119519Y198096D01*
X119541Y198183D01*
X119552Y198265D01*
X119557Y198330D01*
Y198352D01*
Y198374D01*
Y198385D01*
Y198390D01*
X119552Y198516D01*
X119535Y198625D01*
X119513Y198713D01*
X119492Y198784D01*
X119464Y198838D01*
X119442Y198876D01*
X119426Y198904D01*
X119421Y198909D01*
X119366Y198958D01*
X119311Y198997D01*
X119251Y199024D01*
X119202Y199040D01*
X119153Y199051D01*
X119115Y199062D01*
D02*
G37*
G36*
X115528Y198953D02*
X114856D01*
Y196452D01*
X115353D01*
X115424Y196458D01*
X115489D01*
X115544Y196463D01*
X115593D01*
X115642Y196469D01*
X115681D01*
X115741Y196479D01*
X115784Y196485D01*
X115812Y196490D01*
X115817D01*
X115893Y196512D01*
X115959Y196540D01*
X116019Y196567D01*
X116074Y196600D01*
X116112Y196627D01*
X116145Y196649D01*
X116161Y196665D01*
X116166Y196671D01*
X116216Y196725D01*
X116259Y196785D01*
X116297Y196845D01*
X116330Y196900D01*
X116352Y196955D01*
X116368Y196998D01*
X116379Y197026D01*
X116385Y197031D01*
Y197036D01*
X116412Y197135D01*
X116434Y197238D01*
X116445Y197353D01*
X116456Y197462D01*
X116461Y197555D01*
X116467Y197599D01*
Y197637D01*
Y197664D01*
Y197686D01*
Y197703D01*
Y197708D01*
X116461Y197861D01*
X116456Y198003D01*
X116439Y198117D01*
X116429Y198216D01*
X116412Y198298D01*
X116407Y198330D01*
X116396Y198352D01*
X116390Y198374D01*
Y198390D01*
X116385Y198396D01*
Y198401D01*
X116352Y198489D01*
X116325Y198565D01*
X116287Y198625D01*
X116259Y198674D01*
X116232Y198713D01*
X116210Y198740D01*
X116194Y198756D01*
X116188Y198762D01*
X116139Y198800D01*
X116090Y198833D01*
X116041Y198860D01*
X115992Y198882D01*
X115948Y198898D01*
X115915Y198909D01*
X115893Y198920D01*
X115883D01*
X115823Y198931D01*
X115752Y198936D01*
X115675Y198947D01*
X115599D01*
X115528Y198953D01*
D02*
G37*
G36*
X118569Y179284D02*
X117898D01*
Y176784D01*
X118395D01*
X118465Y176789D01*
X118531D01*
X118586Y176795D01*
X118635D01*
X118684Y176800D01*
X118722D01*
X118782Y176811D01*
X118826Y176816D01*
X118853Y176822D01*
X118859D01*
X118935Y176844D01*
X119001Y176871D01*
X119061Y176898D01*
X119115Y176931D01*
X119153Y176958D01*
X119186Y176980D01*
X119203Y176997D01*
X119208Y177002D01*
X119257Y177057D01*
X119301Y177117D01*
X119339Y177177D01*
X119372Y177231D01*
X119394Y177286D01*
X119410Y177330D01*
X119421Y177357D01*
X119427Y177362D01*
Y177368D01*
X119454Y177466D01*
X119476Y177570D01*
X119487Y177684D01*
X119498Y177794D01*
X119503Y177886D01*
X119508Y177930D01*
Y177968D01*
Y177996D01*
Y178018D01*
Y178034D01*
Y178039D01*
X119503Y178192D01*
X119498Y178334D01*
X119481Y178449D01*
X119470Y178547D01*
X119454Y178629D01*
X119448Y178662D01*
X119437Y178684D01*
X119432Y178706D01*
Y178722D01*
X119427Y178727D01*
Y178733D01*
X119394Y178820D01*
X119366Y178897D01*
X119328Y178957D01*
X119301Y179006D01*
X119274Y179044D01*
X119252Y179071D01*
X119235Y179088D01*
X119230Y179093D01*
X119181Y179131D01*
X119132Y179164D01*
X119082Y179192D01*
X119033Y179213D01*
X118990Y179230D01*
X118957Y179241D01*
X118935Y179252D01*
X118924D01*
X118864Y179262D01*
X118793Y179268D01*
X118717Y179279D01*
X118640D01*
X118569Y179284D01*
D02*
G37*
G36*
X122206Y178531D02*
X121327D01*
X122206Y177231D01*
Y178531D01*
D02*
G37*
G36*
X115278Y189203D02*
X114606D01*
Y186702D01*
X115103D01*
X115174Y186708D01*
X115240D01*
X115294Y186713D01*
X115343D01*
X115392Y186719D01*
X115431D01*
X115491Y186730D01*
X115534Y186735D01*
X115562Y186740D01*
X115567D01*
X115644Y186762D01*
X115709Y186790D01*
X115769Y186817D01*
X115824Y186850D01*
X115862Y186877D01*
X115895Y186899D01*
X115911Y186915D01*
X115917Y186921D01*
X115966Y186975D01*
X116009Y187035D01*
X116048Y187095D01*
X116080Y187150D01*
X116102Y187205D01*
X116119Y187248D01*
X116129Y187276D01*
X116135Y187281D01*
Y187286D01*
X116162Y187385D01*
X116184Y187488D01*
X116195Y187603D01*
X116206Y187712D01*
X116211Y187805D01*
X116217Y187849D01*
Y187887D01*
Y187914D01*
Y187936D01*
Y187952D01*
Y187958D01*
X116211Y188111D01*
X116206Y188253D01*
X116190Y188367D01*
X116179Y188466D01*
X116162Y188548D01*
X116157Y188580D01*
X116146Y188602D01*
X116140Y188624D01*
Y188640D01*
X116135Y188646D01*
Y188651D01*
X116102Y188739D01*
X116075Y188815D01*
X116037Y188875D01*
X116009Y188924D01*
X115982Y188963D01*
X115960Y188990D01*
X115944Y189006D01*
X115938Y189012D01*
X115889Y189050D01*
X115840Y189083D01*
X115791Y189110D01*
X115742Y189132D01*
X115698Y189148D01*
X115665Y189159D01*
X115644Y189170D01*
X115633D01*
X115573Y189181D01*
X115501Y189187D01*
X115425Y189197D01*
X115349D01*
X115278Y189203D01*
D02*
G37*
G36*
X115485Y168994D02*
X114813D01*
Y166493D01*
X115310D01*
X115381Y166498D01*
X115447D01*
X115501Y166504D01*
X115551D01*
X115600Y166509D01*
X115638D01*
X115698Y166520D01*
X115742Y166526D01*
X115769Y166531D01*
X115775D01*
X115851Y166553D01*
X115916Y166580D01*
X115977Y166608D01*
X116031Y166640D01*
X116069Y166668D01*
X116102Y166690D01*
X116118Y166706D01*
X116124Y166711D01*
X116173Y166766D01*
X116217Y166826D01*
X116255Y166886D01*
X116288Y166941D01*
X116309Y166995D01*
X116326Y167039D01*
X116337Y167066D01*
X116342Y167072D01*
Y167077D01*
X116370Y167175D01*
X116391Y167279D01*
X116402Y167394D01*
X116413Y167503D01*
X116419Y167596D01*
X116424Y167640D01*
Y167678D01*
Y167705D01*
Y167727D01*
Y167743D01*
Y167749D01*
X116419Y167902D01*
X116413Y168043D01*
X116397Y168158D01*
X116386Y168256D01*
X116370Y168338D01*
X116364Y168371D01*
X116353Y168393D01*
X116348Y168415D01*
Y168431D01*
X116342Y168437D01*
Y168442D01*
X116309Y168529D01*
X116282Y168606D01*
X116244Y168666D01*
X116217Y168715D01*
X116189Y168753D01*
X116168Y168781D01*
X116151Y168797D01*
X116146Y168802D01*
X116097Y168841D01*
X116048Y168874D01*
X115998Y168901D01*
X115949Y168923D01*
X115905Y168939D01*
X115873Y168950D01*
X115851Y168961D01*
X115840D01*
X115780Y168972D01*
X115709Y168977D01*
X115632Y168988D01*
X115556D01*
X115485Y168994D01*
D02*
G37*
G36*
X119153Y159119D02*
X118481D01*
Y156619D01*
X118978D01*
X119049Y156624D01*
X119114D01*
X119169Y156630D01*
X119218D01*
X119267Y156635D01*
X119306D01*
X119366Y156646D01*
X119409Y156652D01*
X119437Y156657D01*
X119442D01*
X119518Y156679D01*
X119584Y156706D01*
X119644Y156734D01*
X119699Y156766D01*
X119737Y156793D01*
X119770Y156815D01*
X119786Y156832D01*
X119791Y156837D01*
X119841Y156892D01*
X119884Y156952D01*
X119922Y157012D01*
X119955Y157067D01*
X119977Y157121D01*
X119993Y157165D01*
X120004Y157192D01*
X120010Y157198D01*
Y157203D01*
X120037Y157301D01*
X120059Y157405D01*
X120070Y157520D01*
X120081Y157629D01*
X120086Y157722D01*
X120092Y157765D01*
Y157804D01*
Y157831D01*
Y157853D01*
Y157869D01*
Y157875D01*
X120086Y158028D01*
X120081Y158169D01*
X120064Y158284D01*
X120054Y158382D01*
X120037Y158464D01*
X120032Y158497D01*
X120021Y158519D01*
X120015Y158541D01*
Y158557D01*
X120010Y158563D01*
Y158568D01*
X119977Y158655D01*
X119950Y158732D01*
X119912Y158792D01*
X119884Y158841D01*
X119857Y158879D01*
X119835Y158906D01*
X119819Y158923D01*
X119813Y158928D01*
X119764Y158967D01*
X119715Y158999D01*
X119666Y159027D01*
X119617Y159048D01*
X119573Y159065D01*
X119540Y159076D01*
X119518Y159087D01*
X119508D01*
X119448Y159098D01*
X119377Y159103D01*
X119300Y159114D01*
X119224D01*
X119153Y159119D01*
D02*
G37*
G36*
X121831Y148953D02*
X121160D01*
Y146452D01*
X121657D01*
X121727Y146458D01*
X121793D01*
X121848Y146463D01*
X121897D01*
X121946Y146469D01*
X121984D01*
X122044Y146479D01*
X122088Y146485D01*
X122115Y146490D01*
X122121D01*
X122197Y146512D01*
X122263Y146540D01*
X122323Y146567D01*
X122377Y146600D01*
X122415Y146627D01*
X122448Y146649D01*
X122465Y146665D01*
X122470Y146671D01*
X122519Y146725D01*
X122563Y146785D01*
X122601Y146845D01*
X122634Y146900D01*
X122656Y146955D01*
X122672Y146998D01*
X122683Y147026D01*
X122688Y147031D01*
Y147036D01*
X122716Y147135D01*
X122738Y147238D01*
X122748Y147353D01*
X122759Y147462D01*
X122765Y147555D01*
X122770Y147599D01*
Y147637D01*
Y147664D01*
Y147686D01*
Y147703D01*
Y147708D01*
X122765Y147861D01*
X122759Y148003D01*
X122743Y148117D01*
X122732Y148216D01*
X122716Y148298D01*
X122710Y148330D01*
X122699Y148352D01*
X122694Y148374D01*
Y148390D01*
X122688Y148396D01*
Y148401D01*
X122656Y148489D01*
X122628Y148565D01*
X122590Y148625D01*
X122563Y148674D01*
X122536Y148713D01*
X122514Y148740D01*
X122497Y148756D01*
X122492Y148762D01*
X122443Y148800D01*
X122394Y148833D01*
X122344Y148860D01*
X122295Y148882D01*
X122252Y148898D01*
X122219Y148909D01*
X122197Y148920D01*
X122186D01*
X122126Y148931D01*
X122055Y148936D01*
X121979Y148947D01*
X121902D01*
X121831Y148953D01*
D02*
G37*
G36*
X115806Y137704D02*
X115064D01*
Y136743D01*
X115937D01*
X115986Y136748D01*
X116106D01*
X116156Y136754D01*
X116188D01*
X116205Y136759D01*
X116210D01*
X116276Y136776D01*
X116336Y136797D01*
X116385Y136819D01*
X116423Y136847D01*
X116456Y136874D01*
X116483Y136890D01*
X116494Y136907D01*
X116499Y136912D01*
X116532Y136956D01*
X116560Y137010D01*
X116576Y137060D01*
X116592Y137109D01*
X116598Y137152D01*
X116603Y137185D01*
Y137207D01*
Y137218D01*
X116598Y137278D01*
X116592Y137333D01*
X116576Y137382D01*
X116565Y137425D01*
X116549Y137458D01*
X116532Y137480D01*
X116527Y137496D01*
X116521Y137502D01*
X116489Y137540D01*
X116456Y137573D01*
X116385Y137622D01*
X116358Y137638D01*
X116330Y137649D01*
X116314Y137660D01*
X116308D01*
X116281Y137666D01*
X116237Y137677D01*
X116194Y137682D01*
X116145Y137688D01*
X116030Y137693D01*
X115915Y137698D01*
X115806Y137704D01*
D02*
G37*
G36*
X119110Y128954D02*
X118438D01*
Y126453D01*
X118935D01*
X119006Y126459D01*
X119072D01*
X119126Y126464D01*
X119176D01*
X119225Y126470D01*
X119263D01*
X119323Y126480D01*
X119367Y126486D01*
X119394Y126491D01*
X119399D01*
X119476Y126513D01*
X119541Y126541D01*
X119602Y126568D01*
X119656Y126601D01*
X119694Y126628D01*
X119727Y126650D01*
X119743Y126666D01*
X119749Y126672D01*
X119798Y126726D01*
X119842Y126786D01*
X119880Y126846D01*
X119913Y126901D01*
X119934Y126955D01*
X119951Y126999D01*
X119962Y127026D01*
X119967Y127032D01*
Y127037D01*
X119995Y127136D01*
X120016Y127239D01*
X120027Y127354D01*
X120038Y127463D01*
X120044Y127556D01*
X120049Y127600D01*
Y127638D01*
Y127665D01*
Y127687D01*
Y127703D01*
Y127709D01*
X120044Y127862D01*
X120038Y128004D01*
X120022Y128118D01*
X120011Y128217D01*
X119995Y128299D01*
X119989Y128331D01*
X119978Y128353D01*
X119973Y128375D01*
Y128391D01*
X119967Y128397D01*
Y128402D01*
X119934Y128490D01*
X119907Y128566D01*
X119869Y128626D01*
X119842Y128675D01*
X119814Y128714D01*
X119793Y128741D01*
X119776Y128757D01*
X119771Y128763D01*
X119722Y128801D01*
X119673Y128834D01*
X119623Y128861D01*
X119574Y128883D01*
X119530Y128899D01*
X119498Y128910D01*
X119476Y128921D01*
X119465D01*
X119405Y128932D01*
X119334Y128937D01*
X119257Y128948D01*
X119181D01*
X119110Y128954D01*
D02*
G37*
G36*
X122566Y129063D02*
X122544D01*
X122495Y129058D01*
X122452Y129052D01*
X122413Y129036D01*
X122381Y129019D01*
X122353Y129008D01*
X122332Y128992D01*
X122321Y128987D01*
X122315Y128981D01*
X122282Y128943D01*
X122250Y128894D01*
X122222Y128839D01*
X122195Y128785D01*
X122179Y128735D01*
X122162Y128692D01*
X122157Y128664D01*
X122151Y128654D01*
X122140Y128599D01*
X122129Y128539D01*
X122118Y128473D01*
X122113Y128402D01*
X122102Y128249D01*
X122097Y128097D01*
X122091Y128026D01*
Y127955D01*
X122086Y127894D01*
Y127840D01*
Y127796D01*
Y127758D01*
Y127736D01*
Y127731D01*
Y127611D01*
X122091Y127496D01*
Y127398D01*
X122097Y127299D01*
X122102Y127217D01*
X122108Y127136D01*
X122113Y127070D01*
X122124Y127005D01*
X122129Y126950D01*
X122135Y126906D01*
X122140Y126868D01*
X122146Y126835D01*
X122151Y126813D01*
Y126792D01*
X122157Y126786D01*
Y126781D01*
X122179Y126704D01*
X122206Y126639D01*
X122228Y126590D01*
X122255Y126546D01*
X122277Y126519D01*
X122293Y126497D01*
X122304Y126486D01*
X122310Y126480D01*
X122348Y126453D01*
X122391Y126431D01*
X122430Y126415D01*
X122468Y126404D01*
X122495Y126399D01*
X122523Y126393D01*
X122544D01*
X122594Y126399D01*
X122637Y126404D01*
X122676Y126420D01*
X122708Y126437D01*
X122736Y126453D01*
X122757Y126464D01*
X122768Y126475D01*
X122774Y126480D01*
X122807Y126519D01*
X122839Y126568D01*
X122867Y126622D01*
X122894Y126677D01*
X122910Y126732D01*
X122927Y126775D01*
X122932Y126803D01*
X122938Y126808D01*
Y126813D01*
X122949Y126863D01*
X122959Y126923D01*
X122970Y126994D01*
X122981Y127065D01*
X122992Y127212D01*
X122998Y127365D01*
X123003Y127436D01*
Y127507D01*
X123009Y127567D01*
Y127621D01*
Y127665D01*
Y127703D01*
Y127725D01*
Y127731D01*
Y127851D01*
X123003Y127965D01*
Y128069D01*
X122998Y128162D01*
X122992Y128249D01*
X122987Y128326D01*
X122976Y128397D01*
X122970Y128457D01*
X122965Y128512D01*
X122954Y128555D01*
X122949Y128593D01*
X122943Y128626D01*
X122938Y128648D01*
Y128670D01*
X122932Y128675D01*
Y128681D01*
X122910Y128757D01*
X122883Y128817D01*
X122856Y128872D01*
X122834Y128910D01*
X122812Y128943D01*
X122790Y128965D01*
X122779Y128976D01*
X122774Y128981D01*
X122736Y129008D01*
X122697Y129030D01*
X122659Y129041D01*
X122621Y129052D01*
X122594Y129058D01*
X122566Y129063D01*
D02*
G37*
G36*
X120058Y118620D02*
X119431D01*
Y116284D01*
X119895D01*
X119961Y116289D01*
X120022D01*
X120073Y116294D01*
X120119D01*
X120165Y116299D01*
X120201D01*
X120257Y116310D01*
X120298Y116315D01*
X120323Y116320D01*
X120328D01*
X120400Y116340D01*
X120461Y116366D01*
X120517Y116391D01*
X120568Y116422D01*
X120604Y116447D01*
X120634Y116468D01*
X120650Y116483D01*
X120655Y116488D01*
X120701Y116539D01*
X120741Y116595D01*
X120777Y116651D01*
X120808Y116702D01*
X120828Y116753D01*
X120843Y116794D01*
X120854Y116820D01*
X120859Y116825D01*
Y116830D01*
X120884Y116922D01*
X120905Y117019D01*
X120915Y117126D01*
X120925Y117228D01*
X120930Y117314D01*
X120935Y117355D01*
Y117391D01*
Y117416D01*
Y117437D01*
Y117452D01*
Y117457D01*
X120930Y117600D01*
X120925Y117733D01*
X120910Y117840D01*
X120899Y117931D01*
X120884Y118008D01*
X120879Y118039D01*
X120869Y118059D01*
X120864Y118079D01*
Y118095D01*
X120859Y118100D01*
Y118105D01*
X120828Y118186D01*
X120803Y118258D01*
X120767Y118314D01*
X120741Y118360D01*
X120716Y118396D01*
X120695Y118421D01*
X120680Y118436D01*
X120675Y118441D01*
X120629Y118477D01*
X120583Y118508D01*
X120537Y118533D01*
X120492Y118554D01*
X120451Y118569D01*
X120420Y118579D01*
X120400Y118589D01*
X120389D01*
X120333Y118600D01*
X120267Y118605D01*
X120196Y118615D01*
X120124D01*
X120058Y118620D01*
D02*
G37*
%LPD*%
D12*
X23676Y37801D02*
Y42966D01*
X21341Y35466D02*
X23676Y37801D01*
X21216Y35509D02*
X23717Y33008D01*
X16051Y35466D02*
X21341D01*
X13800Y33135D02*
X16174Y35509D01*
X21216D01*
X13759Y37716D02*
X15968Y35507D01*
X13759Y37716D02*
Y43093D01*
X16133Y45467D01*
X21175D02*
X23676Y42966D01*
X23717Y27843D02*
Y33008D01*
X21382Y25508D02*
X23717Y27843D01*
X16092Y25508D02*
X21382D01*
X16092Y75446D02*
X21382D01*
X23717Y77781D01*
Y82946D01*
X21216Y85447D02*
X23717Y82946D01*
X16174Y85447D02*
X21216D01*
X13800Y83073D02*
X16174Y85447D01*
X13800Y77696D02*
Y83073D01*
Y77696D02*
X16008Y75488D01*
X16134Y65466D02*
X21424D01*
X23759Y67801D01*
Y72966D01*
X21259Y75467D02*
X23759Y72966D01*
X16217Y75467D02*
X21259D01*
X13843Y73093D02*
X16217Y75467D01*
X13843Y67716D02*
Y73093D01*
Y67716D02*
X16051Y65507D01*
X16113Y55446D02*
X21403D01*
X23738Y57781D01*
Y62946D01*
X21237Y65447D02*
X23738Y62946D01*
X16195Y65447D02*
X21237D01*
X13821Y63073D02*
X16195Y65447D01*
X13821Y57696D02*
Y63073D01*
Y57696D02*
X16029Y55487D01*
X16218Y45466D02*
X21508D01*
X23843Y47801D01*
Y52966D01*
X21342Y55467D02*
X23843Y52966D01*
X16300Y55467D02*
X21342D01*
X13926Y53093D02*
X16300Y55467D01*
X13926Y47716D02*
Y53093D01*
Y47716D02*
X16134Y45507D01*
X16133Y45467D02*
X21175D01*
X13800Y27758D02*
X16008Y25550D01*
X13800Y27758D02*
Y33135D01*
X13675Y157904D02*
X15883Y155696D01*
X13675Y157904D02*
Y163281D01*
X21257Y155654D02*
X23592Y157989D01*
X15967Y155654D02*
X21257D01*
X23551Y108009D02*
Y113174D01*
X21216Y105674D02*
X23551Y108009D01*
X21091Y105718D02*
X23592Y103217D01*
X15926Y105674D02*
X21216D01*
X13675Y103343D02*
X16049Y105718D01*
X21091D01*
X13634Y107924D02*
X15843Y105716D01*
X13634Y107924D02*
Y113301D01*
X16008Y115675D01*
X21050D02*
X23551Y113174D01*
X23592Y98052D02*
Y103217D01*
X21257Y95717D02*
X23592Y98052D01*
X15967Y95717D02*
X21257D01*
X23592Y157989D02*
Y163154D01*
X21091Y165655D02*
X23592Y163154D01*
X16049Y165655D02*
X21091D01*
X13675Y163281D02*
X16049Y165655D01*
X15967Y145654D02*
X21257D01*
X23592Y147989D01*
Y153154D01*
X21091Y155655D02*
X23592Y153154D01*
X16049Y155655D02*
X21091D01*
X13675Y153281D02*
X16049Y155655D01*
X13675Y147904D02*
Y153281D01*
Y147904D02*
X15883Y145696D01*
X16009Y135674D02*
X21299D01*
X23634Y138009D01*
Y143174D01*
X21133Y145675D02*
X23634Y143174D01*
X16092Y145675D02*
X21133D01*
X13718Y143301D02*
X16092Y145675D01*
X13718Y137924D02*
Y143301D01*
Y137924D02*
X15926Y135716D01*
X15988Y125654D02*
X21277D01*
X23613Y127989D01*
Y133154D01*
X21112Y135655D02*
X23613Y133154D01*
X16070Y135655D02*
X21112D01*
X13696Y133281D02*
X16070Y135655D01*
X13696Y127904D02*
Y133281D01*
Y127904D02*
X15904Y125696D01*
X16093Y115674D02*
X21383D01*
X23718Y118009D01*
Y123174D01*
X21217Y125675D02*
X23718Y123174D01*
X16175Y125675D02*
X21217D01*
X13801Y123301D02*
X16175Y125675D01*
X13801Y117924D02*
Y123301D01*
Y117924D02*
X16009Y115716D01*
X16008Y115675D02*
X21050D01*
X13675Y97967D02*
X15883Y95758D01*
X13675Y97967D02*
Y103343D01*
X206259Y34780D02*
X211549D01*
X203924Y32445D02*
X206259Y34780D01*
X203924Y27280D02*
Y32445D01*
Y27280D02*
X206425Y24779D01*
X211467D01*
X213841Y27153D01*
Y32530D01*
X211632Y34738D02*
X213841Y32530D01*
X206280Y44759D02*
X211570D01*
X203945Y42424D02*
X206280Y44759D01*
X203945Y37259D02*
Y42424D01*
Y37259D02*
X206446Y34758D01*
X211488D01*
X213862Y37132D01*
Y42509D01*
X211653Y44717D02*
X213862Y42509D01*
X206280Y54759D02*
X211570D01*
X203945Y52424D02*
X206280Y54759D01*
X203945Y47259D02*
Y52424D01*
Y47259D02*
X206446Y44758D01*
X211488D01*
X213862Y47132D01*
Y52509D01*
X211653Y54717D02*
X213862Y52509D01*
X206238Y64739D02*
X211527D01*
X203902Y62404D02*
X206238Y64739D01*
X203902Y57239D02*
Y62404D01*
Y57239D02*
X206403Y54738D01*
X211445D01*
X213819Y57112D01*
Y62489D01*
X211611Y64698D02*
X213819Y62489D01*
X206259Y74759D02*
X211549D01*
X203924Y72424D02*
X206259Y74759D01*
X203924Y67259D02*
Y72424D01*
Y67259D02*
X206425Y64758D01*
X211467D01*
X213841Y67132D01*
Y72509D01*
X211632Y74718D02*
X213841Y72509D01*
X206154Y84739D02*
X211444D01*
X203819Y82404D02*
X206154Y84739D01*
X203819Y77239D02*
Y82404D01*
Y77239D02*
X206320Y74738D01*
X211362D01*
X213736Y77112D01*
Y82489D01*
X211527Y84698D02*
X213736Y82489D01*
X206321Y94739D02*
X211611D01*
X203986Y92404D02*
X206321Y94739D01*
X203986Y87239D02*
Y92404D01*
Y87239D02*
X206487Y84738D01*
X211528D01*
X213902Y87112D01*
Y92489D01*
X211694Y94698D02*
X213902Y92489D01*
X211653Y104655D02*
X213862Y102447D01*
Y97070D02*
Y102447D01*
X211488Y94696D02*
X213862Y97070D01*
X206446Y94696D02*
X211488D01*
X203945Y97197D02*
X206446Y94696D01*
X203945Y97197D02*
Y102362D01*
X206280Y104697D01*
X211570D01*
X206260Y211050D02*
X211550D01*
X203925Y208715D02*
X206260Y211050D01*
X203925Y203550D02*
Y208715D01*
Y203550D02*
X206426Y201049D01*
X211468D01*
X213842Y203423D01*
Y208800D01*
X211633Y211008D02*
X213842Y208800D01*
X211674Y201051D02*
X213882Y198843D01*
Y193466D02*
Y198843D01*
X211508Y191092D02*
X213882Y193466D01*
X206467Y191092D02*
X211508D01*
X203966Y193593D02*
X206467Y191092D01*
X203966Y193593D02*
Y198758D01*
X206301Y201093D01*
X211591D01*
X211507Y191051D02*
X213716Y188843D01*
Y183466D02*
Y188843D01*
X211342Y181092D02*
X213716Y183466D01*
X206300Y181092D02*
X211342D01*
X203799Y183592D02*
X206300Y181092D01*
X203799Y183592D02*
Y188758D01*
X206134Y191093D01*
X211424D01*
X211612Y181071D02*
X213821Y178863D01*
Y173486D02*
Y178863D01*
X211447Y171112D02*
X213821Y173486D01*
X206405Y171112D02*
X211447D01*
X203904Y173612D02*
X206405Y171112D01*
X203904Y173612D02*
Y178778D01*
X206239Y181113D01*
X211529D01*
X211591Y171051D02*
X213799Y168843D01*
Y163466D02*
Y168843D01*
X211425Y161092D02*
X213799Y163466D01*
X206383Y161092D02*
X211425D01*
X203882Y163593D02*
X206383Y161092D01*
X203882Y163593D02*
Y168757D01*
X206218Y171093D01*
X211507D01*
X211633Y161071D02*
X213842Y158862D01*
Y153486D02*
Y158862D01*
X211468Y151112D02*
X213842Y153486D01*
X206426Y151112D02*
X211468D01*
X203925Y153612D02*
X206426Y151112D01*
X203925Y153612D02*
Y158777D01*
X206260Y161112D01*
X211550D01*
X211633Y151071D02*
X213842Y148863D01*
Y143486D02*
Y148863D01*
X211468Y141112D02*
X213842Y143486D01*
X206426Y141112D02*
X211468D01*
X203925Y143612D02*
X206426Y141112D01*
X203925Y143612D02*
Y148777D01*
X206260Y151112D01*
X211550D01*
X211612Y141092D02*
X213821Y138883D01*
Y133507D02*
Y138883D01*
X211447Y131132D02*
X213821Y133507D01*
X206405Y131132D02*
X211447D01*
X203904Y133633D02*
X206405Y131132D01*
X203904Y133633D02*
Y138798D01*
X206239Y141133D01*
X211529D01*
X211591Y131070D02*
X213799Y128862D01*
Y123485D02*
Y128862D01*
X211425Y121111D02*
X213799Y123485D01*
X206383Y121111D02*
X211425D01*
X203882Y123611D02*
X206383Y121111D01*
X203882Y123611D02*
Y128777D01*
X206218Y131112D01*
X211507D01*
X211632Y121051D02*
X213841Y118843D01*
Y113466D02*
Y118843D01*
X211467Y111092D02*
X213841Y113466D01*
X203924Y113593D02*
X206425Y111092D01*
X203924Y113593D02*
Y118757D01*
X206259Y121093D01*
X211549D01*
X206218Y111134D02*
X211507D01*
M02*
