G04*
G04 #@! TF.GenerationSoftware,Altium Limited,Altium Designer,19.0.12 (326)*
G04*
G04 Layer_Color=16711935*
%FSLAX25Y25*%
%MOIN*%
G70*
G01*
G75*
%ADD74C,0.00394*%
D74*
X9967Y28461D02*
G03*
X12850Y21500I9845J0D01*
G01*
D02*
G03*
X16549Y19968I3699J3699D01*
G01*
X20529Y18319D02*
G03*
X16549Y19968I-3980J-3980D01*
G01*
X25346Y13502D02*
G03*
X33882Y9967I8535J8535D01*
G01*
X153133D02*
G03*
X160815Y13149I0J10864D01*
G01*
X168299Y20299D02*
G03*
X167730Y20063I0J-805D01*
G01*
X45658Y19882D02*
G03*
X45658Y19882I-6693J0D01*
G01*
X155909Y20216D02*
G03*
X155909Y20216I-6693J0D01*
G01*
X215824Y220715D02*
G03*
X215824Y220715I-6693J0D01*
G01*
X25492Y225049D02*
G03*
X25492Y225049I-6693J0D01*
G01*
X17896Y279717D02*
G03*
X9967Y271843I-28J-7902D01*
G01*
X218591Y271787D02*
G03*
X210717Y279717I-7902J28D01*
G01*
X210661Y20299D02*
G03*
X218591Y28173I28J7902D01*
G01*
X17841Y279717D02*
X210717D01*
X9967Y28461D02*
Y271843D01*
X20529Y18319D02*
X25346Y13502D01*
X33882Y9967D02*
X153133D01*
X160815Y13149D02*
X167730Y20063D01*
X168299Y20299D02*
X210717D01*
X218591Y28173D02*
Y271843D01*
M02*
