G04*
G04 #@! TF.GenerationSoftware,Altium Limited,Altium Designer,19.0.12 (326)*
G04*
G04 Layer_Color=255*
%FSLAX25Y25*%
%MOIN*%
G70*
G01*
G75*
G04:AMPARAMS|DCode=18|XSize=125.98mil|YSize=78.74mil|CornerRadius=19.68mil|HoleSize=0mil|Usage=FLASHONLY|Rotation=90.000|XOffset=0mil|YOffset=0mil|HoleType=Round|Shape=RoundedRectangle|*
%AMROUNDEDRECTD18*
21,1,0.12598,0.03937,0,0,90.0*
21,1,0.08661,0.07874,0,0,90.0*
1,1,0.03937,0.01968,0.04331*
1,1,0.03937,0.01968,-0.04331*
1,1,0.03937,-0.01968,-0.04331*
1,1,0.03937,-0.01968,0.04331*
%
%ADD18ROUNDEDRECTD18*%
G04:AMPARAMS|DCode=19|XSize=33.47mil|YSize=78.74mil|CornerRadius=8.37mil|HoleSize=0mil|Usage=FLASHONLY|Rotation=90.000|XOffset=0mil|YOffset=0mil|HoleType=Round|Shape=RoundedRectangle|*
%AMROUNDEDRECTD19*
21,1,0.03347,0.06201,0,0,90.0*
21,1,0.01673,0.07874,0,0,90.0*
1,1,0.01673,0.03100,0.00837*
1,1,0.01673,0.03100,-0.00837*
1,1,0.01673,-0.03100,-0.00837*
1,1,0.01673,-0.03100,0.00837*
%
%ADD19ROUNDEDRECTD19*%
G04:AMPARAMS|DCode=20|XSize=106.3mil|YSize=51.18mil|CornerRadius=12.8mil|HoleSize=0mil|Usage=FLASHONLY|Rotation=0.000|XOffset=0mil|YOffset=0mil|HoleType=Round|Shape=RoundedRectangle|*
%AMROUNDEDRECTD20*
21,1,0.10630,0.02559,0,0,0.0*
21,1,0.08071,0.05118,0,0,0.0*
1,1,0.02559,0.04035,-0.01280*
1,1,0.02559,-0.04035,-0.01280*
1,1,0.02559,-0.04035,0.01280*
1,1,0.02559,0.04035,0.01280*
%
%ADD20ROUNDEDRECTD20*%
%ADD21R,0.01575X0.02756*%
G04:AMPARAMS|DCode=22|XSize=110.24mil|YSize=78.74mil|CornerRadius=19.68mil|HoleSize=0mil|Usage=FLASHONLY|Rotation=0.000|XOffset=0mil|YOffset=0mil|HoleType=Round|Shape=RoundedRectangle|*
%AMROUNDEDRECTD22*
21,1,0.11024,0.03937,0,0,0.0*
21,1,0.07087,0.07874,0,0,0.0*
1,1,0.03937,0.03543,-0.01968*
1,1,0.03937,-0.03543,-0.01968*
1,1,0.03937,-0.03543,0.01968*
1,1,0.03937,0.03543,0.01968*
%
%ADD22ROUNDEDRECTD22*%
%ADD23R,0.02756X0.01575*%
G04:AMPARAMS|DCode=24|XSize=137.8mil|YSize=51.18mil|CornerRadius=12.8mil|HoleSize=0mil|Usage=FLASHONLY|Rotation=270.000|XOffset=0mil|YOffset=0mil|HoleType=Round|Shape=RoundedRectangle|*
%AMROUNDEDRECTD24*
21,1,0.13780,0.02559,0,0,270.0*
21,1,0.11221,0.05118,0,0,270.0*
1,1,0.02559,-0.01280,-0.05610*
1,1,0.02559,-0.01280,0.05610*
1,1,0.02559,0.01280,0.05610*
1,1,0.02559,0.01280,-0.05610*
%
%ADD24ROUNDEDRECTD24*%
G04:AMPARAMS|DCode=25|XSize=393.7mil|YSize=177.17mil|CornerRadius=44.29mil|HoleSize=0mil|Usage=FLASHONLY|Rotation=180.000|XOffset=0mil|YOffset=0mil|HoleType=Round|Shape=RoundedRectangle|*
%AMROUNDEDRECTD25*
21,1,0.39370,0.08858,0,0,180.0*
21,1,0.30512,0.17717,0,0,180.0*
1,1,0.08858,-0.15256,0.04429*
1,1,0.08858,0.15256,0.04429*
1,1,0.08858,0.15256,-0.04429*
1,1,0.08858,-0.15256,-0.04429*
%
%ADD25ROUNDEDRECTD25*%
G04:AMPARAMS|DCode=26|XSize=21.65mil|YSize=62.99mil|CornerRadius=5.41mil|HoleSize=0mil|Usage=FLASHONLY|Rotation=0.000|XOffset=0mil|YOffset=0mil|HoleType=Round|Shape=RoundedRectangle|*
%AMROUNDEDRECTD26*
21,1,0.02165,0.05217,0,0,0.0*
21,1,0.01083,0.06299,0,0,0.0*
1,1,0.01083,0.00541,-0.02608*
1,1,0.01083,-0.00541,-0.02608*
1,1,0.01083,-0.00541,0.02608*
1,1,0.01083,0.00541,0.02608*
%
%ADD26ROUNDEDRECTD26*%
%ADD27R,0.02165X0.06299*%
%ADD67P,0.06392X8X292.5*%
%ADD68O,0.06299X0.14961*%
%ADD69O,0.14961X0.06299*%
%ADD70C,0.06693*%
D18*
X55382Y171549D02*
D03*
D19*
X32799Y162413D02*
D03*
Y171468D02*
D03*
Y180523D02*
D03*
D20*
X186717Y262510D02*
D03*
X186884Y245509D02*
D03*
X158217Y245467D02*
D03*
X157967Y262385D02*
D03*
D21*
X113716Y134112D02*
D03*
X107862D02*
D03*
X94112Y206178D02*
D03*
X88257D02*
D03*
X88027Y249550D02*
D03*
X82173D02*
D03*
X99028Y249384D02*
D03*
X93174D02*
D03*
X113737Y246718D02*
D03*
X107882D02*
D03*
D22*
X110799Y236382D02*
D03*
X110882Y218945D02*
D03*
D23*
X17987Y172445D02*
D03*
Y178299D02*
D03*
X24133Y172487D02*
D03*
Y178342D02*
D03*
X18217Y183404D02*
D03*
Y189258D02*
D03*
D24*
X42217Y220383D02*
D03*
X42300Y194215D02*
D03*
X42549Y148884D02*
D03*
X42632Y122716D02*
D03*
D25*
X98133Y150467D02*
D03*
Y186633D02*
D03*
D26*
X83716Y216535D02*
D03*
X93716Y239370D02*
D03*
X88716D02*
D03*
X83716D02*
D03*
X98757Y216535D02*
D03*
X93841D02*
D03*
X88717D02*
D03*
D27*
X98716Y239370D02*
D03*
D67*
X171883Y34802D02*
D03*
X171882Y44968D02*
D03*
X171842Y54969D02*
D03*
X171925Y64802D02*
D03*
X171883Y74927D02*
D03*
X171924Y84968D02*
D03*
X171842Y94883D02*
D03*
X171882Y104843D02*
D03*
X171800Y114802D02*
D03*
X171799Y124884D02*
D03*
Y134843D02*
D03*
X171883Y144927D02*
D03*
X172092Y154969D02*
D03*
X171842Y165008D02*
D03*
X18967Y40383D02*
D03*
X18717Y30343D02*
D03*
X18675Y80550D02*
D03*
X18674Y70468D02*
D03*
Y60509D02*
D03*
X18758Y50425D02*
D03*
X18842Y110592D02*
D03*
X18592Y100552D02*
D03*
X18632Y160717D02*
D03*
X18550Y150758D02*
D03*
X18549Y140676D02*
D03*
Y130718D02*
D03*
X18633Y120633D02*
D03*
X208945Y29737D02*
D03*
X208904Y39696D02*
D03*
X208987Y49655D02*
D03*
X208988Y59737D02*
D03*
Y69696D02*
D03*
X208903Y79780D02*
D03*
X208695Y89822D02*
D03*
X208945Y99862D02*
D03*
X208925Y206215D02*
D03*
X208675Y196175D02*
D03*
X208883Y186133D02*
D03*
X208968Y176049D02*
D03*
Y166091D02*
D03*
X208967Y156008D02*
D03*
X208884Y146049D02*
D03*
X208925Y136090D02*
D03*
X208843Y126174D02*
D03*
X208883Y116133D02*
D03*
X34820Y34237D02*
D03*
X34861Y44196D02*
D03*
X34778Y54155D02*
D03*
X34777Y64237D02*
D03*
Y74196D02*
D03*
X34862Y84280D02*
D03*
X35070Y94322D02*
D03*
X34820Y104362D02*
D03*
X44842Y34258D02*
D03*
X44883Y44218D02*
D03*
X44800Y54177D02*
D03*
X44799Y64259D02*
D03*
Y74218D02*
D03*
X44883Y84302D02*
D03*
X45092Y94344D02*
D03*
X44842Y104383D02*
D03*
X90677Y64593D02*
D03*
X90592Y54509D02*
D03*
X90384Y44467D02*
D03*
X90634Y34428D02*
D03*
X80510Y64593D02*
D03*
X80426Y54509D02*
D03*
X80218Y44467D02*
D03*
X80468Y34428D02*
D03*
X70594Y64467D02*
D03*
X70510Y54383D02*
D03*
X70302Y44341D02*
D03*
X70552Y34302D02*
D03*
X151467Y194133D02*
D03*
X151675Y204175D02*
D03*
X151425Y214215D02*
D03*
X161549Y194132D02*
D03*
X161757Y204174D02*
D03*
X161507Y214214D02*
D03*
X171633Y194258D02*
D03*
X171842Y204300D02*
D03*
X171592Y214340D02*
D03*
X181632Y194424D02*
D03*
X181841Y204466D02*
D03*
X181591Y214506D02*
D03*
X191716Y34738D02*
D03*
X191715Y44904D02*
D03*
X191674Y54905D02*
D03*
X191758Y64738D02*
D03*
X191716Y74863D02*
D03*
X191756Y84904D02*
D03*
X191674Y94820D02*
D03*
X191715Y104779D02*
D03*
X191632Y114738D02*
D03*
X191631Y124821D02*
D03*
Y134779D02*
D03*
X191716Y144863D02*
D03*
X191924Y154905D02*
D03*
X191674Y164945D02*
D03*
X181778Y34801D02*
D03*
X181777Y44967D02*
D03*
X181737Y54968D02*
D03*
X181820Y64801D02*
D03*
X181778Y74926D02*
D03*
X181819Y84967D02*
D03*
X181737Y94882D02*
D03*
X181777Y104842D02*
D03*
X181695Y114801D02*
D03*
X181694Y124883D02*
D03*
Y134842D02*
D03*
X181778Y144926D02*
D03*
X181987Y154968D02*
D03*
X181737Y165007D02*
D03*
X106174Y64632D02*
D03*
X106090Y54548D02*
D03*
X105882Y44506D02*
D03*
X106131Y34467D02*
D03*
X116217Y64717D02*
D03*
X116132Y54633D02*
D03*
X115924Y44591D02*
D03*
X116174Y34551D02*
D03*
X126092Y64675D02*
D03*
X126007Y54591D02*
D03*
X125799Y44549D02*
D03*
X126049Y34509D02*
D03*
X136258Y64675D02*
D03*
X136174Y54591D02*
D03*
X135966Y44549D02*
D03*
X136216Y34509D02*
D03*
X155342Y64843D02*
D03*
X155257Y54759D02*
D03*
X155049Y44718D02*
D03*
X155299Y34678D02*
D03*
X55071Y34404D02*
D03*
X55112Y44363D02*
D03*
X55029Y54323D02*
D03*
X55028Y64405D02*
D03*
Y74363D02*
D03*
X55112Y84448D02*
D03*
X55321Y94489D02*
D03*
X55071Y104529D02*
D03*
X191758Y194467D02*
D03*
X191967Y204508D02*
D03*
X191717Y214548D02*
D03*
D68*
X23008Y245841D02*
D03*
D69*
X41799Y257466D02*
D03*
X41883Y233717D02*
D03*
D70*
X67133Y257965D02*
D03*
Y247965D02*
D03*
Y237965D02*
D03*
Y227965D02*
D03*
Y217965D02*
D03*
Y207965D02*
D03*
Y197965D02*
D03*
Y187965D02*
D03*
Y177965D02*
D03*
Y167965D02*
D03*
Y157965D02*
D03*
Y147965D02*
D03*
Y137965D02*
D03*
Y127965D02*
D03*
Y117965D02*
D03*
X129508Y257633D02*
D03*
Y247633D02*
D03*
Y237633D02*
D03*
Y227633D02*
D03*
Y217633D02*
D03*
Y207633D02*
D03*
Y197633D02*
D03*
Y187633D02*
D03*
Y177633D02*
D03*
Y167633D02*
D03*
Y157633D02*
D03*
Y147633D02*
D03*
Y137633D02*
D03*
Y127633D02*
D03*
Y117633D02*
D03*
M02*
