M48
INCH,LZ
;FILE_FORMAT=2:4
;TYPE=PLATED
;Layer: PTH_Through
;EasyEDA v6.5.1, 2022-03-31 19:47:03
;e70fbdbfcd2b4f78b06a9cdf694ab97e,f4ced638559e4a0e855b540ea8c082d1,10
;Gerber Generator version 0.2
;Holesize 1 = 0.0160 inch
T01C0.0160
;Holesize 2 = 0.0200 inch
T02C0.0200
;Holesize 3 = 0.0240 inch
T03C0.0240
;Holesize 4 = 0.0300 inch
T04C0.0300
;Holesize 5 = 0.0320 inch
T05C0.0320
;Holesize 6 = 0.0390 inch
T06C0.0390
;Holesize 7 = 0.0590 inch
T07C0.0590
%
G05
G90
T01
X007080Y-005789
X008580Y-006100
X021590Y-004710
X022000Y-004300
X014840Y-010120
X015170Y-009770
X022470Y-007605
X022080Y-007605
X006300Y-016600
X006300Y-016300
X008300Y-016600
X008300Y-016300
X006300Y-015900
X008300Y-015900
X006300Y-015500
X008300Y-015500
X007900Y-015500
X006700Y-015500
X007100Y-015500
X007500Y-015500
X006700Y-015900
X007100Y-015900
X007500Y-015900
X007900Y-015900
X008800Y-013500
X007800Y-013400
X008200Y-013200
X004800Y-014400
X004800Y-015200
X004600Y-012000
X004600Y-010400
X004500Y-004700
X003900Y-004700
X003900Y-003900
X005980Y-004080
X002400Y-001500
X000800Y-011400
X010400Y-002500
X009100Y-010900
X009100Y-010100
X011700Y-014800
X016000Y-018400
X016800Y-009700
X016500Y-010000
X020500Y-004600
X023300Y-005400
X023050Y-006310
X024580Y-009500
X025280Y-015690
X024040Y-009200
X003800Y-003300
X000400Y-003200
X003200Y-003300
X004000Y-006400
X004300Y-008600
X005000Y-008600
X005700Y-008600
X003400Y-004600
X002900Y-004600
X003300Y-007400
X011500Y-013700
X009900Y-015200
X007100Y-017600
X011500Y-017600
X015800Y-011700
X016000Y-008100
X021180Y-005920
X019800Y-009800
X017200Y-001500
X022670Y-004340
X021400Y-008300
X012000Y-020700
X015000Y-020700
X025700Y-020700
X025900Y-005800
X024800Y-005000
X020600Y-003800
X007800Y-003100
X005980Y-003550
X010700Y-010300
X004500Y-001000
X016100Y-014400
X017000Y-015200
X014700Y-015400
X016000Y-016600
X010700Y-011000
X009700Y-012400
X005000Y-007800
X005980Y-004660
X005300Y-002800
X005600Y-012400
X003100Y-018000
X013500Y-014300
X012410Y-009470
X008700Y-004400
X009600Y-004400
X010400Y-004400
X016000Y-007000
X016000Y-005700
X018300Y-015300
X017800Y-016900
X025900Y-008200
X025110Y-012040
X025320Y-013450
X019260Y-013280
X021400Y-015400
X020450Y-014330
X021080Y-013810
X023570Y-010230
X013500Y-020300
X022000Y-016200
X022600Y-016800
X023400Y-017300
X019900Y-013900
X018800Y-015800
X019400Y-016400
X020000Y-017000
X018900Y-016900
X018400Y-016300
X017500Y-016300
X022680Y-015440
X022010Y-015260
X020590Y-013210
X021020Y-014790
X021700Y-014510
X021170Y-012790
X021750Y-013690
X023330Y-004750
X022500Y-008300
X021900Y-008800
X016800Y-006400
X014800Y-006400
X016000Y-004400
X017200Y-004400
X019200Y-003900
X018100Y-006600
X011110Y-007110
X007190Y-007500
X010800Y-003100
X007800Y-004100
X000900Y-019000
X010400Y-016000
X013800Y-016700
X015000Y-016700
X013800Y-015800
X012600Y-015400
X009900Y-010500
X009700Y-009400
X009700Y-011500
X011200Y-011700
X011100Y-009700
X011900Y-011700
X010700Y-012700
X009200Y-014000
X005100Y-006300
X007770Y-004780
X007030Y-004070
X008530Y-006890
X002500Y-010500
X012020Y-009110
X011940Y-010380
X012280Y-010380
X012360Y-012810
T02
X018422Y-008301
X012910Y-008969
X013355Y-008523
X013801Y-008078
X014246Y-007633
X017754Y-013367
X018199Y-012922
X018645Y-012477
X019090Y-012031
X014469Y-013590
X014023Y-013145
X013578Y-012699
X013133Y-012254
X017531Y-007410
X017977Y-007855
X018867Y-008746
X013467Y-011474
X013912Y-011920
X014803Y-012811
X018533Y-009526
X018088Y-009080
X017197Y-008189
X015026Y-007967
X014580Y-008412
X013689Y-009303
X016974Y-013033
X017420Y-012588
X018311Y-011697
X014135Y-008857
X017865Y-012142
X014358Y-012365
X017642Y-008635
T03
X002824Y-019890G85X003887Y-019890
X001978Y-017469G85X001978Y-018531
X004340Y-018531G85X004340Y-017469
X000906Y-009499G85X001142Y-009499
X000906Y-012901G85X001142Y-012901
X002453Y-012901G85X002886Y-012901
X002453Y-009499G85X002886Y-009499
T04
X002474Y-006500
X003262Y-006500
X003262Y-005500
X002474Y-005500
T05
X008000Y-019000
X009000Y-019000
X010000Y-019000
X008000Y-020000
X009000Y-020000
X010000Y-020000
X019000Y-020000
X019000Y-019000
X020107Y-006407
X018693Y-004993
X020000Y-020000
X021000Y-020000
X022000Y-020000
X023000Y-020000
X024000Y-020000
X025000Y-020000
X018000Y-020000
X017000Y-020000
X016000Y-020000
X015000Y-020000
X014000Y-020000
X013000Y-020000
X012000Y-020000
X011000Y-020000
X018000Y-001000
X019000Y-001000
X020000Y-001000
X021000Y-001000
X022000Y-001000
X023000Y-001000
X024000Y-001000
X025000Y-001000
X007400Y-001000
X008400Y-001000
X009400Y-001000
X010400Y-001000
X011400Y-001000
X012400Y-001000
X013400Y-001000
X014400Y-001000
X015400Y-001000
X016400Y-001000
X024600Y-010500
X024600Y-011500
X024600Y-012500
X024600Y-013500
X024600Y-014500
X018000Y-002000
X019000Y-002000
X020000Y-002000
X021000Y-002000
X022000Y-002000
X023000Y-002000
X024000Y-002000
X025000Y-002000
X007400Y-002000
X008400Y-002000
X009400Y-002000
X010400Y-002000
X011400Y-002000
X012400Y-002000
X013400Y-002000
X014400Y-002000
X015400Y-002000
X016400Y-002000
X020000Y-019000
X021000Y-019000
X022000Y-019000
X023000Y-019000
X024000Y-019000
X025000Y-019000
X018000Y-019000
X017000Y-019000
X016000Y-019000
X015000Y-019000
X014000Y-019000
X013000Y-019000
X012000Y-019000
X011000Y-019000
T06
X003680Y-000614G85X003680Y-000614
X001120Y-000614G85X001121Y-000614
X001120Y-002386G85X001121Y-002386
X003680Y-002386G85X003680Y-002386
T07
X001565Y-003630G85X001250Y-003630
X001565Y-008370G85X001250Y-008370
M30
