G04 Layer: TopSolderMaskLayer*
G04 EasyEDA v6.5.1, 2022-03-31 19:47:03*
G04 e70fbdbfcd2b4f78b06a9cdf694ab97e,f4ced638559e4a0e855b540ea8c082d1,10*
G04 Gerber Generator version 0.2*
G04 Scale: 100 percent, Rotated: No, Reflected: No *
G04 Dimensions in inches *
G04 leading zeros omitted , absolute positions ,3 integer and 6 decimal *
%FSLAX36Y36*%
%MOIN*%

%ADD47C,0.0320*%
%ADD48C,0.0356*%
%ADD49C,0.0510*%
%ADD50C,0.0930*%
%ADD51C,0.0300*%
%ADD52C,0.0580*%
%ADD53C,0.0789*%
%ADD54C,0.0474*%
%ADD55C,0.0592*%
%ADD56C,0.0867*%
%ADD57C,0.0567*%
%ADD58C,0.0439*%
%ADD59C,0.0395*%
%ADD60C,0.0154*%
%ADD61C,0.0474*%
%ADD63C,0.0670*%
%ADD64R,0.0440X0.0320*%

%LPD*%
D47*
X806999Y-682899D02*
G01*
X806999Y-694899D01*
X746999Y-682899D02*
G01*
X746999Y-694899D01*
D48*
X469252Y-528899D02*
G01*
X425947Y-528899D01*
X469252Y-578899D02*
G01*
X425947Y-578899D01*
X469252Y-628899D02*
G01*
X425947Y-628899D01*
X469252Y-678899D02*
G01*
X425947Y-678899D01*
X674052Y-678899D02*
G01*
X630747Y-678899D01*
X674052Y-628899D02*
G01*
X630747Y-628899D01*
X674052Y-578899D02*
G01*
X630747Y-578899D01*
X674052Y-528899D02*
G01*
X630747Y-528899D01*
D47*
X2145452Y-723033D02*
G01*
X2136967Y-714546D01*
X2103032Y-765453D02*
G01*
X2094547Y-756966D01*
X535999Y-1509000D02*
G01*
X524000Y-1509000D01*
X535999Y-1569000D02*
G01*
X524000Y-1569000D01*
X2087476Y-545963D02*
G01*
X2095963Y-537476D01*
X2045047Y-503533D02*
G01*
X2053532Y-495046D01*
X1973032Y-414546D02*
G01*
X1964547Y-423033D01*
X2015452Y-456966D02*
G01*
X2006967Y-465453D01*
X1235452Y-1403033D02*
G01*
X1226967Y-1394546D01*
X1193032Y-1445453D02*
G01*
X1184547Y-1436966D01*
X746999Y-512899D02*
G01*
X746999Y-524899D01*
X806999Y-512899D02*
G01*
X806999Y-524899D01*
X524000Y-1450999D02*
G01*
X535999Y-1450999D01*
X524000Y-1390999D02*
G01*
X535999Y-1390999D01*
D49*
X820999Y-1430999D02*
G01*
X820999Y-1389000D01*
X730000Y-1430999D02*
G01*
X730000Y-1389000D01*
X640000Y-1430999D02*
G01*
X640000Y-1389000D01*
D50*
X756500Y-1654000D02*
G01*
X703499Y-1654000D01*
D51*
X1807299Y-998501D02*
G01*
X1787501Y-1018299D01*
X1785099Y-976201D02*
G01*
X1765300Y-995999D01*
X1762799Y-954000D02*
G01*
X1743001Y-973798D01*
X1740498Y-931700D02*
G01*
X1720700Y-951498D01*
X1718199Y-909400D02*
G01*
X1698401Y-929198D01*
X1695999Y-887201D02*
G01*
X1676201Y-906999D01*
X1673798Y-865001D02*
G01*
X1654000Y-884798D01*
X1651499Y-842701D02*
G01*
X1631701Y-862498D01*
X1568298Y-862498D02*
G01*
X1548500Y-842701D01*
X1545999Y-884798D02*
G01*
X1526201Y-865001D01*
X1523798Y-906999D02*
G01*
X1504000Y-887201D01*
X1501499Y-929299D02*
G01*
X1481701Y-909501D01*
X1479198Y-951599D02*
G01*
X1459400Y-931801D01*
X1456998Y-973798D02*
G01*
X1437200Y-954000D01*
X1434699Y-995999D02*
G01*
X1414900Y-976201D01*
X1412498Y-1018299D02*
G01*
X1392700Y-998501D01*
X1412498Y-1081700D02*
G01*
X1392700Y-1101498D01*
X1434699Y-1104000D02*
G01*
X1414900Y-1123798D01*
X1456998Y-1126201D02*
G01*
X1437200Y-1145999D01*
X1479198Y-1148400D02*
G01*
X1459400Y-1168198D01*
X1501499Y-1170700D02*
G01*
X1481701Y-1190498D01*
X1523798Y-1193000D02*
G01*
X1504000Y-1212799D01*
X1545999Y-1215300D02*
G01*
X1526201Y-1235099D01*
X1568298Y-1237501D02*
G01*
X1548500Y-1257298D01*
X1651499Y-1257298D02*
G01*
X1631701Y-1237501D01*
X1673798Y-1235099D02*
G01*
X1654000Y-1215300D01*
X1695999Y-1212799D02*
G01*
X1676201Y-1193000D01*
X1718199Y-1190599D02*
G01*
X1698401Y-1170801D01*
X1740498Y-1168299D02*
G01*
X1720700Y-1148501D01*
X1762799Y-1145999D02*
G01*
X1743001Y-1126201D01*
X1785099Y-1123798D02*
G01*
X1765300Y-1104000D01*
X1807299Y-1101498D02*
G01*
X1787501Y-1081700D01*
D52*
X533550Y-1800500D02*
G01*
X541449Y-1800500D01*
X533550Y-1638499D02*
G01*
X541449Y-1638499D01*
D53*
X292273Y-1988980D02*
G01*
X378886Y-1988980D01*
X197779Y-1756693D02*
G01*
X197779Y-1843306D01*
X434000Y-1843306D02*
G01*
X434000Y-1756693D01*
D54*
X417199Y-1570000D02*
G01*
X440799Y-1570000D01*
X417199Y-1390000D02*
G01*
X440799Y-1390000D01*
D55*
X800000Y-1903937D02*
G01*
X800000Y-1896062D01*
X900000Y-1903937D02*
G01*
X900000Y-1896062D01*
X1000000Y-1903937D02*
G01*
X1000000Y-1896062D01*
X800000Y-2003937D02*
G01*
X800000Y-1996062D01*
X900000Y-2003937D02*
G01*
X900000Y-1996062D01*
X1000000Y-2003937D02*
G01*
X1000000Y-1996062D01*
X1903936Y-2000000D02*
G01*
X1896063Y-2000000D01*
X1903936Y-1900000D02*
G01*
X1896063Y-1900000D01*
D56*
X164371Y-362989D02*
G01*
X117127Y-362989D01*
X164371Y-837010D02*
G01*
X117127Y-837010D01*
D47*
X554000Y-310000D02*
G01*
X565999Y-310000D01*
X554000Y-250000D02*
G01*
X565999Y-250000D01*
D57*
X2000000Y-2003937D02*
G01*
X2000000Y-1996062D01*
X2100000Y-2003937D02*
G01*
X2100000Y-1996062D01*
X2200000Y-2003937D02*
G01*
X2200000Y-1996062D01*
X2300000Y-2003937D02*
G01*
X2300000Y-1996062D01*
X2400000Y-2003937D02*
G01*
X2400000Y-1996062D01*
X2500000Y-2003937D02*
G01*
X2500000Y-1996062D01*
X1800000Y-1996062D02*
G01*
X1800000Y-2003937D01*
X1700000Y-1996062D02*
G01*
X1700000Y-2003937D01*
X1600000Y-1996062D02*
G01*
X1600000Y-2003937D01*
X1500000Y-1996062D02*
G01*
X1500000Y-2003937D01*
X1400000Y-1996062D02*
G01*
X1400000Y-2003937D01*
X1300000Y-1996062D02*
G01*
X1300000Y-2003937D01*
X1200000Y-1996062D02*
G01*
X1200000Y-2003937D01*
X1100000Y-1996062D02*
G01*
X1100000Y-2003937D01*
X1800000Y-103937D02*
G01*
X1800000Y-96062D01*
X1900000Y-103937D02*
G01*
X1900000Y-96062D01*
X2000000Y-103937D02*
G01*
X2000000Y-96062D01*
X2100000Y-103937D02*
G01*
X2100000Y-96062D01*
X2200000Y-103937D02*
G01*
X2200000Y-96062D01*
X2300000Y-103937D02*
G01*
X2300000Y-96062D01*
X2400000Y-103937D02*
G01*
X2400000Y-96062D01*
X2500000Y-103937D02*
G01*
X2500000Y-96062D01*
X740000Y-103937D02*
G01*
X740000Y-96062D01*
X840000Y-103937D02*
G01*
X840000Y-96062D01*
X940000Y-103937D02*
G01*
X940000Y-96062D01*
X1040000Y-103937D02*
G01*
X1040000Y-96062D01*
X1140000Y-103937D02*
G01*
X1140000Y-96062D01*
X1240000Y-103937D02*
G01*
X1240000Y-96062D01*
X1340000Y-103937D02*
G01*
X1340000Y-96062D01*
X1440000Y-103937D02*
G01*
X1440000Y-96062D01*
X1540000Y-103937D02*
G01*
X1540000Y-96062D01*
X1640000Y-103937D02*
G01*
X1640000Y-96062D01*
X2463936Y-1050000D02*
G01*
X2456063Y-1050000D01*
X2463936Y-1150000D02*
G01*
X2456063Y-1150000D01*
X2463936Y-1250000D02*
G01*
X2456063Y-1250000D01*
X2463936Y-1350000D02*
G01*
X2456063Y-1350000D01*
X2463936Y-1450000D02*
G01*
X2456063Y-1450000D01*
X1800000Y-203937D02*
G01*
X1800000Y-196062D01*
X1900000Y-203937D02*
G01*
X1900000Y-196062D01*
X2000000Y-203937D02*
G01*
X2000000Y-196062D01*
X2100000Y-203937D02*
G01*
X2100000Y-196062D01*
X2200000Y-203937D02*
G01*
X2200000Y-196062D01*
X2300000Y-203937D02*
G01*
X2300000Y-196062D01*
X2400000Y-203937D02*
G01*
X2400000Y-196062D01*
X2500000Y-203937D02*
G01*
X2500000Y-196062D01*
X740000Y-203937D02*
G01*
X740000Y-196062D01*
X840000Y-203937D02*
G01*
X840000Y-196062D01*
X940000Y-203937D02*
G01*
X940000Y-196062D01*
X1040000Y-203937D02*
G01*
X1040000Y-196062D01*
X1140000Y-203937D02*
G01*
X1140000Y-196062D01*
X1240000Y-203937D02*
G01*
X1240000Y-196062D01*
X1340000Y-203937D02*
G01*
X1340000Y-196062D01*
X1440000Y-203937D02*
G01*
X1440000Y-196062D01*
X1540000Y-203937D02*
G01*
X1540000Y-196062D01*
X1640000Y-203937D02*
G01*
X1640000Y-196062D01*
X2000000Y-1903937D02*
G01*
X2000000Y-1896062D01*
X2100000Y-1903937D02*
G01*
X2100000Y-1896062D01*
X2200000Y-1903937D02*
G01*
X2200000Y-1896062D01*
X2300000Y-1903937D02*
G01*
X2300000Y-1896062D01*
X2400000Y-1903937D02*
G01*
X2400000Y-1896062D01*
X2500000Y-1903937D02*
G01*
X2500000Y-1896062D01*
X1800000Y-1896062D02*
G01*
X1800000Y-1903937D01*
X1700000Y-1896062D02*
G01*
X1700000Y-1903937D01*
X1600000Y-1896062D02*
G01*
X1600000Y-1903937D01*
X1500000Y-1896062D02*
G01*
X1500000Y-1903937D01*
X1400000Y-1896062D02*
G01*
X1400000Y-1903937D01*
X1300000Y-1896062D02*
G01*
X1300000Y-1903937D01*
X1200000Y-1896062D02*
G01*
X1200000Y-1903937D01*
X1100000Y-1896062D02*
G01*
X1100000Y-1903937D01*
D58*
X819063Y-630900D02*
G01*
X812937Y-630900D01*
X741062Y-630900D02*
G01*
X734936Y-630900D01*
D59*
X1846376Y-825904D02*
G01*
X1838023Y-834256D01*
X1295165Y-901066D02*
G01*
X1286814Y-892714D01*
X1339715Y-856516D02*
G01*
X1331364Y-848164D01*
X1384255Y-811975D02*
G01*
X1375904Y-803623D01*
X1428796Y-767435D02*
G01*
X1420443Y-759083D01*
X1779556Y-1340916D02*
G01*
X1771203Y-1332564D01*
X1824095Y-1296376D02*
G01*
X1815744Y-1288024D01*
X1868645Y-1251835D02*
G01*
X1860294Y-1243483D01*
X1913185Y-1207285D02*
G01*
X1904834Y-1198933D01*
X1451066Y-1354834D02*
G01*
X1442713Y-1363186D01*
X1406516Y-1310293D02*
G01*
X1398163Y-1318645D01*
X1361976Y-1265743D02*
G01*
X1353623Y-1274095D01*
X1317435Y-1221203D02*
G01*
X1309084Y-1229555D01*
X1757286Y-736813D02*
G01*
X1748933Y-745165D01*
X1801836Y-781363D02*
G01*
X1793483Y-789715D01*
X1890915Y-870444D02*
G01*
X1882564Y-878796D01*
X1350846Y-1143254D02*
G01*
X1342493Y-1151606D01*
X1395385Y-1187804D02*
G01*
X1387034Y-1196156D01*
X1484466Y-1276884D02*
G01*
X1476113Y-1285235D01*
X1857506Y-948393D02*
G01*
X1849153Y-956745D01*
X1812965Y-903843D02*
G01*
X1804614Y-912195D01*
X1723886Y-814764D02*
G01*
X1715533Y-823116D01*
X1506746Y-800846D02*
G01*
X1498393Y-792494D01*
X1462196Y-845385D02*
G01*
X1453843Y-837033D01*
X1373116Y-934466D02*
G01*
X1364763Y-926113D01*
X1701606Y-1307516D02*
G01*
X1693253Y-1299164D01*
X1746156Y-1262966D02*
G01*
X1737803Y-1254614D01*
X1835236Y-1173886D02*
G01*
X1826884Y-1165533D01*
X1417655Y-889926D02*
G01*
X1409304Y-881574D01*
X1790695Y-1218425D02*
G01*
X1782344Y-1210073D01*
X1439925Y-1232343D02*
G01*
X1431574Y-1240695D01*
X1768425Y-859304D02*
G01*
X1760074Y-867656D01*
D60*
X326579Y-986140D02*
G01*
X285241Y-986140D01*
X326579Y-997950D02*
G01*
X285241Y-997950D01*
X326579Y-1017640D02*
G01*
X285241Y-1017640D01*
X326579Y-1029450D02*
G01*
X285241Y-1029450D01*
X326579Y-1051100D02*
G01*
X285241Y-1051100D01*
X326579Y-1070790D02*
G01*
X285241Y-1070790D01*
X326579Y-1090470D02*
G01*
X285241Y-1090470D01*
X326579Y-1110160D02*
G01*
X285241Y-1110160D01*
X326579Y-1129839D02*
G01*
X285241Y-1129839D01*
X326579Y-1149529D02*
G01*
X285241Y-1149529D01*
X326579Y-1169200D02*
G01*
X285241Y-1169200D01*
X326579Y-1188899D02*
G01*
X285241Y-1188899D01*
X326579Y-1210549D02*
G01*
X285241Y-1210549D01*
X326579Y-1222370D02*
G01*
X285241Y-1222370D01*
X326579Y-1242049D02*
G01*
X285241Y-1242049D01*
X326579Y-1253859D02*
G01*
X285241Y-1253859D01*
D61*
X114180Y-949920D02*
G01*
X90558Y-949920D01*
X114180Y-1290079D02*
G01*
X90558Y-1290079D01*
X288584Y-1290079D02*
G01*
X245277Y-1290079D01*
X288584Y-949920D02*
G01*
X245277Y-949920D01*
G36*
X790999Y-594899D02*
G01*
X790999Y-550900D01*
X823000Y-550900D01*
X823000Y-594899D01*
G37*
G36*
X730999Y-594899D02*
G01*
X730999Y-550900D01*
X763000Y-550900D01*
X763000Y-594899D01*
G37*
D63*
G01*
X367959Y-61419D03*
G01*
X112049Y-61419D03*
G01*
X112049Y-238589D03*
G01*
X367959Y-238589D03*
G36*
X678000Y-1101599D02*
G01*
X678000Y-1069600D01*
X721999Y-1069600D01*
X721999Y-1101599D01*
G37*
G36*
X678000Y-1161599D02*
G01*
X678000Y-1129600D01*
X721999Y-1129600D01*
X721999Y-1161599D01*
G37*
D64*
G01*
X700000Y-1014400D03*
G01*
X700000Y-954400D03*
G36*
X750399Y-1121599D02*
G01*
X750399Y-1058499D01*
X809600Y-1058499D01*
X809600Y-1121599D01*
G37*
G36*
X833099Y-1121599D02*
G01*
X833099Y-1058499D01*
X892300Y-1058499D01*
X892300Y-1121599D01*
G37*
G36*
X750399Y-1041599D02*
G01*
X750399Y-978499D01*
X809600Y-978499D01*
X809600Y-1041599D01*
G37*
G36*
X833099Y-1041599D02*
G01*
X833099Y-978499D01*
X892300Y-978499D01*
X892300Y-1041599D01*
G37*
G36*
X15999Y-1590300D02*
G01*
X15999Y-1369699D01*
X268099Y-1369699D01*
X268099Y-1590300D01*
G37*
G36*
X518000Y-1124699D02*
G01*
X518000Y-1077300D01*
X581999Y-1077300D01*
X581999Y-1124699D01*
G37*
G36*
X518000Y-1073699D02*
G01*
X518000Y-1026300D01*
X581999Y-1026300D01*
X581999Y-1073699D01*
G37*
G36*
X518000Y-1022699D02*
G01*
X518000Y-975300D01*
X581999Y-975300D01*
X581999Y-1022699D01*
G37*
D52*
G01*
X247440Y-650000D03*
G01*
X326179Y-650000D03*
G01*
X326179Y-550000D03*
G01*
X247440Y-550000D03*
D55*
G01*
X2010709Y-640709D03*
G01*
X1869290Y-499290D03*
M02*
