G04*
G04 #@! TF.GenerationSoftware,Altium Limited,Altium Designer,21.3.1 (25)*
G04*
G04 Layer_Color=128*
%FSLAX25Y25*%
%MOIN*%
G70*
G04*
G04 #@! TF.SameCoordinates,6E72ECCA-13D7-4729-AA9F-09D3C02CDA07*
G04*
G04*
G04 #@! TF.FilePolarity,Positive*
G04*
G01*
G75*
%ADD93C,0.00200*%
D93*
X376134Y-101D02*
X378102D01*
X377118Y-1085D02*
Y883D01*
X376134Y-28447D02*
X378102D01*
X377118Y-29432D02*
Y-27463D01*
X362472Y-28447D02*
X364441D01*
X363457Y-29432D02*
Y-27463D01*
X362472Y-101D02*
X364441D01*
X363457Y-1085D02*
Y883D01*
X370917Y-6400D02*
X373083D01*
X372000Y-7483D02*
Y-5317D01*
X370917Y-22148D02*
X373083D01*
X372000Y-23231D02*
Y-21065D01*
X377870Y47900D02*
X380232D01*
X379051Y46719D02*
Y49081D01*
X396768Y47900D02*
X399130D01*
X397949Y46719D02*
Y49081D01*
X557419Y5700D02*
X559781D01*
X558600Y4519D02*
Y6881D01*
X557419Y24598D02*
X559781D01*
X558600Y23416D02*
Y25779D01*
X458428Y-86528D02*
X461972D01*
X460200Y-88299D02*
Y-84756D01*
X468428Y-86528D02*
X471972D01*
X470200Y-88299D02*
Y-84756D01*
X478428Y-86528D02*
X481972D01*
X480200Y-88299D02*
Y-84756D01*
X488428Y-86528D02*
X491972D01*
X490200Y-88299D02*
Y-84756D01*
X498428Y-86528D02*
X501972D01*
X500200Y-88299D02*
Y-84756D01*
X508428Y-86528D02*
X511972D01*
X510200Y-88299D02*
Y-84756D01*
X518428Y-86528D02*
X521972D01*
X520200Y-88299D02*
Y-84756D01*
X528428Y-86528D02*
X531972D01*
X530200Y-88299D02*
Y-84756D01*
X593828Y-86528D02*
X597372D01*
X595600Y-88299D02*
Y-84756D01*
X583828Y-86528D02*
X587372D01*
X585600Y-88299D02*
Y-84756D01*
X573828Y-86528D02*
X577372D01*
X575600Y-88299D02*
Y-84756D01*
X563828Y-86528D02*
X567372D01*
X565600Y-88299D02*
Y-84756D01*
X553828Y-86528D02*
X557372D01*
X555600Y-88299D02*
Y-84756D01*
X543828Y-86528D02*
X547372D01*
X545600Y-88299D02*
Y-84756D01*
X529828Y104972D02*
X533372D01*
X531600Y103201D02*
Y106744D01*
X539828Y104972D02*
X543372D01*
X541600Y103201D02*
Y106744D01*
X549828Y104972D02*
X553372D01*
X551600Y103201D02*
Y106744D01*
X559828Y104972D02*
X563372D01*
X561600Y103201D02*
Y106744D01*
X569828Y104972D02*
X573372D01*
X571600Y103201D02*
Y106744D01*
X579828Y104972D02*
X583372D01*
X581600Y103201D02*
Y106744D01*
X589828Y104972D02*
X593372D01*
X591600Y103201D02*
Y106744D01*
X599828Y104972D02*
X603372D01*
X601600Y103201D02*
Y106744D01*
X514528Y104972D02*
X518072D01*
X516300Y103201D02*
Y106744D01*
X504528Y104972D02*
X508072D01*
X506300Y103201D02*
Y106744D01*
X494528Y104972D02*
X498072D01*
X496300Y103201D02*
Y106744D01*
X484528Y104972D02*
X488072D01*
X486300Y103201D02*
Y106744D01*
X474528Y104972D02*
X478072D01*
X476300Y103201D02*
Y106744D01*
X464528Y104972D02*
X468072D01*
X466300Y103201D02*
Y106744D01*
X454528Y104972D02*
X458072D01*
X456300Y103201D02*
Y106744D01*
X444528Y104972D02*
X448072D01*
X446300Y103201D02*
Y106744D01*
X434528Y104972D02*
X438072D01*
X436300Y103201D02*
Y106744D01*
X424528Y104972D02*
X428072D01*
X426300Y103201D02*
Y106744D01*
X444132Y90700D02*
X448069D01*
X446100Y88731D02*
Y92668D01*
X454132Y90700D02*
X458069D01*
X456100Y88731D02*
Y92668D01*
X464131Y90700D02*
X468069D01*
X466100Y88731D02*
Y92668D01*
X474131Y90700D02*
X478068D01*
X476100Y88731D02*
Y92668D01*
X484131Y90700D02*
X488068D01*
X486100Y88731D02*
Y92668D01*
X494132Y90700D02*
X498069D01*
X496100Y88731D02*
Y92668D01*
X504132Y90700D02*
X508069D01*
X506100Y88731D02*
Y92668D01*
X514131Y90700D02*
X518069D01*
X516100Y88731D02*
Y92668D01*
X434131Y90700D02*
X438068D01*
X436100Y88731D02*
Y92668D01*
X424131Y90700D02*
X428068D01*
X426100Y88731D02*
Y92668D01*
X528231Y-72600D02*
X532168D01*
X530200Y-74568D02*
Y-70631D01*
X518231Y-72600D02*
X522168D01*
X520200Y-74568D02*
Y-70631D01*
X508231Y-72600D02*
X512169D01*
X510200Y-74568D02*
Y-70631D01*
X498232Y-72600D02*
X502169D01*
X500200Y-74568D02*
Y-70631D01*
X488232Y-72600D02*
X492169D01*
X490200Y-74568D02*
Y-70631D01*
X478231Y-72600D02*
X482168D01*
X480200Y-74568D02*
Y-70631D01*
X468231Y-72600D02*
X472168D01*
X470200Y-74568D02*
Y-70631D01*
X458231Y-72600D02*
X462169D01*
X460200Y-74568D02*
Y-70631D01*
X529832Y90700D02*
X533769D01*
X531800Y88731D02*
Y92668D01*
X539831Y90700D02*
X543769D01*
X541800Y88731D02*
Y92668D01*
X549831Y90700D02*
X553768D01*
X551800Y88731D02*
Y92668D01*
X559831Y90700D02*
X563768D01*
X561800Y88731D02*
Y92668D01*
X569832Y90700D02*
X573769D01*
X571800Y88731D02*
Y92668D01*
X579832Y90700D02*
X583769D01*
X581800Y88731D02*
Y92668D01*
X589831Y90700D02*
X593769D01*
X591800Y88731D02*
Y92668D01*
X599831Y90700D02*
X603768D01*
X601800Y88731D02*
Y92668D01*
X593632Y-72700D02*
X597569D01*
X595600Y-74669D02*
Y-70732D01*
X583632Y-72700D02*
X587569D01*
X585600Y-74669D02*
Y-70732D01*
X573631Y-72700D02*
X577568D01*
X575600Y-74669D02*
Y-70732D01*
X563631Y-72700D02*
X567568D01*
X565600Y-74669D02*
Y-70732D01*
X553631Y-72700D02*
X557569D01*
X555600Y-74669D02*
Y-70732D01*
X543632Y-72700D02*
X547569D01*
X545600Y-74669D02*
Y-70732D01*
X581470Y-40872D02*
X585407D01*
X583439Y-42841D02*
Y-38904D01*
X591470Y-40872D02*
X595407D01*
X593439Y-42841D02*
Y-38904D01*
X601470Y-40872D02*
X605407D01*
X603439Y-42841D02*
Y-38904D01*
X611470Y-40872D02*
X615407D01*
X613439Y-42841D02*
Y-38904D01*
X581470Y-27536D02*
X585407D01*
X583439Y-29505D02*
Y-25568D01*
X591470Y-27536D02*
X595407D01*
X593439Y-29505D02*
Y-25568D01*
X601470Y-27536D02*
X605407D01*
X603439Y-29505D02*
Y-25568D01*
X611470Y-27536D02*
X615407D01*
X613439Y-29505D02*
Y-25568D01*
X581470Y-14200D02*
X585407D01*
X583439Y-16169D02*
Y-12231D01*
X591470Y-14200D02*
X595407D01*
X593439Y-16169D02*
Y-12231D01*
X601470Y-14200D02*
X605407D01*
X603439Y-16169D02*
Y-12231D01*
X611470Y-14200D02*
X615407D01*
X613439Y-16169D02*
Y-12231D01*
X600932Y26000D02*
X604869D01*
X602900Y24032D02*
Y27968D01*
X600931Y6000D02*
X604868D01*
X602900Y4031D02*
Y7969D01*
X600932Y16000D02*
X604869D01*
X602900Y14031D02*
Y17968D01*
X610931Y6000D02*
X614868D01*
X612900Y4031D02*
Y7969D01*
X610931Y16000D02*
X614868D01*
X612900Y14031D02*
Y17968D01*
X610931Y26000D02*
X614868D01*
X612900Y24032D02*
Y27968D01*
X366728Y-54650D02*
X370272D01*
X368500Y-56422D02*
Y-52878D01*
X366728Y-64650D02*
X370272D01*
X368500Y-66422D02*
Y-62878D01*
X425828Y-54650D02*
X429372D01*
X427600Y-56422D02*
Y-52878D01*
X425828Y-64650D02*
X429372D01*
X427600Y-66422D02*
Y-62878D01*
X563510Y57100D02*
X564690D01*
X564100Y56510D02*
Y57691D01*
X593309Y49600D02*
X594490D01*
X593900Y49009D02*
Y50191D01*
X600609Y56400D02*
X601791D01*
X601200Y55809D02*
Y56990D01*
X594410Y56500D02*
X595590D01*
X595000Y55910D02*
Y57091D01*
X564409Y32300D02*
X565590D01*
X565000Y31709D02*
Y32891D01*
X508410Y13700D02*
X509590D01*
X509000Y13110D02*
Y14290D01*
X512910Y13500D02*
X514090D01*
X513500Y12910D02*
Y14090D01*
X562910Y-49800D02*
X564090D01*
X563500Y-50391D02*
Y-49209D01*
X469709Y-20900D02*
X470891D01*
X470300Y-21490D02*
Y-20310D01*
X459119Y-28510D02*
X460300D01*
X459710Y-29100D02*
Y-27919D01*
X517809Y22300D02*
X518991D01*
X518400Y21710D02*
Y22891D01*
X585110Y32900D02*
X586291D01*
X585700Y32309D02*
Y33491D01*
X585110Y46500D02*
X586291D01*
X585700Y45909D02*
Y47091D01*
X492610Y74900D02*
X493790D01*
X493200Y74309D02*
Y75490D01*
X471899Y14490D02*
X473081D01*
X472490Y13899D02*
Y15080D01*
X486399Y14490D02*
X487581D01*
X486990Y13899D02*
Y15080D01*
X431110Y24000D02*
X432291D01*
X431700Y23410D02*
Y24590D01*
X431110Y9900D02*
X432291D01*
X431700Y9309D02*
Y10491D01*
X431110Y-12400D02*
X432291D01*
X431700Y-12991D02*
Y-11809D01*
X456849Y-340D02*
X458030D01*
X457440Y-930D02*
Y251D01*
X403610Y22900D02*
X404790D01*
X404200Y22309D02*
Y23491D01*
X398609Y26600D02*
X399791D01*
X399200Y26009D02*
Y27191D01*
X456779Y27830D02*
X457960D01*
X457370Y27240D02*
Y28421D01*
X388610Y-12500D02*
X389791D01*
X389200Y-13091D02*
Y-11909D01*
X383610Y-6400D02*
X384790D01*
X384200Y-6991D02*
Y-5809D01*
X388610Y23900D02*
X389791D01*
X389200Y23310D02*
Y24490D01*
X383610Y26700D02*
X384790D01*
X384200Y26109D02*
Y27291D01*
X355410Y25100D02*
X356591D01*
X356000Y24509D02*
Y25691D01*
X541110Y-15100D02*
X542290D01*
X541700Y-15690D02*
Y-14510D01*
X516110Y-21100D02*
X517290D01*
X516700Y-21690D02*
Y-20509D01*
X435709Y-400D02*
X436891D01*
X436300Y-991D02*
Y191D01*
X540909Y-6900D02*
X542091D01*
X541500Y-7491D02*
Y-6309D01*
X504310Y21900D02*
X505490D01*
X504900Y21309D02*
Y22490D01*
X492410Y40500D02*
X493590D01*
X493000Y39909D02*
Y41091D01*
X583310Y25000D02*
X584490D01*
X583900Y24409D02*
Y25591D01*
X513610Y4500D02*
X514790D01*
X514200Y3909D02*
Y5091D01*
X526759Y27150D02*
X527941D01*
X527350Y26559D02*
Y27741D01*
X459369Y7360D02*
X460551D01*
X459960Y6769D02*
Y7950D01*
X464910Y3900D02*
X466090D01*
X465500Y3309D02*
Y4491D01*
X502509Y3900D02*
X503690D01*
X503100Y3309D02*
Y4491D01*
X507969Y7360D02*
X509151D01*
X508560Y6769D02*
Y7950D01*
M02*
