G04*
G04 #@! TF.GenerationSoftware,Altium Limited,Altium Designer,21.3.1 (25)*
G04*
G04 Layer_Color=2752767*
%FSLAX25Y25*%
%MOIN*%
G70*
G04*
G04 #@! TF.SameCoordinates,6E72ECCA-13D7-4729-AA9F-09D3C02CDA07*
G04*
G04*
G04 #@! TF.FilePolarity,Positive*
G04*
G01*
G75*
%ADD93C,0.00200*%
%ADD94C,0.00267*%
D93*
X376318Y-901D02*
Y699D01*
X377918D01*
Y-901D01*
X376318D01*
Y-29247D02*
Y-27647D01*
X377918D01*
Y-29247D01*
X376318D01*
X362657D02*
Y-27647D01*
X364257D01*
Y-29247D01*
X362657D01*
Y-901D02*
Y699D01*
X364257D01*
Y-901D01*
X362657D01*
X379051Y47100D02*
X378251Y48700D01*
X379851D01*
X379051Y47100D01*
X397949D02*
X397149Y48700D01*
X398749D01*
X397949Y47100D01*
X558600Y4900D02*
X557800Y6500D01*
X559400D01*
X558600Y4900D01*
Y23798D02*
X557800Y25398D01*
X559400D01*
X558600Y23798D01*
X460200Y-87328D02*
X460600Y-86928D01*
X461000D01*
X460600Y-86528D01*
X461000Y-86128D01*
X460600D01*
X460200Y-85728D01*
X459800Y-86128D01*
X459400D01*
X459800Y-86528D01*
X459400Y-86928D01*
X459800D01*
X460200Y-87328D01*
X470200D02*
X470600Y-86928D01*
X471000D01*
X470600Y-86528D01*
X471000Y-86128D01*
X470600D01*
X470200Y-85728D01*
X469800Y-86128D01*
X469400D01*
X469800Y-86528D01*
X469400Y-86928D01*
X469800D01*
X470200Y-87328D01*
X480200D02*
X480600Y-86928D01*
X481000D01*
X480600Y-86528D01*
X481000Y-86128D01*
X480600D01*
X480200Y-85728D01*
X479800Y-86128D01*
X479400D01*
X479800Y-86528D01*
X479400Y-86928D01*
X479800D01*
X480200Y-87328D01*
X490200D02*
X490600Y-86928D01*
X491000D01*
X490600Y-86528D01*
X491000Y-86128D01*
X490600D01*
X490200Y-85728D01*
X489800Y-86128D01*
X489400D01*
X489800Y-86528D01*
X489400Y-86928D01*
X489800D01*
X490200Y-87328D01*
X500200D02*
X500600Y-86928D01*
X501000D01*
X500600Y-86528D01*
X501000Y-86128D01*
X500600D01*
X500200Y-85728D01*
X499800Y-86128D01*
X499400D01*
X499800Y-86528D01*
X499400Y-86928D01*
X499800D01*
X500200Y-87328D01*
X510200D02*
X510600Y-86928D01*
X511000D01*
X510600Y-86528D01*
X511000Y-86128D01*
X510600D01*
X510200Y-85728D01*
X509800Y-86128D01*
X509400D01*
X509800Y-86528D01*
X509400Y-86928D01*
X509800D01*
X510200Y-87328D01*
X520200D02*
X520600Y-86928D01*
X521000D01*
X520600Y-86528D01*
X521000Y-86128D01*
X520600D01*
X520200Y-85728D01*
X519800Y-86128D01*
X519400D01*
X519800Y-86528D01*
X519400Y-86928D01*
X519800D01*
X520200Y-87328D01*
X530200D02*
X530600Y-86928D01*
X531000D01*
X530600Y-86528D01*
X531000Y-86128D01*
X530600D01*
X530200Y-85728D01*
X529800Y-86128D01*
X529400D01*
X529800Y-86528D01*
X529400Y-86928D01*
X529800D01*
X530200Y-87328D01*
X595600D02*
X596000Y-86928D01*
X596400D01*
X596000Y-86528D01*
X596400Y-86128D01*
X596000D01*
X595600Y-85728D01*
X595200Y-86128D01*
X594800D01*
X595200Y-86528D01*
X594800Y-86928D01*
X595200D01*
X595600Y-87328D01*
X585600D02*
X586000Y-86928D01*
X586400D01*
X586000Y-86528D01*
X586400Y-86128D01*
X586000D01*
X585600Y-85728D01*
X585200Y-86128D01*
X584800D01*
X585200Y-86528D01*
X584800Y-86928D01*
X585200D01*
X585600Y-87328D01*
X575600D02*
X576000Y-86928D01*
X576400D01*
X576000Y-86528D01*
X576400Y-86128D01*
X576000D01*
X575600Y-85728D01*
X575200Y-86128D01*
X574800D01*
X575200Y-86528D01*
X574800Y-86928D01*
X575200D01*
X575600Y-87328D01*
X565600D02*
X566000Y-86928D01*
X566400D01*
X566000Y-86528D01*
X566400Y-86128D01*
X566000D01*
X565600Y-85728D01*
X565200Y-86128D01*
X564800D01*
X565200Y-86528D01*
X564800Y-86928D01*
X565200D01*
X565600Y-87328D01*
X555600D02*
X556000Y-86928D01*
X556400D01*
X556000Y-86528D01*
X556400Y-86128D01*
X556000D01*
X555600Y-85728D01*
X555200Y-86128D01*
X554800D01*
X555200Y-86528D01*
X554800Y-86928D01*
X555200D01*
X555600Y-87328D01*
X545600D02*
X546000Y-86928D01*
X546400D01*
X546000Y-86528D01*
X546400Y-86128D01*
X546000D01*
X545600Y-85728D01*
X545200Y-86128D01*
X544800D01*
X545200Y-86528D01*
X544800Y-86928D01*
X545200D01*
X545600Y-87328D01*
X531600Y104172D02*
X532000Y104572D01*
X532400D01*
X532000Y104972D01*
X532400Y105372D01*
X532000D01*
X531600Y105772D01*
X531200Y105372D01*
X530800D01*
X531200Y104972D01*
X530800Y104572D01*
X531200D01*
X531600Y104172D01*
X541600D02*
X542000Y104572D01*
X542400D01*
X542000Y104972D01*
X542400Y105372D01*
X542000D01*
X541600Y105772D01*
X541200Y105372D01*
X540800D01*
X541200Y104972D01*
X540800Y104572D01*
X541200D01*
X541600Y104172D01*
X551600D02*
X552000Y104572D01*
X552400D01*
X552000Y104972D01*
X552400Y105372D01*
X552000D01*
X551600Y105772D01*
X551200Y105372D01*
X550800D01*
X551200Y104972D01*
X550800Y104572D01*
X551200D01*
X551600Y104172D01*
X561600D02*
X562000Y104572D01*
X562400D01*
X562000Y104972D01*
X562400Y105372D01*
X562000D01*
X561600Y105772D01*
X561200Y105372D01*
X560800D01*
X561200Y104972D01*
X560800Y104572D01*
X561200D01*
X561600Y104172D01*
X571600D02*
X572000Y104572D01*
X572400D01*
X572000Y104972D01*
X572400Y105372D01*
X572000D01*
X571600Y105772D01*
X571200Y105372D01*
X570800D01*
X571200Y104972D01*
X570800Y104572D01*
X571200D01*
X571600Y104172D01*
X581600D02*
X582000Y104572D01*
X582400D01*
X582000Y104972D01*
X582400Y105372D01*
X582000D01*
X581600Y105772D01*
X581200Y105372D01*
X580800D01*
X581200Y104972D01*
X580800Y104572D01*
X581200D01*
X581600Y104172D01*
X591600D02*
X592000Y104572D01*
X592400D01*
X592000Y104972D01*
X592400Y105372D01*
X592000D01*
X591600Y105772D01*
X591200Y105372D01*
X590800D01*
X591200Y104972D01*
X590800Y104572D01*
X591200D01*
X591600Y104172D01*
X601600D02*
X602000Y104572D01*
X602400D01*
X602000Y104972D01*
X602400Y105372D01*
X602000D01*
X601600Y105772D01*
X601200Y105372D01*
X600800D01*
X601200Y104972D01*
X600800Y104572D01*
X601200D01*
X601600Y104172D01*
X516300D02*
X516700Y104572D01*
X517100D01*
X516700Y104972D01*
X517100Y105372D01*
X516700D01*
X516300Y105772D01*
X515900Y105372D01*
X515500D01*
X515900Y104972D01*
X515500Y104572D01*
X515900D01*
X516300Y104172D01*
X506300D02*
X506700Y104572D01*
X507100D01*
X506700Y104972D01*
X507100Y105372D01*
X506700D01*
X506300Y105772D01*
X505900Y105372D01*
X505500D01*
X505900Y104972D01*
X505500Y104572D01*
X505900D01*
X506300Y104172D01*
X496300D02*
X496700Y104572D01*
X497100D01*
X496700Y104972D01*
X497100Y105372D01*
X496700D01*
X496300Y105772D01*
X495900Y105372D01*
X495500D01*
X495900Y104972D01*
X495500Y104572D01*
X495900D01*
X496300Y104172D01*
X486300D02*
X486700Y104572D01*
X487100D01*
X486700Y104972D01*
X487100Y105372D01*
X486700D01*
X486300Y105772D01*
X485900Y105372D01*
X485500D01*
X485900Y104972D01*
X485500Y104572D01*
X485900D01*
X486300Y104172D01*
X476300D02*
X476700Y104572D01*
X477100D01*
X476700Y104972D01*
X477100Y105372D01*
X476700D01*
X476300Y105772D01*
X475900Y105372D01*
X475500D01*
X475900Y104972D01*
X475500Y104572D01*
X475900D01*
X476300Y104172D01*
X466300D02*
X466700Y104572D01*
X467100D01*
X466700Y104972D01*
X467100Y105372D01*
X466700D01*
X466300Y105772D01*
X465900Y105372D01*
X465500D01*
X465900Y104972D01*
X465500Y104572D01*
X465900D01*
X466300Y104172D01*
X456300D02*
X456700Y104572D01*
X457100D01*
X456700Y104972D01*
X457100Y105372D01*
X456700D01*
X456300Y105772D01*
X455900Y105372D01*
X455500D01*
X455900Y104972D01*
X455500Y104572D01*
X455900D01*
X456300Y104172D01*
X446300D02*
X446700Y104572D01*
X447100D01*
X446700Y104972D01*
X447100Y105372D01*
X446700D01*
X446300Y105772D01*
X445900Y105372D01*
X445500D01*
X445900Y104972D01*
X445500Y104572D01*
X445900D01*
X446300Y104172D01*
X436300D02*
X436700Y104572D01*
X437100D01*
X436700Y104972D01*
X437100Y105372D01*
X436700D01*
X436300Y105772D01*
X435900Y105372D01*
X435500D01*
X435900Y104972D01*
X435500Y104572D01*
X435900D01*
X436300Y104172D01*
X426300D02*
X426700Y104572D01*
X427100D01*
X426700Y104972D01*
X427100Y105372D01*
X426700D01*
X426300Y105772D01*
X425900Y105372D01*
X425500D01*
X425900Y104972D01*
X425500Y104572D01*
X425900D01*
X426300Y104172D01*
X445300Y89900D02*
X445700Y90700D01*
X445300Y91500D01*
X446100Y91100D01*
X446900Y91500D01*
X446500Y90700D01*
X446900Y89900D01*
X446100Y90300D01*
X445300Y89900D01*
X455300D02*
X455700Y90700D01*
X455300Y91500D01*
X456100Y91100D01*
X456900Y91500D01*
X456500Y90700D01*
X456900Y89900D01*
X456100Y90300D01*
X455300Y89900D01*
X465300D02*
X465700Y90700D01*
X465300Y91500D01*
X466100Y91100D01*
X466900Y91500D01*
X466500Y90700D01*
X466900Y89900D01*
X466100Y90300D01*
X465300Y89900D01*
X475300D02*
X475700Y90700D01*
X475300Y91500D01*
X476100Y91100D01*
X476900Y91500D01*
X476500Y90700D01*
X476900Y89900D01*
X476100Y90300D01*
X475300Y89900D01*
X485300D02*
X485700Y90700D01*
X485300Y91500D01*
X486100Y91100D01*
X486900Y91500D01*
X486500Y90700D01*
X486900Y89900D01*
X486100Y90300D01*
X485300Y89900D01*
X495300D02*
X495700Y90700D01*
X495300Y91500D01*
X496100Y91100D01*
X496900Y91500D01*
X496500Y90700D01*
X496900Y89900D01*
X496100Y90300D01*
X495300Y89900D01*
X505300D02*
X505700Y90700D01*
X505300Y91500D01*
X506100Y91100D01*
X506900Y91500D01*
X506500Y90700D01*
X506900Y89900D01*
X506100Y90300D01*
X505300Y89900D01*
X515300D02*
X515700Y90700D01*
X515300Y91500D01*
X516100Y91100D01*
X516900Y91500D01*
X516500Y90700D01*
X516900Y89900D01*
X516100Y90300D01*
X515300Y89900D01*
X435300D02*
X435700Y90700D01*
X435300Y91500D01*
X436100Y91100D01*
X436900Y91500D01*
X436500Y90700D01*
X436900Y89900D01*
X436100Y90300D01*
X435300Y89900D01*
X425300D02*
X425700Y90700D01*
X425300Y91500D01*
X426100Y91100D01*
X426900Y91500D01*
X426500Y90700D01*
X426900Y89900D01*
X426100Y90300D01*
X425300Y89900D01*
X529400Y-73400D02*
X529800Y-72600D01*
X529400Y-71800D01*
X530200Y-72200D01*
X531000Y-71800D01*
X530600Y-72600D01*
X531000Y-73400D01*
X530200Y-73000D01*
X529400Y-73400D01*
X519400D02*
X519800Y-72600D01*
X519400Y-71800D01*
X520200Y-72200D01*
X521000Y-71800D01*
X520600Y-72600D01*
X521000Y-73400D01*
X520200Y-73000D01*
X519400Y-73400D01*
X509400D02*
X509800Y-72600D01*
X509400Y-71800D01*
X510200Y-72200D01*
X511000Y-71800D01*
X510600Y-72600D01*
X511000Y-73400D01*
X510200Y-73000D01*
X509400Y-73400D01*
X499400D02*
X499800Y-72600D01*
X499400Y-71800D01*
X500200Y-72200D01*
X501000Y-71800D01*
X500600Y-72600D01*
X501000Y-73400D01*
X500200Y-73000D01*
X499400Y-73400D01*
X489400D02*
X489800Y-72600D01*
X489400Y-71800D01*
X490200Y-72200D01*
X491000Y-71800D01*
X490600Y-72600D01*
X491000Y-73400D01*
X490200Y-73000D01*
X489400Y-73400D01*
X479400D02*
X479800Y-72600D01*
X479400Y-71800D01*
X480200Y-72200D01*
X481000Y-71800D01*
X480600Y-72600D01*
X481000Y-73400D01*
X480200Y-73000D01*
X479400Y-73400D01*
X469400D02*
X469800Y-72600D01*
X469400Y-71800D01*
X470200Y-72200D01*
X471000Y-71800D01*
X470600Y-72600D01*
X471000Y-73400D01*
X470200Y-73000D01*
X469400Y-73400D01*
X459400D02*
X459800Y-72600D01*
X459400Y-71800D01*
X460200Y-72200D01*
X461000Y-71800D01*
X460600Y-72600D01*
X461000Y-73400D01*
X460200Y-73000D01*
X459400Y-73400D01*
X531000Y89900D02*
X531400Y90700D01*
X531000Y91500D01*
X531800Y91100D01*
X532600Y91500D01*
X532200Y90700D01*
X532600Y89900D01*
X531800Y90300D01*
X531000Y89900D01*
X541000D02*
X541400Y90700D01*
X541000Y91500D01*
X541800Y91100D01*
X542600Y91500D01*
X542200Y90700D01*
X542600Y89900D01*
X541800Y90300D01*
X541000Y89900D01*
X551000D02*
X551400Y90700D01*
X551000Y91500D01*
X551800Y91100D01*
X552600Y91500D01*
X552200Y90700D01*
X552600Y89900D01*
X551800Y90300D01*
X551000Y89900D01*
X561000D02*
X561400Y90700D01*
X561000Y91500D01*
X561800Y91100D01*
X562600Y91500D01*
X562200Y90700D01*
X562600Y89900D01*
X561800Y90300D01*
X561000Y89900D01*
X571000D02*
X571400Y90700D01*
X571000Y91500D01*
X571800Y91100D01*
X572600Y91500D01*
X572200Y90700D01*
X572600Y89900D01*
X571800Y90300D01*
X571000Y89900D01*
X581000D02*
X581400Y90700D01*
X581000Y91500D01*
X581800Y91100D01*
X582600Y91500D01*
X582200Y90700D01*
X582600Y89900D01*
X581800Y90300D01*
X581000Y89900D01*
X591000D02*
X591400Y90700D01*
X591000Y91500D01*
X591800Y91100D01*
X592600Y91500D01*
X592200Y90700D01*
X592600Y89900D01*
X591800Y90300D01*
X591000Y89900D01*
X601000D02*
X601400Y90700D01*
X601000Y91500D01*
X601800Y91100D01*
X602600Y91500D01*
X602200Y90700D01*
X602600Y89900D01*
X601800Y90300D01*
X601000Y89900D01*
X594800Y-73500D02*
X595200Y-72700D01*
X594800Y-71900D01*
X595600Y-72300D01*
X596400Y-71900D01*
X596000Y-72700D01*
X596400Y-73500D01*
X595600Y-73100D01*
X594800Y-73500D01*
X584800D02*
X585200Y-72700D01*
X584800Y-71900D01*
X585600Y-72300D01*
X586400Y-71900D01*
X586000Y-72700D01*
X586400Y-73500D01*
X585600Y-73100D01*
X584800Y-73500D01*
X574800D02*
X575200Y-72700D01*
X574800Y-71900D01*
X575600Y-72300D01*
X576400Y-71900D01*
X576000Y-72700D01*
X576400Y-73500D01*
X575600Y-73100D01*
X574800Y-73500D01*
X564800D02*
X565200Y-72700D01*
X564800Y-71900D01*
X565600Y-72300D01*
X566400Y-71900D01*
X566000Y-72700D01*
X566400Y-73500D01*
X565600Y-73100D01*
X564800Y-73500D01*
X554800D02*
X555200Y-72700D01*
X554800Y-71900D01*
X555600Y-72300D01*
X556400Y-71900D01*
X556000Y-72700D01*
X556400Y-73500D01*
X555600Y-73100D01*
X554800Y-73500D01*
X544800D02*
X545200Y-72700D01*
X544800Y-71900D01*
X545600Y-72300D01*
X546400Y-71900D01*
X546000Y-72700D01*
X546400Y-73500D01*
X545600Y-73100D01*
X544800Y-73500D01*
X582639Y-41672D02*
X583039Y-40872D01*
X582639Y-40072D01*
X583439Y-40472D01*
X584239Y-40072D01*
X583839Y-40872D01*
X584239Y-41672D01*
X583439Y-41272D01*
X582639Y-41672D01*
X592639D02*
X593039Y-40872D01*
X592639Y-40072D01*
X593439Y-40472D01*
X594239Y-40072D01*
X593839Y-40872D01*
X594239Y-41672D01*
X593439Y-41272D01*
X592639Y-41672D01*
X602639D02*
X603039Y-40872D01*
X602639Y-40072D01*
X603439Y-40472D01*
X604239Y-40072D01*
X603839Y-40872D01*
X604239Y-41672D01*
X603439Y-41272D01*
X602639Y-41672D01*
X612639D02*
X613039Y-40872D01*
X612639Y-40072D01*
X613439Y-40472D01*
X614239Y-40072D01*
X613839Y-40872D01*
X614239Y-41672D01*
X613439Y-41272D01*
X612639Y-41672D01*
X582639Y-28336D02*
X583039Y-27536D01*
X582639Y-26736D01*
X583439Y-27136D01*
X584239Y-26736D01*
X583839Y-27536D01*
X584239Y-28336D01*
X583439Y-27936D01*
X582639Y-28336D01*
X592639D02*
X593039Y-27536D01*
X592639Y-26736D01*
X593439Y-27136D01*
X594239Y-26736D01*
X593839Y-27536D01*
X594239Y-28336D01*
X593439Y-27936D01*
X592639Y-28336D01*
X602639D02*
X603039Y-27536D01*
X602639Y-26736D01*
X603439Y-27136D01*
X604239Y-26736D01*
X603839Y-27536D01*
X604239Y-28336D01*
X603439Y-27936D01*
X602639Y-28336D01*
X612639D02*
X613039Y-27536D01*
X612639Y-26736D01*
X613439Y-27136D01*
X614239Y-26736D01*
X613839Y-27536D01*
X614239Y-28336D01*
X613439Y-27936D01*
X612639Y-28336D01*
X582639Y-15000D02*
X583039Y-14200D01*
X582639Y-13400D01*
X583439Y-13800D01*
X584239Y-13400D01*
X583839Y-14200D01*
X584239Y-15000D01*
X583439Y-14600D01*
X582639Y-15000D01*
X592639D02*
X593039Y-14200D01*
X592639Y-13400D01*
X593439Y-13800D01*
X594239Y-13400D01*
X593839Y-14200D01*
X594239Y-15000D01*
X593439Y-14600D01*
X592639Y-15000D01*
X602639D02*
X603039Y-14200D01*
X602639Y-13400D01*
X603439Y-13800D01*
X604239Y-13400D01*
X603839Y-14200D01*
X604239Y-15000D01*
X603439Y-14600D01*
X602639Y-15000D01*
X612639D02*
X613039Y-14200D01*
X612639Y-13400D01*
X613439Y-13800D01*
X614239Y-13400D01*
X613839Y-14200D01*
X614239Y-15000D01*
X613439Y-14600D01*
X612639Y-15000D01*
X602100Y25200D02*
X602500Y26000D01*
X602100Y26800D01*
X602900Y26400D01*
X603700Y26800D01*
X603300Y26000D01*
X603700Y25200D01*
X602900Y25600D01*
X602100Y25200D01*
X602100Y5200D02*
X602500Y6000D01*
X602100Y6800D01*
X602900Y6400D01*
X603700Y6800D01*
X603300Y6000D01*
X603700Y5200D01*
X602900Y5600D01*
X602100Y5200D01*
X602100Y15200D02*
X602500Y16000D01*
X602100Y16800D01*
X602900Y16400D01*
X603700Y16800D01*
X603300Y16000D01*
X603700Y15200D01*
X602900Y15600D01*
X602100Y15200D01*
X612100Y5200D02*
X612500Y6000D01*
X612100Y6800D01*
X612900Y6400D01*
X613700Y6800D01*
X613300Y6000D01*
X613700Y5200D01*
X612900Y5600D01*
X612100Y5200D01*
Y15200D02*
X612500Y16000D01*
X612100Y16800D01*
X612900Y16400D01*
X613700Y16800D01*
X613300Y16000D01*
X613700Y15200D01*
X612900Y15600D01*
X612100Y15200D01*
Y25200D02*
X612500Y26000D01*
X612100Y26800D01*
X612900Y26400D01*
X613700Y26800D01*
X613300Y26000D01*
X613700Y25200D01*
X612900Y25600D01*
X612100Y25200D01*
X368500Y-55450D02*
X368900Y-55050D01*
X369300D01*
X368900Y-54650D01*
X369300Y-54250D01*
X368900D01*
X368500Y-53850D01*
X368100Y-54250D01*
X367700D01*
X368100Y-54650D01*
X367700Y-55050D01*
X368100D01*
X368500Y-55450D01*
Y-65450D02*
X368900Y-65050D01*
X369300D01*
X368900Y-64650D01*
X369300Y-64250D01*
X368900D01*
X368500Y-63850D01*
X368100Y-64250D01*
X367700D01*
X368100Y-64650D01*
X367700Y-65050D01*
X368100D01*
X368500Y-65450D01*
X427600Y-55450D02*
X428000Y-55050D01*
X428400D01*
X428000Y-54650D01*
X428400Y-54250D01*
X428000D01*
X427600Y-53850D01*
X427200Y-54250D01*
X426800D01*
X427200Y-54650D01*
X426800Y-55050D01*
X427200D01*
X427600Y-55450D01*
Y-65450D02*
X428000Y-65050D01*
X428400D01*
X428000Y-64650D01*
X428400Y-64250D01*
X428000D01*
X427600Y-63850D01*
X427200Y-64250D01*
X426800D01*
X427200Y-64650D01*
X426800Y-65050D01*
X427200D01*
X427600Y-65450D01*
X563700Y56700D02*
Y56300D01*
X564500D01*
Y56700D01*
X564900D01*
Y57500D01*
X564500D01*
Y57900D01*
X563700D01*
Y57500D01*
X563300D01*
Y56700D01*
X563700D01*
X593500Y49200D02*
Y48800D01*
X594300D01*
Y49200D01*
X594700D01*
Y50000D01*
X594300D01*
Y50400D01*
X593500D01*
Y50000D01*
X593100D01*
Y49200D01*
X593500D01*
X600800Y56000D02*
Y55600D01*
X601600D01*
Y56000D01*
X602000D01*
Y56800D01*
X601600D01*
Y57200D01*
X600800D01*
Y56800D01*
X600400D01*
Y56000D01*
X600800D01*
X594600Y56100D02*
Y55700D01*
X595400D01*
Y56100D01*
X595800D01*
Y56900D01*
X595400D01*
Y57300D01*
X594600D01*
Y56900D01*
X594200D01*
Y56100D01*
X594600D01*
X564600Y31900D02*
Y31500D01*
X565400D01*
Y31900D01*
X565800D01*
Y32700D01*
X565400D01*
Y33100D01*
X564600D01*
Y32700D01*
X564200D01*
Y31900D01*
X564600D01*
X508600Y13300D02*
Y12900D01*
X509400D01*
Y13300D01*
X509800D01*
Y14100D01*
X509400D01*
Y14500D01*
X508600D01*
Y14100D01*
X508200D01*
Y13300D01*
X508600D01*
X513100Y13100D02*
Y12700D01*
X513900D01*
Y13100D01*
X514300D01*
Y13900D01*
X513900D01*
Y14300D01*
X513100D01*
Y13900D01*
X512700D01*
Y13100D01*
X513100D01*
X563100Y-50200D02*
Y-50600D01*
X563900D01*
Y-50200D01*
X564300D01*
Y-49400D01*
X563900D01*
Y-49000D01*
X563100D01*
Y-49400D01*
X562700D01*
Y-50200D01*
X563100D01*
X469900Y-21300D02*
Y-21700D01*
X470700D01*
Y-21300D01*
X471100D01*
Y-20500D01*
X470700D01*
Y-20100D01*
X469900D01*
Y-20500D01*
X469500D01*
Y-21300D01*
X469900D01*
X459310Y-28910D02*
Y-29310D01*
X460110D01*
Y-28910D01*
X460510D01*
Y-28110D01*
X460110D01*
Y-27710D01*
X459310D01*
Y-28110D01*
X458910D01*
Y-28910D01*
X459310D01*
X518000Y21900D02*
Y21500D01*
X518800D01*
Y21900D01*
X519200D01*
Y22700D01*
X518800D01*
Y23100D01*
X518000D01*
Y22700D01*
X517600D01*
Y21900D01*
X518000D01*
X585300Y32500D02*
Y32100D01*
X586100D01*
Y32500D01*
X586500D01*
Y33300D01*
X586100D01*
Y33700D01*
X585300D01*
Y33300D01*
X584900D01*
Y32500D01*
X585300D01*
Y46100D02*
Y45700D01*
X586100D01*
Y46100D01*
X586500D01*
Y46900D01*
X586100D01*
Y47300D01*
X585300D01*
Y46900D01*
X584900D01*
Y46100D01*
X585300D01*
X492800Y74500D02*
Y74100D01*
X493600D01*
Y74500D01*
X494000D01*
Y75300D01*
X493600D01*
Y75700D01*
X492800D01*
Y75300D01*
X492400D01*
Y74500D01*
X492800D01*
X472090Y14090D02*
Y13690D01*
X472890D01*
Y14090D01*
X473290D01*
Y14890D01*
X472890D01*
Y15290D01*
X472090D01*
Y14890D01*
X471690D01*
Y14090D01*
X472090D01*
X486590D02*
Y13690D01*
X487390D01*
Y14090D01*
X487790D01*
Y14890D01*
X487390D01*
Y15290D01*
X486590D01*
Y14890D01*
X486190D01*
Y14090D01*
X486590D01*
X431300Y23600D02*
Y23200D01*
X432100D01*
Y23600D01*
X432500D01*
Y24400D01*
X432100D01*
Y24800D01*
X431300D01*
Y24400D01*
X430900D01*
Y23600D01*
X431300D01*
Y9500D02*
Y9100D01*
X432100D01*
Y9500D01*
X432500D01*
Y10300D01*
X432100D01*
Y10700D01*
X431300D01*
Y10300D01*
X430900D01*
Y9500D01*
X431300D01*
Y-12800D02*
Y-13200D01*
X432100D01*
Y-12800D01*
X432500D01*
Y-12000D01*
X432100D01*
Y-11600D01*
X431300D01*
Y-12000D01*
X430900D01*
Y-12800D01*
X431300D01*
X457040Y-740D02*
Y-1140D01*
X457840D01*
Y-740D01*
X458240D01*
Y60D01*
X457840D01*
Y460D01*
X457040D01*
Y60D01*
X456640D01*
Y-740D01*
X457040D01*
X403800Y22500D02*
Y22100D01*
X404600D01*
Y22500D01*
X405000D01*
Y23300D01*
X404600D01*
Y23700D01*
X403800D01*
Y23300D01*
X403400D01*
Y22500D01*
X403800D01*
X398800Y26200D02*
Y25800D01*
X399600D01*
Y26200D01*
X400000D01*
Y27000D01*
X399600D01*
Y27400D01*
X398800D01*
Y27000D01*
X398400D01*
Y26200D01*
X398800D01*
X456970Y27430D02*
Y27030D01*
X457770D01*
Y27430D01*
X458170D01*
Y28230D01*
X457770D01*
Y28630D01*
X456970D01*
Y28230D01*
X456570D01*
Y27430D01*
X456970D01*
X388800Y-12900D02*
Y-13300D01*
X389600D01*
Y-12900D01*
X390000D01*
Y-12100D01*
X389600D01*
Y-11700D01*
X388800D01*
Y-12100D01*
X388400D01*
Y-12900D01*
X388800D01*
X383800Y-6800D02*
Y-7200D01*
X384600D01*
Y-6800D01*
X385000D01*
Y-6000D01*
X384600D01*
Y-5600D01*
X383800D01*
Y-6000D01*
X383400D01*
Y-6800D01*
X383800D01*
X388800Y23500D02*
Y23100D01*
X389600D01*
Y23500D01*
X390000D01*
Y24300D01*
X389600D01*
Y24700D01*
X388800D01*
Y24300D01*
X388400D01*
Y23500D01*
X388800D01*
X383800Y26300D02*
Y25900D01*
X384600D01*
Y26300D01*
X385000D01*
Y27100D01*
X384600D01*
Y27500D01*
X383800D01*
Y27100D01*
X383400D01*
Y26300D01*
X383800D01*
X355600Y24700D02*
Y24300D01*
X356400D01*
Y24700D01*
X356800D01*
Y25500D01*
X356400D01*
Y25900D01*
X355600D01*
Y25500D01*
X355200D01*
Y24700D01*
X355600D01*
X541300Y-15500D02*
Y-15900D01*
X542100D01*
Y-15500D01*
X542500D01*
Y-14700D01*
X542100D01*
Y-14300D01*
X541300D01*
Y-14700D01*
X540900D01*
Y-15500D01*
X541300D01*
X516300Y-21500D02*
Y-21900D01*
X517100D01*
Y-21500D01*
X517500D01*
Y-20700D01*
X517100D01*
Y-20300D01*
X516300D01*
Y-20700D01*
X515900D01*
Y-21500D01*
X516300D01*
X435900Y-800D02*
Y-1200D01*
X436700D01*
Y-800D01*
X437100D01*
Y0D01*
X436700D01*
Y400D01*
X435900D01*
Y0D01*
X435500D01*
Y-800D01*
X435900D01*
X541100Y-7300D02*
Y-7700D01*
X541900D01*
Y-7300D01*
X542300D01*
Y-6500D01*
X541900D01*
Y-6100D01*
X541100D01*
Y-6500D01*
X540700D01*
Y-7300D01*
X541100D01*
X504500Y21500D02*
Y21100D01*
X505300D01*
Y21500D01*
X505700D01*
Y22300D01*
X505300D01*
Y22700D01*
X504500D01*
Y22300D01*
X504100D01*
Y21500D01*
X504500D01*
X492600Y40100D02*
Y39700D01*
X493400D01*
Y40100D01*
X493800D01*
Y40900D01*
X493400D01*
Y41300D01*
X492600D01*
Y40900D01*
X492200D01*
Y40100D01*
X492600D01*
X583500Y24600D02*
Y24200D01*
X584300D01*
Y24600D01*
X584700D01*
Y25400D01*
X584300D01*
Y25800D01*
X583500D01*
Y25400D01*
X583100D01*
Y24600D01*
X583500D01*
X513800Y4100D02*
Y3700D01*
X514600D01*
Y4100D01*
X515000D01*
Y4900D01*
X514600D01*
Y5300D01*
X513800D01*
Y4900D01*
X513400D01*
Y4100D01*
X513800D01*
X526950Y26750D02*
Y26350D01*
X527750D01*
Y26750D01*
X528150D01*
Y27550D01*
X527750D01*
Y27950D01*
X526950D01*
Y27550D01*
X526550D01*
Y26750D01*
X526950D01*
X459560Y6960D02*
Y6560D01*
X460360D01*
Y6960D01*
X460760D01*
Y7760D01*
X460360D01*
Y8160D01*
X459560D01*
Y7760D01*
X459160D01*
Y6960D01*
X459560D01*
X465100Y3500D02*
Y3100D01*
X465900D01*
Y3500D01*
X466300D01*
Y4300D01*
X465900D01*
Y4700D01*
X465100D01*
Y4300D01*
X464700D01*
Y3500D01*
X465100D01*
X502700D02*
Y3100D01*
X503500D01*
Y3500D01*
X503900D01*
Y4300D01*
X503500D01*
Y4700D01*
X502700D01*
Y4300D01*
X502300D01*
Y3500D01*
X502700D01*
X508160Y6960D02*
Y6560D01*
X508960D01*
Y6960D01*
X509360D01*
Y7760D01*
X508960D01*
Y8160D01*
X508160D01*
Y7760D01*
X507760D01*
Y6960D01*
X508160D01*
D94*
X372800Y-6400D02*
G03*
X372800Y-6400I-800J0D01*
G01*
Y-22148D02*
G03*
X372800Y-22148I-800J0D01*
G01*
M02*
