G04*
G04 #@! TF.GenerationSoftware,Altium Limited,Altium Designer,21.3.1 (25)*
G04*
G04 Layer_Color=255*
%FSLAX25Y25*%
%MOIN*%
G70*
G04*
G04 #@! TF.SameCoordinates,6E72ECCA-13D7-4729-AA9F-09D3C02CDA07*
G04*
G04*
G04 #@! TF.FilePolarity,Positive*
G04*
G01*
G75*
G04:AMPARAMS|DCode=26|XSize=60mil|YSize=50mil|CornerRadius=0mil|HoleSize=0mil|Usage=FLASHONLY|Rotation=0.000|XOffset=0mil|YOffset=0mil|HoleType=Round|Shape=Octagon|*
%AMOCTAGOND26*
4,1,8,0.03000,-0.01250,0.03000,0.01250,0.01750,0.02500,-0.01750,0.02500,-0.03000,0.01250,-0.03000,-0.01250,-0.01750,-0.02500,0.01750,-0.02500,0.03000,-0.01250,0.0*
%
%ADD26OCTAGOND26*%

%ADD27R,0.06000X0.05000*%
%ADD28R,0.08465X0.01500*%
%ADD29R,0.05900X0.07900*%
%ADD30R,0.15000X0.07900*%
%ADD31O,0.10630X0.03937*%
%ADD32R,0.10630X0.03937*%
%ADD33O,0.01968X0.07874*%
%ADD34O,0.07874X0.01968*%
%ADD35R,0.03937X0.04724*%
%ADD36R,0.04331X0.04331*%
%ADD37R,0.04724X0.03937*%
%ADD38R,0.04724X0.03543*%
%ADD39R,0.03543X0.04724*%
%ADD40R,0.01772X0.05118*%
%ADD71O,0.07874X0.04724*%
%ADD72C,0.05118*%
%ADD73C,0.06693*%
%ADD74R,0.06693X0.06693*%
%ADD75O,0.06693X0.08661*%
%ADD76O,0.07874X0.02362*%
G04:AMPARAMS|DCode=77|XSize=23.62mil|YSize=78.74mil|CornerRadius=0mil|HoleSize=0mil|Usage=FLASHONLY|Rotation=120.000|XOffset=0mil|YOffset=0mil|HoleType=Round|Shape=Round|*
%AMOVALD77*
21,1,0.05512,0.02362,0.00000,0.00000,210.0*
1,1,0.02362,0.02387,0.01378*
1,1,0.02362,-0.02387,-0.01378*
%
%ADD77OVALD77*%

G04:AMPARAMS|DCode=78|XSize=23.62mil|YSize=78.74mil|CornerRadius=0mil|HoleSize=0mil|Usage=FLASHONLY|Rotation=240.000|XOffset=0mil|YOffset=0mil|HoleType=Round|Shape=Round|*
%AMOVALD78*
21,1,0.05512,0.02362,0.00000,0.00000,330.0*
1,1,0.02362,-0.02387,0.01378*
1,1,0.02362,0.02387,-0.01378*
%
%ADD78OVALD78*%

%ADD79O,0.06693X0.08661*%
G04:AMPARAMS|DCode=80|XSize=23.62mil|YSize=78.74mil|CornerRadius=0mil|HoleSize=0mil|Usage=FLASHONLY|Rotation=301.000|XOffset=0mil|YOffset=0mil|HoleType=Round|Shape=Round|*
%AMOVALD80*
21,1,0.05512,0.02362,0.00000,0.00000,31.0*
1,1,0.02362,-0.02362,-0.01419*
1,1,0.02362,0.02362,0.01419*
%
%ADD80OVALD80*%

%ADD81C,0.07480*%
%ADD82C,0.07087*%
%ADD83C,0.04724*%
%ADD84O,0.08268X0.07087*%
D26*
X451700Y65300D02*
D03*
Y9400D02*
D03*
Y37130D02*
D03*
D27*
X441700Y65300D02*
D03*
Y9400D02*
D03*
Y37130D02*
D03*
D28*
X375898Y-9156D02*
D03*
Y-11715D02*
D03*
Y-14274D02*
D03*
Y-16833D02*
D03*
Y-19392D02*
D03*
D29*
X393690Y-48000D02*
D03*
X411800D02*
D03*
X402745D02*
D03*
D30*
X402812Y-73354D02*
D03*
D31*
X368977Y76200D02*
D03*
Y93917D02*
D03*
X403623D02*
D03*
D32*
Y76200D02*
D03*
D33*
X521224Y-4087D02*
D03*
X518074D02*
D03*
X514924D02*
D03*
X511775D02*
D03*
X508625D02*
D03*
X505476D02*
D03*
X502326D02*
D03*
X499176D02*
D03*
Y29797D02*
D03*
X502326D02*
D03*
X505476D02*
D03*
X508625D02*
D03*
X511775D02*
D03*
X514924D02*
D03*
X518074D02*
D03*
X521224D02*
D03*
D34*
X493258Y1776D02*
D03*
Y4926D02*
D03*
Y8076D02*
D03*
Y11225D02*
D03*
Y14375D02*
D03*
Y17524D02*
D03*
Y20674D02*
D03*
Y23824D02*
D03*
X527142Y23824D02*
D03*
Y20674D02*
D03*
Y17524D02*
D03*
Y14375D02*
D03*
Y11225D02*
D03*
Y8076D02*
D03*
Y4926D02*
D03*
Y1776D02*
D03*
D35*
X450737Y-9730D02*
D03*
X442863D02*
D03*
X377574Y62000D02*
D03*
X369700D02*
D03*
X388131D02*
D03*
X396006D02*
D03*
X406563D02*
D03*
X414437D02*
D03*
X442863Y-28510D02*
D03*
X450737D02*
D03*
X442863Y-19120D02*
D03*
X450737D02*
D03*
X442863Y-37900D02*
D03*
X450737D02*
D03*
D36*
X592600Y8507D02*
D03*
Y21893D02*
D03*
D37*
X383800Y-63576D02*
D03*
Y-55702D02*
D03*
X573700Y-3600D02*
D03*
Y4274D02*
D03*
X573800Y37537D02*
D03*
Y29663D02*
D03*
X420000Y16926D02*
D03*
Y24800D02*
D03*
X443800Y-63576D02*
D03*
Y-55702D02*
D03*
X362900Y16926D02*
D03*
Y24800D02*
D03*
D38*
X573800Y20674D02*
D03*
Y12800D02*
D03*
X583600Y9663D02*
D03*
Y17537D02*
D03*
D39*
X450737Y46610D02*
D03*
X442863D02*
D03*
X450737Y27830D02*
D03*
X442863D02*
D03*
X450737Y18440D02*
D03*
X442863D02*
D03*
X450737Y-340D02*
D03*
X442863D02*
D03*
Y56000D02*
D03*
X450737D02*
D03*
D40*
X409200Y9589D02*
D03*
X399200Y33211D02*
D03*
X404200D02*
D03*
X379200D02*
D03*
Y9589D02*
D03*
X384200D02*
D03*
X394200Y33211D02*
D03*
Y9589D02*
D03*
X384200Y33211D02*
D03*
X389200D02*
D03*
Y9589D02*
D03*
X399200D02*
D03*
X404200D02*
D03*
X374200D02*
D03*
Y33211D02*
D03*
X409200D02*
D03*
D71*
X377118Y-101D02*
D03*
Y-28447D02*
D03*
X363457D02*
D03*
Y-101D02*
D03*
D72*
X379051Y47900D02*
D03*
X397949D02*
D03*
X558600Y5700D02*
D03*
Y24598D02*
D03*
D73*
X460200Y-86528D02*
D03*
X470200D02*
D03*
X480200D02*
D03*
X490200D02*
D03*
X500200D02*
D03*
X510200D02*
D03*
X520200D02*
D03*
X595600D02*
D03*
X585600D02*
D03*
X575600D02*
D03*
X565600D02*
D03*
X555600D02*
D03*
X531600Y104972D02*
D03*
X541600D02*
D03*
X551600D02*
D03*
X561600D02*
D03*
X571600D02*
D03*
X581600D02*
D03*
X591600D02*
D03*
X506300D02*
D03*
X496300D02*
D03*
X486300D02*
D03*
X476300D02*
D03*
X466300D02*
D03*
X456300D02*
D03*
X446300D02*
D03*
X436300D02*
D03*
X426300D02*
D03*
D74*
X530200Y-86528D02*
D03*
X545600D02*
D03*
X601600Y104972D02*
D03*
X516300D02*
D03*
D75*
X446100Y90700D02*
D03*
X456100D02*
D03*
X466100D02*
D03*
X476100D02*
D03*
X486100D02*
D03*
X496100D02*
D03*
X506100D02*
D03*
X516100D02*
D03*
X436100D02*
D03*
X426100D02*
D03*
X530200Y-72600D02*
D03*
X520200D02*
D03*
X510200D02*
D03*
X500200D02*
D03*
X490200D02*
D03*
X480200D02*
D03*
X470200D02*
D03*
X460200D02*
D03*
X531800Y90700D02*
D03*
X541800D02*
D03*
X551800D02*
D03*
X561800D02*
D03*
X571800D02*
D03*
X581800D02*
D03*
X591800D02*
D03*
X601800D02*
D03*
D76*
X423108D02*
D03*
X457208Y-72600D02*
D03*
X604792Y90700D02*
D03*
X598592Y-72700D02*
D03*
X616431Y-40872D02*
D03*
X580446D02*
D03*
X616431Y-27536D02*
D03*
X580446D02*
D03*
X616431Y-14200D02*
D03*
X580446D02*
D03*
D77*
X423108Y92275D02*
D03*
X457208Y-71025D02*
D03*
X604792Y89125D02*
D03*
X598592Y-74275D02*
D03*
X580446Y-39298D02*
D03*
Y-25961D02*
D03*
Y-12625D02*
D03*
D78*
X423108Y89125D02*
D03*
X457208Y-74175D02*
D03*
X604792Y92275D02*
D03*
X598592Y-71125D02*
D03*
X616431Y-39298D02*
D03*
X580446Y-42447D02*
D03*
X616431Y-25961D02*
D03*
X580446Y-29111D02*
D03*
X616431Y-12625D02*
D03*
X580446Y-15775D02*
D03*
D79*
X595600Y-72700D02*
D03*
X585600D02*
D03*
X575600D02*
D03*
X565600D02*
D03*
X555600D02*
D03*
X545600D02*
D03*
X583439Y-40872D02*
D03*
X593439D02*
D03*
X603439D02*
D03*
X613439D02*
D03*
X583439Y-27536D02*
D03*
X593439D02*
D03*
X603439D02*
D03*
X613439D02*
D03*
X583439Y-14200D02*
D03*
X593439D02*
D03*
X603439D02*
D03*
X613439D02*
D03*
D80*
X616431Y-42447D02*
D03*
Y-29111D02*
D03*
Y-15775D02*
D03*
D81*
X602900Y26000D02*
D03*
X602900Y6000D02*
D03*
X602900Y16000D02*
D03*
D82*
X612900Y6000D02*
D03*
Y16000D02*
D03*
Y26000D02*
D03*
D83*
X366366Y-66352D02*
D03*
X370484Y-52966D02*
D03*
X425466Y-66352D02*
D03*
X429584Y-52966D02*
D03*
D84*
X368500Y-54650D02*
D03*
Y-64650D02*
D03*
X427600Y-54650D02*
D03*
Y-64650D02*
D03*
M02*
