G04*
G04 #@! TF.GenerationSoftware,Altium Limited,Altium Designer,21.3.1 (25)*
G04*
G04 Layer_Color=32768*
%FSLAX25Y25*%
%MOIN*%
G70*
G04*
G04 #@! TF.SameCoordinates,6E72ECCA-13D7-4729-AA9F-09D3C02CDA07*
G04*
G04*
G04 #@! TF.FilePolarity,Positive*
G04*
G01*
G75*
%ADD18C,0.00394*%
%ADD92C,0.00197*%
D18*
X488200Y34800D02*
X532200D01*
X488200Y-9200D02*
Y34800D01*
Y-9200D02*
X532200D01*
Y34800D01*
D92*
X448078Y65300D02*
G03*
X448078Y65300I-1378J0D01*
G01*
Y9400D02*
G03*
X448078Y9400I-1378J0D01*
G01*
Y37130D02*
G03*
X448078Y37130I-1378J0D01*
G01*
X364835Y-14274D02*
G03*
X364835Y-14274I-1378J0D01*
G01*
X387678Y85100D02*
G03*
X387678Y85100I-1378J0D01*
G01*
X389878Y47900D02*
G03*
X389878Y47900I-1378J0D01*
G01*
X559978Y15149D02*
G03*
X559978Y15149I-1378J0D01*
G01*
X511578Y12800D02*
G03*
X511578Y12800I-1378J0D01*
G01*
X446700Y63331D02*
Y67268D01*
X444732Y65300D02*
X448668D01*
X446700Y7431D02*
Y11368D01*
X444732Y9400D02*
X448668D01*
X446700Y35161D02*
Y39098D01*
X444732Y37130D02*
X448668D01*
X361488Y-14274D02*
X365425D01*
X363457Y-16242D02*
Y-12306D01*
X384331Y85100D02*
X388268D01*
X386300Y83131D02*
Y87068D01*
X388500Y45932D02*
Y49869D01*
X386531Y47900D02*
X390469D01*
X556632Y15149D02*
X560569D01*
X558600Y13180D02*
Y17117D01*
X508231Y12800D02*
X512169D01*
X510200Y10831D02*
Y14769D01*
M02*
