M48
;Layer_Color=9474304
;FILE_FORMAT=2:5
INCH,LZ
;TYPE=PLATED
T1F00S00C0.01181
T3F00S00C0.02362
T4F00S00C0.03543
T5F00S00C0.03937
;TYPE=NON_PLATED
T6F00S00C0.02165
%
T01
X05635Y-00498
X05417Y-00151
X05415Y-00069
X0565Y00323
X05857Y00329
X05839Y0025
X052735Y002715
X05184Y00223
X05135Y00135
X0509Y00137
X050856Y000736
X05142Y00045
X05031Y00039
X05049Y00219
X048699Y001449
X047249
X04655Y00039
X045996Y000736
X045744Y-000034
X04363Y-00004
X04317Y00099
Y0024
X04042Y00229
X03992Y00266
X03892Y00239
X03842Y00267
Y-00064
X03892Y-00125
X04317Y-00124
X045971Y-002851
X04703Y-00209
X05167Y-00211
X045737Y002783
X0356Y00251
X0493Y00405
X04932Y00749
X05641Y00571
X0595Y00565
X06012Y00564
X05939Y00496
X05857Y00465
T03
X05586Y00057
Y0024598
X0397949Y00479
X0379051
T04
X05302Y-0086528
X05456
X05556
X05656
X05756
X05856
X05956
X05202
X05102
X05002
X04902
X04802
X04702
X04602
X04276Y-006465
Y-005465
X03685
Y-006465
X04263Y0104972
X04363
X04463
X04563
X04663
X04763
X04863
X04963
X05063
X05163
X05316
X05416
X05516
X05616
X05716
X05816
X05916
X06016
T05
X05302Y-00726
X05456Y-00727
X05556
X05656
X05756
X05856
X05956
X0593439Y-0040872
X0583439
Y-0027536
X0593439
X0603439
X0613439
Y-0040872
X0603439
Y-00142
X0593439
X0583439
X0613439
X06129Y0006
Y0016
X06029Y0016
Y0026
X06129
X06029Y0006
X05202Y-00726
X05102
X05002
X04902
X04802
X04702
X04602
X04561Y00907
X04461
X04361
X04261
X04661
X04761
X04861
X04961
X05061
X05161
X05318
X05418
X05518
X05618
X05718
X05818
X05918
X06018
T06
X0372Y-0022148
Y-00064
M30
