G04*
G04 #@! TF.GenerationSoftware,Altium Limited,Altium Designer,21.3.1 (25)*
G04*
G04 Layer_Color=65535*
%FSLAX25Y25*%
%MOIN*%
G70*
G04*
G04 #@! TF.SameCoordinates,6E72ECCA-13D7-4729-AA9F-09D3C02CDA07*
G04*
G04*
G04 #@! TF.FilePolarity,Positive*
G04*
G01*
G75*
%ADD10C,0.01000*%
%ADD11C,0.00800*%
%ADD12C,0.02000*%
%ADD13C,0.01968*%
%ADD14C,0.00787*%
%ADD15C,0.01181*%
%ADD16C,0.03937*%
%ADD17C,0.00600*%
%ADD18C,0.00394*%
%ADD19C,0.01575*%
%ADD20C,0.00492*%
%ADD21C,0.00472*%
%ADD22C,0.00591*%
%ADD23R,0.05512X0.01575*%
%ADD24R,0.01575X0.05512*%
%ADD25R,0.01575X0.05512*%
G36*
X572887Y84321D02*
X572943Y84314D01*
X572998Y84307D01*
X573067Y84293D01*
X573136Y84273D01*
X573296Y84224D01*
X573385Y84190D01*
X573469Y84141D01*
X573552Y84093D01*
X573635Y84037D01*
X573718Y83968D01*
X573801Y83892D01*
X573808Y83885D01*
X573821Y83871D01*
X573835Y83851D01*
X573863Y83816D01*
X573898Y83775D01*
X573932Y83719D01*
X573967Y83657D01*
X574001Y83595D01*
X574043Y83518D01*
X574078Y83435D01*
X574112Y83345D01*
X574147Y83249D01*
X574174Y83145D01*
X574188Y83034D01*
X574202Y82916D01*
X574209Y82799D01*
Y82743D01*
X574202Y82702D01*
X574195Y82647D01*
X574188Y82591D01*
X574181Y82522D01*
X574167Y82453D01*
X574126Y82294D01*
X574057Y82127D01*
X574022Y82044D01*
X573974Y81968D01*
X573918Y81885D01*
X573856Y81809D01*
X573849Y81802D01*
X573842Y81795D01*
X573821Y81775D01*
X573794Y81747D01*
X573752Y81719D01*
X573711Y81685D01*
X573662Y81643D01*
X573607Y81608D01*
X573469Y81525D01*
X573309Y81456D01*
X573130Y81394D01*
X573033Y81373D01*
X572929Y81359D01*
X572853Y81920D01*
X572860D01*
X572873Y81927D01*
X572901D01*
X572929Y81941D01*
X573012Y81961D01*
X573116Y81996D01*
X573226Y82038D01*
X573344Y82093D01*
X573448Y82162D01*
X573538Y82238D01*
X573545Y82252D01*
X573572Y82280D01*
X573600Y82328D01*
X573642Y82397D01*
X573676Y82473D01*
X573711Y82570D01*
X573738Y82681D01*
X573745Y82799D01*
Y82840D01*
X573738Y82868D01*
X573732Y82937D01*
X573711Y83027D01*
X573676Y83138D01*
X573635Y83249D01*
X573565Y83359D01*
X573476Y83463D01*
X573462Y83477D01*
X573427Y83505D01*
X573372Y83546D01*
X573289Y83601D01*
X573192Y83650D01*
X573074Y83691D01*
X572943Y83719D01*
X572797Y83733D01*
X572790D01*
X572784D01*
X572763D01*
X572735Y83726D01*
X572666Y83719D01*
X572576Y83698D01*
X572479Y83671D01*
X572368Y83622D01*
X572264Y83560D01*
X572168Y83477D01*
X572154Y83463D01*
X572126Y83435D01*
X572091Y83380D01*
X572043Y83304D01*
X571995Y83214D01*
X571960Y83103D01*
X571932Y82986D01*
X571918Y82847D01*
Y82785D01*
X571925Y82736D01*
X571932Y82681D01*
X571939Y82612D01*
X571953Y82536D01*
X571974Y82453D01*
X571483Y82515D01*
Y82550D01*
X571489Y82577D01*
Y82667D01*
X571483Y82730D01*
X571469Y82819D01*
X571448Y82916D01*
X571413Y83020D01*
X571372Y83131D01*
X571310Y83242D01*
X571303Y83255D01*
X571275Y83290D01*
X571227Y83332D01*
X571164Y83387D01*
X571088Y83442D01*
X570991Y83484D01*
X570874Y83518D01*
X570735Y83532D01*
X570728D01*
X570721D01*
X570687D01*
X570631Y83518D01*
X570555Y83505D01*
X570479Y83484D01*
X570396Y83442D01*
X570306Y83394D01*
X570230Y83325D01*
X570223Y83318D01*
X570195Y83290D01*
X570161Y83242D01*
X570126Y83179D01*
X570085Y83103D01*
X570057Y83013D01*
X570029Y82910D01*
X570022Y82792D01*
Y82736D01*
X570036Y82674D01*
X570050Y82605D01*
X570071Y82515D01*
X570112Y82425D01*
X570161Y82335D01*
X570230Y82245D01*
X570237Y82238D01*
X570265Y82210D01*
X570313Y82176D01*
X570382Y82134D01*
X570465Y82086D01*
X570569Y82044D01*
X570694Y82003D01*
X570839Y81975D01*
X570742Y81415D01*
X570735D01*
X570714Y81422D01*
X570687Y81429D01*
X570652Y81436D01*
X570604Y81449D01*
X570548Y81463D01*
X570424Y81512D01*
X570285Y81567D01*
X570140Y81650D01*
X570002Y81747D01*
X569877Y81871D01*
X569870Y81878D01*
X569863Y81885D01*
X569849Y81906D01*
X569829Y81941D01*
X569808Y81975D01*
X569780Y82017D01*
X569718Y82121D01*
X569663Y82252D01*
X569614Y82411D01*
X569580Y82584D01*
X569566Y82681D01*
Y82840D01*
X569573Y82910D01*
X569586Y82999D01*
X569607Y83103D01*
X569635Y83221D01*
X569676Y83338D01*
X569732Y83456D01*
Y83463D01*
X569739Y83470D01*
X569760Y83512D01*
X569794Y83567D01*
X569842Y83636D01*
X569905Y83712D01*
X569981Y83795D01*
X570071Y83871D01*
X570168Y83941D01*
X570182Y83947D01*
X570216Y83968D01*
X570271Y83996D01*
X570341Y84024D01*
X570431Y84051D01*
X570528Y84079D01*
X570631Y84100D01*
X570749Y84107D01*
X570763D01*
X570797D01*
X570853Y84100D01*
X570922Y84086D01*
X571005Y84065D01*
X571095Y84037D01*
X571192Y84003D01*
X571282Y83947D01*
X571296Y83941D01*
X571323Y83920D01*
X571365Y83878D01*
X571420Y83830D01*
X571483Y83761D01*
X571545Y83684D01*
X571614Y83588D01*
X571669Y83477D01*
Y83484D01*
X571676Y83498D01*
Y83518D01*
X571690Y83546D01*
X571711Y83615D01*
X571752Y83705D01*
X571801Y83802D01*
X571870Y83906D01*
X571953Y84010D01*
X572057Y84100D01*
X572071Y84107D01*
X572112Y84134D01*
X572175Y84169D01*
X572258Y84217D01*
X572361Y84259D01*
X572486Y84293D01*
X572631Y84321D01*
X572790Y84328D01*
X572797D01*
X572818D01*
X572846D01*
X572887Y84321D01*
D02*
G37*
G36*
X572057Y80813D02*
X572078Y80785D01*
X572112Y80743D01*
X572154Y80695D01*
X572195Y80633D01*
X572244Y80564D01*
X572285Y80488D01*
X572320Y80411D01*
Y80404D01*
X572334Y80377D01*
X572347Y80335D01*
X572361Y80280D01*
X572375Y80211D01*
X572389Y80134D01*
X572396Y80045D01*
X572403Y79955D01*
Y79885D01*
X572396Y79844D01*
Y79789D01*
X572382Y79733D01*
X572361Y79602D01*
Y79595D01*
X572354Y79567D01*
X572341Y79532D01*
X572320Y79470D01*
X572292Y79401D01*
X572258Y79304D01*
X572209Y79200D01*
X572154Y79069D01*
Y79062D01*
X572147Y79055D01*
X572140Y79034D01*
X572126Y79007D01*
X572098Y78937D01*
X572071Y78854D01*
X572043Y78757D01*
X572015Y78654D01*
X571995Y78550D01*
X571988Y78453D01*
Y78418D01*
X571995Y78384D01*
X572002Y78335D01*
X572008Y78280D01*
X572022Y78211D01*
X572050Y78149D01*
X572078Y78079D01*
X572085Y78072D01*
X572091Y78052D01*
X572119Y78010D01*
X572147Y77962D01*
X572195Y77899D01*
X572251Y77823D01*
X572327Y77740D01*
X572410Y77650D01*
X571773D01*
X571766Y77657D01*
X571759Y77664D01*
X571739Y77685D01*
X571718Y77713D01*
X571683Y77740D01*
X571656Y77782D01*
X571586Y77879D01*
X571517Y78003D01*
X571455Y78149D01*
X571413Y78321D01*
X571406Y78412D01*
X571399Y78508D01*
Y78578D01*
X571406Y78626D01*
X571413Y78688D01*
X571420Y78750D01*
X571455Y78896D01*
Y78903D01*
X571469Y78937D01*
X571483Y78979D01*
X571503Y79048D01*
X571531Y79131D01*
X571566Y79235D01*
X571614Y79353D01*
X571669Y79484D01*
X571676Y79491D01*
X571683Y79519D01*
X571697Y79553D01*
X571718Y79602D01*
X571759Y79706D01*
X571773Y79754D01*
X571787Y79795D01*
Y79802D01*
X571794Y79816D01*
Y79837D01*
X571801Y79865D01*
X571808Y79934D01*
X571815Y80017D01*
Y80051D01*
X571808Y80093D01*
X571801Y80141D01*
X571787Y80204D01*
X571766Y80280D01*
X571739Y80356D01*
X571697Y80432D01*
X571690Y80439D01*
X571676Y80467D01*
X571649Y80508D01*
X571614Y80564D01*
X571572Y80619D01*
X571517Y80688D01*
X571462Y80750D01*
X571393Y80820D01*
X572050D01*
X572057Y80813D01*
D02*
G37*
G36*
X552282Y84320D02*
X552338Y84313D01*
X552400Y84306D01*
X552469Y84299D01*
X552545Y84285D01*
X552711Y84237D01*
X552884Y84174D01*
X552981Y84133D01*
X553071Y84084D01*
X553161Y84029D01*
X553244Y83967D01*
X553251Y83960D01*
X553265Y83946D01*
X553293Y83918D01*
X553327Y83884D01*
X553369Y83842D01*
X553417Y83787D01*
X553466Y83724D01*
X553514Y83648D01*
X553569Y83572D01*
X553618Y83482D01*
X553666Y83378D01*
X553708Y83275D01*
X553742Y83157D01*
X553770Y83039D01*
X553784Y82908D01*
X553791Y82770D01*
Y82707D01*
X553784Y82666D01*
X553777Y82617D01*
X553770Y82555D01*
X553763Y82486D01*
X553749Y82410D01*
X553708Y82251D01*
X553645Y82085D01*
X553604Y82001D01*
X553555Y81918D01*
X553507Y81835D01*
X553445Y81759D01*
X553438Y81752D01*
X553431Y81745D01*
X553410Y81725D01*
X553382Y81697D01*
X553348Y81669D01*
X553306Y81635D01*
X553258Y81600D01*
X553203Y81559D01*
X553071Y81482D01*
X552912Y81406D01*
X552732Y81351D01*
X552628Y81330D01*
X552524Y81316D01*
X552483Y81905D01*
X552490D01*
X552504D01*
X552524Y81911D01*
X552552Y81918D01*
X552628Y81939D01*
X552725Y81967D01*
X552829Y82001D01*
X552933Y82057D01*
X553036Y82119D01*
X553126Y82202D01*
X553133Y82216D01*
X553161Y82244D01*
X553189Y82292D01*
X553230Y82361D01*
X553265Y82444D01*
X553299Y82541D01*
X553327Y82652D01*
X553334Y82770D01*
Y82811D01*
X553327Y82839D01*
X553320Y82915D01*
X553299Y83012D01*
X553258Y83116D01*
X553209Y83233D01*
X553133Y83344D01*
X553092Y83399D01*
X553036Y83455D01*
X553030D01*
X553023Y83469D01*
X552981Y83496D01*
X552912Y83545D01*
X552822Y83593D01*
X552704Y83641D01*
X552566Y83690D01*
X552407Y83718D01*
X552227Y83731D01*
X552220D01*
X552206D01*
X552178D01*
X552151Y83724D01*
X552109D01*
X552061Y83718D01*
X551950Y83697D01*
X551832Y83669D01*
X551708Y83621D01*
X551583Y83552D01*
X551473Y83462D01*
X551459Y83448D01*
X551431Y83413D01*
X551383Y83358D01*
X551334Y83275D01*
X551286Y83178D01*
X551237Y83053D01*
X551210Y82915D01*
X551196Y82763D01*
Y82714D01*
X551203Y82666D01*
X551210Y82597D01*
X551230Y82521D01*
X551251Y82437D01*
X551286Y82354D01*
X551327Y82271D01*
X551334Y82264D01*
X551348Y82237D01*
X551376Y82195D01*
X551410Y82147D01*
X551459Y82098D01*
X551514Y82043D01*
X551576Y81988D01*
X551646Y81939D01*
X551569Y81413D01*
X549237Y81856D01*
Y84112D01*
X549770D01*
Y82299D01*
X550995Y82050D01*
X550988Y82057D01*
X550981Y82071D01*
X550967Y82091D01*
X550947Y82119D01*
X550926Y82161D01*
X550905Y82202D01*
X550850Y82313D01*
X550794Y82437D01*
X550753Y82583D01*
X550718Y82742D01*
X550704Y82908D01*
Y82963D01*
X550711Y83005D01*
X550718Y83060D01*
X550725Y83116D01*
X550739Y83185D01*
X550753Y83254D01*
X550808Y83413D01*
X550836Y83496D01*
X550878Y83579D01*
X550926Y83669D01*
X550981Y83752D01*
X551044Y83835D01*
X551120Y83911D01*
X551127Y83918D01*
X551140Y83932D01*
X551161Y83953D01*
X551196Y83974D01*
X551237Y84008D01*
X551286Y84043D01*
X551341Y84077D01*
X551403Y84119D01*
X551479Y84161D01*
X551556Y84195D01*
X551646Y84230D01*
X551735Y84264D01*
X551839Y84285D01*
X551943Y84306D01*
X552061Y84320D01*
X552178Y84327D01*
X552185D01*
X552206D01*
X552241D01*
X552282Y84320D01*
D02*
G37*
G36*
X551639Y80777D02*
X551659Y80749D01*
X551694Y80707D01*
X551735Y80659D01*
X551777Y80597D01*
X551826Y80528D01*
X551867Y80451D01*
X551902Y80375D01*
Y80368D01*
X551915Y80341D01*
X551929Y80299D01*
X551943Y80244D01*
X551957Y80175D01*
X551971Y80098D01*
X551978Y80009D01*
X551985Y79918D01*
Y79849D01*
X551978Y79808D01*
Y79752D01*
X551964Y79697D01*
X551943Y79566D01*
Y79559D01*
X551936Y79531D01*
X551922Y79496D01*
X551902Y79434D01*
X551874Y79365D01*
X551839Y79268D01*
X551791Y79164D01*
X551735Y79033D01*
Y79026D01*
X551729Y79019D01*
X551722Y78998D01*
X551708Y78970D01*
X551680Y78901D01*
X551652Y78818D01*
X551625Y78721D01*
X551597Y78618D01*
X551576Y78514D01*
X551569Y78417D01*
Y78382D01*
X551576Y78348D01*
X551583Y78299D01*
X551590Y78244D01*
X551604Y78175D01*
X551632Y78112D01*
X551659Y78043D01*
X551666Y78036D01*
X551673Y78016D01*
X551701Y77974D01*
X551729Y77926D01*
X551777Y77863D01*
X551832Y77787D01*
X551908Y77704D01*
X551992Y77614D01*
X551355D01*
X551348Y77621D01*
X551341Y77628D01*
X551320Y77649D01*
X551300Y77676D01*
X551265Y77704D01*
X551237Y77746D01*
X551168Y77842D01*
X551099Y77967D01*
X551037Y78112D01*
X550995Y78285D01*
X550988Y78375D01*
X550981Y78472D01*
Y78541D01*
X550988Y78590D01*
X550995Y78652D01*
X551002Y78714D01*
X551037Y78860D01*
Y78867D01*
X551051Y78901D01*
X551064Y78943D01*
X551085Y79012D01*
X551113Y79095D01*
X551147Y79199D01*
X551196Y79317D01*
X551251Y79448D01*
X551258Y79455D01*
X551265Y79483D01*
X551279Y79517D01*
X551300Y79566D01*
X551341Y79669D01*
X551355Y79718D01*
X551369Y79759D01*
Y79766D01*
X551376Y79780D01*
Y79801D01*
X551383Y79829D01*
X551390Y79898D01*
X551397Y79981D01*
Y80015D01*
X551390Y80057D01*
X551383Y80105D01*
X551369Y80168D01*
X551348Y80244D01*
X551320Y80320D01*
X551279Y80396D01*
X551272Y80403D01*
X551258Y80431D01*
X551230Y80472D01*
X551196Y80528D01*
X551154Y80583D01*
X551099Y80652D01*
X551044Y80714D01*
X550974Y80783D01*
X551632D01*
X551639Y80777D01*
D02*
G37*
G36*
X542255Y84321D02*
X542297D01*
X542408Y84307D01*
X542525Y84280D01*
X542664Y84252D01*
X542802Y84203D01*
X542941Y84141D01*
X542947D01*
X542954Y84134D01*
X542975Y84121D01*
X543003Y84107D01*
X543065Y84065D01*
X543148Y84010D01*
X543238Y83934D01*
X543328Y83844D01*
X543418Y83747D01*
X543501Y83629D01*
X543508Y83615D01*
X543529Y83574D01*
X543563Y83505D01*
X543598Y83421D01*
X543633Y83311D01*
X543667Y83186D01*
X543688Y83048D01*
X543695Y82902D01*
Y82875D01*
X543688Y82833D01*
Y82785D01*
X543681Y82730D01*
X543667Y82660D01*
X543653Y82584D01*
X543633Y82501D01*
X543605Y82411D01*
X543570Y82314D01*
X543529Y82224D01*
X543480Y82127D01*
X543418Y82031D01*
X543349Y81934D01*
X543273Y81844D01*
X543183Y81761D01*
X543176Y81754D01*
X543155Y81740D01*
X543127Y81719D01*
X543086Y81691D01*
X543031Y81657D01*
X542961Y81622D01*
X542878Y81581D01*
X542781Y81546D01*
X542671Y81505D01*
X542546Y81463D01*
X542408Y81429D01*
X542255Y81394D01*
X542089Y81366D01*
X541902Y81345D01*
X541709Y81332D01*
X541494Y81325D01*
X541487D01*
X541480D01*
X541460D01*
X541439D01*
X541370D01*
X541280Y81332D01*
X541169Y81339D01*
X541044Y81352D01*
X540906Y81366D01*
X540761Y81387D01*
X540602Y81408D01*
X540442Y81442D01*
X540283Y81484D01*
X540131Y81532D01*
X539972Y81588D01*
X539833Y81650D01*
X539695Y81726D01*
X539577Y81809D01*
X539571Y81816D01*
X539557Y81830D01*
X539529Y81851D01*
X539494Y81885D01*
X539453Y81934D01*
X539411Y81982D01*
X539363Y82044D01*
X539315Y82114D01*
X539266Y82190D01*
X539218Y82280D01*
X539176Y82370D01*
X539135Y82473D01*
X539100Y82584D01*
X539072Y82702D01*
X539058Y82826D01*
X539051Y82958D01*
Y83006D01*
X539058Y83048D01*
Y83089D01*
X539065Y83145D01*
X539086Y83269D01*
X539128Y83408D01*
X539183Y83553D01*
X539252Y83698D01*
X539301Y83767D01*
X539356Y83837D01*
Y83844D01*
X539370Y83851D01*
X539411Y83892D01*
X539480Y83947D01*
X539571Y84017D01*
X539688Y84093D01*
X539826Y84155D01*
X539993Y84217D01*
X540179Y84252D01*
X540221Y83698D01*
X540214D01*
X540207D01*
X540166Y83684D01*
X540110Y83664D01*
X540041Y83643D01*
X539882Y83574D01*
X539813Y83532D01*
X539750Y83484D01*
X539737Y83477D01*
X539709Y83442D01*
X539674Y83394D01*
X539626Y83332D01*
X539584Y83249D01*
X539543Y83152D01*
X539515Y83041D01*
X539508Y82923D01*
Y82875D01*
X539515Y82826D01*
X539529Y82764D01*
X539543Y82688D01*
X539571Y82605D01*
X539612Y82529D01*
X539661Y82446D01*
X539667Y82432D01*
X539695Y82404D01*
X539744Y82356D01*
X539806Y82301D01*
X539882Y82231D01*
X539979Y82162D01*
X540096Y82093D01*
X540228Y82031D01*
X540235D01*
X540242Y82024D01*
X540269Y82017D01*
X540297Y82010D01*
X540332Y81996D01*
X540380Y81982D01*
X540436Y81968D01*
X540498Y81954D01*
X540567Y81941D01*
X540643Y81927D01*
X540733Y81913D01*
X540823Y81899D01*
X540927Y81892D01*
X541038Y81885D01*
X541155Y81878D01*
X541273D01*
X541266Y81885D01*
X541231Y81913D01*
X541176Y81954D01*
X541107Y82017D01*
X541031Y82086D01*
X540954Y82169D01*
X540885Y82266D01*
X540823Y82370D01*
X540816Y82384D01*
X540802Y82418D01*
X540775Y82480D01*
X540747Y82556D01*
X540719Y82647D01*
X540692Y82750D01*
X540678Y82861D01*
X540671Y82979D01*
Y83034D01*
X540678Y83075D01*
X540685Y83124D01*
X540692Y83179D01*
X540719Y83311D01*
X540775Y83456D01*
X540802Y83539D01*
X540844Y83615D01*
X540892Y83698D01*
X540948Y83781D01*
X541010Y83858D01*
X541086Y83934D01*
X541093Y83941D01*
X541107Y83947D01*
X541127Y83968D01*
X541162Y83996D01*
X541204Y84024D01*
X541252Y84058D01*
X541307Y84093D01*
X541370Y84134D01*
X541446Y84169D01*
X541522Y84203D01*
X541612Y84238D01*
X541702Y84266D01*
X541806Y84293D01*
X541910Y84314D01*
X542027Y84321D01*
X542145Y84328D01*
X542152D01*
X542166D01*
X542186D01*
X542214D01*
X542255Y84321D01*
D02*
G37*
G36*
X541543Y80813D02*
X541564Y80785D01*
X541598Y80743D01*
X541640Y80695D01*
X541681Y80633D01*
X541729Y80564D01*
X541771Y80488D01*
X541806Y80411D01*
Y80404D01*
X541819Y80377D01*
X541833Y80335D01*
X541847Y80280D01*
X541861Y80211D01*
X541875Y80134D01*
X541882Y80045D01*
X541889Y79955D01*
Y79885D01*
X541882Y79844D01*
Y79789D01*
X541868Y79733D01*
X541847Y79602D01*
Y79595D01*
X541840Y79567D01*
X541826Y79532D01*
X541806Y79470D01*
X541778Y79401D01*
X541743Y79304D01*
X541695Y79200D01*
X541640Y79069D01*
Y79062D01*
X541633Y79055D01*
X541626Y79034D01*
X541612Y79007D01*
X541584Y78937D01*
X541557Y78854D01*
X541529Y78757D01*
X541501Y78654D01*
X541480Y78550D01*
X541473Y78453D01*
Y78418D01*
X541480Y78384D01*
X541487Y78335D01*
X541494Y78280D01*
X541508Y78211D01*
X541536Y78149D01*
X541564Y78079D01*
X541570Y78072D01*
X541577Y78052D01*
X541605Y78010D01*
X541633Y77962D01*
X541681Y77899D01*
X541736Y77823D01*
X541813Y77740D01*
X541896Y77650D01*
X541259D01*
X541252Y77657D01*
X541245Y77664D01*
X541224Y77685D01*
X541204Y77713D01*
X541169Y77740D01*
X541141Y77782D01*
X541072Y77879D01*
X541003Y78003D01*
X540941Y78149D01*
X540899Y78321D01*
X540892Y78412D01*
X540885Y78508D01*
Y78578D01*
X540892Y78626D01*
X540899Y78688D01*
X540906Y78750D01*
X540941Y78896D01*
Y78903D01*
X540954Y78937D01*
X540968Y78979D01*
X540989Y79048D01*
X541017Y79131D01*
X541051Y79235D01*
X541100Y79353D01*
X541155Y79484D01*
X541162Y79491D01*
X541169Y79519D01*
X541183Y79553D01*
X541204Y79602D01*
X541245Y79706D01*
X541259Y79754D01*
X541273Y79795D01*
Y79802D01*
X541280Y79816D01*
Y79837D01*
X541287Y79865D01*
X541294Y79934D01*
X541300Y80017D01*
Y80051D01*
X541294Y80093D01*
X541287Y80141D01*
X541273Y80204D01*
X541252Y80280D01*
X541224Y80356D01*
X541183Y80432D01*
X541176Y80439D01*
X541162Y80467D01*
X541134Y80508D01*
X541100Y80564D01*
X541058Y80619D01*
X541003Y80688D01*
X540948Y80750D01*
X540878Y80820D01*
X541536D01*
X541543Y80813D01*
D02*
G37*
G36*
X506017Y84325D02*
X506107D01*
X506197Y84318D01*
X506301Y84311D01*
X506523Y84284D01*
X506758Y84249D01*
X506986Y84201D01*
X507090Y84173D01*
X507194Y84138D01*
X507201D01*
X507214Y84131D01*
X507242Y84118D01*
X507277Y84104D01*
X507325Y84083D01*
X507374Y84062D01*
X507484Y84000D01*
X507616Y83917D01*
X507747Y83820D01*
X507872Y83709D01*
X507983Y83578D01*
Y83571D01*
X507997Y83564D01*
X508003Y83543D01*
X508024Y83509D01*
X508045Y83474D01*
X508066Y83432D01*
X508114Y83329D01*
X508162Y83197D01*
X508204Y83052D01*
X508232Y82879D01*
X508246Y82699D01*
Y82651D01*
X508239Y82609D01*
Y82567D01*
X508232Y82512D01*
X508211Y82388D01*
X508176Y82249D01*
X508121Y82104D01*
X508052Y81965D01*
X507955Y81827D01*
X507948Y81820D01*
X507941Y81813D01*
X507900Y81772D01*
X507830Y81716D01*
X507740Y81647D01*
X507623Y81578D01*
X507478Y81516D01*
X507311Y81460D01*
X507118Y81426D01*
X507076Y81959D01*
X507083D01*
X507090D01*
X507111Y81965D01*
X507138Y81972D01*
X507208Y81986D01*
X507284Y82014D01*
X507374Y82048D01*
X507464Y82090D01*
X507554Y82145D01*
X507623Y82214D01*
X507630Y82222D01*
X507651Y82249D01*
X507678Y82291D01*
X507706Y82353D01*
X507733Y82422D01*
X507761Y82505D01*
X507782Y82602D01*
X507789Y82713D01*
Y82754D01*
X507782Y82803D01*
X507775Y82865D01*
X507761Y82934D01*
X507740Y83010D01*
X507713Y83087D01*
X507671Y83163D01*
X507664Y83170D01*
X507651Y83197D01*
X507623Y83232D01*
X507588Y83273D01*
X507547Y83329D01*
X507491Y83377D01*
X507429Y83432D01*
X507360Y83481D01*
X507353Y83488D01*
X507325Y83502D01*
X507277Y83522D01*
X507214Y83557D01*
X507138Y83585D01*
X507048Y83619D01*
X506945Y83654D01*
X506827Y83688D01*
X506820D01*
X506813Y83695D01*
X506792D01*
X506772Y83702D01*
X506702Y83716D01*
X506612Y83730D01*
X506509Y83744D01*
X506398Y83758D01*
X506273Y83772D01*
X506142D01*
X506135D01*
X506114D01*
X506080D01*
X506031D01*
X506045Y83765D01*
X506073Y83737D01*
X506128Y83702D01*
X506183Y83647D01*
X506253Y83585D01*
X506329Y83502D01*
X506398Y83412D01*
X506467Y83308D01*
X506474Y83294D01*
X506495Y83259D01*
X506516Y83197D01*
X506543Y83121D01*
X506578Y83031D01*
X506599Y82927D01*
X506619Y82810D01*
X506626Y82685D01*
Y82630D01*
X506619Y82588D01*
X506612Y82540D01*
X506605Y82484D01*
X506578Y82353D01*
X506529Y82201D01*
X506495Y82125D01*
X506453Y82042D01*
X506405Y81965D01*
X506350Y81882D01*
X506287Y81806D01*
X506218Y81730D01*
X506211Y81723D01*
X506197Y81716D01*
X506177Y81695D01*
X506142Y81668D01*
X506100Y81640D01*
X506052Y81606D01*
X505997Y81571D01*
X505927Y81536D01*
X505858Y81502D01*
X505775Y81467D01*
X505685Y81433D01*
X505588Y81405D01*
X505484Y81377D01*
X505381Y81356D01*
X505263Y81349D01*
X505138Y81343D01*
X505132D01*
X505111D01*
X505069D01*
X505021Y81349D01*
X504965Y81356D01*
X504896Y81363D01*
X504820Y81377D01*
X504737Y81391D01*
X504564Y81440D01*
X504467Y81474D01*
X504377Y81516D01*
X504280Y81557D01*
X504190Y81612D01*
X504107Y81675D01*
X504024Y81744D01*
X504017Y81751D01*
X504004Y81765D01*
X503983Y81786D01*
X503955Y81820D01*
X503928Y81855D01*
X503893Y81903D01*
X503851Y81959D01*
X503810Y82028D01*
X503775Y82097D01*
X503734Y82173D01*
X503664Y82346D01*
X503644Y82443D01*
X503623Y82547D01*
X503609Y82657D01*
X503602Y82768D01*
Y82810D01*
X503609Y82844D01*
Y82879D01*
X503616Y82927D01*
X503630Y83038D01*
X503664Y83163D01*
X503706Y83294D01*
X503761Y83439D01*
X503844Y83578D01*
Y83585D01*
X503858Y83592D01*
X503872Y83612D01*
X503886Y83640D01*
X503941Y83702D01*
X504017Y83785D01*
X504121Y83875D01*
X504232Y83972D01*
X504370Y84062D01*
X504529Y84138D01*
X504536D01*
X504550Y84145D01*
X504578Y84159D01*
X504613Y84166D01*
X504654Y84187D01*
X504709Y84201D01*
X504779Y84214D01*
X504855Y84235D01*
X504938Y84256D01*
X505035Y84270D01*
X505138Y84290D01*
X505249Y84304D01*
X505374Y84311D01*
X505505Y84325D01*
X505651Y84332D01*
X505803D01*
X505810D01*
X505844D01*
X505886D01*
X505948D01*
X506017Y84325D01*
D02*
G37*
G36*
X506094Y80803D02*
X506114Y80775D01*
X506149Y80734D01*
X506190Y80685D01*
X506232Y80623D01*
X506280Y80554D01*
X506322Y80478D01*
X506356Y80401D01*
Y80395D01*
X506370Y80367D01*
X506384Y80325D01*
X506398Y80270D01*
X506412Y80201D01*
X506426Y80125D01*
X506432Y80035D01*
X506439Y79945D01*
Y79876D01*
X506432Y79834D01*
Y79779D01*
X506419Y79723D01*
X506398Y79592D01*
Y79585D01*
X506391Y79557D01*
X506377Y79523D01*
X506356Y79460D01*
X506329Y79391D01*
X506294Y79294D01*
X506246Y79190D01*
X506190Y79059D01*
Y79052D01*
X506183Y79045D01*
X506177Y79024D01*
X506163Y78997D01*
X506135Y78927D01*
X506107Y78844D01*
X506080Y78748D01*
X506052Y78644D01*
X506031Y78540D01*
X506024Y78443D01*
Y78408D01*
X506031Y78374D01*
X506038Y78325D01*
X506045Y78270D01*
X506059Y78201D01*
X506086Y78139D01*
X506114Y78069D01*
X506121Y78062D01*
X506128Y78042D01*
X506156Y78000D01*
X506183Y77952D01*
X506232Y77890D01*
X506287Y77813D01*
X506363Y77730D01*
X506446Y77640D01*
X505810D01*
X505803Y77647D01*
X505796Y77654D01*
X505775Y77675D01*
X505754Y77703D01*
X505720Y77730D01*
X505692Y77772D01*
X505623Y77869D01*
X505554Y77993D01*
X505491Y78139D01*
X505450Y78312D01*
X505443Y78402D01*
X505436Y78499D01*
Y78568D01*
X505443Y78616D01*
X505450Y78678D01*
X505457Y78741D01*
X505491Y78886D01*
Y78893D01*
X505505Y78927D01*
X505519Y78969D01*
X505540Y79038D01*
X505568Y79121D01*
X505602Y79225D01*
X505651Y79343D01*
X505706Y79474D01*
X505713Y79481D01*
X505720Y79509D01*
X505734Y79543D01*
X505754Y79592D01*
X505796Y79696D01*
X505810Y79744D01*
X505824Y79786D01*
Y79792D01*
X505830Y79806D01*
Y79827D01*
X505837Y79855D01*
X505844Y79924D01*
X505851Y80007D01*
Y80042D01*
X505844Y80083D01*
X505837Y80132D01*
X505824Y80194D01*
X505803Y80270D01*
X505775Y80346D01*
X505734Y80422D01*
X505727Y80429D01*
X505713Y80457D01*
X505685Y80498D01*
X505651Y80554D01*
X505609Y80609D01*
X505554Y80678D01*
X505498Y80741D01*
X505429Y80810D01*
X506086D01*
X506094Y80803D01*
D02*
G37*
G36*
X496050Y84327D02*
X496126D01*
X496216Y84320D01*
X496313Y84313D01*
X496521Y84292D01*
X496735Y84265D01*
X496950Y84223D01*
X497047Y84195D01*
X497144Y84168D01*
X497151D01*
X497164Y84161D01*
X497192Y84154D01*
X497227Y84140D01*
X497268Y84119D01*
X497310Y84099D01*
X497420Y84043D01*
X497545Y83974D01*
X497670Y83891D01*
X497794Y83794D01*
X497905Y83676D01*
Y83670D01*
X497919Y83663D01*
X497926Y83642D01*
X497946Y83621D01*
X497988Y83545D01*
X498036Y83455D01*
X498085Y83330D01*
X498126Y83192D01*
X498154Y83033D01*
X498168Y82853D01*
Y82791D01*
X498161Y82742D01*
X498154Y82687D01*
X498140Y82625D01*
X498126Y82555D01*
X498112Y82479D01*
X498057Y82313D01*
X498016Y82223D01*
X497974Y82140D01*
X497919Y82050D01*
X497856Y81967D01*
X497787Y81891D01*
X497704Y81815D01*
X497697Y81808D01*
X497677Y81794D01*
X497642Y81773D01*
X497593Y81746D01*
X497531Y81711D01*
X497455Y81677D01*
X497365Y81635D01*
X497254Y81594D01*
X497137Y81552D01*
X496998Y81511D01*
X496846Y81476D01*
X496680Y81441D01*
X496493Y81414D01*
X496299Y81393D01*
X496078Y81379D01*
X495850Y81372D01*
X495843D01*
X495815D01*
X495774D01*
X495718D01*
X495649Y81379D01*
X495573D01*
X495483Y81386D01*
X495386Y81393D01*
X495178Y81414D01*
X494964Y81441D01*
X494749Y81476D01*
X494652Y81503D01*
X494556Y81531D01*
X494549D01*
X494535Y81538D01*
X494507Y81552D01*
X494473Y81566D01*
X494431Y81580D01*
X494383Y81600D01*
X494272Y81656D01*
X494147Y81725D01*
X494023Y81808D01*
X493905Y81905D01*
X493794Y82023D01*
Y82029D01*
X493781Y82036D01*
X493767Y82057D01*
X493753Y82085D01*
X493711Y82154D01*
X493656Y82251D01*
X493608Y82368D01*
X493566Y82514D01*
X493538Y82673D01*
X493525Y82853D01*
Y82915D01*
X493531Y82984D01*
X493545Y83067D01*
X493559Y83164D01*
X493587Y83275D01*
X493628Y83386D01*
X493677Y83490D01*
X493684Y83503D01*
X493704Y83538D01*
X493739Y83587D01*
X493781Y83656D01*
X493843Y83725D01*
X493919Y83801D01*
X494002Y83877D01*
X494099Y83946D01*
X494113Y83953D01*
X494147Y83974D01*
X494210Y84009D01*
X494286Y84050D01*
X494383Y84092D01*
X494500Y84140D01*
X494632Y84188D01*
X494777Y84230D01*
X494784D01*
X494798Y84237D01*
X494818D01*
X494853Y84244D01*
X494888Y84258D01*
X494936Y84265D01*
X494998Y84272D01*
X495061Y84285D01*
X495137Y84292D01*
X495213Y84299D01*
X495303Y84313D01*
X495400Y84320D01*
X495504Y84327D01*
X495607D01*
X495850Y84334D01*
X495857D01*
X495884D01*
X495926D01*
X495981D01*
X496050Y84327D01*
D02*
G37*
G36*
X498092Y79386D02*
X494535D01*
X494542Y79379D01*
X494569Y79351D01*
X494604Y79303D01*
X494652Y79241D01*
X494715Y79165D01*
X494777Y79075D01*
X494853Y78971D01*
X494922Y78853D01*
Y78846D01*
X494929Y78839D01*
X494957Y78798D01*
X494991Y78736D01*
X495033Y78659D01*
X495082Y78569D01*
X495123Y78473D01*
X495171Y78369D01*
X495213Y78272D01*
X494666D01*
Y78279D01*
X494659Y78293D01*
X494646Y78320D01*
X494625Y78348D01*
X494604Y78390D01*
X494583Y78438D01*
X494521Y78549D01*
X494445Y78673D01*
X494355Y78812D01*
X494251Y78950D01*
X494140Y79081D01*
X494133Y79088D01*
X494127Y79095D01*
X494085Y79137D01*
X494023Y79199D01*
X493947Y79275D01*
X493850Y79358D01*
X493746Y79441D01*
X493635Y79518D01*
X493525Y79580D01*
Y79947D01*
X498092D01*
Y79386D01*
D02*
G37*
G36*
X496016Y77303D02*
X496036Y77275D01*
X496071Y77234D01*
X496113Y77185D01*
X496154Y77123D01*
X496203Y77054D01*
X496244Y76978D01*
X496279Y76902D01*
Y76895D01*
X496292Y76867D01*
X496306Y76826D01*
X496320Y76770D01*
X496334Y76701D01*
X496348Y76625D01*
X496355Y76535D01*
X496362Y76445D01*
Y76376D01*
X496355Y76334D01*
Y76279D01*
X496341Y76224D01*
X496320Y76092D01*
Y76085D01*
X496313Y76057D01*
X496299Y76023D01*
X496279Y75961D01*
X496251Y75891D01*
X496216Y75795D01*
X496168Y75691D01*
X496113Y75559D01*
Y75552D01*
X496106Y75545D01*
X496099Y75525D01*
X496085Y75497D01*
X496057Y75428D01*
X496030Y75345D01*
X496002Y75248D01*
X495974Y75144D01*
X495953Y75040D01*
X495947Y74943D01*
Y74909D01*
X495953Y74874D01*
X495960Y74826D01*
X495967Y74770D01*
X495981Y74701D01*
X496009Y74639D01*
X496036Y74570D01*
X496043Y74563D01*
X496050Y74542D01*
X496078Y74501D01*
X496106Y74452D01*
X496154Y74390D01*
X496209Y74314D01*
X496286Y74231D01*
X496369Y74141D01*
X495732D01*
X495725Y74148D01*
X495718Y74155D01*
X495697Y74175D01*
X495677Y74203D01*
X495642Y74231D01*
X495614Y74272D01*
X495545Y74369D01*
X495476Y74494D01*
X495414Y74639D01*
X495372Y74812D01*
X495365Y74902D01*
X495358Y74999D01*
Y75068D01*
X495365Y75116D01*
X495372Y75179D01*
X495379Y75241D01*
X495414Y75386D01*
Y75393D01*
X495428Y75428D01*
X495441Y75469D01*
X495462Y75538D01*
X495490Y75621D01*
X495524Y75725D01*
X495573Y75843D01*
X495628Y75975D01*
X495635Y75981D01*
X495642Y76009D01*
X495656Y76044D01*
X495677Y76092D01*
X495718Y76196D01*
X495732Y76244D01*
X495746Y76286D01*
Y76293D01*
X495753Y76307D01*
Y76327D01*
X495760Y76355D01*
X495767Y76424D01*
X495774Y76507D01*
Y76542D01*
X495767Y76583D01*
X495760Y76632D01*
X495746Y76694D01*
X495725Y76770D01*
X495697Y76846D01*
X495656Y76923D01*
X495649Y76929D01*
X495635Y76957D01*
X495607Y76999D01*
X495573Y77054D01*
X495531Y77109D01*
X495476Y77179D01*
X495421Y77241D01*
X495351Y77310D01*
X496009D01*
X496016Y77303D01*
D02*
G37*
G36*
X488014Y83775D02*
X484457D01*
X484464Y83768D01*
X484492Y83740D01*
X484526Y83692D01*
X484575Y83629D01*
X484637Y83553D01*
X484699Y83463D01*
X484775Y83359D01*
X484844Y83242D01*
Y83235D01*
X484852Y83228D01*
X484879Y83186D01*
X484914Y83124D01*
X484955Y83048D01*
X485004Y82958D01*
X485045Y82861D01*
X485094Y82757D01*
X485135Y82661D01*
X484588D01*
Y82667D01*
X484582Y82681D01*
X484568Y82709D01*
X484547Y82737D01*
X484526Y82778D01*
X484506Y82827D01*
X484443Y82937D01*
X484367Y83062D01*
X484277Y83200D01*
X484173Y83339D01*
X484063Y83470D01*
X484056Y83477D01*
X484049Y83484D01*
X484007Y83526D01*
X483945Y83588D01*
X483869Y83664D01*
X483772Y83747D01*
X483668Y83830D01*
X483557Y83906D01*
X483447Y83968D01*
Y84335D01*
X488014D01*
Y83775D01*
D02*
G37*
G36*
Y80245D02*
X484457D01*
X484464Y80238D01*
X484492Y80211D01*
X484526Y80162D01*
X484575Y80100D01*
X484637Y80024D01*
X484699Y79934D01*
X484775Y79830D01*
X484844Y79712D01*
Y79706D01*
X484852Y79699D01*
X484879Y79657D01*
X484914Y79595D01*
X484955Y79519D01*
X485004Y79429D01*
X485045Y79332D01*
X485094Y79228D01*
X485135Y79131D01*
X484588D01*
Y79138D01*
X484582Y79152D01*
X484568Y79180D01*
X484547Y79207D01*
X484526Y79249D01*
X484506Y79297D01*
X484443Y79408D01*
X484367Y79533D01*
X484277Y79671D01*
X484173Y79809D01*
X484063Y79941D01*
X484056Y79948D01*
X484049Y79955D01*
X484007Y79996D01*
X483945Y80058D01*
X483869Y80135D01*
X483772Y80218D01*
X483668Y80301D01*
X483557Y80377D01*
X483447Y80439D01*
Y80806D01*
X488014D01*
Y80245D01*
D02*
G37*
G36*
X485938Y78162D02*
X485959Y78135D01*
X485993Y78093D01*
X486035Y78045D01*
X486076Y77982D01*
X486125Y77913D01*
X486166Y77837D01*
X486201Y77761D01*
Y77754D01*
X486215Y77727D01*
X486229Y77685D01*
X486242Y77630D01*
X486256Y77560D01*
X486270Y77484D01*
X486277Y77394D01*
X486284Y77304D01*
Y77235D01*
X486277Y77194D01*
Y77138D01*
X486263Y77083D01*
X486242Y76951D01*
Y76945D01*
X486236Y76917D01*
X486222Y76882D01*
X486201Y76820D01*
X486173Y76751D01*
X486139Y76654D01*
X486090Y76550D01*
X486035Y76419D01*
Y76412D01*
X486028Y76405D01*
X486021Y76384D01*
X486007Y76356D01*
X485979Y76287D01*
X485952Y76204D01*
X485924Y76107D01*
X485896Y76003D01*
X485876Y75900D01*
X485869Y75803D01*
Y75768D01*
X485876Y75734D01*
X485883Y75685D01*
X485889Y75630D01*
X485903Y75560D01*
X485931Y75498D01*
X485959Y75429D01*
X485966Y75422D01*
X485972Y75401D01*
X486000Y75360D01*
X486028Y75311D01*
X486076Y75249D01*
X486132Y75173D01*
X486208Y75090D01*
X486291Y75000D01*
X485654D01*
X485647Y75007D01*
X485640Y75014D01*
X485620Y75035D01*
X485599Y75062D01*
X485564Y75090D01*
X485536Y75131D01*
X485467Y75228D01*
X485398Y75353D01*
X485336Y75498D01*
X485294Y75671D01*
X485287Y75761D01*
X485281Y75858D01*
Y75927D01*
X485287Y75976D01*
X485294Y76038D01*
X485301Y76100D01*
X485336Y76246D01*
Y76253D01*
X485350Y76287D01*
X485364Y76329D01*
X485384Y76398D01*
X485412Y76481D01*
X485447Y76585D01*
X485495Y76702D01*
X485550Y76834D01*
X485557Y76841D01*
X485564Y76868D01*
X485578Y76903D01*
X485599Y76951D01*
X485640Y77055D01*
X485654Y77104D01*
X485668Y77145D01*
Y77152D01*
X485675Y77166D01*
Y77187D01*
X485682Y77214D01*
X485689Y77284D01*
X485696Y77367D01*
Y77401D01*
X485689Y77443D01*
X485682Y77491D01*
X485668Y77553D01*
X485647Y77630D01*
X485620Y77706D01*
X485578Y77782D01*
X485571Y77789D01*
X485557Y77816D01*
X485530Y77858D01*
X485495Y77913D01*
X485454Y77969D01*
X485398Y78038D01*
X485343Y78100D01*
X485274Y78169D01*
X485931D01*
X485938Y78162D01*
D02*
G37*
%LPC*%
G36*
X542179Y83754D02*
X542172D01*
X542159D01*
X542131D01*
X542103Y83747D01*
X542062D01*
X542013Y83740D01*
X541910Y83726D01*
X541792Y83691D01*
X541667Y83650D01*
X541550Y83588D01*
X541439Y83505D01*
X541425Y83491D01*
X541397Y83463D01*
X541349Y83408D01*
X541300Y83332D01*
X541252Y83242D01*
X541204Y83131D01*
X541176Y83006D01*
X541162Y82868D01*
Y82833D01*
X541169Y82806D01*
X541176Y82736D01*
X541197Y82647D01*
X541231Y82550D01*
X541280Y82439D01*
X541349Y82335D01*
X541439Y82231D01*
X541453Y82217D01*
X541487Y82190D01*
X541550Y82148D01*
X541626Y82100D01*
X541729Y82051D01*
X541854Y82010D01*
X541993Y81982D01*
X542152Y81968D01*
X542166D01*
X542200D01*
X542255Y81975D01*
X542325Y81982D01*
X542415Y81996D01*
X542505Y82017D01*
X542601Y82044D01*
X542705Y82086D01*
X542719Y82093D01*
X542747Y82107D01*
X542795Y82134D01*
X542851Y82176D01*
X542920Y82224D01*
X542982Y82280D01*
X543051Y82349D01*
X543107Y82425D01*
X543114Y82432D01*
X543127Y82467D01*
X543148Y82508D01*
X543169Y82564D01*
X543197Y82633D01*
X543217Y82716D01*
X543231Y82799D01*
X543238Y82889D01*
Y82923D01*
X543231Y82951D01*
X543224Y83013D01*
X543203Y83103D01*
X543169Y83193D01*
X543120Y83297D01*
X543051Y83401D01*
X542954Y83498D01*
X542941Y83512D01*
X542899Y83539D01*
X542837Y83581D01*
X542754Y83629D01*
X542643Y83671D01*
X542505Y83712D01*
X542352Y83740D01*
X542179Y83754D01*
D02*
G37*
G36*
X505118Y83709D02*
X505111D01*
X505097D01*
X505069D01*
X505035Y83702D01*
X504993D01*
X504952Y83695D01*
X504841Y83675D01*
X504716Y83647D01*
X504592Y83599D01*
X504467Y83536D01*
X504350Y83453D01*
X504336Y83439D01*
X504308Y83405D01*
X504260Y83356D01*
X504204Y83280D01*
X504156Y83190D01*
X504107Y83087D01*
X504080Y82969D01*
X504066Y82837D01*
Y82803D01*
X504073Y82775D01*
X504080Y82706D01*
X504101Y82616D01*
X504142Y82512D01*
X504197Y82408D01*
X504267Y82298D01*
X504315Y82242D01*
X504370Y82187D01*
X504384Y82173D01*
X504426Y82145D01*
X504495Y82104D01*
X504585Y82055D01*
X504696Y82000D01*
X504834Y81959D01*
X504986Y81931D01*
X505159Y81917D01*
X505166D01*
X505180D01*
X505201D01*
X505228Y81924D01*
X505311Y81931D01*
X505408Y81952D01*
X505526Y81979D01*
X505644Y82028D01*
X505754Y82090D01*
X505865Y82173D01*
X505879Y82187D01*
X505907Y82222D01*
X505948Y82277D01*
X505997Y82353D01*
X506052Y82450D01*
X506094Y82560D01*
X506121Y82685D01*
X506135Y82823D01*
Y82858D01*
X506128Y82886D01*
X506121Y82955D01*
X506100Y83045D01*
X506066Y83142D01*
X506024Y83253D01*
X505955Y83356D01*
X505865Y83453D01*
X505851Y83467D01*
X505817Y83495D01*
X505754Y83536D01*
X505671Y83585D01*
X505561Y83626D01*
X505436Y83668D01*
X505284Y83695D01*
X505118Y83709D01*
D02*
G37*
G36*
X496050Y83759D02*
X495850D01*
X495836D01*
X495801D01*
X495746D01*
X495670Y83753D01*
X495580D01*
X495476Y83746D01*
X495365Y83739D01*
X495241Y83725D01*
X494991Y83697D01*
X494749Y83649D01*
X494632Y83621D01*
X494528Y83587D01*
X494438Y83545D01*
X494362Y83496D01*
X494355D01*
X494348Y83483D01*
X494306Y83448D01*
X494244Y83393D01*
X494175Y83317D01*
X494106Y83220D01*
X494043Y83109D01*
X494002Y82984D01*
X493995Y82915D01*
X493988Y82846D01*
Y82811D01*
X493995Y82784D01*
X494002Y82714D01*
X494030Y82625D01*
X494071Y82528D01*
X494127Y82424D01*
X494210Y82320D01*
X494265Y82272D01*
X494320Y82230D01*
X494327D01*
X494341Y82216D01*
X494369Y82202D01*
X494403Y82189D01*
X494452Y82168D01*
X494507Y82140D01*
X494583Y82112D01*
X494666Y82092D01*
X494763Y82064D01*
X494874Y82036D01*
X494998Y82016D01*
X495144Y81988D01*
X495296Y81974D01*
X495462Y81960D01*
X495649Y81946D01*
X495850D01*
X495863D01*
X495898D01*
X495953D01*
X496030Y81953D01*
X496119D01*
X496223Y81960D01*
X496341Y81967D01*
X496459Y81981D01*
X496708Y82009D01*
X496957Y82057D01*
X497067Y82085D01*
X497171Y82119D01*
X497268Y82161D01*
X497344Y82202D01*
X497351D01*
X497358Y82216D01*
X497400Y82251D01*
X497462Y82306D01*
X497524Y82382D01*
X497593Y82479D01*
X497656Y82590D01*
X497697Y82714D01*
X497704Y82784D01*
X497711Y82853D01*
Y82888D01*
X497704Y82915D01*
X497690Y82984D01*
X497663Y83074D01*
X497621Y83178D01*
X497559Y83282D01*
X497517Y83337D01*
X497462Y83393D01*
X497407Y83448D01*
X497344Y83496D01*
X497337D01*
X497324Y83510D01*
X497303Y83524D01*
X497268Y83538D01*
X497227Y83559D01*
X497164Y83579D01*
X497095Y83600D01*
X497019Y83628D01*
X496922Y83656D01*
X496818Y83676D01*
X496694Y83697D01*
X496555Y83718D01*
X496403Y83739D01*
X496237Y83746D01*
X496050Y83759D01*
D02*
G37*
%LPD*%
D10*
X395300Y74100D02*
G03*
X397300Y76100I0J2000D01*
G01*
X375300D02*
G03*
X377300Y74100I2000J0D01*
G01*
Y96100D02*
G03*
X375300Y94100I0J-2000D01*
G01*
X397300D02*
G03*
X395300Y96100I-2000J0D01*
G01*
X388745Y-68200D02*
Y-53200D01*
X416745Y-68200D02*
Y-53200D01*
X388745Y-68200D02*
X416745D01*
X388745Y-53200D02*
X416745D01*
X379300Y80100D02*
Y83000D01*
Y80100D02*
X393300D01*
Y83000D01*
X383400Y89100D02*
X389300D01*
X386300Y84500D02*
Y87100D01*
Y80100D02*
Y82700D01*
X397300Y76100D02*
Y94100D01*
X377300Y74100D02*
X395300D01*
X375300Y76100D02*
Y94100D01*
X377300Y96100D02*
X395300D01*
X499200Y23800D02*
X521200D01*
X499200Y1800D02*
Y23800D01*
Y1800D02*
X521200D01*
Y23800D01*
X597900Y1000D02*
Y31000D01*
Y31000D02*
X607900Y31000D01*
X607900Y31000D02*
X617900Y31000D01*
Y1000D02*
Y31000D01*
X597900Y1000D02*
X617900D01*
X361512Y-72170D02*
Y-65772D01*
Y-72170D02*
X375193D01*
Y-67544D01*
X359740Y-60438D02*
X377358D01*
X420612Y-72170D02*
Y-65772D01*
Y-72170D02*
X434293D01*
Y-67544D01*
X418840Y-60438D02*
X436458D01*
X477600Y-49100D02*
Y-43102D01*
X480599D01*
X481599Y-44102D01*
Y-46101D01*
X480599Y-47101D01*
X477600D01*
X486597Y-43102D02*
X484598D01*
X483598Y-44102D01*
Y-48100D01*
X484598Y-49100D01*
X486597D01*
X487597Y-48100D01*
Y-44102D01*
X486597Y-43102D01*
X489596D02*
Y-49100D01*
X491596Y-47101D01*
X493595Y-49100D01*
Y-43102D01*
X499593D02*
X495594D01*
Y-49100D01*
X499593D01*
X495594Y-46101D02*
X497593D01*
X501592Y-49100D02*
Y-43102D01*
X504591D01*
X505591Y-44102D01*
Y-46101D01*
X504591Y-47101D01*
X501592D01*
X503592D02*
X505591Y-49100D01*
X543300Y-53700D02*
Y-49701D01*
X545299Y-47702D01*
X547299Y-49701D01*
Y-53700D01*
Y-50701D01*
X543300D01*
X549298Y-53700D02*
Y-47702D01*
X553297Y-53700D01*
Y-47702D01*
X555296Y-53700D02*
Y-49701D01*
X557296Y-47702D01*
X559295Y-49701D01*
Y-53700D01*
Y-50701D01*
X555296D01*
X561294Y-47702D02*
Y-53700D01*
X565293D01*
X570291Y-47702D02*
X568292D01*
X567292Y-48702D01*
Y-52700D01*
X568292Y-53700D01*
X570291D01*
X571291Y-52700D01*
Y-48702D01*
X570291Y-47702D01*
X577289Y-48702D02*
X576289Y-47702D01*
X574290D01*
X573290Y-48702D01*
Y-52700D01*
X574290Y-53700D01*
X576289D01*
X577289Y-52700D01*
Y-50701D01*
X575290D01*
X585286Y-47702D02*
X587286D01*
X586286D01*
Y-53700D01*
X585286D01*
X587286D01*
X590285D02*
Y-47702D01*
X594283Y-53700D01*
Y-47702D01*
X490000Y68598D02*
Y62600D01*
X492999D01*
X493999Y63600D01*
Y67598D01*
X492999Y68598D01*
X490000D01*
X495998D02*
X497997D01*
X496998D01*
Y62600D01*
X495998D01*
X497997D01*
X504995Y67598D02*
X503996Y68598D01*
X501996D01*
X500996Y67598D01*
Y63600D01*
X501996Y62600D01*
X503996D01*
X504995Y63600D01*
Y65599D01*
X502996D01*
X506994Y68598D02*
X508994D01*
X507994D01*
Y62600D01*
X506994D01*
X508994D01*
X511993Y68598D02*
X515992D01*
X513992D01*
Y62600D01*
X517991D02*
Y66599D01*
X519990Y68598D01*
X521990Y66599D01*
Y62600D01*
Y65599D01*
X517991D01*
X523989Y68598D02*
Y62600D01*
X527988D01*
X535985D02*
Y68598D01*
X538984D01*
X539984Y67598D01*
Y65599D01*
X538984Y64599D01*
X535985D01*
X541983Y68598D02*
Y62600D01*
X543983Y64599D01*
X545982Y62600D01*
Y68598D01*
X547981Y62600D02*
Y68598D01*
X549981Y66599D01*
X551980Y68598D01*
Y62600D01*
X555979D02*
X553979Y64599D01*
Y66599D01*
X555979Y68598D01*
X558978Y67598D02*
X559977Y68598D01*
X561977D01*
X562976Y69598D01*
X564976Y62600D02*
X566975Y64599D01*
Y66599D01*
X564976Y68598D01*
D11*
X401000Y38747D02*
G03*
X400992Y57053I98J9153D01*
G01*
X376000Y57053D02*
G03*
X376008Y38747I-98J-9153D01*
G01*
X567753Y27649D02*
G03*
X549447Y27641I-9153J98D01*
G01*
X549447Y2649D02*
G03*
X567753Y2656I9153J-98D01*
G01*
X437700Y68800D02*
X444700D01*
X437700Y61800D02*
Y68800D01*
Y61800D02*
X444700D01*
X448700Y68800D02*
X457200D01*
Y61800D02*
Y68800D01*
X448700Y61800D02*
X457200D01*
X455700D02*
Y68800D01*
X437700Y12900D02*
X444700D01*
X437700Y5900D02*
Y12900D01*
Y5900D02*
X444700D01*
X448700Y12900D02*
X457200D01*
Y5900D02*
Y12900D01*
X448700Y5900D02*
X457200D01*
X455700D02*
Y12900D01*
X437700Y40630D02*
X444700D01*
X437700Y33630D02*
Y40630D01*
Y33630D02*
X444700D01*
X448700Y40630D02*
X457200D01*
Y33630D02*
Y40630D01*
X448700Y33630D02*
X457200D01*
X455700D02*
Y40630D01*
X368457Y-274D02*
X372457D01*
X352457D02*
X358457D01*
X352457Y-28274D02*
Y-274D01*
Y-28274D02*
X358457D01*
X368457D02*
X372457D01*
X352630Y-14274D02*
X369457D01*
X378457Y-7274D02*
Y-3274D01*
Y-25274D02*
Y-21274D01*
X376000Y57053D02*
X400992D01*
X376008Y38746D02*
X401000D01*
X549447Y2649D02*
Y27641D01*
X567754Y2656D02*
Y27649D01*
D12*
X530184Y-2200D02*
G03*
X530184Y-2200I-984J0D01*
G01*
X498300Y56545D02*
Y45298D01*
X499425Y41925D01*
X501674Y40800D01*
X505048D01*
X507297Y41925D01*
X510671Y45298D01*
Y56545D02*
Y40800D01*
X516856Y56545D02*
Y40800D01*
Y52046D02*
X520230Y55420D01*
X522479Y56545D01*
X525853D01*
X528102Y55420D01*
X529227Y52046D01*
Y40800D01*
X541036Y56545D02*
X538786Y55420D01*
X536537Y53171D01*
X535412Y49797D01*
Y47548D01*
X536537Y44174D01*
X538786Y41925D01*
X541036Y40800D01*
X544409D01*
X546659Y41925D01*
X548908Y44174D01*
X550033Y47548D01*
Y49797D01*
X548908Y53171D01*
X546659Y55420D01*
X544409Y56545D01*
X541036D01*
D13*
X518184Y5800D02*
G03*
X518184Y5800I-984J0D01*
G01*
D14*
X453639Y-13667D02*
G03*
X453639Y-5793I-3937J3937D01*
G01*
X439961D02*
G03*
X439961Y-13667I3937J-3937D01*
G01*
X379863Y-66477D02*
G03*
X387737Y-66477I3937J3937D01*
G01*
Y-52800D02*
G03*
X379863Y-52800I-3937J-3937D01*
G01*
X569763Y-6502D02*
G03*
X577637Y-6502I3937J3937D01*
G01*
Y7175D02*
G03*
X569763Y7175I-3937J-3937D01*
G01*
X577737Y40439D02*
G03*
X569863Y40439I-3937J-3937D01*
G01*
Y26761D02*
G03*
X577737Y26761I3937J3937D01*
G01*
X380476Y58063D02*
G03*
X380476Y65937I-3937J3937D01*
G01*
X366798D02*
G03*
X366798Y58063I3937J-3937D01*
G01*
X385230Y65937D02*
G03*
X385230Y58063I3937J-3937D01*
G01*
X398907D02*
G03*
X398907Y65937I-3937J3937D01*
G01*
X403661D02*
G03*
X403661Y58063I3937J-3937D01*
G01*
X417339D02*
G03*
X417339Y65937I-3937J3937D01*
G01*
X411779Y23900D02*
G03*
X411779Y18900I0J-2500D01*
G01*
X416063Y14024D02*
G03*
X423937Y14024I3937J3937D01*
G01*
Y27702D02*
G03*
X416063Y27702I-3937J-3937D01*
G01*
X378936Y-59650D02*
G03*
X378936Y-59650I-10236J0D01*
G01*
X438036D02*
G03*
X438036Y-59650I-10236J0D01*
G01*
X439863Y-66477D02*
G03*
X447737Y-66477I3937J3937D01*
G01*
Y-52800D02*
G03*
X439863Y-52800I-3937J-3937D01*
G01*
X358963Y14024D02*
G03*
X366837Y14024I3937J3937D01*
G01*
Y27702D02*
G03*
X358963Y27702I-3937J-3937D01*
G01*
X439961Y-24573D02*
G03*
X439961Y-32447I3937J-3937D01*
G01*
X453639D02*
G03*
X453639Y-24573I-3937J3937D01*
G01*
X439961Y-15183D02*
G03*
X439961Y-23057I3937J-3937D01*
G01*
X453639D02*
G03*
X453639Y-15183I-3937J3937D01*
G01*
X439961Y-33963D02*
G03*
X439961Y-41837I3937J-3937D01*
G01*
X453639D02*
G03*
X453639Y-33963I-3937J3937D01*
G01*
X535200Y-91528D02*
Y-81528D01*
X455200Y-91528D02*
X535200D01*
X455200Y-81528D02*
X535200D01*
X455200Y-91528D02*
Y-81528D01*
X540600Y-91528D02*
Y-81528D01*
X600600D01*
X540600Y-91528D02*
X600600D01*
Y-81528D01*
X606600Y99972D02*
Y109972D01*
X526600Y99972D02*
X606600D01*
X526600Y109972D02*
X606600D01*
X526600Y99972D02*
Y109972D01*
X421300Y99972D02*
Y109972D01*
X521300D01*
X421300Y99972D02*
X521300D01*
Y109972D01*
X511533Y85188D02*
Y96172D01*
X420100D02*
X522100D01*
X420100Y85188D02*
X522100D01*
Y96172D01*
X420100Y85188D02*
Y96172D01*
X536200Y-78112D02*
Y-67128D01*
X454200Y-78112D02*
X536200D01*
X454200D02*
Y-67128D01*
X536200D01*
X525633Y-78112D02*
Y-67128D01*
X448158Y-13667D02*
X453639Y-13667D01*
X448158Y-5793D02*
X453639Y-5793D01*
X439961D02*
X445442Y-5793D01*
X439961Y-13667D02*
X445442Y-13667D01*
X589844Y4373D02*
X590435Y3783D01*
X594765D01*
X595553Y4570D01*
X588663Y17956D02*
Y25633D01*
X596537D01*
Y18350D02*
Y25633D01*
Y5554D02*
Y12050D01*
X592600Y13231D02*
X594962Y16775D01*
X590238Y13231D02*
X594962Y13231D01*
X590238Y16775D02*
X592600Y13231D01*
X590238Y16775D02*
X594962D01*
X588663Y5554D02*
Y12050D01*
Y5554D02*
X589844Y4373D01*
X595356D01*
X596537Y5554D01*
X589647Y4767D02*
X595553D01*
X597233Y85188D02*
Y96172D01*
X525800D02*
X607800D01*
X525800Y85188D02*
Y96172D01*
Y85188D02*
X607800D01*
Y96172D01*
X379863Y-66477D02*
X379863Y-60997D01*
X387737D02*
X387737Y-66477D01*
X387737Y-58281D02*
X387737Y-52800D01*
X379863D02*
X379863Y-58281D01*
X550600Y-77700D02*
Y-67700D01*
X540600Y-77700D02*
Y-67700D01*
X601600D01*
X540600Y-77700D02*
X601600D01*
Y-67700D01*
X608439Y-45872D02*
Y-35872D01*
X618439Y-45872D02*
Y-35872D01*
X577439Y-45872D02*
X618439D01*
X577439Y-35872D02*
X618439D01*
X577439Y-45872D02*
Y-35872D01*
X608439Y-32536D02*
Y-22536D01*
X618439Y-32536D02*
Y-22536D01*
X577439Y-32536D02*
X618439D01*
X577439Y-22536D02*
X618439D01*
X577439Y-32536D02*
Y-22536D01*
X608439Y-19200D02*
Y-9200D01*
X618439Y-19200D02*
Y-9200D01*
X577439Y-19200D02*
X618439D01*
X577439Y-9200D02*
X618439D01*
X577439Y-19200D02*
Y-9200D01*
X569763Y-6502D02*
X569763Y-1021D01*
X577637D02*
X577637Y-6502D01*
X577637Y1695D02*
X577637Y7175D01*
X569763D02*
X569763Y1695D01*
X577737Y34958D02*
X577737Y40439D01*
X569863D02*
X569863Y34958D01*
X569863Y26761D02*
X569863Y32242D01*
X577737D02*
X577737Y26761D01*
X569863Y9454D02*
Y15044D01*
X577737Y9454D02*
Y15044D01*
X569863Y9454D02*
X577737D01*
X569863Y24021D02*
X577737D01*
Y18430D02*
Y24021D01*
X569863Y18430D02*
Y24021D01*
X374995Y58063D02*
X380476Y58063D01*
X374995Y65937D02*
X380476Y65937D01*
X366798D02*
X372279Y65937D01*
X366798Y58063D02*
X372279Y58063D01*
X385230Y65937D02*
X390710Y65937D01*
X385230Y58063D02*
X390710Y58063D01*
X393427D02*
X398907Y58063D01*
X393427Y65937D02*
X398907Y65937D01*
X403661D02*
X409142Y65937D01*
X403661Y58063D02*
X409142Y58063D01*
X411858D02*
X417339Y58063D01*
X411858Y65937D02*
X417339Y65937D01*
X439516Y50547D02*
X445107D01*
X439516Y42673D02*
X445107D01*
X439516D02*
Y50547D01*
X454083Y42673D02*
Y50547D01*
X448493Y42673D02*
X454083D01*
X448493Y50547D02*
X454083D01*
X439516Y31767D02*
X445107D01*
X439516Y23893D02*
X445107D01*
X439516D02*
Y31767D01*
X454083Y23893D02*
Y31767D01*
X448493Y23893D02*
X454083D01*
X448493Y31767D02*
X454083D01*
X439516Y22377D02*
X445107D01*
X439516Y14503D02*
X445107D01*
X439516D02*
Y22377D01*
X454083Y14503D02*
Y22377D01*
X448493Y14503D02*
X454083D01*
X448493Y22377D02*
X454083D01*
X439516Y3597D02*
X445107D01*
X439516Y-4277D02*
X445107D01*
X439516D02*
Y3597D01*
X454083Y-4277D02*
Y3597D01*
X448493Y-4277D02*
X454083D01*
X448493Y3597D02*
X454083D01*
X448493Y52063D02*
X454083D01*
X448493Y59937D02*
X454083D01*
Y52063D02*
Y59937D01*
X439516Y52063D02*
Y59937D01*
X445107D01*
X439516Y52063D02*
X445107D01*
X371623Y28880D02*
X411642D01*
X371623Y13920D02*
X411662D01*
X411779D02*
Y18945D01*
Y24142D02*
Y28872D01*
X371623Y13920D02*
Y28888D01*
X416063Y14024D02*
X416063Y19505D01*
X423937D02*
X423937Y14024D01*
X423937Y22221D02*
X423937Y27702D01*
X416063D02*
X416063Y22221D01*
X358857Y-59650D02*
X378542D01*
X358857Y-60438D02*
X378149D01*
X367125Y-62012D02*
X370669D01*
X366338Y-61225D02*
X367125Y-62012D01*
X365550Y-61225D02*
X371850Y-61225D01*
X417957Y-59650D02*
X437642D01*
X417957Y-60438D02*
X437249D01*
X426225Y-62012D02*
X429769D01*
X425438Y-61225D02*
X426225Y-62012D01*
X424650Y-61225D02*
X430950Y-61225D01*
X439863Y-66477D02*
X439863Y-60997D01*
X447737D02*
X447737Y-66477D01*
X447737Y-58281D02*
X447737Y-52800D01*
X439863D02*
X439863Y-58281D01*
X587537Y15293D02*
Y20884D01*
X579663Y15293D02*
Y20884D01*
X587537D01*
X579663Y6317D02*
X587537D01*
X579663D02*
Y11907D01*
X587537Y6317D02*
Y11907D01*
X358963Y14024D02*
X358963Y19505D01*
X366837D02*
X366837Y14024D01*
X366837Y22221D02*
X366837Y27702D01*
X358963D02*
X358963Y22221D01*
X439961Y-24573D02*
X445442Y-24573D01*
X439961Y-32447D02*
X445442Y-32447D01*
X448158D02*
X453639Y-32447D01*
X448158Y-24573D02*
X453639Y-24573D01*
X439961Y-15183D02*
X445442Y-15183D01*
X439961Y-23057D02*
X445442Y-23057D01*
X448158D02*
X453639Y-23057D01*
X448158Y-15183D02*
X453639Y-15183D01*
X439961Y-33963D02*
X445442Y-33963D01*
X439961Y-41837D02*
X445442Y-41837D01*
X448158D02*
X453639Y-41837D01*
X448158Y-33963D02*
X453639Y-33963D01*
D15*
X414009Y27309D02*
G03*
X413885Y27308I-65J587D01*
G01*
X454100Y-52800D02*
X535800D01*
X542900Y-56700D02*
X599700D01*
X463200Y72700D02*
X584400D01*
D16*
X360892Y-61347D02*
G03*
X376519Y-61296I7808J1697D01*
G01*
X364421Y-61314D02*
G03*
X373015Y-61219I4279J1664D01*
G01*
X419992Y-61347D02*
G03*
X435619Y-61296I7808J1697D01*
G01*
X423521Y-61314D02*
G03*
X432115Y-61219I4279J1664D01*
G01*
D17*
X360591Y-20274D02*
X368406D01*
X360591D02*
Y-19274D01*
X368406D01*
X360591Y-9274D02*
X368406D01*
X360591D02*
Y-9074D01*
Y-8274D01*
X368406D01*
Y-21739D02*
Y-17802D01*
X358563D02*
X368406D01*
X358563Y-21739D02*
Y-17802D01*
Y-21739D02*
X368406D01*
Y-10791D02*
Y-6854D01*
X358563Y-10791D02*
X368406D01*
X358563D02*
Y-6854D01*
X368406D01*
X391000Y47900D02*
X394000D01*
X383000D02*
X386000D01*
Y43900D02*
Y51900D01*
X391000Y43900D02*
Y51900D01*
X387500Y43900D02*
X389500D01*
X387500D02*
Y51900D01*
X389500D01*
Y43900D02*
Y51900D01*
X558600Y17649D02*
Y20649D01*
Y9649D02*
Y12649D01*
X554600D02*
X562600D01*
X554600Y17649D02*
X562600D01*
Y14149D02*
Y16149D01*
X554600Y14149D02*
X562600D01*
X554600D02*
Y16149D01*
X562600D01*
D18*
X380898Y-9156D02*
X382398Y-10656D01*
Y-7656D01*
X380898Y-9156D02*
X382398Y-7656D01*
D19*
X378000Y-60586D02*
X378149Y-60438D01*
X378000Y-62100D02*
Y-60586D01*
X360000Y-62100D02*
Y-61580D01*
X359500Y-61100D02*
X360643Y-62243D01*
X437100Y-60586D02*
X437249Y-60438D01*
X437100Y-62100D02*
Y-60586D01*
X419100Y-62100D02*
Y-61580D01*
X418600Y-61100D02*
X419742Y-62243D01*
D20*
X372217Y-72291D02*
X375170Y-69338D01*
X369583Y-72170D02*
X373618Y-67839D01*
X368281Y-71799D02*
X371233Y-68846D01*
X366509Y-72094D02*
X369461Y-69141D01*
X365328Y-71799D02*
X368281Y-68846D01*
X363753Y-71897D02*
X366706Y-68944D01*
X362473Y-71799D02*
X365426Y-68846D01*
X361391Y-71504D02*
X364343Y-68551D01*
X361292Y-70322D02*
X364245Y-67370D01*
X371059Y-72170D02*
X374799Y-68430D01*
X431318Y-72291D02*
X434270Y-69338D01*
X428683Y-72170D02*
X432718Y-67839D01*
X427381Y-71799D02*
X430333Y-68846D01*
X425609Y-72094D02*
X428561Y-69141D01*
X424428Y-71799D02*
X427381Y-68846D01*
X422853Y-71897D02*
X425806Y-68944D01*
X421573Y-71799D02*
X424526Y-68846D01*
X420491Y-71504D02*
X423443Y-68551D01*
X420392Y-70322D02*
X423345Y-67370D01*
X430159Y-72170D02*
X433899Y-68430D01*
D21*
X384862Y103736D02*
Y99800D01*
X385050Y103736D02*
Y99800D01*
X384300Y103736D02*
X386549D01*
X387111Y103549D01*
X387299Y103361D01*
X387486Y102986D01*
Y102612D01*
X387299Y102237D01*
X387111Y102049D01*
X386549Y101862D01*
X385050D01*
X386549Y103736D02*
X386924Y103549D01*
X387111Y103361D01*
X387299Y102986D01*
Y102612D01*
X387111Y102237D01*
X386924Y102049D01*
X386549Y101862D01*
X384300Y99800D02*
X385612D01*
X385987Y101862D02*
X386362Y101674D01*
X386549Y101487D01*
X387111Y100175D01*
X387299Y99987D01*
X387486D01*
X387674Y100175D01*
X386362Y101674D02*
X386549Y101300D01*
X386924Y99987D01*
X387111Y99800D01*
X387486D01*
X387674Y100175D01*
Y100362D01*
X388742Y103736D02*
Y99800D01*
X388930Y103736D02*
Y99800D01*
X390054Y102612D02*
Y101112D01*
X388180Y103736D02*
X391179D01*
Y102612D01*
X390991Y103736D01*
X388930Y101862D02*
X390054D01*
X388180Y99800D02*
X391179D01*
Y100925D01*
X390991Y99800D01*
X394159Y103174D02*
X394347Y103736D01*
Y102612D01*
X394159Y103174D01*
X393784Y103549D01*
X393222Y103736D01*
X392660D01*
X392097Y103549D01*
X391722Y103174D01*
Y102799D01*
X391910Y102424D01*
X392097Y102237D01*
X392472Y102049D01*
X393597Y101674D01*
X393972Y101487D01*
X394347Y101112D01*
X391722Y102799D02*
X392097Y102424D01*
X392472Y102237D01*
X393597Y101862D01*
X393972Y101674D01*
X394159Y101487D01*
X394347Y101112D01*
Y100362D01*
X393972Y99987D01*
X393409Y99800D01*
X392847D01*
X392285Y99987D01*
X391910Y100362D01*
X391722Y100925D01*
Y99800D01*
X391910Y100362D01*
X395490Y103736D02*
Y99800D01*
X395677Y103736D02*
Y99800D01*
X396802Y102612D02*
Y101112D01*
X394928Y103736D02*
X397927D01*
Y102612D01*
X397739Y103736D01*
X395677Y101862D02*
X396802D01*
X394928Y99800D02*
X397927D01*
Y100925D01*
X397739Y99800D01*
X399782Y103736D02*
Y99800D01*
X399970Y103736D02*
Y99800D01*
X398658Y103736D02*
X398470Y102612D01*
Y103736D01*
X401282D01*
Y102612D01*
X401094Y103736D01*
X399220Y99800D02*
X400532D01*
X543505Y-63813D02*
X547442Y-65125D01*
X543505Y-63813D02*
X547442Y-62501D01*
X544068Y-63813D02*
X547442Y-62688D01*
X546317Y-64750D02*
Y-63063D01*
X547442Y-65500D02*
Y-64375D01*
Y-63251D02*
Y-62126D01*
X543505Y-60495D02*
X543693Y-61058D01*
X544255Y-61433D01*
X545192Y-61620D01*
X545755D01*
X546692Y-61433D01*
X547254Y-61058D01*
X547442Y-60495D01*
Y-60121D01*
X547254Y-59558D01*
X546692Y-59183D01*
X545755Y-58996D01*
X545192D01*
X544255Y-59183D01*
X543693Y-59558D01*
X543505Y-60121D01*
Y-60495D01*
X543693Y-60870D01*
X543880Y-61058D01*
X544255Y-61245D01*
X545192Y-61433D01*
X545755D01*
X546692Y-61245D01*
X547067Y-61058D01*
X547254Y-60870D01*
X547442Y-60495D01*
Y-60121D02*
X547254Y-59746D01*
X547067Y-59558D01*
X546692Y-59371D01*
X545755Y-59183D01*
X545192D01*
X544255Y-59371D01*
X543880Y-59558D01*
X543693Y-59746D01*
X543505Y-60121D01*
X553897Y-63813D02*
X557833Y-65125D01*
X553897Y-63813D02*
X557833Y-62501D01*
X554459Y-63813D02*
X557833Y-62688D01*
X556709Y-64750D02*
Y-63063D01*
X557833Y-65500D02*
Y-64375D01*
Y-63251D02*
Y-62126D01*
X554647Y-61620D02*
X554459Y-61245D01*
X553897Y-60683D01*
X557833D01*
X554085Y-60870D02*
X557833D01*
Y-61620D02*
Y-59933D01*
X564289Y-63813D02*
X568225Y-65125D01*
X564289Y-63813D02*
X568225Y-62501D01*
X564851Y-63813D02*
X568225Y-62688D01*
X567100Y-64750D02*
Y-63063D01*
X568225Y-65500D02*
Y-64375D01*
Y-63251D02*
Y-62126D01*
X565038Y-61433D02*
X565226Y-61245D01*
X565413Y-61433D01*
X565226Y-61620D01*
X565038D01*
X564664Y-61433D01*
X564476Y-61245D01*
X564289Y-60683D01*
Y-59933D01*
X564476Y-59371D01*
X564664Y-59183D01*
X565038Y-58996D01*
X565413D01*
X565788Y-59183D01*
X566163Y-59746D01*
X566538Y-60683D01*
X566725Y-61058D01*
X567100Y-61433D01*
X567663Y-61620D01*
X568225D01*
X564289Y-59933D02*
X564476Y-59558D01*
X564664Y-59371D01*
X565038Y-59183D01*
X565413D01*
X565788Y-59371D01*
X566163Y-59933D01*
X566538Y-60683D01*
X567850Y-61620D02*
X567663Y-61433D01*
Y-61058D01*
X568038Y-60121D01*
Y-59558D01*
X567850Y-59183D01*
X567663Y-58996D01*
X567288D01*
X567663Y-61058D02*
X568225Y-60121D01*
Y-59371D01*
X568038Y-59183D01*
X567663Y-58996D01*
X574680Y-63813D02*
X578617Y-65125D01*
X574680Y-63813D02*
X578617Y-62501D01*
X575243Y-63813D02*
X578617Y-62688D01*
X577492Y-64750D02*
Y-63063D01*
X578617Y-65500D02*
Y-64375D01*
Y-63251D02*
Y-62126D01*
X575430Y-61433D02*
X575618Y-61245D01*
X575805Y-61433D01*
X575618Y-61620D01*
X575430D01*
X575055Y-61433D01*
X574868Y-61245D01*
X574680Y-60683D01*
Y-59933D01*
X574868Y-59371D01*
X575243Y-59183D01*
X575805D01*
X576180Y-59371D01*
X576367Y-59933D01*
Y-60495D01*
X574680Y-59933D02*
X574868Y-59558D01*
X575243Y-59371D01*
X575805D01*
X576180Y-59558D01*
X576367Y-59933D01*
X576555Y-59558D01*
X576930Y-59183D01*
X577305Y-58996D01*
X577867D01*
X578242Y-59183D01*
X578429Y-59371D01*
X578617Y-59933D01*
Y-60683D01*
X578429Y-61245D01*
X578242Y-61433D01*
X577867Y-61620D01*
X577679D01*
X577492Y-61433D01*
X577679Y-61245D01*
X577867Y-61433D01*
X576742Y-59371D02*
X577305Y-59183D01*
X577867D01*
X578242Y-59371D01*
X578429Y-59558D01*
X578617Y-59933D01*
X585072Y-63813D02*
X589008Y-65125D01*
X585072Y-63813D02*
X589008Y-62501D01*
X585634Y-63813D02*
X589008Y-62688D01*
X587884Y-64750D02*
Y-63063D01*
X589008Y-65500D02*
Y-64375D01*
Y-63251D02*
Y-62126D01*
X585447Y-59746D02*
X589008D01*
X587884Y-58621D02*
Y-61620D01*
X585072Y-59558D01*
X589008D01*
Y-60308D02*
Y-58996D01*
X595464Y-63813D02*
X599400Y-65125D01*
X595464Y-63813D02*
X599400Y-62501D01*
X596026Y-63813D02*
X599400Y-62688D01*
X598275Y-64750D02*
Y-63063D01*
X599400Y-65500D02*
Y-64375D01*
Y-63251D02*
Y-62126D01*
X595464Y-61245D02*
X597338Y-61620D01*
X596963Y-61245D01*
X596776Y-60683D01*
Y-60121D01*
X596963Y-59558D01*
X597338Y-59183D01*
X597900Y-58996D01*
X598275D01*
X598838Y-59183D01*
X599213Y-59558D01*
X599400Y-60121D01*
Y-60683D01*
X599213Y-61245D01*
X599025Y-61433D01*
X598650Y-61620D01*
X598463D01*
X598275Y-61433D01*
X598463Y-61245D01*
X598650Y-61433D01*
X596776Y-60121D02*
X596963Y-59746D01*
X597338Y-59371D01*
X597900Y-59183D01*
X598275D01*
X598838Y-59371D01*
X599213Y-59746D01*
X599400Y-60121D01*
X595464Y-61245D02*
Y-59371D01*
X595651Y-61245D02*
Y-60308D01*
X595464Y-59371D01*
X466964Y-65125D02*
X468838Y-65500D01*
X468463Y-65125D01*
X468276Y-64563D01*
Y-64000D01*
X468463Y-63438D01*
X468838Y-63063D01*
X469401Y-62876D01*
X469775D01*
X470338Y-63063D01*
X470713Y-63438D01*
X470900Y-64000D01*
Y-64563D01*
X470713Y-65125D01*
X470525Y-65313D01*
X470150Y-65500D01*
X469963D01*
X469775Y-65313D01*
X469963Y-65125D01*
X470150Y-65313D01*
X468276Y-64000D02*
X468463Y-63626D01*
X468838Y-63251D01*
X469401Y-63063D01*
X469775D01*
X470338Y-63251D01*
X470713Y-63626D01*
X470900Y-64000D01*
X466964Y-65125D02*
Y-63251D01*
X467151Y-65125D02*
Y-64188D01*
X466964Y-63251D01*
Y-61920D02*
X470900Y-60608D01*
X466964Y-61733D02*
X470338Y-60608D01*
X466964Y-59296D02*
X470900Y-60608D01*
X466964Y-62295D02*
Y-61170D01*
Y-60046D02*
Y-58921D01*
X477355Y-64938D02*
X481292D01*
X477355Y-64750D02*
X481292D01*
X477355Y-65500D02*
Y-63251D01*
X477543Y-62688D01*
X477730Y-62501D01*
X478105Y-62314D01*
X478480D01*
X478855Y-62501D01*
X479042Y-62688D01*
X479230Y-63251D01*
Y-64750D01*
X477355Y-63251D02*
X477543Y-62876D01*
X477730Y-62688D01*
X478105Y-62501D01*
X478480D01*
X478855Y-62688D01*
X479042Y-62876D01*
X479230Y-63251D01*
X481292Y-65500D02*
Y-64188D01*
X479230Y-63813D02*
X479417Y-63438D01*
X479605Y-63251D01*
X480917Y-62688D01*
X481104Y-62501D01*
Y-62314D01*
X480917Y-62126D01*
X479417Y-63438D02*
X479792Y-63251D01*
X481104Y-62876D01*
X481292Y-62688D01*
Y-62314D01*
X480917Y-62126D01*
X480729D01*
X477355Y-61058D02*
X481292D01*
X477355Y-60870D02*
X481292D01*
X478480Y-59746D02*
X479980D01*
X477355Y-61620D02*
Y-58621D01*
X478480D01*
X477355Y-58808D01*
X479230Y-60870D02*
Y-59746D01*
X481292Y-61620D02*
Y-58621D01*
X480167D01*
X481292Y-58808D01*
X477918Y-55641D02*
X477355Y-55453D01*
X478480D01*
X477918Y-55641D01*
X477543Y-56016D01*
X477355Y-56578D01*
Y-57140D01*
X477543Y-57703D01*
X477918Y-58078D01*
X478293D01*
X478668Y-57890D01*
X478855Y-57703D01*
X479042Y-57328D01*
X479417Y-56203D01*
X479605Y-55828D01*
X479980Y-55453D01*
X478293Y-58078D02*
X478668Y-57703D01*
X478855Y-57328D01*
X479230Y-56203D01*
X479417Y-55828D01*
X479605Y-55641D01*
X479980Y-55453D01*
X480729D01*
X481104Y-55828D01*
X481292Y-56391D01*
Y-56953D01*
X481104Y-57515D01*
X480729Y-57890D01*
X480167Y-58078D01*
X481292D01*
X480729Y-57890D01*
X488497Y-65313D02*
X488684Y-65125D01*
X488872Y-65313D01*
X488684Y-65500D01*
X488497D01*
X488122Y-65313D01*
X487935Y-65125D01*
X487747Y-64563D01*
Y-63813D01*
X487935Y-63251D01*
X488309Y-63063D01*
X488872D01*
X489247Y-63251D01*
X489434Y-63813D01*
Y-64375D01*
X487747Y-63813D02*
X487935Y-63438D01*
X488309Y-63251D01*
X488872D01*
X489247Y-63438D01*
X489434Y-63813D01*
X489621Y-63438D01*
X489996Y-63063D01*
X490371Y-62876D01*
X490934D01*
X491308Y-63063D01*
X491496Y-63251D01*
X491683Y-63813D01*
Y-64563D01*
X491496Y-65125D01*
X491308Y-65313D01*
X490934Y-65500D01*
X490746D01*
X490559Y-65313D01*
X490746Y-65125D01*
X490934Y-65313D01*
X489809Y-63251D02*
X490371Y-63063D01*
X490934D01*
X491308Y-63251D01*
X491496Y-63438D01*
X491683Y-63813D01*
X491308Y-62107D02*
X491496Y-62295D01*
X491683Y-62107D01*
X491496Y-61920D01*
X491308Y-62107D01*
X488497Y-60927D02*
X488684Y-60739D01*
X488872Y-60927D01*
X488684Y-61114D01*
X488497D01*
X488122Y-60927D01*
X487935Y-60739D01*
X487747Y-60177D01*
Y-59427D01*
X487935Y-58865D01*
X488309Y-58677D01*
X488872D01*
X489247Y-58865D01*
X489434Y-59427D01*
Y-59989D01*
X487747Y-59427D02*
X487935Y-59052D01*
X488309Y-58865D01*
X488872D01*
X489247Y-59052D01*
X489434Y-59427D01*
X489621Y-59052D01*
X489996Y-58677D01*
X490371Y-58490D01*
X490934D01*
X491308Y-58677D01*
X491496Y-58865D01*
X491683Y-59427D01*
Y-60177D01*
X491496Y-60739D01*
X491308Y-60927D01*
X490934Y-61114D01*
X490746D01*
X490559Y-60927D01*
X490746Y-60739D01*
X490934Y-60927D01*
X489809Y-58865D02*
X490371Y-58677D01*
X490934D01*
X491308Y-58865D01*
X491496Y-59052D01*
X491683Y-59427D01*
X487747Y-57534D02*
X491683Y-56222D01*
X487747Y-57346D02*
X491121Y-56222D01*
X487747Y-54910D02*
X491683Y-56222D01*
X487747Y-57909D02*
Y-56784D01*
Y-55660D02*
Y-54535D01*
X498139Y-65125D02*
X500013Y-65500D01*
X499638Y-65125D01*
X499451Y-64563D01*
Y-64000D01*
X499638Y-63438D01*
X500013Y-63063D01*
X500575Y-62876D01*
X500950D01*
X501513Y-63063D01*
X501888Y-63438D01*
X502075Y-64000D01*
Y-64563D01*
X501888Y-65125D01*
X501700Y-65313D01*
X501325Y-65500D01*
X501138D01*
X500950Y-65313D01*
X501138Y-65125D01*
X501325Y-65313D01*
X499451Y-64000D02*
X499638Y-63626D01*
X500013Y-63251D01*
X500575Y-63063D01*
X500950D01*
X501513Y-63251D01*
X501888Y-63626D01*
X502075Y-64000D01*
X498139Y-65125D02*
Y-63251D01*
X498326Y-65125D02*
Y-64188D01*
X498139Y-63251D01*
Y-61920D02*
X502075Y-60608D01*
X498139Y-61733D02*
X501513Y-60608D01*
X498139Y-59296D02*
X502075Y-60608D01*
X498139Y-62295D02*
Y-61170D01*
Y-60046D02*
Y-58921D01*
X509093Y-62876D02*
X509655Y-62688D01*
X508531D01*
X509093Y-62876D01*
X508718Y-63251D01*
X508531Y-63813D01*
Y-64188D01*
X508718Y-64750D01*
X509093Y-65125D01*
X509468Y-65313D01*
X510030Y-65500D01*
X510967D01*
X511529Y-65313D01*
X511904Y-65125D01*
X512279Y-64750D01*
X512467Y-64188D01*
Y-63813D01*
X512279Y-63251D01*
X511904Y-62876D01*
X508531Y-64188D02*
X508718Y-64563D01*
X509093Y-64938D01*
X509468Y-65125D01*
X510030Y-65313D01*
X510967D01*
X511529Y-65125D01*
X511904Y-64938D01*
X512279Y-64563D01*
X512467Y-64188D01*
X510967Y-62876D02*
X512467D01*
X510967Y-62688D02*
X512467D01*
X510967Y-63438D02*
Y-62126D01*
X508531Y-61058D02*
X512467D01*
X508531Y-60870D02*
X512092Y-58621D01*
X508905Y-60870D02*
X512467Y-58621D01*
X508531D02*
X512467D01*
X508531Y-61620D02*
Y-60870D01*
Y-59183D02*
Y-58059D01*
X512467Y-61620D02*
Y-60495D01*
X508531Y-57009D02*
X512467D01*
X508531Y-56822D02*
X512467D01*
X508531Y-57571D02*
Y-55697D01*
X508718Y-55135D01*
X509093Y-54760D01*
X509468Y-54572D01*
X510030Y-54385D01*
X510967D01*
X511529Y-54572D01*
X511904Y-54760D01*
X512279Y-55135D01*
X512467Y-55697D01*
Y-57571D01*
X508531Y-55697D02*
X508718Y-55322D01*
X509093Y-54947D01*
X509468Y-54760D01*
X510030Y-54572D01*
X510967D01*
X511529Y-54760D01*
X511904Y-54947D01*
X512279Y-55322D01*
X512467Y-55697D01*
X519484Y-62876D02*
X520047Y-62688D01*
X518922D01*
X519484Y-62876D01*
X519110Y-63251D01*
X518922Y-63813D01*
Y-64188D01*
X519110Y-64750D01*
X519484Y-65125D01*
X519859Y-65313D01*
X520422Y-65500D01*
X521359D01*
X521921Y-65313D01*
X522296Y-65125D01*
X522671Y-64750D01*
X522858Y-64188D01*
Y-63813D01*
X522671Y-63251D01*
X522296Y-62876D01*
X518922Y-64188D02*
X519110Y-64563D01*
X519484Y-64938D01*
X519859Y-65125D01*
X520422Y-65313D01*
X521359D01*
X521921Y-65125D01*
X522296Y-64938D01*
X522671Y-64563D01*
X522858Y-64188D01*
X521359Y-62876D02*
X522858D01*
X521359Y-62688D02*
X522858D01*
X521359Y-63438D02*
Y-62126D01*
X518922Y-61058D02*
X522858D01*
X518922Y-60870D02*
X522483Y-58621D01*
X519297Y-60870D02*
X522858Y-58621D01*
X518922D02*
X522858D01*
X518922Y-61620D02*
Y-60870D01*
Y-59183D02*
Y-58059D01*
X522858Y-61620D02*
Y-60495D01*
X518922Y-57009D02*
X522858D01*
X518922Y-56822D02*
X522858D01*
X518922Y-57571D02*
Y-55697D01*
X519110Y-55135D01*
X519484Y-54760D01*
X519859Y-54572D01*
X520422Y-54385D01*
X521359D01*
X521921Y-54572D01*
X522296Y-54760D01*
X522671Y-55135D01*
X522858Y-55697D01*
Y-57571D01*
X518922Y-55697D02*
X519110Y-55322D01*
X519484Y-54947D01*
X519859Y-54760D01*
X520422Y-54572D01*
X521359D01*
X521921Y-54760D01*
X522296Y-54947D01*
X522671Y-55322D01*
X522858Y-55697D01*
X527762Y-12864D02*
Y-16800D01*
X527950Y-12864D02*
Y-16800D01*
X527200Y-12864D02*
X529449D01*
X530012Y-13051D01*
X530199Y-13239D01*
X530386Y-13614D01*
Y-13988D01*
X530199Y-14363D01*
X530012Y-14551D01*
X529449Y-14738D01*
X527950D01*
X529449Y-12864D02*
X529824Y-13051D01*
X530012Y-13239D01*
X530199Y-13614D01*
Y-13988D01*
X530012Y-14363D01*
X529824Y-14551D01*
X529449Y-14738D01*
X527200Y-16800D02*
X528512D01*
X528887Y-14738D02*
X529262Y-14926D01*
X529449Y-15113D01*
X530012Y-16425D01*
X530199Y-16613D01*
X530386D01*
X530574Y-16425D01*
X529262Y-14926D02*
X529449Y-15301D01*
X529824Y-16613D01*
X530012Y-16800D01*
X530386D01*
X530574Y-16425D01*
Y-16238D01*
X531455Y-12864D02*
X533891Y-16800D01*
X531642Y-12864D02*
X534079Y-16800D01*
Y-12864D02*
X531455Y-16800D01*
X531080Y-12864D02*
X532205D01*
X533329D02*
X534454D01*
X531080Y-16800D02*
X532205D01*
X533329D02*
X534454D01*
X540179Y-12864D02*
Y-16800D01*
X540366Y-12864D02*
Y-16800D01*
X539054Y-12864D02*
X538867Y-13988D01*
Y-12864D01*
X541678D01*
Y-13988D01*
X541491Y-12864D01*
X539616Y-16800D02*
X540929D01*
X542615Y-12864D02*
X545052Y-16800D01*
X542803Y-12864D02*
X545239Y-16800D01*
Y-12864D02*
X542615Y-16800D01*
X542240Y-12864D02*
X543365D01*
X544490D02*
X545614D01*
X542240Y-16800D02*
X543365D01*
X544490D02*
X545614D01*
X553008Y-12864D02*
X552633Y-14738D01*
X553008Y-14363D01*
X553571Y-14176D01*
X554133D01*
X554695Y-14363D01*
X555070Y-14738D01*
X555257Y-15301D01*
Y-15675D01*
X555070Y-16238D01*
X554695Y-16613D01*
X554133Y-16800D01*
X553571D01*
X553008Y-16613D01*
X552821Y-16425D01*
X552633Y-16050D01*
Y-15863D01*
X552821Y-15675D01*
X553008Y-15863D01*
X552821Y-16050D01*
X554133Y-14176D02*
X554508Y-14363D01*
X554883Y-14738D01*
X555070Y-15301D01*
Y-15675D01*
X554883Y-16238D01*
X554508Y-16613D01*
X554133Y-16800D01*
X553008Y-12864D02*
X554883D01*
X553008Y-13051D02*
X553945D01*
X554883Y-12864D01*
X556213D02*
X557525Y-16800D01*
X556401Y-12864D02*
X557525Y-16238D01*
X558838Y-12864D02*
X557525Y-16800D01*
X555838Y-12864D02*
X556963D01*
X558088D02*
X559212D01*
X566724Y-13426D02*
X566912Y-13988D01*
Y-12864D01*
X566724Y-13426D01*
X566349Y-13051D01*
X565787Y-12864D01*
X565412D01*
X564850Y-13051D01*
X564475Y-13426D01*
X564287Y-13801D01*
X564100Y-14363D01*
Y-15301D01*
X564287Y-15863D01*
X564475Y-16238D01*
X564850Y-16613D01*
X565412Y-16800D01*
X565787D01*
X566349Y-16613D01*
X566724Y-16238D01*
X565412Y-12864D02*
X565037Y-13051D01*
X564662Y-13426D01*
X564475Y-13801D01*
X564287Y-14363D01*
Y-15301D01*
X564475Y-15863D01*
X564662Y-16238D01*
X565037Y-16613D01*
X565412Y-16800D01*
X566724Y-15301D02*
Y-16800D01*
X566912Y-15301D02*
Y-16800D01*
X566162Y-15301D02*
X567474D01*
X568542Y-12864D02*
Y-16800D01*
X568730Y-12864D02*
X570979Y-16425D01*
X568730Y-13239D02*
X570979Y-16800D01*
Y-12864D02*
Y-16800D01*
X567980Y-12864D02*
X568730D01*
X570417D02*
X571541D01*
X567980Y-16800D02*
X569104D01*
X572591Y-12864D02*
Y-16800D01*
X572778Y-12864D02*
Y-16800D01*
X572028Y-12864D02*
X573903D01*
X574465Y-13051D01*
X574840Y-13426D01*
X575028Y-13801D01*
X575215Y-14363D01*
Y-15301D01*
X575028Y-15863D01*
X574840Y-16238D01*
X574465Y-16613D01*
X573903Y-16800D01*
X572028D01*
X573903Y-12864D02*
X574278Y-13051D01*
X574653Y-13426D01*
X574840Y-13801D01*
X575028Y-14363D01*
Y-15301D01*
X574840Y-15863D01*
X574653Y-16238D01*
X574278Y-16613D01*
X573903Y-16800D01*
X566524Y-26076D02*
X566712Y-26638D01*
Y-25514D01*
X566524Y-26076D01*
X566149Y-25701D01*
X565587Y-25514D01*
X565212D01*
X564650Y-25701D01*
X564275Y-26076D01*
X564087Y-26451D01*
X563900Y-27013D01*
Y-27951D01*
X564087Y-28513D01*
X564275Y-28888D01*
X564650Y-29263D01*
X565212Y-29450D01*
X565587D01*
X566149Y-29263D01*
X566524Y-28888D01*
X565212Y-25514D02*
X564837Y-25701D01*
X564462Y-26076D01*
X564275Y-26451D01*
X564087Y-27013D01*
Y-27951D01*
X564275Y-28513D01*
X564462Y-28888D01*
X564837Y-29263D01*
X565212Y-29450D01*
X566524Y-27951D02*
Y-29450D01*
X566712Y-27951D02*
Y-29450D01*
X565962Y-27951D02*
X567274D01*
X568342Y-25514D02*
Y-29450D01*
X568530Y-25514D02*
X570779Y-29075D01*
X568530Y-25889D02*
X570779Y-29450D01*
Y-25514D02*
Y-29450D01*
X567780Y-25514D02*
X568530D01*
X570217D02*
X571341D01*
X567780Y-29450D02*
X568904D01*
X572391Y-25514D02*
Y-29450D01*
X572578Y-25514D02*
Y-29450D01*
X571829Y-25514D02*
X573703D01*
X574265Y-25701D01*
X574640Y-26076D01*
X574827Y-26451D01*
X575015Y-27013D01*
Y-27951D01*
X574827Y-28513D01*
X574640Y-28888D01*
X574265Y-29263D01*
X573703Y-29450D01*
X571829D01*
X573703Y-25514D02*
X574078Y-25701D01*
X574453Y-26076D01*
X574640Y-26451D01*
X574827Y-27013D01*
Y-27951D01*
X574640Y-28513D01*
X574453Y-28888D01*
X574078Y-29263D01*
X573703Y-29450D01*
X552875Y-25514D02*
X552500Y-27388D01*
X552875Y-27013D01*
X553437Y-26826D01*
X554000D01*
X554562Y-27013D01*
X554937Y-27388D01*
X555124Y-27951D01*
Y-28325D01*
X554937Y-28888D01*
X554562Y-29263D01*
X554000Y-29450D01*
X553437D01*
X552875Y-29263D01*
X552687Y-29075D01*
X552500Y-28700D01*
Y-28513D01*
X552687Y-28325D01*
X552875Y-28513D01*
X552687Y-28700D01*
X554000Y-26826D02*
X554374Y-27013D01*
X554749Y-27388D01*
X554937Y-27951D01*
Y-28325D01*
X554749Y-28888D01*
X554374Y-29263D01*
X554000Y-29450D01*
X552875Y-25514D02*
X554749D01*
X552875Y-25701D02*
X553812D01*
X554749Y-25514D01*
X556080D02*
X557392Y-29450D01*
X556267Y-25514D02*
X557392Y-28888D01*
X558704Y-25514D02*
X557392Y-29450D01*
X555705Y-25514D02*
X556830D01*
X557954D02*
X559079D01*
X541237Y-26076D02*
X541424Y-25514D01*
Y-26638D01*
X541237Y-26076D01*
X540862Y-25701D01*
X540300Y-25514D01*
X539737D01*
X539175Y-25701D01*
X538800Y-26076D01*
Y-26451D01*
X538987Y-26826D01*
X539175Y-27013D01*
X539550Y-27201D01*
X540674Y-27576D01*
X541049Y-27763D01*
X541424Y-28138D01*
X538800Y-26451D02*
X539175Y-26826D01*
X539550Y-27013D01*
X540674Y-27388D01*
X541049Y-27576D01*
X541237Y-27763D01*
X541424Y-28138D01*
Y-28888D01*
X541049Y-29263D01*
X540487Y-29450D01*
X539925D01*
X539362Y-29263D01*
X538987Y-28888D01*
X538800Y-28325D01*
Y-29450D01*
X538987Y-28888D01*
X542567Y-25514D02*
Y-29450D01*
X542755Y-25514D02*
Y-29450D01*
X542005Y-25514D02*
X543880D01*
X544442Y-25701D01*
X544817Y-26076D01*
X545004Y-26451D01*
X545192Y-27013D01*
Y-27951D01*
X545004Y-28513D01*
X544817Y-28888D01*
X544442Y-29263D01*
X543880Y-29450D01*
X542005D01*
X543880Y-25514D02*
X544254Y-25701D01*
X544629Y-26076D01*
X544817Y-26451D01*
X545004Y-27013D01*
Y-27951D01*
X544817Y-28513D01*
X544629Y-28888D01*
X544254Y-29263D01*
X543880Y-29450D01*
X547403Y-25514D02*
X546091Y-29450D01*
X547403Y-25514D02*
X548715Y-29450D01*
X547403Y-26076D02*
X548528Y-29450D01*
X546466Y-28325D02*
X548153D01*
X545716Y-29450D02*
X546841D01*
X547966D02*
X549090D01*
X529637Y-26076D02*
X529824Y-25514D01*
Y-26638D01*
X529637Y-26076D01*
X529262Y-25701D01*
X528699Y-25514D01*
X528137D01*
X527575Y-25701D01*
X527200Y-26076D01*
Y-26451D01*
X527387Y-26826D01*
X527575Y-27013D01*
X527950Y-27201D01*
X529074Y-27576D01*
X529449Y-27763D01*
X529824Y-28138D01*
X527200Y-26451D02*
X527575Y-26826D01*
X527950Y-27013D01*
X529074Y-27388D01*
X529449Y-27576D01*
X529637Y-27763D01*
X529824Y-28138D01*
Y-28888D01*
X529449Y-29263D01*
X528887Y-29450D01*
X528325D01*
X527762Y-29263D01*
X527387Y-28888D01*
X527200Y-28325D01*
Y-29450D01*
X527387Y-28888D01*
X533029Y-26076D02*
X533217Y-26638D01*
Y-25514D01*
X533029Y-26076D01*
X532654Y-25701D01*
X532092Y-25514D01*
X531717D01*
X531155Y-25701D01*
X530780Y-26076D01*
X530593Y-26451D01*
X530405Y-27013D01*
Y-27951D01*
X530593Y-28513D01*
X530780Y-28888D01*
X531155Y-29263D01*
X531717Y-29450D01*
X532092D01*
X532654Y-29263D01*
X533029Y-28888D01*
X533217Y-28513D01*
X531717Y-25514D02*
X531342Y-25701D01*
X530968Y-26076D01*
X530780Y-26451D01*
X530593Y-27013D01*
Y-27951D01*
X530780Y-28513D01*
X530968Y-28888D01*
X531342Y-29263D01*
X531717Y-29450D01*
X534341Y-25514D02*
Y-29450D01*
X534529Y-25514D02*
Y-29450D01*
X533779Y-25514D02*
X535091D01*
X533779Y-29450D02*
X536591D01*
Y-28325D01*
X536403Y-29450D01*
X565924Y-38726D02*
X566112Y-39288D01*
Y-38164D01*
X565924Y-38726D01*
X565549Y-38351D01*
X564987Y-38164D01*
X564612D01*
X564050Y-38351D01*
X563675Y-38726D01*
X563487Y-39101D01*
X563300Y-39663D01*
Y-40600D01*
X563487Y-41163D01*
X563675Y-41538D01*
X564050Y-41913D01*
X564612Y-42100D01*
X564987D01*
X565549Y-41913D01*
X565924Y-41538D01*
X564612Y-38164D02*
X564237Y-38351D01*
X563862Y-38726D01*
X563675Y-39101D01*
X563487Y-39663D01*
Y-40600D01*
X563675Y-41163D01*
X563862Y-41538D01*
X564237Y-41913D01*
X564612Y-42100D01*
X565924Y-40600D02*
Y-42100D01*
X566112Y-40600D02*
Y-42100D01*
X565362Y-40600D02*
X566674D01*
X567742Y-38164D02*
Y-42100D01*
X567930Y-38164D02*
X570179Y-41725D01*
X567930Y-38539D02*
X570179Y-42100D01*
Y-38164D02*
Y-42100D01*
X567180Y-38164D02*
X567930D01*
X569617D02*
X570741D01*
X567180Y-42100D02*
X568304D01*
X571791Y-38164D02*
Y-42100D01*
X571978Y-38164D02*
Y-42100D01*
X571229Y-38164D02*
X573103D01*
X573665Y-38351D01*
X574040Y-38726D01*
X574228Y-39101D01*
X574415Y-39663D01*
Y-40600D01*
X574228Y-41163D01*
X574040Y-41538D01*
X573665Y-41913D01*
X573103Y-42100D01*
X571229D01*
X573103Y-38164D02*
X573478Y-38351D01*
X573853Y-38726D01*
X574040Y-39101D01*
X574228Y-39663D01*
Y-40600D01*
X574040Y-41163D01*
X573853Y-41538D01*
X573478Y-41913D01*
X573103Y-42100D01*
X552475Y-38164D02*
X552100Y-40038D01*
X552475Y-39663D01*
X553037Y-39476D01*
X553600D01*
X554162Y-39663D01*
X554537Y-40038D01*
X554724Y-40600D01*
Y-40975D01*
X554537Y-41538D01*
X554162Y-41913D01*
X553600Y-42100D01*
X553037D01*
X552475Y-41913D01*
X552287Y-41725D01*
X552100Y-41350D01*
Y-41163D01*
X552287Y-40975D01*
X552475Y-41163D01*
X552287Y-41350D01*
X553600Y-39476D02*
X553974Y-39663D01*
X554349Y-40038D01*
X554537Y-40600D01*
Y-40975D01*
X554349Y-41538D01*
X553974Y-41913D01*
X553600Y-42100D01*
X552475Y-38164D02*
X554349D01*
X552475Y-38351D02*
X553412D01*
X554349Y-38164D01*
X555680D02*
X556992Y-42100D01*
X555867Y-38164D02*
X556992Y-41538D01*
X558304Y-38164D02*
X556992Y-42100D01*
X555305Y-38164D02*
X556430D01*
X557554D02*
X558679D01*
X539912D02*
Y-42100D01*
X540099Y-38164D02*
Y-42100D01*
X538787Y-38164D02*
X538600Y-39288D01*
Y-38164D01*
X541411D01*
Y-39288D01*
X541224Y-38164D01*
X539350Y-42100D02*
X540662D01*
X542349Y-38164D02*
X544785Y-42100D01*
X542536Y-38164D02*
X544973Y-42100D01*
Y-38164D02*
X542349Y-42100D01*
X541974Y-38164D02*
X543098D01*
X544223D02*
X545348D01*
X541974Y-42100D02*
X543098D01*
X544223D02*
X545348D01*
X527762Y-38164D02*
Y-42100D01*
X527950Y-38164D02*
Y-42100D01*
X527200Y-38164D02*
X529449D01*
X530012Y-38351D01*
X530199Y-38539D01*
X530386Y-38914D01*
Y-39288D01*
X530199Y-39663D01*
X530012Y-39851D01*
X529449Y-40038D01*
X527950D01*
X529449Y-38164D02*
X529824Y-38351D01*
X530012Y-38539D01*
X530199Y-38914D01*
Y-39288D01*
X530012Y-39663D01*
X529824Y-39851D01*
X529449Y-40038D01*
X527200Y-42100D02*
X528512D01*
X528887Y-40038D02*
X529262Y-40226D01*
X529449Y-40413D01*
X530012Y-41725D01*
X530199Y-41913D01*
X530386D01*
X530574Y-41725D01*
X529262Y-40226D02*
X529449Y-40600D01*
X529824Y-41913D01*
X530012Y-42100D01*
X530386D01*
X530574Y-41725D01*
Y-41538D01*
X531455Y-38164D02*
X533891Y-42100D01*
X531642Y-38164D02*
X534079Y-42100D01*
Y-38164D02*
X531455Y-42100D01*
X531080Y-38164D02*
X532205D01*
X533329D02*
X534454D01*
X531080Y-42100D02*
X532205D01*
X533329D02*
X534454D01*
X600564Y66605D02*
X604500D01*
X600564Y66793D02*
X604500D01*
X600564Y66043D02*
Y68292D01*
X600751Y68854D01*
X600939Y69042D01*
X601313Y69229D01*
X601688D01*
X602063Y69042D01*
X602251Y68854D01*
X602438Y68292D01*
Y66793D01*
X600564Y68292D02*
X600751Y68667D01*
X600939Y68854D01*
X601313Y69042D01*
X601688D01*
X602063Y68854D01*
X602251Y68667D01*
X602438Y68292D01*
X604500Y66043D02*
Y67355D01*
X602438Y67730D02*
X602625Y68105D01*
X602813Y68292D01*
X604125Y68854D01*
X604312Y69042D01*
Y69229D01*
X604125Y69417D01*
X602625Y68105D02*
X603000Y68292D01*
X604312Y68667D01*
X604500Y68854D01*
Y69229D01*
X604125Y69417D01*
X603937D01*
X600564Y70298D02*
X604500Y72734D01*
X600564Y70485D02*
X604500Y72922D01*
X600564D02*
X604500Y70298D01*
X600564Y69923D02*
Y71047D01*
Y72172D02*
Y73297D01*
X604500Y69923D02*
Y71047D01*
Y72172D02*
Y73297D01*
X601126Y76802D02*
X602813Y73803D01*
X604500Y76802D01*
X602813Y77345D02*
Y80719D01*
X600564Y82350D02*
X600751Y81788D01*
X601313Y81413D01*
X602251Y81225D01*
X602813D01*
X603750Y81413D01*
X604312Y81788D01*
X604500Y82350D01*
Y82725D01*
X604312Y83287D01*
X603750Y83662D01*
X602813Y83849D01*
X602251D01*
X601313Y83662D01*
X600751Y83287D01*
X600564Y82725D01*
Y82350D01*
X600751Y81975D01*
X600939Y81788D01*
X601313Y81600D01*
X602251Y81413D01*
X602813D01*
X603750Y81600D01*
X604125Y81788D01*
X604312Y81975D01*
X604500Y82350D01*
Y82725D02*
X604312Y83100D01*
X604125Y83287D01*
X603750Y83474D01*
X602813Y83662D01*
X602251D01*
X601313Y83474D01*
X600939Y83287D01*
X600751Y83100D01*
X600564Y82725D01*
X590392Y68798D02*
X594328D01*
X590392Y68986D02*
X594328D01*
X590392Y67673D02*
X591517Y67486D01*
X590392D01*
Y70298D01*
X591517D01*
X590392Y70110D01*
X594328Y68236D02*
Y69548D01*
X590392Y71235D02*
X594328Y73672D01*
X590392Y71422D02*
X594328Y73859D01*
X590392D02*
X594328Y71235D01*
X590392Y70860D02*
Y71985D01*
Y73109D02*
Y74234D01*
X594328Y70860D02*
Y71985D01*
Y73109D02*
Y74234D01*
X592641Y74740D02*
Y78114D01*
X590954Y78620D02*
X592641Y81619D01*
X594328Y78620D01*
X591142Y82162D02*
X590954Y82537D01*
X590392Y83100D01*
X594328D01*
X590580Y82912D02*
X594328D01*
Y82162D02*
Y83849D01*
X580971Y81413D02*
X581158Y81600D01*
X581345Y81413D01*
X581158Y81225D01*
X580971D01*
X580596Y81413D01*
X580408Y81600D01*
X580221Y82162D01*
Y82912D01*
X580408Y83474D01*
X580596Y83662D01*
X580971Y83849D01*
X581345D01*
X581720Y83662D01*
X582095Y83100D01*
X582470Y82162D01*
X582657Y81788D01*
X583032Y81413D01*
X583595Y81225D01*
X584157D01*
X580221Y82912D02*
X580408Y83287D01*
X580596Y83474D01*
X580971Y83662D01*
X581345D01*
X581720Y83474D01*
X582095Y82912D01*
X582470Y82162D01*
X583782Y81225D02*
X583595Y81413D01*
Y81788D01*
X583970Y82725D01*
Y83287D01*
X583782Y83662D01*
X583595Y83849D01*
X583220D01*
X583595Y81788D02*
X584157Y82725D01*
Y83474D01*
X583970Y83662D01*
X583595Y83849D01*
X560253Y82725D02*
X563814D01*
X562690Y83849D02*
Y80850D01*
X559878Y82912D01*
X563814D01*
Y82162D02*
Y83474D01*
X529364Y81225D02*
X530488D01*
X530114D02*
X529739Y81413D01*
X529364Y81788D01*
Y82162D01*
X529926Y83100D01*
Y83474D01*
X529739Y83662D01*
X529364Y83849D01*
X529739Y81413D02*
X529551Y81788D01*
Y82162D01*
X529926Y83100D01*
X529364Y83849D02*
X529926D01*
X530488Y83662D01*
X531426Y82912D01*
X531801Y82725D01*
X532363Y82537D01*
X533300D01*
X530488Y83662D02*
X531426Y82725D01*
X531801Y82537D01*
X532363Y82350D01*
X533300D01*
X514164Y82162D02*
X514351Y81600D01*
X514726Y81413D01*
X515288D01*
X515663Y81600D01*
X515851Y82162D01*
Y82912D01*
X515663Y83474D01*
X515288Y83662D01*
X514726D01*
X514351Y83474D01*
X514164Y82912D01*
Y82162D01*
X514351Y81788D01*
X514726Y81600D01*
X515288D01*
X515663Y81788D01*
X515851Y82162D01*
Y82912D02*
X515663Y83287D01*
X515288Y83474D01*
X514726D01*
X514351Y83287D01*
X514164Y82912D01*
X515851Y82162D02*
X516038Y81600D01*
X516226Y81413D01*
X516600Y81225D01*
X517350D01*
X517725Y81413D01*
X517912Y81600D01*
X518100Y82162D01*
Y82912D01*
X517912Y83474D01*
X517725Y83662D01*
X517350Y83849D01*
X516600D01*
X516226Y83662D01*
X516038Y83474D01*
X515851Y82912D01*
Y82162D02*
X516038Y81788D01*
X516226Y81600D01*
X516600Y81413D01*
X517350D01*
X517725Y81600D01*
X517912Y81788D01*
X518100Y82162D01*
Y82912D02*
X517912Y83287D01*
X517725Y83474D01*
X517350Y83662D01*
X516600D01*
X516226Y83474D01*
X516038Y83287D01*
X515851Y82912D01*
X474602Y78864D02*
X474415Y79238D01*
X473853Y79801D01*
X477789D01*
X474040Y79613D02*
X477789D01*
Y78864D02*
Y80550D01*
X474602Y81413D02*
X474790Y81600D01*
X474977Y81413D01*
X474790Y81225D01*
X474602D01*
X474228Y81413D01*
X474040Y81600D01*
X473853Y82162D01*
Y82912D01*
X474040Y83474D01*
X474228Y83662D01*
X474602Y83849D01*
X474977D01*
X475352Y83662D01*
X475727Y83100D01*
X476102Y82162D01*
X476289Y81788D01*
X476664Y81413D01*
X477226Y81225D01*
X477789D01*
X473853Y82912D02*
X474040Y83287D01*
X474228Y83474D01*
X474602Y83662D01*
X474977D01*
X475352Y83474D01*
X475727Y82912D01*
X476102Y82162D01*
X477414Y81225D02*
X477226Y81413D01*
Y81788D01*
X477601Y82725D01*
Y83287D01*
X477414Y83662D01*
X477226Y83849D01*
X476852D01*
X477226Y81788D02*
X477789Y82725D01*
Y83474D01*
X477601Y83662D01*
X477226Y83849D01*
X464525Y78864D02*
X464337Y79238D01*
X463775Y79801D01*
X467711D01*
X463962Y79613D02*
X467711D01*
Y78864D02*
Y80550D01*
X464525Y81413D02*
X464712Y81600D01*
X464899Y81413D01*
X464712Y81225D01*
X464525D01*
X464150Y81413D01*
X463962Y81600D01*
X463775Y82162D01*
Y82912D01*
X463962Y83474D01*
X464337Y83662D01*
X464899D01*
X465274Y83474D01*
X465462Y82912D01*
Y82350D01*
X463775Y82912D02*
X463962Y83287D01*
X464337Y83474D01*
X464899D01*
X465274Y83287D01*
X465462Y82912D01*
X465649Y83287D01*
X466024Y83662D01*
X466399Y83849D01*
X466961D01*
X467336Y83662D01*
X467524Y83474D01*
X467711Y82912D01*
Y82162D01*
X467524Y81600D01*
X467336Y81413D01*
X466961Y81225D01*
X466774D01*
X466586Y81413D01*
X466774Y81600D01*
X466961Y81413D01*
X465837Y83474D02*
X466399Y83662D01*
X466961D01*
X467336Y83474D01*
X467524Y83287D01*
X467711Y82912D01*
X454259Y75358D02*
X454822Y75546D01*
X453697D01*
X454259Y75358D01*
X453885Y74984D01*
X453697Y74421D01*
Y74046D01*
X453885Y73484D01*
X454259Y73109D01*
X454634Y72922D01*
X455197Y72734D01*
X456134D01*
X456696Y72922D01*
X457071Y73109D01*
X457446Y73484D01*
X457633Y74046D01*
Y74421D01*
X457446Y74984D01*
X457071Y75358D01*
X453697Y74046D02*
X453885Y73672D01*
X454259Y73297D01*
X454634Y73109D01*
X455197Y72922D01*
X456134D01*
X456696Y73109D01*
X457071Y73297D01*
X457446Y73672D01*
X457633Y74046D01*
X456134Y75358D02*
X457633D01*
X456134Y75546D02*
X457633D01*
X456134Y74796D02*
Y76108D01*
X453697Y77177D02*
X457633D01*
X453697Y77364D02*
X457258Y79613D01*
X454072Y77364D02*
X457633Y79613D01*
X453697D02*
X457633D01*
X453697Y76614D02*
Y77364D01*
Y79051D02*
Y80176D01*
X457633Y76614D02*
Y77739D01*
X453697Y81225D02*
X457633D01*
X453697Y81413D02*
X457633D01*
X453697Y80663D02*
Y82537D01*
X453885Y83100D01*
X454259Y83474D01*
X454634Y83662D01*
X455197Y83849D01*
X456134D01*
X456696Y83662D01*
X457071Y83474D01*
X457446Y83100D01*
X457633Y82537D01*
Y80663D01*
X453697Y82537D02*
X453885Y82912D01*
X454259Y83287D01*
X454634Y83474D01*
X455197Y83662D01*
X456134D01*
X456696Y83474D01*
X457071Y83287D01*
X457446Y82912D01*
X457633Y82537D01*
X443619Y71235D02*
X447555Y69923D01*
X443619Y71235D02*
X447555Y72547D01*
X444182Y71235D02*
X447555Y72360D01*
X446431Y70298D02*
Y71985D01*
X447555Y69548D02*
Y70673D01*
Y71797D02*
Y72922D01*
X443619Y73990D02*
X447555D01*
X443619Y74178D02*
X447555D01*
X443619Y73428D02*
Y75677D01*
X443807Y76239D01*
X443994Y76427D01*
X444369Y76614D01*
X444744D01*
X445119Y76427D01*
X445306Y76239D01*
X445494Y75677D01*
Y74178D01*
X443619Y75677D02*
X443807Y76052D01*
X443994Y76239D01*
X444369Y76427D01*
X444744D01*
X445119Y76239D01*
X445306Y76052D01*
X445494Y75677D01*
X447555Y73428D02*
Y74740D01*
X445494Y75115D02*
X445681Y75490D01*
X445869Y75677D01*
X447181Y76239D01*
X447368Y76427D01*
Y76614D01*
X447181Y76802D01*
X445681Y75490D02*
X446056Y75677D01*
X447368Y76052D01*
X447555Y76239D01*
Y76614D01*
X447181Y76802D01*
X446993D01*
X443619Y77870D02*
X447555D01*
X443619Y78057D02*
X447555D01*
X444744Y79182D02*
X446243D01*
X443619Y77308D02*
Y80307D01*
X444744D01*
X443619Y80119D01*
X445494Y78057D02*
Y79182D01*
X447555Y77308D02*
Y80307D01*
X446431D01*
X447555Y80119D01*
X443619Y81413D02*
X447555D01*
X443619Y81600D02*
X447555D01*
X444744Y82725D02*
X446243D01*
X443619Y80850D02*
Y83849D01*
X444744D01*
X443619Y83662D01*
X445494Y81600D02*
Y82725D01*
X447555Y80850D02*
Y82162D01*
X434104Y75996D02*
X433542Y76183D01*
X434666D01*
X434104Y75996D01*
X433729Y75621D01*
X433542Y75059D01*
Y74496D01*
X433729Y73934D01*
X434104Y73559D01*
X434479D01*
X434854Y73747D01*
X435041Y73934D01*
X435228Y74309D01*
X435603Y75433D01*
X435791Y75808D01*
X436166Y76183D01*
X434479Y73559D02*
X434854Y73934D01*
X435041Y74309D01*
X435416Y75433D01*
X435603Y75808D01*
X435791Y75996D01*
X436166Y76183D01*
X436915D01*
X437290Y75808D01*
X437478Y75246D01*
Y74684D01*
X437290Y74121D01*
X436915Y73747D01*
X436353Y73559D01*
X437478D01*
X436915Y73747D01*
X433542Y77327D02*
X437478D01*
X433542Y77514D02*
X437478D01*
X433542Y76764D02*
Y78639D01*
X433729Y79201D01*
X434104Y79576D01*
X434479Y79763D01*
X435041Y79951D01*
X435978D01*
X436541Y79763D01*
X436915Y79576D01*
X437290Y79201D01*
X437478Y78639D01*
Y76764D01*
X433542Y78639D02*
X433729Y79014D01*
X434104Y79388D01*
X434479Y79576D01*
X435041Y79763D01*
X435978D01*
X436541Y79576D01*
X436915Y79388D01*
X437290Y79014D01*
X437478Y78639D01*
X433542Y82162D02*
X437478Y80850D01*
X433542Y82162D02*
X437478Y83474D01*
X434104Y82162D02*
X437478Y83287D01*
X436353Y81225D02*
Y82912D01*
X437478Y80475D02*
Y81600D01*
Y82725D02*
Y83849D01*
X424026Y76895D02*
X423464Y77083D01*
X424588D01*
X424026Y76895D01*
X423651Y76521D01*
X423464Y75958D01*
Y75396D01*
X423651Y74834D01*
X424026Y74459D01*
X424401D01*
X424776Y74646D01*
X424963Y74834D01*
X425151Y75208D01*
X425526Y76333D01*
X425713Y76708D01*
X426088Y77083D01*
X424401Y74459D02*
X424776Y74834D01*
X424963Y75208D01*
X425338Y76333D01*
X425526Y76708D01*
X425713Y76895D01*
X426088Y77083D01*
X426838D01*
X427213Y76708D01*
X427400Y76146D01*
Y75583D01*
X427213Y75021D01*
X426838Y74646D01*
X426275Y74459D01*
X427400D01*
X426838Y74646D01*
X424026Y80288D02*
X424588Y80475D01*
X423464D01*
X424026Y80288D01*
X423651Y79913D01*
X423464Y79351D01*
Y78976D01*
X423651Y78414D01*
X424026Y78039D01*
X424401Y77851D01*
X424963Y77664D01*
X425901D01*
X426463Y77851D01*
X426838Y78039D01*
X427213Y78414D01*
X427400Y78976D01*
Y79351D01*
X427213Y79913D01*
X426838Y80288D01*
X426463Y80475D01*
X423464Y78976D02*
X423651Y78601D01*
X424026Y78226D01*
X424401Y78039D01*
X424963Y77851D01*
X425901D01*
X426463Y78039D01*
X426838Y78226D01*
X427213Y78601D01*
X427400Y78976D01*
X423464Y81600D02*
X427400D01*
X423464Y81788D02*
X427400D01*
X423464Y81038D02*
Y82350D01*
X427400Y81038D02*
Y83849D01*
X426275D01*
X427400Y83662D01*
X363224Y35074D02*
X363411Y34512D01*
Y35636D01*
X363224Y35074D01*
X362849Y35449D01*
X362287Y35636D01*
X361912D01*
X361350Y35449D01*
X360975Y35074D01*
X360787Y34699D01*
X360600Y34137D01*
Y33200D01*
X360787Y32637D01*
X360975Y32262D01*
X361350Y31887D01*
X361912Y31700D01*
X362287D01*
X362849Y31887D01*
X363224Y32262D01*
X363411Y32637D01*
X361912Y35636D02*
X361537Y35449D01*
X361162Y35074D01*
X360975Y34699D01*
X360787Y34137D01*
Y33200D01*
X360975Y32637D01*
X361162Y32262D01*
X361537Y31887D01*
X361912Y31700D01*
X363974Y34886D02*
X364349Y35074D01*
X364911Y35636D01*
Y31700D01*
X364724Y35449D02*
Y31700D01*
X363974D02*
X365661D01*
X461387Y-9063D02*
X461574Y-9625D01*
Y-8500D01*
X461387Y-9063D01*
X461012Y-8688D01*
X460450Y-8500D01*
X460075D01*
X459513Y-8688D01*
X459138Y-9063D01*
X458950Y-9437D01*
X458763Y-10000D01*
Y-10937D01*
X458950Y-11499D01*
X459138Y-11874D01*
X459513Y-12249D01*
X460075Y-12436D01*
X460450D01*
X461012Y-12249D01*
X461387Y-11874D01*
X461574Y-11499D01*
X460075Y-8500D02*
X459700Y-8688D01*
X459325Y-9063D01*
X459138Y-9437D01*
X458950Y-10000D01*
Y-10937D01*
X459138Y-11499D01*
X459325Y-11874D01*
X459700Y-12249D01*
X460075Y-12436D01*
X462324Y-9250D02*
X462512Y-9437D01*
X462324Y-9625D01*
X462137Y-9437D01*
Y-9250D01*
X462324Y-8875D01*
X462512Y-8688D01*
X463074Y-8500D01*
X463824D01*
X464386Y-8688D01*
X464573Y-8875D01*
X464761Y-9250D01*
Y-9625D01*
X464573Y-10000D01*
X464011Y-10375D01*
X463074Y-10750D01*
X462699Y-10937D01*
X462324Y-11312D01*
X462137Y-11874D01*
Y-12436D01*
X463824Y-8500D02*
X464198Y-8688D01*
X464386Y-8875D01*
X464573Y-9250D01*
Y-9625D01*
X464386Y-10000D01*
X463824Y-10375D01*
X463074Y-10750D01*
X462137Y-12061D02*
X462324Y-11874D01*
X462699D01*
X463636Y-12249D01*
X464198D01*
X464573Y-12061D01*
X464761Y-11874D01*
Y-11499D01*
X462699Y-11874D02*
X463636Y-12436D01*
X464386D01*
X464573Y-12249D01*
X464761Y-11874D01*
X382524Y-44965D02*
X382712Y-45527D01*
Y-44403D01*
X382524Y-44965D01*
X382149Y-44590D01*
X381587Y-44403D01*
X381212D01*
X380650Y-44590D01*
X380275Y-44965D01*
X380087Y-45340D01*
X379900Y-45902D01*
Y-46839D01*
X380087Y-47402D01*
X380275Y-47776D01*
X380650Y-48151D01*
X381212Y-48339D01*
X381587D01*
X382149Y-48151D01*
X382524Y-47776D01*
X382712Y-47402D01*
X381212Y-44403D02*
X380837Y-44590D01*
X380462Y-44965D01*
X380275Y-45340D01*
X380087Y-45902D01*
Y-46839D01*
X380275Y-47402D01*
X380462Y-47776D01*
X380837Y-48151D01*
X381212Y-48339D01*
X383461Y-45152D02*
X383649Y-45340D01*
X383461Y-45527D01*
X383274Y-45340D01*
Y-45152D01*
X383461Y-44778D01*
X383649Y-44590D01*
X384211Y-44403D01*
X384961D01*
X385523Y-44590D01*
X385711Y-44965D01*
Y-45527D01*
X385523Y-45902D01*
X384961Y-46090D01*
X384399D01*
X384961Y-44403D02*
X385336Y-44590D01*
X385523Y-44965D01*
Y-45527D01*
X385336Y-45902D01*
X384961Y-46090D01*
X385336Y-46277D01*
X385711Y-46652D01*
X385898Y-47027D01*
Y-47589D01*
X385711Y-47964D01*
X385523Y-48151D01*
X384961Y-48339D01*
X384211D01*
X383649Y-48151D01*
X383461Y-47964D01*
X383274Y-47589D01*
Y-47402D01*
X383461Y-47214D01*
X383649Y-47402D01*
X383461Y-47589D01*
X385523Y-46464D02*
X385711Y-47027D01*
Y-47589D01*
X385523Y-47964D01*
X385336Y-48151D01*
X384961Y-48339D01*
X443124Y-45226D02*
X443312Y-45788D01*
Y-44664D01*
X443124Y-45226D01*
X442749Y-44851D01*
X442187Y-44664D01*
X441812D01*
X441250Y-44851D01*
X440875Y-45226D01*
X440687Y-45601D01*
X440500Y-46163D01*
Y-47100D01*
X440687Y-47663D01*
X440875Y-48038D01*
X441250Y-48413D01*
X441812Y-48600D01*
X442187D01*
X442749Y-48413D01*
X443124Y-48038D01*
X443312Y-47663D01*
X441812Y-44664D02*
X441437Y-44851D01*
X441062Y-45226D01*
X440875Y-45601D01*
X440687Y-46163D01*
Y-47100D01*
X440875Y-47663D01*
X441062Y-48038D01*
X441437Y-48413D01*
X441812Y-48600D01*
X445748Y-45039D02*
Y-48600D01*
X446873Y-47475D02*
X443874D01*
X445936Y-44664D01*
Y-48600D01*
X445186D02*
X446498D01*
X573024Y60374D02*
X573211Y59812D01*
Y60936D01*
X573024Y60374D01*
X572649Y60749D01*
X572087Y60936D01*
X571712D01*
X571150Y60749D01*
X570775Y60374D01*
X570587Y59999D01*
X570400Y59437D01*
Y58499D01*
X570587Y57937D01*
X570775Y57562D01*
X571150Y57187D01*
X571712Y57000D01*
X572087D01*
X572649Y57187D01*
X573024Y57562D01*
X573211Y57937D01*
X571712Y60936D02*
X571337Y60749D01*
X570962Y60374D01*
X570775Y59999D01*
X570587Y59437D01*
Y58499D01*
X570775Y57937D01*
X570962Y57562D01*
X571337Y57187D01*
X571712Y57000D01*
X574149Y60936D02*
X573774Y59062D01*
X574149Y59437D01*
X574711Y59624D01*
X575273D01*
X575836Y59437D01*
X576210Y59062D01*
X576398Y58499D01*
Y58125D01*
X576210Y57562D01*
X575836Y57187D01*
X575273Y57000D01*
X574711D01*
X574149Y57187D01*
X573961Y57375D01*
X573774Y57750D01*
Y57937D01*
X573961Y58125D01*
X574149Y57937D01*
X573961Y57750D01*
X575273Y59624D02*
X575648Y59437D01*
X576023Y59062D01*
X576210Y58499D01*
Y58125D01*
X576023Y57562D01*
X575648Y57187D01*
X575273Y57000D01*
X574149Y60936D02*
X576023D01*
X574149Y60749D02*
X575086D01*
X576023Y60936D01*
X573024Y47574D02*
X573211Y47012D01*
Y48136D01*
X573024Y47574D01*
X572649Y47949D01*
X572087Y48136D01*
X571712D01*
X571150Y47949D01*
X570775Y47574D01*
X570587Y47199D01*
X570400Y46637D01*
Y45700D01*
X570587Y45137D01*
X570775Y44762D01*
X571150Y44387D01*
X571712Y44200D01*
X572087D01*
X572649Y44387D01*
X573024Y44762D01*
X573211Y45137D01*
X571712Y48136D02*
X571337Y47949D01*
X570962Y47574D01*
X570775Y47199D01*
X570587Y46637D01*
Y45700D01*
X570775Y45137D01*
X570962Y44762D01*
X571337Y44387D01*
X571712Y44200D01*
X576023Y47574D02*
X575836Y47386D01*
X576023Y47199D01*
X576210Y47386D01*
Y47574D01*
X576023Y47949D01*
X575648Y48136D01*
X575086D01*
X574524Y47949D01*
X574149Y47574D01*
X573961Y47199D01*
X573774Y46449D01*
Y45325D01*
X573961Y44762D01*
X574336Y44387D01*
X574898Y44200D01*
X575273D01*
X575836Y44387D01*
X576210Y44762D01*
X576398Y45325D01*
Y45512D01*
X576210Y46074D01*
X575836Y46449D01*
X575273Y46637D01*
X575086D01*
X574524Y46449D01*
X574149Y46074D01*
X573961Y45512D01*
X575086Y48136D02*
X574711Y47949D01*
X574336Y47574D01*
X574149Y47199D01*
X573961Y46449D01*
Y45325D01*
X574149Y44762D01*
X574524Y44387D01*
X574898Y44200D01*
X575273D02*
X575648Y44387D01*
X576023Y44762D01*
X576210Y45325D01*
Y45512D01*
X576023Y46074D01*
X575648Y46449D01*
X575273Y46637D01*
X461387Y-18617D02*
X461574Y-19179D01*
Y-18055D01*
X461387Y-18617D01*
X461012Y-18242D01*
X460450Y-18055D01*
X460075D01*
X459513Y-18242D01*
X459138Y-18617D01*
X458950Y-18992D01*
X458763Y-19554D01*
Y-20491D01*
X458950Y-21054D01*
X459138Y-21429D01*
X459513Y-21803D01*
X460075Y-21991D01*
X460450D01*
X461012Y-21803D01*
X461387Y-21429D01*
X461574Y-21054D01*
X460075Y-18055D02*
X459700Y-18242D01*
X459325Y-18617D01*
X459138Y-18992D01*
X458950Y-19554D01*
Y-20491D01*
X459138Y-21054D01*
X459325Y-21429D01*
X459700Y-21803D01*
X460075Y-21991D01*
X462137Y-18055D02*
Y-19179D01*
Y-18804D02*
X462324Y-18430D01*
X462699Y-18055D01*
X463074D01*
X464011Y-18617D01*
X464386D01*
X464573Y-18430D01*
X464761Y-18055D01*
X462324Y-18430D02*
X462699Y-18242D01*
X463074D01*
X464011Y-18617D01*
X464761Y-18055D02*
Y-18617D01*
X464573Y-19179D01*
X463824Y-20117D01*
X463636Y-20491D01*
X463449Y-21054D01*
Y-21991D01*
X464573Y-19179D02*
X463636Y-20117D01*
X463449Y-20491D01*
X463261Y-21054D01*
Y-21991D01*
X461387Y-26726D02*
X461574Y-27288D01*
Y-26164D01*
X461387Y-26726D01*
X461012Y-26351D01*
X460450Y-26164D01*
X460075D01*
X459513Y-26351D01*
X459138Y-26726D01*
X458950Y-27101D01*
X458763Y-27663D01*
Y-28600D01*
X458950Y-29163D01*
X459138Y-29538D01*
X459513Y-29913D01*
X460075Y-30100D01*
X460450D01*
X461012Y-29913D01*
X461387Y-29538D01*
X461574Y-29163D01*
X460075Y-26164D02*
X459700Y-26351D01*
X459325Y-26726D01*
X459138Y-27101D01*
X458950Y-27663D01*
Y-28600D01*
X459138Y-29163D01*
X459325Y-29538D01*
X459700Y-29913D01*
X460075Y-30100D01*
X463074Y-26164D02*
X462512Y-26351D01*
X462324Y-26726D01*
Y-27288D01*
X462512Y-27663D01*
X463074Y-27851D01*
X463824D01*
X464386Y-27663D01*
X464573Y-27288D01*
Y-26726D01*
X464386Y-26351D01*
X463824Y-26164D01*
X463074D01*
X462699Y-26351D01*
X462512Y-26726D01*
Y-27288D01*
X462699Y-27663D01*
X463074Y-27851D01*
X463824D02*
X464198Y-27663D01*
X464386Y-27288D01*
Y-26726D01*
X464198Y-26351D01*
X463824Y-26164D01*
X463074Y-27851D02*
X462512Y-28038D01*
X462324Y-28226D01*
X462137Y-28600D01*
Y-29350D01*
X462324Y-29725D01*
X462512Y-29913D01*
X463074Y-30100D01*
X463824D01*
X464386Y-29913D01*
X464573Y-29725D01*
X464761Y-29350D01*
Y-28600D01*
X464573Y-28226D01*
X464386Y-28038D01*
X463824Y-27851D01*
X463074D02*
X462699Y-28038D01*
X462512Y-28226D01*
X462324Y-28600D01*
Y-29350D01*
X462512Y-29725D01*
X462699Y-29913D01*
X463074Y-30100D01*
X463824D02*
X464198Y-29913D01*
X464386Y-29725D01*
X464573Y-29350D01*
Y-28600D01*
X464386Y-28226D01*
X464198Y-28038D01*
X463824Y-27851D01*
X459487Y-38226D02*
X459674Y-38789D01*
Y-37664D01*
X459487Y-38226D01*
X459112Y-37851D01*
X458550Y-37664D01*
X458175D01*
X457613Y-37851D01*
X457238Y-38226D01*
X457050Y-38601D01*
X456863Y-39163D01*
Y-40100D01*
X457050Y-40663D01*
X457238Y-41038D01*
X457613Y-41413D01*
X458175Y-41600D01*
X458550D01*
X459112Y-41413D01*
X459487Y-41038D01*
X459674Y-40663D01*
X458175Y-37664D02*
X457800Y-37851D01*
X457425Y-38226D01*
X457238Y-38601D01*
X457050Y-39163D01*
Y-40100D01*
X457238Y-40663D01*
X457425Y-41038D01*
X457800Y-41413D01*
X458175Y-41600D01*
X462673Y-38976D02*
X462486Y-39538D01*
X462111Y-39913D01*
X461549Y-40100D01*
X461361D01*
X460799Y-39913D01*
X460424Y-39538D01*
X460237Y-38976D01*
Y-38789D01*
X460424Y-38226D01*
X460799Y-37851D01*
X461361Y-37664D01*
X461736D01*
X462298Y-37851D01*
X462673Y-38226D01*
X462861Y-38789D01*
Y-39913D01*
X462673Y-40663D01*
X462486Y-41038D01*
X462111Y-41413D01*
X461549Y-41600D01*
X460987D01*
X460612Y-41413D01*
X460424Y-41038D01*
Y-40850D01*
X460612Y-40663D01*
X460799Y-40850D01*
X460612Y-41038D01*
X461361Y-40100D02*
X460987Y-39913D01*
X460612Y-39538D01*
X460424Y-38976D01*
Y-38789D01*
X460612Y-38226D01*
X460987Y-37851D01*
X461361Y-37664D01*
X461736D02*
X462111Y-37851D01*
X462486Y-38226D01*
X462673Y-38789D01*
Y-39913D01*
X462486Y-40663D01*
X462298Y-41038D01*
X461924Y-41413D01*
X461549Y-41600D01*
X418224Y35074D02*
X418411Y34512D01*
Y35636D01*
X418224Y35074D01*
X417849Y35449D01*
X417287Y35636D01*
X416912D01*
X416350Y35449D01*
X415975Y35074D01*
X415787Y34699D01*
X415600Y34137D01*
Y33200D01*
X415787Y32637D01*
X415975Y32262D01*
X416350Y31887D01*
X416912Y31700D01*
X417287D01*
X417849Y31887D01*
X418224Y32262D01*
X418411Y32637D01*
X416912Y35636D02*
X416537Y35449D01*
X416162Y35074D01*
X415975Y34699D01*
X415787Y34137D01*
Y33200D01*
X415975Y32637D01*
X416162Y32262D01*
X416537Y31887D01*
X416912Y31700D01*
X418974Y34886D02*
X419349Y35074D01*
X419911Y35636D01*
Y31700D01*
X419724Y35449D02*
Y31700D01*
X418974D02*
X420661D01*
X422460Y35636D02*
X421898Y35449D01*
X421523Y34886D01*
X421336Y33949D01*
Y33387D01*
X421523Y32450D01*
X421898Y31887D01*
X422460Y31700D01*
X422835D01*
X423397Y31887D01*
X423772Y32450D01*
X423960Y33387D01*
Y33949D01*
X423772Y34886D01*
X423397Y35449D01*
X422835Y35636D01*
X422460D01*
X422085Y35449D01*
X421898Y35261D01*
X421710Y34886D01*
X421523Y33949D01*
Y33387D01*
X421710Y32450D01*
X421898Y32075D01*
X422085Y31887D01*
X422460Y31700D01*
X422835D02*
X423210Y31887D01*
X423397Y32075D01*
X423585Y32450D01*
X423772Y33387D01*
Y33949D01*
X423585Y34886D01*
X423397Y35261D01*
X423210Y35449D01*
X422835Y35636D01*
X409224Y71474D02*
X409411Y70912D01*
Y72036D01*
X409224Y71474D01*
X408849Y71849D01*
X408287Y72036D01*
X407912D01*
X407350Y71849D01*
X406975Y71474D01*
X406787Y71099D01*
X406600Y70537D01*
Y69599D01*
X406787Y69037D01*
X406975Y68662D01*
X407350Y68287D01*
X407912Y68100D01*
X408287D01*
X408849Y68287D01*
X409224Y68662D01*
X409411Y69037D01*
X407912Y72036D02*
X407537Y71849D01*
X407162Y71474D01*
X406975Y71099D01*
X406787Y70537D01*
Y69599D01*
X406975Y69037D01*
X407162Y68662D01*
X407537Y68287D01*
X407912Y68100D01*
X409974Y71286D02*
X410349Y71474D01*
X410911Y72036D01*
Y68100D01*
X410724Y71849D02*
Y68100D01*
X409974D02*
X411661D01*
X412335Y71286D02*
X412710Y71474D01*
X413273Y72036D01*
Y68100D01*
X413085Y71849D02*
Y68100D01*
X412335D02*
X414022D01*
X390993Y71474D02*
X391180Y70912D01*
Y72036D01*
X390993Y71474D01*
X390618Y71849D01*
X390055Y72036D01*
X389681D01*
X389118Y71849D01*
X388743Y71474D01*
X388556Y71099D01*
X388369Y70537D01*
Y69599D01*
X388556Y69037D01*
X388743Y68662D01*
X389118Y68287D01*
X389681Y68100D01*
X390055D01*
X390618Y68287D01*
X390993Y68662D01*
X391180Y69037D01*
X389681Y72036D02*
X389306Y71849D01*
X388931Y71474D01*
X388743Y71099D01*
X388556Y70537D01*
Y69599D01*
X388743Y69037D01*
X388931Y68662D01*
X389306Y68287D01*
X389681Y68100D01*
X391742Y71286D02*
X392117Y71474D01*
X392680Y72036D01*
Y68100D01*
X392492Y71849D02*
Y68100D01*
X391742D02*
X393429D01*
X394291Y71286D02*
X394479Y71099D01*
X394291Y70912D01*
X394104Y71099D01*
Y71286D01*
X394291Y71661D01*
X394479Y71849D01*
X395041Y72036D01*
X395791D01*
X396353Y71849D01*
X396541Y71661D01*
X396728Y71286D01*
Y70912D01*
X396541Y70537D01*
X395978Y70162D01*
X395041Y69787D01*
X394666Y69599D01*
X394291Y69225D01*
X394104Y68662D01*
Y68100D01*
X395791Y72036D02*
X396166Y71849D01*
X396353Y71661D01*
X396541Y71286D01*
Y70912D01*
X396353Y70537D01*
X395791Y70162D01*
X395041Y69787D01*
X394104Y68475D02*
X394291Y68662D01*
X394666D01*
X395603Y68287D01*
X396166D01*
X396541Y68475D01*
X396728Y68662D01*
Y69037D01*
X394666Y68662D02*
X395603Y68100D01*
X396353D01*
X396541Y68287D01*
X396728Y68662D01*
X372761Y71474D02*
X372949Y70912D01*
Y72036D01*
X372761Y71474D01*
X372386Y71849D01*
X371824Y72036D01*
X371449D01*
X370887Y71849D01*
X370512Y71474D01*
X370324Y71099D01*
X370137Y70537D01*
Y69599D01*
X370324Y69037D01*
X370512Y68662D01*
X370887Y68287D01*
X371449Y68100D01*
X371824D01*
X372386Y68287D01*
X372761Y68662D01*
X372949Y69037D01*
X371449Y72036D02*
X371074Y71849D01*
X370699Y71474D01*
X370512Y71099D01*
X370324Y70537D01*
Y69599D01*
X370512Y69037D01*
X370699Y68662D01*
X371074Y68287D01*
X371449Y68100D01*
X373511Y71286D02*
X373886Y71474D01*
X374448Y72036D01*
Y68100D01*
X374261Y71849D02*
Y68100D01*
X373511D02*
X375198D01*
X376060Y71286D02*
X376247Y71099D01*
X376060Y70912D01*
X375873Y71099D01*
Y71286D01*
X376060Y71661D01*
X376247Y71849D01*
X376810Y72036D01*
X377559D01*
X378122Y71849D01*
X378309Y71474D01*
Y70912D01*
X378122Y70537D01*
X377559Y70349D01*
X376997D01*
X377559Y72036D02*
X377934Y71849D01*
X378122Y71474D01*
Y70912D01*
X377934Y70537D01*
X377559Y70349D01*
X377934Y70162D01*
X378309Y69787D01*
X378497Y69412D01*
Y68850D01*
X378309Y68475D01*
X378122Y68287D01*
X377559Y68100D01*
X376810D01*
X376247Y68287D01*
X376060Y68475D01*
X375873Y68850D01*
Y69037D01*
X376060Y69225D01*
X376247Y69037D01*
X376060Y68850D01*
X378122Y69974D02*
X378309Y69412D01*
Y68850D01*
X378122Y68475D01*
X377934Y68287D01*
X377559Y68100D01*
X366362Y-43064D02*
Y-47000D01*
X366550Y-43064D02*
Y-47000D01*
X367674Y-44188D02*
Y-45688D01*
X365800Y-43064D02*
X368799D01*
Y-44188D01*
X368612Y-43064D01*
X366550Y-44938D02*
X367674D01*
X365800Y-47000D02*
X368799D01*
Y-45875D01*
X368612Y-47000D01*
X371967Y-43626D02*
X372154Y-44188D01*
Y-43064D01*
X371967Y-43626D01*
X371592Y-43251D01*
X371029Y-43064D01*
X370655D01*
X370092Y-43251D01*
X369717Y-43626D01*
X369530Y-44001D01*
X369342Y-44563D01*
Y-45500D01*
X369530Y-46063D01*
X369717Y-46438D01*
X370092Y-46813D01*
X370655Y-47000D01*
X371029D01*
X371592Y-46813D01*
X371967Y-46438D01*
X372154Y-46063D01*
X370655Y-43064D02*
X370280Y-43251D01*
X369905Y-43626D01*
X369717Y-44001D01*
X369530Y-44563D01*
Y-45500D01*
X369717Y-46063D01*
X369905Y-46438D01*
X370280Y-46813D01*
X370655Y-47000D01*
X372716Y-43814D02*
X373091Y-43626D01*
X373654Y-43064D01*
Y-47000D01*
X373466Y-43251D02*
Y-47000D01*
X372716D02*
X374403D01*
X424162Y-42964D02*
Y-46900D01*
X424350Y-42964D02*
Y-46900D01*
X425474Y-44089D02*
Y-45588D01*
X423600Y-42964D02*
X426599D01*
Y-44089D01*
X426411Y-42964D01*
X424350Y-44838D02*
X425474D01*
X423600Y-46900D02*
X426599D01*
Y-45775D01*
X426411Y-46900D01*
X429767Y-43526D02*
X429954Y-44089D01*
Y-42964D01*
X429767Y-43526D01*
X429392Y-43151D01*
X428829Y-42964D01*
X428455D01*
X427892Y-43151D01*
X427517Y-43526D01*
X427330Y-43901D01*
X427143Y-44463D01*
Y-45401D01*
X427330Y-45963D01*
X427517Y-46338D01*
X427892Y-46713D01*
X428455Y-46900D01*
X428829D01*
X429392Y-46713D01*
X429767Y-46338D01*
X429954Y-45963D01*
X428455Y-42964D02*
X428080Y-43151D01*
X427705Y-43526D01*
X427517Y-43901D01*
X427330Y-44463D01*
Y-45401D01*
X427517Y-45963D01*
X427705Y-46338D01*
X428080Y-46713D01*
X428455Y-46900D01*
X430704Y-43714D02*
X430891Y-43901D01*
X430704Y-44089D01*
X430516Y-43901D01*
Y-43714D01*
X430704Y-43339D01*
X430891Y-43151D01*
X431454Y-42964D01*
X432203D01*
X432766Y-43151D01*
X432953Y-43339D01*
X433141Y-43714D01*
Y-44089D01*
X432953Y-44463D01*
X432391Y-44838D01*
X431454Y-45213D01*
X431079Y-45401D01*
X430704Y-45775D01*
X430516Y-46338D01*
Y-46900D01*
X432203Y-42964D02*
X432578Y-43151D01*
X432766Y-43339D01*
X432953Y-43714D01*
Y-44089D01*
X432766Y-44463D01*
X432203Y-44838D01*
X431454Y-45213D01*
X430516Y-46525D02*
X430704Y-46338D01*
X431079D01*
X432016Y-46713D01*
X432578D01*
X432953Y-46525D01*
X433141Y-46338D01*
Y-45963D01*
X431079Y-46338D02*
X432016Y-46900D01*
X432766D01*
X432953Y-46713D01*
X433141Y-46338D01*
X459325Y39272D02*
Y35336D01*
X459513Y39272D02*
Y35336D01*
X458763Y39272D02*
X460075D01*
X458763Y35336D02*
X461574D01*
Y36461D01*
X461387Y35336D01*
X462699Y39272D02*
Y35336D01*
X462886Y39272D02*
Y35336D01*
X464011Y38148D02*
Y36648D01*
X462137Y39272D02*
X465136D01*
Y38148D01*
X464948Y39272D01*
X462886Y37398D02*
X464011D01*
X462137Y35336D02*
X465136D01*
Y36461D01*
X464948Y35336D01*
X466242Y39272D02*
Y35336D01*
X466429Y39272D02*
Y35336D01*
X465679Y39272D02*
X467554D01*
X468116Y39085D01*
X468491Y38710D01*
X468678Y38335D01*
X468866Y37773D01*
Y36836D01*
X468678Y36274D01*
X468491Y35899D01*
X468116Y35524D01*
X467554Y35336D01*
X465679D01*
X467554Y39272D02*
X467929Y39085D01*
X468303Y38710D01*
X468491Y38335D01*
X468678Y37773D01*
Y36836D01*
X468491Y36274D01*
X468303Y35899D01*
X467929Y35524D01*
X467554Y35336D01*
X469390Y38523D02*
X469765Y38710D01*
X470328Y39272D01*
Y35336D01*
X470140Y39085D02*
Y35336D01*
X469390D02*
X471077D01*
X459325Y11276D02*
Y7340D01*
X459513Y11276D02*
Y7340D01*
X458763Y11276D02*
X460075D01*
X458763Y7340D02*
X461574D01*
Y8465D01*
X461387Y7340D01*
X462699Y11276D02*
Y7340D01*
X462886Y11276D02*
Y7340D01*
X464011Y10152D02*
Y8652D01*
X462137Y11276D02*
X465136D01*
Y10152D01*
X464948Y11276D01*
X462886Y9402D02*
X464011D01*
X462137Y7340D02*
X465136D01*
Y8465D01*
X464948Y7340D01*
X466242Y11276D02*
Y7340D01*
X466429Y11276D02*
Y7340D01*
X465679Y11276D02*
X467554D01*
X468116Y11089D01*
X468491Y10714D01*
X468678Y10339D01*
X468866Y9777D01*
Y8840D01*
X468678Y8277D01*
X468491Y7903D01*
X468116Y7528D01*
X467554Y7340D01*
X465679D01*
X467554Y11276D02*
X467929Y11089D01*
X468303Y10714D01*
X468491Y10339D01*
X468678Y9777D01*
Y8840D01*
X468491Y8277D01*
X468303Y7903D01*
X467929Y7528D01*
X467554Y7340D01*
X469578Y10527D02*
X469765Y10339D01*
X469578Y10152D01*
X469390Y10339D01*
Y10527D01*
X469578Y10902D01*
X469765Y11089D01*
X470328Y11276D01*
X471077D01*
X471640Y11089D01*
X471827Y10902D01*
X472015Y10527D01*
Y10152D01*
X471827Y9777D01*
X471265Y9402D01*
X470328Y9027D01*
X469953Y8840D01*
X469578Y8465D01*
X469390Y7903D01*
Y7340D01*
X471077Y11276D02*
X471452Y11089D01*
X471640Y10902D01*
X471827Y10527D01*
Y10152D01*
X471640Y9777D01*
X471077Y9402D01*
X470328Y9027D01*
X469390Y7715D02*
X469578Y7903D01*
X469953D01*
X470890Y7528D01*
X471452D01*
X471827Y7715D01*
X472015Y7903D01*
Y8277D01*
X469953Y7903D02*
X470890Y7340D01*
X471640D01*
X471827Y7528D01*
X472015Y7903D01*
X459325Y67936D02*
Y64000D01*
X459513Y67936D02*
Y64000D01*
X458763Y67936D02*
X460075D01*
X458763Y64000D02*
X461574D01*
Y65125D01*
X461387Y64000D01*
X462699Y67936D02*
Y64000D01*
X462886Y67936D02*
Y64000D01*
X464011Y66812D02*
Y65312D01*
X462137Y67936D02*
X465136D01*
Y66812D01*
X464948Y67936D01*
X462886Y66062D02*
X464011D01*
X462137Y64000D02*
X465136D01*
Y65125D01*
X464948Y64000D01*
X466242Y67936D02*
Y64000D01*
X466429Y67936D02*
Y64000D01*
X465679Y67936D02*
X467554D01*
X468116Y67749D01*
X468491Y67374D01*
X468678Y66999D01*
X468866Y66437D01*
Y65500D01*
X468678Y64937D01*
X468491Y64562D01*
X468116Y64187D01*
X467554Y64000D01*
X465679D01*
X467554Y67936D02*
X467929Y67749D01*
X468303Y67374D01*
X468491Y66999D01*
X468678Y66437D01*
Y65500D01*
X468491Y64937D01*
X468303Y64562D01*
X467929Y64187D01*
X467554Y64000D01*
X469578Y67186D02*
X469765Y66999D01*
X469578Y66812D01*
X469390Y66999D01*
Y67186D01*
X469578Y67561D01*
X469765Y67749D01*
X470328Y67936D01*
X471077D01*
X471640Y67749D01*
X471827Y67374D01*
Y66812D01*
X471640Y66437D01*
X471077Y66249D01*
X470515D01*
X471077Y67936D02*
X471452Y67749D01*
X471640Y67374D01*
Y66812D01*
X471452Y66437D01*
X471077Y66249D01*
X471452Y66062D01*
X471827Y65687D01*
X472015Y65312D01*
Y64750D01*
X471827Y64375D01*
X471640Y64187D01*
X471077Y64000D01*
X470328D01*
X469765Y64187D01*
X469578Y64375D01*
X469390Y64750D01*
Y64937D01*
X469578Y65125D01*
X469765Y64937D01*
X469578Y64750D01*
X471640Y65874D02*
X471827Y65312D01*
Y64750D01*
X471640Y64375D01*
X471452Y64187D01*
X471077Y64000D01*
X581662Y1836D02*
Y-2100D01*
X581850Y1836D02*
Y-2100D01*
X581100Y1836D02*
X583349D01*
X583912Y1649D01*
X584099Y1461D01*
X584286Y1086D01*
Y711D01*
X584099Y337D01*
X583912Y149D01*
X583349Y-38D01*
X581850D01*
X583349Y1836D02*
X583724Y1649D01*
X583912Y1461D01*
X584099Y1086D01*
Y711D01*
X583912Y337D01*
X583724Y149D01*
X583349Y-38D01*
X581100Y-2100D02*
X582412D01*
X582787Y-38D02*
X583162Y-226D01*
X583349Y-413D01*
X583912Y-1725D01*
X584099Y-1913D01*
X584286D01*
X584474Y-1725D01*
X583162Y-226D02*
X583349Y-600D01*
X583724Y-1913D01*
X583912Y-2100D01*
X584286D01*
X584474Y-1725D01*
Y-1538D01*
X584980Y1086D02*
X585355Y1274D01*
X585917Y1836D01*
Y-2100D01*
X585730Y1649D02*
Y-2100D01*
X584980D02*
X586667D01*
X571062Y54536D02*
Y50600D01*
X571250Y54536D02*
Y50600D01*
X570500Y54536D02*
X572749D01*
X573312Y54349D01*
X573499Y54161D01*
X573686Y53786D01*
Y53412D01*
X573499Y53037D01*
X573312Y52849D01*
X572749Y52662D01*
X571250D01*
X572749Y54536D02*
X573124Y54349D01*
X573312Y54161D01*
X573499Y53786D01*
Y53412D01*
X573312Y53037D01*
X573124Y52849D01*
X572749Y52662D01*
X570500Y50600D02*
X571812D01*
X572187Y52662D02*
X572562Y52474D01*
X572749Y52287D01*
X573312Y50975D01*
X573499Y50787D01*
X573686D01*
X573874Y50975D01*
X572562Y52474D02*
X572749Y52100D01*
X573124Y50787D01*
X573312Y50600D01*
X573686D01*
X573874Y50975D01*
Y51162D01*
X574567Y53786D02*
X574755Y53599D01*
X574567Y53412D01*
X574380Y53599D01*
Y53786D01*
X574567Y54161D01*
X574755Y54349D01*
X575317Y54536D01*
X576067D01*
X576629Y54349D01*
X576817Y54161D01*
X577004Y53786D01*
Y53412D01*
X576817Y53037D01*
X576254Y52662D01*
X575317Y52287D01*
X574942Y52100D01*
X574567Y51725D01*
X574380Y51162D01*
Y50600D01*
X576067Y54536D02*
X576442Y54349D01*
X576629Y54161D01*
X576817Y53786D01*
Y53412D01*
X576629Y53037D01*
X576067Y52662D01*
X575317Y52287D01*
X574380Y50975D02*
X574567Y51162D01*
X574942D01*
X575879Y50787D01*
X576442D01*
X576817Y50975D01*
X577004Y51162D01*
Y51537D01*
X574942Y51162D02*
X575879Y50600D01*
X576629D01*
X576817Y50787D01*
X577004Y51162D01*
X459325Y48827D02*
Y44891D01*
X459513Y48827D02*
Y44891D01*
X458763Y48827D02*
X461012D01*
X461574Y48640D01*
X461762Y48452D01*
X461949Y48077D01*
Y47702D01*
X461762Y47328D01*
X461574Y47140D01*
X461012Y46953D01*
X459513D01*
X461012Y48827D02*
X461387Y48640D01*
X461574Y48452D01*
X461762Y48077D01*
Y47702D01*
X461574Y47328D01*
X461387Y47140D01*
X461012Y46953D01*
X458763Y44891D02*
X460075D01*
X460450Y46953D02*
X460825Y46765D01*
X461012Y46578D01*
X461574Y45266D01*
X461762Y45078D01*
X461949D01*
X462137Y45266D01*
X460825Y46765D02*
X461012Y46390D01*
X461387Y45078D01*
X461574Y44891D01*
X461949D01*
X462137Y45266D01*
Y45453D01*
X462830Y48077D02*
X463018Y47890D01*
X462830Y47702D01*
X462643Y47890D01*
Y48077D01*
X462830Y48452D01*
X463018Y48640D01*
X463580Y48827D01*
X464330D01*
X464892Y48640D01*
X465079Y48265D01*
Y47702D01*
X464892Y47328D01*
X464330Y47140D01*
X463767D01*
X464330Y48827D02*
X464705Y48640D01*
X464892Y48265D01*
Y47702D01*
X464705Y47328D01*
X464330Y47140D01*
X464705Y46953D01*
X465079Y46578D01*
X465267Y46203D01*
Y45641D01*
X465079Y45266D01*
X464892Y45078D01*
X464330Y44891D01*
X463580D01*
X463018Y45078D01*
X462830Y45266D01*
X462643Y45641D01*
Y45828D01*
X462830Y46016D01*
X463018Y45828D01*
X462830Y45641D01*
X464892Y46765D02*
X465079Y46203D01*
Y45641D01*
X464892Y45266D01*
X464705Y45078D01*
X464330Y44891D01*
X459325Y30336D02*
Y26400D01*
X459513Y30336D02*
Y26400D01*
X458763Y30336D02*
X461012D01*
X461574Y30149D01*
X461762Y29961D01*
X461949Y29586D01*
Y29212D01*
X461762Y28837D01*
X461574Y28649D01*
X461012Y28462D01*
X459513D01*
X461012Y30336D02*
X461387Y30149D01*
X461574Y29961D01*
X461762Y29586D01*
Y29212D01*
X461574Y28837D01*
X461387Y28649D01*
X461012Y28462D01*
X458763Y26400D02*
X460075D01*
X460450Y28462D02*
X460825Y28274D01*
X461012Y28087D01*
X461574Y26775D01*
X461762Y26587D01*
X461949D01*
X462137Y26775D01*
X460825Y28274D02*
X461012Y27900D01*
X461387Y26587D01*
X461574Y26400D01*
X461949D01*
X462137Y26775D01*
Y26962D01*
X464517Y29961D02*
Y26400D01*
X465642Y27525D02*
X462643D01*
X464705Y30336D01*
Y26400D01*
X463955D02*
X465267D01*
X459325Y20163D02*
Y16227D01*
X459513Y20163D02*
Y16227D01*
X458763Y20163D02*
X461012D01*
X461574Y19976D01*
X461762Y19789D01*
X461949Y19414D01*
Y19039D01*
X461762Y18664D01*
X461574Y18476D01*
X461012Y18289D01*
X459513D01*
X461012Y20163D02*
X461387Y19976D01*
X461574Y19789D01*
X461762Y19414D01*
Y19039D01*
X461574Y18664D01*
X461387Y18476D01*
X461012Y18289D01*
X458763Y16227D02*
X460075D01*
X460450Y18289D02*
X460825Y18102D01*
X461012Y17914D01*
X461574Y16602D01*
X461762Y16415D01*
X461949D01*
X462137Y16602D01*
X460825Y18102D02*
X461012Y17727D01*
X461387Y16415D01*
X461574Y16227D01*
X461949D01*
X462137Y16602D01*
Y16790D01*
X463018Y20163D02*
X462643Y18289D01*
X463018Y18664D01*
X463580Y18851D01*
X464142D01*
X464705Y18664D01*
X465079Y18289D01*
X465267Y17727D01*
Y17352D01*
X465079Y16790D01*
X464705Y16415D01*
X464142Y16227D01*
X463580D01*
X463018Y16415D01*
X462830Y16602D01*
X462643Y16977D01*
Y17164D01*
X462830Y17352D01*
X463018Y17164D01*
X462830Y16977D01*
X464142Y18851D02*
X464517Y18664D01*
X464892Y18289D01*
X465079Y17727D01*
Y17352D01*
X464892Y16790D01*
X464517Y16415D01*
X464142Y16227D01*
X463018Y20163D02*
X464892D01*
X463018Y19976D02*
X463955D01*
X464892Y20163D01*
X459325Y1436D02*
Y-2500D01*
X459513Y1436D02*
Y-2500D01*
X458763Y1436D02*
X461012D01*
X461574Y1249D01*
X461762Y1061D01*
X461949Y686D01*
Y311D01*
X461762Y-63D01*
X461574Y-251D01*
X461012Y-438D01*
X459513D01*
X461012Y1436D02*
X461387Y1249D01*
X461574Y1061D01*
X461762Y686D01*
Y311D01*
X461574Y-63D01*
X461387Y-251D01*
X461012Y-438D01*
X458763Y-2500D02*
X460075D01*
X460450Y-438D02*
X460825Y-626D01*
X461012Y-813D01*
X461574Y-2125D01*
X461762Y-2313D01*
X461949D01*
X462137Y-2125D01*
X460825Y-626D02*
X461012Y-1001D01*
X461387Y-2313D01*
X461574Y-2500D01*
X461949D01*
X462137Y-2125D01*
Y-1938D01*
X464892Y874D02*
X464705Y686D01*
X464892Y499D01*
X465079Y686D01*
Y874D01*
X464892Y1249D01*
X464517Y1436D01*
X463955D01*
X463393Y1249D01*
X463018Y874D01*
X462830Y499D01*
X462643Y-251D01*
Y-1375D01*
X462830Y-1938D01*
X463205Y-2313D01*
X463767Y-2500D01*
X464142D01*
X464705Y-2313D01*
X465079Y-1938D01*
X465267Y-1375D01*
Y-1188D01*
X465079Y-626D01*
X464705Y-251D01*
X464142Y-63D01*
X463955D01*
X463393Y-251D01*
X463018Y-626D01*
X462830Y-1188D01*
X463955Y1436D02*
X463580Y1249D01*
X463205Y874D01*
X463018Y499D01*
X462830Y-251D01*
Y-1375D01*
X463018Y-1938D01*
X463393Y-2313D01*
X463767Y-2500D01*
X464142D02*
X464517Y-2313D01*
X464892Y-1938D01*
X465079Y-1375D01*
Y-1188D01*
X464892Y-626D01*
X464517Y-251D01*
X464142Y-63D01*
X459325Y58382D02*
Y54445D01*
X459513Y58382D02*
Y54445D01*
X458763Y58382D02*
X461012D01*
X461574Y58194D01*
X461762Y58007D01*
X461949Y57632D01*
Y57257D01*
X461762Y56882D01*
X461574Y56695D01*
X461012Y56507D01*
X459513D01*
X461012Y58382D02*
X461387Y58194D01*
X461574Y58007D01*
X461762Y57632D01*
Y57257D01*
X461574Y56882D01*
X461387Y56695D01*
X461012Y56507D01*
X458763Y54445D02*
X460075D01*
X460450Y56507D02*
X460825Y56320D01*
X461012Y56132D01*
X461574Y54820D01*
X461762Y54633D01*
X461949D01*
X462137Y54820D01*
X460825Y56320D02*
X461012Y55945D01*
X461387Y54633D01*
X461574Y54445D01*
X461949D01*
X462137Y54820D01*
Y55008D01*
X462643Y58382D02*
Y57257D01*
Y57632D02*
X462830Y58007D01*
X463205Y58382D01*
X463580D01*
X464517Y57819D01*
X464892D01*
X465079Y58007D01*
X465267Y58382D01*
X462830Y58007D02*
X463205Y58194D01*
X463580D01*
X464517Y57819D01*
X465267Y58382D02*
Y57819D01*
X465079Y57257D01*
X464330Y56320D01*
X464142Y55945D01*
X463955Y55383D01*
Y54445D01*
X465079Y57257D02*
X464142Y56320D01*
X463955Y55945D01*
X463767Y55383D01*
Y54445D01*
X488212Y-2124D02*
Y-4935D01*
X488400Y-5498D01*
X488775Y-5873D01*
X489337Y-6060D01*
X489712D01*
X490274Y-5873D01*
X490649Y-5498D01*
X490836Y-4935D01*
Y-2124D01*
X488400D02*
Y-4935D01*
X488587Y-5498D01*
X488962Y-5873D01*
X489337Y-6060D01*
X487650Y-2124D02*
X488962D01*
X490274D02*
X491399D01*
X491867Y-2874D02*
X492242Y-2686D01*
X492804Y-2124D01*
Y-6060D01*
X492617Y-2311D02*
Y-6060D01*
X491867D02*
X493554D01*
X384762Y-76464D02*
Y-79275D01*
X384950Y-79838D01*
X385325Y-80213D01*
X385887Y-80400D01*
X386262D01*
X386824Y-80213D01*
X387199Y-79838D01*
X387386Y-79275D01*
Y-76464D01*
X384950D02*
Y-79275D01*
X385137Y-79838D01*
X385512Y-80213D01*
X385887Y-80400D01*
X384200Y-76464D02*
X385512D01*
X386824D02*
X387949D01*
X388605Y-77214D02*
X388792Y-77401D01*
X388605Y-77588D01*
X388417Y-77401D01*
Y-77214D01*
X388605Y-76839D01*
X388792Y-76651D01*
X389354Y-76464D01*
X390104D01*
X390667Y-76651D01*
X390854Y-76839D01*
X391041Y-77214D01*
Y-77588D01*
X390854Y-77963D01*
X390292Y-78338D01*
X389354Y-78713D01*
X388980Y-78900D01*
X388605Y-79275D01*
X388417Y-79838D01*
Y-80400D01*
X390104Y-76464D02*
X390479Y-76651D01*
X390667Y-76839D01*
X390854Y-77214D01*
Y-77588D01*
X390667Y-77963D01*
X390104Y-78338D01*
X389354Y-78713D01*
X388417Y-80025D02*
X388605Y-79838D01*
X388980D01*
X389917Y-80213D01*
X390479D01*
X390854Y-80025D01*
X391041Y-79838D01*
Y-79463D01*
X388980Y-79838D02*
X389917Y-80400D01*
X390667D01*
X390854Y-80213D01*
X391041Y-79838D01*
X394262Y3736D02*
Y925D01*
X394450Y362D01*
X394825Y-13D01*
X395387Y-200D01*
X395762D01*
X396324Y-13D01*
X396699Y362D01*
X396886Y925D01*
Y3736D01*
X394450D02*
Y925D01*
X394637Y362D01*
X395012Y-13D01*
X395387Y-200D01*
X393700Y3736D02*
X395012D01*
X396324D02*
X397449D01*
X398105Y2986D02*
X398292Y2799D01*
X398105Y2612D01*
X397917Y2799D01*
Y2986D01*
X398105Y3361D01*
X398292Y3549D01*
X398854Y3736D01*
X399604D01*
X400167Y3549D01*
X400354Y3174D01*
Y2612D01*
X400167Y2237D01*
X399604Y2049D01*
X399042D01*
X399604Y3736D02*
X399979Y3549D01*
X400167Y3174D01*
Y2612D01*
X399979Y2237D01*
X399604Y2049D01*
X399979Y1862D01*
X400354Y1487D01*
X400541Y1112D01*
Y550D01*
X400354Y175D01*
X400167Y-13D01*
X399604Y-200D01*
X398854D01*
X398292Y-13D01*
X398105Y175D01*
X397917Y550D01*
Y737D01*
X398105Y925D01*
X398292Y737D01*
X398105Y550D01*
X400167Y1674D02*
X400354Y1112D01*
Y550D01*
X400167Y175D01*
X399979Y-13D01*
X399604Y-200D01*
X361662Y-33264D02*
Y-36075D01*
X361850Y-36638D01*
X362225Y-37013D01*
X362787Y-37200D01*
X363162D01*
X363724Y-37013D01*
X364099Y-36638D01*
X364286Y-36075D01*
Y-33264D01*
X361850D02*
Y-36075D01*
X362037Y-36638D01*
X362412Y-37013D01*
X362787Y-37200D01*
X361100Y-33264D02*
X362412D01*
X363724D02*
X364849D01*
X367754Y-33826D02*
X367941Y-33264D01*
Y-34389D01*
X367754Y-33826D01*
X367379Y-33451D01*
X366817Y-33264D01*
X366254D01*
X365692Y-33451D01*
X365317Y-33826D01*
Y-34201D01*
X365505Y-34576D01*
X365692Y-34763D01*
X366067Y-34951D01*
X367192Y-35326D01*
X367567Y-35513D01*
X367941Y-35888D01*
X365317Y-34201D02*
X365692Y-34576D01*
X366067Y-34763D01*
X367192Y-35138D01*
X367567Y-35326D01*
X367754Y-35513D01*
X367941Y-35888D01*
Y-36638D01*
X367567Y-37013D01*
X367004Y-37200D01*
X366442D01*
X365880Y-37013D01*
X365505Y-36638D01*
X365317Y-36075D01*
Y-37200D01*
X365505Y-36638D01*
X369085Y-33264D02*
Y-37200D01*
X369272Y-33264D02*
Y-37200D01*
X368523Y-33264D02*
X370772D01*
X371334Y-33451D01*
X371521Y-33639D01*
X371709Y-34014D01*
Y-34389D01*
X371521Y-34763D01*
X371334Y-34951D01*
X370772Y-35138D01*
Y-33264D02*
X371147Y-33451D01*
X371334Y-33639D01*
X371521Y-34014D01*
Y-34389D01*
X371334Y-34763D01*
X371147Y-34951D01*
X370772Y-35138D01*
X369272D02*
X370772D01*
X371334Y-35326D01*
X371521Y-35513D01*
X371709Y-35888D01*
Y-36450D01*
X371521Y-36825D01*
X371334Y-37013D01*
X370772Y-37200D01*
X368523D01*
X370772Y-35138D02*
X371147Y-35326D01*
X371334Y-35513D01*
X371521Y-35888D01*
Y-36450D01*
X371334Y-36825D01*
X371147Y-37013D01*
X370772Y-37200D01*
X372234Y-34014D02*
X372609Y-33826D01*
X373171Y-33264D01*
Y-37200D01*
X372984Y-33451D02*
Y-37200D01*
X372234D02*
X373921D01*
X540575Y3885D02*
X543012Y-51D01*
X540762Y3885D02*
X543199Y-51D01*
Y3885D02*
X540575Y-51D01*
X540200Y3885D02*
X541325D01*
X542449D02*
X543574D01*
X540200Y-51D02*
X541325D01*
X542449D02*
X543574D01*
X544080Y3135D02*
X544455Y3323D01*
X545017Y3885D01*
Y-51D01*
X544830Y3698D02*
Y-51D01*
X544080D02*
X545767D01*
X358675Y50236D02*
X361111Y46300D01*
X358862Y50236D02*
X361299Y46300D01*
Y50236D02*
X358675Y46300D01*
X358300Y50236D02*
X359425D01*
X360549D02*
X361674D01*
X358300Y46300D02*
X359425D01*
X360549D02*
X361674D01*
X362367Y49486D02*
X362555Y49299D01*
X362367Y49112D01*
X362180Y49299D01*
Y49486D01*
X362367Y49861D01*
X362555Y50049D01*
X363117Y50236D01*
X363867D01*
X364429Y50049D01*
X364617Y49861D01*
X364804Y49486D01*
Y49112D01*
X364617Y48737D01*
X364054Y48362D01*
X363117Y47987D01*
X362742Y47800D01*
X362367Y47425D01*
X362180Y46862D01*
Y46300D01*
X363867Y50236D02*
X364242Y50049D01*
X364429Y49861D01*
X364617Y49486D01*
Y49112D01*
X364429Y48737D01*
X363867Y48362D01*
X363117Y47987D01*
X362180Y46675D02*
X362367Y46862D01*
X362742D01*
X363679Y46487D01*
X364242D01*
X364617Y46675D01*
X364804Y46862D01*
Y47237D01*
X362742Y46862D02*
X363679Y46300D01*
X364429D01*
X364617Y46487D01*
X364804Y46862D01*
X590862Y1836D02*
Y-2100D01*
X591050Y1836D02*
Y-2100D01*
X590300Y1836D02*
X592174D01*
X592737Y1649D01*
X593112Y1274D01*
X593299Y899D01*
X593486Y337D01*
Y-600D01*
X593299Y-1163D01*
X593112Y-1538D01*
X592737Y-1913D01*
X592174Y-2100D01*
X590300D01*
X592174Y1836D02*
X592549Y1649D01*
X592924Y1274D01*
X593112Y899D01*
X593299Y337D01*
Y-600D01*
X593112Y-1163D01*
X592924Y-1538D01*
X592549Y-1913D01*
X592174Y-2100D01*
X594011Y1086D02*
X594386Y1274D01*
X594948Y1836D01*
Y-2100D01*
X594761Y1649D02*
Y-2100D01*
X594011D02*
X595698D01*
X374837Y103174D02*
X375024Y103736D01*
Y102612D01*
X374837Y103174D01*
X374462Y103549D01*
X373900Y103736D01*
X373337D01*
X372775Y103549D01*
X372400Y103174D01*
Y102799D01*
X372587Y102424D01*
X372775Y102237D01*
X373150Y102049D01*
X374274Y101674D01*
X374649Y101487D01*
X375024Y101112D01*
X372400Y102799D02*
X372775Y102424D01*
X373150Y102237D01*
X374274Y101862D01*
X374649Y101674D01*
X374837Y101487D01*
X375024Y101112D01*
Y100362D01*
X374649Y99987D01*
X374087Y99800D01*
X373525D01*
X372962Y99987D01*
X372587Y100362D01*
X372400Y100925D01*
Y99800D01*
X372587Y100362D01*
X376167Y103736D02*
X376917Y99800D01*
X376355Y103736D02*
X376917Y100737D01*
X377667Y103736D02*
X376917Y99800D01*
X377667Y103736D02*
X378417Y99800D01*
X377854Y103736D02*
X378417Y100737D01*
X379166Y103736D02*
X378417Y99800D01*
X375605Y103736D02*
X376917D01*
X378604D02*
X379729D01*
X380160Y102986D02*
X380535Y103174D01*
X381097Y103736D01*
Y99800D01*
X380910Y103549D02*
Y99800D01*
X380160D02*
X381847D01*
D22*
X363212Y-48885D02*
X359839D01*
X361526Y-47198D02*
Y-50572D01*
X422312Y-48885D02*
X418939D01*
X420625Y-47198D02*
Y-50572D01*
D23*
X573800Y16737D02*
D03*
X583600Y13600D02*
D03*
D24*
X446800Y46610D02*
D03*
Y27830D02*
D03*
D25*
Y18440D02*
D03*
Y-340D02*
D03*
Y56000D02*
D03*
M02*
